<?xml version="1.0" encoding="utf-8"?>
<!-- Generator: Adobe Illustrator 19.0.1, SVG Export Plug-In . SVG Version: 6.00 Build 0)  -->
<svg version="1.1" id="Layer_1" xmlns="http://www.w3.org/2000/svg" xmlns:xlink="http://www.w3.org/1999/xlink" x="0px" y="0px"
	 viewBox="-295 387 20 20" style="enable-background:new -295 387 20 20;" xml:space="preserve">
<style type="text/css">
	.st0{fill:url(#SVGID_1_);}
	.st1{opacity:0.7;}
	.st2{fill:#FFFFFF;}
	.st3{fill:#45494D;}
	.st4{fill:#448CCA;}
	.st5{fill:url(#SVGID_2_);}
</style>
<g id="caret-down">
	<g>
		<g id="button-2px-corner_29_">
			
				<linearGradient id="SVGID_1_" gradientUnits="userSpaceOnUse" x1="-285" y1="409" x2="-285" y2="389" gradientTransform="matrix(1 0 0 -1 0 796)">
				<stop  offset="0" style="stop-color:#FFFFFF"/>
				<stop  offset="0.2499" style="stop-color:#FBFCFD"/>
				<stop  offset="0.5087" style="stop-color:#EEF4F8"/>
				<stop  offset="0.7709" style="stop-color:#DAE7F0"/>
				<stop  offset="0.8" style="stop-color:#D7E5EF"/>
			</linearGradient>
			<path class="st0" d="M-295,404c0,1.6,1.4,3,3,3h14c1.6,0,3-1.4,3-3v-14c0-1.6-1.4-3-3-3h-14c-1.6,0-3,1.4-3,3V404z"/>
			<g class="st1">
				<path class="st2" d="M-278,389c0.5,0,1,0.5,1,1v14c0,0.5-0.5,1-1,1h-14c-0.5,0-1-0.5-1-1v-14c0-0.5,0.5-1,1-1H-278 M-278,387
					h-14c-1.6,0-3,1.4-3,3v14c0,1.6,1.4,3,3,3h14c1.6,0,3-1.4,3-3v-14C-275,388.4-276.4,387-278,387L-278,387z"/>
			</g>
			<g class="st1">
				<path class="st3" d="M-278,388c1.1,0,2,0.9,2,2v14c0,1.1-0.9,2-2,2h-14c-1.1,0-2-0.9-2-2v-14c0-1.1,0.9-2,2-2H-278 M-278,387
					h-14c-1.6,0-3,1.4-3,3v14c0,1.6,1.4,3,3,3h14c1.6,0,3-1.4,3-3v-14C-275,388.4-276.4,387-278,387L-278,387z"/>
			</g>
		</g>
		<g id="chevron_4_">
			<path class="st4" d="M-285.3,397.8c0.2-0.2,0.4-0.2,0.6,0l2.7,2.7c0.2,0.2,0.4,0.2,0.6,0l1.6-1.6c0.2-0.2,0.2-0.4,0-0.6l-2.7-2.7
				c-0.2-0.2-0.4-0.4-0.6-0.6l-1.6-1.6c-0.2-0.2-0.4-0.2-0.6,0l-1.6,1.6c-0.2,0.2-0.4,0.4-0.6,0.6l-2.7,2.7c-0.2,0.2-0.2,0.4,0,0.6
				l1.6,1.6c0.2,0.2,0.4,0.2,0.6,0L-285.3,397.8z"/>
			
				<linearGradient id="SVGID_2_" gradientUnits="userSpaceOnUse" x1="-284.9996" y1="393.197" x2="-284.9996" y2="400.802" gradientTransform="matrix(-1 0 0 -1 -569.9991 793.999)">
				<stop  offset="0" style="stop-color:#FFFFFF"/>
				<stop  offset="0.9" style="stop-color:#D7E5EF"/>
			</linearGradient>
			<path class="st5" d="M-288.2,400.7c-0.1,0-0.2,0-0.3-0.1l-1.6-1.6c-0.2-0.2-0.2-0.4,0-0.6l2.7-2.7c0.2-0.2,0.4-0.4,0.6-0.6
				l1.6-1.6c0.1-0.1,0.2-0.1,0.3-0.1c0.1,0,0.2,0,0.3,0.1l1.6,1.6c0.2,0.2,0.4,0.4,0.6,0.6l2.7,2.7c0.2,0.2,0.2,0.4,0,0.6l-1.6,1.6
				c-0.1,0.1-0.2,0.1-0.3,0.1c-0.1,0-0.2,0-0.3-0.1l-2.7-2.7c-0.1-0.1-0.2-0.1-0.3-0.1c-0.1,0-0.2,0-0.3,0.1l-2.7,2.7
				C-288,400.6-288.1,400.7-288.2,400.7 M-288.2,400.8c0.1,0,0.3-0.1,0.4-0.2l2.7-2.7c0.1-0.1,0.1-0.1,0.2-0.1c0.1,0,0.1,0,0.2,0.1
				l2.7,2.7c0.1,0.1,0.2,0.2,0.4,0.2c0.1,0,0.3-0.1,0.4-0.2l1.6-1.6c0.2-0.2,0.2-0.5,0-0.7l-2.7-2.7c-0.2-0.2-0.4-0.4-0.6-0.6
				l-1.6-1.6c-0.1-0.1-0.2-0.2-0.4-0.2c-0.1,0-0.3,0.1-0.4,0.2l-1.6,1.6c-0.2,0.2-0.4,0.4-0.6,0.6l-2.7,2.7c-0.2,0.2-0.2,0.5,0,0.7
				l1.6,1.6C-288.5,400.7-288.4,400.8-288.2,400.8L-288.2,400.8z"/>
		</g>
	</g>
</g>
<g id="Layer_1_1_">
</g>
</svg>
