<?xml version="1.0" encoding="iso-8859-1"?>
<!-- Generator: Adobe Illustrator 16.0.0, SVG Export Plug-In . SVG Version: 6.00 Build 0)  -->
<!DOCTYPE svg PUBLIC "-//W3C//DTD SVG 1.1//EN" "http://www.w3.org/Graphics/SVG/1.1/DTD/svg11.dtd">
<svg version="1.1" xmlns="http://www.w3.org/2000/svg" xmlns:xlink="http://www.w3.org/1999/xlink" x="0px" y="0px" width="256px"
	 height="256px" viewBox="0 0 256 256" style="enable-background:new 0 0 256 256;" xml:space="preserve">
<g id="caret-down-hover">
	<g id="button-2px-corner-hover_1_">
		<linearGradient id="SVGID_1_" gradientUnits="userSpaceOnUse" x1="127.9995" y1="0" x2="127.9995" y2="256.0005">
			<stop  offset="0" style="stop-color:#A0C7E7"/>
			<stop  offset="0.9" style="stop-color:#448CCA"/>
		</linearGradient>
		<path style="fill:url(#SVGID_1_);" d="M253,3v250H3V3H253 M254,0H2C0.9,0,0,0.9,0,2v252c0,1.1,0.9,2,2,2h252c1.1,0,2-0.9,2-2V2
			C256,0.9,255.1,0,254,0L254,0z"/>
		<linearGradient id="SVGID_2_" gradientUnits="userSpaceOnUse" x1="127.9995" y1="25.2632" x2="127.9995" y2="239.0884">
			<stop  offset="0" style="stop-color:#A0C7E7"/>
			<stop  offset="0.9" style="stop-color:#448CCA"/>
		</linearGradient>
		<path style="fill:url(#SVGID_2_);" d="M3,254c-0.55,0-1-0.45-1-1V3c0-0.55,0.45-1,1-1h250c0.55,0,1,0.45,1,1v250
			c0,0.55-0.45,1-1,1H3z"/>
		<path style="fill:#4E8ABE;" d="M254,1c0.552,0,1,0.449,1,1v252c0,0.551-0.448,1-1,1H2c-0.551,0-1-0.449-1-1V2c0-0.551,0.449-1,1-1
			H254 M254,0H2C0.9,0,0,0.9,0,2v252c0,1.1,0.9,2,2,2h252c1.1,0,2-0.9,2-2V2C256,0.9,255.1,0,254,0L254,0z"/>
	</g>
	<g id="chevron-down_1_">
		<path style="fill:#FFFFFF;" d="M131.58,117.317c-1.965,2.008-5.195,2.008-7.155,0L90.23,82.422c-1.961-2.01-5.19-2.01-7.15,0
			l-20.425,20.835c-1.96,2.01-1.96,5.3,0,7.31l34.189,34.875c1.966,2.008,5.195,5.298,7.155,7.308l20.425,20.825
			c1.96,2.01,5.19,2.01,7.155,0L152,152.75c1.965-2.01,5.195-5.3,7.155-7.308l34.189-34.875c1.966-2.01,1.966-5.3,0-7.31
			l-20.42-20.835c-1.96-2.01-5.194-2.01-7.155,0L131.58,117.317z"/>
		<g style="opacity:0.3;">
			<linearGradient id="SVGID_3_" gradientUnits="userSpaceOnUse" x1="128.0024" y1="176.082" x2="128.0024" y2="79.9155">
				<stop  offset="0" style="stop-color:#A1C8E6"/>
				<stop  offset="0.9" style="stop-color:#448CCA"/>
			</linearGradient>
			<path style="fill:url(#SVGID_3_);" d="M169.348,80.915c1.299,0,2.598,0.502,3.577,1.507l20.42,20.835
				c1.966,2.01,1.966,5.3,0,7.31l-34.189,34.875c-1.96,2.008-5.19,5.298-7.155,7.308l-20.42,20.825
				c-0.982,1.005-2.281,1.507-3.58,1.507s-2.596-0.502-3.576-1.507L104,152.75c-1.96-2.01-5.189-5.3-7.155-7.308l-34.189-34.875
				c-1.96-2.01-1.96-5.3,0-7.31L83.08,82.422c0.98-1.005,2.277-1.507,3.575-1.507s2.595,0.502,3.576,1.507l34.194,34.895
				c0.98,1.004,2.277,1.506,3.576,1.506s2.597-0.502,3.58-1.506l34.189-34.895C166.75,81.417,168.049,80.915,169.348,80.915
				 M169.348,79.915c-1.631,0-3.155,0.643-4.294,1.809l-34.188,34.894c-0.762,0.777-1.779,1.206-2.866,1.206
				c-1.086,0-2.102-0.428-2.86-1.205L90.945,81.723c-1.137-1.165-2.661-1.808-4.29-1.808c-1.629,0-3.153,0.643-4.291,1.809
				l-20.423,20.833c-2.343,2.403-2.343,6.309-0.002,8.708l34.191,34.877l2.182,2.227c1.712,1.748,3.636,3.711,4.971,5.079
				l20.427,20.827c1.136,1.164,2.66,1.807,4.29,1.807c1.629,0,3.155-0.642,4.294-1.808l20.419-20.824
				c0.866-0.886,1.978-2.02,3.116-3.183c1.449-1.478,2.943-3.003,4.041-4.127l34.188-34.873c2.35-2.401,2.35-6.308,0.001-8.709
				l-20.421-20.836C172.503,80.558,170.979,79.915,169.348,79.915L169.348,79.915z"/>
		</g>
	</g>
</g>
<g id="Layer_1">
</g>
</svg>
