<?xml version="1.0" encoding="iso-8859-1"?>
<!-- Generator: Adobe Illustrator 16.0.0, SVG Export Plug-In . SVG Version: 6.00 Build 0)  -->
<!DOCTYPE svg PUBLIC "-//W3C//DTD SVG 1.1//EN" "http://www.w3.org/Graphics/SVG/1.1/DTD/svg11.dtd">
<svg version="1.1" xmlns="http://www.w3.org/2000/svg" xmlns:xlink="http://www.w3.org/1999/xlink" x="0px" y="0px" width="256px"
	 height="256px" viewBox="0 0 256 256" style="enable-background:new 0 0 256 256;" xml:space="preserve">
<g id="caret-down">
	<g id="button-2px-corner_28_">
		<path style="fill:#FFFFFF;" d="M253,3v250H3V3H253 M254,0H2C0.9,0,0,0.9,0,2v252c0,1.1,0.9,2,2,2h252c1.1,0,2-0.9,2-2V2
			C256,0.9,255.1,0,254,0L254,0z"/>
		<linearGradient id="SVGID_1_" gradientUnits="userSpaceOnUse" x1="127.9995" y1="25.2632" x2="127.9995" y2="239.0884">
			<stop  offset="0" style="stop-color:#FFFFFF"/>
			<stop  offset="0.9" style="stop-color:#D7E5EF"/>
		</linearGradient>
		<path style="fill:url(#SVGID_1_);" d="M3,254c-0.55,0-1-0.45-1-1V3c0-0.55,0.45-1,1-1h250c0.55,0,1,0.45,1,1v250
			c0,0.55-0.45,1-1,1H3z"/>
		<path style="fill:#B6B6B7;" d="M254,1c0.552,0,1,0.449,1,1v252c0,0.551-0.448,1-1,1H2c-0.551,0-1-0.449-1-1V2c0-0.551,0.449-1,1-1
			H254 M254,0H2C0.9,0,0,0.9,0,2v252c0,1.1,0.9,2,2,2h252c1.1,0,2-0.9,2-2V2C256,0.9,255.1,0,254,0L254,0z"/>
	</g>
	<g id="chevron-down_2_">
		<path style="fill:#4E8ABE;" d="M131.577,117.328c-1.962,2-5.192,2-7.155,0L90.23,82.422c-1.961-2.018-5.193-2.018-7.153,0
			L62.655,103.25c-1.963,2.02-1.963,5.308,0,7.328l34.189,34.865c1.963,2,5.192,5.288,7.155,7.308l20.422,20.828
			c1.963,2,5.193,2,7.155,0L152,152.75c1.96-2.02,5.192-5.308,7.155-7.308l34.189-34.865c1.963-2.02,1.963-5.308,0-7.328
			l-20.423-20.828c-1.962-2.018-5.191-2.018-7.152,0L131.577,117.328z"/>
		<g>
			<linearGradient id="SVGID_2_" gradientUnits="userSpaceOnUse" x1="60.186" y1="127.9937" x2="195.814" y2="127.9936">
				<stop  offset="0" style="stop-color:#D7E5EF"/>
				<stop  offset="0.9" style="stop-color:#FFFFFF"/>
			</linearGradient>
			<path style="fill:url(#SVGID_2_);" d="M169.346,80.909c1.297,0,2.596,0.504,3.576,1.513l20.423,20.828
				c1.963,2.02,1.963,5.308,0,7.328l-34.189,34.865c-1.963,2-5.195,5.288-7.155,7.308l-20.423,20.828c-0.981,1-2.279,1.5-3.577,1.5
				c-1.298,0-2.597-0.5-3.578-1.5L104,152.75c-1.963-2.02-5.192-5.308-7.155-7.308l-34.189-34.865c-1.963-2.02-1.963-5.308,0-7.328
				l20.422-20.828c0.98-1.009,2.278-1.513,3.576-1.513c1.298,0,2.597,0.504,3.577,1.513l34.191,34.905c0.981,1,2.28,1.5,3.578,1.5
				c1.298,0,2.596-0.5,3.577-1.5l34.192-34.905C166.75,81.414,168.048,80.909,169.346,80.909 M169.346,79.909
				c-1.63,0-3.155,0.645-4.293,1.816l-34.19,34.902c-0.758,0.773-1.775,1.2-2.862,1.2c-1.087,0-2.104-0.426-2.864-1.201
				L90.945,81.723c-1.136-1.168-2.661-1.813-4.292-1.813s-3.156,0.645-4.293,1.816L61.941,102.55c-2.34,2.408-2.34,6.32-0.003,8.725
				l34.193,34.868l0.597,0.607c1.972,2.01,4.781,4.871,6.555,6.697l20.425,20.831c1.139,1.161,2.663,1.8,4.292,1.8
				s3.152-0.639,4.291-1.8l20.423-20.828c1.663-1.714,4.235-4.334,6.176-6.31l0.979-0.998l34.189-34.865
				c2.34-2.408,2.34-6.32,0.003-8.725l-20.426-20.831C172.5,80.554,170.976,79.909,169.346,79.909L169.346,79.909z"/>
		</g>
	</g>
</g>
<g id="Layer_1">
</g>
</svg>
