<?xml version="1.0" encoding="iso-8859-1"?>
<!-- Generator: Adobe Illustrator 16.0.0, SVG Export Plug-In . SVG Version: 6.00 Build 0)  -->
<!DOCTYPE svg PUBLIC "-//W3C//DTD SVG 1.1//EN" "http://www.w3.org/Graphics/SVG/1.1/DTD/svg11.dtd">
<svg version="1.1" xmlns="http://www.w3.org/2000/svg" xmlns:xlink="http://www.w3.org/1999/xlink" x="0px" y="0px"
	 width="256.35px" height="227px" viewBox="0 0 256.35 227" style="enable-background:new 0 0 256.35 227;" xml:space="preserve">
<g id="checkbox-checked-hover">
	<g id="checkbox-checked-hover_1_">
		<linearGradient id="SVGID_1_" gradientUnits="userSpaceOnUse" x1="113.4995" y1="10.9131" x2="113.4995" y2="220.7364">
			<stop  offset="0" style="stop-color:#F2F6FB"/>
			<stop  offset="0.02" style="stop-color:#F2F6FB"/>
			<stop  offset="0.36" style="stop-color:#CDDFEC"/>
			<stop  offset="0.7287" style="stop-color:#C4D8E8"/>
			<stop  offset="1" style="stop-color:#C1D5E6"/>
		</linearGradient>
		<path style="fill:url(#SVGID_1_);" d="M0,225c0,1.1,0.9,2,2,2h223c1.1,0,2-0.9,2-2V2c0-1.1-0.9-2-2-2H2c-1.1,0-2,0.9-2,2V225z"/>
		<linearGradient id="SVGID_2_" gradientUnits="userSpaceOnUse" x1="113.4995" y1="-4.882812e-04" x2="113.4995" y2="227.0005">
			<stop  offset="0" style="stop-color:#F2F6FB"/>
			<stop  offset="0.4" style="stop-color:#F2F6FB"/>
			<stop  offset="0.54" style="stop-color:#D7E5EF"/>
		</linearGradient>
		<path style="fill:url(#SVGID_2_);" d="M225,1.5c0.271,0,0.5,0.229,0.5,0.5v223c0,0.271-0.229,0.5-0.5,0.5H2
			c-0.271,0-0.5-0.229-0.5-0.5V2c0-0.271,0.229-0.5,0.5-0.5H225 M225,0H2c-1.1,0-2,0.9-2,2v223c0,1.1,0.9,2,2,2h223c1.1,0,2-0.9,2-2
			V2C227,0.899,226.1,0,225,0L225,0z"/>
		<path style="fill:#87ACCD;" d="M225,1c0.552,0,1,0.449,1,1v223c0,0.551-0.448,1-1,1H2c-0.551,0-1-0.449-1-1V2c0-0.551,0.449-1,1-1
			H225 M225,0H2c-1.1,0-2,0.9-2,2v223c0,1.1,0.9,2,2,2h223c1.1,0,2-0.9,2-2V2C227,0.899,226.1,0,225,0L225,0z"/>
	</g>
	<g id="checked-indicator_17_">
		
			<path style="opacity:0.2;fill:none;stroke:#F2F6FB;stroke-width:0.7;stroke-linecap:round;stroke-linejoin:round;stroke-miterlimit:10;" d="
			M119.088,130.553c0,0,0.357-3.84-3.979-8.02c-4.332-4.183-37.783-36.352-37.783-36.352C64.732,74.03,64.425,74.354,52.58,86.643
			l-9.828,10.172c-11.98,12.424-9.966,14.607,0.443,24.675l25.189,24.235c6.926,6.688,18.259,17.593,25.189,24.267l12.61,12.082
			c12.579,12.15,12.579,12.135,24.728-0.443l12.118-12.56c6.688-6.913,17.61-18.228,24.302-25.139l79.629-82.479
			c12.133-12.56,12.117-12.577-0.443-24.712l-8.688-8.311c-12.028-11.621-12.544-12.167-24.728,0.461l-79.629,82.462
			c0,0-8.191,8.466-10.666,11.023C120.332,124.938,119.088,130.553,119.088,130.553z"/>
		
			<linearGradient id="SVGID_3_" gradientUnits="userSpaceOnUse" x1="244.3027" y1="1307.1895" x2="70.5587" y2="1161.401" gradientTransform="matrix(0.6947 -0.7193 0.7205 0.6934 -850.3706 -634.7603)">
			<stop  offset="0" style="stop-color:#66A2D7"/>
			<stop  offset="1" style="stop-color:#517FA5"/>
		</linearGradient>
		
			<path style="opacity:0.6;fill:none;stroke:url(#SVGID_3_);stroke-width:0.35;stroke-linecap:round;stroke-linejoin:round;stroke-miterlimit:10;" d="
			M119.088,130.553c0,0,0.357-3.84-3.979-8.02c-4.332-4.183-37.783-36.352-37.783-36.352C64.732,74.03,64.425,74.354,52.58,86.643
			l-9.828,10.172c-11.98,12.424-9.966,14.607,0.443,24.675l25.189,24.235c6.926,6.688,18.259,17.593,25.189,24.267l12.61,12.082
			c12.579,12.15,12.579,12.135,24.728-0.443l12.118-12.56c6.688-6.913,17.61-18.228,24.302-25.139l79.629-82.479
			c12.133-12.56,12.117-12.577-0.443-24.712l-8.688-8.311c-12.028-11.621-12.544-12.167-24.728,0.461l-79.629,82.462
			c0,0-8.191,8.466-10.666,11.023C120.332,124.938,119.088,130.553,119.088,130.553z"/>
		
			<linearGradient id="SVGID_4_" gradientUnits="userSpaceOnUse" x1="162.8174" y1="1285.9277" x2="170.3439" y2="1243.2424" gradientTransform="matrix(0.6947 -0.7193 0.7205 0.6934 -850.3706 -634.7603)">
			<stop  offset="0" style="stop-color:#336B9A"/>
			<stop  offset="1" style="stop-color:#448CCA"/>
		</linearGradient>
		<path style="fill:url(#SVGID_4_);" d="M119.088,130.553c0,0,0.357-3.84-3.979-8.02c-4.332-4.183-37.783-36.352-37.783-36.352
			C64.732,74.03,64.425,74.354,52.58,86.643l-9.828,10.172c-11.98,12.424-9.966,14.607,0.443,24.675l25.189,24.235
			c6.926,6.688,18.259,17.593,25.189,24.267l12.61,12.082c12.579,12.15,12.579,12.135,24.728-0.443l12.118-12.56
			c6.688-6.913,17.61-18.228,24.302-25.139l79.629-82.479c12.133-12.56,12.117-12.577-0.443-24.712l-8.688-8.311
			c-12.028-11.621-12.544-12.167-24.728,0.461l-79.629,82.462c0,0-8.191,8.466-10.666,11.023
			C120.332,124.938,119.088,130.553,119.088,130.553z"/>
	</g>
</g>
<g id="Layer_1">
</g>
</svg>
