<?xml version="1.0" encoding="iso-8859-1"?>
<!-- Generator: Adobe Illustrator 16.0.0, SVG Export Plug-In . SVG Version: 6.00 Build 0)  -->
<!DOCTYPE svg PUBLIC "-//W3C//DTD SVG 1.1//EN" "http://www.w3.org/Graphics/SVG/1.1/DTD/svg11.dtd">
<svg version="1.1" xmlns="http://www.w3.org/2000/svg" xmlns:xlink="http://www.w3.org/1999/xlink" x="0px" y="0px"
	 width="222.148px" height="172.259px" viewBox="0 0 222.148 172.259" style="enable-background:new 0 0 222.148 172.259;"
	 xml:space="preserve">
<g id="checked-indicator">
	<g id="checked-indicator_3_">
		
			<path style="opacity:0.2;fill:none;stroke:#F2F6FB;stroke-width:0.7;stroke-linecap:round;stroke-linejoin:round;stroke-miterlimit:10;" d="
			M84.885,111.334c0,0,0.357-3.84-3.979-8.02c-4.332-4.182-37.783-36.351-37.783-36.351C30.53,54.812,30.222,55.136,18.377,67.425
			L8.549,77.597c-11.98,12.424-9.966,14.606,0.443,24.675l25.189,24.236c6.926,6.688,18.259,17.592,25.189,24.266l12.61,12.082
			c12.579,12.151,12.579,12.136,24.728-0.443l12.118-12.559c6.688-6.914,17.61-18.229,24.301-25.139l79.629-82.479
			c12.133-12.56,12.117-12.577-0.443-24.712l-8.688-8.311c-12.029-11.621-12.545-12.167-24.729,0.461L99.27,92.135
			c0,0-8.191,8.467-10.666,11.024C86.129,105.719,84.885,111.334,84.885,111.334z"/>
		
			<linearGradient id="SVGID_1_" gradientUnits="userSpaceOnUse" x1="209.7656" y1="1273.2207" x2="36.0231" y2="1127.4335" gradientTransform="matrix(0.6947 -0.7193 0.7205 0.6934 -836.1069 -655.2666)">
			<stop  offset="0" style="stop-color:#66A2D7"/>
			<stop  offset="1" style="stop-color:#517FA5"/>
		</linearGradient>
		
			<path style="opacity:0.6;fill:none;stroke:url(#SVGID_1_);stroke-width:0.35;stroke-linecap:round;stroke-linejoin:round;stroke-miterlimit:10;" d="
			M84.885,111.334c0,0,0.357-3.84-3.979-8.02c-4.332-4.182-37.783-36.351-37.783-36.351C30.53,54.812,30.222,55.136,18.377,67.425
			L8.549,77.597c-11.98,12.424-9.966,14.606,0.443,24.675l25.189,24.236c6.926,6.688,18.259,17.592,25.189,24.266l12.61,12.082
			c12.579,12.151,12.579,12.136,24.728-0.443l12.118-12.559c6.688-6.914,17.61-18.229,24.301-25.139l79.629-82.479
			c12.133-12.56,12.117-12.577-0.443-24.712l-8.688-8.311c-12.029-11.621-12.545-12.167-24.729,0.461L99.27,92.135
			c0,0-8.191,8.467-10.666,11.024C86.129,105.719,84.885,111.334,84.885,111.334z"/>
		
			<linearGradient id="SVGID_2_" gradientUnits="userSpaceOnUse" x1="128.2822" y1="1251.9609" x2="135.8088" y2="1209.2755" gradientTransform="matrix(0.6947 -0.7193 0.7205 0.6934 -836.1069 -655.2666)">
			<stop  offset="0" style="stop-color:#336B9A"/>
			<stop  offset="1" style="stop-color:#448CCA"/>
		</linearGradient>
		<path style="fill:url(#SVGID_2_);" d="M84.885,111.334c0,0,0.357-3.84-3.979-8.02c-4.332-4.182-37.783-36.351-37.783-36.351
			C30.53,54.812,30.222,55.136,18.377,67.425L8.549,77.597c-11.98,12.424-9.966,14.606,0.443,24.675l25.189,24.236
			c6.926,6.688,18.259,17.592,25.189,24.266l12.61,12.082c12.579,12.151,12.579,12.136,24.728-0.443l12.118-12.559
			c6.688-6.914,17.61-18.229,24.301-25.139l79.629-82.479c12.133-12.56,12.117-12.577-0.443-24.712l-8.688-8.311
			c-12.029-11.621-12.545-12.167-24.729,0.461L99.27,92.135c0,0-8.191,8.467-10.666,11.024
			C86.129,105.719,84.885,111.334,84.885,111.334z"/>
	</g>
</g>
<g id="Layer_1">
</g>
</svg>
