<?xml version="1.0" encoding="iso-8859-1"?>
<!-- Generator: Adobe Illustrator 16.0.0, SVG Export Plug-In . SVG Version: 6.00 Build 0)  -->
<!DOCTYPE svg PUBLIC "-//W3C//DTD SVG 1.1//EN" "http://www.w3.org/Graphics/SVG/1.1/DTD/svg11.dtd">
<svg version="1.1" xmlns="http://www.w3.org/2000/svg" xmlns:xlink="http://www.w3.org/1999/xlink" x="0px" y="0px" width="256px"
	 height="256px" viewBox="0 0 256 256" style="enable-background:new 0 0 256 256;" xml:space="preserve">
<g id="delete">
	<path id="delete_2_" style="fill:#4E8ABE;" d="M128,0C57.299,0,0,57.295,0,128c0,70.697,57.299,128,128,128
		c70.699,0,128-57.303,128-128C256,57.295,198.699,0,128,0z M205.412,96.356l-31.264,31.25c-0.205,0.212-0.205,0.575,0,0.795
		l31.264,31.242c0.219,0.22,0.219,0.577,0,0.788l-44.982,44.983c-0.211,0.215-0.562,0.215-0.783,0l-31.25-31.264
		c-0.213-0.212-0.588-0.212-0.795,0l-31.25,31.264c-0.217,0.215-0.572,0.215-0.783,0l-44.982-44.983
		c-0.219-0.211-0.219-0.568,0-0.788l31.264-31.242c0.205-0.22,0.205-0.583,0-0.795l-31.264-31.25c-0.219-0.22-0.219-0.577,0-0.788
		l44.982-44.978c0.211-0.228,0.566-0.228,0.785,0l31.248,31.257c0.207,0.211,0.582,0.211,0.795,0l31.25-31.257
		c0.221-0.228,0.572-0.228,0.783,0l44.982,44.978C205.631,95.78,205.631,96.136,205.412,96.356z"/>
</g>
<g id="Layer_1">
</g>
</svg>
