<?xml version="1.0" encoding="iso-8859-1"?>
<!-- Generator: Adobe Illustrator 16.0.0, SVG Export Plug-In . SVG Version: 6.00 Build 0)  -->
<!DOCTYPE svg PUBLIC "-//W3C//DTD SVG 1.1//EN" "http://www.w3.org/Graphics/SVG/1.1/DTD/svg11.dtd">
<svg version="1.1" xmlns="http://www.w3.org/2000/svg" xmlns:xlink="http://www.w3.org/1999/xlink" x="0px" y="0px" width="256px"
	 height="256px" viewBox="0 0 256 256" style="enable-background:new 0 0 256 256;" xml:space="preserve">
<g id="gridview-paragraph">
	<g id="button-2px-corner_62_">
		<path style="fill:#4E8ABE;" d="M0,58.828c0,0.138,0.112,0.25,0.25,0.25h255.5c0.138,0,0.25-0.112,0.25-0.25V0.25
			c0-0.138-0.112-0.25-0.25-0.25H0.25C0.112,0,0,0.112,0,0.25V58.828z"/>
	</g>
	<g id="button-2px-corner_60_">
		<path style="fill:#4E8ABE;" d="M0,255.75c0,0.138,0.112,0.25,0.25,0.25h255.5c0.138,0,0.25-0.112,0.25-0.25v-58.578
			c0-0.138-0.112-0.25-0.25-0.25H0.25c-0.138,0-0.25,0.112-0.25,0.25V255.75z"/>
	</g>
	<g id="button-2px-corner_57_">
		<path style="fill:#4E8ABE;" d="M0,157.287c0,0.138,0.112,0.25,0.25,0.25h255.5c0.138,0,0.25-0.112,0.25-0.25V98.712
			c0-0.138-0.112-0.25-0.25-0.25H0.25c-0.138,0-0.25,0.112-0.25,0.25V157.287z"/>
	</g>
</g>
<g id="Layer_1">
</g>
</svg>
