<?xml version="1.0" encoding="iso-8859-1"?>
<!-- Generator: Adobe Illustrator 16.0.0, SVG Export Plug-In . SVG Version: 6.00 Build 0)  -->
<!DOCTYPE svg PUBLIC "-//W3C//DTD SVG 1.1//EN" "http://www.w3.org/Graphics/SVG/1.1/DTD/svg11.dtd">
<svg version="1.1" xmlns="http://www.w3.org/2000/svg" xmlns:xlink="http://www.w3.org/1999/xlink" x="0px" y="0px" width="256px"
	 height="256px" viewBox="0 0 256 256" style="enable-background:new 0 0 256 256;" xml:space="preserve">
<g id="gridview-thumbnail">
	<g id="button-2px-corner_56_">
		<path style="fill:#4E8ABE;" d="M196.923,58.828c0,0.138,0.112,0.25,0.25,0.25h58.577c0.138,0,0.25-0.112,0.25-0.25V0.25
			c0-0.138-0.112-0.25-0.25-0.25h-58.577c-0.138,0-0.25,0.112-0.25,0.25V58.828z"/>
	</g>
	<g id="button-2px-corner_54_">
		<path style="fill:#4E8ABE;" d="M98.46,58.828c0,0.138,0.112,0.25,0.25,0.25h58.58c0.138,0,0.25-0.112,0.25-0.25V0.25
			c0-0.138-0.112-0.25-0.25-0.25H98.71c-0.138,0-0.25,0.112-0.25,0.25V58.828z"/>
	</g>
	<g id="button-2px-corner_52_">
		<path style="fill:#4E8ABE;" d="M0,58.828c0,0.138,0.112,0.25,0.25,0.25h58.577c0.138,0,0.25-0.112,0.25-0.25V0.25
			c0-0.138-0.112-0.25-0.25-0.25H0.25C0.112,0,0,0.112,0,0.25V58.828z"/>
	</g>
	<g id="button-2px-corner_50_">
		<path style="fill:#4E8ABE;" d="M196.923,255.75c0,0.138,0.112,0.25,0.25,0.25h58.577c0.138,0,0.25-0.112,0.25-0.25v-58.578
			c0-0.138-0.112-0.25-0.25-0.25h-58.577c-0.138,0-0.25,0.112-0.25,0.25V255.75z"/>
	</g>
	<g id="button-2px-corner_27_">
		<path style="fill:#4E8ABE;" d="M98.46,255.75c0,0.138,0.112,0.25,0.25,0.25h58.58c0.138,0,0.25-0.112,0.25-0.25v-58.578
			c0-0.138-0.112-0.25-0.25-0.25H98.71c-0.138,0-0.25,0.112-0.25,0.25V255.75z"/>
	</g>
	<g id="button-2px-corner_25_">
		<path style="fill:#4E8ABE;" d="M0,255.75c0,0.138,0.112,0.25,0.25,0.25h58.577c0.138,0,0.25-0.112,0.25-0.25v-58.578
			c0-0.138-0.112-0.25-0.25-0.25H0.25c-0.138,0-0.25,0.112-0.25,0.25V255.75z"/>
	</g>
	<g id="button-2px-corner_23_">
		<path style="fill:#4E8ABE;" d="M196.923,152.365c0,0.138,0.112,0.25,0.25,0.25h58.577c0.138,0,0.25-0.112,0.25-0.25V93.789
			c0-0.138-0.112-0.25-0.25-0.25h-58.577c-0.138,0-0.25,0.112-0.25,0.25V152.365z"/>
	</g>
	<g id="button-2px-corner_21_">
		<path style="fill:#4E8ABE;" d="M98.46,152.365c0,0.138,0.112,0.25,0.25,0.25h58.58c0.138,0,0.25-0.112,0.25-0.25V93.789
			c0-0.138-0.112-0.25-0.25-0.25H98.71c-0.138,0-0.25,0.112-0.25,0.25V152.365z"/>
	</g>
	<g id="button-2px-corner_18_">
		<path style="fill:#4E8ABE;" d="M0,152.365c0,0.138,0.112,0.25,0.25,0.25h58.577c0.138,0,0.25-0.112,0.25-0.25V93.789
			c0-0.138-0.112-0.25-0.25-0.25H0.25c-0.138,0-0.25,0.112-0.25,0.25V152.365z"/>
	</g>
</g>
<g id="Layer_1">
</g>
</svg>
