<?xml version="1.0" encoding="iso-8859-1"?>
<!-- Generator: Adobe Illustrator 16.0.0, SVG Export Plug-In . SVG Version: 6.00 Build 0)  -->
<!DOCTYPE svg PUBLIC "-//W3C//DTD SVG 1.1//EN" "http://www.w3.org/Graphics/SVG/1.1/DTD/svg11.dtd">
<svg version="1.1" xmlns="http://www.w3.org/2000/svg" xmlns:xlink="http://www.w3.org/1999/xlink" x="0px" y="0px" width="256px"
	 height="256px" viewBox="0 0 256 256" style="enable-background:new 0 0 256 256;" xml:space="preserve">
<g id="radio-button-checked-hover">
	<g id="radio_x3D_button-hover">
		<radialGradient id="SVGID_1_" cx="128" cy="254.9336" r="253.8866" gradientUnits="userSpaceOnUse">
			<stop  offset="0" style="stop-color:#C1D5E6"/>
			<stop  offset="0.3572" style="stop-color:#C4D8E8"/>
			<stop  offset="0.4852" style="stop-color:#CDDFEC"/>
			<stop  offset="0.8979" style="stop-color:#F9FBFD"/>
			<stop  offset="1" style="stop-color:#FFFFFF"/>
		</radialGradient>
		<path style="fill:url(#SVGID_1_);" d="M0,128c0,70.7,57.307,128,128,128c70.691,0,128-57.3,128-128S198.691,0,128,0
			C57.307,0,0,57.3,0,128z"/>
		<g style="opacity:0.9;">
			<linearGradient id="SVGID_2_" gradientUnits="userSpaceOnUse" x1="127.9995" y1="0" x2="127.9995" y2="256.0005">
				<stop  offset="0" style="stop-color:#FFFFFF"/>
				<stop  offset="0.4" style="stop-color:#F2F6FB"/>
				<stop  offset="0.8204" style="stop-color:#D7E5EF"/>
				<stop  offset="1" style="stop-color:#FFFFFF"/>
			</linearGradient>
			<path style="fill:url(#SVGID_2_);" d="M128,2c33.656,0,65.298,13.105,89.095,36.902C240.894,62.699,254,94.341,254,128
				c0,33.658-13.106,65.301-36.905,89.098C193.298,240.895,161.656,254,128,254c-33.657,0-65.298-13.105-89.096-36.902
				C15.106,193.301,2,161.658,2,128c0-33.659,13.106-65.301,36.904-89.098C62.702,15.105,94.343,2,128,2 M128,0
				C57.307,0,0,57.3,0,128s57.307,128,128,128c70.691,0,128-57.3,128-128S198.691,0,128,0L128,0z"/>
		</g>
		<g style="opacity:0.59;">
			<path style="fill:#517FA5;" d="M128,1c33.924,0,65.815,13.209,89.802,37.194C241.79,62.181,255,94.074,255,128
				s-13.21,65.819-37.198,89.806C193.815,241.791,161.924,255,128,255c-33.924,0-65.817-13.209-89.803-37.194
				C14.21,193.819,1,161.926,1,128s13.21-65.819,37.197-89.806C62.183,14.209,94.076,1,128,1 M128,0C57.307,0,0,57.3,0,128
				s57.307,128,128,128c70.691,0,128-57.3,128-128S198.691,0,128,0L128,0z"/>
		</g>
	</g>
	<g id="checked-indicator_8_">
		<linearGradient id="SVGID_3_" gradientUnits="userSpaceOnUse" x1="127.9995" y1="68.2651" x2="127.9995" y2="187.7349">
			<stop  offset="0" style="stop-color:#FFFFFF"/>
			<stop  offset="0.0662" style="stop-color:#E0ECF6"/>
			<stop  offset="0.1689" style="stop-color:#B7D3EB"/>
			<stop  offset="0.2777" style="stop-color:#93BDE0"/>
			<stop  offset="0.3918" style="stop-color:#76ABD8"/>
			<stop  offset="0.513" style="stop-color:#609DD2"/>
			<stop  offset="0.6444" style="stop-color:#5094CD"/>
			<stop  offset="0.7938" style="stop-color:#478ECB"/>
			<stop  offset="1" style="stop-color:#448CCA"/>
		</linearGradient>
		<path style="fill:url(#SVGID_3_);" d="M68.268,128c0,33,26.738,59.734,59.732,59.734c32.992,0,59.732-26.734,59.732-59.734
			S160.992,68.265,128,68.265C95.006,68.265,68.268,95,68.268,128z"/>
		<g style="opacity:0.9;">
			<linearGradient id="SVGID_4_" gradientUnits="userSpaceOnUse" x1="127.9995" y1="68.2651" x2="127.9995" y2="187.7349">
				<stop  offset="0" style="stop-color:#A1C8E6"/>
				<stop  offset="0.7883" style="stop-color:#336B9A"/>
			</linearGradient>
			<path style="fill:url(#SVGID_4_);" d="M128,69.198c32.422,0,58.799,26.378,58.799,58.802c0,32.423-26.377,58.801-58.799,58.801
				S69.201,160.423,69.201,128C69.201,95.577,95.578,69.198,128,69.198 M128,68.265C95.006,68.265,68.268,95,68.268,128
				S95.006,187.734,128,187.734c32.992,0,59.732-26.734,59.732-59.734S160.992,68.265,128,68.265L128,68.265z"/>
		</g>
	</g>
</g>
<g id="Layer_1">
</g>
</svg>
