<?xml version="1.0" encoding="iso-8859-1"?>
<!-- Generator: Adobe Illustrator 16.0.0, SVG Export Plug-In . SVG Version: 6.00 Build 0)  -->
<!DOCTYPE svg PUBLIC "-//W3C//DTD SVG 1.1//EN" "http://www.w3.org/Graphics/SVG/1.1/DTD/svg11.dtd">
<svg version="1.1" xmlns="http://www.w3.org/2000/svg" xmlns:xlink="http://www.w3.org/1999/xlink" x="0px" y="0px" width="231.4px"
	 height="256px" viewBox="0 0 231.4 256" style="enable-background:new 0 0 231.4 256;" xml:space="preserve">
<g id="trash-hover">
	
		<linearGradient id="delete--main-container--hover_2_" gradientUnits="userSpaceOnUse" x1="15.0728" y1="150.2344" x2="217.9453" y2="150.2344">
		<stop  offset="0" style="stop-color:#448CCA"/>
		<stop  offset="0.4798" style="stop-color:#66A2D7"/>
		<stop  offset="1" style="stop-color:#448CCA"/>
	</linearGradient>
	<path id="delete--main-container--hover_1_" style="fill:url(#delete--main-container--hover_2_);" d="M217.941,52.724
		c0.137-4.535-3.586-8.25-8.266-8.254c-62.109,0-124.223,0-186.334,0c-4.678,0.003-8.398,3.72-8.266,8.254
		c1.814,63,3.633,125.998,5.447,188.997c0.133,4.535,3.826,8.711,8.217,9.221c58.32,6.746,117.219,6.744,175.537,0
		c4.389-0.51,8.086-4.686,8.215-9.221C214.311,178.722,216.127,115.724,217.941,52.724z"/>
	<path id="delete--vertical-bar-right--hover_1_" style="fill:#A0C7E7;" d="M182.293,90.244c-6.641-4.763-15.506-4.906-22.158-0.347
		c0.143,43.436,0.576,86.499,1.41,129.599c4.514,3.37,10.445,3.883,15.238,1.335C178.379,176.158,180.342,132.119,182.293,90.244z"
		/>
	<path id="delete--vertical-bar-center--hover_1_" style="fill:#A0C7E7;" d="M128.045,86.728c-7.406-5.205-17.281-5.205-24.689,0
		c1.186,45.132,2.551,91.213,3.938,137.849c5.018,3.69,11.797,3.69,16.814,0C125.494,177.939,126.859,131.859,128.045,86.728z"/>
	<path id="delete--vertical-bar-left--hover_1_" style="fill:#A0C7E7;" d="M71.266,88.312c-6.652-4.56-15.518-4.417-22.156,0.347
		c1.949,41.876,3.912,85.915,5.51,130.587c4.791,2.548,10.723,2.035,15.236-1.334C70.693,174.812,71.125,131.746,71.266,88.312z"/>
	<linearGradient id="delete--lid--hover_2_" gradientUnits="userSpaceOnUse" x1="0" y1="28.8721" x2="231.4004" y2="28.8721">
		<stop  offset="0" style="stop-color:#336B9A"/>
		<stop  offset="0.4798" style="stop-color:#517FA5"/>
		<stop  offset="1" style="stop-color:#336B9A"/>
	</linearGradient>
	<path id="delete--lid--hover_1_" style="fill:url(#delete--lid--hover_2_);" d="M184.512,18.4
		c-2.688-0.026-4.881-2.399-4.881-5.279c0-2.353,0-4.707,0-7.06c0-2.874-2.191-5.284-4.879-5.352
		C135.928-0.224,97.09-0.236,58.266,0.671c-2.684,0.066-4.879,2.478-4.879,5.356c0,2.357,0,4.715,0,7.072
		c0,2.883-2.197,5.261-4.879,5.284c-14.549,0.147-29.092,0.345-43.629,0.599C2.191,19.035,0,21.269,0,23.949c0,0.017,0,0.033,0,0.05
		c0,2.684,0,7.073,0,9.757c0,2.741,0,5.48,0,8.222c0,2.684,0,6.717,0,8.965c0,2.244,2.191,4.182,4.875,4.3
		c73.846,3.335,147.805,3.335,221.65,0c2.684-0.118,4.875-2.056,4.875-4.3c0-2.248,0-6.281,0-8.965c0-2.741,0-5.481,0-8.222
		c0-2.684,0-7.074,0-9.757c0-0.017,0-0.033,0-0.05c0-2.679-2.195-4.914-4.879-4.967C212.523,18.738,198.52,18.546,184.512,18.4z"/>
</g>
<g id="Layer_1">
</g>
</svg>
