<?xml version="1.0" encoding="utf-8"?><svg xmlns="http://www.w3.org/2000/svg" width="20" height="20" viewBox="0 0 20 20"><path fill="none" d="M0 0h20v20H0z"/><path fill="#4E8ABE" d="M19.979 5.921L15.95 9.949c-.027.027-.027.074 0 .104l4.028 4.027a.078.078 0 0 1 0 .103l-5.797 5.799a.08.08 0 0 1-.104 0l-4.027-4.03c-.025-.027-.073-.027-.104 0l-4.027 4.03c-.024.026-.072.026-.101 0L.021 14.183c-.03-.027-.03-.072 0-.103l4.027-4.027a.077.077 0 0 0 0-.104L.022 5.921a.069.069 0 0 1 0-.102L5.819.022a.066.066 0 0 1 .101 0L9.947 4.05a.077.077 0 0 0 .104 0L14.078.023a.07.07 0 0 1 .104 0l5.797 5.797c.026.028.026.075 0 .101z"/></svg>