<?xml version="1.0" encoding="iso-8859-1"?><svg xmlns="http://www.w3.org/2000/svg" width="20" height="20" viewBox="0 0 20 20"><path fill="none" d="M0 0h20v20H0z"/><linearGradient id="a" gradientUnits="userSpaceOnUse" x1="-843.019" y1="576.905" x2="-843.019" y2="577.123" gradientTransform="matrix(57.6 0 0 -57.6 48567.813 33246.313)"><stop offset="0" stop-color="#c2c2c2"/><stop offset="1" stop-color="#c7c7c7"/></linearGradient><path d="M7.335 7.227S6.148 6.108 4.539 7.02c-1.442.883-1.187 2.473-1.187 2.473s-3.198.618-3.198 3.816c.069 3.197 3.474 3.227 3.474 3.227h5.111v-3.227H7.1l2.863-3.248 2.856 3.238H11.19v3.227h4.953s3.169 0 3.61-3.041c.216-3.325-3.062-3.982-3.062-3.982s.373-4.925-4.227-5.483c-3.932-.384-5.129 3.207-5.129 3.207z" fill="url(#a)"/></svg>