<?xml version="1.0" encoding="iso-8859-1"?><svg xmlns="http://www.w3.org/2000/svg" width="20" height="20" viewBox="0 0 20 20"><g><path fill="none" d="M0 0h20v20H0z"/><linearGradient id="a" gradientUnits="userSpaceOnUse" x1="-843.019" y1="576.905" x2="-843.019" y2="577.123" gradientTransform="matrix(57.6 0 0 -57.6 48567.813 33246.313)"><stop offset="0" stop-color="#C2C2C2"/><stop offset="1" stop-color="#C7C7C7"/></linearGradient><path d="M7.335 7.227S6.148 6.107 4.54 7.02C3.096 7.903 3.35 9.493 3.35 9.493S.154 10.11.154 13.31c.07 3.196 3.474 3.226 3.474 3.226h5.11V13.31H7.1l2.863-3.25 2.856 3.24h-1.63v3.226h4.953s3.17 0 3.61-3.04c.216-3.326-3.062-3.983-3.062-3.983s.374-4.925-4.226-5.483c-3.932-.384-5.13 3.207-5.13 3.207z" fill="url(#a)"/></g></svg>