<?xml version="1.0" encoding="iso-8859-1"?><svg xmlns="http://www.w3.org/2000/svg" width="20.001" height="20" viewBox="0 0 20.001 20"><g><path fill="none" d="M0 0h20v20H0z"/><path d="M10.535 11.6c-.293-.3-.775-.3-1.07 0l-5.117 5.223c-.293.305-.777.305-1.07 0L.223 13.706c-.295-.303-.295-.793 0-1.096L5.34 7.39c.293-.298.777-.794 1.068-1.095l3.057-3.117c.295-.297.777-.297 1.07 0l3.06 3.117c.292.3.776.797 1.07 1.094l5.116 5.22c.294.303.294.793 0 1.096l-3.056 3.117c-.295.305-.775.305-1.07 0l-5.12-5.223z" fill="#ccc"/></g></svg>