<?xml version="1.0" encoding="iso-8859-1"?><svg xmlns="http://www.w3.org/2000/svg" width="20" height="20.078" viewBox="0 0 20 20.078"><g><path fill="none" d="M0 0h20v20H0z"/><g fill="#fff"><path d="M4.017 20.076H15.98l1.15-13.082H2.868l1.15 13.082zm8.358-10.39c0-.408.328-.738.736-.738.403 0 .734.33.734.737v7.75c0 .403-.33.73-.733.73-.408 0-.735-.327-.735-.73v-7.75zm-3.11 0c0-.408.327-.738.73-.738.41 0 .74.33.74.737v7.75c0 .403-.33.73-.74.73-.403 0-.73-.327-.73-.73v-7.75zm-3.112 0c0-.408.33-.738.735-.738.407 0 .736.33.736.737v7.75c0 .403-.33.73-.736.73-.404 0-.735-.327-.735-.73v-7.75zM17.71 2.56h-3.733v-.427c0-1.135-.922-2.057-2.055-2.057H8.075c-1.13 0-2.053.922-2.053 2.057v.426h-3.74c-.533 0-.964.43-.964.968V5.86h17.365V3.527c0-.54-.436-.968-.972-.968m-5.137 0H7.42v-.427c0-.363.3-.652.655-.652h3.847c.36 0 .65.29.65.653v.426z"/></g></g></svg>