<?xml version="1.0" encoding="iso-8859-1"?><svg xmlns="http://www.w3.org/2000/svg" width="20" height="20" viewBox="0 0 20 20"><g><path fill="none" d="M0 0h20v20H0z"/><path d="M10.532 8.403c-.29.3-.773.3-1.066 0L4.35 3.18c-.294-.302-.776-.302-1.075 0L.22 6.3c-.293.303-.293.793 0 1.096l5.117 5.22c.293.296.78.79 1.07 1.093l3.06 3.114c.292.297.774.297 1.065 0l3.057-3.115c.294-.304.776-.798 1.073-1.095l5.113-5.22c.297-.302.297-.792 0-1.095L16.72 3.18c-.294-.302-.776-.302-1.07 0L10.53 8.404z" fill="#ccc"/></g></svg>