<?xml version="1.0" encoding="iso-8859-1"?><svg xmlns="http://www.w3.org/2000/svg" width="20" height="20.078" viewBox="0 0 20 20.078"><path fill="none" d="M0 0h20v20H0z"/><g fill="#fff"><path d="M4.017 20.076H15.98l1.151-13.082H2.867l1.15 13.082zm8.358-10.391a.736.736 0 1 1 1.469 0v7.749a.734.734 0 0 1-1.469 0V9.685zm-3.111 0a.735.735 0 1 1 1.47 0v7.749a.735.735 0 0 1-1.47 0V9.685zm-3.111 0a.736.736 0 0 1 1.471 0v7.749a.735.735 0 1 1-1.471 0V9.685zM17.711 2.559h-3.734v-.426A2.058 2.058 0 0 0 11.922.076H8.075a2.057 2.057 0 0 0-2.053 2.057v.426H2.283a.964.964 0 0 0-.965.969V5.86h17.365V3.527a.968.968 0 0 0-.972-.968m-5.138 0H7.421v-.426c0-.363.298-.652.654-.652h3.847c.361 0 .651.289.651.652v.426z"/></g></svg>