<?xml version="1.0" encoding="iso-8859-1"?><svg xmlns="http://www.w3.org/2000/svg" width="20" height="20" viewBox="0 0 20 20"><path fill="none" d="M0 0h20v20H0z"/><path fill="#b9b9ba" d="M.769.77h4.616v18.461H.769z"/><path d="M1.539 1.539h3.077v16.922H1.539V1.539M0 0v20h6.154V0H0z" fill="#8d8e8d"/><path fill="#f1f1f1" d="M5.385 5.385h9.23v9.23h-9.23z"/><path d="M6.154 6.154h7.691v7.69H6.154v-7.69M4.615 4.615v10.77h10.77V4.615H4.615z" fill="#323232"/><g fill="#797979"><path d="M13.846 18.46h1.539v1.538h-1.539zM13.846 15.383h1.539v1.539h-1.539z"/><path d="M15.385 13.845h1.538v1.538h-1.538zM18.461 13.845H20v1.538h-1.539zM15.385 4.615h1.538v1.539h-1.538zM18.461 4.615H20v1.539h-1.539zM13.846 3.077h1.539v1.538h-1.539zM13.846 0h1.539v1.539h-1.539z"/></g></svg>