<?xml version="1.0" encoding="iso-8859-1"?><svg xmlns="http://www.w3.org/2000/svg" width="20" height="20" viewBox="0 0 20 20"><path fill="none" d="M0 0h20v20H0z"/><path fill="#b9b9ba" d="M14.615.77h4.615v18.461h-4.615z"/><path d="M18.462 18.461h-3.077V1.539h3.077v16.922M20 20V0h-6.154v20H20z" fill="#8d8e8d"/><path fill="#f1f1f1" d="M5.385 5.385h9.23v9.23h-9.23z"/><path d="M13.846 13.846H6.154v-7.69h7.692v7.69m1.539 1.539V4.615H4.615v10.77h10.77z" fill="#323232"/><g fill="#797979"><path d="M4.615 0h1.539v1.539H4.615zM4.615 3.076h1.539v1.539H4.615zM3.077 4.615h1.539v1.539H3.077zM0 4.615h1.539v1.539H0zM3.077 13.846h1.539v1.539H3.077zM0 13.846h1.539v1.539H0zM4.615 15.385h1.539v1.539H4.615zM4.615 18.461h1.539V20H4.615z"/></g></svg>