<?xml version="1.0" encoding="iso-8859-1"?><svg xmlns="http://www.w3.org/2000/svg" width="20" height="20" viewBox="0 0 20 20"><g><path fill="none" d="M0 0h20v20H0z"/><path fill="#B9B9BA" d="M.77.77h4.615v18.46H.77z"/><path d="M1.54 1.54h3.076v16.92H1.54V1.54M0 0v20h6.154V0H0z" fill="#8D8E8D"/><path fill="#F1F1F1" d="M5.385 5.385h9.23v9.23h-9.23z"/><path d="M6.154 6.154h7.69v7.69h-7.69v-7.69m-1.54-1.54v10.77h10.77V4.615H4.615z" fill="#323232"/><g fill="#797979"><path d="M13.846 18.46h1.54v1.538h-1.54zM13.846 15.383h1.54v1.54h-1.54zM15.385 13.845h1.538v1.538h-1.538zM18.46 13.845H20v1.538h-1.54zM15.385 4.615h1.538v1.54h-1.538zM18.46 4.615H20v1.54h-1.54zM13.846 3.077h1.54v1.538h-1.54zM13.846 0h1.54v1.54h-1.54z"/></g></g></svg>