<?xml version="1.0" encoding="iso-8859-1"?><svg xmlns="http://www.w3.org/2000/svg" width="20" height="20" viewBox="0 0 20 20"><path fill="none" d="M0 0h20v20H0z"/><path fill="#b9b9ba" d="M.769.77H19.23v4.615H.769z"/><path d="M18.461 1.539v3.076H1.538V1.539h16.923M20 0H0v6.154h20V0z" fill="#8d8e8d"/><path fill="#f1f1f1" d="M5.385 5.385h9.23v9.23h-9.23z"/><path d="M13.846 6.154v7.69H6.153v-7.69h7.693m1.539-1.539H4.615v10.77h10.77V4.615z" fill="#323232"/><g fill="#797979"><path d="M0 13.846h1.539v1.539H0zM3.077 13.846h1.539v1.539H3.077zM4.615 15.385h1.538v1.539H4.615zM4.615 18.461h1.538V20H4.615zM13.846 15.385h1.539v1.539h-1.539zM13.846 18.461h1.539V20h-1.539zM15.385 13.846h1.539v1.539h-1.539zM18.461 13.846H20v1.539h-1.539z"/></g></svg>