<?xml version="1.0" encoding="iso-8859-1"?><svg xmlns="http://www.w3.org/2000/svg" width="20" height="20" viewBox="0 0 20 20"><path fill="none" d="M0 0h20v20H0z"/><path fill="#b9b9ba" d="M.769 14.615h18.459v4.615H.769z"/><path d="M1.539 18.461v-3.076h16.92v3.076H1.539M0 20h19.998v-6.152H0V20z" fill="#8d8e8d"/><path fill="#f1f1f1" d="M5.384 5.385h9.229v9.229H5.384z"/><path d="M6.153 13.848V6.152h7.692v7.692H6.153m-1.538 1.541h10.768V4.615H4.615v10.77z" fill="#323232"/><g fill="#797979"><path d="M18.459 4.615h1.539v1.537h-1.539zM15.383 4.615h1.538v1.537h-1.538zM13.845 3.076h1.538v1.539h-1.538zM13.845 0h1.538v1.539h-1.538zM4.615 3.076h1.538v1.539H4.615zM4.615 0h1.538v1.539H4.615zM3.077 4.615h1.538v1.537H3.077zM0 4.615h1.539v1.537H0z"/></g></svg>