<?xml version="1.0" encoding="iso-8859-1"?><svg xmlns="http://www.w3.org/2000/svg" width="20" height="20" viewBox="0 0 20 20"><g><path fill="none" d="M0 0h20v20H0z"/><path fill="#B9B9BA" d="M.77.77h18.46v4.615H.77z"/><path d="M18.46 1.54v3.075H1.54V1.54H18.46M20 0H0v6.154h20V0z" fill="#8D8E8D"/><path fill="#F1F1F1" d="M5.385 5.385h9.23v9.23h-9.23z"/><path d="M13.846 6.154v7.69H6.153v-7.69h7.693m1.54-1.54H4.615v10.77h10.77V4.615z" fill="#323232"/><g fill="#797979"><path d="M0 13.846h1.54v1.54H0zM3.077 13.846h1.54v1.54h-1.54zM4.615 15.385h1.538v1.54H4.615zM4.615 18.46h1.538V20H4.615zM13.846 15.385h1.54v1.54h-1.54zM13.846 18.46h1.54V20h-1.54zM15.385 13.846h1.54v1.54h-1.54zM18.46 13.846H20v1.54h-1.54z"/></g></g></svg>