<?xml version="1.0" encoding="iso-8859-1"?><svg xmlns="http://www.w3.org/2000/svg" width="20" height="20" viewBox="0 0 20 20"><g><path fill="none" d="M0 0h20v20H0z"/><path fill="#F1F1F1" d="M5.385 5.385h9.23v9.23h-9.23z"/><path d="M13.846 6.154v7.69H6.154v-7.69h7.692m1.54-1.54H4.615v10.77h10.77V4.615z" fill="#323232"/><g fill="#797979"><path d="M0 13.846h1.54v1.54H0zM3.077 13.846h1.538v1.54H3.077zM4.615 15.385h1.54v1.538h-1.54zM4.615 18.46h1.54V20h-1.54zM13.846 15.385h1.54v1.538h-1.54zM13.846 18.46h1.54V20h-1.54zM15.385 13.846h1.538v1.54h-1.538zM18.46 13.846H20v1.54h-1.54z"/></g><g fill="#797979"><path d="M18.46 4.615H20v1.54h-1.54zM15.385 4.615h1.538v1.54h-1.538zM13.846 3.077h1.54v1.538h-1.54zM13.846 0h1.54v1.54h-1.54zM4.615 3.077h1.54v1.538h-1.54zM4.615 0h1.54v1.54h-1.54zM3.077 4.615h1.538v1.54H3.077zM0 4.615h1.54v1.54H0z"/></g></g></svg>