<?xml version="1.0" encoding="iso-8859-1"?><svg xmlns="http://www.w3.org/2000/svg" width="20" height="20" viewBox="0 0 20 20"><g><path fill="none" d="M0 0h20v20H0z"/><path fill="#B9B9BA" d="M14.615.77h4.615v18.46h-4.615z"/><path d="M18.462 18.46h-3.077V1.54h3.077v16.92M20 20V0h-6.154v20H20z" fill="#8D8E8D"/><path fill="#F1F1F1" d="M5.385 5.385h9.23v9.23h-9.23z"/><path d="M13.846 13.846H6.154v-7.69h7.692v7.69m1.54 1.54V4.615H4.615v10.77h10.77z" fill="#323232"/><g fill="#797979"><path d="M4.615 0h1.54v1.54h-1.54zM4.615 3.076h1.54v1.54h-1.54zM3.077 4.615h1.54v1.54h-1.54zM0 4.615h1.54v1.54H0zM3.077 13.846h1.54v1.54h-1.54zM0 13.846h1.54v1.54H0zM4.615 15.385h1.54v1.54h-1.54zM4.615 18.46h1.54V20h-1.54z"/></g></g></svg>