<?xml version="1.0" encoding="iso-8859-1"?><svg xmlns="http://www.w3.org/2000/svg" width="20" height="20" viewBox="0 0 20 20"><path fill="none" d="M.059.029H20.03V20H.059z"/><path d="M4.163 6.629c-.71 0-1.336.25-1.587 1.127-.083.25 0 .709 0 1.002 0 .376-.042.668.125 1.002.209.584.418 1.044.71 1.336-1.085.208-1.837.793-2.338 1.002-1.044.46-1.044.96-1.044.96v.877h3.758v-1.169c0-.251.125-1.085 1.294-1.796.209-.291.417-.709.584-1.168.127-.334.127-.584.127-1.002 0-.292.042-.752 0-1.002-.293-.919-.877-1.169-1.629-1.169M15.854 6.42c.752 0 1.336.25 1.587 1.169.083.25 0 .751 0 1.043 0 .418.042.71-.125 1.044-.209.584-.418 1.086-.71 1.378 1.127.209 1.879.793 2.38 1.044 1.044.46 1.044 1.002 1.044 1.002v.877h-3.8v-1.211c0-.251-.125-1.085-1.336-1.837-.209-.293-.417-.71-.585-1.211-.125-.334-.125-.626-.125-1.044 0-.292-.041-.793 0-1.044.334-.96.961-1.21 1.67-1.21" fill="#c4d6df"/><path d="M14.226 11.431c-.71-.292-1.712-1.086-3.215-1.378.376-.417.668-1.085 1.002-1.837.167-.46.167-.836.167-1.379 0-.417.084-1.043-.042-1.419-.334-1.211-1.169-1.545-2.171-1.545s-1.838.334-2.172 1.545c-.083.334-.041 1.002-.041 1.378 0 .543-.042.918.125 1.378.293.793.584 1.419.961 1.837-1.504.292-2.506 1.086-3.215 1.378-1.42.627-1.42 1.336-1.42 1.336v1.17h11.44v-1.17c0 .042 0-.668-1.419-1.294z" fill="#4c89be"/><path fill="none" d="M.059.029H20.03V20H.059z"/><path fill="none" d="M.029 0h20v20h-20z"/></svg>