<?xml version="1.0" encoding="iso-8859-1"?><svg xmlns="http://www.w3.org/2000/svg" width="20" height="20" viewBox="0 0 20 20"><path fill="none" d="M.06.03h19.97V20H.06z"/><path d="M4.163 6.63c-.71 0-1.336.25-1.587 1.126-.083.25 0 .71 0 1.002 0 .376-.042.668.125 1.002.21.584.42 1.044.71 1.336-1.084.208-1.836.793-2.337 1.002-1.044.46-1.044.96-1.044.96v.877h3.757v-1.17c0-.25.125-1.084 1.294-1.795.21-.29.418-.71.585-1.168.127-.334.127-.584.127-1.002 0-.292.042-.752 0-1.002-.293-.92-.877-1.17-1.63-1.17M15.854 6.42c.752 0 1.336.25 1.587 1.17.084.25 0 .75 0 1.042 0 .418.043.71-.124 1.044-.21.584-.418 1.086-.71 1.378 1.127.21 1.88.793 2.38 1.044 1.044.46 1.044 1.002 1.044 1.002v.877h-3.8v-1.21c0-.252-.125-1.086-1.336-1.838-.21-.294-.417-.71-.585-1.212-.126-.334-.126-.626-.126-1.044 0-.292-.04-.793 0-1.044.334-.96.96-1.21 1.67-1.21" fill="#C4D6DF"/><path d="M14.226 11.43c-.71-.29-1.712-1.085-3.215-1.377.377-.417.67-1.085 1.003-1.837.167-.46.167-.836.167-1.38 0-.416.084-1.042-.042-1.418-.334-1.21-1.17-1.545-2.17-1.545s-1.84.334-2.173 1.545c-.083.334-.04 1.002-.04 1.378 0 .543-.043.918.124 1.378.292.793.583 1.42.96 1.837-1.504.293-2.506 1.087-3.215 1.38-1.42.626-1.42 1.335-1.42 1.335v1.17h11.44v-1.17c0 .042 0-.668-1.42-1.294z" fill="#4C89BE"/><path fill="none" d="M.06.03h19.97V20H.06z"/><path fill="none" d="M.03 0h20v20h-20z"/></svg>