<?xml version="1.0" encoding="iso-8859-1"?><svg xmlns="http://www.w3.org/2000/svg" width="20" height="20" viewBox="0 0 20 20"><path d="M4.179 14.293v-.005c0-.282.125-1.161 1.433-1.963.24-.327.439-.77.639-1.281.141-.356.117-.657.117-1.089 0-.316.059-.828-.018-1.11-.267-.948-.94-1.209-1.729-1.209s-1.462.261-1.728 1.214c-.08.277-.019.789-.019 1.105 0 .432-.024.735.117 1.089.242.618.471 1.132.777 1.463-1.196.218-2.005.844-2.551 1.089-1.129.5-1.134 1.054-1.134 1.054v.938l4.095-.002v-1.293z" fill="#c4d6df"/><path d="M15.182 14.405h-2.159v-2.951a7.277 7.277 0 0 0-.527-.119c.421-.447.74-1.153 1.067-1.989.189-.485.157-.897.157-1.48 0-.437.083-1.132-.026-1.513-.362-1.294-1.281-1.651-2.356-1.651-1.073 0-1.992.357-2.354 1.654-.108.38-.023 1.073-.023 1.51 0 .585-.035 1.001.157 1.485.333.837.645 1.542 1.062 1.989-1.632.301-2.735 1.153-3.48 1.483-1.542.687-1.547 1.438-1.547 1.438v1.281l10.03-.003v-1.134z" fill="#4c89be"/><path fill="#4c89be" d="M20.084 11.667h-2.162V9.506h-1.707v2.161h-2.162v1.707h2.162v2.16h1.707v-2.16h2.162z"/><path fill="none" d="M.084 0h20v20h-20z"/></svg>