<?xml version="1.0" encoding="iso-8859-1"?><svg xmlns="http://www.w3.org/2000/svg" width="20" height="20" viewBox="0 0 20 20"><g><path fill="none" d="M.03.03H20V20H.03z"/><linearGradient id="a" gradientUnits="userSpaceOnUse" x1="2.891" y1="15.356" x2="2.891" y2="8.061" gradientTransform="matrix(1 0 0 -1 0 22)"><stop offset="0" stop-color="#CFE2EC"/><stop offset="1" stop-color="#C4D6DF"/></linearGradient><path d="M4.134 6.63c-.71 0-1.336.25-1.587 1.126-.083.25 0 .71 0 1.002 0 .376-.042.668.125 1.002.21.584.418 1.044.71 1.336-1.085.208-1.837.793-2.338 1.002-1.044.46-1.044.96-1.044.96v.878h3.758v-1.17c0-.25.125-1.084 1.294-1.794.21-.292.417-.71.584-1.17.126-.334.126-.584.126-1.002 0-.292.042-.752 0-1.002-.292-.92-.877-1.17-1.628-1.17" fill="url(#a)"/><linearGradient id="b" gradientUnits="userSpaceOnUse" x1="17.066" y1="15.58" x2="17.066" y2="8.062" gradientTransform="matrix(1 0 0 -1 0 22)"><stop offset="0" stop-color="#CFE2EC"/><stop offset="1" stop-color="#C4D6DF"/></linearGradient><path d="M15.824 6.42c.752 0 1.336.25 1.587 1.17.084.25 0 .75 0 1.042 0 .418.043.71-.124 1.044-.21.584-.418 1.086-.71 1.378 1.127.21 1.88.793 2.38 1.044C20 12.558 20 13.1 20 13.1v.878h-3.8v-1.21c0-.252-.125-1.086-1.336-1.838-.21-.292-.417-.71-.585-1.21-.126-.335-.126-.627-.126-1.045 0-.292-.04-.793 0-1.044.334-.96.96-1.21 1.67-1.21" fill="url(#b)"/><linearGradient id="c" gradientUnits="userSpaceOnUse" x1="9.895" y1="18.089" x2="9.895" y2="8.067" gradientTransform="matrix(1 0 0 -1 0 22)"><stop offset="0" stop-color="#A0CEF8"/><stop offset="1" stop-color="#6EA1CF"/></linearGradient><path d="M14.196 11.43c-.71-.29-1.712-1.085-3.215-1.377.377-.417.67-1.085 1.003-1.837.167-.46.167-.836.167-1.38 0-.416.084-1.042-.042-1.418-.334-1.21-1.17-1.545-2.17-1.545S8.1 4.207 7.765 5.418c-.083.334-.04 1.002-.04 1.378 0 .543-.043.918.124 1.378.292.793.584 1.42.96 1.837-1.503.293-2.505 1.087-3.215 1.38-1.42.626-1.42 1.335-1.42 1.335v1.17h11.44v-1.17c0 .042 0-.668-1.42-1.294z" fill="url(#c)"/><path fill="none" d="M.03.03H20V20H.03z"/><path fill="none" d="M0 0h20v20H0z"/></g></svg>