<?xml version="1.0" encoding="iso-8859-1"?><svg xmlns="http://www.w3.org/2000/svg" width="20" height="20" viewBox="0 0 20 20"><g><linearGradient id="a" gradientUnits="userSpaceOnUse" x1="3.153" y1="15.587" x2="3.153" y2="7.637"><stop offset="0" stop-color="#C4D6DF"/><stop offset="1" stop-color="#CFE2EC"/></linearGradient><path d="M4.095 14.293v-.005c0-.282.125-1.16 1.433-1.963.24-.327.44-.77.64-1.28.14-.357.116-.658.116-1.09 0-.316.06-.828-.018-1.11-.267-.948-.94-1.21-1.73-1.21s-1.46.262-1.727 1.215c-.08.277-.02.79-.02 1.105 0 .432-.024.735.117 1.09.242.617.47 1.13.777 1.462-1.196.218-2.005.844-2.55 1.09C.003 14.096 0 14.648 0 14.648v.937l4.095-.002v-1.293z" fill="url(#a)"/><linearGradient id="b" gradientUnits="userSpaceOnUse" x1="10.082" y1="15.542" x2="10.082" y2="4.702"><stop offset="0" stop-color="#5A95C8"/><stop offset="1" stop-color="#A0CEF8"/></linearGradient><path d="M15.098 14.405h-2.16v-2.951c-.17-.045-.343-.085-.526-.12.42-.446.74-1.152 1.067-1.988.188-.485.156-.897.156-1.48 0-.437.083-1.132-.026-1.513-.362-1.294-1.28-1.65-2.356-1.65-1.073 0-1.992.356-2.354 1.653-.11.38-.024 1.073-.024 1.51 0 .585-.035 1 .157 1.485.333.838.645 1.543 1.062 1.99-1.632.3-2.735 1.153-3.48 1.483-1.542.687-1.547 1.438-1.547 1.438v1.282l10.03-.003v-1.136z" fill="url(#b)"/><linearGradient id="c" gradientUnits="userSpaceOnUse" x1="16.984" y1="15.534" x2="16.984" y2="9.506"><stop offset="0" stop-color="#5A95C8"/><stop offset="1" stop-color="#A0CEF8"/></linearGradient><path fill="url(#c)" d="M20 11.667h-2.162v-2.16H16.13v2.16h-2.16v1.707h2.16v2.16h1.708v-2.16H20z"/><path fill="none" d="M0 0h20v20H0z"/></g></svg>