<?xml version="1.0" encoding="iso-8859-1"?><svg xmlns="http://www.w3.org/2000/svg" width="20" height="20" viewBox="0 0 20 20"><path d="M4.18 14.293v-.005c0-.282.124-1.16 1.432-1.963.24-.327.44-.77.64-1.28.14-.357.116-.658.116-1.09 0-.316.06-.828-.018-1.11-.267-.948-.94-1.21-1.73-1.21s-1.46.262-1.727 1.215c-.08.277-.02.79-.02 1.105 0 .432-.023.735.118 1.09.243.617.472 1.13.778 1.462-1.196.218-2.005.844-2.55 1.09-1.13.5-1.135 1.053-1.135 1.053v.938l4.095-.002v-1.293z" fill="#C4D6DF"/><path d="M15.182 14.405h-2.16v-2.951c-.17-.045-.343-.085-.526-.12.42-.446.74-1.152 1.067-1.988.19-.485.157-.897.157-1.48 0-.437.083-1.132-.026-1.513-.362-1.294-1.28-1.65-2.356-1.65-1.073 0-1.992.356-2.354 1.653-.108.38-.023 1.073-.023 1.51 0 .585-.034 1 .158 1.485.333.838.645 1.543 1.062 1.99-1.632.3-2.735 1.153-3.48 1.483-1.542.687-1.547 1.438-1.547 1.438v1.282l10.03-.003v-1.136zM20.084 11.667h-2.162v-2.16h-1.707v2.16h-2.162v1.707h2.162v2.16h1.707v-2.16h2.162z" fill="#4C89BE"/><path fill="none" d="M.084 0h20v20h-20z"/></svg>