<?xml version="1.0" encoding="iso-8859-1"?><svg xmlns="http://www.w3.org/2000/svg" width="20" height="20" viewBox="0 0 20 20"><path fill="none" d="M0 0h20v20H0z"/><path d="M9.999 2.077a7.925 7.925 0 0 0-7.925 7.924 7.925 7.925 0 0 0 15.85 0 7.925 7.925 0 0 0-7.925-7.924m5.942 7.924a5.918 5.918 0 0 1-1.101 3.438L6.562 5.155a5.906 5.906 0 0 1 3.436-1.099 5.954 5.954 0 0 1 5.943 5.945m-11.883 0c0-1.289.412-2.483 1.114-3.458l8.287 8.289A5.956 5.956 0 0 1 10 15.943a5.951 5.951 0 0 1-5.942-5.942" fill="#fff"/></svg>