<?xml version="1.0" encoding="iso-8859-1"?><svg xmlns="http://www.w3.org/2000/svg" width="20" height="20" viewBox="0 0 20 20"><g><path fill="none" d="M0 0h20v20H0z"/><path d="M10 2.077c-4.377 0-7.926 3.548-7.926 7.924 0 4.375 3.548 7.924 7.925 7.924s7.924-3.55 7.924-7.923c0-4.375-3.55-7.923-7.925-7.923M15.94 10c0 1.28-.408 2.465-1.1 3.44L6.562 5.154c.97-.69 2.156-1.1 3.436-1.1 3.277.004 5.943 2.67 5.943 5.946M4.06 10c0-1.288.412-2.482 1.114-3.457l8.287 8.29c-.976.692-2.17 1.11-3.46 1.11-3.275 0-5.942-2.668-5.942-5.942" fill="#fff"/></g></svg>