<?xml version="1.0" encoding="iso-8859-1"?><svg xmlns="http://www.w3.org/2000/svg" width="20" height="20.004" viewBox="0 0 20 20.004"><path d="M20 10.001c0 5.524-4.479 10.003-10.001 10.003C4.476 20.004 0 15.525 0 10.001 0 4.479 4.476 0 9.999 0 15.521 0 20 4.479 20 10.001" fill="#ee4249"/><path d="M9.999 2.077a7.925 7.925 0 0 0-7.925 7.924 7.925 7.925 0 0 0 15.85 0 7.925 7.925 0 0 0-7.925-7.924m5.942 7.924a5.918 5.918 0 0 1-1.101 3.438L6.562 5.154a5.912 5.912 0 0 1 3.436-1.098 5.954 5.954 0 0 1 5.943 5.945m-11.883 0c0-1.289.412-2.483 1.114-3.458l8.287 8.289A5.956 5.956 0 0 1 10 15.943a5.951 5.951 0 0 1-5.942-5.942" fill="#fff"/></svg>