<svg xmlns="http://www.w3.org/2000/svg" width="20" height="20" viewBox="0 0 20 20"><g><path fill="none" d="M0 0h20v20H0z"/><path d="M4.314 6.263C4.377 6.14 4.317 6 4.177 6h-1.94c-.138 0-.303.14-.366.263L.048 9.88c-.062.125-.062.335 0 .458l1.824 3.52c.064.12.23.142.37.142h1.937c.14 0 .2-.016.138-.14L2.49 10.308c-.062-.125-.062-.325 0-.445l1.824-3.6zM7.43 4.5v11H20v-11H7.43zm3.14 9.953H8.478v-2.096h2.095v2.096zm0-3.143H8.478V9.214h2.095v2.096zm0-3.667H8.478V5.547h2.095v2.096zm8.38 6.81h-7.33v-2.096h7.33v2.096zm0-3.143h-7.33V9.214h7.33v2.096zm0-3.667h-7.33V5.547h7.33v2.096z" fill="#aaa"/></g></svg>