<svg xmlns="http://www.w3.org/2000/svg" width="20" height="20" viewBox="0 0 20 20"><g><path fill="none" d="M0 0h20v20H0z"/><g fill="#aaa"><path d="M4.314 6.263C4.377 6.14 4.317 6 4.177 6h-1.94c-.138 0-.303.14-.366.263L.048 9.88c-.062.125-.062.335 0 .458l1.824 3.52c.064.12.23.142.37.142h1.937c.14 0 .2-.016.138-.14L2.49 10.308c-.062-.125-.062-.325 0-.445l1.824-3.6zM7.087 4.35v11.3H20V4.35H7.087zm3.466 10.15H8.4v-2.404h2.152V14.5zm0-3.298H8.4V8.798h2.152v2.404zm0-3.298H8.4V5.5h2.152v2.404zm8.134 6.596H11.63v-2.404h7.057V14.5zm0-3.298H11.63V8.798h7.057v2.404zm0-3.298H11.63V5.5h7.057v2.404z"/></g></g></svg>