<?xml version="1.0" encoding="iso-8859-1"?><svg xmlns="http://www.w3.org/2000/svg" width="20" height="20" viewBox="0 0 20 20"><path fill="none" d="M0 0h20v20H0z"/><g fill="#aaa"><path d="M4.314 6.263C4.377 6.141 4.317 6 4.177 6h-1.94c-.138 0-.303.141-.366.263L.047 9.88a.587.587 0 0 0 0 .458l1.824 3.519c.063.122.228.143.368.143h1.938c.141 0 .2-.016.138-.139L2.49 10.307a.556.556 0 0 1 0-.445l1.824-3.599zM8 4.75v10.5h12V4.75H8zm3.221 9.432h-2v-2.234h2v2.234zm0-3.065h-2V8.883h2v2.234zm0-3.065h-2V5.818h2v2.234zm7.558 6.13H12.22v-2.234h6.559v2.234zm0-3.065H12.22V8.883h6.559v2.234zm0-3.065H12.22V5.818h6.559v2.234z"/></g></svg>