<?xml version="1.0" encoding="iso-8859-1"?><svg xmlns="http://www.w3.org/2000/svg" width="20" height="20" viewBox="0 0 20 20"><g fill="#aaa"><path d="M3.786 5.263C3.85 5.14 3.79 5 3.648 5H2.236c-.137 0-.302.14-.365.263L.048 8.88c-.062.125-.062.336 0 .458l1.824 3.52c.064.12.23.142.37.142h1.408c.14 0 .2-.016.138-.14L1.96 9.308c-.06-.124-.06-.324 0-.445l1.826-3.6zM7.78 3.75v10.5H20V3.75H7.78zm3.41 9.21h-2v-2.013h2v2.012zm0-2.912h-2V7.95h2v2.098zm0-2.995h-2v-1.99h2v1.99zm7.402 5.906h-6.56v-2.013h6.56v2.012zm0-2.912h-6.56V7.95h6.56v2.098zm0-2.995h-6.56v-1.99h6.56v1.99z"/></g></svg>