<svg xmlns="http://www.w3.org/2000/svg" width="20" height="20" viewBox="0 0 20 20"><g><path fill="none" d="M0 0h20v20H0z"/><g fill="#aaa"><path d="M4.314 6.263C4.377 6.14 4.317 6 4.177 6h-1.94c-.138 0-.303.14-.366.263L.048 9.88c-.062.125-.062.335 0 .458l1.824 3.52c.064.12.23.142.37.142h1.937c.14 0 .2-.016.138-.14L2.49 10.308c-.062-.125-.062-.325 0-.445l1.824-3.6zM8 4.75v10.5h12V4.75H8zm3.22 9.432h-2v-2.234h2v2.234zm0-3.065h-2V8.883h2v2.234zm0-3.065h-2V5.818h2v2.234zm7.56 6.13h-6.56v-2.234h6.56v2.234zm0-3.065h-6.56V8.883h6.56v2.234zm0-3.065h-6.56V5.818h6.56v2.234z"/></g></g></svg>