<?xml version="1.0" encoding="iso-8859-1"?><svg xmlns="http://www.w3.org/2000/svg" width="20" height="20" viewBox="0 0 20 20"><path fill="none" d="M0 0h20v20H0z"/><linearGradient id="a" gradientUnits="userSpaceOnUse" x1="9.999" x2="9.999" y2="19"><stop offset="0" stop-color="#72b9f7"/><stop offset=".271" stop-color="#378dd7"/><stop offset=".829" stop-color="#378dd7"/><stop offset="1" stop-color="#336b9a"/></linearGradient><path d="M0 17c0 1.1.9 2 2 2h16c1.1 0 2-.9 2-2V2c0-1.1-.9-2-2-2H2C.9 0 0 .9 0 2v15z" fill="url(#a)"/><path d="M17.5 5.346H1.25v10.75c0 .688.562 1.25 1.25 1.25h15c.688 0 1.25-.562 1.25-1.25V5.346H17.5z" fill="#fff"/><path d="M17.08 15.209c0 .275-.225.5-.5.5H3.42a.501.501 0 0 1-.5-.5V7.134c0-.275.225-.5.5-.5h13.16c.275 0 .5.225.5.5v8.075z" fill="#c2dcf2"/><path d="M4.039 9.19c0 .138.112.25.25.25h1a.25.25 0 0 0 .25-.25v-1a.25.25 0 0 0-.25-.25h-1a.25.25 0 0 0-.25.25v1zM6.639 9.19c0 .138.112.25.25.25h1a.25.25 0 0 0 .25-.25v-1a.25.25 0 0 0-.25-.25h-1a.25.25 0 0 0-.25.25v1zM9.239 9.19c0 .138.112.25.25.25h1a.25.25 0 0 0 .25-.25v-1a.25.25 0 0 0-.25-.25h-1a.25.25 0 0 0-.25.25v1zM11.84 9.19c0 .138.112.25.25.25h1a.25.25 0 0 0 .25-.25v-1a.25.25 0 0 0-.25-.25h-1a.25.25 0 0 0-.25.25v1zM14.439 9.19c0 .138.112.25.25.25h1a.25.25 0 0 0 .25-.25v-1a.25.25 0 0 0-.25-.25h-1a.25.25 0 0 0-.25.25v1zM4.039 11.69c0 .138.112.25.25.25h1a.25.25 0 0 0 .25-.25v-1a.25.25 0 0 0-.25-.25h-1a.25.25 0 0 0-.25.25v1z" fill="#fff"/><path d="M6.639 11.69c0 .138.112.25.25.25h1a.25.25 0 0 0 .25-.25v-1a.25.25 0 0 0-.25-.25h-1a.25.25 0 0 0-.25.25v1z" fill="none" stroke="#378dd7" stroke-width=".5" stroke-miterlimit="10"/><path d="M6.639 11.69c0 .138.112.25.25.25h1a.25.25 0 0 0 .25-.25v-1a.25.25 0 0 0-.25-.25h-1a.25.25 0 0 0-.25.25v1z" fill="#378dd7"/><path d="M9.239 11.69c0 .138.112.25.25.25h1a.25.25 0 0 0 .25-.25v-1a.25.25 0 0 0-.25-.25h-1a.25.25 0 0 0-.25.25v1zM11.84 11.69c0 .138.112.25.25.25h1a.25.25 0 0 0 .25-.25v-1a.25.25 0 0 0-.25-.25h-1a.25.25 0 0 0-.25.25v1zM14.439 11.69c0 .138.112.25.25.25h1a.25.25 0 0 0 .25-.25v-1a.25.25 0 0 0-.25-.25h-1a.25.25 0 0 0-.25.25v1zM4.039 14.19c0 .138.112.25.25.25h1a.25.25 0 0 0 .25-.25v-1a.25.25 0 0 0-.25-.25h-1a.25.25 0 0 0-.25.25v1zM6.639 14.19c0 .138.112.25.25.25h1a.25.25 0 0 0 .25-.25v-1a.25.25 0 0 0-.25-.25h-1a.25.25 0 0 0-.25.25v1zM9.239 14.19c0 .138.112.25.25.25h1a.25.25 0 0 0 .25-.25v-1a.25.25 0 0 0-.25-.25h-1a.25.25 0 0 0-.25.25v1z" fill="#fff"/><g><path d="M11.84 14.19c0 .138.112.25.25.25h1a.25.25 0 0 0 .25-.25v-1a.25.25 0 0 0-.25-.25h-1a.25.25 0 0 0-.25.25v1z" fill="#fff"/></g><g><path d="M14.439 14.19c0 .138.112.25.25.25h1a.25.25 0 0 0 .25-.25v-1a.25.25 0 0 0-.25-.25h-1a.25.25 0 0 0-.25.25v1z" fill="#fff"/></g></svg>