<svg xmlns="http://www.w3.org/2000/svg" width="20" height="20" viewBox="0 0 20 20"><g><path fill="none" d="M0 0h20v20H0z"/><linearGradient id="a" gradientUnits="userSpaceOnUse" x1="9.999" x2="9.999" y2="19"><stop offset="0" stop-color="#72B9F7"/><stop offset=".271" stop-color="#378DD7"/><stop offset=".829" stop-color="#378DD7"/><stop offset="1" stop-color="#336B9A"/></linearGradient><path d="M0 17c0 1.1.9 2 2 2h16c1.1 0 2-.9 2-2V2c0-1.1-.9-2-2-2H2C.9 0 0 .9 0 2v15z" fill="url(#a)"/><path d="M17.5 5.346H1.25v10.75c0 .688.562 1.25 1.25 1.25h15c.688 0 1.25-.562 1.25-1.25V5.346H17.5z" fill="#fff"/><path d="M17.08 15.21c0 .274-.225.5-.5.5H3.42c-.275 0-.5-.226-.5-.5V7.133c0-.275.225-.5.5-.5h13.16c.275 0 .5.225.5.5v8.075z" fill="#C2DCF2"/><path d="M4.04 9.19c0 .138.11.25.25.25h1c.137 0 .25-.112.25-.25v-1c0-.138-.113-.25-.25-.25h-1c-.14 0-.25.112-.25.25v1zM6.64 9.19c0 .138.11.25.25.25h1c.137 0 .25-.112.25-.25v-1c0-.138-.113-.25-.25-.25h-1c-.14 0-.25.112-.25.25v1zM9.24 9.19c0 .138.11.25.25.25h1c.137 0 .25-.112.25-.25v-1c0-.138-.113-.25-.25-.25h-1c-.14 0-.25.112-.25.25v1zM11.84 9.19c0 .138.112.25.25.25h1c.138 0 .25-.112.25-.25v-1c0-.138-.112-.25-.25-.25h-1c-.138 0-.25.112-.25.25v1zM14.44 9.19c0 .138.11.25.25.25h1c.137 0 .25-.112.25-.25v-1c0-.138-.113-.25-.25-.25h-1c-.14 0-.25.112-.25.25v1zM4.04 11.69c0 .138.11.25.25.25h1c.137 0 .25-.112.25-.25v-1c0-.138-.113-.25-.25-.25h-1c-.14 0-.25.112-.25.25v1z" fill="#fff"/><path d="M6.64 11.69c0 .138.11.25.25.25h1c.137 0 .25-.112.25-.25v-1c0-.138-.113-.25-.25-.25h-1c-.14 0-.25.112-.25.25v1z" fill="none" stroke="#378DD7" stroke-width=".5" stroke-miterlimit="10"/><path d="M6.64 11.69c0 .138.11.25.25.25h1c.137 0 .25-.112.25-.25v-1c0-.138-.113-.25-.25-.25h-1c-.14 0-.25.112-.25.25v1z" fill="#378DD7"/><path d="M9.24 11.69c0 .138.11.25.25.25h1c.137 0 .25-.112.25-.25v-1c0-.138-.113-.25-.25-.25h-1c-.14 0-.25.112-.25.25v1zM11.84 11.69c0 .138.112.25.25.25h1c.138 0 .25-.112.25-.25v-1c0-.138-.112-.25-.25-.25h-1c-.138 0-.25.112-.25.25v1zM14.44 11.69c0 .138.11.25.25.25h1c.137 0 .25-.112.25-.25v-1c0-.138-.113-.25-.25-.25h-1c-.14 0-.25.112-.25.25v1zM4.04 14.19c0 .138.11.25.25.25h1c.137 0 .25-.112.25-.25v-1c0-.138-.113-.25-.25-.25h-1c-.14 0-.25.112-.25.25v1zM6.64 14.19c0 .138.11.25.25.25h1c.137 0 .25-.112.25-.25v-1c0-.138-.113-.25-.25-.25h-1c-.14 0-.25.112-.25.25v1zM9.24 14.19c0 .138.11.25.25.25h1c.137 0 .25-.112.25-.25v-1c0-.138-.113-.25-.25-.25h-1c-.14 0-.25.112-.25.25v1zM11.84 14.19c0 .138.112.25.25.25h1c.138 0 .25-.112.25-.25v-1c0-.138-.112-.25-.25-.25h-1c-.138 0-.25.112-.25.25v1zM14.44 14.19c0 .138.11.25.25.25h1c.137 0 .25-.112.25-.25v-1c0-.138-.113-.25-.25-.25h-1c-.14 0-.25.112-.25.25v1z" fill="#fff"/></g></svg>