<?xml version="1.0" encoding="iso-8859-1"?><svg xmlns="http://www.w3.org/2000/svg" viewBox="0 0 20 20" enable-background="new 0 0 20 20"><g><g><linearGradient id="a" gradientUnits="userSpaceOnUse" x1="10" x2="10" y2="20"><stop offset="0" stop-color="#fff"/><stop offset=".25" stop-color="#FBFCFD"/><stop offset=".509" stop-color="#EEF4F8"/><stop offset=".771" stop-color="#DAE7F0"/><stop offset=".8" stop-color="#D7E5EF"/></linearGradient><path d="M0 17c0 1.65 1.35 3 3 3h14c1.65 0 3-1.35 3-3V3c0-1.65-1.35-3-3-3H3C1.35 0 0 1.35 0 3v14z" fill="url(#a)"/><path d="M17 2c.542 0 1 .458 1 1v14c0 .542-.458 1-1 1H3c-.542 0-1-.458-1-1V3c0-.542.458-1 1-1h14m0-2H3C1.35 0 0 1.35 0 3v14c0 1.65 1.35 3 3 3h14c1.65 0 3-1.35 3-3V3c0-1.65-1.35-3-3-3z" fill="#fff" opacity=".7"/><path d="M17 1c1.103 0 2 .897 2 2v14c0 1.103-.897 2-2 2H3c-1.103 0-2-.897-2-2V3c0-1.103.897-2 2-2h14m0-1H3C1.35 0 0 1.35 0 3v14c0 1.65 1.35 3 3 3h14c1.65 0 3-1.35 3-3V3c0-1.65-1.35-3-3-3z" fill="#45494D" opacity=".7"/></g><g><path d="M9.72 10.835c.155-.156.405-.156.56 0l2.67 2.726c.154.158.406.158.56 0l1.597-1.627c.152-.156.152-.414 0-.57l-2.672-2.725c-.152-.156-.406-.415-.56-.57L10.28 6.44c-.155-.156-.405-.156-.56 0L8.126 8.068l-.56.57-2.67 2.724c-.154.156-.154.414 0 .57L6.49 13.56c.155.157.404.157.558 0l2.672-2.725z" fill="#448CCA" enable-background="new"/><linearGradient id="b" gradientUnits="userSpaceOnUse" x1="10" y1="6.198" x2="10" y2="13.803"><stop offset="0" stop-color="#fff"/><stop offset=".9" stop-color="#D7E5EF"/></linearGradient><path d="M10 6.323c.1 0 .203.04.28.117l1.596 1.628.56.57 2.67 2.724c.153.156.153.414 0 .57L13.51 13.56c-.077.08-.178.118-.28.118s-.203-.04-.28-.118l-2.67-2.726c-.077-.078-.18-.117-.28-.117s-.203.04-.28.117L7.05 13.56c-.078.08-.18.118-.28.118s-.202-.04-.28-.118l-1.594-1.628c-.153-.156-.153-.414 0-.57l2.67-2.725.56-.57L9.72 6.44c.077-.078.178-.117.28-.117m0-.125c-.14 0-.27.055-.37.154L8.037 7.98l-.467.476-.093.094-2.67 2.725c-.203.206-.203.54 0 .745L6.4 13.648c.1.1.23.155.37.155.14 0 .27-.055.368-.155l2.67-2.726c.052-.05.12-.08.192-.08.072 0 .14.028.19.08l2.67 2.725c.098.1.23.155.37.155.14 0 .27-.055.367-.156l1.597-1.627c.2-.207.2-.54 0-.746l-2.67-2.724-.56-.57-1.595-1.628c-.1-.1-.23-.154-.37-.154z" fill="url(#b)"/></g></g></svg>