<?xml version="1.0" encoding="iso-8859-1"?><svg xmlns="http://www.w3.org/2000/svg" viewBox="0 0 20 20"><linearGradient id="a" gradientUnits="userSpaceOnUse" x1="10" x2="10" y2="20"><stop offset="0" stop-color="#fff"/><stop offset=".25" stop-color="#fbfcfd"/><stop offset=".509" stop-color="#eef4f8"/><stop offset=".771" stop-color="#dae7f0"/><stop offset=".8" stop-color="#d7e5ef"/></linearGradient><path d="M0 17c0 1.65 1.35 3 3 3h14c1.65 0 3-1.35 3-3V3c0-1.65-1.35-3-3-3H3C1.35 0 0 1.35 0 3v14z" fill="url(#a)"/><path d="M17 2c.542 0 1 .458 1 1v14c0 .542-.458 1-1 1H3c-.542 0-1-.458-1-1V3c0-.542.458-1 1-1h14m0-2H3C1.35 0 0 1.35 0 3v14c0 1.65 1.35 3 3 3h14c1.65 0 3-1.35 3-3V3c0-1.65-1.35-3-3-3z" fill="#fff" opacity=".7"/><path d="M17 1c1.103 0 2 .897 2 2v14c0 1.103-.897 2-2 2H3c-1.103 0-2-.897-2-2V3c0-1.103.897-2 2-2h14m0-1H3C1.35 0 0 1.35 0 3v14c0 1.65 1.35 3 3 3h14c1.65 0 3-1.35 3-3V3c0-1.65-1.35-3-3-3z" fill="#45494d" opacity=".7"/><g><path d="M9.72 10.835a.394.394 0 0 1 .56 0l2.67 2.726a.39.39 0 0 0 .559 0l1.598-1.628a.413.413 0 0 0 0-.57l-2.672-2.725c-.152-.156-.406-.415-.559-.569L10.28 6.44a.394.394 0 0 0-.56 0L8.126 8.068l-.56.569-2.671 2.725a.411.411 0 0 0 0 .57L6.49 13.56a.39.39 0 0 0 .558 0l2.672-2.725z" fill="#448cca"/><linearGradient id="b" gradientUnits="userSpaceOnUse" x1="10" y1="6.198" x2="10" y2="13.803"><stop offset="0" stop-color="#fff"/><stop offset=".9" stop-color="#d7e5ef"/></linearGradient><path d="M10 6.323c.101 0 .203.039.28.117l1.596 1.628.559.569 2.672 2.725a.413.413 0 0 1 0 .57l-1.598 1.628a.388.388 0 0 1-.559 0l-2.67-2.726a.393.393 0 0 0-.56 0L7.049 13.56a.388.388 0 0 1-.558 0l-1.595-1.628a.411.411 0 0 1 0-.57l2.671-2.725.559-.569L9.72 6.44a.391.391 0 0 1 .28-.117m0-.125a.52.52 0 0 0-.369.154L8.036 7.98l-.467.476-.092.094-2.671 2.725a.534.534 0 0 0 0 .745l1.595 1.628a.516.516 0 0 0 .737 0l2.671-2.726a.27.27 0 0 1 .382 0l2.669 2.725a.514.514 0 0 0 .737-.001l1.597-1.627c.2-.206.2-.54 0-.745L12.523 8.55a150.24 150.24 0 0 0-.559-.57l-1.595-1.628A.52.52 0 0 0 10 6.198z" fill="url(#b)"/></g></svg>