<?xml version="1.0" encoding="iso-8859-1"?><svg xmlns="http://www.w3.org/2000/svg" viewBox="0 0 20 20"><linearGradient id="a" gradientUnits="userSpaceOnUse" x1="-2250" x2="-2250" y2="20" gradientTransform="matrix(-1 0 0 1 -2240 0)"><stop offset="0" stop-color="#a0c7e7"/><stop offset=".9" stop-color="#448cca"/></linearGradient><path d="M20 17c0 1.65-1.35 3-3 3H3c-1.65 0-3-1.35-3-3V3c0-1.65 1.35-3 3-3h14c1.65 0 3 1.35 3 3v14z" fill="url(#a)"/><g opacity=".7"><linearGradient id="b" gradientUnits="userSpaceOnUse" x1="10" y1="20" x2="10"><stop offset="0" stop-color="#a0c7e7"/><stop offset=".9" stop-color="#448cca"/></linearGradient><path d="M17 2c.542 0 1 .458 1 1v14c0 .542-.458 1-1 1H3c-.542 0-1-.458-1-1V3c0-.542.458-1 1-1h14m0-2H3C1.35 0 0 1.35 0 3v14c0 1.65 1.35 3 3 3h14c1.65 0 3-1.35 3-3V3c0-1.65-1.35-3-3-3z" fill="url(#b)"/></g><path d="M17 1c1.103 0 2 .897 2 2v14c0 1.103-.897 2-2 2H3c-1.103 0-2-.897-2-2V3c0-1.103.897-2 2-2h14m0-1H3C1.35 0 0 1.35 0 3v14c0 1.65 1.35 3 3 3h14c1.65 0 3-1.35 3-3V3c0-1.65-1.35-3-3-3z" fill="#45494d" opacity=".7"/><g><path d="M10.064 9.719a.394.394 0 0 0 0 .56l2.726 2.67a.389.389 0 0 1 0 .559l-1.628 1.598a.413.413 0 0 1-.57 0l-2.725-2.672c-.156-.152-.415-.406-.569-.559L5.67 10.279a.394.394 0 0 1 0-.56l1.628-1.594.569-.559 2.725-2.671a.411.411 0 0 1 .57 0L12.79 6.49a.388.388 0 0 1 0 .558l-2.726 2.671z" fill="#fff"/><linearGradient id="c" gradientUnits="userSpaceOnUse" x1="9.23" y1="15.345" x2="9.23" y2="4.655"><stop offset="0" stop-color="#fff"/><stop offset=".9" stop-color="#d7e5ef"/></linearGradient><path d="M10.877 4.78c.104 0 .207.038.285.115L12.79 6.49a.388.388 0 0 1 0 .558l-2.726 2.671a.394.394 0 0 0 0 .56l2.726 2.67a.389.389 0 0 1 0 .559l-1.628 1.598a.408.408 0 0 1-.285.114.407.407 0 0 1-.285-.114l-2.725-2.672c-.156-.152-.415-.406-.569-.559L5.67 10.279a.394.394 0 0 1 0-.56l1.628-1.594.569-.559 2.725-2.671a.408.408 0 0 1 .285-.115m0-.125a.53.53 0 0 0-.373.15L7.779 7.477l-.569.559L5.582 9.63a.516.516 0 0 0-.001.738l1.628 1.596.569.559 2.725 2.672a.53.53 0 0 0 .373.15.527.527 0 0 0 .372-.15l1.628-1.598a.514.514 0 0 0 0-.737l-2.725-2.67a.27.27 0 0 1 0-.382l2.725-2.67a.511.511 0 0 0 0-.737L11.25 4.806a.532.532 0 0 0-.373-.151z" fill="url(#c)"/></g></svg>