<svg xmlns="http://www.w3.org/2000/svg" width="20" height="20" viewBox="0 0 20 20"><g><g><linearGradient id="a" gradientUnits="userSpaceOnUse" x1="9.999" x2="9.999" y2="20"><stop offset="0" stop-color="#A0C7E7"/><stop offset=".9" stop-color="#448CCA"/></linearGradient><path d="M0 17c0 1.65 1.35 3 3 3h14c1.65 0 3-1.35 3-3V3c0-1.65-1.35-3-3-3H3C1.35 0 0 1.35 0 3v14z" fill="url(#a)"/><g opacity=".7"><linearGradient id="b" gradientUnits="userSpaceOnUse" x1="10.001" y1="20" x2="10.001"><stop offset="0" stop-color="#A0C7E7"/><stop offset=".9" stop-color="#448CCA"/></linearGradient><path d="M17 2c.542 0 1 .458 1 1v14c0 .542-.458 1-1 1H3c-.542 0-1-.458-1-1V3c0-.542.458-1 1-1h14m0-2H3C1.35 0 0 1.35 0 3v14c0 1.65 1.35 3 3 3h14c1.65 0 3-1.35 3-3V3c0-1.65-1.35-3-3-3z" fill="url(#b)"/></g><path d="M17 1c1.103 0 2 .897 2 2v14c0 1.103-.897 2-2 2H3c-1.103 0-2-.897-2-2V3c0-1.103.897-2 2-2h14m0-1H3C1.35 0 0 1.35 0 3v14c0 1.65 1.35 3 3 3h14c1.65 0 3-1.35 3-3V3c0-1.65-1.35-3-3-3z" fill="#45494D" opacity=".7"/></g><g><path d="M9.936 9.72c.156.154.156.404 0 .56L7.21 12.95c-.158.153-.158.405 0 .558l1.628 1.598c.156.152.414.152.57 0l2.725-2.672c.156-.152.415-.406.57-.56l1.627-1.595c.156-.156.156-.406 0-.56l-1.628-1.595-.57-.56-2.724-2.67c-.156-.153-.414-.153-.57 0L7.21 6.49c-.158.154-.158.404 0 .558l2.726 2.67z" fill="#fff" enable-background="new"/><linearGradient id="c" gradientUnits="userSpaceOnUse" x1="10.77" y1="15.345" x2="10.77" y2="4.656"><stop offset="0" stop-color="#fff"/><stop offset=".9" stop-color="#D7E5EF"/></linearGradient><path d="M9.123 4.78c.104 0 .207.038.285.115l2.725 2.67.57.56L14.33 9.72c.156.154.156.404 0 .56l-1.628 1.595-.57.56-2.724 2.67c-.078.077-.18.115-.285.115s-.207-.038-.285-.114L7.21 13.508c-.158-.152-.158-.404 0-.56l2.726-2.67c.156-.154.156-.404 0-.56L7.21 7.05c-.158-.154-.158-.404 0-.558l1.628-1.595c.078-.077.182-.115.285-.115m0-.125c-.14 0-.273.054-.373.15L7.123 6.4c-.1.1-.156.23-.156.37 0 .14.056.27.156.368l2.726 2.67c.05.052.08.12.08.19 0 .073-.03.14-.08.192l-2.726 2.67c-.1.1-.156.23-.156.37s.056.27.156.367l1.627 1.597c.1.098.232.15.374.15s.273-.053.373-.15l2.725-2.672c.156-.15.415-.406.57-.56l1.627-1.594c.1-.1.153-.23.153-.37 0-.14-.055-.27-.154-.37l-1.63-1.592-.57-.56-2.724-2.67c-.1-.097-.232-.15-.373-.15z" fill="url(#c)"/></g></g></svg>