<?xml version="1.0" encoding="iso-8859-1"?><svg xmlns="http://www.w3.org/2000/svg" viewBox="0 0 20 20"><linearGradient id="a" gradientUnits="userSpaceOnUse" x1="-2250" x2="-2250" y2="20" gradientTransform="matrix(-1 0 0 1 -2240 0)"><stop offset="0" stop-color="#fff"/><stop offset=".25" stop-color="#fbfcfd"/><stop offset=".509" stop-color="#eef4f8"/><stop offset=".771" stop-color="#dae7f0"/><stop offset=".8" stop-color="#d7e5ef"/></linearGradient><path d="M20 17c0 1.65-1.35 3-3 3H3c-1.65 0-3-1.35-3-3V3c0-1.65 1.35-3 3-3h14c1.65 0 3 1.35 3 3v14z" fill="url(#a)"/><path d="M17 2c.542 0 1 .458 1 1v14c0 .542-.458 1-1 1H3c-.542 0-1-.458-1-1V3c0-.542.458-1 1-1h14m0-2H3C1.35 0 0 1.35 0 3v14c0 1.65 1.35 3 3 3h14c1.65 0 3-1.35 3-3V3c0-1.65-1.35-3-3-3z" fill="#fff" opacity=".7"/><path d="M17 1c1.103 0 2 .897 2 2v14c0 1.103-.897 2-2 2H3c-1.103 0-2-.897-2-2V3c0-1.103.897-2 2-2h14m0-1H3C1.35 0 0 1.35 0 3v14c0 1.65 1.35 3 3 3h14c1.65 0 3-1.35 3-3V3c0-1.65-1.35-3-3-3z" fill="#45494d" opacity=".7"/><g><path d="M10.064 9.719a.395.395 0 0 0 0 .561l2.726 2.67a.389.389 0 0 1 0 .559l-1.628 1.598a.413.413 0 0 1-.57 0l-2.725-2.672c-.156-.152-.415-.406-.569-.559L5.67 10.279a.395.395 0 0 1 0-.561l1.628-1.594.569-.559 2.725-2.672a.413.413 0 0 1 .57 0L12.79 6.49a.389.389 0 0 1 0 .559l-2.726 2.67z" opacity=".6" fill="#45494d"/><linearGradient id="b" gradientUnits="userSpaceOnUse" x1="9.23" y1="15.345" x2="9.23" y2="4.655"><stop offset="0" stop-color="#fff"/><stop offset=".9" stop-color="#d7e5ef"/></linearGradient><path d="M10.877 4.78c.104 0 .207.038.285.114L12.79 6.49a.389.389 0 0 1 0 .559l-2.726 2.67a.395.395 0 0 0 0 .561l2.726 2.67a.389.389 0 0 1 0 .559l-1.628 1.598a.408.408 0 0 1-.285.114.407.407 0 0 1-.285-.114l-2.725-2.672c-.156-.152-.415-.406-.569-.559L5.67 10.279a.395.395 0 0 1 0-.561l1.628-1.594.569-.559 2.725-2.672a.41.41 0 0 1 .285-.113m0-.125a.527.527 0 0 0-.372.15L7.779 7.477l-.569.559-1.628 1.593a.52.52 0 0 0 0 .739l1.628 1.596.569.559 2.725 2.672a.53.53 0 0 0 .373.15.527.527 0 0 0 .372-.15l1.628-1.598a.514.514 0 0 0 0-.737l-2.725-2.67a.267.267 0 0 1 0-.382l2.725-2.669a.514.514 0 0 0 0-.738L11.25 4.805a.531.531 0 0 0-.373-.15z" fill="url(#b)"/></g></svg>