<?xml version="1.0" encoding="iso-8859-1"?><svg xmlns="http://www.w3.org/2000/svg" viewBox="0 0 20 20" enable-background="new 0 0 20 20"><g><g><linearGradient id="a" gradientUnits="userSpaceOnUse" x1="-841" y1="-831" x2="-821" y2="-831" gradientTransform="matrix(0 1 -1 0 -821 841)"><stop offset="0" stop-color="#A0C7E7"/><stop offset=".9" stop-color="#448CCA"/></linearGradient><path d="M3 0C1.35 0 0 1.35 0 3v14c0 1.65 1.35 3 3 3h14c1.65 0 3-1.35 3-3V3c0-1.65-1.35-3-3-3H3z" fill="url(#a)"/><g opacity=".7"><linearGradient id="b" gradientUnits="userSpaceOnUse" x1="10" y1="20" x2="10"><stop offset="0" stop-color="#A0C7E7"/><stop offset=".9" stop-color="#448CCA"/></linearGradient><path d="M17 2c.542 0 1 .458 1 1v14c0 .542-.458 1-1 1H3c-.542 0-1-.458-1-1V3c0-.542.458-1 1-1h14m0-2H3C1.35 0 0 1.35 0 3v14c0 1.65 1.35 3 3 3h14c1.65 0 3-1.35 3-3V3c0-1.65-1.35-3-3-3z" fill="url(#b)"/></g><path d="M17 1c1.103 0 2 .897 2 2v14c0 1.103-.897 2-2 2H3c-1.103 0-2-.897-2-2V3c0-1.103.897-2 2-2h14m0-1H3C1.35 0 0 1.35 0 3v14c0 1.65 1.35 3 3 3h14c1.65 0 3-1.35 3-3V3c0-1.65-1.35-3-3-3z" fill="#45494D" opacity=".7"/></g><g><path d="M9.72 10.834c.154-.156.404-.156.56 0l2.67 2.726c.153.157.405.157.558 0l1.598-1.628c.152-.156.152-.414 0-.57l-2.672-2.725c-.152-.156-.406-.415-.56-.57L10.28 6.44c-.156-.156-.406-.156-.56 0L8.124 8.067l-.56.57-2.67 2.725c-.153.156-.153.414 0 .57L6.49 13.56c.154.157.404.157.558 0l2.67-2.726z" fill="#fff" enable-background="new"/><linearGradient id="c" gradientUnits="userSpaceOnUse" x1="10" y1="13.803" x2="10" y2="6.197"><stop offset="0" stop-color="#fff"/><stop offset=".9" stop-color="#D7E5EF"/></linearGradient><path d="M10 6.322c.1 0 .202.04.28.117l1.595 1.627.56.57 2.67 2.724c.153.157.153.415 0 .57l-1.597 1.63c-.076.078-.177.117-.28.117s-.202-.04-.28-.118l-2.67-2.727c-.076-.078-.178-.117-.28-.117s-.202.04-.28.117L7.05 13.56c-.077.08-.178.118-.28.118s-.2-.04-.278-.118l-1.595-1.628c-.153-.156-.153-.414 0-.57l2.67-2.725.56-.57L9.72 6.44c.077-.08.178-.118.28-.118m0-.125c-.14 0-.27.055-.37.154L8.036 7.98l-.56.57-2.67 2.724c-.2.206-.2.54 0 .745L6.4 13.646c.1.1.23.155.37.155.14 0 .27-.055.368-.155l2.67-2.726c.052-.05.12-.08.192-.08.072 0 .14.03.19.08l2.67 2.726c.098.1.23.155.37.155.14 0 .27-.054.367-.155l1.597-1.627c.2-.206.2-.54 0-.745l-2.672-2.725c-.152-.156-.406-.415-.56-.57L10.37 6.35c-.098-.098-.23-.153-.37-.153z" fill="url(#c)"/></g></g></svg>