<?xml version="1.0" encoding="iso-8859-1"?><svg xmlns="http://www.w3.org/2000/svg" viewBox="0 0 20 20" enable-background="new 0 0 20 20"><g><g><linearGradient id="a" gradientUnits="userSpaceOnUse" x1="-2250" x2="-2250" y2="20" gradientTransform="matrix(-1 0 0 1 -2240 0)"><stop offset="0" stop-color="#fff"/><stop offset=".25" stop-color="#FBFCFD"/><stop offset=".509" stop-color="#EEF4F8"/><stop offset=".771" stop-color="#DAE7F0"/><stop offset=".8" stop-color="#D7E5EF"/></linearGradient><path d="M20 17c0 1.65-1.35 3-3 3H3c-1.65 0-3-1.35-3-3V3c0-1.65 1.35-3 3-3h14c1.65 0 3 1.35 3 3v14z" fill="url(#a)"/><path d="M17 2c.542 0 1 .458 1 1v14c0 .542-.458 1-1 1H3c-.542 0-1-.458-1-1V3c0-.542.458-1 1-1h14m0-2H3C1.35 0 0 1.35 0 3v14c0 1.65 1.35 3 3 3h14c1.65 0 3-1.35 3-3V3c0-1.65-1.35-3-3-3z" fill="#fff" opacity=".7"/><path d="M17 1c1.103 0 2 .897 2 2v14c0 1.103-.897 2-2 2H3c-1.103 0-2-.897-2-2V3c0-1.103.897-2 2-2h14m0-1H3C1.35 0 0 1.35 0 3v14c0 1.65 1.35 3 3 3h14c1.65 0 3-1.35 3-3V3c0-1.65-1.35-3-3-3z" fill="#45494D" opacity=".7"/></g><g><path d="M10.064 9.72c-.156.154-.156.405 0 .56l2.726 2.67c.158.154.158.406 0 .56l-1.628 1.597c-.156.152-.414.152-.57 0l-2.725-2.672c-.156-.152-.415-.406-.57-.56L5.67 10.28c-.156-.155-.156-.406 0-.562l1.628-1.594.57-.56 2.724-2.67c.156-.153.414-.153.57 0L12.79 6.49c.158.154.158.404 0 .56l-2.726 2.67z" opacity=".6" fill="#45494D" enable-background="new"/><linearGradient id="b" gradientUnits="userSpaceOnUse" x1="9.23" y1="15.345" x2="9.23" y2="4.655"><stop offset="0" stop-color="#fff"/><stop offset=".9" stop-color="#D7E5EF"/></linearGradient><path d="M10.877 4.78c.104 0 .207.038.285.114L12.79 6.49c.158.154.158.404 0 .56l-2.726 2.67c-.156.154-.156.405 0 .56l2.726 2.67c.158.154.158.406 0 .56l-1.628 1.597c-.078.076-.182.114-.285.114-.104 0-.207-.037-.285-.113l-2.725-2.672c-.156-.152-.415-.406-.57-.56L5.67 10.28c-.156-.155-.156-.406 0-.562l1.628-1.594.57-.56 2.724-2.67c.078-.076.18-.114.285-.114m0-.125c-.14 0-.273.053-.372.15L7.78 7.477c-.157.153-.416.407-.57.56L5.582 9.628c-.1.1-.154.23-.154.37 0 .14.055.27.154.368l1.628 1.596.57.56 2.724 2.67c.1.098.232.15.373.15.14 0 .273-.052.372-.15l1.627-1.597c.1-.096.155-.227.156-.366 0-.14-.055-.27-.156-.37l-2.725-2.67c-.05-.05-.08-.118-.08-.19 0-.072.028-.14.08-.192l2.725-2.67c.1-.097.156-.228.156-.368s-.055-.27-.156-.37L11.25 4.806c-.1-.097-.232-.15-.373-.15z" fill="url(#b)"/></g></g></svg>