<?xml version="1.0" encoding="iso-8859-1"?><svg xmlns="http://www.w3.org/2000/svg" width="20" height="20" viewBox="0 0 20 20"><linearGradient id="a" gradientUnits="userSpaceOnUse" x1="9.999" x2="9.999" y2="20"><stop offset="0" stop-color="#fff"/><stop offset=".25" stop-color="#fbfcfd"/><stop offset=".509" stop-color="#eef4f8"/><stop offset=".771" stop-color="#dae7f0"/><stop offset=".8" stop-color="#d7e5ef"/></linearGradient><path d="M0 17c0 1.65 1.35 3 3 3h14c1.65 0 3-1.35 3-3V3c0-1.65-1.35-3-3-3H3C1.35 0 0 1.35 0 3v14z" fill="url(#a)"/><path d="M17 2c.542 0 1 .458 1 1v14c0 .542-.458 1-1 1H3c-.542 0-1-.458-1-1V3c0-.542.458-1 1-1h14m0-2H3C1.35 0 0 1.35 0 3v14c0 1.65 1.35 3 3 3h14c1.65 0 3-1.35 3-3V3c0-1.65-1.35-3-3-3z" fill="#fff" opacity=".7"/><path d="M17 1c1.103 0 2 .897 2 2v14c0 1.103-.897 2-2 2H3c-1.103 0-2-.897-2-2V3c0-1.103.897-2 2-2h14m0-1H3C1.35 0 0 1.35 0 3v14c0 1.65 1.35 3 3 3h14c1.65 0 3-1.35 3-3V3c0-1.65-1.35-3-3-3z" fill="#45494d" opacity=".7"/><g><path d="M10.281 9.166a.394.394 0 0 1-.56 0L7.051 6.44a.39.39 0 0 0-.559 0L4.895 8.068a.413.413 0 0 0 0 .57l2.672 2.725c.152.156.406.415.559.569l1.596 1.628a.394.394 0 0 0 .56 0l1.594-1.628.559-.569 2.672-2.725a.413.413 0 0 0 0-.57L13.51 6.44a.39.39 0 0 0-.559 0l-2.67 2.726z" fill="#448cca"/><linearGradient id="b" gradientUnits="userSpaceOnUse" x1="10.001" y1="13.803" x2="10.001" y2="6.198"><stop offset="0" stop-color="#fff"/><stop offset=".9" stop-color="#d7e5ef"/></linearGradient><path d="M13.23 6.322a.39.39 0 0 1 .279.118l1.596 1.628a.413.413 0 0 1 0 .57l-2.672 2.725c-.152.156-.406.415-.559.569L10.28 13.56a.395.395 0 0 1-.56 0l-1.596-1.628-.559-.569-2.67-2.724a.413.413 0 0 1 0-.57L6.492 6.44a.384.384 0 0 1 .278-.118c.102 0 .203.04.28.118l2.67 2.726a.393.393 0 0 0 .56 0l2.67-2.726a.396.396 0 0 1 .28-.118m0-.125a.51.51 0 0 0-.368.156l-2.671 2.726a.269.269 0 0 1-.381 0L7.14 6.353a.516.516 0 0 0-.738 0L4.805 7.981c-.2.206-.2.54 0 .745l2.672 2.725.559.569 1.595 1.628a.52.52 0 0 0 .739 0l1.594-1.628.56-.57 2.671-2.724a.537.537 0 0 0 .001-.745l-1.597-1.628a.514.514 0 0 0-.369-.156z" fill="url(#b)"/></g></svg>