<?xml version="1.0" encoding="iso-8859-1"?><svg xmlns="http://www.w3.org/2000/svg" width="20" height="20" viewBox="0 0 20 20"><linearGradient id="a" gradientUnits="userSpaceOnUse" x1="9.999" x2="9.999" y2="20"><stop offset="0" stop-color="#fff"/><stop offset=".25" stop-color="#fbfcfd"/><stop offset=".509" stop-color="#eef4f8"/><stop offset=".771" stop-color="#dae7f0"/><stop offset=".8" stop-color="#d7e5ef"/></linearGradient><path d="M0 17c0 1.65 1.35 3 3 3h14c1.65 0 3-1.35 3-3V3c0-1.65-1.35-3-3-3H3C1.35 0 0 1.35 0 3v14z" fill="url(#a)"/><path d="M17 2c.542 0 1 .458 1 1v14c0 .542-.458 1-1 1H3c-.542 0-1-.458-1-1V3c0-.542.458-1 1-1h14m0-2H3C1.35 0 0 1.35 0 3v14c0 1.65 1.35 3 3 3h14c1.65 0 3-1.35 3-3V3c0-1.65-1.35-3-3-3z" fill="#fff" opacity=".7"/><path d="M17 1c1.103 0 2 .897 2 2v14c0 1.103-.897 2-2 2H3c-1.103 0-2-.897-2-2V3c0-1.103.897-2 2-2h14m0-1H3C1.35 0 0 1.35 0 3v14c0 1.65 1.35 3 3 3h14c1.65 0 3-1.35 3-3V3c0-1.65-1.35-3-3-3z" fill="#45494d" opacity=".7"/><g><path d="M9.936 9.719a.395.395 0 0 1 0 .561L7.21 12.95a.389.389 0 0 0 0 .559l1.628 1.598a.413.413 0 0 0 .57 0l2.725-2.672c.156-.152.415-.406.569-.559l1.628-1.596a.395.395 0 0 0 0-.561l-1.628-1.594-.569-.559-2.725-2.671a.413.413 0 0 0-.57 0L7.21 6.49a.389.389 0 0 0 0 .559l2.726 2.67z" opacity=".6" fill="#45494d"/><linearGradient id="b" gradientUnits="userSpaceOnUse" x1="10.77" y1="15.345" x2="10.77" y2="4.656"><stop offset="0" stop-color="#fff"/><stop offset=".9" stop-color="#d7e5ef"/></linearGradient><path d="M9.123 4.78c.104 0 .207.038.285.114l2.725 2.672c.156.152.415.406.569.559l1.628 1.594a.395.395 0 0 1 0 .561l-1.628 1.596-.569.559-2.725 2.672c-.078.075-.181.113-.285.113s-.207-.038-.285-.114L7.21 13.508a.389.389 0 0 1 0-.559l2.726-2.67a.395.395 0 0 0 0-.561L7.21 7.049a.389.389 0 0 1 0-.559l1.628-1.596a.408.408 0 0 1 .285-.114m0-.125a.531.531 0 0 0-.373.15L7.123 6.401a.51.51 0 0 0 0 .737l2.726 2.67c.05.051.079.119.079.192 0 .072-.028.14-.08.19l-2.725 2.67a.514.514 0 0 0 0 .737l1.627 1.597c.099.098.231.15.373.15s.273-.053.373-.149l2.725-2.673c.156-.151.415-.406.569-.559l1.628-1.595a.52.52 0 0 0 0-.739L12.79 8.036l-.57-.559-2.724-2.672a.531.531 0 0 0-.373-.15z" fill="url(#b)"/></g></svg>