<svg xmlns="http://www.w3.org/2000/svg" width="20" height="20" viewBox="0 0 20 20"><g><g><linearGradient id="a" gradientUnits="userSpaceOnUse" x1="9.999" x2="9.999" y2="20"><stop offset="0" stop-color="#fff"/><stop offset=".25" stop-color="#FBFCFD"/><stop offset=".509" stop-color="#EEF4F8"/><stop offset=".771" stop-color="#DAE7F0"/><stop offset=".8" stop-color="#D7E5EF"/></linearGradient><path d="M0 17c0 1.65 1.35 3 3 3h14c1.65 0 3-1.35 3-3V3c0-1.65-1.35-3-3-3H3C1.35 0 0 1.35 0 3v14z" fill="url(#a)"/><path d="M17 2c.542 0 1 .458 1 1v14c0 .542-.458 1-1 1H3c-.542 0-1-.458-1-1V3c0-.542.458-1 1-1h14m0-2H3C1.35 0 0 1.35 0 3v14c0 1.65 1.35 3 3 3h14c1.65 0 3-1.35 3-3V3c0-1.65-1.35-3-3-3z" fill="#fff" opacity=".7"/><path d="M17 1c1.103 0 2 .897 2 2v14c0 1.103-.897 2-2 2H3c-1.103 0-2-.897-2-2V3c0-1.103.897-2 2-2h14m0-1H3C1.35 0 0 1.35 0 3v14c0 1.65 1.35 3 3 3h14c1.65 0 3-1.35 3-3V3c0-1.65-1.35-3-3-3z" fill="#45494D" opacity=".7"/></g><g><path d="M10.28 9.166c-.154.156-.404.156-.56 0L7.05 6.44c-.153-.157-.405-.157-.558 0L4.895 8.068c-.152.156-.152.414 0 .57l2.672 2.725c.152.156.406.415.56.57L9.72 13.56c.155.156.405.156.56 0l1.594-1.628.56-.57 2.67-2.724c.153-.156.153-.414 0-.57L13.51 6.44c-.154-.157-.404-.157-.56 0l-2.67 2.726z" fill="#448CCA" enable-background="new"/><linearGradient id="b" gradientUnits="userSpaceOnUse" x1="10.001" y1="13.803" x2="10.001" y2="6.198"><stop offset="0" stop-color="#fff"/><stop offset=".9" stop-color="#D7E5EF"/></linearGradient><path d="M13.23 6.322c.102 0 .202.04.28.118l1.595 1.628c.152.156.152.414 0 .57l-2.672 2.725c-.152.156-.406.415-.56.57L10.28 13.56c-.078.078-.18.117-.28.117-.102 0-.203-.04-.28-.117l-1.596-1.628-.56-.57-2.67-2.723c-.15-.157-.15-.415 0-.57l1.598-1.63c.076-.08.177-.118.278-.118.102 0 .203.04.28.118l2.67 2.726c.077.078.18.117.28.117.1 0 .202-.04.28-.117l2.67-2.726c.078-.078.18-.118.28-.118m0-.125c-.14 0-.27.056-.368.156l-2.67 2.726c-.052.05-.12.08-.19.08-.073 0-.14-.03-.192-.08L7.14 6.352c-.1-.1-.23-.156-.37-.156-.14 0-.27.056-.368.156L4.805 7.98c-.2.207-.2.54 0 .746l2.672 2.725c.152.157.407.416.56.57l1.594 1.628c.1.1.23.154.37.154.14 0 .27-.055.37-.154l1.594-1.628.56-.57 2.67-2.724c.202-.206.202-.54.002-.745L13.6 6.354c-.1-.1-.23-.156-.37-.156z" fill="url(#b)"/></g></g></svg>