<svg xmlns="http://www.w3.org/2000/svg" width="20" height="20" viewBox="0 0 20 20"><g><g><linearGradient id="a" gradientUnits="userSpaceOnUse" x1="9.999" x2="9.999" y2="20"><stop offset="0" stop-color="#fff"/><stop offset=".25" stop-color="#FBFCFD"/><stop offset=".509" stop-color="#EEF4F8"/><stop offset=".771" stop-color="#DAE7F0"/><stop offset=".8" stop-color="#D7E5EF"/></linearGradient><path d="M0 17c0 1.65 1.35 3 3 3h14c1.65 0 3-1.35 3-3V3c0-1.65-1.35-3-3-3H3C1.35 0 0 1.35 0 3v14z" fill="url(#a)"/><path d="M17 2c.542 0 1 .458 1 1v14c0 .542-.458 1-1 1H3c-.542 0-1-.458-1-1V3c0-.542.458-1 1-1h14m0-2H3C1.35 0 0 1.35 0 3v14c0 1.65 1.35 3 3 3h14c1.65 0 3-1.35 3-3V3c0-1.65-1.35-3-3-3z" fill="#fff" opacity=".7"/><path d="M17 1c1.103 0 2 .897 2 2v14c0 1.103-.897 2-2 2H3c-1.103 0-2-.897-2-2V3c0-1.103.897-2 2-2h14m0-1H3C1.35 0 0 1.35 0 3v14c0 1.65 1.35 3 3 3h14c1.65 0 3-1.35 3-3V3c0-1.65-1.35-3-3-3z" fill="#45494D" opacity=".7"/></g><g><path d="M9.936 9.72c.156.154.156.405 0 .56L7.21 12.95c-.158.154-.158.406 0 .56l1.628 1.597c.156.152.414.152.57 0l2.725-2.672c.156-.152.415-.406.57-.56l1.627-1.595c.156-.154.156-.405 0-.56l-1.628-1.595-.57-.56-2.724-2.67c-.156-.152-.414-.152-.57 0L7.21 6.49c-.158.154-.158.404 0 .56l2.726 2.67z" opacity=".6" fill="#45494D" enable-background="new"/><linearGradient id="b" gradientUnits="userSpaceOnUse" x1="10.77" y1="15.345" x2="10.77" y2="4.656"><stop offset="0" stop-color="#fff"/><stop offset=".9" stop-color="#D7E5EF"/></linearGradient><path d="M9.123 4.78c.104 0 .207.038.285.114l2.725 2.672c.156.152.415.406.57.56l1.627 1.593c.156.154.156.405 0 .56l-1.628 1.596-.57.56-2.724 2.67c-.078.076-.18.114-.285.114s-.207-.038-.285-.114L7.21 13.508c-.158-.152-.158-.404 0-.56l2.726-2.67c.156-.153.156-.404 0-.56L7.21 7.048c-.158-.153-.158-.403 0-.558l1.628-1.596c.078-.076.182-.114.285-.114m0-.125c-.14 0-.273.053-.373.15L7.123 6.4c-.1.1-.156.23-.156.37s.055.27.156.368l2.726 2.67c.05.05.078.12.078.192 0 .072-.028.14-.08.19l-2.725 2.67c-.1.1-.156.23-.156.37s.056.27.156.367l1.627 1.597c.1.098.23.15.373.15s.273-.053.373-.15l2.725-2.672c.157-.15.416-.406.57-.56l1.628-1.594c.1-.1.154-.23.154-.37s-.055-.27-.154-.37L12.79 8.037l-.57-.56-2.724-2.67c-.1-.098-.232-.15-.373-.15z" fill="url(#b)"/></g></g></svg>