<?xml version="1.0" encoding="iso-8859-1"?><svg xmlns="http://www.w3.org/2000/svg" viewBox="0 0 20 20" enable-background="new 0 0 20 20"><g><g><linearGradient id="a" gradientUnits="userSpaceOnUse" x1="-2250" x2="-2250" y2="20" gradientTransform="matrix(-1 0 0 1 -2240 0)"><stop offset="0" stop-color="#A0C7E7"/><stop offset=".9" stop-color="#448CCA"/></linearGradient><path d="M20 17c0 1.65-1.35 3-3 3H3c-1.65 0-3-1.35-3-3V3c0-1.65 1.35-3 3-3h14c1.65 0 3 1.35 3 3v14z" fill="url(#a)"/><g opacity=".7"><linearGradient id="b" gradientUnits="userSpaceOnUse" x1="10" y1="20" x2="10"><stop offset="0" stop-color="#A0C7E7"/><stop offset=".9" stop-color="#448CCA"/></linearGradient><path d="M17 2c.542 0 1 .458 1 1v14c0 .542-.458 1-1 1H3c-.542 0-1-.458-1-1V3c0-.542.458-1 1-1h14m0-2H3C1.35 0 0 1.35 0 3v14c0 1.65 1.35 3 3 3h14c1.65 0 3-1.35 3-3V3c0-1.65-1.35-3-3-3z" fill="url(#b)"/></g><path d="M17 1c1.103 0 2 .897 2 2v14c0 1.103-.897 2-2 2H3c-1.103 0-2-.897-2-2V3c0-1.103.897-2 2-2h14m0-1H3C1.35 0 0 1.35 0 3v14c0 1.65 1.35 3 3 3h14c1.65 0 3-1.35 3-3V3c0-1.65-1.35-3-3-3z" fill="#45494D" opacity=".7"/></g><g><path d="M10.064 9.72c-.156.154-.156.404 0 .56l2.726 2.67c.158.153.158.405 0 .558l-1.628 1.598c-.156.152-.414.152-.57 0l-2.725-2.672c-.156-.152-.415-.406-.57-.56L5.67 10.28c-.156-.156-.156-.406 0-.56l1.628-1.595.57-.56 2.724-2.67c.156-.153.414-.153.57 0L12.79 6.49c.158.154.158.404 0 .558l-2.726 2.67z" fill="#fff" enable-background="new"/><linearGradient id="c" gradientUnits="userSpaceOnUse" x1="9.23" y1="15.345" x2="9.23" y2="4.655"><stop offset="0" stop-color="#fff"/><stop offset=".9" stop-color="#D7E5EF"/></linearGradient><path d="M10.877 4.78c.104 0 .207.038.285.115L12.79 6.49c.158.154.158.404 0 .558l-2.726 2.67c-.156.156-.156.406 0 .56l2.726 2.67c.158.155.158.407 0 .56l-1.628 1.598c-.078.076-.182.114-.285.114-.104 0-.207-.038-.285-.114l-2.725-2.672c-.156-.152-.415-.406-.57-.56L5.67 10.28c-.156-.156-.156-.406 0-.56l1.628-1.595.57-.56 2.724-2.67c.078-.076.18-.115.285-.115m0-.125c-.14 0-.274.053-.373.15L7.78 7.477l-.57.56L5.582 9.63c-.1.1-.155.23-.155.37 0 .138.055.27.154.368l1.63 1.596.568.56 2.725 2.67c.1.098.232.15.373.15.14 0 .273-.052.372-.15l1.628-1.597c.1-.096.155-.227.156-.366 0-.14-.055-.27-.156-.37l-2.725-2.67c-.05-.05-.08-.12-.08-.19 0-.073.03-.14.08-.192l2.726-2.67c.1-.098.156-.228.156-.368 0-.14-.055-.27-.156-.37L11.25 4.807c-.1-.097-.232-.15-.373-.15z" fill="url(#c)"/></g></g></svg>