<?xml version="1.0" encoding="iso-8859-1"?><svg xmlns="http://www.w3.org/2000/svg" width="20" height="20" viewBox="0 0 20 20"><linearGradient id="a" gradientUnits="userSpaceOnUse" x1="9.999" x2="9.999" y2="20"><stop offset="0" stop-color="#a0c7e7"/><stop offset=".9" stop-color="#448cca"/></linearGradient><path d="M0 17c0 1.65 1.35 3 3 3h14c1.65 0 3-1.35 3-3V3c0-1.65-1.35-3-3-3H3C1.35 0 0 1.35 0 3v14z" fill="url(#a)"/><g opacity=".7"><linearGradient id="b" gradientUnits="userSpaceOnUse" x1="10.001" y1="20" x2="10.001"><stop offset="0" stop-color="#a0c7e7"/><stop offset=".9" stop-color="#448cca"/></linearGradient><path d="M17 2c.542 0 1 .458 1 1v14c0 .542-.458 1-1 1H3c-.542 0-1-.458-1-1V3c0-.542.458-1 1-1h14m0-2H3C1.35 0 0 1.35 0 3v14c0 1.65 1.35 3 3 3h14c1.65 0 3-1.35 3-3V3c0-1.65-1.35-3-3-3z" fill="url(#b)"/></g><path d="M17 1c1.103 0 2 .897 2 2v14c0 1.103-.897 2-2 2H3c-1.103 0-2-.897-2-2V3c0-1.103.897-2 2-2h14m0-1H3C1.35 0 0 1.35 0 3v14c0 1.65 1.35 3 3 3h14c1.65 0 3-1.35 3-3V3c0-1.65-1.35-3-3-3z" fill="#45494d" opacity=".7"/><g><path d="M9.936 9.719a.394.394 0 0 1 0 .56l-2.726 2.67a.389.389 0 0 0 0 .559l1.628 1.598a.413.413 0 0 0 .57 0l2.725-2.672c.156-.152.415-.406.569-.559l1.628-1.596a.394.394 0 0 0 0-.56l-1.628-1.594-.569-.559-2.725-2.671a.411.411 0 0 0-.57 0L7.21 6.49a.388.388 0 0 0 0 .558l2.726 2.671z" fill="#fff"/><linearGradient id="c" gradientUnits="userSpaceOnUse" x1="10.77" y1="15.345" x2="10.77" y2="4.656"><stop offset="0" stop-color="#fff"/><stop offset=".9" stop-color="#d7e5ef"/></linearGradient><path d="M9.123 4.78c.104 0 .207.038.285.115l2.725 2.671.569.559 1.628 1.594a.394.394 0 0 1 0 .56l-1.628 1.596-.569.559-2.725 2.672c-.078.076-.181.114-.285.114s-.207-.038-.285-.114L7.21 13.508a.389.389 0 0 1 0-.559l2.726-2.67a.394.394 0 0 0 0-.56L7.21 7.048a.388.388 0 0 1 0-.558l1.628-1.595a.405.405 0 0 1 .285-.115m0-.125a.536.536 0 0 0-.373.15L7.123 6.401a.511.511 0 0 0 0 .737l2.726 2.671a.269.269 0 0 1 0 .381l-2.725 2.67a.514.514 0 0 0 0 .737l1.627 1.597c.099.098.231.15.373.15s.273-.053.373-.149l2.725-2.673c.156-.151.415-.406.569-.559l1.628-1.595a.52.52 0 0 0 0-.739L12.79 8.036l-.569-.559-2.725-2.671a.532.532 0 0 0-.373-.151z" fill="url(#c)"/></g></svg>