<svg xmlns="http://www.w3.org/2000/svg" width="20" height="20" viewBox="0 0 20 20"><g><path fill="none" d="M0 0h20v20H0z"/><g><linearGradient id="a" gradientUnits="userSpaceOnUse" x1="8.499" x2="8.499" y2="17"><stop offset="0" stop-color="#F2F6FB"/><stop offset=".48" stop-color="#F2F6FB"/><stop offset=".5" stop-color="#CDDFEC"/><stop offset=".729" stop-color="#C4D8E8"/><stop offset="1" stop-color="#C1D5E6"/></linearGradient><path d="M0 14c0 1.65 1.35 3 3 3h11c1.65 0 3-1.35 3-3V3c0-1.65-1.35-3-3-3H3C1.35 0 0 1.35 0 3v11z" fill="url(#a)"/><path d="M14 2c.542 0 1 .458 1 1v11c0 .542-.458 1-1 1H3c-.542 0-1-.458-1-1V3c0-.542.458-1 1-1h11m0-2H3C1.35 0 0 1.35 0 3v11c0 1.65 1.35 3 3 3h11c1.65 0 3-1.35 3-3V3c0-1.65-1.35-3-3-3z" fill="#fff" opacity=".8"/><path d="M14 1c1.103 0 2 .897 2 2v11c0 1.103-.897 2-2 2H3c-1.103 0-2-.897-2-2V3c0-1.103.897-2 2-2h11m0-1H3C1.35 0 0 1.35 0 3v11c0 1.65 1.35 3 3 3h11c1.65 0 3-1.35 3-3V3c0-1.65-1.35-3-3-3z" fill="#62798C" opacity=".7"/></g><g><path d="M8.486 9.297s.024-.27-.28-.565c-.306-.29-2.66-2.554-2.66-2.554-.89-.853-.912-.83-1.746.034l-.692.713c-.845.876-.702 1.026.03 1.738l1.776 1.703 1.776 1.702.888.852c.884.854.884.852 1.742-.03l.854-.886c.473-.484 1.24-1.28 1.712-1.766l5.61-5.796c.854-.882.854-.884-.032-1.737l-.61-.584c-.847-.816-.886-.856-1.743.034L9.5 7.948s-.578.594-.75.775c-.176.18-.264.574-.264.574z" opacity=".8" fill="none" stroke="#fff" stroke-width="2" stroke-linecap="round" stroke-linejoin="round" stroke-miterlimit="10"/><linearGradient id="b" gradientUnits="userSpaceOnUse" x1="24.057" y1="1122.682" x2="24.586" y2="1119.679" gradientTransform="matrix(.695 -.719 .721 .693 -812.185 -751.218)"><stop offset="0" stop-color="#336B9A"/><stop offset="1" stop-color="#448CCA"/></linearGradient><path d="M8.486 9.297s.024-.27-.28-.565c-.306-.29-2.66-2.554-2.66-2.554-.89-.853-.912-.83-1.746.034l-.692.713c-.845.876-.702 1.026.03 1.738l1.776 1.703 1.776 1.702.888.852c.884.854.884.852 1.742-.03l.854-.886c.473-.484 1.24-1.28 1.712-1.766l5.61-5.796c.854-.882.854-.884-.032-1.737l-.61-.584c-.847-.816-.886-.856-1.743.034L9.5 7.948s-.578.594-.75.775c-.176.18-.264.574-.264.574z" fill="url(#b)"/></g></g></svg>