<svg xmlns="http://www.w3.org/2000/svg" width="20" height="20" viewBox="0 0 20 20"><g><path fill="none" d="M0 0h20v20H0z"/><g><path d="M8.22 10.333s.03-.31-.32-.65c-.355-.336-3.07-2.945-3.07-2.945-1.027-.983-1.053-.957-2.015.04l-.798.82c-.975 1.01-.81 1.183.035 2.004l2.048 1.96c.56.54 1.485 1.424 2.05 1.963l1.023.98c1.02.984 1.02.98 2.01-.035l.984-1.02c.545-.558 1.43-1.474 1.975-2.035l6.473-6.68c.985-1.016.985-1.017-.036-2l-.706-.672c-.977-.942-1.02-.988-2.01.038L9.39 8.778s-.667.686-.864.895c-.204.21-.305.66-.305.66z" fill="none" stroke="#fff" stroke-width=".75" stroke-linecap="round" stroke-linejoin="round" stroke-miterlimit="10"/><linearGradient id="a" gradientUnits="userSpaceOnUse" x1="30.199" y1="1125.563" x2="16.084" y2="1113.72" gradientTransform="matrix(.695 -.719 .721 .693 -812.185 -751.218)"><stop offset="0" stop-color="#66A2D7"/><stop offset="1" stop-color="#517FA5"/></linearGradient><path d="M8.22 10.333s.03-.31-.32-.65c-.355-.336-3.07-2.945-3.07-2.945-1.027-.983-1.053-.957-2.015.04l-.798.82c-.975 1.01-.81 1.183.035 2.004l2.048 1.96c.56.54 1.485 1.424 2.05 1.963l1.023.98c1.02.984 1.02.98 2.01-.035l.984-1.02c.545-.558 1.43-1.474 1.975-2.035l6.473-6.68c.985-1.016.985-1.017-.036-2l-.706-.672c-.977-.942-1.02-.988-2.01.038L9.39 8.778s-.667.686-.864.895c-.204.21-.305.66-.305.66z" opacity=".6" fill="none" stroke="url(#a)" stroke-width=".022" stroke-linecap="round" stroke-linejoin="round" stroke-miterlimit="10"/><path d="M8.22 10.333s.03-.31-.32-.65c-.355-.336-3.07-2.945-3.07-2.945-1.027-.983-1.053-.957-2.015.04l-.798.82c-.975 1.01-.81 1.183.035 2.004l2.048 1.96c.56.54 1.485 1.424 2.05 1.963l1.023.98c1.02.984 1.02.98 2.01-.035l.984-1.02c.545-.558 1.43-1.474 1.975-2.035l6.473-6.68c.985-1.016.985-1.017-.036-2l-.706-.672c-.977-.942-1.02-.988-2.01.038L9.39 8.778s-.667.686-.864.895c-.204.21-.305.66-.305.66z" fill="#aaa"/></g></g></svg>