<svg xmlns="http://www.w3.org/2000/svg" width="20" height="20" viewBox="0 0 20 20"><g><path fill="none" d="M0 0h20v20H0z"/><g><linearGradient id="a" gradientUnits="userSpaceOnUse" x1="8.499" x2="8.499" y2="17"><stop offset="0" stop-color="#F2F6FB"/><stop offset=".48" stop-color="#F2F6FB"/><stop offset=".5" stop-color="#CDDFEC"/><stop offset=".729" stop-color="#C4D8E8"/><stop offset="1" stop-color="#C1D5E6"/></linearGradient><path d="M0 14c0 1.65 1.35 3 3 3h11c1.65 0 3-1.35 3-3V3c0-1.65-1.35-3-3-3H3C1.35 0 0 1.35 0 3v11z" fill="url(#a)"/><path d="M14 2c.542 0 1 .458 1 1v11c0 .542-.458 1-1 1H3c-.542 0-1-.458-1-1V3c0-.542.458-1 1-1h11m0-2H3C1.35 0 0 1.35 0 3v11c0 1.65 1.35 3 3 3h11c1.65 0 3-1.35 3-3V3c0-1.65-1.35-3-3-3z" fill="#fff" opacity=".8"/><path d="M14 1c1.103 0 2 .897 2 2v11c0 1.103-.897 2-2 2H3c-1.103 0-2-.897-2-2V3c0-1.103.897-2 2-2h11m0-1H3C1.35 0 0 1.35 0 3v11c0 1.65 1.35 3 3 3h11c1.65 0 3-1.35 3-3V3c0-1.65-1.35-3-3-3z" fill="#62798C" opacity=".7"/></g><g><linearGradient id="b" gradientUnits="userSpaceOnUse" x1="11.783" y1="11.257" x2="5.216" y2="5.746"><stop offset="0" stop-color="#66A2D7"/><stop offset="1" stop-color="#517FA5"/></linearGradient><path opacity=".6" fill="none" stroke="url(#b)" stroke-width=".022" stroke-linecap="round" stroke-linejoin="round" stroke-miterlimit="10" d="M3.658 7.62h9.684V9.38H3.658z"/><linearGradient id="c" gradientUnits="userSpaceOnUse" x1="8.209" y1="10.154" x2="8.413" y2="8.996"><stop offset="0" stop-color="#336B9A"/><stop offset="1" stop-color="#448CCA"/></linearGradient><path fill="url(#c)" d="M3.658 7.62h9.684V9.38H3.658z"/></g></g></svg>