<?xml version="1.0" encoding="iso-8859-1"?><svg xmlns="http://www.w3.org/2000/svg" width="20" height="20" viewBox="0 0 20 20"><path fill="none" d="M0 0h20v20H0z"/><linearGradient id="a" gradientUnits="userSpaceOnUse" x1="8.499" x2="8.499" y2="17"><stop offset="0" stop-color="#f5f5f5"/><stop offset=".49" stop-color="#f5f5f5"/><stop offset=".5" stop-color="#e4e4e4"/><stop offset="1" stop-color="#e4e4e4"/></linearGradient><path d="M0 14c0 1.65 1.35 3 3 3h11c1.65 0 3-1.35 3-3V3c0-1.65-1.35-3-3-3H3C1.35 0 0 1.35 0 3v11z" fill="url(#a)"/><path d="M14 2c.542 0 1 .458 1 1v11c0 .542-.458 1-1 1H3c-.542 0-1-.458-1-1V3c0-.542.458-1 1-1h11m0-2H3C1.35 0 0 1.35 0 3v11c0 1.65 1.35 3 3 3h11c1.65 0 3-1.35 3-3V3c0-1.65-1.35-3-3-3z" fill="#fff" opacity=".7"/><path d="M14 1c1.103 0 2 .897 2 2v11c0 1.103-.897 2-2 2H3c-1.103 0-2-.897-2-2V3c0-1.103.897-2 2-2h11m0-1H3C1.35 0 0 1.35 0 3v11c0 1.65 1.35 3 3 3h11c1.65 0 3-1.35 3-3V3c0-1.65-1.35-3-3-3z" fill="#45494d" opacity=".7"/><g><path d="M8.486 9.297s.024-.269-.279-.565C7.9 8.441 5.546 6.178 5.546 6.178c-.89-.854-.912-.83-1.747.034l-.691.712c-.845.877-.702 1.027.031 1.739l1.775 1.703 1.776 1.702.888.852c.884.854.884.852 1.742-.031l.854-.885c.473-.484 1.239-1.279 1.711-1.766l5.611-5.796c.854-.883.854-.883-.032-1.736l-.61-.585c-.847-.817-.886-.857-1.743.034L9.5 7.947s-.578.596-.75.777c-.176.181-.264.573-.264.573z" opacity=".8" fill="none" stroke="#fff" stroke-width="2" stroke-linecap="round" stroke-linejoin="round" stroke-miterlimit="10"/><linearGradient id="b" gradientUnits="userSpaceOnUse" x1="24.057" y1="1122.682" x2="24.586" y2="1119.679" gradientTransform="rotate(-45.997 -1291.042 581.162) skewX(.101)"><stop offset="0" stop-color="#336b9a"/><stop offset="1" stop-color="#448cca"/></linearGradient><path d="M8.486 9.297s.024-.269-.279-.565C7.9 8.441 5.546 6.178 5.546 6.178c-.89-.854-.912-.83-1.747.034l-.691.712c-.845.877-.702 1.027.031 1.739l1.775 1.703 1.776 1.702.888.852c.884.854.884.852 1.742-.031l.854-.885c.473-.484 1.239-1.279 1.711-1.766l5.611-5.796c.854-.883.854-.883-.032-1.736l-.61-.585c-.847-.817-.886-.857-1.743.034L9.5 7.947s-.578.596-.75.777c-.176.181-.264.573-.264.573z" fill="url(#b)"/></g></svg>