<?xml version="1.0" encoding="iso-8859-1"?><svg xmlns="http://www.w3.org/2000/svg" width="20" height="20" viewBox="0 0 20 20"><path fill="none" d="M0 0h20v20H0z"/><path d="M8.221 10.333s.028-.311-.321-.651c-.355-.335-3.07-2.944-3.07-2.944-1.027-.983-1.053-.957-2.015.04l-.798.821c-.975 1.009-.811 1.182.035 2.003l2.048 1.96c.561.541 1.485 1.424 2.049 1.963l1.024.981c1.021.983 1.021.979 2.009-.036l.985-1.02c.545-.558 1.429-1.474 1.975-2.035l6.473-6.679c.985-1.017.985-1.018-.036-2l-.705-.673c-.977-.942-1.021-.988-2.011.038L9.39 8.777s-.667.686-.864.895c-.204.209-.305.661-.305.661z" fill="none" stroke="#fff" stroke-width=".75" stroke-linecap="round" stroke-linejoin="round" stroke-miterlimit="10"/><linearGradient id="a" gradientUnits="userSpaceOnUse" x1="30.199" y1="1125.563" x2="16.084" y2="1113.72" gradientTransform="rotate(-45.997 -1291.042 581.162) skewX(.101)"><stop offset="0" stop-color="#66a2d7"/><stop offset="1" stop-color="#517fa5"/></linearGradient><path d="M8.221 10.333s.028-.311-.321-.651c-.355-.335-3.07-2.944-3.07-2.944-1.027-.983-1.053-.957-2.015.04l-.798.821c-.975 1.009-.811 1.182.035 2.003l2.048 1.96c.561.541 1.485 1.424 2.049 1.963l1.024.981c1.021.983 1.021.979 2.009-.036l.985-1.02c.545-.558 1.429-1.474 1.975-2.035l6.473-6.679c.985-1.017.985-1.018-.036-2l-.705-.673c-.977-.942-1.021-.988-2.011.038L9.39 8.777s-.667.686-.864.895c-.204.209-.305.661-.305.661z" opacity=".6" fill="none" stroke="url(#a)" stroke-width=".022" stroke-linecap="round" stroke-linejoin="round" stroke-miterlimit="10"/><path d="M8.221 10.333s.028-.311-.321-.651c-.355-.335-3.07-2.944-3.07-2.944-1.027-.983-1.053-.957-2.015.04l-.798.821c-.975 1.009-.811 1.182.035 2.003l2.048 1.96c.561.541 1.485 1.424 2.049 1.963l1.024.981c1.021.983 1.021.979 2.009-.036l.985-1.02c.545-.558 1.429-1.474 1.975-2.035l6.473-6.679c.985-1.017.985-1.018-.036-2l-.705-.673c-.977-.942-1.021-.988-2.011.038L9.39 8.777s-.667.686-.864.895c-.204.209-.305.661-.305.661z" fill="#fff"/></svg>