<?xml version="1.0" encoding="iso-8859-1"?><svg xmlns="http://www.w3.org/2000/svg" viewBox="0 0 20 20"><path fill="none" d="M0 0h20v20H0z"/><path d="M10 0C4.5 0 0 4.5 0 10s4.5 10 10 10 10-4.5 10-10S15.5 0 10 0zm0 17.5c-4.125 0-7.5-3.375-7.5-7.5S5.875 2.5 10 2.5s7.5 3.375 7.5 7.5-3.375 7.5-7.5 7.5zm1.417-7.417a.627.627 0 0 1-.167-.458v-4A.641.641 0 0 0 10.625 5h-1.25a.641.641 0 0 0-.625.625v5.042c0 .167.083.333.167.458L12 14.208c.25.25.625.25.875 0l.875-.875a.604.604 0 0 0 0-.875l-2.333-2.375z" fill="#4e8abe"/></svg>