<svg xmlns="http://www.w3.org/2000/svg" width="20" height="20" viewBox="0 0 20 20"><g><path fill="none" d="M0 0h20v20H0z"/><path fill="#4E8ABE" d="M19.98 5.922L15.95 9.95c-.027.025-.027.072 0 .103l4.028 4.027c.026.028.026.073 0 .103l-5.797 5.8c-.027.025-.072.025-.103 0L10.05 15.95c-.025-.026-.073-.026-.104 0L5.92 19.98c-.024.027-.072.027-.1 0L.02 14.183c-.03-.027-.03-.072 0-.103L4.05 10.05c.026-.028.026-.075 0-.104L.02 5.922c-.03-.026-.03-.073 0-.103L5.82.02c.026-.03.074-.03.1 0L9.947 4.05c.03.027.077.027.104 0L14.08.023c.03-.03.074-.03.104 0L19.98 5.82c.025.03.025.076 0 .102z"/></g></svg>