<svg xmlns="http://www.w3.org/2000/svg" width="20" height="20" viewBox="0 0 20 20"><g><path fill="none" d="M0 0h20v20H0z"/><path fill="#4E8ABE" d="M19.98 5.92l-4.03 4.03c-.027.026-.027.073 0 .103l4.028 4.027c.026.03.026.074 0 .103l-5.797 5.8c-.027.025-.072.025-.103 0l-4.027-4.03c-.025-.028-.073-.028-.104 0l-4.027 4.03c-.025.025-.073.025-.102 0l-5.797-5.8c-.03-.027-.03-.072 0-.103l4.028-4.027c.027-.028.027-.075 0-.104L.022 5.92c-.03-.025-.03-.072 0-.1L5.82.02c.026-.03.074-.03.1 0L9.947 4.05c.03.027.077.027.104 0L14.08.023c.03-.03.074-.03.104 0L19.98 5.82c.025.028.025.075 0 .1z"/></g></svg>