<?xml version="1.0" encoding="iso-8859-1"?><svg xmlns="http://www.w3.org/2000/svg" width="20" height="20" viewBox="0 0 20 20"><g><path fill="none" d="M0 0h20v20H0z"/><path d="M7.587 8.9S6.514 7.89 5.06 8.714c-1.305.79-1.074 2.235-1.074 2.235s-2.892.55-2.892 3.44c.062 2.892 3.14 2.92 3.14 2.92h4.622v-2.92H7.374l2.58-2.926 2.58 2.927h-1.47v2.92h4.478s2.863 0 3.263-2.75c.195-3.007-2.767-3.6-2.767-3.6s.337-4.454-3.822-4.96c-3.547-.345-4.63 2.9-4.63 2.9z" fill="#fff" opacity=".15"/><linearGradient id="a" gradientUnits="userSpaceOnUse" x1="-843.019" y1="576.914" x2="-843.019" y2="577.11" gradientTransform="matrix(57.6 0 0 -57.6 48567.844 33246.156)"><stop offset="0" stop-color="#C2C2C2"/><stop offset="1" stop-color="#C7C7C7"/></linearGradient><path d="M7.587 7.518S6.514 6.508 5.06 7.33c-1.305.8-1.075 2.236-1.075 2.236s-2.892.56-2.892 3.45c.062 2.892 3.14 2.917 3.14 2.917h4.622v-2.918h-1.48l2.588-2.935 2.582 2.927h-1.473v2.918h4.48s2.864 0 3.263-2.75c.195-3.006-2.768-3.6-2.768-3.6s.337-4.454-3.82-4.96c-3.558-.344-4.64 2.903-4.64 2.903z" fill="url(#a)"/></g></svg>