<?xml version="1.0" encoding="iso-8859-1"?>
<!-- Generator: Adobe Illustrator 16.0.0, SVG Export Plug-In . SVG Version: 6.00 Build 0)  -->
<!DOCTYPE svg PUBLIC "-//W3C//DTD SVG 1.1//EN" "http://www.w3.org/Graphics/SVG/1.1/DTD/svg11.dtd">
<svg version="1.1" xmlns="http://www.w3.org/2000/svg" xmlns:xlink="http://www.w3.org/1999/xlink" x="0px" y="0px" width="20px"
	 height="20px" viewBox="0 0 20 20" style="enable-background:new 0 0 20 20;" xml:space="preserve">
<g id="content-cloud-upload">
	<g>
		<rect id="le_wrappier_156_" style="fill:none;" width="20" height="20"/>
		<g>
			<g style="opacity:0.15;">
				<path style="fill:#FFFFFF;" d="M7.587,8.9c0,0-1.073-1.011-2.528-0.186c-1.304,0.789-1.073,2.235-1.073,2.235
					S1.094,11.5,1.094,14.391c0.062,2.891,3.141,2.918,3.141,2.918h4.621v-2.918H7.374l2.581-2.927l2.58,2.927h-1.472v2.918h4.479
					c0,0,2.863,0,3.263-2.75c0.195-3.006-2.767-3.6-2.767-3.6S16.375,6.506,12.216,6C8.669,5.655,7.587,8.9,7.587,8.9z"/>
			</g>
			<g>
				
					<linearGradient id="SVGID_1_" gradientUnits="userSpaceOnUse" x1="-843.019" y1="576.9141" x2="-843.019" y2="577.1104" gradientTransform="matrix(57.6 0 0 -57.6 48567.8438 33246.1562)">
					<stop  offset="0" style="stop-color:#C2C2C2"/>
					<stop  offset="1" style="stop-color:#C7C7C7"/>
				</linearGradient>
				<path style="fill:url(#SVGID_1_);" d="M7.587,7.518c0,0-1.073-1.011-2.528-0.187C3.755,8.129,3.985,9.566,3.985,9.566
					s-2.892,0.559-2.892,3.449c0.062,2.893,3.141,2.918,3.141,2.918h4.621v-2.918H7.374l2.589-2.935l2.582,2.927h-1.473v2.918h4.479
					c0,0,2.865,0,3.264-2.75c0.195-3.006-2.768-3.601-2.768-3.601s0.337-4.453-3.821-4.958C8.669,4.271,7.587,7.518,7.587,7.518z"/>
			</g>
		</g>
	</g>
</g>
<g id="Layer_1">
</g>
</svg>
