<?xml version="1.0" encoding="utf-8"?>
<!-- Generator: Adobe Illustrator 16.0.0, SVG Export Plug-In . SVG Version: 6.00 Build 0)  -->
<!DOCTYPE svg PUBLIC "-//W3C//DTD SVG 1.1//EN" "http://www.w3.org/Graphics/SVG/1.1/DTD/svg11.dtd">
<svg version="1.1" id="Layer_1" xmlns="http://www.w3.org/2000/svg" xmlns:xlink="http://www.w3.org/1999/xlink" x="0px" y="0px"
	 width="20px" height="20px" viewBox="0 0 20 20" enable-background="new 0 0 20 20" xml:space="preserve">
<g>
	<rect id="le_wrappier_157_" fill="none" width="20" height="20"/>
	<g>
		<path fill="#4C89BE" d="M7.259,1.333C5.787,1.333,4.593,2.528,4.593,4h1.925L3.926,6.595L1.333,4h1.926c0-2.205,1.794-4,4-4"/>
		<path fill="#4C89BE" d="M12.739,18.668c1.473,0,2.667-1.196,2.667-2.667h-1.921l2.588-2.591l2.594,2.591h-1.928
			c0,2.205-1.794,3.999-4,3.999"/>
		<polyline fill="#4C89BE" points="20,4 20,12 9.333,12 9.333,0 16,0 		"/>
		<polygon fill="#A1C7E4" points="16,4 20,4 16,0 		"/>
		<g>
			<polygon fill="#A1C7E4" points="8,13.334 8,8 0,8 0,20 10.666,20 10.666,13.334 			"/>
		</g>
	</g>
</g>
</svg>
