<?xml version="1.0" encoding="utf-8"?>
<!-- Generator: Adobe Illustrator 16.0.0, SVG Export Plug-In . SVG Version: 6.00 Build 0)  -->
<!DOCTYPE svg PUBLIC "-//W3C//DTD SVG 1.1//EN" "http://www.w3.org/Graphics/SVG/1.1/DTD/svg11.dtd">
<svg version="1.1" id="Layer_1" xmlns="http://www.w3.org/2000/svg" xmlns:xlink="http://www.w3.org/1999/xlink" x="0px" y="0px"
	 width="15px" height="15px" viewBox="0 0 15 15" enable-background="new 0 0 15 15" xml:space="preserve">
<g id="content-replace-hover">
	<g>
		<path fill="#4C89BE" d="M5.444,1c-1.104,0-2,0.896-2,2h1.444L2.944,4.945L1,3h1.444c0-1.654,1.346-3,3-3"/>
		<path fill="#4C89BE" d="M9.555,14c1.104,0,2-0.896,2-2h-1.441l1.941-1.943L14,12h-1.445c0,1.654-1.346,3-3,3"/>
		<polyline fill="#4C89BE" points="15,3 15,9 7,9 7,0 12,0 		"/>
		<polygon fill="#A1C7E4" points="12,3 15,3 12,0 		"/>
		<g>
			<polygon fill="#A1C7E4" points="6,10 6,6 0,6 0,15 8,15 8,10 			"/>
		</g>
	</g>
</g>
<g id="Layer_1_1_">
</g>
</svg>
