<svg xmlns="http://www.w3.org/2000/svg" width="20" height="20" viewBox="0 0 20 20"><g><path fill="none" d="M0 0h20v20H0z"/><path d="M9.055 18.21V5.376h6.867v3.31c0 .138.112.25.25.25h3.318v9.276H9.055z" fill="#A0C7E7"/><path d="M15.672 5.625v3.06c0 .276.224.5.5.5h3.068v8.776H9.305V5.626h6.367m.5-.5H8.805V18.46H19.74V8.686h-3.568v-3.56z" fill="#6A8799"/><path fill="#DAE8F2" d="M16.172 5.125l3.568 3.56h-3.568z"/><path fill="none" stroke="#6A8799" stroke-width=".5" stroke-linecap="round" stroke-linejoin="round" stroke-miterlimit="10" d="M16.172 5.375l3.328 3.31"/><path d="M.805 13.21V.376h6.867v3.31c0 .138.112.25.25.25h3.318v9.276H.805z" fill="#448CCA"/><path d="M7.422.625v3.06c0 .276.224.5.5.5h3.068v8.776H1.055V.626h6.367m.5-.5H.555V13.46H11.49V3.686H7.922V.125z" fill="#6A8799"/><path fill="#A1C8E6" d="M7.922.125l3.568 3.56H7.922z"/><path fill="none" stroke="#6A8799" stroke-width=".5" stroke-linecap="round" stroke-linejoin="round" stroke-miterlimit="10" d="M7.922.375l3.328 3.31"/><path d="M15.38 11.98h-4.323V7.63c0-.127-.102-.23-.23-.23h-1.82c-.126 0-.226.103-.226.23v4.352H4.456c-.123 0-.227.102-.227.228v1.836c0 .124.104.23.227.23H8.78v4.35c0 .125.1.226.228.226h1.82c.127 0 .23-.1.23-.225v-4.352h4.323c.128 0 .228-.104.228-.23V12.21c0-.127-.1-.23-.227-.23z" fill="#6A8799" stroke="#6A8799" stroke-width="2" stroke-miterlimit="10"/><g><path d="M10.828 6.846c.127 0 .23.104.23.23v4.353h4.323c.128 0 .228.1.228.228v1.833c0 .126-.1.23-.227.23h-4.323v4.352c0 .124-.102.228-.23.228h-1.82c-.126 0-.226-.104-.226-.228V13.72H4.456c-.123 0-.227-.104-.227-.23V11.66c0-.127.104-.23.227-.23H8.78V7.075c0-.125.1-.23.228-.23h1.82m0-.998h-1.82c-.676 0-1.227.55-1.227 1.23v3.353H4.456c-.676 0-1.227.55-1.227 1.228v1.833c0 .68.55 1.23 1.227 1.23H7.78v3.352c0 .677.55 1.228 1.228 1.228h1.82c.678 0 1.23-.55 1.23-1.228V14.72h3.323c.678 0 1.228-.55 1.228-1.23V11.66c0-.677-.55-1.23-1.227-1.23h-3.323V7.075c0-.677-.55-1.228-1.23-1.228z" fill="#6A8799"/><path d="M9.008 18.548c-.263 0-.477-.214-.477-.478v-4.102H4.456c-.263 0-.477-.215-.477-.48v-1.832c0-.264.214-.48.477-.48H8.53V7.075c0-.264.215-.48.478-.48h1.82c.264 0 .48.216.48.48v4.104h4.073c.264 0 .478.215.478.48v1.832c0 .264-.214.48-.477.48h-4.073v4.1c0 .265-.215.48-.48.48h-1.82zM10.828 6.846c.127 0 .23.104.23.23v4.353h4.323c.128 0 .228.1.228.228v1.833c0 .126-.1.23-.227.23h-4.323v4.352c0 .124-.102.228-.23.228h-1.82c-.126 0-.226-.104-.226-.228V13.72H4.456c-.123 0-.227-.104-.227-.23V11.66c0-.127.104-.23.227-.23H8.78V7.075c0-.125.1-.23.228-.23h1.82m0-.498h-1.82c-.4 0-.727.327-.727.73v3.853H4.456c-.4 0-.727.326-.727.728v1.833c0 .402.326.73.727.73H8.28v3.852c0 .4.327.728.728.728h1.82c.4 0 .73-.326.73-.728V14.22h3.823c.4 0 .728-.327.728-.73V11.66c0-.4-.326-.73-.727-.73h-3.823V7.075c0-.402-.328-.728-.73-.728z" fill="#fff"/></g></g></svg>