<?xml version="1.0" encoding="iso-8859-1"?><svg xmlns="http://www.w3.org/2000/svg" width="20" height="20" viewBox="0 0 20 20"><path fill="none" d="M0 0h20v20H0z"/><path d="M9.055 18.211V5.375h6.867v3.31c0 .138.112.25.25.25h3.318v9.276H9.055z" fill="#ccc"/><path d="M15.672 5.625v3.06a.5.5 0 0 0 .5.5h3.068v8.776H9.305V5.625h6.367m.5-.5H8.805v13.336H19.74V8.685h-3.568v-3.56z" fill="#45494d"/><path fill="#f2f2f2" d="M16.172 5.125l3.568 3.56h-3.568z"/><path fill="none" stroke="#4d4d4d" stroke-width=".5" stroke-linecap="round" stroke-linejoin="round" stroke-miterlimit="10" d="M16.172 5.375l3.328 3.31"/><g><linearGradient id="a" gradientUnits="userSpaceOnUse" x1="6.022" y1=".375" x2="6.022" y2="13.211"><stop offset="0" stop-color="#999"/><stop offset="1" stop-color="#8c8c8c"/></linearGradient><path d="M.805 13.211V.375h6.867v3.31c0 .138.112.25.25.25h3.318v9.276H.805z" fill="url(#a)"/><path d="M7.422.625v3.06a.5.5 0 0 0 .5.5h3.068v8.776H1.055V.625h6.367m.5-.5H.555v13.336H11.49V3.685H7.922V.125z" fill="#45494d"/><g><linearGradient id="b" gradientUnits="userSpaceOnUse" x1="9.706" y1=".125" x2="9.706" y2="3.685"><stop offset="0" stop-color="#d2d2d2"/><stop offset="1" stop-color="#ccc"/></linearGradient><path fill="url(#b)" d="M7.922.125l3.568 3.56H7.922z"/></g><path fill="none" stroke="#4d4d4d" stroke-width=".5" stroke-linecap="round" stroke-linejoin="round" stroke-miterlimit="10" d="M7.922.375l3.328 3.31"/></g><g><path d="M15.381 11.981h-4.324V7.629a.229.229 0 0 0-.229-.229h-1.82a.227.227 0 0 0-.227.229v4.353H4.455a.229.229 0 0 0-.227.228v1.836c0 .124.104.229.227.229h4.326v4.352c0 .124.1.225.227.225h1.82a.227.227 0 0 0 .229-.225v-4.352h4.324a.228.228 0 0 0 .227-.229V12.21a.227.227 0 0 0-.227-.229z" opacity=".7" fill="#45494d" stroke="#45494d" stroke-width="2" stroke-miterlimit="10"/><path d="M10.828 6.846a.23.23 0 0 1 .229.229v4.354h4.324c.127 0 .227.102.227.229v1.833c0 .125-.1.229-.227.229h-4.324v4.352a.23.23 0 0 1-.229.228h-1.82a.228.228 0 0 1-.227-.228V13.72H4.455a.23.23 0 0 1-.227-.229v-1.833a.23.23 0 0 1 .227-.229h4.326V7.074c0-.125.1-.229.227-.229h1.82m0-.999h-1.82a1.23 1.23 0 0 0-1.227 1.229v3.354H4.455a1.23 1.23 0 0 0-1.227 1.229v1.833c0 .678.55 1.229 1.227 1.229h3.326v3.352c0 .677.55 1.228 1.227 1.228h1.82a1.23 1.23 0 0 0 1.229-1.228V14.72h3.324c.677 0 1.227-.551 1.227-1.229v-1.833a1.23 1.23 0 0 0-1.227-1.229h-3.324V7.074a1.23 1.23 0 0 0-1.229-1.228z" fill="#45494d"/><path d="M9.008 18.548a.478.478 0 0 1-.477-.478v-4.102H4.455a.479.479 0 0 1-.477-.479v-1.833c0-.264.214-.479.477-.479h4.076V7.074c0-.264.214-.479.477-.479h1.82a.48.48 0 0 1 .479.479v4.104h4.074c.263 0 .477.215.477.479v1.833a.479.479 0 0 1-.477.479h-4.074v4.102a.479.479 0 0 1-.479.478h-1.82z" fill="#fff"/><path d="M10.828 6.846a.23.23 0 0 1 .229.229v4.354h4.324c.127 0 .227.102.227.229v1.833c0 .125-.1.229-.227.229h-4.324v4.352a.23.23 0 0 1-.229.228h-1.82a.228.228 0 0 1-.227-.228V13.72H4.455a.23.23 0 0 1-.227-.229v-1.833a.23.23 0 0 1 .227-.229h4.326V7.074c0-.125.1-.229.227-.229h1.82m0-.499h-1.82a.73.73 0 0 0-.727.729v3.854H4.455a.73.73 0 0 0-.727.729v1.833a.73.73 0 0 0 .727.729h3.826v3.852c0 .401.326.728.727.728h1.82a.73.73 0 0 0 .729-.728V14.22h3.824a.73.73 0 0 0 .727-.729v-1.833a.73.73 0 0 0-.727-.729h-3.824V7.074a.73.73 0 0 0-.729-.728z" fill="#fff"/></g></svg>