<?xml version="1.0" encoding="iso-8859-1"?><svg xmlns="http://www.w3.org/2000/svg" width="20" height="20" viewBox="0 0 20 20"><path fill="none" d="M0 0h20v20H0z"/><linearGradient id="a" gradientUnits="userSpaceOnUse" x1="9.999" x2="9.999" y2="20"><stop offset="0" stop-color="#f5888d"/><stop offset=".7" stop-color="#ee4249"/></linearGradient><path d="M20 17c0 1.65-1.35 3-3 3H3c-1.65 0-3-1.35-3-3V3c0-1.65 1.35-3 3-3h14c1.65 0 3 1.35 3 3v14z" fill="url(#a)"/><g><path d="M8.277 7.354c-.093-.418-.189-.842-.285-1.266a5.811 5.811 0 0 1-.142-1.294c0-.82.191-1.407.584-1.761.388-.357.91-.533 1.566-.533.67 0 1.197.184 1.578.554.383.368.572.906.572 1.616 0 .207-.023.461-.07.76-.047.303-.104.605-.176.924-.066.314-.133.615-.205.902a20 20 0 0 0-.16.736l-1.047 4.322H9.428l-1.151-4.96zm3.69 8.906a1.978 1.978 0 0 1-1.147 1.096 2.32 2.32 0 0 1-.82.144 2.28 2.28 0 0 1-.818-.145 1.937 1.937 0 0 1-.688-.428 2.05 2.05 0 0 1-.627-1.496 2.09 2.09 0 0 1 .627-1.496c.199-.191.426-.346.688-.463a2.002 2.002 0 0 1 1.638 0c.26.117.486.271.688.463.193.191.35.416.459.676.111.26.166.531.166.82 0 .299-.055.577-.166.829z" fill="#fff"/></g></svg>