<svg xmlns="http://www.w3.org/2000/svg" width="20" height="20" viewBox="0 0 20 20"><g><path fill="none" d="M0 0h20v20H0z"/><linearGradient id="a" gradientUnits="userSpaceOnUse" x1="9.999" x2="9.999" y2="20"><stop offset="0" stop-color="#F5888D"/><stop offset=".7" stop-color="#EE4249"/></linearGradient><path d="M20 17c0 1.65-1.35 3-3 3H3c-1.65 0-3-1.35-3-3V3c0-1.65 1.35-3 3-3h14c1.65 0 3 1.35 3 3v14z" fill="url(#a)"/><path d="M8.277 7.354c-.093-.418-.19-.842-.285-1.266-.097-.426-.142-.858-.142-1.294 0-.82.19-1.407.584-1.76.388-.358.91-.534 1.566-.534.67 0 1.197.184 1.578.554.383.368.572.906.572 1.616 0 .207-.023.46-.07.76-.047.303-.104.605-.176.924-.066.314-.133.615-.205.902-.067.285-.122.53-.16.736l-1.048 4.322H9.428l-1.15-4.96zm3.69 8.906c-.11.254-.266.477-.46.668-.2.19-.427.334-.687.428-.26.097-.533.144-.82.144-.29 0-.56-.047-.818-.145-.262-.094-.488-.238-.688-.428-.197-.19-.352-.414-.46-.668-.11-.253-.167-.53-.167-.83 0-.288.057-.56.166-.82s.264-.483.46-.675c.2-.19.427-.346.69-.463.26-.115.528-.174.817-.174.287 0 .56.06.82.174.26.117.486.27.688.463.193.19.35.416.46.676.11.26.165.532.165.82 0 .3-.055.578-.166.83z" fill="#fff"/></g></svg>