<?xml version="1.0" encoding="iso-8859-1"?><svg xmlns="http://www.w3.org/2000/svg" width="20" height="20" viewBox="0 0 20 20"><linearGradient id="a" gradientUnits="userSpaceOnUse" x1="9.999" x2="9.999" y2="20"><stop offset="0" stop-color="#fff"/><stop offset=".25" stop-color="#fbfcfd"/><stop offset=".509" stop-color="#eef4f8"/><stop offset=".771" stop-color="#dae7f0"/><stop offset=".8" stop-color="#d7e5ef"/></linearGradient><path d="M0 17c0 1.65 1.35 3 3 3h14c1.65 0 3-1.35 3-3V3c0-1.65-1.35-3-3-3H3C1.35 0 0 1.35 0 3v14z" fill="url(#a)"/><path d="M17 2c.542 0 1 .458 1 1v14c0 .542-.458 1-1 1H3c-.542 0-1-.458-1-1V3c0-.542.458-1 1-1h14m0-2H3C1.35 0 0 1.35 0 3v14c0 1.65 1.35 3 3 3h14c1.65 0 3-1.35 3-3V3c0-1.65-1.35-3-3-3z" fill="#fff" opacity=".7"/><path d="M17 1c1.103 0 2 .897 2 2v14c0 1.103-.897 2-2 2H3c-1.103 0-2-.897-2-2V3c0-1.103.897-2 2-2h14m0-1H3C1.35 0 0 1.35 0 3v14c0 1.65 1.35 3 3 3h14c1.65 0 3-1.35 3-3V3c0-1.65-1.35-3-3-3z" fill="#45494d" opacity=".7"/><linearGradient id="b" gradientUnits="userSpaceOnUse" x1="24.087" y1="-4.089" x2="35.224" y2="-15.227" gradientTransform="matrix(.7372 .2628 .2628 .7372 -4.807 4.807)"><stop offset="0" stop-color="#aaa"/><stop offset=".91" stop-color="#aaa" stop-opacity=".09"/><stop offset="1" stop-color="#aaa" stop-opacity="0"/></linearGradient><path fill="url(#b)" d="M17.867 3.547l-5.283 5.284-1.414-1.414 5.283-5.284z"/><linearGradient id="c" gradientUnits="userSpaceOnUse" x1="16.939" y1="3.06" x2="28.074" y2="-8.076" gradientTransform="matrix(.7643 .2357 .2357 .7643 -11.03 11.03)"><stop offset="0" stop-color="#aaa" stop-opacity="0"/><stop offset=".09" stop-color="#aaa" stop-opacity=".09"/><stop offset="1" stop-color="#aaa"/></linearGradient><path fill="url(#c)" d="M9.232 12.183l-5.886 5.885-1.414-1.414 5.886-5.885z"/><path d="M7.287 10.375h-3.93c-.275 0-.5.225-.5.5v.828c0 .275.225.5.5.5h3.938c.273 0 .5.226.5.5v3.957c0 .275.225.5.5.5h.812c.275 0 .5-.225.5-.5v-2.949V10.875c0-.275-.225-.5-.5-.5h-1.82zM12.723 9.616h3.93c.273 0 .5-.225.5-.5v-.828c0-.275-.227-.5-.5-.5h-3.938a.502.502 0 0 1-.5-.5V3.331c0-.275-.225-.5-.5-.5h-.812c-.275 0-.5.225-.5.5v5.785c0 .275.225.5.5.5h1.82z" fill="#aaa"/></svg>