<svg xmlns="http://www.w3.org/2000/svg" width="20" height="20" viewBox="0 0 20 20"><g><path fill="none" d="M0 0h20v20H0z"/><path fill="#4E8ABE" d="M10.002.062C4.512.062.062 4.51.062 10s4.45 9.938 9.94 9.938c5.488 0 9.938-4.448 9.938-9.938S15.49.062 10.002.062zm6.01 7.48L13.584 9.97c-.016.017-.016.046 0 .06l2.428 2.427c.016.018.016.045 0 .062l-3.494 3.49c-.015.017-.04.017-.06 0l-2.426-2.428c-.018-.02-.045-.02-.062 0L7.545 16.01c-.018.017-.045.017-.062 0l-3.49-3.49c-.02-.02-.02-.045 0-.062l2.425-2.426c.016-.016.016-.045 0-.062L3.992 7.543c-.018-.016-.018-.043 0-.06l3.49-3.49c.018-.02.045-.02.063 0L9.97 6.417c.018.016.045.016.062 0l2.426-2.426c.018-.02.045-.02.06 0l3.494 3.49c.015.018.015.045 0 .06z"/></g></svg>