<?xml version="1.0" encoding="utf-8"?><svg xmlns="http://www.w3.org/2000/svg" width="20" height="20" viewBox="0 0 20 20"><path fill="none" d="M0 0h20v20H0z"/><path fill="#4E8ABE" d="M10.002.062C4.513.062.063 4.51.063 10s4.45 9.938 9.939 9.938c5.488 0 9.938-4.448 9.938-9.938S15.49.062 10.002.062zm6.01 7.481l-2.428 2.426c-.016.018-.016.047 0 .062l2.428 2.426a.046.046 0 0 1 0 .062l-3.494 3.491c-.015.017-.041.017-.06 0l-2.426-2.428c-.018-.019-.045-.019-.062 0L7.545 16.01a.044.044 0 0 1-.062 0l-3.491-3.49c-.018-.019-.018-.045 0-.062l2.426-2.426a.046.046 0 0 0 0-.062L3.992 7.543c-.018-.016-.018-.043 0-.061l3.491-3.49c.017-.02.044-.02.062 0L9.97 6.418a.046.046 0 0 0 .062 0l2.426-2.426c.018-.02.045-.02.06 0l3.494 3.49c.015.018.015.045 0 .061z"/></svg>