<?xml version="1.0" encoding="iso-8859-1"?><svg xmlns="http://www.w3.org/2000/svg" viewBox="0 0 20 20" enable-background="new 0 0 20 20"><g><path fill="none" d="M0 0h20v20H0z"/><path d="M19.53 1.29H.47c-.158 0-.47.157-.47.47v14.062c0 .156.156.47.47.47h7.81v1.093L6.563 18.48c-.156.155-.156.155 0 .155h6.875c.156 0 .312-.156 0-.156l-1.72-1.095V16.29h7.813c.156 0 .47-.155.47-.468V1.76c0-.313-.312-.47-.47-.47zm-1.25 10.782c0 .156-.155.47-.468.47H2.188c-.156 0-.47-.157-.47-.47v-8.75c0-.156.157-.47.47-.47h15.625c.156 0 .47.157.47.47v8.75z" fill="#fff"/></g></svg>