<?xml version="1.0" encoding="iso-8859-1"?><svg xmlns="http://www.w3.org/2000/svg" viewBox="0 0 20 20"><path fill="none" d="M0 0h20v20H0z"/><path d="M19.531 1.291H.469c-.157 0-.469.156-.469.469v14.062c0 .156.156.469.469.469h7.812v1.094l-1.719 1.094c-.156.156-.156.156 0 .156h6.875c.156 0 .312-.156 0-.156l-1.719-1.094v-1.094h7.812c.156 0 .469-.156.469-.469V1.76c.001-.313-.311-.469-.468-.469zm-1.25 10.781c0 .156-.156.469-.469.469H2.188c-.156 0-.469-.156-.469-.469v-8.75c0-.156.156-.469.469-.469h15.625c.156 0 .469.156.469.469v8.75z" fill="#666"/></svg>