<svg xmlns="http://www.w3.org/2000/svg" width="20" height="20" viewBox="0 0 20 20"><g><path fill="none" d="M0 0h20v20H0z"/><linearGradient id="a" gradientUnits="userSpaceOnUse" x1="9.999" y1="7.5" x2="9.999" y2="12.501"><stop offset="0" stop-color="#A0C7E7"/><stop offset=".9" stop-color="#448CCA"/></linearGradient><circle cx="10" cy="10" r="2.5" fill="url(#a)"/><path d="M10 8c1.103 0 2 .897 2 2s-.897 2-2 2-2-.896-2-2 .897-2 2-2m0-.5c-1.38 0-2.5 1.12-2.5 2.5s1.12 2.5 2.5 2.5 2.5-1.12 2.5-2.5-1.12-2.5-2.5-2.5z" fill="#fff"/><path d="M10 7.75c1.24 0 2.25 1.01 2.25 2.25s-1.01 2.25-2.25 2.25S7.75 11.24 7.75 10 8.76 7.75 10 7.75m0-.25c-1.38 0-2.5 1.12-2.5 2.5s1.12 2.5 2.5 2.5 2.5-1.12 2.5-2.5-1.12-2.5-2.5-2.5z" fill="#6A8799"/></g></svg>