<?xml version="1.0" encoding="iso-8859-1"?><svg xmlns="http://www.w3.org/2000/svg" width="20" height="20" viewBox="0 0 20 20"><path fill="none" d="M0 0h20v20H0z"/><linearGradient id="a" gradientUnits="userSpaceOnUse" x1="9.999" y1="7.5" x2="9.999" y2="12.501"><stop offset="0" stop-color="#a0c7e7"/><stop offset=".9" stop-color="#448cca"/></linearGradient><circle cx="10" cy="10" r="2.5" fill="url(#a)"/><path d="M10 8c1.103 0 2 .897 2 2s-.897 2-2 2-2-.896-2-2 .897-2 2-2m0-.5a2.5 2.5 0 1 0 .002 5.002A2.5 2.5 0 0 0 10 7.5z" fill="#fff"/><path d="M10 7.75c1.24 0 2.25 1.009 2.25 2.25s-1.01 2.25-2.25 2.25c-1.241 0-2.25-1.009-2.25-2.25S8.759 7.75 10 7.75m0-.25a2.5 2.5 0 1 0 .002 5.002A2.5 2.5 0 0 0 10 7.5z" fill="#6a8799"/></svg>