<?xml version="1.0" encoding="iso-8859-1"?><svg xmlns="http://www.w3.org/2000/svg" width="20" height="20" viewBox="0 0 20 20"><path fill="none" d="M0 0h20v20H0z"/><linearGradient id="a" gradientUnits="userSpaceOnUse" x1="9.999" y1="7.5" x2="9.999" y2="12.501"><stop offset="0" stop-color="#e6e6e6"/><stop offset="1" stop-color="#b3b3b3"/></linearGradient><circle cx="10" cy="10" r="2.5" fill="url(#a)"/><path d="M10 8c1.103 0 2 .897 2 2s-.897 2-2 2-2-.897-2-2 .897-2 2-2m0-.5a2.5 2.5 0 1 0 0 5 2.5 2.5 0 0 0 0-5z" fill="#fff"/><path d="M10 7.75c1.24 0 2.25 1.009 2.25 2.25 0 1.24-1.01 2.25-2.25 2.25A2.253 2.253 0 0 1 7.75 10 2.252 2.252 0 0 1 10 7.75m0-.25a2.5 2.5 0 1 0 0 5 2.5 2.5 0 0 0 0-5z" fill="#45494d"/></svg>