<?xml version="1.0" encoding="iso-8859-1"?><svg xmlns="http://www.w3.org/2000/svg" width="20" height="20" viewBox="0 0 20 20"><path fill="none" d="M0 0h20v20H0z"/><path d="M1.802 19.75V.25h10.884v5.089c0 .138.112.25.25.25h5.263V19.75H1.802z" fill="#448cca"/><path d="M12.436.5v4.839a.5.5 0 0 0 .5.5h5.013V19.5H2.052V.5h10.384m.5-.5H1.552v20h16.896V5.339h-5.513V0h.001z" fill="#6a8799"/><path fill="#a1c8e6" d="M12.936 0l5.512 5.339h-5.512z"/><path fill="none" stroke="#6a8799" stroke-width=".5" stroke-linecap="round" stroke-linejoin="round" stroke-miterlimit="10" d="M12.936.374l5.142 4.965"/><g><path fill="#fff" d="M4.596 12.242h3.37l.015-.265V5.741h4.04v6.486l.265.015h3.119l-5.403 5.411z"/><path d="M11.771 5.991v5.985l.016.516h3.016l-4.8 4.808-4.804-4.808h2.518l.516-.016V5.991h3.538m.484-.5H7.747a.016.016 0 0 0-.016.016v6.47a.016.016 0 0 1-.016.016H4.008c-.009 0-.011.005-.004.011l5.987 5.993c.003.002.007.003.011.003s.008-.001.011-.004l5.984-5.993c.006-.006.004-.011-.005-.011h-3.706a.016.016 0 0 1-.016-.016v-6.47c.001-.008-.006-.015-.015-.015z" fill="#3a668c"/></g></svg>