<?xml version="1.0" encoding="iso-8859-1"?><svg xmlns="http://www.w3.org/2000/svg" width="20" height="20" viewBox="0 0 20 20"><path fill="none" d="M0 0h20v20H0z"/><path fill="#999" d="M17.328 14.656v2.672H2.656v-2.672H0V20h20v-5.344z"/><linearGradient id="a" gradientUnits="userSpaceOnUse" x1="10.001" y1=".5" x2="10.001" y2="15.301"><stop offset="0" stop-color="#ccc"/><stop offset=".9" stop-color="#999"/></linearGradient><path fill="url(#a)" d="M3.49 8.814h4.078l.016-.515V.5h4.834v8.299l.516.015h3.578l-6.511 6.487z"/><path d="M11.918 1v7.299l.016 1.016h3.367l-5.298 5.281L4.7 9.314h2.368l1.016-.016V1h3.834m.984-1H7.1a.016.016 0 0 0-.016.016v8.283a.016.016 0 0 1-.016.016H2.295c-.009 0-.011.005-.004.011l7.7 7.669c.003.003.007.005.011.005s.008-.002.011-.005l7.697-7.669c.006-.006.004-.011-.005-.011h-4.771a.016.016 0 0 1-.016-.016V.016A.016.016 0 0 0 12.902 0z" fill="#999"/></svg>