<?xml version="1.0" encoding="iso-8859-1"?><svg xmlns="http://www.w3.org/2000/svg" width="20" height="20" viewBox="0 0 20 20"><path fill="none" d="M0 0h20v20H0z"/><path fill="#4e8abe" d="M17.328 14.656v2.672H2.657v-2.672H0V20h20v-5.344z"/><linearGradient id="a" gradientUnits="userSpaceOnUse" x1="10.001" y1=".5" x2="10.001" y2="15.301"><stop offset="0" stop-color="#a0c7e7"/><stop offset=".9" stop-color="#448cca"/></linearGradient><path fill="url(#a)" d="M3.49 8.814h4.079l.015-.515V.5h4.834v8.299l.516.015h3.578l-6.51 6.487z"/><path d="M11.918 1v7.299l.016 1.016h3.367l-5.298 5.28-5.302-5.28h2.368l1.016-.016V1h3.833m.984-1H7.1a.016.016 0 0 0-.016.016v8.283a.016.016 0 0 1-.016.016H2.295c-.009 0-.011.005-.004.011l7.7 7.669c.003.003.008.005.011.005s.008-.002.011-.005l7.696-7.669c.006-.006.004-.011-.005-.011h-4.771a.016.016 0 0 1-.016-.016V.016C12.918.007 12.911 0 12.902 0z" fill="#448cca"/></svg>