<svg xmlns="http://www.w3.org/2000/svg" width="20" height="20" viewBox="0 0 20 20"><g><path fill="none" d="M0 0h20v20H0z"/><linearGradient id="a" gradientUnits="userSpaceOnUse" x1="9.999" y1=".25" x2="9.999" y2="19.75"><stop offset="0" stop-color="#999"/><stop offset="1" stop-color="#8C8C8C"/></linearGradient><path d="M1.957 19.75V.25H12.63v5.09c0 .137.112.25.25.25h5.162v14.16H1.957z" fill="url(#a)"/><path d="M12.38.5v4.84c0 .275.224.5.5.5h4.912V19.5H2.207V.5H12.38m.5-.5H1.707v20h16.585V5.34H12.88V0z" fill="#45494D"/><linearGradient id="b" gradientUnits="userSpaceOnUse" x1="15.586" x2="15.586" y2="5.339"><stop offset="0" stop-color="#D2D2D2"/><stop offset="1" stop-color="#ccc"/></linearGradient><path fill="url(#b)" d="M12.88 0l5.412 5.34H12.88z"/><path fill="none" stroke="#4D4D4D" stroke-width=".5" stroke-linecap="round" stroke-linejoin="round" stroke-miterlimit="10" d="M12.88.374l5.05 4.965"/><g><path fill="#fff" d="M4.596 12.242h3.37l.014-.265V5.74h4.04v6.487l.266.015h3.12L10 17.652z"/><path d="M11.77 5.99v5.986l.017.516h3.016l-4.8 4.808L5.2 12.492h2.516l.516-.016V5.99h3.54m.483-.5h-4.51c-.008 0-.015.008-.015.017v6.47c0 .01-.007.016-.016.016H4.008c-.01 0-.01.005-.004.01l5.987 5.994.012.003s.008 0 .01-.004l5.985-5.993c.006-.006.004-.01-.005-.01h-3.706c-.01 0-.016-.008-.016-.017v-6.47c0-.008-.006-.015-.015-.015z" fill="#45494D"/></g></g></svg>