<?xml version="1.0" encoding="iso-8859-1"?><svg xmlns="http://www.w3.org/2000/svg" width="20" height="20" viewBox="0 0 20 20"><path fill="none" d="M0 0h20v20H0z"/><linearGradient id="a" gradientUnits="userSpaceOnUse" x1="9.999" y1=".25" x2="9.999" y2="19.75"><stop offset="0" stop-color="#999"/><stop offset="1" stop-color="#8c8c8c"/></linearGradient><path d="M1.957 19.75V.25H12.63v5.089c0 .138.112.25.25.25h5.162V19.75H1.957z" fill="url(#a)"/><path d="M12.38.5v4.839a.5.5 0 0 0 .5.5h4.912V19.5H2.207V.5H12.38m.5-.5H1.707v20h16.585V5.339H12.88V0z" fill="#45494d"/><g><linearGradient id="b" gradientUnits="userSpaceOnUse" x1="15.586" x2="15.586" y2="5.339"><stop offset="0" stop-color="#d2d2d2"/><stop offset="1" stop-color="#ccc"/></linearGradient><path fill="url(#b)" d="M12.88 0l5.412 5.339H12.88z"/></g><path fill="none" stroke="#4d4d4d" stroke-width=".5" stroke-linecap="round" stroke-linejoin="round" stroke-miterlimit="10" d="M12.88.374l5.05 4.965"/><g><path fill="#fff" d="M4.596 12.242h3.369l.015-.265V5.741h4.041v6.486l.265.015h3.119l-5.403 5.411z"/><path d="M11.771 5.991v5.985l.016.516h3.016l-4.8 4.808-4.804-4.808h2.517l.516-.016V5.991h3.539m.484-.5H7.746a.016.016 0 0 0-.016.016v6.47a.016.016 0 0 1-.016.016H4.008c-.009 0-.011.005-.004.011l5.987 5.993c.003.002.007.003.011.003s.008-.001.011-.004l5.984-5.993c.006-.006.004-.011-.005-.011h-3.706a.016.016 0 0 1-.016-.016v-6.47c.001-.008-.006-.015-.015-.015z" fill="#45494d"/></g></svg>