<svg xmlns="http://www.w3.org/2000/svg" width="20" height="20" viewBox="0 0 20 20"><g><path fill="none" d="M0 0h20v20H0z"/><path fill="#4E8ABE" d="M17.328 14.656v2.672H2.658v-2.672H0V20h20v-5.344z"/><g><linearGradient id="a" gradientUnits="userSpaceOnUse" x1="10.001" y1=".5" x2="10.001" y2="15.301"><stop offset="0" stop-color="#A0C7E7"/><stop offset=".9" stop-color="#448CCA"/></linearGradient><path fill="url(#a)" d="M3.49 8.814h4.08l.014-.515V.5h4.834v8.3l.516.014h3.578l-6.51 6.487z"/><path d="M11.918 1v7.3l.016 1.015H15.3l-5.297 5.28L4.7 9.315h2.37L8.084 9.3V1h3.833m.984-1H7.1c-.01 0-.016.007-.016.016V8.3c0 .008-.007.015-.016.015H2.295c-.01 0-.01.005-.004.01l7.7 7.67c.004.003.01.005.012.005s.008-.002.01-.005l7.697-7.67c.005-.005.003-.01-.006-.01h-4.77c-.01 0-.017-.007-.017-.016V.015c0-.01-.006-.016-.015-.016z" fill="#448CCA"/></g></g></svg>