<svg xmlns="http://www.w3.org/2000/svg" width="20" height="20" viewBox="0 0 20 20"><g><path fill="none" d="M0 0h20v20H0z"/><path d="M1.802 19.75V.25h10.884v5.09c0 .137.112.25.25.25H18.2v14.16H1.8z" fill="#448CCA"/><path d="M12.436.5v4.84c0 .275.224.5.5.5h5.013V19.5H2.05V.5h10.384m.5-.5H1.552v20h16.896V5.34h-5.513V0z" fill="#6A8799"/><path fill="#A1C8E6" d="M12.936 0l5.512 5.34h-5.512z"/><path fill="none" stroke="#6A8799" stroke-width=".5" stroke-linecap="round" stroke-linejoin="round" stroke-miterlimit="10" d="M12.936.374l5.142 4.965"/><g><path fill="#fff" d="M4.596 12.242h3.37l.015-.265V5.74h4.04v6.487l.266.015h3.12L10 17.652z"/><path d="M11.77 5.99v5.986l.017.516h3.016l-4.8 4.808L5.2 12.492h2.517l.516-.016V5.99h3.538m.485-.5H7.747c-.01 0-.016.008-.016.017v6.47c0 .01-.006.016-.015.016H4.008c-.01 0-.01.005-.004.01l5.987 5.994.012.003s.008 0 .01-.004l5.985-5.993c.006-.006.004-.01-.005-.01h-3.706c-.01 0-.016-.008-.016-.017v-6.47c0-.008-.006-.015-.015-.015z" fill="#3A668C"/></g></g></svg>