<svg xmlns="http://www.w3.org/2000/svg" width="20" height="20" viewBox="0 0 20 20"><g><path fill="none" d="M0 0h20v20H0z"/><path fill="#999" d="M17.328 14.656v2.672H2.656v-2.672H0V20h20v-5.344z"/><g><linearGradient id="a" gradientUnits="userSpaceOnUse" x1="10.001" y1=".5" x2="10.001" y2="15.301"><stop offset="0" stop-color="#ccc"/><stop offset=".9" stop-color="#999"/></linearGradient><path fill="url(#a)" d="M3.49 8.814h4.078l.016-.515V.5h4.834v8.3l.516.014h3.578l-6.51 6.487z"/><path d="M11.918 1v7.3l.016 1.015H15.3l-5.297 5.28L4.7 9.316h2.368l1.016-.017V1h3.834m.984-1H7.1c-.01 0-.016.007-.016.016V8.3c0 .008-.007.015-.016.015H2.295c-.01 0-.01.005-.004.01l7.7 7.67c.004.003.008.005.012.005s.008-.002.01-.005l7.698-7.67c.006-.005.004-.01-.005-.01h-4.77c-.01 0-.017-.007-.017-.016V.015c0-.01-.007-.016-.016-.016z" fill="#999"/></g></g></svg>