<svg xmlns="http://www.w3.org/2000/svg" width="20" height="20" viewBox="0 0 20 20"><g><path fill="none" d="M0 0h20v20H0z"/><g><linearGradient id="a" gradientUnits="userSpaceOnUse" x1="9.999" y1="2.857" x2="9.999" y2="17.145"><stop offset="0" stop-color="#A0C7E7"/><stop offset=".163" stop-color="#9CC4E6"/><stop offset=".332" stop-color="#8FBCE2"/><stop offset=".503" stop-color="#7BAFDB"/><stop offset=".675" stop-color="#5E9DD2"/><stop offset=".8" stop-color="#448CCA"/></linearGradient><path d="M0 14.145c0 1.65 1.35 3 3 3h14c1.65 0 3-1.35 3-3V5.857c0-1.65-1.35-3-3-3H3c-1.65 0-3 1.35-3 3v8.288z" fill="url(#a)"/><path d="M17 3.357c1.38 0 2.5 1.122 2.5 2.5v8.287c0 1.38-1.12 2.5-2.5 2.5H3c-1.378 0-2.5-1.12-2.5-2.5V5.857c0-1.378 1.122-2.5 2.5-2.5h14m0-.5H3c-1.65 0-3 1.35-3 3v8.287c0 1.65 1.35 3 3 3h14c1.65 0 3-1.35 3-3V5.857c0-1.65-1.35-3-3-3z" fill="#fff"/><path d="M17 3.357c1.38 0 2.5 1.122 2.5 2.5v8.287c0 1.38-1.12 2.5-2.5 2.5H3c-1.378 0-2.5-1.12-2.5-2.5V5.857c0-1.378 1.122-2.5 2.5-2.5h14m0-.5H3c-1.65 0-3 1.35-3 3v8.287c0 1.65 1.35 3 3 3h14c1.65 0 3-1.35 3-3V5.857c0-1.65-1.35-3-3-3z" fill="#6A8799" opacity=".8"/></g><path d="M1 15.85c1.29-1.543 2.68-2.972 4.105-4.36.703-.704 1.443-1.367 2.166-2.05.734-.67 1.482-1.322 2.223-1.984L10 7.003l.51.453c.74.66 1.487 1.316 2.223 1.983.722.683 1.462 1.344 2.165 2.05 1.426 1.387 2.815 2.815 4.104 4.36-1.71-1.057-3.322-2.23-4.896-3.447-.797-.597-1.557-1.237-2.334-1.855-.765-.634-1.52-1.28-2.277-1.922h1.016c-.76.64-1.51 1.29-2.277 1.92-.777.62-1.538 1.258-2.334 1.855-1.58 1.216-3.19 2.39-4.9 3.45z" fill="#6D767D"/><path d="M1 15.84s.255-.238.716-.638c.467-.392 1.116-.975 1.926-1.63.805-.665 1.757-1.422 2.79-2.215l1.6-1.214.83-.613.418-.308.21-.154.104-.078.053-.04.006-.004.147-.074.016-.004.03-.01c.088-.023.21-.03.32.003.11.03.21.105.188.09l.052.04.105.078.21.154.418.31.83.612c.553.4 1.08.82 1.6 1.213 1.033.792 1.985 1.55 2.79 2.213.81.657 1.46 1.24 1.926 1.632.46.4.716.64.716.64s-.307-.168-.83-.48c-.517-.323-1.272-.76-2.148-1.326-.88-.56-1.896-1.23-2.97-1.965-.535-.37-1.097-.742-1.65-1.144-.278-.198-.56-.398-.84-.6l-.423-.3-.214-.153-.106-.076-.053-.037c-.038-.03.04.04.13.064.09.025.19.014.256-.016l-1.555 1.116-1.65 1.144c-1.075.735-2.09 1.405-2.97 1.965-.876.567-1.63 1.003-2.148 1.325-.523.315-.83.483-.83.483z" fill="#A1C8E6"/><path d="M18.613 4.004s-.207.295-.598.777-.96 1.16-1.68 1.92c-.713.776-1.583 1.63-2.53 2.53-.478.444-.977.897-1.493 1.345l-.783.674-.4.332-.2.167-.1.082-.012.01-.006.006-.343.193-.032.012-.062.02c-.192.063-.52.087-.793-.012-.137-.046-.256-.11-.352-.18l-.06-.047-.1-.084-.2-.168-.4-.332c-.26-.226-.523-.45-.782-.673-.518-.446-1.015-.9-1.493-1.345-.95-.897-1.818-1.753-2.53-2.528-.722-.763-1.29-1.44-1.68-1.922-.39-.482-.596-.778-.596-.778s.33.144.88.432c.55.288 1.324.71 2.214 1.27.9.544 1.91 1.23 2.976 1.983.53.38 1.073.778 1.612 1.2l.813.634.405.326.203.163.102.082c-.007-.006.052.043-.01-.01-.075-.06-.174-.12-.29-.158-.232-.084-.52-.047-.67.028l.06-.02.032-.01c.076-.043-.63.356-.33.185l.007-.005.013-.01.102-.082.2-.163.406-.326.814-.635c.54-.42 1.083-.82 1.613-1.2 1.066-.753 2.076-1.438 2.976-1.983.89-.558 1.663-.982 2.213-1.27.55-.29.88-.433.88-.433z" fill="#6D767D"/><g><linearGradient id="b" gradientUnits="userSpaceOnUse" x1="-3772.001" y1="2543.063" x2="-3772.001" y2="2535.766" gradientTransform="matrix(-1 0 0 -1 -3762 2546.785)"><stop offset="0" stop-color="#A1C8E6"/><stop offset=".162" stop-color="#9DC5E5"/><stop offset=".33" stop-color="#90BDE1"/><stop offset=".5" stop-color="#7CB0DB"/><stop offset=".671" stop-color="#5F9DD2"/><stop offset=".8" stop-color="#448CCA"/></linearGradient><path fill="url(#b)" d="M19 3.723l-9 7.297-9-7.297"/></g><path d="M18.953 3.684s-.252.26-.708.7c-.462.43-1.104 1.068-1.907 1.793-.798.73-1.742 1.567-2.77 2.447-.514.437-1.047.888-1.588 1.346-.273.226-.55.453-.825.682l-.416.343-.21.172-.103.086-.052.043-.006.006c-.068.038.14-.078-.152.087l-.016.004-.038.013c-.1.03-.253.034-.378-.017-.06-.02-.122-.062-.15-.083l-.012-.01-.052-.044-.104-.086-.208-.172-.417-.345-.826-.682c-.55-.447-1.073-.91-1.59-1.346-1.025-.877-1.97-1.714-2.767-2.445-.804-.724-1.446-1.363-1.908-1.794-.456-.438-.708-.7-.708-.7s.308.193.83.55c.516.363 1.272.86 2.146 1.498.88.632 1.892 1.385 2.962 2.21.532.415 1.093.832 1.643 1.28l.838.667.42.336.212.168.105.085.053.042.013.01c-.017-.016-.07-.053-.117-.07-.105-.045-.237-.034-.315.004 0 .002.018-.005.026-.007l.017-.005c-.287.163-.076.042-.138.077l.005-.005.053-.042.106-.084.21-.168.42-.336.837-.668 1.645-1.28c1.07-.823 2.083-1.576 2.962-2.207.874-.637 1.63-1.135 2.146-1.5.523-.36.83-.55.83-.55z" fill="#A1C8E6"/><path opacity=".7" fill="#448CCA" d="M14.422 3.37L10 6.82l-4.418-3.45H2.174L10 9.485l7.832-6.115z"/><g><path d="M17 3.357c1.38 0 2.5 1.122 2.5 2.5v8.287c0 1.38-1.12 2.5-2.5 2.5H3c-1.378 0-2.5-1.12-2.5-2.5V5.857c0-1.378 1.122-2.5 2.5-2.5h14m0-.5H3c-1.65 0-3 1.35-3 3v8.287c0 1.65 1.35 3 3 3h14c1.65 0 3-1.35 3-3V5.857c0-1.65-1.35-3-3-3z" fill="#fff"/><path d="M17 3.357c1.38 0 2.5 1.122 2.5 2.5v8.287c0 1.38-1.12 2.5-2.5 2.5H3c-1.378 0-2.5-1.12-2.5-2.5V5.857c0-1.378 1.122-2.5 2.5-2.5h14m0-.5H3c-1.65 0-3 1.35-3 3v8.287c0 1.65 1.35 3 3 3h14c1.65 0 3-1.35 3-3V5.857c0-1.65-1.35-3-3-3z" fill="#6A8799" opacity=".8"/></g></g></svg>