<?xml version="1.0" encoding="iso-8859-1"?><svg xmlns="http://www.w3.org/2000/svg" width="20" height="20" viewBox="0 0 20 20"><path fill="none" d="M0 0h20v20H0z"/><linearGradient id="a" gradientUnits="userSpaceOnUse" x1="9.999" y1="2.857" x2="9.999" y2="17.145"><stop offset="0" stop-color="#a0c7e7"/><stop offset=".163" stop-color="#9cc4e6"/><stop offset=".332" stop-color="#8fbce2"/><stop offset=".503" stop-color="#7bafdb"/><stop offset=".675" stop-color="#5e9dd2"/><stop offset=".8" stop-color="#448cca"/></linearGradient><path d="M0 14.145c0 1.65 1.35 3 3 3h14c1.65 0 3-1.35 3-3V5.857c0-1.65-1.35-3-3-3H3c-1.65 0-3 1.35-3 3v8.288z" fill="url(#a)"/><path d="M17 3.357c1.379 0 2.5 1.122 2.5 2.5v8.287c0 1.379-1.121 2.5-2.5 2.5H3a2.503 2.503 0 0 1-2.5-2.5V5.857c0-1.378 1.122-2.5 2.5-2.5h14m0-.5H3c-1.65 0-3 1.35-3 3v8.287c0 1.65 1.35 3 3 3h14c1.65 0 3-1.35 3-3V5.857c0-1.649-1.35-3-3-3z" fill="#fff"/><path d="M17 3.357c1.379 0 2.5 1.122 2.5 2.5v8.287c0 1.379-1.121 2.5-2.5 2.5H3a2.503 2.503 0 0 1-2.5-2.5V5.857c0-1.378 1.122-2.5 2.5-2.5h14m0-.5H3c-1.65 0-3 1.35-3 3v8.287c0 1.65 1.35 3 3 3h14c1.65 0 3-1.35 3-3V5.857c0-1.649-1.35-3-3-3z" fill="#6a8799" opacity=".8"/><path d="M1 15.851c1.29-1.544 2.68-2.973 4.105-4.36.703-.705 1.443-1.368 2.166-2.05.733-.67 1.481-1.323 2.222-1.985L10 7.003l.509.453c.741.661 1.488 1.316 2.224 1.983.722.684 1.462 1.345 2.165 2.05 1.426 1.388 2.815 2.816 4.104 4.362-1.711-1.058-3.322-2.232-4.896-3.448-.797-.597-1.557-1.237-2.334-1.855-.765-.634-1.519-1.28-2.277-1.922h1.016c-.76.64-1.512 1.289-2.278 1.92-.777.619-1.538 1.258-2.334 1.855C4.32 13.616 2.71 14.791 1 15.851z" fill="#6d767d"/><path d="M1 15.841s.255-.239.716-.639c.467-.392 1.116-.975 1.926-1.631a102.25 102.25 0 0 1 2.791-2.214l1.599-1.214.83-.613.418-.308.209-.154.105-.078.053-.039.006-.005c-.028.014.269-.137.147-.074l.016-.004.031-.01a.624.624 0 0 1 .318.003c.112.029.21.104.189.09l.052.039.105.078.209.154.418.309.83.613c.553.401 1.08.82 1.6 1.213 1.033.792 1.985 1.55 2.79 2.213.811.657 1.459 1.24 1.926 1.632.461.4.716.64.716.64s-.307-.168-.83-.481c-.517-.322-1.272-.759-2.148-1.325a103.84 103.84 0 0 1-2.971-1.965c-.534-.372-1.096-.743-1.649-1.145l-.84-.599-.423-.302-.213-.152-.106-.076-.053-.037c-.038-.03.039.041.13.064a.4.4 0 0 0 .256-.016l-1.555 1.116-1.65 1.144a108.351 108.351 0 0 1-2.97 1.965c-.876.567-1.631 1.003-2.148 1.325-.523.315-.83.483-.83.483z" fill="#a1c8e6"/><path d="M18.613 4.004s-.207.295-.598.777-.959 1.158-1.681 1.92c-.712.775-1.582 1.63-2.53 2.528a56.32 56.32 0 0 1-1.492 1.346c-.26.223-.521.447-.783.674l-.398.333-.2.167-.1.083-.013.011-.006.005-.343.193-.031.011-.062.021a1.335 1.335 0 0 1-1.145-.193l-.062-.047-.1-.084-.2-.167-.398-.332-.783-.673a53.228 53.228 0 0 1-1.493-1.345 52.367 52.367 0 0 1-2.53-2.528 32.878 32.878 0 0 1-1.68-1.922c-.39-.482-.596-.778-.596-.778s.331.144.88.432c.55.288 1.325.711 2.215 1.269.9.545 1.91 1.23 2.976 1.984.529.381 1.073.779 1.612 1.2l.813.635.405.326.203.163.102.082c-.007-.006.052.043-.01-.009a.949.949 0 0 0-.961-.131l.062-.021.031-.01-.329.186.006-.005.013-.01.102-.082.202-.163.405-.326.814-.635a56.251 56.251 0 0 1 1.613-1.199c1.066-.753 2.076-1.438 2.976-1.983.89-.558 1.664-.982 2.214-1.27.55-.289.88-.433.88-.433z" fill="#6d767d"/><linearGradient id="b" gradientUnits="userSpaceOnUse" x1="-3772.001" y1="2543.063" x2="-3772.001" y2="2535.766" gradientTransform="rotate(180 -1881 1273.393)"><stop offset="0" stop-color="#a1c8e6"/><stop offset=".162" stop-color="#9dc5e5"/><stop offset=".33" stop-color="#90bde1"/><stop offset=".5" stop-color="#7cb0db"/><stop offset=".671" stop-color="#5f9dd2"/><stop offset=".8" stop-color="#448cca"/></linearGradient><path fill="url(#b)" d="M19 3.723l-9 7.297-9-7.297"/><g><path d="M18.953 3.684s-.252.261-.708.7c-.462.431-1.104 1.068-1.907 1.793-.798.731-1.742 1.567-2.769 2.447L11.98 9.97l-.825.682-.416.343-.208.172-.104.086-.052.043-.006.006c-.067.038.141-.078-.151.087l-.016.005-.038.013a.604.604 0 0 1-.527-.1l-.013-.011-.052-.043-.104-.086-.208-.172-.417-.345-.826-.682c-.55-.447-1.073-.91-1.589-1.346A109.196 109.196 0 0 1 3.66 6.177c-.804-.724-1.446-1.363-1.908-1.794-.456-.438-.708-.7-.708-.7s.308.193.83.549c.516.364 1.272.861 2.146 1.499.879.631 1.892 1.384 2.962 2.208.532.416 1.093.833 1.643 1.28l.838.668.421.336.211.168.105.084.053.042.013.011a.403.403 0 0 0-.431-.067l.026-.008.016-.005c-.287.163-.076.042-.138.077l.006-.005.053-.042.106-.084.21-.168.421-.336.836-.668 1.644-1.279c1.07-.824 2.083-1.577 2.962-2.208.874-.637 1.63-1.135 2.146-1.5.523-.359.83-.551.83-.551z" fill="#a1c8e6"/></g><g><path opacity=".7" fill="#448cca" d="M14.422 3.369L10 6.822l-4.418-3.45-3.408.001L10 9.484l7.832-6.115z"/></g><g><path d="M17 3.357c1.379 0 2.5 1.122 2.5 2.5v8.287c0 1.379-1.121 2.5-2.5 2.5H3a2.503 2.503 0 0 1-2.5-2.5V5.857c0-1.378 1.122-2.5 2.5-2.5h14m0-.5H3c-1.65 0-3 1.35-3 3v8.287c0 1.65 1.35 3 3 3h14c1.65 0 3-1.35 3-3V5.857c0-1.649-1.35-3-3-3z" fill="#fff"/><path d="M17 3.357c1.379 0 2.5 1.122 2.5 2.5v8.287c0 1.379-1.121 2.5-2.5 2.5H3a2.503 2.503 0 0 1-2.5-2.5V5.857c0-1.378 1.122-2.5 2.5-2.5h14m0-.5H3c-1.65 0-3 1.35-3 3v8.287c0 1.65 1.35 3 3 3h14c1.65 0 3-1.35 3-3V5.857c0-1.649-1.35-3-3-3z" fill="#6a8799" opacity=".8"/></g></svg>