<svg xmlns="http://www.w3.org/2000/svg" width="20" height="20" viewBox="0 0 20 20"><g><path fill="none" d="M0 0h20v20H0z"/><path d="M17 16c0 .55-.45 1-1 1H1c-.55 0-1-.45-1-1V1c0-.55.45-1 1-1h15c.55 0 1 .45 1 1v15z" fill="#999"/><path d="M15.625 15.5c0 .275-.225.5-.5.5H1.875c-.275 0-.5-.225-.5-.5v-12c0-.275.225-.5.5-.5h13.25c.275 0 .5.225.5.5v12z" fill="#fff"/><path d="M14.5 7.75c0 .275-.225.5-.5.5H3c-.275 0-.5-.225-.5-.5v-3c0-.275.225-.5.5-.5h11c.275 0 .5.225.5.5v3zM8.5 14c0 .275-.225.5-.5.5H3c-.275 0-.5-.225-.5-.5v-.5c0-.275.225-.5.5-.5h5c.275 0 .5.225.5.5v.5zM8.5 11c0 .275-.225.5-.5.5H3c-.275 0-.5-.225-.5-.5v-.5c0-.275.225-.5.5-.5h5c.275 0 .5.225.5.5v.5z" fill="#ccc"/><path d="M14.5 14c0 .275-.225.5-.5.5h-3.5c-.275 0-.5-.225-.5-.5v-3.5c0-.275.225-.5.5-.5H14c.275 0 .5.225.5.5V14z" fill="#999"/><path d="M20 18c0 1.1-.9 2-2 2h-7c-1.1 0-2-.9-2-2v-7c0-1.1.9-2 2-2h7c1.1 0 2 .9 2 2v7z" fill="#fff"/><path d="M20 18c0 1.1-.9 2-2 2h-6.5c-1.1 0-2-.9-2-2v-6.5c0-1.1.9-2 2-2H18c1.1 0 2 .9 2 2V18z" fill="#3B5998"/><path d="M17.06 12.646h.925v-1.444H16.73c-1.778 0-1.736 1.39-1.736 1.598v1.136h-.824v1.39h.823v4.124h1.694v-4.125h1.138s.104-.666.157-1.395h-1.29v-.95c0-.142.186-.334.367-.334z" fill="#fff"/></g></svg>