<svg xmlns="http://www.w3.org/2000/svg" width="20" height="20" viewBox="0 0 20 20"><g><path fill="none" d="M0 0h20v20H0z"/><path fill="#999" d="M17 16c0 .55-.45 1-1 1H1c-.55 0-1-.45-1-1V1c0-.55.45-1 1-1h15c.55 0 1 .45 1 1v15z"/><path fill="#fff" d="M15.625 15.5c0 .273-.225.5-.5.5H1.875c-.275 0-.5-.227-.5-.5v-12c0-.275.225-.5.5-.5h13.25c.275 0 .5.225.5.5v12z"/><path fill="#ccc" d="M14.5 7.75c0 .273-.225.5-.5.5H3c-.275 0-.5-.227-.5-.5v-3c0-.275.225-.5.5-.5h11c.275 0 .5.225.5.5v3zM8.5 14c0 .273-.225.5-.5.5H3c-.275 0-.5-.227-.5-.5v-.5c0-.275.225-.5.5-.5h5c.275 0 .5.225.5.5v.5zM8.5 11c0 .273-.225.5-.5.5H3c-.275 0-.5-.227-.5-.5v-.5c0-.275.225-.5.5-.5h5c.275 0 .5.225.5.5v.5z"/><path fill="#999" d="M14.5 14c0 .273-.225.5-.5.5h-3.5c-.275 0-.5-.227-.5-.5v-3.5c0-.275.225-.5.5-.5H14c.275 0 .5.225.5.5V14z"/><path fill="#fff" d="M20 18c0 1.1-.9 2-2 2h-7c-1.1 0-2-.9-2-2v-7c0-1.102.9-2 2-2h7c1.1 0 2 .898 2 2v7z"/><path fill="#3B5998" d="M20 18c0 1.1-.9 2-2 2h-6.5c-1.1 0-2-.9-2-2v-6.5c0-1.102.9-2 2-2H18c1.1 0 2 .898 2 2V18z"/><path fill="#fff" d="M17.06 12.646h.926v-1.444H16.73c-1.778 0-1.735 1.39-1.735 1.598v1.136h-.824v1.39h.825v4.123h1.692v-4.125h1.14s.104-.666.156-1.395h-1.287v-.95c0-.142.183-.334.365-.334z"/></g></svg>