<?xml version="1.0" encoding="utf-8"?><svg xmlns="http://www.w3.org/2000/svg" width="20" height="20" viewBox="0 0 20 20"><path fill="none" d="M0 0h20v20H0z"/><path fill="#999" d="M17 16c0 .55-.45 1-1 1H1c-.55 0-1-.45-1-1V1c0-.55.45-1 1-1h15c.55 0 1 .45 1 1v15z"/><path fill="#FFF" d="M15.625 15.499c0 .274-.225.5-.5.5H1.875a.502.502 0 0 1-.5-.5v-12c0-.274.225-.5.5-.5h13.25c.275 0 .5.226.5.5v12z"/><g><path fill="#CCC" d="M14.5 7.749c0 .274-.225.5-.5.5H3a.502.502 0 0 1-.5-.5v-3c0-.274.225-.5.5-.5h11c.275 0 .5.226.5.5v3zM8.5 13.999c0 .274-.225.5-.5.5H3a.502.502 0 0 1-.5-.5v-.5c0-.274.225-.5.5-.5h5c.275 0 .5.226.5.5v.5zM8.5 10.999c0 .274-.225.5-.5.5H3a.502.502 0 0 1-.5-.5v-.5c0-.274.225-.5.5-.5h5c.275 0 .5.226.5.5v.5z"/><path fill="#999" d="M14.5 13.999c0 .274-.225.5-.5.5h-3.5a.502.502 0 0 1-.5-.5v-3.5c0-.274.225-.5.5-.5H14c.275 0 .5.226.5.5v3.5z"/></g><g><path fill="#FFF" d="M20 18c0 1.1-.9 2-2 2h-7c-1.1 0-2-.9-2-2v-7.001c0-1.101.9-2 2-2h7c1.1 0 2 .899 2 2V18z"/><path fill="#3B5998" d="M20 18c0 1.1-.9 2-2 2h-6.5c-1.1 0-2-.9-2-2v-6.501c0-1.101.9-2 2-2H18c1.1 0 2 .899 2 2V18z"/><path fill="#FFF" d="M17.061 12.646h.925v-1.444H16.73c-1.778 0-1.735 1.39-1.735 1.598v1.136h-.824v1.389h.824v4.124h1.692v-4.124h1.14s.104-.666.156-1.395h-1.287v-.95c-.001-.142.183-.334.365-.334z"/></g></svg>