<svg xmlns="http://www.w3.org/2000/svg" width="20" height="20" viewBox="0 0 20 20"><g><path fill="none" d="M0 0h20v20H0z"/><g><linearGradient id="a" gradientUnits="userSpaceOnUse" x1="8.752" y1="3.16" x2="8.752" y2="16.838"><stop offset="0" stop-color="#9DABB4"/><stop offset=".265" stop-color="#99A7B0"/><stop offset=".54" stop-color="#8F9BA3"/><stop offset=".818" stop-color="#7D878F"/><stop offset="1" stop-color="#6D767D"/></linearGradient><path d="M17.328 4.91H6.25V3.44c0-.155-.08-.28-.177-.28H.18c-.1 0-.18.125-.18.28v13.224c0 .096.08.174.176.174h17.152c.096 0 .175-.078.175-.174V5.084c0-.098-.08-.174-.175-.174z" fill="url(#a)"/><path d="M5.5 3.91v1.75h11.253v10.428H.75V3.91H5.5m.573-.75H.18c-.1 0-.18.125-.18.28v13.224c0 .096.08.174.176.174h17.152c.096 0 .175-.078.175-.174V5.084c0-.098-.08-.174-.175-.174H6.25V3.44c0-.155-.08-.28-.177-.28z" fill="#45494D" opacity=".6"/></g><g><linearGradient id="b" gradientUnits="userSpaceOnUse" x1="8.749" y1="5.91" x2="8.749" y2="15.838"><stop offset="0" stop-color="#fff"/><stop offset=".25" stop-color="#FBFCFD"/><stop offset=".509" stop-color="#EEF4F8"/><stop offset=".771" stop-color="#DAE7F0"/><stop offset=".8" stop-color="#D7E5EF"/></linearGradient><path fill="url(#b)" d="M1 5.91h15.5v9.928H1z"/><path d="M15.5 6.91v7.928H2V6.91h13.5m1.823-2H.175C.08 4.91 0 4.978 0 5.062v11.62c0 .086.08.155.175.155h17.148c.097 0 .176-.07.176-.154V5.063c0-.085-.08-.153-.177-.153z" fill="#fff" opacity=".7"/><path d="M16.5 5.91v9.928H1V5.91h15.5m.823-1H.175C.08 4.91 0 4.978 0 5.062v11.62c0 .086.08.155.175.155h17.148c.097 0 .176-.07.176-.154V5.063c0-.085-.08-.153-.177-.153z" fill="#45494D" opacity=".7"/></g></g></svg>