<svg xmlns="http://www.w3.org/2000/svg" width="20" height="20" viewBox="0 0 20 20"><g><path fill="none" d="M0 0h20v20H0z"/><g><linearGradient id="a" gradientUnits="userSpaceOnUse" x1="8.752" y1="3.162" x2="8.752" y2="16.84"><stop offset="0" stop-color="#9DABB4"/><stop offset=".265" stop-color="#99A7B0"/><stop offset=".54" stop-color="#8F9BA3"/><stop offset=".818" stop-color="#7D878F"/><stop offset="1" stop-color="#6D767D"/></linearGradient><path d="M17.328 4.412H6.25v-.97c0-.155-.08-.28-.177-.28H.18c-.1 0-.18.125-.18.28v13.224c0 .096.08.174.176.174h17.152c.096 0 .175-.078.175-.174V4.586c0-.098-.08-.174-.175-.174z" fill="url(#a)"/><path d="M5.5 3.912v1.25h11.253V16.09H.75V3.912H5.5m.573-.75H.18c-.1 0-.18.125-.18.28v13.224c0 .096.08.174.176.174h17.152c.096 0 .175-.078.175-.174V4.586c0-.098-.08-.174-.175-.174H6.25v-.97c0-.155-.08-.28-.177-.28z" fill="#45494D" opacity=".6"/></g><g><linearGradient id="b" gradientUnits="userSpaceOnUse" x1="-89.602" y1="6.602" x2="-89.602" y2="15.84" gradientTransform="matrix(1 0 -.188 1 101.682 0)"><stop offset="0" stop-color="#fff"/><stop offset=".25" stop-color="#FBFCFD"/><stop offset=".509" stop-color="#EEF4F8"/><stop offset=".771" stop-color="#DAE7F0"/><stop offset=".8" stop-color="#D7E5EF"/></linearGradient><path fill="url(#b)" d="M1.218 15.84l2.085-9.238h15.43l-2.086 9.238z"/><path d="M17.48 7.602L15.85 14.84H2.468l1.635-7.238H17.48m2.33-2H2.68c-.098 0-.192.07-.21.156L.002 16.682c-.018.088.043.158.14.158h17.132c.097 0 .19-.07.208-.158L19.95 5.758c.02-.086-.044-.156-.14-.156z" fill="#fff" opacity=".7"/><path d="M18.732 6.602l-2.085 9.238H1.217l2.086-9.238h15.43m1.077-1H2.68c-.098 0-.192.07-.21.156L.002 16.682c-.018.088.043.158.14.158h17.132c.097 0 .19-.07.208-.158L19.95 5.758c.02-.086-.044-.156-.14-.156z" fill="#45494D" opacity=".7"/></g></g></svg>