<?xml version="1.0" encoding="iso-8859-1"?><svg xmlns="http://www.w3.org/2000/svg" width="20" height="20" viewBox="0 0 20 20"><path fill="none" d="M0 0h20v20H0z"/><linearGradient id="a" gradientUnits="userSpaceOnUse" x1="8.752" y1="3.162" x2="8.752" y2="16.84"><stop offset="0" stop-color="#9dabb4"/><stop offset=".265" stop-color="#99a7b0"/><stop offset=".54" stop-color="#8f9ba3"/><stop offset=".818" stop-color="#7d878f"/><stop offset="1" stop-color="#6d767d"/></linearGradient><path d="M17.328 4.412H6.251v-.971c0-.154-.08-.279-.178-.279H.179c-.098 0-.179.125-.179.279v13.225c0 .096.079.174.176.174h17.152a.175.175 0 0 0 .175-.174V4.586a.174.174 0 0 0-.175-.174z" fill="url(#a)"/><path d="M5.501 3.912v1.25h11.252V16.09H.75V3.912h4.751m.572-.75H.179c-.098 0-.179.125-.179.279v13.225c0 .096.079.174.176.174h17.152a.175.175 0 0 0 .175-.174V4.586a.174.174 0 0 0-.175-.174H6.251v-.971c0-.154-.08-.279-.178-.279z" fill="#45494d" opacity=".6"/><g><linearGradient id="b" gradientUnits="userSpaceOnUse" x1="-89.602" y1="6.602" x2="-89.602" y2="15.84" gradientTransform="matrix(1 0 -.1876 1 101.682 0)"><stop offset="0" stop-color="#fff"/><stop offset=".25" stop-color="#fbfcfd"/><stop offset=".509" stop-color="#eef4f8"/><stop offset=".771" stop-color="#dae7f0"/><stop offset=".8" stop-color="#d7e5ef"/></linearGradient><path fill="url(#b)" d="M1.218 15.84l2.085-9.238h15.429l-2.085 9.238z"/><path d="M17.481 7.602l-1.633 7.238H2.469l1.634-7.238h13.378m2.329-2H2.679c-.097 0-.191.07-.21.156L.003 16.682c-.018.088.043.158.14.158h17.132c.097 0 .19-.07.208-.158l2.466-10.924c.02-.086-.043-.156-.139-.156z" fill="#fff" opacity=".7"/><path d="M18.732 6.602l-2.085 9.238H1.218l2.085-9.238h15.429m1.078-1H2.679c-.097 0-.191.07-.21.156L.003 16.682c-.018.088.043.158.14.158h17.132c.097 0 .19-.07.208-.158l2.466-10.924c.02-.086-.043-.156-.139-.156z" fill="#45494d" opacity=".7"/></g></svg>