<?xml version="1.0" encoding="iso-8859-1"?><svg xmlns="http://www.w3.org/2000/svg" width="20" height="20" viewBox="0 0 20 20"><path fill="none" d="M0 0h20v20H0z"/><linearGradient id="a" gradientUnits="userSpaceOnUse" x1="8.752" y1="3.16" x2="8.752" y2="16.838"><stop offset="0" stop-color="#9dabb4"/><stop offset=".265" stop-color="#99a7b0"/><stop offset=".54" stop-color="#8f9ba3"/><stop offset=".818" stop-color="#7d878f"/><stop offset="1" stop-color="#6d767d"/></linearGradient><path d="M17.328 4.91H6.251V3.439c0-.154-.08-.279-.178-.279H.179c-.098 0-.179.125-.179.279v13.225c0 .096.079.174.176.174h17.152a.175.175 0 0 0 .175-.174V5.084a.174.174 0 0 0-.175-.174z" fill="url(#a)"/><path d="M5.501 3.91v1.75h11.252v10.428H.75V3.91h4.751m.572-.75H.179c-.098 0-.179.125-.179.279v13.225c0 .096.079.174.176.174h17.152a.175.175 0 0 0 .175-.174V5.084a.174.174 0 0 0-.175-.174H6.251V3.439c0-.154-.08-.279-.178-.279z" fill="#45494d" opacity=".6"/><g><linearGradient id="b" gradientUnits="userSpaceOnUse" x1="8.749" y1="5.91" x2="8.749" y2="15.838"><stop offset="0" stop-color="#fff"/><stop offset=".25" stop-color="#fbfcfd"/><stop offset=".509" stop-color="#eef4f8"/><stop offset=".771" stop-color="#dae7f0"/><stop offset=".8" stop-color="#d7e5ef"/></linearGradient><path fill="url(#b)" d="M1 5.91h15.499v9.928H1z"/><path d="M15.499 6.91v7.928H2V6.91h13.499m1.824-2H.175c-.096 0-.175.068-.175.152v11.621c0 .085.079.154.175.154h17.148c.097 0 .176-.069.176-.154V5.062c0-.084-.079-.152-.176-.152z" fill="#fff" opacity=".7"/><path d="M16.499 5.91v9.928H1V5.91h15.499m.824-1H.175c-.096 0-.175.068-.175.152v11.621c0 .085.079.154.175.154h17.148c.097 0 .176-.069.176-.154V5.062c0-.084-.079-.152-.176-.152z" fill="#45494d" opacity=".7"/></g></svg>