<svg xmlns="http://www.w3.org/2000/svg" width="20" height="20" viewBox="0 0 20 20"><g><g><linearGradient id="a" gradientUnits="userSpaceOnUse" x1="9.999" x2="9.999" y2="20"><stop offset="0" stop-color="#A0C7E7"/><stop offset=".9" stop-color="#448CCA"/></linearGradient><path d="M0 17c0 1.65 1.35 3 3 3h14c1.65 0 3-1.35 3-3V3c0-1.65-1.35-3-3-3H3C1.35 0 0 1.35 0 3v14z" fill="url(#a)"/><g opacity=".7"><linearGradient id="b" gradientUnits="userSpaceOnUse" x1="10.001" y1="20" x2="10.001"><stop offset="0" stop-color="#A0C7E7"/><stop offset=".9" stop-color="#448CCA"/></linearGradient><path d="M17 2c.542 0 1 .458 1 1v14c0 .542-.458 1-1 1H3c-.542 0-1-.458-1-1V3c0-.542.458-1 1-1h14m0-2H3C1.35 0 0 1.35 0 3v14c0 1.65 1.35 3 3 3h14c1.65 0 3-1.35 3-3V3c0-1.65-1.35-3-3-3z" fill="url(#b)"/></g><path d="M17 1c1.103 0 2 .897 2 2v14c0 1.103-.897 2-2 2H3c-1.103 0-2-.897-2-2V3c0-1.103.897-2 2-2h14m0-1H3C1.35 0 0 1.35 0 3v14c0 1.65 1.35 3 3 3h14c1.65 0 3-1.35 3-3V3c0-1.65-1.35-3-3-3z" fill="#45494D" opacity=".7"/></g><path d="M14.055 3.607h-3.93c-.275 0-.5.225-.5.5v.828c0 .275.225.5.5.5h3.938c.273 0 .5.226.5.5v3.957c0 .275.225.5.5.5h.812c.275 0 .5-.225.5-.5V4.107c0-.275-.225-.5-.5-.5h-1.82zM5.947 16.393h3.928c.275 0 .5-.225.5-.5v-.828c0-.275-.225-.5-.5-.5H5.94c-.276 0-.5-.226-.5-.5v-3.957c0-.275-.228-.5-.5-.5h-.815c-.275 0-.5.225-.5.5v5.785c0 .275.225.5.5.5h1.822z" fill="#fff" enable-background="new"/><linearGradient id="c" gradientUnits="userSpaceOnUse" x1="5.548" y1="14.453" x2="16.684" y2="3.317" gradientTransform="matrix(.922 .078 .078 .922 -.892 .892)"><stop offset="0" stop-color="#fff"/><stop offset=".5" stop-color="#fff" stop-opacity=".5"/><stop offset="1" stop-color="#fff"/></linearGradient><path fill="url(#c)" d="M15.45 5.964l-9.39 9.39-1.414-1.415 9.39-9.39z"/></g></svg>