<?xml version="1.0" encoding="utf-8"?><svg xmlns="http://www.w3.org/2000/svg" width="20" height="20" viewBox="0 0 20 20"><path fill="none" d="M0 0h20v20H0z"/><g fill="#4E8ABE"><path d="M4.736 16.311a2.147 2.147 0 1 1 0-4.295 2.146 2.146 0 1 1 0 4.295m4.739-1.633V13.6l-.151-.049-1.155-.378-.308-.743.592-1.254-.764-.762-.143.074-1.082.55-.743-.31-.468-1.304H4.176l-.05.152-.376 1.154-.743.308-1.253-.591-.764.761.073.144.548 1.084-.307.742L0 13.645v1.078l.151.049 1.156.379.307.742-.594 1.253.763.762.143-.072 1.083-.549.744.307.467 1.305h1.078l.05-.15.377-1.155.744-.307 1.252.591.763-.761-.073-.146-.55-1.082.309-.742 1.305-.469zM15.265 16.311a2.147 2.147 0 1 1 0-4.296 2.147 2.147 0 0 1 0 4.296M20 14.678V13.6l-.15-.049-1.154-.378-.307-.743.591-1.254-.763-.762-.143.074-1.084.55-.742-.31-.47-1.305h-1.075l-.052.152-.377 1.154-.741.308-1.254-.591-.762.761.07.144.551 1.084-.309.742-1.303.467v1.078l.15.049 1.154.379.307.742-.59 1.254.761.762.144-.072 1.082-.549.744.307.469 1.305h1.076l.051-.15.377-1.155.742-.307 1.254.591.763-.761-.073-.146-.55-1.082.308-.742L20 14.678zM9.804 7.988a2.149 2.149 0 1 1 0-4.297 2.149 2.149 0 0 1 0 4.297m4.737-1.633v-1.08l-.151-.048-1.156-.377-.307-.744.592-1.252-.764-.765-.143.074-1.082.551-.744-.31-.467-1.304H9.243l-.053.152-.377 1.154-.741.308-1.254-.592-.761.762.072.144.55 1.084-.308.742-1.306.466V6.4l.152.049 1.154.379.309.742-.593 1.253.763.762.143-.073 1.083-.549.743.309.467 1.306h1.079l.05-.151.376-1.156.744-.308 1.25.593.764-.763-.072-.144-.549-1.082.309-.743 1.304-.469z"/></g></svg>