<svg xmlns="http://www.w3.org/2000/svg" width="20" height="20" viewBox="0 0 20 20"><g><path fill="none" d="M0 0h20v20H0z"/><path fill="#aaa" d="M10 14.536c-2.506 0-4.535-2.03-4.535-4.53 0-2.507 2.03-4.54 4.535-4.54 2.508 0 4.54 2.033 4.54 4.54 0 2.5-2.032 4.53-4.54 4.53m10-3.444V8.815l-.32-.104-2.438-.798-.648-1.566 1.25-2.647-1.614-1.61-.3.157-2.283 1.162-1.567-.653-.988-2.754H8.818l-.105.32-.797 2.437-1.568.65-2.645-1.247-1.61 1.604.155.304 1.156 2.287-.648 1.57-2.754.984v2.277l.32.103 2.44.8.647 1.567-1.253 2.646 1.61 1.605.302-.152 2.284-1.158 1.572.648L8.91 20h2.277l.104-.32.798-2.437 1.57-.648 2.643 1.248 1.612-1.606-.154-.304-1.162-2.283.652-1.568 2.752-.99z"/></g></svg>