<?xml version="1.0" encoding="utf-8"?><svg xmlns="http://www.w3.org/2000/svg" width="20" height="20" viewBox="0 0 20 20"><path fill="none" d="M0 0h20v20H0z"/><path fill="#4E8ABE" d="M10.001 14.534a4.532 4.532 0 0 1-4.536-4.53 4.536 4.536 0 1 1 9.074 0 4.533 4.533 0 0 1-4.538 4.53M20 11.09V8.812l-.318-.104-2.438-.797-.647-1.566 1.25-2.647-1.613-1.609-.301.156-2.283 1.162-1.57-.652L11.09 0H8.817l-.105.32-.797 2.438-1.568.649L3.702 2.16 2.091 3.766l.156.303 1.156 2.287-.648 1.567-2.754.984v2.276l.32.103 2.441.801.647 1.567L2.156 16.3l1.611 1.606.302-.153 2.284-1.157 1.572.647.984 2.755h2.276l.104-.32.797-2.438 1.57-.65 2.643 1.249 1.611-1.606-.154-.305-1.161-2.283.651-1.567L20 11.09z"/></svg>