<svg xmlns="http://www.w3.org/2000/svg" width="20" height="20" viewBox="0 0 20 20"><g><path fill="none" d="M0 0h20v20H0z"/><path fill="#4E8ABE" d="M10 14.534c-2.506 0-4.535-2.028-4.535-4.53 0-2.507 2.03-4.54 4.536-4.54s4.54 2.033 4.54 4.54c0 2.502-2.032 4.53-4.54 4.53m10-3.444V8.812l-.318-.104-2.438-.797-.647-1.565 1.25-2.647-1.613-1.61-.3.157-2.284 1.162-1.57-.652L11.09 0H8.817l-.105.32-.797 2.438-1.568.65L3.702 2.16l-1.61 1.606.155.303 1.156 2.286-.648 1.567L0 8.907v2.276l.32.103 2.442.8.647 1.568L2.155 16.3l1.61 1.606.303-.153 2.283-1.157 1.572.647.984 2.755h2.275l.104-.32.796-2.438 1.57-.65 2.643 1.25 1.61-1.607-.154-.305-1.16-2.283.65-1.567L20 11.09z"/></g></svg>