<?xml version="1.0" encoding="utf-8"?><svg xmlns="http://www.w3.org/2000/svg" width="20" height="20" viewBox="0 0 20 20"><path fill="none" d="M0 0h20v20H0z"/><path fill="#AAA" d="M10 14.536a4.532 4.532 0 0 1-4.535-4.531 4.537 4.537 0 1 1 9.074 0A4.535 4.535 0 0 1 10 14.536m10-3.444V8.815l-.32-.104-2.438-.799-.648-1.566 1.25-2.647L16.23 2.09l-.3.157-2.283 1.162-1.567-.652-.988-2.754H8.818l-.105.32-.797 2.437-1.568.649-2.645-1.246-1.611 1.604.156.304 1.156 2.286-.648 1.569-2.754.985v2.276l.32.103 2.441.801.646 1.566-1.252 2.646 1.611 1.605.301-.152 2.285-1.158 1.572.648L8.91 20h2.277l.104-.319.797-2.438 1.57-.648 2.643 1.248 1.611-1.606-.154-.304-1.162-2.283.652-1.568 2.752-.99z"/></svg>