<svg xmlns="http://www.w3.org/2000/svg" width="20" height="20" viewBox="0 0 20 20"><g><path fill="none" d="M0 0h20v20H0z"/><g fill="#fff"><path d="M4.736 16.31c-1.187 0-2.147-.96-2.147-2.145 0-1.188.96-2.15 2.146-2.15 1.188 0 2.15.964 2.15 2.15 0 1.185-.96 2.146-2.15 2.146m4.74-1.632V13.6l-.152-.05-1.155-.377-.31-.743.593-1.254-.764-.762-.144.074-1.082.55-.743-.31-.467-1.304H4.176l-.05.152-.376 1.154-.743.308-1.253-.59-.764.76.073.144.548 1.084-.306.742L0 13.645v1.078l.15.05 1.157.378.307.743-.594 1.253.763.762.143-.072 1.083-.55.743.308.467 1.305h1.078l.05-.15.377-1.156.744-.307 1.25.59.764-.76-.073-.146-.55-1.08.31-.743 1.305-.47zM15.265 16.31c-1.187 0-2.147-.96-2.147-2.145 0-1.188.96-2.15 2.147-2.15 1.188 0 2.147.964 2.147 2.15 0 1.185-.96 2.146-2.147 2.146M20 14.68V13.6l-.15-.05-1.154-.377-.307-.743.59-1.254-.763-.762-.143.074-1.084.55-.742-.31-.47-1.305h-1.075l-.052.152-.376 1.154-.74.307-1.255-.59-.763.76.07.144.55 1.085-.308.742-1.304.467v1.078l.15.05 1.154.378.307.742-.59 1.254.76.762.145-.072 1.082-.55.744.308.47 1.305h1.075l.05-.15.378-1.156.743-.307 1.254.59.763-.76-.073-.146-.55-1.08.308-.743 1.305-.47zM9.804 7.988c-1.188 0-2.15-.963-2.15-2.148 0-1.188.962-2.148 2.15-2.148 1.186 0 2.147.96 2.147 2.148 0 1.185-.96 2.148-2.146 2.148m4.737-1.633v-1.08l-.15-.048-1.156-.377-.307-.744.592-1.252-.765-.765-.143.073-1.082.55-.744-.31L10.32 1.1H9.242l-.053.152-.377 1.154-.74.308-1.255-.592-.76.762.07.144.55 1.084-.307.742-1.305.466V6.4l.152.05 1.154.378.31.742-.593 1.253.763.762.143-.073 1.083-.55.743.31.466 1.306h1.08l.05-.15.375-1.157.745-.307 1.25.593.764-.763-.073-.144-.55-1.083.31-.743 1.304-.47z"/></g></g></svg>