<?xml version="1.0" encoding="utf-8"?><svg xmlns="http://www.w3.org/2000/svg" width="20" height="20" viewBox="0 0 20 20"><path fill="none" d="M0 0h20v20H0z"/><path fill="#FFF" d="M9.999 14.535a4.535 4.535 0 1 1 0-9.07 4.535 4.535 0 1 1 0 9.07M20 11.09V8.812l-.318-.102-2.438-.798-.647-1.566 1.25-2.647-1.613-1.609-.301.156-2.283 1.162-1.569-.652L11.09 0H8.816l-.104.322-.796 2.436-1.569.648L3.702 2.16l-1.61 1.605.154.305 1.157 2.285-.648 1.568-2.754.984v2.276l.319.104 2.441.8.648 1.567L2.156 16.3l1.61 1.607.301-.153 2.286-1.158 1.571.647.985 2.756h2.276l.104-.319.796-2.438 1.57-.65 2.644 1.248 1.61-1.606-.155-.303-1.16-2.283.651-1.568L20 11.09z"/></svg>