<svg xmlns="http://www.w3.org/2000/svg" width="20" height="20" viewBox="0 0 20 20"><g><path fill="none" d="M0 0h20v20H0z"/><path fill="#fff" d="M10 14.535c-2.506 0-4.534-2.03-4.534-4.53 0-2.508 2.028-4.54 4.533-4.54 2.508 0 4.54 2.032 4.54 4.54 0 2.5-2.032 4.53-4.54 4.53m10-3.445V8.812l-.318-.102-2.438-.798-.647-1.566 1.25-2.647-1.613-1.61-.3.156-2.284 1.162-1.57-.652L11.09 0H8.816l-.104.322-.796 2.436-1.57.648L3.703 2.16l-1.61 1.605.154.305 1.157 2.285-.648 1.568L0 8.907v2.276l.32.104 2.44.8.65 1.567L2.155 16.3l1.61 1.607.3-.153 2.287-1.158 1.57.647L8.91 20h2.275l.104-.32.795-2.438 1.57-.65L16.3 17.84l1.61-1.606-.156-.303-1.16-2.282.65-1.568L20 11.09z"/></g></svg>