<svg xmlns="http://www.w3.org/2000/svg" width="20" height="20" viewBox="0 0 20 20"><g><path fill="none" d="M0 0h20v20H0z"/><path fill="#4E8ABE" d="M0 4.602c0 .01.007.017.016.017h19.97c.01 0 .015-.008.015-.018V.016c0-.01-.006-.016-.016-.016H.016C.006 0 0 .007 0 .016v4.586z"/><path fill="#4E8ABE" d="M0 19.984c0 .01.006.016.016.016h19.97c.008 0 .014-.007.014-.016V15.4c0-.01-.006-.017-.016-.017H.016c-.01 0-.016.008-.016.017v4.584z"/><path fill="#4E8ABE" d="M0 12.293c0 .01.007.016.016.016h19.97c.01 0 .015-.008.015-.017V7.707c0-.01-.005-.016-.015-.016H.015C.006 7.69 0 7.7 0 7.708v4.586z"/></g></svg>