<svg xmlns="http://www.w3.org/2000/svg" width="20" height="20" viewBox="0 0 20 20"><g><path fill="none" d="M0 0h20v20H0z"/><path d="M0 4.602c0 .008.007.015.016.015h19.97c.007 0 .014-.007.014-.015V.016c0-.01-.007-.016-.016-.016H.016C.006 0 0 .007 0 .016v4.586z" fill="#4E8ABE"/><path d="M0 19.984c0 .01.007.016.016.016h19.97c.007 0 .014-.007.014-.016V15.4c0-.01-.007-.016-.016-.016H.016c-.01 0-.016.008-.016.016v4.584z" fill="#4E8ABE"/><path d="M0 12.293c0 .01.007.016.016.016h19.97c.008 0 .015-.008.015-.017V7.707c0-.01-.006-.016-.015-.016H.015C.008 7.69 0 7.7 0 7.708v4.586z" fill="#4E8ABE"/></g></svg>