<svg xmlns="http://www.w3.org/2000/svg" width="20" height="20" viewBox="0 0 20 20"><g><path fill="none" d="M0 0h20v20H0z"/><path fill="#5590C1" d="M2.09 7.296c1.156 0 2.092.937 2.092 2.093 0 .454-.146.876-.396 1.22l2.093 3.2c.14-.03.29-.048.44-.048.092 0 .183.01.273.02l4.506-8.28c-.313-.36-.5-.836-.5-1.353 0-1.155.935-2.09 2.09-2.09s2.09.935 2.09 2.09c0 .446-.14.858-.38 1.198l3.037 4.51c.152-.033.308-.053.47-.053 1.153 0 2.09.935 2.09 2.09s-.937 2.092-2.09 2.092-2.092-.937-2.092-2.092c0-.446.142-.86.38-1.2l-3.037-4.51c-.15.036-.307.056-.468.056-.095 0-.185-.007-.274-.02L7.908 14.5c.312.364.5.837.5 1.353 0 1.155-.935 2.09-2.09 2.09s-2.09-.935-2.09-2.09c0-.457.147-.88.395-1.223L2.53 11.432c-.14.03-.29.047-.44.047C.935 11.48 0 10.542 0 9.39 0 8.23.937 7.295 2.09 7.295z"/></g></svg>