<svg xmlns="http://www.w3.org/2000/svg" width="20" height="20" viewBox="0 0 20 20"><g><path fill="none" d="M0 0h20v20H0z"/><path fill="#4E8ABE" d="M15.385 4.602c0 .01.008.017.017.017h4.583c.01 0 .016-.008.016-.018V.016c0-.01-.006-.016-.016-.016H15.4c-.008 0-.016.007-.016.016v4.586z"/><path fill="#4E8ABE" d="M7.69 4.602c0 .01.006.017.015.017h4.585c.008 0 .016-.008.016-.018V.016c0-.01-.007-.016-.015-.016H7.707c-.01 0-.017.007-.017.016v4.586z"/><path fill="#4E8ABE" d="M0 4.602c0 .01.007.017.016.017H4.6c.01 0 .017-.008.017-.018V.016C4.617.006 4.61 0 4.6 0H.017C.006 0 0 .007 0 .016v4.586z"/><path fill="#4E8ABE" d="M15.385 19.984c0 .01.008.016.017.016h4.583c.01 0 .015-.007.015-.016V15.4c0-.01-.006-.017-.016-.017H15.4c-.008 0-.016.007-.016.017v4.584z"/><path fill="#4E8ABE" d="M7.69 19.984c0 .01.006.016.016.016h4.585c.01 0 .017-.007.017-.016V15.4c0-.01-.008-.017-.016-.017H7.707c-.01 0-.016.007-.016.017v4.584z"/><path fill="#4E8ABE" d="M0 19.984c0 .01.006.016.016.016H4.6c.01 0 .017-.007.017-.016V15.4c0-.01-.007-.017-.016-.017H.017c-.01 0-.016.008-.016.017v4.584z"/><path fill="#4E8ABE" d="M15.385 12.38c0 .01.008.015.017.015h4.583c.01 0 .016-.006.016-.016V7.794c0-.01-.005-.016-.015-.016h-4.583c-.01 0-.017.006-.017.015v4.584z"/><path fill="#4E8ABE" d="M7.69 12.38c0 .01.006.015.015.015h4.585c.008 0 .016-.006.016-.016V7.794c0-.01-.008-.016-.016-.016H7.706c-.01 0-.016.006-.016.015v4.584z"/><path fill="#4E8ABE" d="M0 12.38c0 .01.007.015.016.015H4.6c.01 0 .017-.006.017-.016V7.794c0-.01-.007-.016-.016-.016H.017c-.01 0-.016.006-.016.015v4.584z"/></g></svg>