<?xml version="1.0" encoding="utf-8"?><svg xmlns="http://www.w3.org/2000/svg" width="20" height="20" viewBox="0 0 20 20"><path fill="none" d="M0 0h20v20H0z"/><path fill="#5590C1" d="M2.091 7.296a2.092 2.092 0 0 1 1.695 3.314l2.093 3.201c.142-.031.29-.049.44-.049.093 0 .184.01.274.021l4.506-8.28a2.09 2.09 0 1 1 3.302-.155l3.036 4.51a2.09 2.09 0 1 1-1.242.838l-3.037-4.51a2.06 2.06 0 0 1-.742.035l-4.508 8.278a2.09 2.09 0 0 1-1.59 3.444 2.09 2.09 0 0 1-1.695-3.313L2.53 11.432A2.09 2.09 0 0 1 0 9.389c0-1.157.937-2.093 2.091-2.093z"/></svg>