<svg xmlns="http://www.w3.org/2000/svg" width="20" height="20" viewBox="0 0 20 20"><g><path fill="#5590C1" d="M2.11 6.758c1.153 0 2.087.934 2.087 2.086 0 .455-.146.876-.396 1.22l2.09 3.19c.14-.03.288-.047.438-.047.093 0 .184.008.273.02l4.495-8.258c-.31-.364-.498-.837-.498-1.353 0-1.152.934-2.086 2.086-2.086s2.086.935 2.086 2.087c0 .445-.142.857-.38 1.195l3.03 4.498c.15-.033.306-.054.466-.054 1.152 0 2.086.933 2.086 2.086 0 1.152-.934 2.087-2.086 2.087S15.8 12.493 15.8 11.34c0-.446.14-.858.38-1.196l-3.03-4.498c-.15.035-.307.055-.467.055-.094 0-.184-.008-.272-.02L7.916 13.94c.31.364.5.837.5 1.353 0 1.152-.934 2.086-2.086 2.086-1.153 0-2.087-.935-2.087-2.087 0-.456.146-.876.395-1.22l-2.088-3.19c-.14.03-.288.047-.44.047-1.15 0-2.085-.933-2.085-2.086 0-1.153.934-2.086 2.086-2.086z"/><path fill="none" d="M0 0h20v20H0z"/></g></svg>