<svg xmlns="http://www.w3.org/2000/svg" width="20" height="20" viewBox="0 0 20 20"><g><path fill="none" d="M0 0h20v20H0z"/><path fill="#4E8ABE" d="M7.47 15.86c-.005-.005-.014-.015-.018-.022l-.195-.58c0-.01-.008-.016-.017-.016h-.794c-.01 0-.016-.008-.016-.016v-1.99c0-.008-.005-.02-.01-.026l-.29-.562c-.002-.008-.004-.02-.004-.03v-1.73c0-.008.002-.02.004-.028l.29-.562c.005-.007.01-.02.01-.026V1.34c0-.01.007-.016.016-.016h3.736c.01 0 .016.007.016.016v5.483c0 .01.005.02.01.026.006.003.018.005.025.003l.93-.398c.01-.003.015-.014.015-.02v-.58c0-.01.002-.022.004-.03l.334-.592c.006-.006.012-.02.012-.026V1.34c0-.01.007-.016.016-.016h3.738c.01 0 .016.007.016.016v5.446c0 .01.006.02.016.02l.09.038c.007.004.02.002.025-.005l.413-.416c.006-.006.02-.014.025-.018l.745-.16c.01 0 .016-.006.016-.016V.016C16.627.006 16.62 0 16.61 0H.017C.01 0 .003.007.003.016v16.536c0 .01.007.016.016.016H8.166c.01 0 .01-.005.004-.01l-.7-.7zm-2.37-.633c0 .01-.008.017-.017.017H1.345c-.01 0-.016-.007-.016-.017V1.34c0-.01.006-.016.015-.016h3.738c.01 0 .016.007.016.016v13.887zM17.648 13.28c.067-.218.313-.395.543-.395h.394c.23 0 .416-.184.414-.414l-.002-1.433c0-.227-.188-.414-.416-.414h-.39c-.228 0-.475-.178-.542-.395l-.336-.804c-.107-.2-.062-.5.1-.66l.28-.28c.163-.162.163-.426 0-.588L16.677 6.88c-.162-.156-.426-.156-.587 0l-.28.282c-.162.16-.46.205-.662.1l-.806-.33c-.22-.067-.396-.31-.396-.542V6c0-.23-.19-.414-.416-.414h-1.438c-.228 0-.416.187-.416.414v.39c0 .23-.177.475-.396.543l-.808.33c-.2.106-.5.06-.662-.1l-.276-.277c-.16-.16-.425-.16-.586 0L7.932 7.9c-.163.16-.163.426 0 .586l.28.28c.16.16.204.46.098.66l-.334.803c-.068.216-.312.394-.542.394H7.04c-.23 0-.414.188-.414.414v1.434c0 .23.185.414.415.414h.394c.23 0 .475.178.542.396l.334.807c.106.2.062.497-.1.66l-.283.28c-.162.162-.16.424 0 .584l1.02 1.014c.16.158.427.158.587-.002l.278-.28c.162-.16.46-.206.662-.1l.808.335c.217.07.396.313.396.544v.393c0 .23.188.414.416.414h1.438c.227 0 .416-.185.416-.413v-.393c0-.23.178-.475.396-.543l.806-.333c.2-.107.5-.06.663.1l.28.28c.164.16.427.16.59 0l1.01-1.017c.166-.162.163-.426 0-.586l-.28-.275c-.16-.165-.206-.46-.102-.663l.338-.806zm-4.836.49c-1.117 0-2.023-.9-2.023-2.016 0-1.11.905-2.014 2.022-2.014 1.113 0 2.02.902 2.02 2.014 0 1.113-.905 2.016-2.02 2.016z"/></g></svg>