<svg xmlns="http://www.w3.org/2000/svg" width="20" height="20" viewBox="0 0 20 20"><g><path fill="none" d="M0 0h20v20H0z"/><path fill="#4E8ABE" d="M0 1.524c0 .01.006.016.016.016h19.97c.008 0 .014-.007.014-.016V.016c0-.01-.006-.016-.016-.016H.016C.006 0 0 .006 0 .016v1.508z"/><path fill="#4E8ABE" d="M0 19.984c0 .01.006.016.016.016h19.97c.008 0 .014-.006.014-.016v-1.508c0-.01-.006-.016-.016-.016H.016c-.01 0-.016.007-.016.017v1.507z"/><path fill="#4E8ABE" d="M0 6.14c0 .01.007.015.016.015h19.97c.01 0 .015-.006.015-.016V4.632c0-.01-.005-.016-.015-.016H.015c-.01 0-.015.008-.015.016V6.14z"/><path fill="#4E8ABE" d="M0 10.754c0 .01.007.016.016.016h19.97c.01 0 .015-.006.015-.016V9.247c0-.01-.005-.016-.015-.016H.015c-.01 0-.015.007-.015.017v1.507z"/><path fill="#4E8ABE" d="M0 15.37c0 .01.007.015.016.015h19.97c.01 0 .015-.006.015-.016v-1.507c0-.01-.005-.016-.015-.016H.015c-.01 0-.015.007-.015.016v1.506z"/></g></svg>