<svg xmlns="http://www.w3.org/2000/svg" width="20" height="20" viewBox="0 0 20 20"><g><path fill="none" d="M0 0h20v20H0z"/><path d="M15.386 4.602c0 .01.007.016.016.016h4.583c.008 0 .015-.008.015-.016V.016c0-.01-.007-.016-.016-.016H15.4c-.008 0-.015.007-.015.016v4.586z" fill="#4E8ABE"/><path d="M7.69 4.602c0 .01.007.016.016.016h4.585c.01 0 .017-.007.017-.016V.016c0-.01-.007-.016-.016-.016H7.707c-.01 0-.016.007-.016.016v4.586z" fill="#4E8ABE"/><path d="M0 4.602c0 .008.007.015.016.015H4.6c.01 0 .017-.007.017-.016V.017C4.617.006 4.61 0 4.6 0H.017C.006 0 0 .007 0 .016v4.586z" fill="#4E8ABE"/><path d="M15.386 19.984c0 .01.007.016.016.016h4.583c.008 0 .015-.007.015-.016V15.4c0-.01-.007-.016-.016-.016H15.4c-.008 0-.015.007-.015.016v4.584z" fill="#4E8ABE"/><path d="M7.69 19.984c0 .01.007.016.016.016h4.585c.01 0 .017-.007.017-.016V15.4c0-.01-.007-.016-.016-.016H7.707c-.01 0-.016.007-.016.016v4.584z" fill="#4E8ABE"/><path d="M0 19.984c0 .01.007.016.016.016H4.6c.01 0 .017-.007.017-.016V15.4c0-.01-.007-.016-.016-.016H.017c-.01 0-.016.008-.016.016v4.584z" fill="#4E8ABE"/><path d="M15.386 12.38c0 .008.007.015.016.015h4.583c.01 0 .016-.007.016-.016V7.794c0-.01-.006-.016-.015-.016h-4.583c-.01 0-.016.006-.016.015v4.584z" fill="#4E8ABE"/><path d="M7.69 12.38c0 .008.007.015.016.015h4.585c.01 0 .017-.007.017-.016V7.794c0-.01-.007-.016-.016-.016H7.707c-.01 0-.016.006-.016.015v4.584z" fill="#4E8ABE"/><path d="M0 12.38c0 .008.007.015.016.015H4.6c.01 0 .017-.007.017-.016V7.794c0-.01-.007-.016-.016-.016H.017c-.01 0-.016.006-.016.015v4.584z" fill="#4E8ABE"/></g></svg>