<?xml version="1.0" encoding="utf-8"?><svg xmlns="http://www.w3.org/2000/svg" width="20" height="20" viewBox="0 0 20 20"><path fill="none" d="M0 0h20v20H0z"/><path fill="#4E8ABE" d="M0 1.524c0 .009.006.016.016.016h19.969c.009 0 .015-.007.015-.016V.016c0-.01-.006-.016-.016-.016H.016C.006 0 0 .006 0 .016v1.508zM0 19.984c0 .01.006.016.016.016h19.969c.009 0 .015-.006.015-.016v-1.508c0-.01-.006-.016-.016-.016H.016c-.01.001-.016.007-.016.017v1.507zM0 6.139c0 .01.007.016.016.016h19.969c.01 0 .016-.006.016-.016V4.633c0-.009-.006-.016-.016-.016H.016c-.01.001-.016.008-.016.016v1.506zM0 10.754c0 .01.007.016.016.016h19.969c.01 0 .016-.006.016-.016V9.247c0-.01-.006-.016-.016-.016H.016c-.01 0-.016.006-.016.016v1.507zM0 15.369c0 .01.007.016.016.016h19.969c.01 0 .016-.006.016-.016v-1.506c0-.01-.006-.016-.016-.016H.016c-.01.001-.016.007-.016.016v1.506z"/></svg>