<?xml version="1.0" encoding="utf-8"?><svg xmlns="http://www.w3.org/2000/svg" width="20" height="20" viewBox="0 0 20 20"><path fill="none" d="M0 0h20v20H0z"/><path fill="#4E8ABE" d="M7.471 15.861a.137.137 0 0 1-.019-.023l-.195-.58a.017.017 0 0 0-.017-.016h-.794a.016.016 0 0 1-.016-.016v-1.99a.046.046 0 0 0-.01-.026l-.29-.562a.145.145 0 0 1-.004-.029v-1.73c0-.009.002-.021.004-.029l.29-.562a.056.056 0 0 0 .01-.026V1.34c0-.009.007-.016.016-.016h3.736c.009 0 .016.007.016.016v5.483c0 .009.005.021.011.026a.033.033 0 0 0 .024.004l.931-.398c.008-.003.014-.014.014-.021v-.58c0-.009.002-.021.004-.029l.334-.592a.048.048 0 0 0 .012-.026V1.34c0-.009.007-.016.016-.016h3.738c.009 0 .016.007.016.016v5.446c0 .009.006.019.016.021l.089.037c.008.004.02.002.026-.005l.414-.415c.006-.006.019-.014.025-.018l.745-.16c.009.001.016-.006.016-.016V1.34.016A.017.017 0 0 0 16.612 0H.018a.016.016 0 0 0-.016.016v16.537c0 .01.007.016.016.016h8.148c.009 0 .011-.004.004-.01l-.699-.698zm-2.372-.634c0 .01-.007.017-.016.017H1.345c-.009 0-.016-.007-.016-.017V1.34c0-.009.007-.016.016-.016h3.738c.009 0 .016.007.016.016v13.887z"/><path fill="#4E8ABE" d="M17.648 13.281a.603.603 0 0 1 .543-.396h.393a.412.412 0 0 0 .414-.414l-.002-1.434a.417.417 0 0 0-.416-.414h-.389a.606.606 0 0 1-.543-.395l-.336-.804a.595.595 0 0 1 .1-.659l.281-.281a.416.416 0 0 0 0-.588l-1.017-1.015a.425.425 0 0 0-.587 0l-.279.281a.61.61 0 0 1-.662.101l-.806-.33a.603.603 0 0 1-.396-.543V6a.417.417 0 0 0-.416-.414h-1.438a.417.417 0 0 0-.416.414v.39a.605.605 0 0 1-.396.543l-.808.33a.603.603 0 0 1-.662-.101l-.276-.276a.416.416 0 0 0-.586 0L7.932 7.9a.412.412 0 0 0 0 .586l.279.281a.597.597 0 0 1 .099.658l-.334.804a.604.604 0 0 1-.542.395h-.393a.416.416 0 0 0-.415.414v1.434c0 .23.185.414.415.414h.393c.229 0 .475.178.542.396l.334.807a.6.6 0 0 1-.099.66l-.284.281a.413.413 0 0 0 0 .584l1.019 1.014a.422.422 0 0 0 .588-.002l.278-.279a.604.604 0 0 1 .662-.1l.808.334a.606.606 0 0 1 .396.543v.393c0 .229.188.414.416.414h1.438a.417.417 0 0 0 .416-.414v-.393c0-.23.178-.475.396-.543l.806-.334c.2-.107.5-.061.663.1l.281.281a.422.422 0 0 0 .588-.002l1.011-1.016a.41.41 0 0 0 0-.586l-.279-.275a.609.609 0 0 1-.103-.662l.337-.806zm-4.836.489a2.019 2.019 0 0 1-2.023-2.016 2.02 2.02 0 0 1 2.023-2.014c1.113 0 2.02.902 2.02 2.014a2.019 2.019 0 0 1-2.02 2.016z"/></svg>