<?xml version="1.0" encoding="utf-8"?><svg xmlns="http://www.w3.org/2000/svg" width="20" height="20" viewBox="0 0 20 20"><path fill="none" d="M0 0h20v20H0z"/><path fill="#4E8ABE" d="M18.414 0H.017C.007 0 0 .007 0 .016v19.951c0 .009.007.017.016.017h12.233c.01 0 .017.004.017.008s.007.008.017.008h1.566c.01 0 .016-.004.016-.008s.008-.008.016-.008h6.103c.01 0 .016-.008.016-.017v-1.565V1.615.016C20 .007 19.994 0 19.984 0h-1.57zM6.133 18.371a.016.016 0 0 1-.016.016H1.615a.016.016 0 0 1-.016-.016V1.615c0-.01.007-.016.016-.016h4.503c.009 0 .016.006.016.016v16.756zm6.134 0c0 .009-.007.016-.017.016H7.748a.016.016 0 0 1-.016-.016V1.615c0-.01.007-.016.016-.016h4.502c.01 0 .017.006.017.016v16.756zm6.131 0a.016.016 0 0 1-.016.016h-4.504a.016.016 0 0 1-.016-.016V1.615c0-.01.008-.016.016-.016h4.504c.009 0 .016.006.016.016v16.756z"/></svg>