<svg xmlns="http://www.w3.org/2000/svg" width="20" height="20" viewBox="0 0 20 20"><g><path fill="none" d="M0 0h20v20H0z"/><path fill="#4E8ABE" d="M18.414 0H.016C.007 0 0 .007 0 .016v19.952c0 .01.007.017.016.017H12.25c.01 0 .016.004.016.008s.007.008.017.008h1.566c.01 0 .015-.004.015-.008s.008-.008.016-.008h6.105c.01 0 .015-.008.015-.017V.015C20 .008 19.994 0 19.984 0h-1.57zM6.134 18.37c0 .01-.008.017-.017.017H1.615c-.01 0-.016-.007-.016-.016V1.616c0-.01.006-.016.015-.016h4.503c.01 0 .016.005.016.015V18.37zm6.133 0c0 .01-.007.017-.017.017H7.748c-.01 0-.016-.007-.016-.016V1.616c0-.01.007-.016.016-.016h4.502c.01 0 .017.005.017.015V18.37zm6.13 0c0 .01-.006.017-.015.017h-4.504c-.008 0-.016-.007-.016-.016V1.616c0-.01.008-.016.016-.016h4.504c.01 0 .016.005.016.015V18.37z"/></g></svg>