<?xml version="1.0" encoding="utf-8"?><svg xmlns="http://www.w3.org/2000/svg" width="20" height="20" viewBox="0 0 20 20"><path fill="none" d="M0 0h20v20H0z"/><path fill="#4E8ABE" d="M0 4.602c0 .01.007.017.016.017h19.969c.01 0 .016-.007.016-.017V.016C20 .007 19.994 0 19.984 0H.016C.006 0 0 .007 0 .016v4.586zM0 19.984c0 .009.006.016.016.016h19.969c.009 0 .015-.007.015-.016V15.4c0-.01-.006-.017-.016-.017H.016c-.01.001-.016.008-.016.017v4.584zM0 12.293c0 .009.007.016.016.016h19.969c.01 0 .016-.007.016-.016V7.707c0-.009-.006-.016-.016-.016H.016c-.01 0-.016.007-.016.016v4.586z"/></svg>