<?xml version="1.0" encoding="utf-8"?><svg xmlns="http://www.w3.org/2000/svg" width="20" height="20" viewBox="0 0 20 20"><path fill="none" d="M0 0h20v20H0z"/><path fill="#4E8ABE" d="M15.385 4.602c0 .01.008.017.017.017h4.583c.01 0 .016-.007.016-.017V.016C20 .007 19.994 0 19.984 0h-4.583c-.009 0-.017.007-.017.016v4.586zM7.689 4.602c0 .01.007.017.016.017h4.585a.017.017 0 0 0 .016-.017V.016C12.307.007 12.299 0 12.291 0H7.706c-.01 0-.017.007-.017.016v4.586zM0 4.602c0 .01.007.017.016.017h4.585c.009 0 .016-.007.016-.017V.016A.016.016 0 0 0 4.601 0H.016C.006 0 0 .007 0 .016v4.586z"/><g><path fill="#4E8ABE" d="M15.385 19.984c0 .009.008.016.017.016h4.583c.009 0 .015-.007.015-.016V15.4c0-.01-.006-.017-.016-.017h-4.583a.017.017 0 0 0-.017.017v4.584zM7.689 19.984c0 .009.007.016.017.016h4.585a.016.016 0 0 0 .016-.016V15.4a.017.017 0 0 0-.016-.017H7.706c-.009 0-.016.007-.016.017v4.584zM0 19.984c0 .009.006.016.016.016h4.585a.016.016 0 0 0 .016-.016V15.4c0-.01-.007-.017-.016-.017H.016c-.01.001-.016.008-.016.017v4.584zM15.385 12.379c0 .01.008.016.017.016h4.583c.01 0 .016-.006.016-.016V7.795c0-.009-.006-.016-.016-.016h-4.583c-.009 0-.017.007-.017.016v4.584zM7.689 12.379c0 .01.007.016.016.016h4.585a.016.016 0 0 0 .016-.016V7.795a.016.016 0 0 0-.016-.016H7.706a.016.016 0 0 0-.016.016v4.584zM0 12.379c0 .01.007.016.016.016h4.585c.009 0 .016-.006.016-.016V7.795a.016.016 0 0 0-.016-.016H.016c-.01 0-.016.007-.016.016v4.584z"/></g></svg>