<svg xmlns="http://www.w3.org/2000/svg" width="20" height="20" viewBox="0 0 20 20"><g><path d="M-1187.89 68.758c1.153 0 2.087.934 2.087 2.086 0 .455-.146.876-.395 1.22l2.088 3.19c.142-.03.29-.047.44-.047.092 0 .183.008.272.02l4.494-8.258c-.31-.364-.498-.837-.498-1.353 0-1.152.934-2.086 2.086-2.086s2.086.935 2.086 2.087c0 .445-.14.857-.38 1.196l3.03 4.498c.15-.033.307-.053.467-.053 1.152 0 2.086.933 2.086 2.086 0 1.152-.934 2.086-2.086 2.086s-2.086-.935-2.086-2.087c0-.446.142-.858.38-1.197l-3.03-4.498c-.15.035-.306.055-.466.055-.094 0-.184-.008-.273-.02l-4.495 8.258c.31.365.5.837.5 1.353 0 1.152-.934 2.086-2.086 2.086s-2.087-.935-2.087-2.087c0-.456.147-.876.395-1.22l-2.088-3.19c-.14.03-.288.047-.44.047-1.15 0-2.085-.933-2.085-2.086 0-1.153.934-2.086 2.086-2.086z" fill="#5590C1"/><path fill="none" d="M-1190 62h20v20h-20z"/></g></svg>