<?xml version="1.0" encoding="iso-8859-1"?><svg xmlns="http://www.w3.org/2000/svg" width="20" height="20" viewBox="0 0 20 20"><linearGradient id="a" gradientUnits="userSpaceOnUse" x1="9.999" x2="9.999" y2="20"><stop offset="0" stop-color="#fff"/><stop offset=".25" stop-color="#fbfcfd"/><stop offset=".509" stop-color="#eef4f8"/><stop offset=".771" stop-color="#dae7f0"/><stop offset=".8" stop-color="#d7e5ef"/></linearGradient><path d="M0 17c0 1.65 1.35 3 3 3h14c1.65 0 3-1.35 3-3V3c0-1.65-1.35-3-3-3H3C1.35 0 0 1.35 0 3v14z" fill="url(#a)"/><path d="M17 2c.542 0 1 .458 1 1v14c0 .542-.458 1-1 1H3c-.542 0-1-.458-1-1V3c0-.542.458-1 1-1h14m0-2H3C1.35 0 0 1.35 0 3v14c0 1.65 1.35 3 3 3h14c1.65 0 3-1.35 3-3V3c0-1.65-1.35-3-3-3z" fill="#fff" opacity=".7"/><path d="M17 1c1.103 0 2 .897 2 2v14c0 1.103-.897 2-2 2H3c-1.103 0-2-.897-2-2V3c0-1.103.897-2 2-2h14m0-1H3C1.35 0 0 1.35 0 3v14c0 1.65 1.35 3 3 3h14c1.65 0 3-1.35 3-3V3c0-1.65-1.35-3-3-3z" fill="#45494d" opacity=".7"/><g><path d="M8.812 12.8c0-1.729.18-2.485 1.836-3.655.702-.486 1.116-1.044 1.116-1.782 0-1.404-.99-1.783-1.747-1.783-1.62 0-1.854 1.225-1.944 2.071v.018H5.535c0-3.133 2.359-4.213 4.321-4.213 1.081 0 4.609.306 4.609 3.835 0 1.458-.791 2.323-2.178 3.313-.774.558-1.099.901-1.099 2.197H8.812zm2.557 3.745H8.74v-2.539h2.629v2.539z" fill="#aaa"/></g></svg>