<?xml version="1.0" encoding="iso-8859-1"?><svg xmlns="http://www.w3.org/2000/svg" width="20" height="20" viewBox="0 0 20 20"><path fill="none" d="M0 0h20v20H0z"/><linearGradient id="a" gradientUnits="userSpaceOnUse" x1="9.999" y1="-.001" x2="9.999" y2="20"><stop offset="0" stop-color="#a0c7e7"/><stop offset=".567" stop-color="#5698d0"/><stop offset=".7" stop-color="#448cca"/></linearGradient><circle cx="10" cy="10" r="10" fill="url(#a)"/><g><path d="M8.387 10.284a58.434 58.434 0 0 0-.026-.926c-.009-.257-.021-.492-.037-.703l-.054-.749c.289.052.574.088.857.108.283.02.574.031.873.031.596 0 1.178-.046 1.744-.139a42.85 42.85 0 0 0-.115 2.325 80.42 80.42 0 0 0-.023 1.799v.834c0 .236.002.494.008.772l.016.833c.004.278.014.549.031.812.016.263.027.502.037.718a18.98 18.98 0 0 0-.902-.101 11.045 11.045 0 0 0-.904-.039c-.268 0-.539.017-.818.047l-.818.093.078-.958c.02-.268.033-.548.037-.842.006-.293.01-.632.018-1.018a148.059 148.059 0 0 0-.002-2.897zm.123-5.281a1.726 1.726 0 0 1 .871-.871c.197-.088.408-.132.633-.132.217 0 .424.044.619.132s.367.203.517.347a1.608 1.608 0 0 1 .486 1.143c0 .217-.045.425-.131.625a1.635 1.635 0 0 1-.355.518 1.84 1.84 0 0 1-.517.347 1.55 1.55 0 0 1-1.252 0 1.698 1.698 0 0 1-.516-.357 1.702 1.702 0 0 1-.355-.517 1.477 1.477 0 0 1-.131-.617c0-.216.043-.422.131-.618z" fill="#fff"/></g></svg>