<svg xmlns="http://www.w3.org/2000/svg" width="20" height="20" viewBox="0 0 20 20"><g><path fill="none" d="M0 0h20v20H0z"/><linearGradient id="a" gradientUnits="userSpaceOnUse" x1="9.999" y1="-.001" x2="9.999" y2="20"><stop offset="0" stop-color="#A0C7E7"/><stop offset=".567" stop-color="#5698D0"/><stop offset=".7" stop-color="#448CCA"/></linearGradient><circle cx="10" cy="10" r="10" fill="url(#a)"/><path d="M8.387 10.284c-.008-.36-.016-.67-.026-.926-.008-.257-.02-.492-.036-.703l-.054-.75c.29.053.574.09.857.11.283.02.574.03.873.03.596 0 1.178-.046 1.744-.14-.062.846-.102 1.62-.115 2.326-.017.705-.024 1.306-.024 1.8v.834c0 .236.002.494.008.772l.016.833c.004.277.014.548.03.81.017.264.028.503.038.72-.297-.042-.6-.075-.902-.102-.305-.025-.605-.04-.904-.04-.268 0-.54.018-.818.048-.277.03-.55.062-.818.093l.078-.96c.02-.267.033-.547.037-.84.007-.294.01-.633.02-1.02.003-.387.005-.878.005-1.475-.002-.586-.004-1.06-.008-1.42zm.123-5.28c.088-.196.205-.368.355-.518.148-.148.32-.267.516-.354.198-.088.41-.132.634-.132.217 0 .424.044.62.132s.366.203.516.347c.148.144.268.315.355.517.086.2.13.41.13.625 0 .217-.044.425-.13.625-.088.2-.207.373-.355.518-.15.143-.322.26-.517.347-.195.087-.402.13-.62.13-.224 0-.435-.043-.632-.13-.194-.088-.366-.206-.515-.357-.15-.15-.267-.32-.355-.517-.088-.194-.13-.4-.13-.617 0-.215.042-.42.13-.617z" fill="#fff"/></g></svg>