<svg xmlns="http://www.w3.org/2000/svg" width="20" height="20.001" viewBox="0 0 20 20.001"><g><path fill="none" d="M0 0h20v20H0z"/><linearGradient id="a" gradientUnits="userSpaceOnUse" x1="9.999" x2="9.999" y2="20.002"><stop offset="0" stop-color="#A0C7E7"/><stop offset=".567" stop-color="#5698D0"/><stop offset=".7" stop-color="#448CCA"/></linearGradient><circle cx="10" cy="10.001" r="10" fill="url(#a)"/><path d="M8.387 10.285c-.008-.36-.016-.67-.026-.926-.008-.258-.02-.493-.036-.704l-.054-.75c.29.053.574.09.857.11.283.02.574.03.873.03.596 0 1.178-.046 1.744-.14-.062.846-.102 1.62-.115 2.326-.017.704-.024 1.305-.024 1.8v.833c0 .236.002.494.008.772l.016.833c.004.278.014.55.03.812.017.263.028.502.038.718-.297-.04-.6-.074-.902-.1-.305-.026-.605-.04-.904-.04-.268 0-.54.017-.818.047-.28.03-.553.062-.82.093l.078-.958c.02-.268.033-.548.037-.842l.017-1.018c.004-.388.006-.88.006-1.476 0-.586-.002-1.06-.006-1.42zm.123-5.28c.088-.196.205-.368.355-.518.148-.148.32-.267.516-.354.198-.088.41-.132.634-.132.217 0 .424.045.62.133s.366.203.516.346c.148.144.268.315.355.517.086.2.13.41.13.625 0 .217-.044.425-.13.625-.088.2-.207.373-.355.518-.15.144-.322.26-.517.348-.195.087-.403.13-.62.13-.224 0-.435-.043-.632-.13-.194-.088-.366-.206-.515-.357-.15-.15-.267-.32-.355-.517-.088-.195-.13-.4-.13-.618 0-.216.042-.422.13-.618z" fill="#fff"/></g></svg>