<?xml version="1.0" encoding="iso-8859-1"?><svg xmlns="http://www.w3.org/2000/svg" viewBox="0 0 20 20"><path fill="none" d="M0 0h20v20H0z"/><path d="M15.425 1.515L4.599 1.499a3.079 3.079 0 0 0-3.083 3.075L1.5 15.401a3.08 3.08 0 0 0 3.075 3.084l10.827.015a3.078 3.078 0 0 0 3.083-3.075L18.5 4.598a3.079 3.079 0 0 0-3.075-3.083z" fill="#00c300"/><path d="M16.192 9.252c0-2.77-2.777-5.023-6.19-5.023-3.413 0-6.19 2.253-6.19 5.023 0 2.483 2.202 4.563 5.177 4.956.201.043.476.133.545.305.062.156.041.401.02.56l-.088.53c-.027.156-.124.612.536.334.661-.278 3.564-2.099 4.863-3.594.898-.984 1.327-1.982 1.327-3.091zM7.58 10.9H6.35a.326.326 0 0 1-.325-.325v-2.46a.325.325 0 0 1 .649 0v2.135h.906a.326.326 0 0 1 0 .65zm1.272-.324a.325.325 0 0 1-.648 0v-2.46a.325.325 0 0 1 .648 0v2.46zm2.96 0a.324.324 0 0 1-.584.195l-1.26-1.716v1.522a.325.325 0 1 1-.65 0v-2.46a.324.324 0 0 1 .584-.195l1.261 1.717V8.116a.325.325 0 0 1 .649 0v2.46zm1.99-1.555a.325.325 0 0 1 0 .649h-.905v.581h.905a.326.326 0 0 1 0 .65h-1.23a.326.326 0 0 1-.325-.325V9.347 8.116c0-.179.146-.325.325-.325h1.23a.326.326 0 0 1 0 .65h-.905v.581h.905z" fill="#fff"/></svg>