<?xml version="1.0" encoding="iso-8859-1"?><svg xmlns="http://www.w3.org/2000/svg" viewBox="0 0 20 20" enable-background="new 0 0 20 20"><g><path fill="none" d="M0 0h20v20H0z"/><path d="M15.425 1.515L4.6 1.5c-1.7-.003-3.082 1.373-3.084 3.074L1.5 15.4c-.002 1.702 1.374 3.083 3.075 3.085l10.827.015c1.7.002 3.08-1.374 3.083-3.075L18.5 4.598c.002-1.7-1.374-3.08-3.075-3.083z" fill="#00C300"/><path d="M16.192 9.252c0-2.77-2.777-5.023-6.19-5.023-3.413 0-6.19 2.252-6.19 5.022 0 2.483 2.202 4.563 5.177 4.956.2.043.475.133.544.305.062.156.04.4.02.56l-.088.53c-.027.156-.124.612.536.334.66-.278 3.564-2.1 4.863-3.594.898-.984 1.327-1.982 1.327-3.09zM7.58 10.9H6.35c-.18 0-.325-.146-.325-.325v-2.46c0-.18.146-.325.325-.325.18 0 .324.146.324.325v2.135h.906c.18 0 .325.146.325.325 0 .18-.146.325-.325.325zm1.272-.324c0 .18-.146.325-.324.325-.18 0-.324-.145-.324-.324v-2.46c0-.18.146-.325.324-.325.18 0 .324.147.324.326v2.46zm2.96 0c0 .14-.09.264-.222.308-.033.01-.068.017-.103.017-.1 0-.198-.048-.26-.13l-1.26-1.715v1.522c0 .18-.144.325-.324.325-.18 0-.325-.146-.325-.325v-2.46c0-.14.09-.264.222-.308.033-.012.068-.018.103-.018.1 0 .198.048.26.13l1.26 1.717V8.115c0-.18.146-.325.325-.325.18 0 .324.147.324.326v2.46zm1.99-1.555c.18 0 .325.147.325.326 0 .18-.146.324-.325.324h-.905v.58h.905c.18 0 .325.147.325.326 0 .18-.146.325-.325.325h-1.23c-.18 0-.325-.145-.325-.324v-2.46c0-.18.146-.325.325-.325h1.23c.18 0 .325.147.325.326 0 .18-.146.325-.325.325h-.905v.582h.905z" fill="#fff"/></g></svg>