<svg xmlns="http://www.w3.org/2000/svg" xmlns:xlink="http://www.w3.org/1999/xlink" xmlns:sketch="http://www.bohemiancoding.com/sketch/ns" width="30px" height="30px" viewBox="0 0 30 30" version="1.1">
    
    

            <g id="Group" sketch:type="MSShapeGroup">
                <path d="M8.863,7.109 C10.341,5.958 12.149,5.213 14.123,5.042 L14.123,0.169 C10.81,0.361 7.788,1.64 5.408,3.654 L8.863,7.109 L8.863,7.109 Z" id="Shape" fill="#4987BD"/>
                <path d="M0.194,13.759 L5.079,13.759 C5.322,11.801 6.131,10.017 7.338,8.578 L3.892,5.133 C1.818,7.468 0.467,10.46 0.194,13.759 L0.194,13.759 Z" id="Shape" opacity="0.5" fill="#5B9ACF"/>
                <path d="M3.654,24.592 L7.108,21.137 C5.958,19.659 5.213,17.851 5.042,15.877 L0.169,15.877 C0.361,19.19 1.641,22.211 3.654,24.592 L3.654,24.592 Z" id="Shape" opacity="0.33" fill="#71A8D8"/>
                <path d="M13.76,24.92 C11.801,24.677 10.018,23.868 8.579,22.661 L5.133,26.107 C7.468,28.181 10.461,29.532 13.76,29.805 L13.76,24.92 L13.76,24.92 Z" id="Shape" opacity="0.25" fill="#93BCE0"/>
                <path d="M21.137,22.892 C19.659,24.042 17.851,24.787 15.877,24.957 L15.877,29.831 C19.19,29.638 22.212,28.359 24.592,26.346 L21.137,22.892 L21.137,22.892 Z" id="Shape" opacity="0.2" fill="#98BDDC"/>
                <path d="M29.806,16.24 L24.92,16.24 C24.678,18.199 23.868,19.982 22.661,21.421 L26.107,24.866 C28.182,22.532 29.533,19.539 29.806,16.24 L29.806,16.24 Z" id="Shape" opacity="0.17" fill="#AFCEE9"/>
                <path d="M16.24,5.08 C18.199,5.323 19.982,6.132 21.421,7.339 L24.867,3.893 C22.532,1.818 19.539,0.467 16.24,0.195 L16.24,5.08 L16.24,5.08 Z" id="Shape" opacity="0.13" fill="#D7E6F4"/>
                <path d="M26.346,5.408 L22.892,8.863 C24.042,10.341 24.787,12.15 24.958,14.123 L29.831,14.123 C29.639,10.81 28.359,7.788 26.346,5.408 L26.346,5.408 Z" id="Shape" opacity="0.14" fill="#C2D9EE"/>
                <animateTransform attributeName="transform"
                    type="rotate"
                    from="0 15 15"
                    to="360 15 15"
                    begin="0s"
                    dur="1.25s"
                    repeatCount="indefinite"
                  />
            </g>
       
</svg>