<svg version="1.1" id="Layer_1" xmlns="http://www.w3.org/2000/svg" xmlns:xlink="http://www.w3.org/1999/xlink" x="0px" y="0px"
	 width="40px" height="40px" viewBox="0 0 40 40" enable-background="new 0 0 40 40" xml:space="preserve">
<g>
	<path fill="#4E8ABE" d="M13.863,12.109c1.478-1.151,3.286-1.896,5.26-2.067V5.169c-3.313,0.192-6.335,1.471-8.715,3.485
		L13.863,12.109z"/>
	<path opacity="0.5" fill="#4E8ABE" d="M5.194,18.759h4.885c0.243-1.958,1.052-3.742,2.259-5.181l-3.446-3.445
		C6.818,12.468,5.467,15.46,5.194,18.759z"/>
	<path opacity="0.33" fill="#4E8ABE" d="M8.654,29.592l3.454-3.455c-1.15-1.478-1.895-3.286-2.066-5.26H5.169
		C5.361,24.19,6.641,27.211,8.654,29.592z"/>
	<path opacity="0.25" fill="#4E8ABE" d="M18.76,29.92c-1.959-0.243-3.742-1.052-5.181-2.259l-3.446,3.446
		c2.335,2.074,5.328,3.425,8.627,3.698V29.92L18.76,29.92z"/>
	<path opacity="0.2" fill="#4E8ABE" d="M26.137,27.892c-1.478,1.15-3.286,1.895-5.26,2.065v4.874
		c3.313-0.193,6.335-1.472,8.715-3.485L26.137,27.892z"/>
	<path opacity="0.17" fill="#4E8ABE" d="M34.806,21.24H29.92c-0.242,1.959-1.052,3.742-2.259,5.181l3.446,3.445
		C33.182,27.532,34.533,24.539,34.806,21.24z"/>
	<path opacity="0.13" fill="#4E8ABE" d="M21.24,10.08c1.959,0.243,3.742,1.052,5.181,2.259l3.446-3.446
		c-2.335-2.075-5.328-3.426-8.627-3.698V10.08z"/>
	<path opacity="0.14" fill="#4E8ABE" d="M31.346,10.408l-3.454,3.455c1.15,1.478,1.895,3.287,2.066,5.26h4.873
		C34.639,15.81,33.359,12.788,31.346,10.408z"/>
    <animateTransform attributeType="xml"
      attributeName="transform"
      type="rotate"
      from="0 20 20"
      to="360 20 20"
      dur="1.1s"
      repeatCount="indefinite"/>
</g>
</svg>
