<?xml version="1.0" encoding="iso-8859-1"?><svg xmlns="http://www.w3.org/2000/svg" width="20" height="20" viewBox="0 0 20 20"><g><path fill="none" d="M0 0h20v20H0z"/><path fill="#F1F1F1" d="M7.025 7h6v6h-6z"/><path d="M12.525 7.5v5h-5v-5h5m1-1h-7v7h7v-7z" fill="#323232"/><g fill="#797979"><path d="M3.525 12.5h1v1h-1zM5.525 12.5h1v1h-1zM6.525 13.5h1v1h-1zM6.525 15.5h1v1h-1zM12.525 13.5h1v1h-1zM12.525 15.5h1v1h-1zM13.525 12.5h1v1h-1zM15.525 12.5h1v1h-1z"/></g><g fill="#797979"><path d="M15.525 6.5h1v1h-1zM13.525 6.5h1v1h-1zM12.525 5.5h1v1h-1zM12.525 3.5h1v1h-1zM6.525 5.5h1v1h-1zM6.525 3.5h1v1h-1zM5.525 6.5h1v1h-1zM3.525 6.5h1v1h-1z"/></g></g></svg>