<?xml version="1.0" encoding="iso-8859-1"?>
<!-- Generator: Adobe Illustrator 16.0.0, SVG Export Plug-In . SVG Version: 6.00 Build 0)  -->
<!DOCTYPE svg PUBLIC "-//W3C//DTD SVG 1.1//EN" "http://www.w3.org/Graphics/SVG/1.1/DTD/svg11.dtd">
<svg version="1.1" id="Layer_1" xmlns="http://www.w3.org/2000/svg" xmlns:xlink="http://www.w3.org/1999/xlink" x="0px" y="0px"
	 width="20px" height="20px" viewBox="0 0 20 20" style="enable-background:new 0 0 20 20;" xml:space="preserve">
<g id="margin-left">
	<g>
		<rect id="le_wrappier_148_" style="fill:none;" width="20" height="20"/>
		<g>
			<g>
				<rect x="4.15" y="4" style="fill:#B9B9BA;" width="3" height="12"/>
				<path style="fill:#8D8E8D;" d="M4.65,4.5h2v11h-2V4.5 M3.65,3.5v13h4v-13H3.65L3.65,3.5z"/>
			</g>
			<g>
				<rect x="7.15" y="7" style="fill:#F1F1F1;" width="6" height="6"/>
				<path style="fill:#323232;" d="M7.65,7.5h5v5h-5V7.5 M6.65,6.5v7h7v-7H6.65L6.65,6.5z"/>
			</g>
			<g>
				<rect x="12.65" y="15.498" style="fill:#797979;" width="1" height="1"/>
				<rect x="12.65" y="13.498" style="fill:#797979;" width="1" height="1"/>
				<rect x="13.65" y="12.498" style="fill:#797979;" width="1" height="1"/>
				<rect x="15.65" y="12.498" style="fill:#797979;" width="1" height="1"/>
				<rect x="13.65" y="6.5" style="fill:#797979;" width="1" height="1"/>
				<rect x="15.65" y="6.5" style="fill:#797979;" width="1" height="1"/>
				<rect x="12.65" y="5.5" style="fill:#797979;" width="1" height="1"/>
				<rect x="12.65" y="3.5" style="fill:#797979;" width="1" height="1"/>
			</g>
		</g>
	</g>
</g>
<g id="Layer_1_1_">
</g>
</svg>
