<?xml version="1.0" encoding="iso-8859-1"?><svg xmlns="http://www.w3.org/2000/svg" width="20" height="20" viewBox="0 0 20 20"><g><path fill="none" d="M0 0h20v20H0z"/><path fill="#B9B9BA" d="M4.213 13h12v3h-12z"/><path d="M4.713 15.5v-2h11v2h-11m-1 1h13v-4h-13v4z" fill="#8D8E8D"/><path fill="#F1F1F1" d="M7.213 7h6v6h-6z"/><path d="M7.713 12.5v-5h5v5h-5m-1 1h7v-7h-7v7z" fill="#323232"/><g fill="#797979"><path d="M15.713 6.5h1v1h-1zM13.713 6.5h1v1h-1zM12.713 5.5h1v1h-1zM12.713 3.5h1v1h-1zM6.713 5.5h1v1h-1zM6.713 3.5h1v1h-1zM5.713 6.5h1v1h-1zM3.713 6.5h1v1h-1z"/></g></g></svg>