<?xml version="1.0" encoding="iso-8859-1"?><svg xmlns="http://www.w3.org/2000/svg" width="20" height="20" viewBox="0 0 20 20"><g><path fill="none" d="M0 0h20v20H0z"/><path fill="#B9B9BA" d="M13.275 4h3v12h-3z"/><path d="M15.775 15.5h-2v-11h2v11m1 1v-13h-4v13h4z" fill="#8D8E8D"/><path fill="#F1F1F1" d="M7.275 7h6v6h-6z"/><path d="M12.775 12.5h-5v-5h5v5m1 1v-7h-7v7h7z" fill="#323232"/><g fill="#797979"><path d="M6.775 3.5h1v1h-1zM6.775 5.5h1v1h-1zM5.775 6.5h1v1h-1zM3.775 6.5h1v1h-1zM5.775 12.5h1v1h-1zM3.775 12.5h1v1h-1zM6.775 13.5h1v1h-1zM6.775 15.5h1v1h-1z"/></g></g></svg>