<?xml version="1.0" encoding="iso-8859-1"?><svg xmlns="http://www.w3.org/2000/svg" width="20" height="20" viewBox="0 0 20 20"><g><path fill="none" d="M0 0h20v20H0z"/><path fill="#B9B9BA" d="M4.15 4h3v12h-3z"/><path d="M4.65 4.5h2v11h-2v-11m-1-1v13h4v-13h-4z" fill="#8D8E8D"/><path fill="#F1F1F1" d="M7.15 7h6v6h-6z"/><path d="M7.65 7.5h5v5h-5v-5m-1-1v7h7v-7h-7z" fill="#323232"/><g fill="#797979"><path d="M12.65 15.498h1v1h-1zM12.65 13.498h1v1h-1zM13.65 12.498h1v1h-1zM15.65 12.498h1v1h-1zM13.65 6.5h1v1h-1zM15.65 6.5h1v1h-1zM12.65 5.5h1v1h-1zM12.65 3.5h1v1h-1z"/></g></g></svg>