<?xml version="1.0" encoding="iso-8859-1"?><svg xmlns="http://www.w3.org/2000/svg" width="20" height="20" viewBox="0 0 20 20"><g><path fill="none" d="M0 0h20v20H0z"/><path fill="#B9B9BA" d="M4.338 4h12v3h-12z"/><path d="M15.838 4.5v2h-11v-2h11m1-1h-13v4h13v-4z" fill="#8D8E8D"/><path fill="#F1F1F1" d="M7.338 7h6v6h-6z"/><path d="M12.838 7.5v5h-5v-5h5m1-1h-7v7h7v-7z" fill="#323232"/><g fill="#797979"><path d="M3.838 12.5h1v1h-1zM5.838 12.5h1v1h-1zM6.838 13.5h1v1h-1zM6.838 15.5h1v1h-1zM12.838 13.5h1v1h-1zM12.838 15.5h1v1h-1zM13.838 12.5h1v1h-1zM15.838 12.5h1v1h-1z"/></g></g></svg>