<svg xmlns="http://www.w3.org/2000/svg" width="20" height="20" viewBox="0 0 20 20"><g><path fill="none" d="M0 0h20v20H0z"/><path d="M15.294 1c.495 0 .898.426.898.95v12.18c0 .523-.403.948-.898.948h-6.77c-.23 0-.455.08-.633.226L4.728 17.89v-1.81c0-.554-.448-1-1-1h-1.83c-.495-.002-.897-.427-.897-.95V1.95c0-.524.402-.95.897-.95h13.397m0-1H1.897C.85 0 0 .875 0 1.95v12.18c0 1.08.85 1.948 1.897 1.948h1.83V20l4.797-3.922h6.77c1.048 0 1.898-.87 1.898-1.947V1.95c0-1.075-.85-1.95-1.898-1.95z" fill="#fff"/><linearGradient id="a" gradientUnits="userSpaceOnUse" x1="8.596" y1="1" x2="8.596" y2="17.891"><stop offset="0" stop-color="#F1F8FF"/><stop offset="1" stop-color="#DDEBF7"/></linearGradient><path d="M4.728 15.078h-2.83c-.495 0-.898-.425-.898-.947V1.95c0-.524.403-.95.897-.95h13.396c.495 0 .898.426.898.95v12.18c0 .523-.402.948-.897.948H8.167l-3.44 2.812v-2.812z" fill="url(#a)"/><path d="M15.294.5c.77 0 1.398.65 1.398 1.45v12.18c0 .8-.627 1.448-1.398 1.448H8.346l-.138.113-3.98 3.255v-3.367h-2.33c-.772 0-1.398-.65-1.398-1.447V1.95C.5 1.15 1.127.5 1.897.5h13.397m0-.5H1.897C.85 0 0 .875 0 1.95v12.18c0 1.08.85 1.948 1.897 1.948h1.83V20l4.797-3.922h6.77c1.048 0 1.898-.87 1.898-1.947V1.95c0-1.075-.85-1.95-1.898-1.95z" fill="#aaa"/><path fill="none" stroke="#fff" stroke-width="2" stroke-linecap="round" stroke-linejoin="round" stroke-miterlimit="10" d="M19 8.528l-5.4-4.54v2.87H7.142v3.34H13.6v2.87z"/><path fill="#378DD7" d="M19 8.528l-5.4-4.54v2.87H7.142v3.34H13.6v2.87z"/></g></svg>