<svg xmlns="http://www.w3.org/2000/svg" width="20" height="20" viewBox="0 0 20 20"><g><path fill="none" d="M0 0h20v20H0z"/><path d="M15.295 1c.495 0 .898.426.898.95v12.182c0 .522-.403.947-.898.947h-6.77c-.23 0-.454.08-.633.225L4.728 17.89v-1.81c0-.554-.448-1-1-1h-1.83c-.495 0-.898-.426-.898-.948V1.95c0-.524.403-.95.898-.95h13.397m0-1H1.898C.852 0 0 .875 0 1.95v12.182c0 1.077.852 1.947 1.898 1.947h1.83V20l4.797-3.92h6.77c1.047 0 1.898-.87 1.898-1.948V1.95c0-1.075-.85-1.95-1.898-1.95z" fill="#fff"/><linearGradient id="a" gradientUnits="userSpaceOnUse" x1="8.596" y1="1" x2="8.596" y2="17.891"><stop offset="0" stop-color="#F1F8FF"/><stop offset="1" stop-color="#DDEBF7"/></linearGradient><path d="M4.73 15.08H1.9c-.497 0-.9-.426-.9-.948V1.95c0-.524.403-.95.898-.95h13.396c.495 0 .898.426.898.95v12.182c0 .522-.403.947-.898.947H8.168l-3.44 2.81v-2.81z" fill="url(#a)"/><path d="M15.295.5c.77 0 1.398.65 1.398 1.45v12.182c0 .798-.627 1.447-1.398 1.447H8.347l-.138.112-3.98 3.253V15.58H1.9c-.772 0-1.4-.65-1.4-1.448V1.95C.5 1.15 1.13.5 1.9.5h13.395m0-.5H1.898C.852 0 0 .875 0 1.95v12.182c0 1.077.852 1.947 1.898 1.947h1.83V20l4.797-3.92h6.77c1.047 0 1.898-.87 1.898-1.948V1.95c0-1.075-.85-1.95-1.898-1.95z" fill="#aaa"/><path fill="none" stroke="#fff" stroke-width="2" stroke-linecap="round" stroke-linejoin="round" stroke-miterlimit="10" d="M19 8.528l-5.4-4.54v2.87H7.144v3.34H13.6v2.87z"/><path fill="#378DD7" d="M19 8.528l-5.4-4.54v2.87H7.144v3.34H13.6v2.87z"/></g></svg>