<?xml version="1.0" encoding="iso-8859-1"?><svg xmlns="http://www.w3.org/2000/svg" width="20" height="20" viewBox="0 0 20 20"><path fill="none" d="M0 0h20v20H0z"/><path d="M15.295 1c.495 0 .898.426.898.95v12.182c0 .522-.403.947-.898.947h-6.77c-.23 0-.454.08-.633.226l-3.164 2.586v-1.812a1 1 0 0 0-1-1h-1.83c-.495 0-.898-.425-.898-.947V1.95c0-.524.403-.95.898-.95h13.397m0-1H1.898C.852 0 0 .875 0 1.95v12.182c0 1.077.852 1.947 1.898 1.947h1.83V20l4.797-3.921h6.77c1.047 0 1.898-.87 1.898-1.947V1.95c0-1.075-.851-1.95-1.898-1.95z" fill="#fff"/><linearGradient id="a" gradientUnits="userSpaceOnUse" x1="8.596" y1="1" x2="8.596" y2="17.891"><stop offset="0" stop-color="#f1f8ff"/><stop offset="1" stop-color="#ddebf7"/></linearGradient><path d="M4.729 15.079h-2.83c-.496 0-.899-.425-.899-.947V1.95c0-.524.403-.95.898-.95h13.396c.495 0 .898.426.898.95v12.182c0 .522-.403.947-.898.947H8.168l-3.44 2.812v-2.812z" fill="url(#a)"/><path d="M15.295.5c.771 0 1.398.65 1.398 1.45v12.182c0 .798-.627 1.447-1.398 1.447H8.347l-.138.113-3.98 3.253v-3.366h-2.33c-.771 0-1.398-.649-1.398-1.447V1.95c0-.8.627-1.45 1.398-1.45h13.396m0-.5H1.898C.852 0 0 .875 0 1.95v12.182c0 1.077.852 1.947 1.898 1.947h1.83V20l4.797-3.921h6.77c1.047 0 1.898-.87 1.898-1.947V1.95c0-1.075-.851-1.95-1.898-1.95z" fill="#aaa"/><g><path fill="none" stroke="#fff" stroke-width="2" stroke-linecap="round" stroke-linejoin="round" stroke-miterlimit="10" d="M19 8.528l-5.399-4.541v2.87H7.143v3.342h6.458v2.869z"/><path fill="#378dd7" d="M19 8.528l-5.399-4.541v2.87H7.143v3.342h6.458v2.869z"/></g></svg>