<?xml version="1.0" encoding="iso-8859-1"?><svg xmlns="http://www.w3.org/2000/svg" width="20" height="20" viewBox="0 0 20 20"><path fill="none" d="M0 0h20v20H0z"/><path d="M18.102 1c.495 0 .898.426.898.95v12.182c0 .522-.403.947-.898.947h-6.77c-.23 0-.454.08-.633.226l-3.163 2.586v-1.812a1 1 0 0 0-1-1H4.705c-.494 0-.896-.425-.896-.947V1.95c0-.524.402-.95.896-.95h13.397m0-1H4.705C3.659 0 2.809.875 2.809 1.95v12.182c0 1.077.851 1.947 1.896 1.947h1.831V20l4.796-3.921h6.77c1.049 0 1.898-.87 1.898-1.947V1.95C20 .875 19.15 0 18.102 0z" fill="#fff"/><linearGradient id="a" gradientUnits="userSpaceOnUse" x1="11.404" y1="1" x2="11.404" y2="17.891"><stop offset="0" stop-color="#f1f8ff"/><stop offset="1" stop-color="#ddebf7"/></linearGradient><path d="M7.536 15.079H4.705c-.494 0-.896-.425-.896-.947V1.95c0-.524.402-.95.896-.95h13.396c.496 0 .899.426.899.95v12.182c0 .522-.403.947-.898.947h-7.126l-3.439 2.812v-2.812z" fill="url(#a)"/><path d="M18.102.5c.771 0 1.398.65 1.398 1.45v12.182c0 .798-.627 1.447-1.398 1.447h-6.949l-.138.113-3.979 3.253v-3.366H4.705c-.77 0-1.396-.649-1.396-1.447V1.95c0-.8.626-1.45 1.396-1.45h13.397m0-.5H4.705C3.659 0 2.809.875 2.809 1.95v12.182c0 1.077.851 1.947 1.896 1.947h1.831V20l4.796-3.921h6.77c1.049 0 1.898-.87 1.898-1.947V1.95C20 .875 19.15 0 18.102 0z" fill="#aaa"/><g><path fill="none" stroke="#fff" stroke-width="2" stroke-linecap="round" stroke-linejoin="round" stroke-miterlimit="10" d="M12.857 8.528L7.459 3.987v2.87H1v3.342h6.459v2.869z"/><path fill="#378dd7" d="M12.857 8.528L7.459 3.987v2.87H1v3.342h6.459v2.869z"/></g></svg>