<svg xmlns="http://www.w3.org/2000/svg" width="20" height="20" viewBox="0 0 20 20"><g><path fill="none" d="M0 0h20v20H0z"/><path d="M18.102 1c.495 0 .898.426.898.95v12.18c0 .523-.403.948-.898.948h-6.77c-.23 0-.455.08-.633.226L7.534 17.89v-1.81c0-.554-.448-1-1-1h-1.83c-.495 0-.897-.426-.897-.948V1.95c0-.524.402-.95.897-.95h13.397m0-1H4.705C3.66 0 2.808.875 2.808 1.95v12.18c0 1.08.85 1.948 1.897 1.948h1.83V20l4.797-3.922h6.77c1.048 0 1.898-.87 1.898-1.947V1.95C20 .875 19.15 0 18.102 0z" fill="#fff"/><linearGradient id="a" gradientUnits="userSpaceOnUse" x1="11.404" y1="1" x2="11.404" y2="17.891"><stop offset="0" stop-color="#F1F8FF"/><stop offset="1" stop-color="#DDEBF7"/></linearGradient><path d="M7.536 15.078h-2.83c-.496 0-.898-.425-.898-.947V1.95c0-.524.402-.95.897-.95H18.1c.497 0 .9.426.9.95v12.18c0 .523-.403.948-.898.948h-7.126l-3.44 2.812v-2.812z" fill="url(#a)"/><path d="M18.102.5c.77 0 1.398.65 1.398 1.45v12.18c0 .8-.627 1.448-1.398 1.448H11.152l-.137.113-3.98 3.255v-3.367h-2.33c-.77 0-1.397-.65-1.397-1.447V1.95c0-.8.627-1.45 1.397-1.45h13.397m0-.5H4.705C3.66 0 2.808.875 2.808 1.95v12.18c0 1.08.85 1.948 1.897 1.948h1.83V20l4.797-3.922h6.77c1.048 0 1.898-.87 1.898-1.947V1.95C20 .875 19.15 0 18.102 0z" fill="#aaa"/><path fill="none" stroke="#fff" stroke-width="2" stroke-linecap="round" stroke-linejoin="round" stroke-miterlimit="10" d="M12.857 8.528l-5.4-4.54v2.87H1v3.34h6.458v2.87z"/><path fill="#378DD7" d="M12.857 8.528l-5.4-4.54v2.87H1v3.34h6.458v2.87z"/></g></svg>