<?xml version="1.0" encoding="iso-8859-1"?><svg xmlns="http://www.w3.org/2000/svg" viewBox="0 0 20 20" enable-background="new 0 0 20 20"><g><path fill="none" d="M0 0h20v20H0z"/><path d="M14.8 0H4.734c-.64 0-1.16.52-1.16 1.16V18.84c0 .64.52 1.16 1.16 1.16H14.8c.64 0 1.158-.52 1.158-1.16V1.16c0-.64-.52-1.16-1.16-1.16zM9.766 18.807c-.722 0-1.308-.586-1.308-1.308 0-.723.585-1.31 1.307-1.31s1.308.586 1.308 1.31c0 .72-.586 1.307-1.308 1.307zm4.73-4c0 .204-.164.37-.368.37H5.404c-.204 0-.37-.166-.37-.37V2.26c0-.204.166-.37.37-.37h8.724c.203 0 .368.166.368.37v12.547z" fill="#aaa"/><path d="M13.024 3.254H6.456c-.148 0-.27.14-.27.31v9.942c0 .17.122.308.27.308h6.567c.15 0 .272-.137.272-.308v-9.94c0-.172-.122-.312-.27-.312z" fill="#448CCA"/><path d="M10.457 12.07c-.193.193-.43.29-.704.29-.276 0-.51-.097-.704-.29-.196-.194-.29-.428-.29-.704 0-.277.095-.51.29-.703.192-.193.427-.29.703-.29.275 0 .51.097.704.29.193.194.29.427.29.703 0 .276-.097.51-.29.704zM10.652 6.21c-.063.243-.177.643-.342 1.198-.1.335-.167.612-.203.835-.037.223-.096.43-.176 1.102h-.338c-.11-.847-.185-1.13-.224-1.328-.037-.2-.114-.478-.23-.84-.145-.457-.24-.764-.28-.916-.066-.238-.098-.425-.098-.56 0-.405.098-.692.295-.862.197-.17.43-.253.698-.253.26 0 .49.083.692.25.2.168.302.444.302.828 0 .12-.032.303-.095.547z" fill="#fff"/></g></svg>