<?xml version="1.0" encoding="iso-8859-1"?><svg xmlns="http://www.w3.org/2000/svg" width="20" height="20.001" viewBox="0 0 20 20.001"><path fill="none" d="M0 .001h20v20H0z"/><linearGradient id="a" gradientUnits="userSpaceOnUse" x1="10.001" x2="10.001" y2="20"><stop offset="0" stop-color="#9dabb4"/><stop offset=".192" stop-color="#99a7b0"/><stop offset=".391" stop-color="#8f9ba3"/><stop offset=".593" stop-color="#7d878f"/><stop offset=".797" stop-color="#646c72"/><stop offset="1" stop-color="#45494d"/></linearGradient><path d="M14.973 0H5.028a3.01 3.01 0 0 0-3 3v14c0 1.65 1.351 3 3 3h9.944c1.65 0 3-1.35 3-3V3a3.008 3.008 0 0 0-2.999-3zm-8 18h-2v-2h2v2zm0-3h-2v-2h2v2zm0-3h-2v-2h2v2zm4 6h-2v-2h2v2zm0-3h-2v-2h2v2zm0-3h-2v-2h2v2zm4 6h-2v-2h2v2zm0-3h-2v-2h2v2zm0-3h-2v-2h2v2zm0-5c0 .55-.45 1-1 1h-8c-.55 0-1-.45-1-1V3c0-.55.45-1 1-1h8c.55 0 1 .45 1 1v4z" fill="url(#a)"/></svg>