<svg xmlns="http://www.w3.org/2000/svg" width="20" height="20" viewBox="0 0 20 20"><g><path fill="none" d="M0 0h20v20H0z"/><path d="M15.155 1.812H4.842c-.232 0-.423.19-.423.427v13.615c0 .233.19.424.422.424h10.313c.235 0 .427-.19.427-.425V2.24c0-.236-.19-.428-.427-.428z" fill="none"/><path d="M15.155 0H4.842C3.402 0 2.96.44 2.96 1.88v15.515c0 .893-.07 2.605 7.618 2.605h.292c6.237 0 6.17-1.575 6.17-2.605V1.88C17.04.44 16.595 0 15.155 0zM10 19.5c-.552 0-1-.448-1-1 0-.553.448-1 1-1s1 .447 1 1c0 .552-.448 1-1 1zm5.582-3.645c0 .233-.19.424-.427.424H4.842c-.233 0-.423-.19-.423-.425V2.24c0-.236.19-.428.422-.428h10.313c.235 0 .427.19.427.43v13.613z" fill="#aaa"/><path d="M14.305 3.1H5.693c-.195 0-.353.158-.353.355v11.37c0 .194.16.352.353.352h8.612c.196 0 .356-.157.356-.353V3.457c0-.198-.16-.357-.355-.357zm-3.487 10.084c-.22.222-.49.33-.805.33-.315 0-.584-.108-.805-.33-.222-.223-.332-.49-.332-.805 0-.317.11-.585.332-.807.22-.222.49-.332.805-.332.315 0 .584.11.805.333.222.222.332.49.332.806 0 .313-.11.58-.332.804zm.225-6.562c-.072.3-.203.792-.39 1.476-.115.41-.192.754-.234 1.027s-.11.527-.2 1.355h-.39c-.126-1.042-.21-1.39-.255-1.635s-.13-.59-.263-1.03c-.167-.566-.274-.942-.32-1.13-.076-.294-.113-.525-.113-.69 0-.5.112-.855.337-1.062.226-.21.492-.312.8-.312.296 0 .56.105.79.31.23.206.345.547.345 1.02-.002.148-.037.372-.11.672z" fill="#448CCA"/></g></svg>