<?xml version="1.0" encoding="iso-8859-1"?><svg xmlns="http://www.w3.org/2000/svg" viewBox="0 0 21 20"><path fill="none" d="M.5 0h20v20H.5z"/><path d="M12.957 18.343c0 .55-.45 1-1 1H1.5c-.55 0-1-.45-1-1V7.886c0-.55.45-1 1-1h10.457c.55 0 1 .45 1 1v10.457z" fill="#d9d9d9"/><path d="M12.957 18.343c0 .55-.45 1-1 1H1.5c-.55 0-1-.45-1-1V7.886c0-.55.45-1 1-1h10.457c.55 0 1 .45 1 1v10.457z" fill="none" stroke="#fff"/><path d="M16.751 15.196c0 .55-.45 1-1 1H5.295c-.55 0-1-.45-1-1V4.739c0-.55.45-1 1-1h10.457c.55 0 1 .45 1 1v10.457z" fill="#bfbfbf"/><path d="M16.751 15.196c0 .55-.45 1-1 1H5.295c-.55 0-1-.45-1-1V4.739c0-.55.45-1 1-1h10.457c.55 0 1 .45 1 1v10.457z" fill="none" stroke="#fff"/><g><path d="M20.5 12.115c0 .55-.45 1-1 1H9.043c-.55 0-1-.45-1-1V1.657c0-.55.45-1 1-1H19.5c.55 0 1 .45 1 1v10.458z" fill="#999"/><path d="M20.5 12.115c0 .55-.45 1-1 1H9.043c-.55 0-1-.45-1-1V1.657c0-.55.45-1 1-1H19.5c.55 0 1 .45 1 1v10.458z" fill="none" stroke="#fff"/></g><path fill="#fff" d="M20.236 9.173l-6.247-5.437 1.125 8.206 1.56-1.741 1.707 3.064 1.191-.665-1.709-3.068z"/></svg>