<svg xmlns="http://www.w3.org/2000/svg" width="20" height="20" viewBox="0 0 20 20"><g><path fill="none" d="M0 0h20v20H0z"/><path d="M15.155 1.812H4.842c-.232 0-.423.19-.423.427v13.615c0 .233.19.424.422.424h10.313c.235 0 .427-.19.427-.425V2.24c0-.236-.19-.428-.427-.428z" fill="none"/><path d="M15.155 0H4.842C3.402 0 2.96.44 2.96 1.88v15.515c0 .893-.07 2.605 7.618 2.605h.292c6.237 0 6.17-1.575 6.17-2.605V1.88C17.04.44 16.595 0 15.155 0zM10 19.5c-.552 0-1-.448-1-1 0-.553.448-1 1-1s1 .447 1 1c0 .552-.448 1-1 1zm5.582-3.645c0 .233-.19.424-.427.424H4.842c-.233 0-.423-.19-.423-.425V2.24c0-.236.19-.428.422-.428h10.313c.235 0 .427.19.427.43v13.613z" fill="#aaa"/><path d="M13.314 2.654h-7.28c-.43 0-.782.35-.782.78v.76l.002.046v.31c0 .19-.108.35-.27.427.21-.004.403-.062.568-.168.13.104.3.167.482.167h7.278c.433 0 .78-.35.78-.78v-.76c.003-.433-.345-.783-.778-.783M11.216 9.56h-5.18c-.432 0-.784.31-.784.737l.002.047v.31c0 .19-.108.352-.27.426.21-.004.403-.062.568-.166.13.104.3.168.482.168h5.18c.433 0 .783-.35.783-.783 0-.433-.35-.74-.78-.74" fill="#48AB4A"/><path d="M8.77 6.434h5.25c.438 0 .794.308.794.736l-.002.047v.31c0 .19.11.352.272.428-.21-.005-.407-.063-.575-.168-.134.104-.305.168-.49.168H8.77c-.437 0-.792-.35-.792-.783 0-.432.355-.738.792-.738M14.814 14.766v-1.272c0-.433-.35-.78-.78-.78H6.037c-.433 0-.78.35-.78.78v.914c0 .432.347.782.78.782h7.995c.182 0 .35-.062.482-.168.166.103.36.162.568.168-.157-.077-.27-.24-.27-.424" fill="#378DD7"/></g></svg>