<?xml version="1.0" encoding="iso-8859-1"?><svg xmlns="http://www.w3.org/2000/svg" viewBox="0 0 20 20"><path fill="none" d="M0 0h20v20H0z"/><path d="M14.799 0H4.735a1.16 1.16 0 0 0-1.159 1.159v17.683c0 .64.519 1.159 1.159 1.159h10.064a1.16 1.16 0 0 0 1.159-1.159V1.159A1.16 1.16 0 0 0 14.799 0zM9.767 18.807a1.308 1.308 0 1 1 .001-2.617 1.308 1.308 0 0 1-.001 2.617zm4.731-4a.369.369 0 0 1-.369.369H5.405a.369.369 0 0 1-.369-.369V2.26c0-.204.165-.369.369-.369h8.724c.204 0 .369.165.369.369v12.547z" fill="#aaa"/><path d="M12.583 3.254H6.365a.668.668 0 0 0-.668.667v.65l.002.038v.265a.4.4 0 0 1-.229.363.924.924 0 0 0 .484-.143c.113.09.255.143.412.143h6.218c.37 0 .667-.299.667-.666v-.65a.668.668 0 0 0-.668-.667M10.791 9.153H6.365c-.368 0-.668.262-.668.63l.002.039v.266c0 .16-.093.298-.229.362a.924.924 0 0 0 .484-.143.663.663 0 0 0 .412.144h4.426a.667.667 0 0 0 .667-.668c-.001-.368-.3-.63-.668-.63" fill="#48ab4a"/><path d="M8.7 6.483h4.486c.373 0 .677.262.677.629l-.002.04v.265c0 .161.095.299.234.363a.952.952 0 0 1-.492-.143.675.675 0 0 1-.417.144H8.7a.673.673 0 0 1-.677-.669c.001-.367.304-.629.677-.629M13.864 13.599v-1.088a.667.667 0 0 0-.667-.667H6.368a.667.667 0 0 0-.667.667v.782c0 .369.298.669.667.669h6.829a.656.656 0 0 0 .411-.144.963.963 0 0 0 .487.143.4.4 0 0 1-.231-.362" fill="#378dd7"/></svg>