<svg xmlns="http://www.w3.org/2000/svg" width="20" height="20" viewBox="0 0 20 20"><g><path fill="none" d="M0 0h20v20H0z"/><path fill="none" d="M15.156 1.814H4.843c-.232 0-.423.19-.423.426v13.616c0 .233.19.423.423.423h10.313c.234 0 .426-.19.426-.424V2.242c0-.237-.19-.428-.426-.428z"/><path fill="#aaa" d="M15.156 0H4.843C3.405 0 2.96.443 2.96 1.88v15.515C2.96 18.29 2.89 20 10.58 20h.293c6.237 0 6.17-1.575 6.17-2.605V1.88C17.04.443 16.597 0 15.157 0zM10 19.5c-.552 0-1-.447-1-1 0-.552.448-1 1-1 .553 0 1 .448 1 1s-.447 1-1 1zm5.582-3.644c0 .233-.19.423-.426.423H4.843c-.233 0-.423-.19-.423-.424V2.24c0-.234.19-.426.423-.426h10.313c.234 0 .426.19.426.428v13.614z"/><path fill="#448CCA" d="M14.307 3.1H5.694c-.194 0-.353.16-.353.355v11.37c0 .195.16.353.354.353h8.613c.195 0 .355-.156.355-.352V3.456c0-.197-.16-.356-.355-.356zM10.82 13.184c-.22.22-.49.33-.806.33-.314 0-.584-.11-.805-.33-.224-.222-.333-.49-.333-.806 0-.315.11-.582.332-.805.22-.22.488-.332.804-.332.314 0 .584.112.806.333.22.223.332.488.332.805 0 .315-.11.584-.332.806zm.223-6.56c-.072.298-.202.79-.39 1.475-.114.41-.192.753-.233 1.025-.043.274-.11.528-.2 1.356h-.39c-.127-1.04-.21-1.39-.256-1.634-.043-.246-.13-.59-.262-1.032-.167-.564-.274-.94-.322-1.13-.074-.293-.11-.522-.11-.688 0-.5.11-.854.337-1.062.226-.208.492-.312.8-.312.296 0 .56.104.79.31.23.206.346.546.346 1.02 0 .146-.038.37-.11.67z"/></g></svg>