<svg xmlns="http://www.w3.org/2000/svg" width="20" height="20" viewBox="0 0 20 20"><g><path fill="none" d="M0 0h20v20H0z"/><path fill="none" d="M15.156 1.814H4.843c-.232 0-.423.19-.423.426v13.616c0 .233.19.423.423.423h10.313c.234 0 .426-.19.426-.424V2.242c0-.237-.19-.428-.426-.428z"/><path fill="#aaa" d="M15.156 0H4.843C3.405 0 2.96.443 2.96 1.88v15.515C2.96 18.29 2.89 20 10.58 20h.293c6.237 0 6.17-1.575 6.17-2.605V1.88C17.04.443 16.597 0 15.157 0zM10 19.5c-.552 0-1-.447-1-1 0-.552.448-1 1-1 .553 0 1 .448 1 1s-.447 1-1 1zm5.582-3.644c0 .233-.19.423-.426.423H4.843c-.233 0-.423-.19-.423-.424V2.24c0-.234.19-.426.423-.426h10.313c.234 0 .426.19.426.428v13.614z"/><path fill="#48AB4A" d="M13.314 2.654h-7.28c-.43 0-.78.352-.78.78v1.118c0 .19-.107.35-.268.426.207-.005.4-.062.566-.168.132.105.3.167.482.167h7.278c.434 0 .78-.35.78-.78v-.76c.004-.432-.345-.783-.778-.783M11.217 9.56H6.035c-.43 0-.782.31-.782.738l.002.045v.312c0 .188-.108.35-.27.424.208-.005.402-.063.567-.167.132.104.3.168.482.168h5.182c.433 0 .78-.35.78-.782.002-.43-.348-.737-.78-.737"/><path fill="#378DD7" d="M8.77 6.435h5.25c.44 0 .794.307.794.736l-.002.048v.31c0 .19.11.35.273.427-.21-.004-.407-.062-.576-.168-.134.104-.304.168-.49.168H8.77c-.437 0-.792-.35-.792-.783 0-.43.355-.737.792-.737M14.814 14.766v-1.272c0-.432-.35-.78-.78-.78H6.04c-.433 0-.78.35-.78.78v.914c0 .432.348.783.78.783h7.994c.182 0 .35-.06.48-.168.166.103.36.163.57.168-.158-.076-.27-.237-.27-.424"/></g></svg>