<?xml version="1.0" encoding="iso-8859-1"?><svg xmlns="http://www.w3.org/2000/svg" viewBox="0 0 21 20" enable-background="new 0 0 21 20"><g><path fill="none" d="M.5 0h20v20H.5z"/><path d="M12.957 18.343c0 .55-.45 1-1 1H1.5c-.55 0-1-.45-1-1V7.886c0-.55.45-1 1-1h10.457c.55 0 1 .45 1 1v10.457z" fill="#D9D9D9"/><path d="M12.957 18.343c0 .55-.45 1-1 1H1.5c-.55 0-1-.45-1-1V7.886c0-.55.45-1 1-1h10.457c.55 0 1 .45 1 1v10.457z" stroke="#fff" fill="none"/><path d="M16.75 15.196c0 .55-.45 1-1 1H5.296c-.55 0-1-.45-1-1V4.74c0-.55.45-1 1-1h10.457c.55 0 1 .45 1 1v10.456z" fill="#BFBFBF"/><path d="M16.75 15.196c0 .55-.45 1-1 1H5.296c-.55 0-1-.45-1-1V4.74c0-.55.45-1 1-1h10.457c.55 0 1 .45 1 1v10.456z" stroke="#fff" fill="none"/><path d="M20.5 12.115c0 .55-.45 1-1 1H9.043c-.55 0-1-.45-1-1V1.657c0-.55.45-1 1-1H19.5c.55 0 1 .45 1 1v10.458z" fill="#999"/><path d="M20.5 12.115c0 .55-.45 1-1 1H9.043c-.55 0-1-.45-1-1V1.657c0-.55.45-1 1-1H19.5c.55 0 1 .45 1 1v10.458z" stroke="#fff" fill="none"/><path fill="#fff" d="M20.236 9.173L13.99 3.736l1.124 8.206 1.56-1.74 1.707 3.063 1.192-.665-1.71-3.068z"/></g></svg>