<?xml version="1.0" encoding="iso-8859-1"?><svg xmlns="http://www.w3.org/2000/svg" viewBox="0 0 20 20"><path fill="none" d="M0 0h20v20H0z"/><path d="M14.799 0H4.735a1.16 1.16 0 0 0-1.159 1.159v17.683c0 .64.519 1.159 1.159 1.159h10.064a1.16 1.16 0 0 0 1.159-1.159V1.159A1.16 1.16 0 0 0 14.799 0zM9.767 18.807a1.308 1.308 0 1 1 .001-2.617 1.308 1.308 0 0 1-.001 2.617zm4.731-4a.369.369 0 0 1-.369.369H5.405a.369.369 0 0 1-.369-.369V2.26c0-.204.165-.369.369-.369h8.724c.204 0 .369.165.369.369v12.547z" fill="#aaa"/><path d="M13.024 3.254H6.456c-.148 0-.269.139-.269.311v9.941c0 .171.121.308.269.308h6.567c.15 0 .272-.137.272-.308v-9.94c0-.172-.122-.312-.271-.312z" fill="#448cca"/><path d="M10.457 12.07a.96.96 0 0 1-.704.289.958.958 0 0 1-.704-.289.953.953 0 0 1-.29-.704c0-.277.096-.51.29-.703a.96.96 0 0 1 .704-.29.96.96 0 0 1 .704.29c.193.194.29.427.29.703a.955.955 0 0 1-.29.704zM10.652 6.21c-.063.243-.177.643-.342 1.198a7.006 7.006 0 0 0-.203.835c-.037.223-.096.429-.176 1.102h-.339c-.111-.847-.185-1.129-.224-1.328a7.504 7.504 0 0 0-.229-.839c-.146-.458-.24-.765-.282-.917A2.289 2.289 0 0 1 8.76 5.7c0-.405.098-.692.295-.862.197-.169.43-.253.698-.253.26 0 .491.083.692.251.201.167.302.443.302.827.001.12-.032.303-.095.547z" fill="#fff"/></svg>