<?xml version="1.0" encoding="iso-8859-1"?><svg xmlns="http://www.w3.org/2000/svg" viewBox="0 0 20 20" enable-background="new 0 0 20 20"><g><path fill="none" d="M0 0h20v20H0z"/><path d="M14.8 0H4.734c-.64 0-1.16.52-1.16 1.16V18.84c0 .64.52 1.16 1.16 1.16H14.8c.64 0 1.158-.52 1.158-1.16V1.16c0-.64-.52-1.16-1.16-1.16zM9.766 18.807c-.722 0-1.308-.586-1.308-1.308s.585-1.31 1.307-1.31 1.308.587 1.308 1.31-.586 1.307-1.308 1.307zm4.73-4c0 .204-.164.37-.368.37H5.404c-.204 0-.37-.166-.37-.37V2.26c0-.204.166-.37.37-.37h8.724c.203 0 .368.166.368.37v12.547z" fill="#666"/></g></svg>