<svg xmlns="http://www.w3.org/2000/svg" width="20" height="20.001" viewBox="0 0 20 20.001"><g><path fill="none" d="M0 0h20v20H0z"/><linearGradient id="a" gradientUnits="userSpaceOnUse" x1="10.001" x2="10.001" y2="20"><stop offset="0" stop-color="#9DABB4"/><stop offset=".192" stop-color="#99A7B0"/><stop offset=".391" stop-color="#8F9BA3"/><stop offset=".593" stop-color="#7D878F"/><stop offset=".797" stop-color="#646C72"/><stop offset="1" stop-color="#45494D"/></linearGradient><path d="M14.973 0H5.028c-1.65 0-3 1.35-3 3v14c0 1.65 1.35 3 3 3h9.944c1.65 0 3-1.35 3-3V3c0-1.65-1.35-3-3-3zm-8 18h-2v-2h2v2zm0-3h-2v-2h2v2zm0-3h-2v-2h2v2zm4 6h-2v-2h2v2zm0-3h-2v-2h2v2zm0-3h-2v-2h2v2zm4 6h-2v-2h2v2zm0-3h-2v-2h2v2zm0-3h-2v-2h2v2zm0-5c0 .55-.45 1-1 1h-8c-.55 0-1-.45-1-1V3c0-.55.45-1 1-1h8c.55 0 1 .45 1 1v4z" fill="url(#a)"/></g></svg>