<?xml version="1.0" encoding="iso-8859-1"?><svg xmlns="http://www.w3.org/2000/svg" viewBox="0 0 20 20"><path fill="none" d="M0 0h20v20H0z"/><path d="M14.799 0H4.735a1.16 1.16 0 0 0-1.159 1.159v17.683c0 .64.519 1.159 1.159 1.159h10.064a1.16 1.16 0 0 0 1.159-1.159V1.159A1.16 1.16 0 0 0 14.799 0zM9.767 18.807a1.308 1.308 0 1 1 .001-2.617 1.308 1.308 0 0 1-.001 2.617zm4.731-4a.369.369 0 0 1-.369.369H5.405a.369.369 0 0 1-.369-.369V2.26c0-.204.165-.369.369-.369h8.724c.204 0 .369.165.369.369v12.547z" fill="#fff"/></svg>