<?xml version="1.0" encoding="iso-8859-1"?><svg xmlns="http://www.w3.org/2000/svg" viewBox="0 0 20 20" enable-background="new 0 0 20 20"><g><path fill="none" d="M0 0h20v20H0z"/><path fill="#ACACAC" d="M15.67 5.573l2.888-2.888H9.51l2.913 2.888zM17.144 5.552L20 8.45V2.696zM8.092 2.678v2.895h2.9zM17.178 9.23h2.394l-2.394-2.397zM11.57 9.672l2.89-2.888.006-.007-9.055.007 2.913 2.888zM15.87 12.52V6.824l-2.826 2.827zM3.992 6.777v2.895H6.89zM13.044 13.33h2.43l-2.43-2.432zM15.87 6.777v.005l.006-.005h-.005zM0 10.777v5.746l2.856-2.897zM6.427 16.23l-.107.106c-.014.016-.028.03-.044.044-.09.08-.204.13-.333.13s-.244-.05-.333-.13c-.016-.014-.03-.028-.044-.044l-.107-.107-1.982-1.985-3.073 3.078h11.077L8.41 14.245 6.426 16.23zM10.474 10.777H1.418l4.544 4.504zM11.908 16.54v-5.748l-2.856 2.852z"/></g></svg>