<?xml version="1.0" encoding="iso-8859-1"?><svg xmlns="http://www.w3.org/2000/svg" viewBox="0 0 20 20"><path fill="none" d="M0 0h20v20H0z"/><path fill="#acacac" d="M15.67 5.573l2.888-2.888H9.51l2.913 2.888zM17.144 5.552L20 8.45V2.696zM8.092 2.678v2.895h2.899zM17.178 9.231h2.394l-2.394-2.398zM11.571 9.672l2.888-2.888.007-.007-9.055.007 2.912 2.888zM15.871 12.519V6.825l-2.827 2.827zM3.992 6.777v2.895H6.89zM13.044 13.33h2.429l-2.429-2.432zM15.871 6.777v.005l.005-.005h.001-.006zM0 10.777v5.746l2.856-2.897zM6.427 16.229l-.107.107a.503.503 0 0 1-.377.175.5.5 0 0 1-.377-.175l-.107-.107-1.981-1.984-3.073 3.078h11.077l-3.073-3.078-1.982 1.984z"/><path fill="#acacac" d="M10.474 10.777H1.418l4.544 4.504zM11.908 16.541v-5.749l-2.856 2.852z"/></svg>