<?xml version="1.0" encoding="iso-8859-1"?><svg xmlns="http://www.w3.org/2000/svg" width="20" height="20" viewBox="0 0 20 20"><path d="M19.458 0H11.5c-.333 0-.667.208-.667.541v1.25c0 .334.292.709.667.709h3.292c.375 0 .584.416.292.666L8 10.25a.604.604 0 0 0 0 .875l.875.875c.25.25.625.25.876 0l7.083-7.084c.25-.25.666-.082.666.292V8.5c0 .333.333.709.667.709h1.208c.333 0 .625-.376.625-.709V.584C20 .208 19.792 0 19.458 0zm-5.166 9.792l-1.417 1.458c-.25.25-.375.541-.375.875v4.75a.64.64 0 0 1-.625.625h-8.75a.64.64 0 0 1-.625-.625v-8.75a.64.64 0 0 1 .625-.625h4.792c.333 0 .666-.125.875-.375l1.416-1.416c.25-.251.084-.709-.292-.709H1.667C.75 5 0 5.75 0 6.667v11.666C0 19.25.75 20 1.667 20h11.666C14.25 20 15 19.25 15 18.333v-8.249c0-.376-.458-.542-.708-.292z" fill="#4e89bd"/></svg>