<?xml version="1.0" encoding="iso-8859-1"?><svg xmlns="http://www.w3.org/2000/svg" width="20" height="20" viewBox="0 0 20 20"><path d="M19.458 0H11.5c-.333 0-.667.208-.667.54v1.25c0 .335.292.71.667.71h3.292c.375 0 .584.416.292.666L8 10.25c-.25.25-.25.625 0 .875l.875.875c.25.25.625.25.876 0l7.084-7.084c.25-.25.666-.082.666.292V8.5c0 .333.333.71.667.71h1.208c.333 0 .625-.377.625-.71V.584C20 .208 19.792 0 19.458 0zm-5.166 9.792l-1.417 1.458c-.25.25-.375.54-.375.875v4.75c0 .334-.292.625-.625.625h-8.75c-.333 0-.625-.29-.625-.625v-8.75c0-.334.292-.625.625-.625h4.792c.333 0 .666-.125.875-.375l1.416-1.416c.25-.252.084-.71-.292-.71h-8.25C.75 5 0 5.75 0 6.667v11.666C0 19.25.75 20 1.667 20h11.666C14.25 20 15 19.25 15 18.333v-8.25c0-.375-.458-.54-.708-.29z" fill="#4E89BD"/></svg>