<?xml version="1.0" encoding="utf-8"?><svg xmlns="http://www.w3.org/2000/svg" width="20" height="20" viewBox="0 0 20 20"><path fill="#5A8BC1" d="M19.833.638c-.166-.167-.333-.167-.5-.083l-19 7.5c-.166.083-.333.25-.333.416s.083.417.333.5l6.584 2.75v7.084c0 .25.166.416.333.5h.167a.637.637 0 0 0 .416-.167l3.667-4.667 3.083 1.917c.084.083.167.083.25.083H15a.645.645 0 0 0 .333-.333L20 1.221c0-.25 0-.416-.167-.583zm-3 2l-9.5 8.083-5.416-2.25 14.916-5.833zM7.917 17.221v-5l2.666 1.584-2.666 3.416zm6.583-2.166l-6.25-3.834L18.5 2.555l-4 12.5z"/><path fill="none" d="M0 0h20v20H0z"/></svg>