<?xml version="1.0" encoding="iso-8859-1"?><svg xmlns="http://www.w3.org/2000/svg" width="20" height="20" viewBox="0 0 20 20"><path fill="none" d="M0 0h20v20H0z"/><linearGradient id="a" gradientUnits="userSpaceOnUse" x1=".167" y1="20" x2="3.759" y2="16.408"><stop offset="0" stop-color="#58595b"/><stop offset=".163" stop-color="#5a5b5c"/><stop offset=".222" stop-color="#616161"/><stop offset=".264" stop-color="#6c6d69"/><stop offset=".297" stop-color="#7d7d74"/><stop offset=".327" stop-color="#939383"/><stop offset=".352" stop-color="#afad96"/><stop offset=".375" stop-color="#cfccac"/><stop offset=".396" stop-color="#f3efc5"/><stop offset=".4" stop-color="#fbf7ca"/><stop offset=".995" stop-color="#fbf7ca"/></linearGradient><path fill-rule="evenodd" clip-rule="evenodd" fill="url(#a)" d="M6.665 20H0v-6.332l.334-.301 6.331 6.332z"/><linearGradient id="b" gradientUnits="userSpaceOnUse" x1="5.468" y1="8.6" x2="11.87" y2="15.002"><stop offset="0" stop-color="#a1c8e6"/><stop offset=".033" stop-color="#96c1e3"/><stop offset=".135" stop-color="#78aeda"/><stop offset=".242" stop-color="#619fd3"/><stop offset=".358" stop-color="#5194ce"/><stop offset=".487" stop-color="#478ecb"/><stop offset=".655" stop-color="#448cca"/><stop offset=".92" stop-color="#428bc9"/><stop offset="1" stop-color="#3d88c8"/></linearGradient><path fill-rule="evenodd" clip-rule="evenodd" fill="url(#b)" d="M6.595 19.926L16.733 9.668l-6.401-6.402L.191 13.334z"/><path d="M10.332 3.445l6.221 6.223-9.958 10.074-6.221-6.406 9.958-9.891m0-.179L.191 13.334l6.403 6.592L16.733 9.668l-6.401-6.402z" fill="#448cca"/><linearGradient id="c" gradientUnits="userSpaceOnUse" x1="12.94" y1="1.273" x2="19.159" y2="7.493"><stop offset="0" stop-color="#a1c8e6"/><stop offset=".033" stop-color="#96c1e3"/><stop offset=".135" stop-color="#78aeda"/><stop offset=".242" stop-color="#619fd3"/><stop offset=".358" stop-color="#5194ce"/><stop offset=".487" stop-color="#478ecb"/><stop offset=".655" stop-color="#448cca"/><stop offset=".92" stop-color="#428bc9"/><stop offset="1" stop-color="#3d88c8"/></linearGradient><path fill-rule="evenodd" clip-rule="evenodd" fill="url(#c)" d="M11.756 1.932L13.597.09l6.311 6.312-1.842 1.84z"/><path d="M13.597.182l6.221 6.221-1.751 1.75-6.221-6.221 1.751-1.75m0-.182l-1.932 1.932 6.401 6.402L20 6.402 13.597 0z" fill="#448cca"/></svg>