<svg xmlns="http://www.w3.org/2000/svg" width="20" height="20" viewBox="0 0 20 20"><g><path fill="none" d="M0 0h20v20H0z"/><linearGradient id="a" gradientUnits="userSpaceOnUse" x1=".167" y1="20" x2="3.759" y2="16.408"><stop offset="0" stop-color="#58595B"/><stop offset=".163" stop-color="#5A5B5C"/><stop offset=".222" stop-color="#616161"/><stop offset=".264" stop-color="#6C6D69"/><stop offset=".297" stop-color="#7D7D74"/><stop offset=".327" stop-color="#939383"/><stop offset=".352" stop-color="#AFAD96"/><stop offset=".375" stop-color="#CFCCAC"/><stop offset=".396" stop-color="#F3EFC5"/><stop offset=".4" stop-color="#FBF7CA"/><stop offset=".995" stop-color="#FBF7CA"/></linearGradient><path fill-rule="evenodd" clip-rule="evenodd" fill="url(#a)" d="M6.665 20H0v-6.332l.334-.3 6.33 6.33z"/><linearGradient id="b" gradientUnits="userSpaceOnUse" x1="5.468" y1="8.6" x2="11.87" y2="15.002"><stop offset="0" stop-color="#A1C8E6"/><stop offset=".033" stop-color="#96C1E3"/><stop offset=".135" stop-color="#78AEDA"/><stop offset=".242" stop-color="#619FD3"/><stop offset=".358" stop-color="#5194CE"/><stop offset=".487" stop-color="#478ECB"/><stop offset=".655" stop-color="#448CCA"/><stop offset=".92" stop-color="#428BC9"/><stop offset="1" stop-color="#3D88C8"/></linearGradient><path fill-rule="evenodd" clip-rule="evenodd" fill="url(#b)" d="M6.595 19.926L16.733 9.668l-6.4-6.402L.19 13.334z"/><path d="M10.332 3.445l6.22 6.223-9.957 10.074-6.22-6.406 9.957-9.89m0-.18L.192 13.334l6.402 6.592 10.14-10.258-6.402-6.402z" fill="#448CCA"/><linearGradient id="c" gradientUnits="userSpaceOnUse" x1="12.94" y1="1.273" x2="19.159" y2="7.493"><stop offset="0" stop-color="#A1C8E6"/><stop offset=".033" stop-color="#96C1E3"/><stop offset=".135" stop-color="#78AEDA"/><stop offset=".242" stop-color="#619FD3"/><stop offset=".358" stop-color="#5194CE"/><stop offset=".487" stop-color="#478ECB"/><stop offset=".655" stop-color="#448CCA"/><stop offset=".92" stop-color="#428BC9"/><stop offset="1" stop-color="#3D88C8"/></linearGradient><path fill-rule="evenodd" clip-rule="evenodd" fill="url(#c)" d="M11.756 1.932L13.596.09l6.312 6.312-1.842 1.84z"/><path d="M13.597.182l6.22 6.22-1.75 1.75-6.22-6.22 1.75-1.75m0-.182l-1.932 1.932 6.4 6.402L20 6.402 13.597 0z" fill="#448CCA"/></g></svg>