<svg xmlns="http://www.w3.org/2000/svg" width="20" height="20" viewBox="0 0 20 20"><g><path fill="none" d="M0 0h20v20H0z"/><linearGradient id="a" gradientUnits="userSpaceOnUse" x1=".167" y1="20" x2="3.759" y2="16.408"><stop offset="0" stop-color="#58595B"/><stop offset=".17" stop-color="#5A5B5D"/><stop offset=".231" stop-color="#616263"/><stop offset=".274" stop-color="#6C6D6F"/><stop offset=".309" stop-color="#7D7E7F"/><stop offset=".34" stop-color="#939495"/><stop offset=".366" stop-color="#AFAFAF"/><stop offset=".39" stop-color="#CECECE"/><stop offset=".4" stop-color="#DEDEDD"/><stop offset=".995" stop-color="#DEDEDD"/></linearGradient><path fill-rule="evenodd" clip-rule="evenodd" fill="url(#a)" d="M6.665 20H0v-6.332l.332-.3 6.335 6.33z"/><linearGradient id="b" gradientUnits="userSpaceOnUse" x1="5.468" y1="8.6" x2="11.871" y2="15.003"><stop offset="0" stop-color="#C6C5C5"/><stop offset=".11" stop-color="#B5B4B4"/><stop offset=".262" stop-color="#A5A4A4"/><stop offset=".432" stop-color="#9B9B9B"/><stop offset=".655" stop-color="#989898"/><stop offset=".951" stop-color="#989898"/><stop offset="1" stop-color="#989898"/></linearGradient><path fill-rule="evenodd" clip-rule="evenodd" fill="url(#b)" d="M6.596 19.926L16.732 9.668l-6.4-6.402L.192 13.334z"/><path d="M10.33 3.445l6.223 6.223-9.957 10.074-6.224-6.406 9.96-9.89m0-.18L.192 13.334l6.403 6.592L16.732 9.668l-6.4-6.402z" fill="#989898"/><linearGradient id="c" gradientUnits="userSpaceOnUse" x1="12.898" y1="1.233" x2="19.207" y2="7.542"><stop offset="0" stop-color="#C6C5C5"/><stop offset=".11" stop-color="#B5B4B4"/><stop offset=".262" stop-color="#A5A4A4"/><stop offset=".432" stop-color="#9B9B9B"/><stop offset=".655" stop-color="#989898"/><stop offset=".951" stop-color="#989898"/><stop offset="1" stop-color="#989898"/></linearGradient><path fill-rule="evenodd" clip-rule="evenodd" fill="url(#c)" d="M18.066 8.334L20 6.402 13.598 0l-1.933 1.932z"/><path d="M13.598.182l6.22 6.22-1.75 1.75-6.22-6.22 1.75-1.75m0-.182l-1.933 1.932 6.4 6.402L20 6.402 13.598 0z" fill="#989898"/></g></svg>