<?xml version="1.0" encoding="iso-8859-1"?><svg xmlns="http://www.w3.org/2000/svg" width="20" height="20" viewBox="0 0 20 20"><path fill="none" d="M0 0h20v20H0z"/><linearGradient id="a" gradientUnits="userSpaceOnUse" x1=".167" y1="20" x2="3.759" y2="16.408"><stop offset="0" stop-color="#58595b"/><stop offset=".17" stop-color="#5a5b5d"/><stop offset=".231" stop-color="#616263"/><stop offset=".274" stop-color="#6c6d6f"/><stop offset=".309" stop-color="#7d7e7f"/><stop offset=".34" stop-color="#939495"/><stop offset=".366" stop-color="#afafaf"/><stop offset=".39" stop-color="#cecece"/><stop offset=".4" stop-color="#dededd"/><stop offset=".995" stop-color="#dededd"/></linearGradient><path fill-rule="evenodd" clip-rule="evenodd" fill="url(#a)" d="M6.665 20H0v-6.332l.332-.301 6.335 6.332z"/><linearGradient id="b" gradientUnits="userSpaceOnUse" x1="5.468" y1="8.6" x2="11.871" y2="15.003"><stop offset="0" stop-color="#c6c5c5"/><stop offset=".11" stop-color="#b5b4b4"/><stop offset=".262" stop-color="#a5a4a4"/><stop offset=".432" stop-color="#9b9b9b"/><stop offset=".655" stop-color="#989898"/><stop offset=".951" stop-color="#989898"/><stop offset="1" stop-color="#989898"/></linearGradient><path fill-rule="evenodd" clip-rule="evenodd" fill="url(#b)" d="M6.596 19.926L16.732 9.668l-6.4-6.402L.191 13.334z"/><path d="M10.331 3.445l6.222 6.223-9.957 10.074-6.224-6.406 9.959-9.891m.001-.179L.191 13.334l6.404 6.592L16.732 9.668l-6.4-6.402z" fill="#989898"/><linearGradient id="c" gradientUnits="userSpaceOnUse" x1="12.898" y1="1.233" x2="19.207" y2="7.542"><stop offset="0" stop-color="#c6c5c5"/><stop offset=".11" stop-color="#b5b4b4"/><stop offset=".262" stop-color="#a5a4a4"/><stop offset=".432" stop-color="#9b9b9b"/><stop offset=".655" stop-color="#989898"/><stop offset=".951" stop-color="#989898"/><stop offset="1" stop-color="#989898"/></linearGradient><path fill-rule="evenodd" clip-rule="evenodd" fill="url(#c)" d="M18.066 8.334L20 6.402 13.598 0l-1.933 1.932z"/><path d="M13.598.182l6.22 6.221-1.751 1.75-6.219-6.221 1.75-1.75m0-.182l-1.933 1.932 6.401 6.402L20 6.402 13.598 0z" fill="#989898"/></svg>