<?xml version="1.0" encoding="utf-8"?><svg xmlns="http://www.w3.org/2000/svg" width="20" height="20" viewBox="0 0 20 20"><path fill="none" d="M0 0h20v20H0z"/><g fill="#AAA"><path d="M18.863 13.855c-1.743-.48-2.055-1.137-2.055-2.041 0-.609.565-1.225.661-1.67.097-.445.308-1.754-.661-2.472-.322-.237-.65-.353-.979-.346-.329-.007-.656.108-.979.346-.969.718-.759 2.025-.662 2.472.097.445.662 1.061.662 1.67 0 .904-.311 1.561-2.055 2.041a3.03 3.03 0 0 0-.511.182c.44.221.983.425 1.661.611.688.189 1.285.396 1.615 1.018h.267l3.792-.001c.354 0 .377-.146.377-.381.004-1.07-.504-1.255-1.133-1.429z"/><path d="M12.955 15.746c-3.136-.866-3.695-2.047-3.695-3.674 0-1.098 1.018-2.201 1.191-3.004.172-.803.551-3.153-1.191-4.443-.579-.428-1.169-.636-1.76-.624-.59-.012-1.18.196-1.758.624C4 5.915 4.379 8.268 4.551 9.068c.172.803 1.189 1.906 1.189 3.004 0 1.627-.559 2.808-3.694 3.674C.914 16.059 0 16.389 0 18.312c0 .422.041.686.68.686L7.5 19l6.82-.002c.639 0 .68-.264.68-.686 0-1.923-.914-2.253-2.045-2.566z"/></g></svg>