<svg xmlns="http://www.w3.org/2000/svg" width="20" height="20" viewBox="0 0 20 20"><g><path fill="none" d="M0 0h20v20H0z"/><g fill="#aaa"><path d="M18.863 13.855c-1.743-.48-2.055-1.137-2.055-2.04 0-.61.565-1.226.66-1.67.098-.446.31-1.755-.66-2.473-.322-.237-.65-.353-.98-.346-.328-.007-.655.108-.978.346-.97.718-.76 2.025-.662 2.472.097.445.662 1.06.662 1.67 0 .904-.31 1.56-2.055 2.04-.186.054-.357.107-.51.183.44.22.982.425 1.66.61.688.19 1.285.397 1.615 1.02h.267l3.792-.002c.353 0 .376-.146.376-.38.004-1.07-.504-1.256-1.133-1.43zM12.955 15.746C9.82 14.88 9.26 13.7 9.26 12.072c0-1.098 1.018-2.2 1.19-3.004.173-.803.552-3.153-1.19-4.443C8.68 4.197 8.09 3.99 7.5 4c-.59-.01-1.18.197-1.758.625C4 5.915 4.38 8.268 4.552 9.068c.17.803 1.188 1.906 1.188 3.004 0 1.627-.56 2.808-3.694 3.674C.914 16.06 0 16.39 0 18.312c0 .422.04.686.68.686L7.5 19l6.82-.002c.64 0 .68-.264.68-.686 0-1.923-.914-2.253-2.045-2.566z"/></g></g></svg>