<svg xmlns="http://www.w3.org/2000/svg" width="20" height="20" viewBox="0 0 20 20"><g><path fill="none" d="M0 0h20v20H0z"/><g fill="#aaa"><path d="M18.863 13.855c-1.744-.48-2.055-1.138-2.055-2.04 0-.61.566-1.226.662-1.67.095-.446.307-1.755-.662-2.473-.322-.237-.65-.354-.98-.346-.327-.01-.655.108-.977.346-.967.718-.758 2.025-.662 2.472.098.445.662 1.06.662 1.67 0 .903-.31 1.56-2.055 2.04-.184.054-.355.107-.51.183.44.22.984.424 1.662.61.688.19 1.285.397 1.615 1.02h.266c1.69 0 3.596-.003 3.793-.003.355 0 .378-.146.378-.38.002-1.07-.506-1.254-1.135-1.43zM12.955 15.746C9.818 14.88 9.26 13.7 9.26 12.072c0-1.098 1.017-2.2 1.19-3.004.17-.803.55-3.153-1.19-4.443C8.68 4.197 8.09 3.988 7.5 4c-.59-.012-1.18.197-1.76.625C4 5.915 4.38 8.265 4.55 9.068c.173.803 1.19 1.906 1.19 3.004 0 1.627-.56 2.808-3.695 3.674C.915 16.06 0 16.386 0 18.312c0 .422.04.686.68.686L7.5 19l6.82-.002c.64 0 .68-.264.68-.686 0-1.925-.916-2.253-2.045-2.566z"/></g></g></svg>