<svg xmlns="http://www.w3.org/2000/svg" width="20" height="20" viewBox="0 0 20 20"><g><path fill="none" d="M0 0h20v20H0z"/><path d="M17.272 15.66c-4.18-1.154-4.927-2.73-4.927-4.898 0-1.464 1.357-2.935 1.587-4.005.23-1.068.733-4.203-1.587-5.922C11.572.262 10.787-.015 10 0c-.79-.015-1.574.262-2.345.834-2.322 1.72-1.82 4.854-1.59 5.922.232 1.07 1.588 2.54 1.588 4.005 0 2.17-.745 3.745-4.926 4.9C1.22 16.077 0 16.513 0 19.08c0 .56.054.914.908.914L10 20l9.092-.004c.854 0 .908-.354.908-.914 0-2.566-1.22-3.004-2.728-3.422z" fill="#aaa"/></g></svg>