<?xml version="1.0" encoding="utf-8"?><svg xmlns="http://www.w3.org/2000/svg" width="20" height="20" viewBox="0 0 20 20"><path fill="none" d="M.001 0h20v20h-20z"/><path fill="#AAA" d="M17.273 15.659c-4.182-1.153-4.926-2.728-4.926-4.897 0-1.464 1.355-2.936 1.586-4.005s.734-4.204-1.588-5.923c-.771-.57-1.557-.85-2.346-.833-.786-.017-1.571.263-2.344.833-2.321 1.719-1.817 4.854-1.589 5.923.231 1.069 1.588 2.541 1.588 4.005 0 2.17-.744 3.744-4.926 4.897-1.509.418-2.729.854-2.729 3.423 0 .562.055.914.908.914L9.999 20l9.093-.004c.854 0 .907-.354.907-.914.002-2.566-1.217-3.005-2.726-3.423z"/></svg>