<svg xmlns="http://www.w3.org/2000/svg" width="20" height="20" viewBox="0 0 20 20"><g><path fill="none" d="M0 0h20v20H0z"/><path fill="#aaa" d="M17.273 15.66c-4.182-1.154-4.926-2.73-4.926-4.898 0-1.464 1.355-2.936 1.586-4.005s.734-4.204-1.588-5.923C11.575.264 10.788-.016 10 0c-.787-.016-1.572.264-2.345.834-2.32 1.72-1.817 4.854-1.59 5.923.232 1.07 1.59 2.54 1.59 4.005 0 2.17-.745 3.744-4.927 4.897-1.51.417-2.73.853-2.73 3.422 0 .562.056.914.91.914l9.09.004 9.094-.004c.854 0 .907-.354.907-.914 0-2.566-1.218-3.005-2.727-3.423z"/></g></svg>