<?xml version="1.0" encoding="iso-8859-1"?><svg xmlns="http://www.w3.org/2000/svg" width="20" height="20" viewBox="0 0 20 20"><path fill="none" d="M0 0h20v20H0z"/><radialGradient id="a" cx="10" cy="19.875" r="19.875" gradientUnits="userSpaceOnUse"><stop offset="0" stop-color="#f2f6fb"/><stop offset="1" stop-color="#c1d5e6"/></radialGradient><circle cx="10" cy="10" r="10" fill="url(#a)"/><path d="M10 2c4.411 0 8 3.589 8 8s-3.589 8-8 8-8-3.589-8-8 3.589-8 8-8m0-2C4.479 0 0 4.477 0 10s4.479 10 10 10c5.523 0 10-4.477 10-10S15.523 0 10 0z" fill="#fff" opacity=".8"/><path d="M10 1c4.963 0 9 4.038 9 9 0 4.963-4.037 9-9 9s-9-4.037-9-9c0-4.962 4.037-9 9-9m0-1C4.479 0 0 4.477 0 10s4.479 10 10 10c5.523 0 10-4.477 10-10S15.523 0 10 0z" fill="#3a668c" opacity=".7"/></svg>