<svg xmlns="http://www.w3.org/2000/svg" width="20" height="20" viewBox="0 0 20 20"><g><path fill="none" d="M0 0h20v20H0z"/><g><radialGradient id="a" cx="10.334" cy=".667" r="19.167" gradientUnits="userSpaceOnUse"><stop offset="0" stop-color="#F2F6FB"/><stop offset="1" stop-color="#C1D5E6"/></radialGradient><circle cx="10" cy="10" r="10" fill="url(#a)"/><path d="M10 2c4.41 0 8 3.59 8 8s-3.59 8-8 8c-4.412 0-8-3.59-8-8s3.59-8 8-8m0-2C4.477 0 0 4.477 0 10s4.477 10 10 10 10-4.477 10-10S15.523 0 10 0z" fill="#fff" opacity=".8"/><path d="M10 1c4.962 0 9 4.038 9 9 0 4.963-4.037 9-9 9s-9-4.037-9-9c0-4.962 4.038-9 9-9m0-1C4.477 0 0 4.477 0 10s4.477 10 10 10 10-4.477 10-10S15.523 0 10 0z" fill="#3A668C" opacity=".7"/></g><g><linearGradient id="b" gradientUnits="userSpaceOnUse" x1="13.447" y1="12.893" x2="6.552" y2="7.107"><stop offset="0" stop-color="#66A2D7"/><stop offset="1" stop-color="#517FA5"/></linearGradient><circle cx="10" cy="9.999" r="4.489" opacity=".6" fill="none" stroke="url(#b)" stroke-width=".022" stroke-linecap="round" stroke-linejoin="round" stroke-miterlimit="10"/><radialGradient id="c" cx="49.849" cy="10.254" r="7.251" gradientTransform="matrix(.962 0 0 .962 -37.919 -2.48)" gradientUnits="userSpaceOnUse"><stop offset=".121" stop-color="#8DB9DD"/><stop offset=".513" stop-color="#5C9BD0"/><stop offset=".672" stop-color="#448CCA"/><stop offset="1" stop-color="#336B9A"/></radialGradient><circle cx="10" cy="9.999" r="4.489" fill="url(#c)"/></g></g></svg>