<svg xmlns="http://www.w3.org/2000/svg" width="20" height="20" viewBox="0 0 20 20"><g><path fill="none" d="M0 0h20v20H0z"/><g><radialGradient id="a" cx="10.25" cy="19.75" r="19.625" gradientUnits="userSpaceOnUse"><stop offset="0" stop-color="#F2F6FB"/><stop offset="1" stop-color="#C1D5E6"/></radialGradient><circle cx="10" cy="10" r="10" fill="url(#a)"/><path d="M10 2c4.41 0 8 3.59 8 8s-3.59 8-8 8-8-3.59-8-8 3.59-8 8-8m0-2C4.48 0 0 4.477 0 10s4.48 10 10 10c5.523 0 10-4.477 10-10S15.523 0 10 0z" fill="#fff" opacity=".8"/><path d="M10 1c4.963 0 9 4.038 9 9s-4.037 9-9 9-9-4.037-9-9 4.037-9 9-9m0-1C4.48 0 0 4.477 0 10s4.48 10 10 10c5.523 0 10-4.477 10-10S15.523 0 10 0z" fill="#3A668C" opacity=".7"/></g></g></svg>