<?xml version="1.0" encoding="iso-8859-1"?><svg xmlns="http://www.w3.org/2000/svg" width="20" height="20" viewBox="0 0 20 20"><path fill="none" d="M0 0h20v20H0z"/><radialGradient id="a" cx="10" cy=".248" r="19.598" gradientUnits="userSpaceOnUse"><stop offset="0" stop-color="#fff"/><stop offset="1" stop-color="#e6e6e6"/></radialGradient><path d="M0 10c0 5.524 4.476 10 10 10 5.52 0 10-4.476 10-10S15.52 0 10 0C4.476 0 0 4.476 0 10z" fill="url(#a)"/><path d="M10 2c4.411 0 8 3.589 8 8s-3.589 8-8 8-8-3.589-8-8 3.589-8 8-8m0-2C4.476 0 0 4.476 0 10s4.476 10 10 10c5.52 0 10-4.476 10-10S15.52 0 10 0z" fill="#fff" opacity=".6"/><path d="M10 1c4.963 0 9 4.038 9 9 0 4.963-4.037 9-9 9s-9-4.037-9-9c0-4.962 4.037-9 9-9m0-1C4.476 0 0 4.476 0 10s4.476 10 10 10c5.52 0 10-4.476 10-10S15.52 0 10 0z" fill="#45494d" opacity=".7"/><g><linearGradient id="b" gradientUnits="userSpaceOnUse" x1="13.424" y1="12.893" x2="6.529" y2="7.107"><stop offset="0" stop-color="#66a2d7"/><stop offset="1" stop-color="#517fa5"/></linearGradient><circle cx="9.977" cy="9.999" r="4.489" opacity=".6" fill="none" stroke="url(#b)" stroke-width=".022" stroke-linecap="round" stroke-linejoin="round" stroke-miterlimit="10"/><radialGradient id="c" cx="49.825" cy="10.254" r="7.25" gradientTransform="matrix(.9619 0 0 .9618 -37.92 -2.48)" gradientUnits="userSpaceOnUse"><stop offset=".121" stop-color="#8db9dd"/><stop offset=".513" stop-color="#5c9bd0"/><stop offset=".672" stop-color="#448cca"/><stop offset="1" stop-color="#336b9a"/></radialGradient><circle cx="9.977" cy="9.999" r="4.489" fill="url(#c)"/></g></svg>