<?xml version="1.0" encoding="iso-8859-1"?><svg xmlns="http://www.w3.org/2000/svg" width="20" height="20" viewBox="0 0 20 20"><path fill="none" d="M0 0h20v20H0z"/><radialGradient id="a" cx="9.918" cy="19.833" r="19.669" gradientUnits="userSpaceOnUse"><stop offset="0" stop-color="#f2f6fb"/><stop offset="1" stop-color="#c1d5e6"/></radialGradient><circle cx="10" cy="10" r="10" fill="url(#a)"/><path d="M10 2c4.411 0 8 3.589 8 8s-3.589 8-8 8c-4.412 0-8-3.589-8-8s3.589-8 8-8m0-2C4.477 0 0 4.477 0 10s4.477 10 10 10 10-4.477 10-10S15.523 0 10 0z" fill="#fff" opacity=".8"/><path d="M10 1c4.962 0 9 4.038 9 9s-4.037 9-9 9-9-4.037-9-9 4.038-9 9-9m0-1C4.477 0 0 4.477 0 10s4.477 10 10 10 10-4.477 10-10S15.523 0 10 0z" fill="#3a668c" opacity=".7"/><g><linearGradient id="b" gradientUnits="userSpaceOnUse" x1="13.448" y1="12.892" x2="6.555" y2="7.107"><stop offset="0" stop-color="#66a2d7"/><stop offset="1" stop-color="#517fa5"/></linearGradient><circle cx="10.001" cy="9.999" r="4.489" opacity=".6" fill="none" stroke="url(#b)" stroke-width=".022" stroke-linecap="round" stroke-linejoin="round" stroke-miterlimit="10"/><radialGradient id="c" cx="49.906" cy="15.079" r="8.02" gradientTransform="matrix(.9619 0 0 .9618 -37.92 -2.48)" gradientUnits="userSpaceOnUse"><stop offset=".121" stop-color="#8db9dd"/><stop offset=".513" stop-color="#5c9bd0"/><stop offset=".672" stop-color="#448cca"/><stop offset="1" stop-color="#336b9a"/></radialGradient><circle cx="10.001" cy="9.999" r="4.489" fill="url(#c)"/></g></svg>