<svg xmlns="http://www.w3.org/2000/svg" width="20" height="20" viewBox="0 0 20 20"><g><path fill="none" d="M0 0h20v20H0z"/><g fill="#4E8ABE"><path d="M18.123 6.473C16.716 3.237 13.566 1.16 10.02 1.16c-3.63 0-6.945 2.272-8.25 5.657L4.52 7.88c.87-2.257 3.08-3.772 5.5-3.772 2.333 0 4.4 1.354 5.355 3.463l-2.006.802 5.13 2.96L20 5.726l-1.877.748zM10.02 15.895c-2.314 0-4.424-1.396-5.367-3.49l1.978-.764-5.076-2.896L0 14.202l1.894-.73c1.38 3.222 4.603 5.37 8.125 5.37 3.64 0 6.867-2.186 8.214-5.566l-2.737-1.092c-.9 2.254-3.05 3.71-5.478 3.71z"/></g></g></svg>