<svg xmlns="http://www.w3.org/2000/svg" viewBox="0 0 20 20" enable-background="new 0 0 20 20"><path fill="none" d="M0 0h20v20H0z"/><g fill="#ABABAB" fill-opacity=".4"><path d="M18.123 6.472c-1.407-3.235-4.556-5.314-8.103-5.314-3.628 0-6.944 2.274-8.25 5.657l2.75 1.062c.87-2.257 3.08-3.773 5.5-3.773 2.334 0 4.4 1.355 5.356 3.463l-2.007.803 5.13 2.96L20 5.723l-1.877.75zM10.02 15.894c-2.313 0-4.424-1.396-5.366-3.49l1.977-.765-5.075-2.896L0 14.202l1.895-.73c1.38 3.223 4.603 5.37 8.125 5.37 3.643 0 6.867-2.186 8.215-5.566L15.5 12.183c-.902 2.255-3.052 3.71-5.48 3.71z"/></g></svg>