<svg xmlns="http://www.w3.org/2000/svg" width="20" height="20" viewBox="0 0 20 20"><g><path fill="none" d="M0 0h20v20H0z"/><g fill="#aaa"><path d="M18.123 6.473C16.716 3.237 13.566 1.16 10.02 1.16c-3.63 0-6.945 2.274-8.25 5.657L4.52 7.88c.87-2.258 3.08-3.773 5.5-3.773 2.333 0 4.4 1.355 5.354 3.463l-2.006.803 5.13 2.96L20 5.727l-1.875.746zM10.02 15.895c-2.312 0-4.423-1.396-5.365-3.49l1.977-.764-5.076-2.896L0 14.202l1.896-.73c1.38 3.224 4.603 5.37 8.125 5.37 3.644 0 6.868-2.186 8.216-5.566L15.5 12.184c-.902 2.254-3.052 3.71-5.48 3.71z"/></g></g></svg>