<?xml version="1.0" encoding="utf-8"?><svg xmlns="http://www.w3.org/2000/svg" width="20" height="20" viewBox="0 0 20 20"><path fill="none" d="M0 0h20v20H0z"/><g fill="#AAA"><path d="M18.123 6.473a8.796 8.796 0 0 0-8.104-5.313c-3.628 0-6.944 2.274-8.25 5.657l2.75 1.062a5.93 5.93 0 0 1 5.5-3.772c2.334 0 4.4 1.355 5.355 3.463l-2.006.803 5.131 2.96 1.5-5.606-1.876.746zM10.02 15.895c-2.312 0-4.423-1.396-5.365-3.49l1.977-.764-5.076-2.897-1.555 5.458 1.895-.731c1.38 3.225 4.603 5.371 8.125 5.371a8.8 8.8 0 0 0 8.215-5.566L15.5 12.184a5.874 5.874 0 0 1-5.48 3.711z"/></g></svg>