<?xml version="1.0" encoding="iso-8859-1"?><svg xmlns="http://www.w3.org/2000/svg" viewBox="0 0 20 20"><path fill="none" d="M0 0h20v20H0z"/><g fill="#ababab" fill-opacity=".4"><path d="M18.123 6.472a8.797 8.797 0 0 0-8.103-5.314c-3.628 0-6.944 2.274-8.25 5.657l2.75 1.062a5.93 5.93 0 0 1 5.5-3.773c2.334 0 4.4 1.355 5.356 3.463l-2.007.803 5.131 2.96L20 5.723l-1.877.749zM10.019 15.894c-2.312 0-4.423-1.396-5.365-3.49l1.977-.765-5.076-2.895L0 14.202l1.895-.731c1.38 3.224 4.603 5.371 8.125 5.371a8.8 8.8 0 0 0 8.215-5.566l-2.736-1.093a5.87 5.87 0 0 1-5.48 3.711z"/></g></svg>