<svg xmlns="http://www.w3.org/2000/svg" width="20" height="20" viewBox="0 0 20 20"><g><path fill="none" d="M0 0h20v20H0z"/><path d="M20 17c0 1.65-1.35 3-3 3H3c-1.65 0-3-1.35-3-3V3c0-1.65 1.35-3 3-3h14c1.65 0 3 1.35 3 3v14z" fill="#ddd"/><path d="M4.255 14.596c-.097-.097-.097-.256 0-.354l4.066-4.065c.098-.097.098-.256 0-.354L4.256 5.758c-.097-.097-.097-.256 0-.354l1.15-1.15c.097-.096.256-.096.354 0l4.064 4.067c.097.098.256.098.354 0l4.065-4.066c.098-.097.256-.097.354 0l1.15 1.15c.097.098.097.257 0 .355L11.68 9.822c-.098.097-.098.256 0 .354l4.066 4.066c.098.098.098.256 0 .354l-1.15 1.15c-.097.097-.255.097-.353 0l-4.065-4.067c-.097-.098-.256-.098-.354 0l-4.066 4.067c-.097.098-.256.097-.354 0l-1.15-1.15z" fill="#808080"/></g></svg>