<svg xmlns="http://www.w3.org/2000/svg" width="20" height="20" viewBox="0 0 20 20"><g><path fill="none" d="M0 0h20v20H0z"/><path d="M20 17c0 1.65-1.35 3-3 3H3c-1.65 0-3-1.35-3-3V3c0-1.65 1.35-3 3-3h14c1.65 0 3 1.35 3 3v14z" fill="#FDD7D8"/><g><linearGradient id="a" gradientUnits="userSpaceOnUse" x1="10.001" y1="4.182" x2="10.001" y2="15.82"><stop offset="0" stop-color="#F5888D"/><stop offset=".029" stop-color="#F58489"/><stop offset=".277" stop-color="#F2676D"/><stop offset=".523" stop-color="#F05359"/><stop offset=".766" stop-color="#EE464D"/><stop offset="1" stop-color="#EE4249"/></linearGradient><path d="M4.255 14.597c-.097-.098-.097-.256 0-.354l4.066-4.066c.098-.097.098-.256 0-.354L4.256 5.758c-.097-.097-.097-.256 0-.354l1.15-1.15c.097-.097.256-.097.354 0L9.823 8.32c.097.097.256.097.354 0l4.065-4.067c.098-.097.256-.097.354 0l1.15 1.15c.097.097.097.256 0 .354L11.68 9.822c-.097.097-.097.256 0 .354l4.066 4.066c.098.098.098.256 0 .354l-1.15 1.15c-.097.097-.255.097-.353 0l-4.065-4.067c-.097-.1-.256-.1-.354 0l-4.066 4.065c-.097.098-.256.098-.354 0l-1.15-1.148z" fill="url(#a)"/></g></g></svg>