<?xml version="1.0" encoding="iso-8859-1"?><svg xmlns="http://www.w3.org/2000/svg" width="20" height="20" viewBox="0 0 20 20"><path fill="none" d="M0 0h20v20H0z"/><path d="M20 17c0 1.65-1.35 3-3 3H3c-1.65 0-3-1.35-3-3V3c0-1.65 1.35-3 3-3h14c1.65 0 3 1.35 3 3v14z" fill="#fdd7d8"/><linearGradient id="a" gradientUnits="userSpaceOnUse" x1="10.001" y1="4.182" x2="10.001" y2="15.82"><stop offset="0" stop-color="#f5888d"/><stop offset=".029" stop-color="#f58489"/><stop offset=".277" stop-color="#f2676d"/><stop offset=".523" stop-color="#f05359"/><stop offset=".766" stop-color="#ee464d"/><stop offset="1" stop-color="#ee4249"/></linearGradient><path d="M4.255 14.597a.252.252 0 0 1 0-.354l4.066-4.066a.252.252 0 0 0 0-.354L4.255 5.758a.252.252 0 0 1 0-.354l1.15-1.15a.252.252 0 0 1 .354 0L9.824 8.32a.252.252 0 0 0 .354 0l4.065-4.067a.252.252 0 0 1 .354 0l1.149 1.15a.25.25 0 0 1 0 .354l-4.065 4.065a.25.25 0 0 0 0 .354l4.065 4.066a.25.25 0 0 1 0 .354l-1.149 1.149a.25.25 0 0 1-.354 0l-4.065-4.066a.25.25 0 0 0-.354 0l-4.066 4.066a.25.25 0 0 1-.354 0l-1.149-1.148z" fill="url(#a)"/></svg>