<?xml version="1.0" encoding="iso-8859-1"?><svg xmlns="http://www.w3.org/2000/svg" width="20" height="20" viewBox="0 0 20 20"><linearGradient id="a" gradientUnits="userSpaceOnUse" x1="9.999" x2="9.999" y2="20"><stop offset="0" stop-color="#f1f8ff"/><stop offset=".9" stop-color="#a1c8e6"/></linearGradient><circle cx="10" cy="10" r="10" fill="url(#a)"/><path d="M10 1c4.963 0 9 4.038 9 9 0 4.963-4.037 9-9 9s-9-4.037-9-9c0-4.962 4.037-9 9-9m0-1C4.477 0 0 4.477 0 10c0 5.524 4.477 10 10 10s10-4.476 10-10c0-5.523-4.477-10-10-10z" fill="#fff"/><path d="M10 .5c5.238 0 9.5 4.262 9.5 9.5s-4.262 9.5-9.5 9.5S.5 15.238.5 10 4.762.5 10 .5m0-.5C4.477 0 0 4.477 0 10c0 5.524 4.477 10 10 10s10-4.476 10-10c0-5.523-4.477-10-10-10z" fill="#6a8799" opacity=".8"/><g><linearGradient id="b" gradientUnits="userSpaceOnUse" x1="9.94" y1="2.306" x2="9.94" y2="16.428"><stop offset="0" stop-color="#4e8abe"/><stop offset="1" stop-color="#3a668c"/></linearGradient><path d="M9.568 4.85h-.82l.443-2.544-4.596 4.19 4.596 4.205-.443-2.545h.82c1.135 0 2.1.402 2.895 1.208.797.805 1.195 1.779 1.195 2.92 0 1.142-.398 2.117-1.195 2.929-.795.81-1.76 1.215-2.895 1.215 1.584 0 2.932-.565 4.045-1.698 1.113-1.13 1.672-2.497 1.672-4.099 0-1.601-.559-2.965-1.672-4.091s-2.461-1.69-4.045-1.69z" fill="url(#b)"/><path d="M9.005 2.645l-.38 2.184-.025.146h.968c1.54 0 2.871.556 3.956 1.653 1.085 1.098 1.636 2.444 1.636 4.003 0 1.56-.551 2.909-1.636 4.011a5.617 5.617 0 0 1-1.435 1.07c.16-.124.314-.261.462-.411a4.169 4.169 0 0 0 1.231-3.017c0-1.171-.414-2.183-1.231-3.008-.815-.826-1.819-1.245-2.983-1.245H8.6l.025.146.38 2.184-4.224-3.865 4.224-3.851m.186-.339l-4.596 4.19 4.596 4.205-.443-2.545h.82c1.135 0 2.1.402 2.895 1.208.797.805 1.195 1.779 1.195 2.92 0 1.142-.398 2.117-1.195 2.929-.795.81-1.76 1.215-2.895 1.215 1.584 0 2.932-.565 4.045-1.698 1.113-1.13 1.672-2.497 1.672-4.099 0-1.601-.559-2.965-1.672-4.091s-2.461-1.69-4.045-1.69h-.82l.443-2.544z" fill="#45494d" opacity=".5"/></g></svg>