<svg xmlns="http://www.w3.org/2000/svg" width="20" height="20" viewBox="0 0 20 20"><g><linearGradient id="a" gradientUnits="userSpaceOnUse" x1="9.999" x2="9.999" y2="20"><stop offset="0" stop-color="#fff"/><stop offset=".25" stop-color="#FBFCFD"/><stop offset=".509" stop-color="#EEF4F8"/><stop offset=".771" stop-color="#DAE7F0"/><stop offset=".8" stop-color="#D7E5EF"/></linearGradient><circle cx="10" cy="10" r="10" fill="url(#a)"/><path d="M10 1c4.963 0 9 4.038 9 9 0 4.963-4.037 9-9 9s-9-4.037-9-9c0-4.962 4.037-9 9-9m0-1C4.477 0 0 4.476 0 10c0 5.523 4.477 10 10 10 5.522 0 10-4.477 10-10 0-5.524-4.478-10-10-10z" fill="#fff"/><path d="M10 .5c5.238 0 9.5 4.262 9.5 9.5s-4.262 9.5-9.5 9.5S.5 15.238.5 10 4.762.5 10 .5m0-.5C4.477 0 0 4.476 0 10c0 5.523 4.477 10 10 10 5.522 0 10-4.477 10-10 0-5.524-4.478-10-10-10z" fill="#6A8799" opacity=".8"/><linearGradient id="b" gradientUnits="userSpaceOnUse" x1="9.94" y1="2.305" x2="9.94" y2="16.428"><stop offset="0" stop-color="#9DABB4"/><stop offset=".265" stop-color="#99A7B0"/><stop offset=".54" stop-color="#8F9BA3"/><stop offset=".818" stop-color="#7D878F"/><stop offset="1" stop-color="#6D767D"/></linearGradient><path d="M9.57 4.85h-.822l.442-2.545-4.595 4.19L9.19 10.7l-.442-2.544h.82c1.134 0 2.1.402 2.895 1.208.796.805 1.194 1.778 1.194 2.92s-.398 2.117-1.194 2.93c-.796.81-1.76 1.214-2.894 1.214 1.582 0 2.93-.566 4.043-1.698 1.113-1.13 1.67-2.497 1.67-4.1 0-1.6-.557-2.964-1.67-4.09C12.5 5.414 11.15 4.85 9.57 4.85z" fill="url(#b)"/><path d="M9.005 2.644l-.38 2.185-.025.145h.968c1.54 0 2.872.556 3.957 1.653s1.635 2.444 1.635 4.003c0 1.562-.55 2.91-1.635 4.012-.438.445-.917.802-1.433 1.068.16-.123.312-.26.46-.41.816-.832 1.23-1.847 1.23-3.017s-.414-2.18-1.23-3.007c-.816-.827-1.82-1.246-2.983-1.246H8.6l.025.146.38 2.185L4.78 6.497l4.225-3.852m.185-.34l-4.595 4.19 4.595 4.207-.442-2.544h.82c1.134 0 2.1.402 2.895 1.208.796.805 1.194 1.778 1.194 2.92s-.398 2.117-1.194 2.93c-.796.81-1.76 1.214-2.894 1.214 1.582 0 2.93-.566 4.043-1.698 1.113-1.13 1.67-2.497 1.67-4.1 0-1.6-.557-2.964-1.67-4.09C12.5 5.414 11.15 4.85 9.57 4.85h-.822l.442-2.545z" fill="#45494D" opacity=".5"/></g></svg>