<svg xmlns="http://www.w3.org/2000/svg" width="20" height="20" viewBox="0 0 20 20"><g><linearGradient id="a" gradientUnits="userSpaceOnUse" x1="9.999" x2="9.999" y2="20"><stop offset="0" stop-color="#F1F8FF"/><stop offset=".9" stop-color="#A1C8E6"/></linearGradient><circle cx="10" cy="10" r="10" fill="url(#a)"/><path d="M10 1c4.963 0 9 4.038 9 9 0 4.963-4.037 9-9 9s-9-4.037-9-9c0-4.962 4.037-9 9-9m0-1C4.477 0 0 4.477 0 10c0 5.524 4.477 10 10 10s10-4.476 10-10c0-5.523-4.477-10-10-10z" fill="#fff"/><path d="M10 .5c5.238 0 9.5 4.262 9.5 9.5s-4.262 9.5-9.5 9.5S.5 15.238.5 10 4.762.5 10 .5m0-.5C4.477 0 0 4.477 0 10c0 5.524 4.477 10 10 10s10-4.476 10-10c0-5.523-4.477-10-10-10z" fill="#6A8799" opacity=".8"/><linearGradient id="b" gradientUnits="userSpaceOnUse" x1="9.94" y1="2.306" x2="9.94" y2="16.428"><stop offset="0" stop-color="#4E8ABE"/><stop offset="1" stop-color="#3A668C"/></linearGradient><path d="M9.568 4.85h-.82l.443-2.544-4.595 4.19L9.19 10.7 8.75 8.157h.82c1.135 0 2.1.402 2.895 1.208.797.805 1.195 1.78 1.195 2.92 0 1.142-.398 2.117-1.195 2.93-.795.81-1.76 1.214-2.895 1.214 1.584 0 2.932-.565 4.045-1.698 1.113-1.13 1.672-2.497 1.672-4.1 0-1.6-.56-2.964-1.672-4.09s-2.46-1.69-4.045-1.69z" fill="url(#b)"/><path d="M9.005 2.645l-.38 2.184-.025.145h.968c1.54 0 2.87.556 3.956 1.653 1.085 1.098 1.636 2.444 1.636 4.003 0 1.56-.55 2.91-1.636 4.012-.438.446-.917.803-1.435 1.07.16-.124.313-.26.46-.41.818-.833 1.232-1.848 1.232-3.018 0-1.17-.414-2.183-1.23-3.008-.816-.826-1.82-1.245-2.984-1.245H8.6l.025.147.38 2.184L4.78 6.497l4.225-3.85m.186-.34l-4.595 4.19L9.19 10.7 8.75 8.157h.82c1.135 0 2.1.402 2.895 1.208.797.805 1.195 1.78 1.195 2.92 0 1.142-.398 2.117-1.195 2.93-.795.81-1.76 1.214-2.895 1.214 1.584 0 2.932-.565 4.045-1.698 1.113-1.13 1.672-2.497 1.672-4.1 0-1.6-.56-2.964-1.672-4.09s-2.46-1.69-4.045-1.69h-.82l.443-2.544z" fill="#45494D" opacity=".5"/></g></svg>