<?xml version="1.0" encoding="iso-8859-1"?><svg xmlns="http://www.w3.org/2000/svg" width="20" height="20" viewBox="0 0 20 20"><linearGradient id="a" gradientUnits="userSpaceOnUse" x1="10.001" y1="20" x2="10.001"><stop offset="0" stop-color="#f1f8ff"/><stop offset=".9" stop-color="#a1c8e6"/></linearGradient><path d="M0 17c0 1.65 1.35 3 3 3h14c1.65 0 3-1.35 3-3V3c0-1.65-1.35-3-3-3H3C1.35 0 0 1.35 0 3v14z" fill="url(#a)"/><path d="M17 1c1.103 0 2 .897 2 2v14c0 1.103-.897 2-2 2H3c-1.103 0-2-.897-2-2V3c0-1.103.897-2 2-2h14m0-1H3C1.35 0 0 1.35 0 3v14c0 1.65 1.35 3 3 3h14c1.65 0 3-1.35 3-3V3c0-1.65-1.35-3-3-3z" fill="#fff"/><path d="M17 .5c1.379 0 2.5 1.122 2.5 2.5v14c0 1.379-1.121 2.5-2.5 2.5H3A2.503 2.503 0 0 1 .5 17V3C.5 1.622 1.622.5 3 .5h14m0-.5H3C1.35 0 0 1.35 0 3v14c0 1.65 1.35 3 3 3h14c1.65 0 3-1.35 3-3V3c0-1.65-1.35-3-3-3z" fill="#6a8799" opacity=".8"/><g><linearGradient id="b" gradientUnits="userSpaceOnUse" x1="2.515" y1="10" x2="17.485" y2="10"><stop offset="0" stop-color="#fff"/><stop offset=".9" stop-color="#d7e5ef"/></linearGradient><path d="M11.333 3.073a5.65 5.65 0 0 1 3.997 9.647 5.603 5.603 0 0 1-3.979 1.646 5.679 5.679 0 0 1-2.967-.835l-3.261 3.257-.012-.014a.71.71 0 0 1-.463.152c-.346 0-.76-.185-1.105-.528-.523-.523-.677-1.206-.379-1.565l-.012-.014 3.296-3.295c-1.239-2.161-.958-4.952.887-6.795a5.636 5.636 0 0 1 3.998-1.656m-.001 10.038a4.384 4.384 0 0 0 3.105-1.281 4.393 4.393 0 0 0 0-6.209c-.856-.855-1.981-1.283-3.105-1.283s-2.248.428-3.103 1.283a4.393 4.393 0 0 0 0 6.209 4.373 4.373 0 0 0 3.103 1.281m.001-10.538c-1.644 0-3.189.64-4.352 1.802-1.859 1.857-2.307 4.709-1.148 7.058l-3.034 3.033a.494.494 0 0 0-.118.188c-.343.577-.143 1.446.509 2.098.431.429.963.675 1.459.675.245 0 .469-.062.657-.178a.463.463 0 0 0 .171-.107l2.991-2.987a6.181 6.181 0 0 0 2.883.712 6.086 6.086 0 0 0 4.332-1.792 6.112 6.112 0 0 0 1.802-4.35 6.102 6.102 0 0 0-1.802-4.349 6.107 6.107 0 0 0-4.35-1.803zm-.001 10.038a3.86 3.86 0 0 1-2.75-1.135 3.894 3.894 0 0 1 0-5.501 3.862 3.862 0 0 1 2.75-1.137c1.041 0 2.019.404 2.752 1.137a3.897 3.897 0 0 1 0 5.502 3.872 3.872 0 0 1-2.752 1.134z" fill="url(#b)"/><path d="M15.33 4.729a5.655 5.655 0 0 0-7.995 0c-1.845 1.843-2.126 4.634-.887 6.795l-3.296 3.295.012.014c-.298.359-.145 1.042.379 1.565.525.522 1.208.676 1.569.376l.012.014 3.261-3.257c2.178 1.334 5.061 1.074 6.946-.811a5.65 5.65 0 0 0-.001-7.991zM8.229 11.83a4.393 4.393 0 0 1 0-6.209c1.71-1.711 4.496-1.711 6.209 0s1.713 4.492 0 6.209a4.4 4.4 0 0 1-6.209 0z" fill="#4e8abe"/></g></svg>