<svg xmlns="http://www.w3.org/2000/svg" width="20" height="20" viewBox="0 0 20 20"><g><g><linearGradient id="a" gradientUnits="userSpaceOnUse" x1="9.999" x2="9.999" y2="20"><stop offset="0" stop-color="#fff"/><stop offset=".25" stop-color="#FBFCFD"/><stop offset=".509" stop-color="#EEF4F8"/><stop offset=".771" stop-color="#DAE7F0"/><stop offset=".8" stop-color="#D7E5EF"/></linearGradient><path d="M0 17c0 1.65 1.35 3 3 3h14c1.65 0 3-1.35 3-3V3c0-1.65-1.35-3-3-3H3C1.35 0 0 1.35 0 3v14z" fill="url(#a)"/><path d="M17 1c1.103 0 2 .897 2 2v14c0 1.103-.897 2-2 2H3c-1.103 0-2-.897-2-2V3c0-1.103.897-2 2-2h14m0-1H3C1.35 0 0 1.35 0 3v14c0 1.65 1.35 3 3 3h14c1.65 0 3-1.35 3-3V3c0-1.65-1.35-3-3-3z" fill="#fff"/><path d="M17 .5c1.38 0 2.5 1.122 2.5 2.5v14c0 1.38-1.12 2.5-2.5 2.5H3C1.622 19.5.5 18.38.5 17V3C.5 1.622 1.622.5 3 .5h14m0-.5H3C1.35 0 0 1.35 0 3v14c0 1.65 1.35 3 3 3h14c1.65 0 3-1.35 3-3V3c0-1.65-1.35-3-3-3z" fill="#6A8799" opacity=".8"/></g><g><linearGradient id="b" gradientUnits="userSpaceOnUse" x1="2.515" y1="10" x2="17.485" y2="10"><stop offset="0" stop-color="#fff"/><stop offset=".9" stop-color="#D7E5EF"/></linearGradient><path d="M11.333 3.073c1.446 0 2.894.552 3.997 1.655 2.208 2.206 2.207 5.785 0 7.992-1.1 1.1-2.538 1.646-3.98 1.646-1.028 0-2.06-.28-2.966-.835l-3.26 3.258-.013-.014c-.123.103-.283.152-.462.152-.346 0-.76-.185-1.105-.528-.523-.523-.677-1.206-.38-1.565l-.01-.014 3.295-3.296c-1.24-2.16-.958-4.952.887-6.795 1.104-1.105 2.55-1.657 3.998-1.657m0 10.038c1.123 0 2.248-.426 3.104-1.28 1.713-1.717 1.713-4.498 0-6.21-.856-.854-1.98-1.282-3.105-1.282S9.084 4.766 8.23 5.62c-1.714 1.712-1.714 4.493 0 6.21.854.855 1.978 1.28 3.102 1.28m0-10.537c-1.643 0-3.188.64-4.35 1.802-1.86 1.857-2.308 4.71-1.15 7.058L2.8 14.466c-.056.055-.095.12-.12.188-.342.577-.142 1.446.51 2.098.43.43.963.675 1.46.675.244 0 .468-.062.656-.178.064-.024.123-.06.17-.108l2.992-2.987c.886.467 1.875.712 2.883.712 1.64 0 3.178-.637 4.333-1.792 1.162-1.162 1.802-2.707 1.802-4.35 0-1.644-.64-3.188-1.802-4.35-1.162-1.162-2.706-1.802-4.35-1.802zm0 10.038c-1.04 0-2.017-.4-2.75-1.134-1.516-1.52-1.517-3.987 0-5.5.733-.734 1.71-1.138 2.75-1.138s2.02.404 2.752 1.137c1.516 1.515 1.516 3.982 0 5.502-.733.73-1.71 1.134-2.752 1.134z" fill="url(#b)"/><path d="M15.33 4.73c-2.207-2.208-5.787-2.208-7.995 0C5.49 6.57 5.21 9.362 6.448 11.523L3.152 14.82l.012.013c-.298.36-.145 1.042.38 1.565.524.522 1.207.676 1.568.376l.012.014 3.26-3.257c2.18 1.335 5.062 1.075 6.947-.81 2.207-2.206 2.208-5.785 0-7.99zm-7.1 7.1c-1.714-1.717-1.714-4.498 0-6.21 1.71-1.71 4.495-1.71 6.208 0s1.713 4.493 0 6.21c-1.713 1.71-4.5 1.71-6.21 0z" fill="#4E8ABE"/></g></g></svg>