<svg xmlns="http://www.w3.org/2000/svg" width="20" height="20" viewBox="0 0 20 20"><g><path fill="none" d="M0 0h20v20H0z"/><path fill="#4E8ABE" d="M5.957 13.938c-.01 0-.016-.006-.016-.016V.102c0-.01-.006-.016-.015-.016H2.78c-.01 0-.017.007-.017.016v13.82c0 .01-.007.016-.016.016H.164c-.01 0-.012.006-.007.014l4.186 5.953c.005.007.013.007.018 0l4.184-5.953c.005-.008.002-.014-.007-.014h-2.58z"/><path fill="#4E8ABE" d="M16.29 0l3.584 7.38h-2.16l-.666-1.456h-3.614L12.83 7.38h-2.127L13.963 0h2.328zm.17 4.635L15.15 1.762l-1.188 2.873h2.495z"/><path fill="#4E8ABE" d="M19.203 12.623l-4.398 6.025h4.398V20H11.37l4.435-6.027h-4.128v-1.35h7.526z"/></g></svg>