<?xml version="1.0" encoding="utf-8"?><svg xmlns="http://www.w3.org/2000/svg" width="20" height="20" viewBox="0 0 20 20"><path fill="none" d="M0 0h20v20H0z"/><path fill="#4E8ABE" d="M5.957 13.938c-.009 0-.016-.006-.016-.016V.102a.016.016 0 0 0-.016-.016H2.779a.016.016 0 0 0-.016.016v13.82c0 .01-.007.016-.016.016H.164c-.009 0-.012.006-.007.014l4.186 5.953c.005.007.013.007.018 0l4.183-5.953c.005-.008.002-.014-.007-.014h-2.58zM16.291 0l3.583 7.379h-2.16l-.666-1.455h-3.614l-.604 1.455h-2.127L13.962 0h2.329zm.168 4.635l-1.307-2.873-1.188 2.873h2.495zM19.203 12.623l-4.398 6.025h4.398V20h-7.832l4.434-6.027h-4.128v-1.35h7.526z"/></svg>