<svg xmlns="http://www.w3.org/2000/svg" width="20" height="20" viewBox="0 0 20 20"><g><path fill="none" d="M0 0h20v20H0z"/><linearGradient id="a" gradientUnits="userSpaceOnUse" x1="9.999" x2="9.999" y2="20"><stop offset="0" stop-color="#8DCA8E"/><stop offset=".7" stop-color="#48AB4A"/></linearGradient><path d="M20 17c0 1.65-1.35 3-3 3H3c-1.65 0-3-1.35-3-3V3c0-1.65 1.35-3 3-3h14c1.65 0 3 1.35 3 3v14z" fill="url(#a)"/><path d="M8.475 11.704s.027-.263-.266-.544c-.298-.28-2.562-2.456-2.562-2.456-.854-.82-.877-.8-1.678.032l-.665.686c-.81.842-.676.986.03 1.67l1.706 1.638c.47.45 1.24 1.187 1.708 1.637l.855.82c.85.82.85.815 1.672-.032l.82-.85c.455-.465 1.19-1.23 1.648-1.698l5.393-5.57c.822-.85.822-.85-.03-1.67l-.586-.562c-.814-.787-.852-.826-1.676.03l-5.395 5.57s-.556.57-.72.745c-.17.174-.255.554-.255.554z" fill="#fff"/></g></svg>