<?xml version="1.0" encoding="iso-8859-1"?><svg xmlns="http://www.w3.org/2000/svg" width="20" height="20" viewBox="0 0 20 20"><path fill="none" d="M0 0h20v20H0z"/><linearGradient id="a" gradientUnits="userSpaceOnUse" x1="9.999" x2="9.999" y2="20"><stop offset="0" stop-color="#8dca8e"/><stop offset=".7" stop-color="#48ab4a"/></linearGradient><path d="M20 17c0 1.65-1.35 3-3 3H3c-1.65 0-3-1.35-3-3V3c0-1.65 1.35-3 3-3h14c1.65 0 3 1.35 3 3v14z" fill="url(#a)"/><g><path d="M8.475 11.704s.027-.263-.266-.544a991.182 991.182 0 0 1-2.561-2.456c-.854-.82-.877-.799-1.678.032l-.665.686c-.809.842-.676.986.031 1.67l1.705 1.638 1.707 1.637.855.819c.85.82.85.816 1.672-.031l.82-.851c.455-.464 1.191-1.229 1.648-1.697l5.393-5.571c.822-.85.822-.85-.029-1.67l-.587-.561c-.814-.787-.852-.826-1.676.029l-5.395 5.57s-.555.572-.719.746c-.169.174-.255.554-.255.554z" fill="#fff"/></g></svg>