<?xml version="1.0" encoding="iso-8859-1"?><svg xmlns="http://www.w3.org/2000/svg" width="20" height="20" viewBox="140.019 0 20 20"><path fill="none" d="M140.019.001h20v20h-20z"/><g fill="#aaa"><path d="M159.853 12.366c.092.159.166.338.166.396 0 .057-.158.42-.352.676 0 0-.031.041-.244.277-.244.271-.309.553-.16.895l.113.261c.102.299.199.637.213.752.016.114-.176.478-.262.59-.084.111-.484.524-.654.728-.17.199-.211.979-.205 1.08l-.014.088c-.021.119-.031.258-.097.352-.512.729-1.528 1.188-1.528 1.188-.293.135-.679.262-.855.28-.176.021-.906.076-1.229.076h-1.056c-.321 0-.619-.006-.662-.014a20.336 20.336 0 0 0-.737-.048s-1.416-.067-2.411-.184c-.857-.098-1.98-.324-1.98-.324-.316-.063-.824-.16-1.129-.217-.307-.053-1.107-.461-1.107-.783v-7.026c0-.322.252-.658.559-.744s1.023-.666 1.092-.748c.069-.082.374-.535.54-.811l.963-1.84c.129-.296.361-.769.52-1.05l.555-.722c.234-.221.613-.588.84-.817l.511-.688c.145-.289.319-.782.391-1.097l.326-1.795c.029-.32.063-.682.078-.802.014-.122.357-.295.442-.295s.332.013.356.026l.023.006c.885.208 1.43 1.113 1.43 1.113.166.275.326.765.357 1.086l-.176 1.984c-.09.31-.279.799-.424 1.088 0 0-.34.688-.592 1.312-.133.324-.148.457-.148.457-.039.319-.061.652-.047.738s.564.16.885.162l3.041.034c.322.004.85.03 1.17.06 0 0 .486.045.879.507.338.396.527.784.527.784.141.29.256.591.256.67 0 .079-.133.478-.295.709l-.168.195c-.238.279-.232.301-.232.301.103.306.439.974.531 1.134zM144.863 14.961v3.924c0 .609-.379 1.002-.99 1.01-.783.008-2.07.008-2.854 0-.627-.006-.998-.393-.998-1.02-.002-2.609-.002-5.22 0-7.83 0-.625.377-1 1.008-1.003.775-.003 2.057-.003 2.834 0 .621.003 1 .39 1 1.015v3.904z"/></g></svg>