<?xml version="1.0" encoding="utf-8"?><svg xmlns="http://www.w3.org/2000/svg" width="20" height="20" viewBox="0 0 20 20"><path fill="none" d="M0 0h20v20H0z"/><g fill="#FF873C"><path d="M19.834 12.365c.092.16.166.338.166.395 0 .059-.158.42-.353.678 0 0-.03.041-.244.275-.243.271-.31.555-.159.895l.112.262c.103.299.198.635.213.75.017.115-.176.479-.262.59-.084.113-.483.527-.654.729-.17.197-.211.979-.204 1.08l-.015.088c-.021.119-.031.258-.097.352-.512.727-1.528 1.188-1.528 1.188-.293.135-.679.26-.854.279a18.08 18.08 0 0 1-1.229.074H13.67c-.322 0-.619-.006-.662-.014a28.588 28.588 0 0 0-.737-.047s-1.416-.068-2.41-.182c-.857-.1-1.98-.326-1.98-.326-.316-.062-.824-.16-1.129-.217-.307-.053-1.107-.461-1.107-.781v-7.029c0-.322.252-.656.559-.742.307-.088 1.023-.666 1.092-.749.067-.081.374-.533.54-.81l.963-1.84c.129-.297.361-.77.52-1.051l.555-.722c.234-.22.613-.587.84-.816l.51-.688c.145-.287.32-.78.391-1.096l.326-1.795c.029-.32.064-.683.078-.803S12.377 0 12.463 0s.332.014.356.025l.022.007c.886.208 1.431 1.112 1.431 1.112.166.275.326.766.356 1.086l-.176 1.984c-.09.311-.279.801-.424 1.09 0 0-.34.686-.592 1.311-.133.322-.148.457-.148.457-.038.318-.059.652-.046.738s.564.16.885.162l3.041.033c.322.004.851.03 1.17.061 0 0 .486.045.88.507.338.396.526.782.526.782.142.291.256.593.256.67 0 .08-.133.479-.295.711l-.168.195c-.238.279-.231.301-.231.301.1.305.436.973.528 1.133zM4.843 14.959v3.926c0 .607-.379 1-.99 1.008-.782.007-2.069.007-2.853 0-.627-.008-.998-.393-.998-1.02C0 16.266 0 13.654.001 11.045c0-.625.377-1.001 1.008-1.004.775-.002 2.057-.003 2.834.001.621.002 1 .39 1 1.015v3.902z"/></g></svg>