<svg xmlns="http://www.w3.org/2000/svg" width="20" height="20" viewBox="0 0 20 20"><g><path fill="none" d="M0 0h20v20H0z"/><g fill="#4E8ABE"><path d="M19.833 12.365c.092.16.167.338.167.395 0 .06-.16.42-.354.678 0 0-.03.04-.242.275-.244.27-.31.555-.16.895l.11.262c.105.298.2.636.216.75.016.115-.176.48-.262.59-.086.11-.484.527-.656.73-.17.197-.21.978-.204 1.08l-.015.087c-.02.12-.03.258-.096.352-.51.726-1.53 1.187-1.53 1.187-.292.135-.678.26-.854.28-.178.02-.907.076-1.23.076H13.67c-.322 0-.62-.006-.662-.015-.042-.006-.416-.03-.737-.047 0 0-1.42-.066-2.413-.18-.857-.1-1.98-.327-1.98-.327-.316-.062-.824-.16-1.13-.215-.304-.055-1.106-.462-1.106-.783v-7.028c0-.322.252-.657.56-.744.307-.086 1.023-.665 1.09-.748.07-.082.376-.533.54-.812l.965-1.84c.128-.295.36-.768.52-1.05l.554-.723c.234-.22.612-.588.84-.816l.51-.688c.144-.29.32-.782.392-1.098l.326-1.796c.028-.32.062-.68.076-.8.014-.12.357-.293.444-.293.085 0 .333.01.356.025l.023.004c.885.21 1.43 1.112 1.43 1.112.166.276.326.767.356 1.086l-.177 1.984c-.088.31-.278.8-.422 1.09 0 0-.34.686-.593 1.31-.13.323-.146.458-.146.458-.04.318-.062.65-.047.738.014.086.563.16.886.16l3.04.035c.322.004.85.03 1.17.06 0 0 .486.044.88.507.336.396.524.783.524.783.142.29.258.592.258.67 0 .08-.133.48-.295.71l-.168.196c-.238.278-.232.3-.232.3.107.307.442.975.533 1.135zM4.843 14.96v3.925c0 .607-.378 1-.99 1.008-.783.007-2.07.007-2.853 0-.627-.006-1-.393-1-1.02v-7.828c0-.625.38-1.002 1.01-1.004.776-.002 2.057-.003 2.833 0 .622.003 1 .39 1 1.015v3.904z"/></g></g></svg>