<svg xmlns="http://www.w3.org/2000/svg" width="20" height="20" viewBox="0 0 20 20"><g><path fill="none" d="M0 0h20v20H0z"/><g fill="#aaa"><path d="M19.834 12.365c.092.16.166.338.166.396 0 .058-.158.42-.352.677 0 0-.03.04-.244.277-.244.27-.31.553-.16.894l.113.26c.102.3.2.637.213.752.016.115-.176.478-.262.59-.084.112-.484.526-.654.727-.17.2-.21.98-.205 1.08l-.015.088c-.02.12-.03.258-.096.352-.513.728-1.53 1.188-1.53 1.188-.293.134-.678.26-.855.28-.176.02-.906.075-1.228.075h-1.055c-.322 0-.62-.006-.662-.013-.04-.007-.416-.03-.738-.047 0 0-1.416-.07-2.41-.183-.857-.098-1.98-.325-1.98-.325-.316-.064-.824-.16-1.13-.216-.306-.054-1.106-.462-1.106-.784v-7.028c0-.322.252-.657.56-.743.306-.086 1.022-.665 1.09-.747s.374-.534.54-.81l.963-1.84c.128-.296.36-.77.52-1.05l.554-.722c.234-.22.613-.587.84-.816l.51-.688c.145-.29.32-.782.39-1.097l.327-1.796c.03-.32.065-.682.08-.802S12.374 0 12.46 0s.333.013.358.026l.023.006c.886.208 1.43 1.113 1.43 1.113.167.275.327.765.358 1.086l-.176 1.985c-.09.31-.28.8-.424 1.088 0 0-.34.686-.592 1.31-.133.325-.148.458-.148.458-.04.32-.06.653-.047.74s.565.16.886.16l3.04.035c.323.004.85.03 1.17.06 0 0 .487.045.88.507.338.396.527.784.527.784.142.29.257.59.257.67s-.133.477-.295.71l-.168.195c-.238.28-.232.3-.232.3.1.307.437.975.53 1.135zM4.844 14.96v3.925c0 .608-.38 1-.99 1.008-.783.01-2.07.008-2.854 0-.627-.006-.998-.392-.998-1.02-.002-2.608-.002-5.22 0-7.828 0-.625.377-1 1.008-1.004.775-.002 2.057-.002 2.834 0 .62.004 1 .39 1 1.016v3.904z"/></g></g></svg>