<?xml version="1.0" encoding="utf-8"?><svg xmlns="http://www.w3.org/2000/svg" width="20" height="20" viewBox="0 0 20 20"><path fill="none" d="M0 0h20v20H0z"/><g fill="#FFF"><path d="M19.834 12.365c.092.16.166.338.166.396s-.158.419-.353.677c0 0-.03.041-.244.276-.243.271-.31.554-.159.894l.112.262c.103.298.198.636.213.751.017.114-.176.478-.262.59-.084.112-.483.526-.654.728-.17.198-.211.979-.204 1.08l-.015.088c-.021.119-.031.258-.097.352-.512.729-1.528 1.188-1.528 1.188-.293.135-.679.26-.854.281-.177.021-.906.075-1.229.075H13.67c-.322 0-.619-.006-.662-.013a16.99 16.99 0 0 0-.737-.047s-1.416-.069-2.41-.184c-.857-.098-1.98-.324-1.98-.324a65.152 65.152 0 0 0-1.129-.217c-.307-.054-1.107-.462-1.107-.783v-7.029c0-.321.252-.656.559-.742.307-.087 1.023-.666 1.092-.748.068-.084.374-.536.54-.812l.963-1.84c.129-.297.361-.77.52-1.051l.555-.722c.234-.222.613-.589.84-.817l.51-.688c.145-.289.32-.782.391-1.098l.326-1.795c.029-.32.064-.682.078-.802s.357-.293.443-.293.332.013.356.026l.022.006c.886.208 1.431 1.113 1.431 1.113.166.274.326.765.356 1.086l-.176 1.983c-.09.31-.279.8-.424 1.088 0 0-.34.687-.592 1.312-.133.324-.148.457-.148.457-.039.318-.061.652-.047.738s.564.159.885.162l3.041.033c.322.004.851.03 1.17.061 0 0 .486.045.88.506.338.396.526.785.526.785.144.291.258.591.258.671 0 .078-.133.477-.295.709l-.168.195c-.238.28-.231.301-.231.301.1.307.436.975.528 1.135zM4.843 14.96v3.925c0 .608-.379 1.001-.99 1.008-.783.01-2.07.008-2.854 0-.627-.006-.998-.392-.998-1.019v-7.829c0-.625.377-1.001 1.008-1.004.775-.003 2.057-.003 2.834 0 .621.003 1 .391 1 1.016v3.903z"/></g></svg>