<svg xmlns="http://www.w3.org/2000/svg" width="20" height="20" viewBox="0 0 20 20"><g><path fill="none" d="M0 0h20v20H0z"/><g fill="#FF873C"><path d="M19.833 12.365c.092.16.167.338.167.396s-.16.42-.354.678c0 0-.03.04-.242.276-.244.27-.31.554-.16.894l.11.262c.105.3.2.636.216.75.016.115-.176.48-.262.59s-.484.527-.656.73c-.17.197-.21.978-.204 1.08l-.015.087c-.02.12-.03.258-.096.352-.51.726-1.53 1.187-1.53 1.187-.292.135-.678.26-.854.28-.178.02-.907.076-1.23.076H13.67c-.322 0-.62-.006-.662-.015-.042-.006-.416-.03-.737-.047 0 0-1.42-.067-2.413-.18-.857-.1-1.98-.327-1.98-.327-.316-.062-.824-.16-1.13-.216-.305-.054-1.106-.46-1.106-.782v-7.028c0-.322.252-.656.56-.743.307-.087 1.023-.665 1.09-.748.07-.082.376-.533.54-.81l.965-1.84c.128-.298.36-.77.52-1.052l.553-.722c.235-.22.613-.587.84-.817l.51-.688c.145-.29.32-.78.393-1.096l.327-1.797c.03-.32.063-.682.077-.8.014-.122.357-.294.444-.294.085 0 .333.01.356.025l.023.005c.885.21 1.43 1.112 1.43 1.112.166.276.326.767.356 1.086l-.177 1.985c-.088.31-.278.8-.422 1.09 0 0-.34.686-.593 1.31-.13.324-.146.457-.146.457-.04.318-.062.652-.047.738.014.086.563.16.886.162l3.04.033c.322.004.85.03 1.17.06 0 0 .486.046.88.507.336.396.524.785.524.785.142.29.258.592.258.67s-.133.478-.295.71l-.168.194c-.238.28-.232.3-.232.3.107.307.442.975.533 1.135zM4.843 14.96v3.925c0 .607-.378 1-.99 1.008-.783.007-2.07.007-2.853 0-.627-.007-1-.393-1-1.02v-7.827c0-.625.38-1.002 1.01-1.005.776 0 2.057-.002 2.833.002.622.002 1 .39 1 1.015v3.902z"/></g></g></svg>