<?xml version="1.0" encoding="utf-8"?><svg xmlns="http://www.w3.org/2000/svg" width="20" height="20" viewBox="0 0 20 20"><path fill="none" d="M0 0h20v20H0z"/><g fill="#FF873C"><path d="M.168 7.635C.077 7.475 0 7.297 0 7.239s.16-.419.354-.677c0 0 .029-.041.242-.276.244-.271.309-.554.16-.894l-.112-.261A6.07 6.07 0 0 1 .43 4.38c-.015-.114.176-.478.262-.59.084-.112.484-.526.654-.728.17-.198.211-.979.205-1.08l.014-.088c.02-.119.031-.258.096-.352C2.173.816 3.19.355 3.19.355c.293-.135.68-.26.855-.28.178-.021.908-.076 1.229-.076H6.33c.322 0 .621.006.662.015.043.006.416.029.737.047 0 0 1.416.068 2.41.182.856.099 1.979.326 1.979.326.316.062.824.16 1.129.216.308.054 1.107.461 1.107.782v7.029c0 .321-.25.655-.559.742-.307.087-1.023.665-1.092.748-.068.082-.375.533-.539.811l-.965 1.84c-.129.297-.361.77-.521 1.051l-.553.722c-.236.22-.613.587-.84.817l-.512.688c-.145.289-.32.782-.391 1.098l-.326 1.796a48.22 48.22 0 0 1-.078.802c-.014.12-.357.292-.443.292s-.332-.012-.355-.026l-.025-.004c-.885-.21-1.43-1.113-1.43-1.113a3.051 3.051 0 0 1-.355-1.086l.176-1.985c.088-.31.277-.8.422-1.088 0 0 .34-.687.594-1.312.134-.327.148-.459.148-.459.039-.318.062-.652.047-.738s-.562-.16-.885-.162l-3.041-.033a17.626 17.626 0 0 1-1.17-.061s-.486-.045-.879-.506c-.336-.396-.525-.785-.525-.785-.142-.29-.257-.592-.257-.67s.133-.478.295-.711l.168-.193c.238-.281.232-.301.232-.301-.101-.307-.437-.975-.527-1.135zM15.158 5.041V1.115c0-.607.377-1.001.988-1.008C16.93.1 18.217.1 19 .107c.627.007 1 .393 1 1.019v7.828c0 .625-.379 1.002-1.01 1.005-.775.002-2.057.003-2.834-.001-.621-.002-.998-.39-.998-1.015V5.041z"/></g></svg>