<svg xmlns="http://www.w3.org/2000/svg" width="20" height="20" viewBox="0 0 20 20"><g><path fill="none" d="M0 0h20v20H0z"/><g fill="#FF873C"><path d="M.167 7.635C.075 7.475 0 7.297 0 7.24s.16-.42.353-.678c0 0 .03-.04.243-.276.244-.27.308-.554.16-.893L.645 5.13c-.103-.298-.2-.635-.214-.75-.016-.114.176-.478.262-.59.085-.112.484-.526.655-.728.17-.198.21-.98.205-1.08l.014-.088c.02-.12.03-.258.096-.352.51-.727 1.53-1.188 1.53-1.188.293-.135.678-.26.855-.28.177-.02.907-.076 1.23-.076H6.33c.323 0 .62.006.663.015.042.007.416.03.738.048 0 0 1.418.07 2.412.183.857.1 1.98.326 1.98.326.315.06.824.16 1.13.215.305.054 1.106.46 1.106.782v7.028c0 .322-.25.656-.558.743-.31.087-1.024.665-1.093.748-.07.082-.375.533-.54.81l-.964 1.84c-.128.298-.36.77-.52 1.052l-.554.722c-.236.22-.614.587-.84.817l-.51.687c-.144.29-.32.782-.39 1.098l-.327 1.796c-.03.32-.063.68-.077.8-.014.12-.357.293-.444.293-.085 0-.333-.01-.356-.025l-.024-.005c-.885-.21-1.43-1.112-1.43-1.112-.166-.276-.326-.766-.356-1.086l.176-1.985c.09-.31.28-.8.422-1.088 0 0 .34-.688.593-1.313.132-.324.147-.457.147-.457.04-.318.062-.652.046-.738-.013-.086-.563-.16-.885-.16l-3.04-.035c-.323-.004-.85-.03-1.17-.06 0 0-.487-.046-.88-.507-.336-.396-.525-.785-.525-.785-.14-.29-.257-.592-.257-.67s.133-.478.295-.71l.167-.194c.24-.28.234-.3.234-.3-.107-.307-.442-.975-.533-1.135zM15.157 5.04V1.116c0-.607.378-1 .99-1.008C16.93.1 18.216.1 19 .107c.627.007 1 .393 1 1.02v7.827c0 .625-.38 1.002-1.01 1.005-.776 0-2.057.002-2.833-.002-.622-.002-1-.39-1-1.015V5.04z"/></g></g></svg>