<svg xmlns="http://www.w3.org/2000/svg" width="20" height="20" viewBox="0 0 20 20"><g><path fill="none" d="M0 0h20v20H0z"/><g fill="#FF873C"><path d="M.168 7.635C.078 7.475 0 7.297 0 7.24s.16-.42.354-.678c0 0 .03-.04.242-.276.244-.27.31-.554.16-.894l-.112-.26C.542 4.83.446 4.494.43 4.38c-.015-.114.176-.478.262-.59.084-.112.484-.526.654-.728.17-.198.21-.98.205-1.08l.015-.088c.02-.12.03-.258.096-.352C2.174.816 3.19.355 3.19.355c.293-.135.68-.26.855-.28C4.223.055 4.953 0 5.275 0H6.33c.322 0 .62.005.662.014.043.006.416.03.737.047 0 0 1.415.07 2.41.183.855.1 1.978.326 1.978.326.316.06.824.16 1.13.215.307.054 1.106.46 1.106.782v7.03c0 .32-.25.654-.56.74-.306.088-1.022.666-1.09.75-.07.08-.376.532-.54.81l-.965 1.84c-.13.297-.362.77-.522 1.05l-.553.723c-.236.22-.613.587-.84.817l-.512.688c-.145.29-.32.782-.39 1.098l-.327 1.796c-.03.318-.064.68-.078.8-.014.12-.357.293-.443.293s-.332-.012-.355-.026l-.025-.004c-.885-.21-1.43-1.113-1.43-1.113-.166-.276-.326-.766-.355-1.086l.176-1.985c.088-.31.277-.8.422-1.09 0 0 .34-.686.594-1.31.134-.328.148-.46.148-.46.04-.318.062-.652.047-.738s-.562-.16-.885-.162l-3.04-.033c-.323-.004-.85-.03-1.17-.06 0 0-.487-.046-.88-.507-.336-.396-.525-.785-.525-.785-.142-.29-.257-.592-.257-.67s.133-.478.295-.71l.168-.194c.238-.28.232-.3.232-.3-.1-.307-.437-.975-.527-1.135zM15.158 5.04V1.116c0-.607.377-1 .988-1.008C16.93.1 18.216.1 19 .107c.627.007 1 .393 1 1.02v7.827c0 .625-.38 1.002-1.01 1.005-.775 0-2.057.002-2.834-.002-.62-.002-.998-.39-.998-1.015V5.04z"/></g></g></svg>