<svg xmlns="http://www.w3.org/2000/svg" width="20" height="20" viewBox="0 0 20 20"><g><path fill="none" d="M0 0h20v20H0z"/><g fill="#aaa"><path d="M19.833 12.365c.092.16.167.338.167.395 0 .058-.16.42-.353.677 0 0-.03.04-.243.276-.244.27-.31.554-.16.895l.113.26c.102.3.198.637.213.752.016.115-.176.477-.262.59-.084.11-.484.526-.654.727-.17.2-.21.98-.205 1.08l-.015.088c-.02.12-.03.258-.096.352-.513.727-1.53 1.188-1.53 1.188-.293.134-.68.26-.855.28-.177.02-.907.075-1.228.075h-1.055c-.322 0-.62-.006-.662-.014-.042-.006-.416-.03-.738-.047 0 0-1.417-.07-2.41-.183-.857-.098-1.98-.326-1.98-.326-.316-.062-.824-.16-1.13-.214s-1.106-.462-1.106-.784v-7.028c0-.322.25-.657.558-.744.308-.087 1.024-.666 1.092-.748.07-.082.375-.534.54-.81L8.8 7.26c.128-.297.36-.77.52-1.05l.553-.723c.235-.22.613-.588.84-.818l.51-.688c.146-.29.32-.782.392-1.096l.326-1.795c.03-.32.065-.682.08-.802s.355-.29.44-.29.333.012.357.026l.024.005c.886.21 1.43 1.114 1.43 1.114.167.276.327.765.357 1.086l-.176 1.984c-.088.31-.278.8-.422 1.088 0 0-.34.686-.593 1.31-.132.325-.147.458-.147.458-.04.32-.06.652-.047.738.015.086.564.16.886.162l3.04.034c.323.004.85.03 1.17.06 0 0 .487.044.88.506.337.396.526.784.526.784.143.292.258.593.258.672 0 .08-.133.477-.295.71l-.168.195c-.238.28-.232.3-.232.3.1.307.437.975.528 1.135zM4.843 14.96v3.925c0 .607-.378 1-.99 1.008-.783.007-2.07.007-2.853 0-.627-.006-1-.393-1-1.02v-7.828c0-.625.38-1 1.01-1.004.776 0 2.057-.002 2.833 0 .622.003 1 .39 1 1.015v3.904z"/></g></g></svg>