<?xml version="1.0" encoding="utf-8"?><svg xmlns="http://www.w3.org/2000/svg" width="20" height="20" viewBox="0 0 20 20"><path fill="none" d="M0 0h20v20H0z"/><g fill="#EE4249"><path d="M.168 7.636C.077 7.476 0 7.298 0 7.241s.16-.419.354-.677c0 0 .029-.041.242-.276.244-.271.309-.554.16-.894l-.112-.262a6.02 6.02 0 0 1-.214-.751c-.016-.114.176-.478.262-.59.084-.112.484-.526.654-.728.17-.198.211-.979.205-1.08l.014-.088c.02-.119.031-.258.096-.352C2.173.818 3.19.357 3.19.357c.293-.135.68-.26.855-.28C4.223.056 4.954 0 5.274 0H6.33c.322 0 .621.006.662.015.043.006.416.029.738.047 0 0 1.416.068 2.41.182.856.099 1.979.326 1.979.326.316.062.824.16 1.129.216.308.054 1.107.461 1.107.782v7.029c0 .321-.25.655-.559.742-.307.087-1.023.665-1.092.748a10.99 10.99 0 0 0-.539.811l-.965 1.84c-.129.297-.361.77-.521 1.049l-.553.723c-.236.221-.613.588-.84.816l-.512.689c-.145.287-.32.779-.391 1.096l-.326 1.795c-.029.32-.064.682-.078.803-.012.119-.355.291-.441.291s-.332-.012-.355-.025l-.025-.004c-.885-.211-1.43-1.113-1.43-1.113a3.058 3.058 0 0 1-.355-1.086l.176-1.984c.088-.311.277-.799.422-1.088 0 0 .34-.686.594-1.311.131-.324.146-.457.146-.457.039-.32.062-.652.047-.738s-.562-.16-.885-.162l-3.041-.035a17.622 17.622 0 0 1-1.17-.059s-.486-.045-.879-.508c-.336-.396-.525-.783-.525-.783-.143-.29-.258-.593-.258-.671s.133-.478.295-.711l.168-.193c.238-.28.232-.301.232-.301-.101-.307-.437-.975-.527-1.135zM15.158 5.042V1.116c0-.607.377-1.001.988-1.008C16.929.1 18.216.1 19 .108c.627.007 1 .393 1 1.019v7.828c0 .625-.379 1.002-1.01 1.005-.775.002-2.057.003-2.834-.001-.621-.002-.998-.39-.998-1.015V5.042z"/></g></svg>