<svg xmlns="http://www.w3.org/2000/svg" width="20" height="20" viewBox="0 0 20 20"><g><path fill="none" d="M0 0h20v20H0z"/><g fill="#EE4249"><path d="M.168 7.636C.078 7.476 0 7.298 0 7.24s.16-.418.354-.676c0 0 .03-.04.242-.276.244-.27.31-.554.16-.894l-.112-.262c-.102-.3-.198-.635-.214-.75-.016-.115.176-.48.262-.59.084-.113.484-.527.654-.73.17-.197.21-.978.205-1.08l.015-.087c.02-.12.03-.258.096-.352C2.174.818 3.19.357 3.19.357c.293-.135.68-.26.855-.28.178-.02.91-.077 1.23-.077H6.33c.322 0 .62.006.662.015.043.006.416.03.738.047 0 0 1.416.068 2.41.182.856.1 1.98.326 1.98.326.315.062.823.16 1.128.216.308.054 1.107.46 1.107.782v7.03c0 .32-.25.654-.56.74-.306.088-1.022.666-1.09.75-.07.08-.376.533-.54.81l-.965 1.84c-.13.297-.36.77-.52 1.05l-.554.722c-.236.22-.613.588-.84.816l-.512.69c-.145.286-.32.778-.39 1.095l-.327 1.796c-.03.32-.064.682-.078.803-.013.118-.356.29-.442.29s-.332-.012-.355-.025l-.025-.004c-.885-.21-1.43-1.112-1.43-1.112-.166-.277-.326-.766-.355-1.086l.176-1.984c.087-.31.276-.8.42-1.088 0 0 .34-.686.595-1.31.13-.325.146-.458.146-.458.04-.32.063-.652.048-.738s-.562-.16-.885-.162l-3.04-.035c-.323-.004-.85-.03-1.17-.06 0 0-.487-.044-.88-.507-.336-.396-.525-.783-.525-.783-.143-.29-.258-.593-.258-.67s.133-.48.295-.712l.168-.193c.238-.28.232-.3.232-.3-.1-.308-.437-.976-.527-1.136zM15.158 5.042V1.116c0-.607.377-1 .988-1.008C16.93.1 18.216.1 19 .108c.627.007 1 .393 1 1.02v7.827c0 .625-.38 1.002-1.01 1.005-.775.002-2.057.003-2.834 0-.62-.003-.998-.39-.998-1.016V5.042z"/></g></g></svg>