<svg xmlns="http://www.w3.org/2000/svg" width="20" height="20" viewBox="0 0 20 20"><g><path fill="none" d="M0 0h20v20H0z"/><g fill="#FF873C"><path d="M19.834 12.365c.092.16.166.338.166.395 0 .06-.158.42-.353.678 0 0-.03.04-.244.275-.243.27-.31.555-.16.895l.113.262c.103.3.198.635.213.75.016.115-.177.48-.263.59-.084.113-.483.527-.654.73-.17.196-.21.978-.204 1.08l-.016.087c-.02.12-.03.258-.097.352-.512.726-1.528 1.187-1.528 1.187-.294.135-.68.26-.855.28-.177.018-.906.073-1.23.073H13.67c-.322 0-.62-.006-.662-.014-.04-.006-.416-.03-.737-.047 0 0-1.415-.07-2.41-.183-.856-.1-1.98-.326-1.98-.326-.315-.06-.823-.16-1.128-.216-.307-.053-1.107-.46-1.107-.78v-7.03c0-.322.252-.656.56-.742.306-.088 1.022-.666 1.09-.75.068-.08.375-.532.54-.81l.964-1.84c.128-.296.36-.77.52-1.05l.554-.722c.234-.22.613-.587.84-.816l.51-.688c.145-.287.32-.78.39-1.096l.327-1.795c.03-.32.065-.683.08-.803S12.376 0 12.462 0s.332.014.356.025l.02.007c.887.208 1.432 1.112 1.432 1.112.166.275.326.766.356 1.086l-.176 1.984c-.09.31-.28.8-.424 1.09 0 0-.34.686-.592 1.31-.133.323-.148.458-.148.458-.038.318-.06.652-.046.738s.564.16.885.162l3.04.033c.323.004.852.03 1.17.06 0 0 .487.046.88.508.34.396.527.782.527.782.142.29.256.593.256.67 0 .08-.133.48-.295.71l-.168.196c-.238.28-.23.302-.23.302.1.305.435.973.527 1.133zM4.843 14.96v3.925c0 .607-.38 1-.99 1.008-.782.007-2.07.007-2.853 0-.627-.008-.998-.393-.998-1.02-.002-2.607-.002-5.22 0-7.828 0-.625.376-1 1.007-1.004.774 0 2.056-.002 2.833.002.62.002 1 .39 1 1.015v3.902z"/></g></g></svg>