<svg xmlns="http://www.w3.org/2000/svg" width="20" height="20" viewBox="0 0 20 20"><g><path fill="none" d="M0 0h20v20H0z"/><g fill="#EE4249"><path d="M19.833 12.363c.092.16.167.338.167.397 0 .057-.16.418-.354.676 0 0-.03.04-.242.277-.244.27-.31.553-.16.893l.11.262c.105.3.2.637.216.752.016.113-.176.477-.262.59-.086.11-.484.525-.656.727-.17.2-.21.98-.204 1.08l-.015.088c-.02.12-.03.258-.096.352-.51.727-1.53 1.188-1.53 1.188-.292.135-.678.26-.854.28-.178.018-.907.075-1.228.075H13.67c-.323 0-.62-.006-.663-.016-.042-.006-.416-.03-.737-.047 0 0-1.418-.068-2.412-.182-.857-.098-1.98-.326-1.98-.326-.316-.063-.824-.16-1.13-.216-.305-.055-1.106-.46-1.106-.783v-7.028c0-.32.25-.654.558-.742.308-.086 1.024-.665 1.092-.748.07-.082.375-.533.54-.81l.964-1.842c.128-.296.36-.77.52-1.05l.553-.72c.234-.222.612-.59.84-.818l.51-.688c.144-.287.32-.78.392-1.096l.326-1.796c.028-.318.062-.68.076-.8S12.37 0 12.458 0c.085 0 .333.012.356.026l.023.005c.885.21 1.43 1.113 1.43 1.113.166.276.326.766.356 1.086l-.177 1.983c-.088.31-.278.8-.422 1.088 0 0-.34.687-.593 1.312-.13.324-.146.457-.146.457-.04.32-.062.65-.047.737.014.086.563.16.886.162l3.04.033c.322.004.85.03 1.17.06 0 0 .486.045.88.508.336.397.524.784.524.784.142.29.258.592.258.67s-.133.478-.295.71l-.168.193c-.238.28-.232.3-.232.3.107.308.442.976.533 1.136zM4.843 14.957v3.926c0 .607-.378 1.002-.99 1.008-.783.01-2.07.01-2.853 0-.627-.005-1-.392-1-1.017v-7.828c0-.625.38-1.002 1.01-1.005.776-.002 2.057-.003 2.833 0 .622.003 1 .39 1 1.015v3.902z"/></g></g></svg>