<svg xmlns="http://www.w3.org/2000/svg" width="20" height="20" viewBox="0 0 20 20"><g><path fill="none" d="M0 0h20v20H0z"/><g fill="#48AB4A"><path d="M.167 7.635C.075 7.475 0 7.297 0 7.24c0-.06.16-.42.353-.678 0 0 .03-.04.243-.275.244-.27.308-.555.16-.894L.645 5.13c-.103-.297-.2-.635-.214-.75-.016-.114.176-.478.262-.59.085-.11.484-.526.655-.728.17-.198.21-.98.205-1.08l.014-.088c.02-.12.03-.258.096-.352.51-.727 1.53-1.188 1.53-1.188.293-.135.678-.26.855-.28.177-.02.907-.076 1.23-.076H6.33c.323 0 .62.006.663.015.042.007.416.03.738.048 0 0 1.418.068 2.412.183.857.098 1.98.326 1.98.326.315.06.824.16 1.13.214.305.055 1.106.462 1.106.783v7.03c0 .32-.25.655-.558.742-.31.085-1.024.664-1.093.747-.07.082-.375.533-.54.812l-.964 1.84c-.128.294-.36.767-.52 1.048l-.554.723c-.236.222-.614.59-.84.817l-.51.687c-.144.29-.32.782-.39 1.098l-.327 1.796c-.03.32-.063.68-.077.8-.014.12-.357.293-.444.293-.085 0-.333-.01-.356-.025l-.024-.004c-.886-.21-1.43-1.112-1.43-1.112-.166-.276-.326-.767-.356-1.086l.176-1.984c.09-.31.28-.8.422-1.09 0 0 .34-.686.593-1.31.132-.323.147-.458.147-.458.04-.318.062-.65.046-.738-.013-.086-.563-.16-.885-.16l-3.04-.035c-.323-.004-.85-.03-1.17-.06 0 0-.487-.044-.88-.507-.336-.396-.525-.783-.525-.783-.14-.29-.257-.592-.257-.67 0-.08.133-.48.295-.71l.167-.196c.24-.28.234-.3.234-.3-.107-.307-.442-.975-.533-1.135zM15.157 5.04V1.116c0-.607.378-1 .99-1.008C16.93.1 18.216.1 19 .107c.627.006 1 .393 1 1.02v7.828c0 .625-.38 1.002-1.01 1.004-.776.002-2.057.003-2.833 0-.622-.003-1-.39-1-1.015V5.04z"/></g></g></svg>