<?xml version="1.0" encoding="iso-8859-1"?><svg xmlns="http://www.w3.org/2000/svg" width="20" height="20" viewBox="140.019 0 20 20" enable-background="new 140.019 0 20 20"><path fill="none" d="M140.02 0h20v20h-20z"/><g fill="#aaa"><path d="M159.853 12.366c.092.16.166.338.166.396 0 .057-.16.42-.353.676 0 0-.03.04-.244.277-.244.27-.31.553-.16.895l.113.26c.102.3.2.638.213.753.015.114-.177.478-.263.59-.084.11-.484.524-.654.728-.17.2-.21.98-.205 1.08l-.014.09c-.02.118-.03.257-.097.35-.512.73-1.528 1.19-1.528 1.19-.294.134-.68.26-.856.28-.176.02-.906.075-1.23.075h-1.055c-.322 0-.62-.006-.663-.014-.04-.006-.416-.03-.737-.047 0 0-1.416-.067-2.41-.184-.858-.1-1.98-.325-1.98-.325-.317-.063-.825-.16-1.13-.217-.307-.053-1.107-.46-1.107-.783V11.41c0-.323.252-.66.56-.745s1.022-.666 1.09-.748c.07-.082.375-.535.54-.81l.964-1.84c.13-.297.36-.77.52-1.05l.555-.723c.234-.22.613-.588.84-.817l.51-.688c.146-.29.32-.783.392-1.098l.326-1.795c.03-.32.063-.682.078-.802.014-.122.357-.295.442-.295s.332.013.356.026l.023.006c.884.208 1.43 1.113 1.43 1.113.165.275.325.765.356 1.086l-.176 1.985c-.09.31-.28.8-.424 1.088 0 0-.34.688-.592 1.312-.133.324-.148.457-.148.457-.04.32-.06.652-.047.738s.563.16.884.162l3.04.034c.323.004.85.03 1.17.06 0 0 .487.045.88.507.338.396.527.784.527.784.142.29.257.59.257.67 0 .08-.133.478-.295.71l-.168.194c-.238.28-.232.302-.232.302.103.306.44.974.53 1.134zM144.863 14.96v3.925c0 .61-.38 1.002-.99 1.01-.783.008-2.07.008-2.854 0-.628-.006-1-.393-1-1.02v-7.83c0-.625.378-1 1.01-1.003.774-.003 2.056-.003 2.833 0 .62.003 1 .39 1 1.015v3.904z"/></g></svg>