<?xml version="1.0" encoding="utf-8"?><svg xmlns="http://www.w3.org/2000/svg" width="20" height="20" viewBox="0 0 20 20"><path fill="none" d="M0 0h20v20H0z"/><g fill="#4E8ABE"><path d="M.168 7.636C.077 7.477 0 7.298 0 7.241c0-.059.16-.42.354-.678 0 0 .029-.039.242-.275.244-.271.309-.555.16-.895l-.112-.262a5.97 5.97 0 0 1-.214-.75c-.016-.115.176-.479.262-.59.084-.111.484-.527.654-.726.17-.2.211-.979.205-1.08l.014-.088c.02-.121.031-.258.096-.353C2.173.817 3.19.356 3.19.356c.293-.135.68-.26.855-.28C4.223.055 4.954 0 5.274 0H6.33c.322 0 .621.006.662.015.043.005.416.028.737.046 0 0 1.416.068 2.41.182.856.099 1.979.326 1.979.326.316.062.824.16 1.129.216.308.054 1.107.461 1.107.782v7.029c0 .322-.25.656-.559.743-.307.087-1.023.665-1.092.748a10.99 10.99 0 0 0-.539.811l-.965 1.84c-.129.297-.361.77-.521 1.051l-.553.721c-.236.221-.613.588-.84.816l-.512.688a5.77 5.77 0 0 0-.391 1.096l-.326 1.797c-.029.32-.064.682-.078.803-.011.118-.354.29-.44.29s-.332-.012-.355-.025l-.025-.006c-.885-.209-1.43-1.113-1.43-1.113a3.032 3.032 0 0 1-.355-1.086l.176-1.982c.088-.312.277-.801.422-1.09 0 0 .34-.686.594-1.311.131-.325.145-.457.145-.457.039-.32.062-.652.047-.738s-.562-.16-.885-.162l-3.041-.033a17.626 17.626 0 0 1-1.17-.061s-.486-.045-.879-.506c-.336-.396-.525-.785-.525-.785-.142-.289-.257-.592-.257-.67s.133-.478.295-.711l.168-.193c.238-.28.232-.301.232-.301-.101-.306-.437-.974-.527-1.134zM15.158 5.042V1.117c0-.608.377-1.002.988-1.009C16.93.1 18.217.1 19 .108c.627.007 1 .393 1 1.02v7.828c0 .625-.379 1.002-1.01 1.005-.775.002-2.057.003-2.834-.001-.621-.002-.998-.389-.998-1.014V5.042z"/></g></svg>