<?xml version="1.0" encoding="iso-8859-1"?><svg xmlns="http://www.w3.org/2000/svg" width="20" height="20.001" viewBox="0 0 20 20.001"><path fill="none" d="M0 .001h20v20H0z"/><g fill="#aaa"><path d="M.168 7.637C.076 7.477 0 7.299 0 7.241s.16-.419.354-.677c0 0 .029-.04.242-.276.244-.271.309-.554.16-.894l-.113-.261c-.102-.298-.198-.635-.213-.75s.176-.478.262-.59c.084-.112.484-.527.654-.727.17-.2.211-.979.205-1.08l.014-.088c.02-.121.031-.258.096-.352C2.173.818 3.19.357 3.19.357c.293-.134.68-.26.855-.28.178-.021.908-.076 1.229-.076h1.055c.322 0 .621.006.662.014.043.007.416.03.738.047 0 0 1.416.069 2.41.182.857.099 1.98.326 1.98.326.316.063.646.16.951.216.307.053.93.46.93.782v7.029c0 .322-.072.656-.381.743-.307.087-.934.665-1.002.748-.07.082-.33.533-.496.811l-.941 1.84c-.129.296-.352.769-.508 1.05l-.549.722c-.236.22-.611.587-.838.816l-.51.688a5.738 5.738 0 0 0-.389 1.096l-.326 1.796c-.029.32-.064.682-.078.802s-.357.292-.443.292-.332-.012-.355-.026l-.025-.005c-.885-.209-1.43-1.113-1.43-1.113a3.045 3.045 0 0 1-.355-1.086l.176-1.984c.088-.311.277-.8.422-1.089 0 0 .34-.686.594-1.311.131-.323.146-.457.146-.457.039-.319.061-.651.047-.738-.014-.086-.562-.16-.885-.161l-3.041-.034a17.626 17.626 0 0 1-1.17-.061s-.486-.044-.879-.506c-.336-.396-.525-.784-.525-.784-.144-.291-.259-.592-.259-.67 0-.079.133-.478.295-.711l.168-.194c.238-.281.232-.301.232-.301-.101-.305-.437-.973-.527-1.133zM15 5.042V1.117c0-.608.457-1.002 1.068-1.008C16.851.1 18.177.1 18.961.108c.627.007 1.02.393 1.02 1.02 0 2.609.01 5.219.01 7.828 0 .625-.373 1.002-1.004 1.005-.777.002-2.133.003-2.91-.001C15.455 9.958 15 9.571 15 8.946V5.042z"/></g></svg>