<svg xmlns="http://www.w3.org/2000/svg" width="20" height="20" viewBox="0 0 20 20"><g><path fill="none" d="M0 0h20v20H0z"/><g fill="#EE4249"><path d="M19.834 12.363c.092.16.166.338.166.397 0 .057-.158.418-.353.676 0 0-.03.04-.244.277-.243.27-.31.553-.16.893l.113.262c.103.3.198.637.213.752.016.113-.177.477-.263.59-.084.11-.483.525-.654.727-.17.2-.21.98-.204 1.08l-.016.088c-.02.12-.03.258-.097.352-.512.727-1.528 1.188-1.528 1.188-.294.135-.68.26-.855.28-.177.018-.906.075-1.23.075H13.67c-.322 0-.62-.006-.662-.016-.04-.006-.416-.03-.737-.047 0 0-1.415-.068-2.41-.182-.856-.098-1.98-.326-1.98-.326-.315-.063-.823-.16-1.128-.216-.307-.055-1.107-.46-1.107-.783v-7.028c0-.32.252-.654.56-.742.306-.086 1.022-.665 1.09-.748.068-.08.375-.533.54-.81l.964-1.84c.128-.297.36-.77.52-1.05l.554-.722c.234-.22.613-.588.84-.817l.51-.688c.145-.287.32-.78.39-1.096l.327-1.797c.03-.32.065-.682.08-.802s.357-.29.443-.29.332.012.356.026l.02.004c.887.21 1.432 1.113 1.432 1.113.166.276.326.766.356 1.086l-.176 1.983c-.09.31-.28.8-.424 1.088 0 0-.34.687-.592 1.312-.133.324-.148.457-.148.457-.04.32-.06.65-.047.737s.565.16.886.162l3.04.033c.323.004.852.03 1.17.06 0 0 .487.045.88.508.34.397.527.784.527.784.143.29.257.592.257.67s-.133.478-.295.71l-.168.193c-.238.28-.23.3-.23.3.1.308.435.976.527 1.136zM4.843 14.957v3.926c0 .607-.38 1.002-.99 1.008-.783.01-2.07.01-2.854 0-.628-.005-1-.392-1-1.017v-7.828c0-.625.378-1.002 1.01-1.005.774-.002 2.056-.003 2.833 0 .62.003 1 .39 1 1.015v3.902z"/></g></g></svg>