<svg xmlns="http://www.w3.org/2000/svg" width="20" height="20" viewBox="0 0 20 20"><g><path fill="none" d="M0 0h20v20H0z"/><g fill="#aaa"><path d="M.167 7.635C.075 7.475 0 7.297 0 7.24c0-.057.16-.42.353-.676 0 0 .03-.04.243-.277.244-.272.308-.554.16-.894l-.113-.26c-.103-.3-.2-.636-.214-.75-.017-.116.175-.48.26-.59.086-.113.485-.528.656-.728.17-.2.21-.98.205-1.08l.015-.088c.02-.12.03-.258.096-.352C2.173.817 3.19.355 3.19.355c.294-.133.68-.26.856-.28C4.222.055 4.952 0 5.273 0h1.055c.322 0 .62.006.662.013.042.007.416.03.738.047 0 0 1.417.07 2.41.182.858.098 1.98.326 1.98.326.317.064.647.16.952.216.307.053.93.46.93.783v7.03c0 .32-.073.656-.38.742-.308.086-.936.665-1.004.747-.07.082-.33.534-.495.81l-.94 1.84c-.13.296-.352.77-.51 1.05l-.548.723c-.235.22-.61.587-.837.816l-.51.688c-.144.29-.32.782-.39 1.097l-.325 1.796c-.03.32-.063.682-.077.8-.014.122-.358.294-.444.294-.086 0-.334-.012-.357-.026l-.024-.005c-.886-.21-1.43-1.114-1.43-1.114-.167-.276-.327-.766-.357-1.086l.176-1.984c.088-.31.278-.8.42-1.09 0 0 .34-.685.594-1.31.132-.323.148-.457.148-.457.04-.32.06-.652.046-.74-.013-.085-.563-.16-.885-.16l-3.04-.035c-.323-.004-.85-.03-1.17-.06 0 0-.487-.044-.88-.507-.336-.396-.525-.784-.525-.784-.142-.29-.258-.59-.258-.67 0-.08.133-.477.295-.71l.167-.195c.24-.28.233-.3.233-.3-.102-.307-.437-.975-.528-1.135zM15 5.04V1.117c0-.608.457-1 1.067-1.008.784-.01 2.11-.008 2.894 0 .628.006 1.02.392 1.02 1.02 0 2.608.01 5.218.01 7.828 0 .625-.373 1-1.004 1.004-.776.002-2.133.003-2.91 0C15.455 9.957 15 9.57 15 8.945V5.04z"/></g></g></svg>