<?xml version="1.0" encoding="utf-8"?><svg xmlns="http://www.w3.org/2000/svg" width="20" height="20" viewBox="0 0 20 20"><path fill="none" d="M0 0h20v20H0z"/><g fill="#EE4249"><path d="M19.834 12.363c.092.16.166.338.166.397 0 .057-.158.418-.353.676 0 0-.03.041-.244.277-.243.27-.31.553-.159.893l.112.262c.103.299.198.637.213.752.017.113-.176.477-.262.59-.084.111-.483.525-.654.727-.17.199-.211.979-.204 1.08l-.015.088c-.021.119-.031.258-.097.352-.512.727-1.528 1.188-1.528 1.188-.293.135-.679.26-.854.281a19.48 19.48 0 0 1-1.229.074H13.67c-.322 0-.619-.006-.662-.016a28.588 28.588 0 0 0-.737-.047s-1.416-.068-2.41-.182c-.857-.098-1.98-.326-1.98-.326-.316-.062-.824-.16-1.129-.215-.307-.055-1.107-.461-1.107-.783v-7.029a.82.82 0 0 1 .559-.742c.307-.086 1.023-.665 1.092-.748.067-.081.374-.533.54-.81l.963-1.84c.129-.297.361-.77.52-1.05l.555-.722c.234-.221.613-.588.84-.817l.51-.688c.145-.287.32-.78.391-1.096l.326-1.796c.029-.319.064-.682.078-.802S12.377 0 12.463 0s.332.012.356.026l.022.004c.886.21 1.431 1.113 1.431 1.113.166.276.326.766.356 1.086l-.176 1.984c-.09.311-.279.799-.424 1.088 0 0-.34.686-.592 1.311-.133.324-.148.457-.148.457-.039.32-.061.652-.047.738s.564.16.885.162l3.041.034c.322.004.851.03 1.17.06 0 0 .486.045.88.508.338.396.526.783.526.783.143.289.257.592.257.67s-.133.478-.295.71l-.168.193c-.238.281-.231.301-.231.301.1.307.436.975.528 1.135zM4.843 14.957v3.926c0 .607-.379 1.002-.99 1.008-.783.008-2.07.008-2.854 0-.627-.006-.998-.393-.998-1.018v-7.828c0-.625.377-1.002 1.008-1.005.775-.002 2.057-.003 2.834.001.621.002 1 .39 1 1.014v3.902z"/></g></svg>