<svg xmlns="http://www.w3.org/2000/svg" width="20" height="20" viewBox="0 0 20 20"><g><path fill="none" d="M0 0h20v20H0z"/><g fill="#EE4249"><path d="M.167 7.636C.075 7.476 0 7.298 0 7.24s.16-.418.353-.676c0 0 .03-.04.243-.276.244-.27.308-.554.16-.894l-.112-.262c-.103-.3-.2-.635-.214-.75-.016-.115.176-.48.262-.59.085-.113.484-.527.655-.73.17-.197.21-.978.205-1.08l.014-.087c.02-.12.03-.258.096-.352.51-.727 1.53-1.188 1.53-1.188.293-.135.678-.26.855-.28C4.224.055 4.954 0 5.277 0H6.33c.323 0 .62.006.663.015.042.006.416.03.738.047 0 0 1.418.068 2.412.182.857.1 1.98.326 1.98.326.315.062.824.16 1.13.216.305.054 1.106.46 1.106.782v7.03c0 .32-.25.654-.558.74-.31.088-1.024.666-1.093.75-.07.08-.375.533-.54.81l-.964 1.84c-.128.297-.36.77-.52 1.05l-.554.722c-.236.22-.614.588-.84.816l-.51.69c-.144.287-.32.78-.39 1.096l-.327 1.795c-.03.32-.063.68-.077.802-.014.118-.357.29-.444.29-.085 0-.333-.012-.356-.025l-.024-.006c-.886-.21-1.43-1.112-1.43-1.112-.166-.277-.326-.766-.356-1.086l.176-1.984c.09-.31.28-.8.422-1.088 0 0 .34-.686.593-1.31.132-.325.147-.458.147-.458.04-.32.062-.652.046-.738-.013-.086-.563-.16-.885-.162l-3.04-.035c-.323-.004-.85-.03-1.17-.06 0 0-.487-.044-.88-.507-.336-.396-.525-.783-.525-.783-.14-.29-.257-.592-.257-.67s.133-.478.295-.71l.167-.194c.24-.28.233-.3.233-.3-.105-.31-.44-.977-.53-1.137zM15.157 5.042V1.116c0-.607.378-1 .99-1.008C16.928.1 18.216.1 19 .108c.627.007 1 .393 1 1.02v7.827c0 .625-.38 1.002-1.01 1.005-.776.002-2.057.003-2.833 0-.622-.003-1-.39-1-1.016V5.042z"/></g></g></svg>