<svg xmlns="http://www.w3.org/2000/svg" width="20" height="20" viewBox="0 0 20 20"><g><path fill="none" d="M0 0h20v20H0z"/><g fill="#4E8ABE"><path d="M19.834 12.365c.092.16.166.338.166.396s-.158.42-.353.678c0 0-.03.04-.244.276-.243.27-.31.554-.16.894l.113.262c.103.298.198.636.213.75.016.115-.177.48-.263.59-.084.113-.483.527-.654.73-.17.197-.21.978-.204 1.08l-.016.087c-.02.12-.03.258-.097.352-.512.728-1.528 1.187-1.528 1.187-.294.135-.68.26-.855.28-.177.022-.906.076-1.23.076H13.67c-.322 0-.62-.006-.662-.013-.04-.008-.416-.03-.737-.047 0 0-1.415-.07-2.41-.184-.856-.1-1.98-.325-1.98-.325-.315-.064-.823-.162-1.128-.217-.307-.054-1.107-.462-1.107-.783v-7.03c0-.32.252-.655.56-.74.306-.088 1.022-.667 1.09-.75.07-.083.375-.535.54-.81l.964-1.84c.128-.298.36-.77.52-1.052l.554-.722c.234-.22.613-.588.84-.816l.51-.688c.145-.29.32-.782.39-1.098l.327-1.795c.03-.32.065-.682.08-.802S12.375 0 12.46 0s.332.013.356.026l.022.006c.886.208 1.43 1.113 1.43 1.113.167.274.327.765.357 1.086L14.45 4.21c-.09.31-.278.8-.423 1.088 0 0-.34.687-.592 1.312-.133.324-.148.457-.148.457-.04.317-.06.65-.047.737s.564.16.885.162l3.04.032c.323.004.852.03 1.17.06 0 0 .487.046.88.507.34.395.527.784.527.784.144.29.258.59.258.67 0 .08-.133.478-.295.71l-.168.195c-.238.28-.23.3-.23.3.1.307.435.975.527 1.135zM4.843 14.96v3.925c0 .608-.38 1-.99 1.008-.783.01-2.07.008-2.854 0-.628-.006-1-.392-1-1.02v-7.828c0-.625.378-1 1.01-1.004.774-.002 2.056-.002 2.833 0 .62.004 1 .392 1 1.017v3.903z"/></g></g></svg>