<svg xmlns="http://www.w3.org/2000/svg" width="20" height="20" viewBox="0 0 20 20"><g><path fill="none" d="M0 0h20v20H0z"/><g fill="#48AB4A"><path d="M.168 7.636C.078 7.476 0 7.298 0 7.24c0-.058.16-.42.354-.677 0 0 .03-.04.242-.275.244-.27.31-.555.16-.895L.644 5.13C.542 4.834.446 4.498.43 4.38c-.016-.114.176-.478.262-.59.084-.11.484-.526.654-.725.17-.2.21-.98.205-1.08l.015-.088c.02-.12.03-.258.096-.353C2.174.817 3.19.356 3.19.356c.293-.135.68-.26.855-.28.178-.02.91-.076 1.23-.076H6.33c.322 0 .62.006.662.015.043.005.416.028.737.046 0 0 1.415.07 2.41.183.855.1 1.978.326 1.978.326.316.06.824.16 1.13.215.307.054 1.106.46 1.106.782v7.03c0 .32-.25.655-.56.742-.306.086-1.022.664-1.09.747-.07.082-.376.534-.54.81l-.965 1.84c-.13.298-.362.77-.522 1.052l-.553.72c-.236.22-.613.588-.84.816l-.512.688c-.145.29-.32.78-.39 1.096l-.327 1.797c-.03.32-.064.682-.078.803-.01.118-.354.29-.44.29s-.332-.012-.355-.025l-.025-.006c-.885-.21-1.43-1.114-1.43-1.114-.166-.275-.326-.764-.355-1.086l.176-1.982c.087-.312.276-.8.42-1.09 0 0 .34-.686.595-1.31.13-.326.145-.458.145-.458.04-.32.062-.652.047-.738s-.562-.16-.885-.162l-3.04-.033c-.323-.004-.85-.03-1.17-.06 0 0-.487-.046-.88-.507-.336-.396-.525-.785-.525-.785-.142-.29-.257-.592-.257-.67s.133-.478.295-.71l.168-.194c.238-.28.232-.3.232-.3-.1-.306-.437-.974-.527-1.134zM15.158 5.042V1.117c0-.608.377-1.002.988-1.01C16.93.1 18.216.1 19 .108c.627.008 1 .394 1 1.02v7.83c0 .624-.38 1-1.01 1.004-.775.003-2.057.004-2.834 0-.62-.002-.998-.39-.998-1.014V5.042z"/></g></g></svg>