<svg xmlns="http://www.w3.org/2000/svg" width="20" height="20.001" viewBox="0 0 20 20.001"><g><path fill="none" d="M0 0h20v20H0z"/><g fill="#aaa"><path d="M.168 7.637C.076 7.477 0 7.3 0 7.24s.16-.418.354-.676c0 0 .03-.04.242-.276.244-.27.31-.554.16-.894l-.113-.26c-.102-.3-.198-.636-.213-.75s.176-.48.262-.59c.084-.113.484-.528.654-.728.17-.2.21-.98.205-1.08l.015-.088c.02-.12.03-.258.096-.352C2.174.818 3.19.356 3.19.356c.293-.133.68-.26.855-.28.178-.02.908-.075 1.23-.075h1.054c.32 0 .62.007.66.015.044.007.417.03.74.047 0 0 1.415.07 2.41.182.856.1 1.98.326 1.98.326.315.063.645.16.95.216.307.053.93.46.93.782v7.03c0 .32-.072.655-.38.742-.308.087-.935.665-1.003.748-.07.082-.33.533-.496.81l-.94 1.84c-.13.297-.352.77-.508 1.05l-.55.723c-.235.22-.61.588-.837.817l-.51.688c-.145.288-.318.78-.39 1.096l-.325 1.797c-.03.32-.064.682-.078.802s-.357.29-.443.29-.333-.01-.356-.025l-.025-.005c-.886-.21-1.43-1.113-1.43-1.113-.167-.276-.327-.765-.356-1.086l.176-1.983c.088-.31.277-.8.422-1.09 0 0 .34-.685.594-1.31.13-.323.146-.457.146-.457.04-.32.06-.65.047-.738-.015-.086-.563-.16-.886-.16l-3.04-.035c-.323-.004-.85-.03-1.17-.06 0 0-.487-.045-.88-.507-.336-.396-.525-.784-.525-.784-.145-.29-.26-.592-.26-.67 0-.08.133-.478.295-.71l.168-.195c.238-.28.232-.3.232-.3-.1-.305-.437-.973-.527-1.133zM15 5.042V1.117C15 .51 15.457.115 16.068.11 16.85.1 18.178.1 18.96.107c.628.007 1.02.393 1.02 1.02 0 2.61.01 5.22.01 7.828 0 .625-.372 1.002-1.003 1.005-.777.003-2.133.004-2.91 0C15.455 9.958 15 9.57 15 8.946V5.042z"/></g></g></svg>