<svg xmlns="http://www.w3.org/2000/svg" width="20" height="20.001" viewBox="0 0 20 20.001"><g><path fill="none" d="M0 0h20v20H0z"/><linearGradient id="a" gradientUnits="userSpaceOnUse" x1="2.19" y1="11.736" x2="17.935" y2="11.736"><stop offset="0" stop-color="#989898"/><stop offset=".48" stop-color="#B6B6B7"/><stop offset="1" stop-color="#989898"/></linearGradient><path d="M17.935 4.118c.01-.355-.28-.645-.645-.645H2.835c-.367 0-.654.29-.645.645.143 4.922.282 9.847.424 14.772.01.352.297.68.64.72 4.522.52 9.093.52 13.618 0 .34-.04.63-.368.64-.72.14-4.925.282-9.85.423-14.772z" fill="url(#a)"/><path d="M15.165 7.05c-.514-.37-1.2-.382-1.717-.026.012 3.395.045 6.76.107 10.127.352.264.812.303 1.184.103.124-3.487.275-6.928.425-10.202z" fill="#D2D2D2"/><path d="M10.958 6.776c-.574-.404-1.342-.404-1.916 0 .09 3.527.195 7.128.303 10.77.393.29.918.29 1.307 0 .107-3.642.212-7.243.306-10.77z" fill="#D2D2D2"/><path d="M6.552 6.9c-.518-.355-1.205-.343-1.72.026.15 3.274.304 6.714.427 10.205.372.197.83.158 1.18-.103.067-3.368.1-6.734.112-10.128z" fill="#D2D2D2"/><linearGradient id="b" gradientUnits="userSpaceOnUse" x1="1.02" y1="2.255" x2="18.98" y2="2.255"><stop offset="0" stop-color="#7F7F7F"/><stop offset=".48" stop-color="#908F8E"/><stop offset="1" stop-color="#7F7F7F"/></linearGradient><path d="M15.34 1.438c-.21-.004-.378-.188-.378-.412V.474c0-.225-.172-.413-.38-.42-3.013-.07-6.026-.073-9.038 0-.207.003-.38.193-.38.415v.554c0 .225-.17.41-.38.412-1.13.01-2.258.025-3.383.045-.21.005-.378.18-.38.388V3.98c0 .176.173.326.38.338 5.73.258 11.467.258 17.198 0 .21-.012.382-.162.382-.338V1.868c0-.207-.172-.383-.382-.387-1.085-.017-2.17-.032-3.257-.042z" fill="url(#b)"/></g></svg>