<?xml version="1.0" encoding="iso-8859-1"?><svg xmlns="http://www.w3.org/2000/svg" width="20" height="20.001" viewBox="0 0 20 20.001"><path fill="none" d="M0 0h20v20H0z"/><linearGradient id="a" gradientUnits="userSpaceOnUse" x1="2.19" y1="11.736" x2="17.935" y2="11.736"><stop offset="0" stop-color="#989898"/><stop offset=".48" stop-color="#b6b6b7"/><stop offset="1" stop-color="#989898"/></linearGradient><path d="M17.935 4.118a.635.635 0 0 0-.645-.645H2.835a.633.633 0 0 0-.645.645c.143 4.922.282 9.847.424 14.772.01.352.297.679.641.72 4.521.521 9.092.521 13.617 0 .341-.041.629-.368.639-.72.14-4.925.283-9.85.424-14.772z" fill="url(#a)"/><path d="M15.165 7.051a1.488 1.488 0 0 0-1.717-.027c.012 3.395.045 6.759.107 10.127.352.263.812.302 1.184.102.125-3.487.276-6.928.426-10.202zM10.958 6.776a1.666 1.666 0 0 0-1.916 0c.09 3.527.195 7.128.303 10.77.393.289.918.289 1.307 0 .107-3.642.212-7.243.306-10.77zM6.552 6.899a1.498 1.498 0 0 0-1.719.027c.148 3.274.303 6.714.426 10.205.373.196.832.157 1.182-.104.066-3.368.099-6.734.111-10.128z" fill="#d2d2d2"/><linearGradient id="b" gradientUnits="userSpaceOnUse" x1="1.02" y1="2.255" x2="18.98" y2="2.255"><stop offset="0" stop-color="#7f7f7f"/><stop offset=".48" stop-color="#908f8e"/><stop offset="1" stop-color="#7f7f7f"/></linearGradient><path d="M15.341 1.438c-.211-.004-.379-.188-.379-.412V.474c0-.225-.172-.413-.381-.419A187.768 187.768 0 0 0 5.544.054c-.207.003-.381.193-.381.415v.555c0 .225-.17.41-.379.412-1.129.01-2.258.025-3.383.045a.39.39 0 0 0-.38.387V3.98c0 .176.172.326.38.338 5.729.258 11.466.258 17.197 0 .21-.012.382-.162.382-.338v-.699-.645-.76-.008a.392.392 0 0 0-.382-.387 441.39 441.39 0 0 0-3.257-.043z" fill="url(#b)"/></svg>