<?xml version="1.0" encoding="iso-8859-1"?><svg xmlns="http://www.w3.org/2000/svg" width="20" height="20" viewBox="0 0 20 20"><path fill="none" d="M0 0h20v20H0z"/><linearGradient id="a" gradientUnits="userSpaceOnUse" x1="2.141" y1="11.736" x2="17.988" y2="11.736"><stop offset="0" stop-color="#448cca"/><stop offset=".48" stop-color="#66a2d7"/><stop offset="1" stop-color="#448cca"/></linearGradient><path d="M17.988 4.117a.636.636 0 0 0-.645-.645H2.786a.637.637 0 0 0-.646.645c.143 4.922.283 9.846.426 14.767.01.354.299.682.643.721 4.555.527 9.158.527 13.711 0 .344-.039.633-.367.643-.721.142-4.921.285-9.845.425-14.767z" fill="url(#a)"/><path d="M15.203 7.051a1.506 1.506 0 0 0-1.73-.027c.012 3.393.045 6.758.109 10.124.354.264.816.305 1.191.105.125-3.491.278-6.933.43-10.202zM10.965 6.775a1.671 1.671 0 0 0-1.928 0c.092 3.525.199 7.127.307 10.771a1.11 1.11 0 0 0 1.314 0c.108-3.644.215-7.245.307-10.771zM6.531 6.898a1.51 1.51 0 0 0-1.73.028c.152 3.271.305 6.713.428 10.202.375.199.838.16 1.191-.105.064-3.367.098-6.73.111-10.125z" fill="#a0c7e7"/><linearGradient id="b" gradientUnits="userSpaceOnUse" x1=".963" y1="2.256" x2="19.039" y2="2.256"><stop offset="0" stop-color="#336b9a"/><stop offset=".48" stop-color="#517fa5"/><stop offset="1" stop-color="#336b9a"/></linearGradient><path d="M15.377 1.438c-.209-.004-.381-.188-.381-.414V.473c0-.223-.172-.412-.379-.418-3.035-.072-6.07-.074-9.104-.002-.208.007-.38.194-.38.419v.553c0 .225-.17.41-.381.412-1.135.011-2.273.027-3.406.046a.39.39 0 0 0-.383.389v2.109c0 .174.17.326.381.336 5.768.26 11.547.26 17.314 0 .209-.01.381-.162.381-.336v-.7-.643-.766a.391.391 0 0 0-.381-.389 713.95 713.95 0 0 0-3.281-.045z" fill="url(#b)"/></svg>