<svg xmlns="http://www.w3.org/2000/svg" width="20" height="20" viewBox="0 0 20 20"><g><path fill="none" d="M0 0h20v20H0z"/><linearGradient id="a" gradientUnits="userSpaceOnUse" x1="2.141" y1="11.736" x2="17.988" y2="11.736"><stop offset="0" stop-color="#448CCA"/><stop offset=".48" stop-color="#66A2D7"/><stop offset="1" stop-color="#448CCA"/></linearGradient><path d="M17.988 4.117c.01-.352-.28-.645-.645-.645H2.786c-.365 0-.656.293-.646.645.143 4.922.283 9.846.426 14.767.01.354.3.682.643.72 4.554.528 9.157.528 13.71 0 .344-.038.633-.366.643-.72.142-4.92.285-9.845.425-14.767z" fill="url(#a)"/><path d="M15.203 7.05c-.518-.372-1.21-.382-1.73-.026.012 3.393.045 6.758.11 10.124.353.264.815.305 1.19.105.125-3.49.278-6.933.43-10.202z" fill="#A0C7E7"/><path d="M10.965 6.775c-.578-.408-1.348-.408-1.928 0 .092 3.525.2 7.127.307 10.77.393.288.922.288 1.314 0 .108-3.643.215-7.244.307-10.77z" fill="#A0C7E7"/><path d="M6.53 6.898c-.52-.355-1.212-.343-1.73.028.153 3.27.306 6.713.43 10.202.374.2.837.16 1.19-.105.064-3.367.098-6.73.11-10.125z" fill="#A0C7E7"/><linearGradient id="b" gradientUnits="userSpaceOnUse" x1=".963" y1="2.256" x2="19.039" y2="2.256"><stop offset="0" stop-color="#336B9A"/><stop offset=".48" stop-color="#517FA5"/><stop offset="1" stop-color="#336B9A"/></linearGradient><path d="M15.377 1.438c-.21-.004-.38-.188-.38-.414v-.55c0-.224-.173-.413-.38-.42-3.035-.07-6.07-.073-9.104 0-.208.006-.38.193-.38.418v.553c0 .225-.17.41-.38.412-1.136.01-2.274.027-3.407.046-.213.004-.383.178-.383.39V3.982c0 .175.17.327.38.337 5.77.26 11.548.26 17.315 0 .21-.01.38-.162.38-.336V1.873c0-.21-.17-.385-.38-.39-1.094-.016-2.185-.032-3.28-.044z" fill="url(#b)"/></g></svg>