<?xml version="1.0" encoding="utf-8"?><svg xmlns="http://www.w3.org/2000/svg" width="20" height="20" viewBox="0 0 20 20"><path fill="none" d="M0 0h20v20H0z"/><path fill="#5EA8DC" d="M13.459 1.857h.668c.025.004.051.013.077.015a4.06 4.06 0 0 1 2.565 1.21c.053.051.098.066.17.052a8.292 8.292 0 0 0 2.401-.916c.027-.016.056-.041.104-.038-.323.959-.916 1.693-1.754 2.236a7.493 7.493 0 0 0 1.677-.385c.213-.075.422-.159.631-.239v.019c-.013.013-.025.022-.035.037a8.286 8.286 0 0 1-1.955 2.025c-.051.036-.052.078-.052.128.001.284.01.569 0 .853a11.508 11.508 0 0 1-.544 3.097c-.642 2.008-1.704 3.755-3.252 5.19-1.974 1.832-4.324 2.781-6.998 2.971-.105.009-.215-.004-.318.031H5.807c-.014-.016-.031-.014-.049-.015-.198-.003-.396-.021-.594-.037a9.572 9.572 0 0 1-1.069-.147 11.508 11.508 0 0 1-1.775-.485 12.135 12.135 0 0 1-2.239-1.091C.055 16.35.018 16.34 0 16.296a8.29 8.29 0 0 0 3.183-.253c.96-.27 2.65-1.136 2.831-1.447-.551-.039-.865-.092-1.254-.236-1.223-.455-2.061-1.297-2.514-2.521-.038-.102-.035-.105.072-.085.166.032.336.052.504.058.363.016.724-.021 1.078-.104.039-.009.086-.005.119-.043C1.787 11.158.703 9.147.785 7.593c.281.146.567.271.869.354.305.084.613.141.934.146-.01-.037-.035-.045-.053-.058a4.207 4.207 0 0 1-.912-.89C1.08 6.42.82 5.602.799 4.703a4.227 4.227 0 0 1 .527-2.032c.032-.06.052-.052.089-.006a11.771 11.771 0 0 0 3.667 2.962c.708.366 1.446.652 2.213.869.346.098.696.178 1.052.236.244.041.487.078.732.109.227.027.452.036.678.062.059.008.07-.021.062-.072a3.817 3.817 0 0 1-.09-1.017c.009-.164.017-.326.042-.486a4.124 4.124 0 0 1 1.389-2.483 4.06 4.06 0 0 1 .85-.566 4.172 4.172 0 0 1 1.053-.353c.128-.026.267-.022.396-.069z"/></svg>