<svg xmlns="http://www.w3.org/2000/svg" width="20" height="20" viewBox="0 0 20 20"><g><path fill="none" d="M0 0h20v20H0z"/><path fill="#5EA8DC" d="M13.46 1.857h.667c.025.004.05.013.077.015 1 .094 1.856.5 2.565 1.21.052.05.097.066.17.052.847-.18 1.646-.485 2.4-.916.027-.016.056-.04.104-.038-.323.96-.916 1.693-1.754 2.236.576-.064 1.134-.193 1.677-.385.213-.074.422-.158.63-.238v.02c-.012.012-.024.02-.034.036-.537.786-1.188 1.463-1.955 2.025-.05.036-.052.078-.052.128 0 .285.01.57 0 .854-.038 1.06-.223 2.09-.544 3.097-.642 2.01-1.704 3.756-3.252 5.19-1.974 1.833-4.324 2.782-6.998 2.972-.105.01-.215-.004-.318.03H5.807c-.014-.015-.03-.013-.05-.014-.197-.003-.395-.02-.593-.037-.36-.03-.717-.076-1.07-.146-.602-.12-1.196-.27-1.774-.485-.782-.29-1.53-.648-2.24-1.092-.025-.018-.062-.028-.08-.072 1.08.122 2.14.037 3.183-.253.96-.27 2.65-1.136 2.83-1.447-.55-.04-.864-.092-1.253-.236-1.223-.455-2.06-1.297-2.514-2.52-.038-.103-.035-.106.072-.086.166.032.336.052.504.058.363.016.724-.02 1.078-.104.04-.01.086-.005.12-.043C1.786 11.158.702 9.147.784 7.593c.28.146.567.27.87.354.304.084.612.14.933.146-.01-.037-.035-.045-.053-.058-.348-.252-.654-.545-.912-.89C1.08 6.42.82 5.602.8 4.703c-.007-.214.017-.43.05-.644.078-.49.236-.954.476-1.39.032-.06.052-.05.09-.005.286.35.593.68.92.992.82.788 1.735 1.446 2.746 1.97.708.366 1.446.652 2.213.87.346.097.696.177 1.052.235.244.04.487.078.732.11.226.026.45.035.677.06.06.01.07-.02.062-.07-.076-.336-.107-.674-.09-1.018.008-.164.016-.326.04-.486.067-.412.193-.81.38-1.184.247-.502.586-.932 1.01-1.3.26-.225.543-.41.85-.565.332-.17.687-.28 1.053-.354.128-.026.267-.022.396-.07z"/></g></svg>