<svg xmlns="http://www.w3.org/2000/svg" width="20" height="20" viewBox="0 0 20 20"><g><path fill="none" d="M0 0h20v20H0z"/><path d="M13.46 1.857h.667c.024.004.05.013.076.015 1.002.094 1.856.5 2.566 1.21.05.05.095.066.168.052.85-.18 1.65-.485 2.4-.916.03-.016.056-.04.106-.038-.324.96-.915 1.693-1.754 2.236.577-.064 1.135-.193 1.678-.385.212-.074.42-.158.632-.238v.02c-.013.012-.027.02-.037.036-.537.786-1.188 1.463-1.955 2.025-.05.036-.05.078-.05.128 0 .285.01.57 0 .854-.04 1.06-.225 2.09-.546 3.097-.64 2.01-1.703 3.756-3.25 5.19-1.974 1.833-4.326 2.782-7 2.972-.105.01-.213-.004-.317.03H5.807c-.013-.015-.03-.013-.048-.014-.2-.003-.397-.02-.595-.037-.36-.03-.717-.076-1.07-.146-.603-.12-1.197-.27-1.775-.485-.783-.29-1.53-.648-2.24-1.092-.027-.018-.062-.028-.08-.072 1.08.122 2.14.037 3.182-.253.96-.27 2.65-1.136 2.832-1.447-.55-.04-.866-.092-1.255-.236-1.224-.455-2.062-1.297-2.515-2.52-.038-.103-.034-.106.073-.086.167.032.335.052.504.058.363.016.724-.02 1.08-.104.038-.01.084-.005.118-.043C1.788 11.158.704 9.147.785 7.593c.28.146.567.27.87.354.304.084.612.14.933.146-.01-.038-.035-.046-.052-.06-.348-.25-.654-.544-.913-.89C1.08 6.42.82 5.604.798 4.704c-.005-.214.017-.43.052-.644.08-.49.236-.954.476-1.39.033-.06.052-.05.09-.005.286.35.592.68.918.992.822.788 1.736 1.446 2.748 1.97.708.366 1.446.652 2.212.87.346.097.698.177 1.052.235.244.04.487.08.734.11.226.027.452.036.677.063.06.007.07-.02.06-.073-.074-.336-.106-.674-.088-1.018.007-.164.015-.326.04-.486.068-.412.194-.81.38-1.184.247-.502.587-.932 1.01-1.3.26-.225.542-.41.85-.565.33-.17.687-.28 1.052-.354.13-.026.268-.02.397-.07z" fill="#5EA8DC"/></g></svg>