<svg xmlns="http://www.w3.org/2000/svg" width="20.001" height="20" viewBox="0 0 20.001 20"><g><path fill="none" d="M0 0h20v20H0z"/><linearGradient id="a" gradientUnits="userSpaceOnUse" x1="10.001" y1="1.498" x2="10.001" y2="18.502"><stop offset="0" stop-color="#FFB588"/><stop offset=".779" stop-color="#FF883E"/><stop offset=".8" stop-color="#FF873C"/></linearGradient><path d="M1.824 18.502c-1.65 0-2.302-1.155-1.45-2.568L8.45 2.558c.853-1.412 2.248-1.412 3.1 0l8.076 13.376c.853 1.413.2 2.568-1.45 2.568H1.824z" fill="url(#a)"/><path d="M8.752 9.082l-.21-.92c-.07-.31-.103-.62-.103-.938 0-.595.14-1.02.423-1.277.282-.26.66-.386 1.137-.386.484 0 .867.134 1.143.402.28.268.416.658.416 1.173 0 .15-.017.333-.052.55-.035.22-.076.44-.127.67-.048.23-.097.446-.147.654-.05.207-.09.385-.117.533l-.76 3.136h-.772L8.752 9.08zm2.674 6.457c-.08.183-.19.344-.334.482-.145.138-.31.242-.498.312s-.387.104-.594.104c-.21 0-.406-.035-.594-.104-.19-.07-.355-.174-.498-.312-.145-.14-.256-.3-.336-.483-.078-.184-.12-.385-.12-.603 0-.208.042-.406.12-.595.08-.188.19-.352.336-.49.143-.14.31-.25.498-.335.188-.083.385-.125.594-.125.207 0 .406.042.594.125.188.085.354.196.498.335.143.14.254.303.334.49.08.188.12.387.12.595 0 .218-.04.42-.12.602z" fill="#fff"/></g></svg>