<?xml version="1.0" encoding="iso-8859-1"?><svg xmlns="http://www.w3.org/2000/svg" width="20.001" height="20" viewBox="0 0 20.001 20"><path fill="none" d="M0 0h20v20H0z"/><linearGradient id="a" gradientUnits="userSpaceOnUse" x1="10.001" y1="1.498" x2="10.001" y2="18.502"><stop offset="0" stop-color="#ffb588"/><stop offset=".779" stop-color="#ff883e"/><stop offset=".8" stop-color="#ff873c"/></linearGradient><path d="M1.824 18.502c-1.649 0-2.302-1.155-1.449-2.568L8.45 2.558c.853-1.412 2.248-1.412 3.101 0l8.075 13.376c.853 1.413.2 2.568-1.45 2.568H1.824z" fill="url(#a)"/><path d="M8.752 9.082c-.07-.306-.141-.613-.209-.92a4.227 4.227 0 0 1-.104-.938c0-.595.141-1.021.424-1.277.282-.259.66-.386 1.137-.386.484 0 .867.133 1.143.401.279.268.416.658.416 1.173 0 .15-.016.333-.051.551-.035.219-.076.44-.127.669a26.7 26.7 0 0 1-.148.654c-.049.208-.09.386-.117.534l-.76 3.136h-.772l-.832-3.597zm2.674 6.457a1.455 1.455 0 0 1-.832.795c-.187.07-.387.104-.594.104-.209 0-.406-.035-.594-.104a1.404 1.404 0 0 1-.498-.312 1.485 1.485 0 0 1-.336-.483 1.522 1.522 0 0 1-.119-.602c0-.208.041-.406.119-.595.08-.188.191-.352.336-.49.143-.139.309-.25.498-.335.188-.083.385-.125.594-.125.207 0 .406.042.594.125.188.085.354.196.498.335a1.497 1.497 0 0 1 .453 1.085c0 .218-.039.419-.119.602z" fill="#fff"/></svg>