<svg xmlns="http://www.w3.org/2000/svg" width="20" height="20" viewBox="0 0 20 20"><g><path fill="none" d="M0 0h20v20H0z"/><path fill="#aaa" d="M15.374 1.798L10 7.172 4.626 1.798c-.156-.155-.41-.155-.567 0L1.796 4.063c-.155.154-.155.41 0 .564L7.173 10l-5.375 5.375c-.155.154-.155.41 0 .564l2.265 2.263c.154.154.41.154.563 0L10 12.828l5.375 5.375c.155.154.41.154.562 0L18.2 15.94c.157-.156.157-.41.003-.565L12.828 10l5.374-5.374c.155-.155.155-.41 0-.563L15.94 1.798c-.156-.155-.41-.155-.566 0z"/></g></svg>