<?xml version="1.0" encoding="utf-8"?><svg xmlns="http://www.w3.org/2000/svg" width="20" height="20" viewBox="0 0 20 20"><path fill="none" d="M0 0h20v20H0z"/><path fill="#AAA" d="M15.374 1.798L10 7.172 4.626 1.798a.403.403 0 0 0-.567.001L1.797 4.062a.4.4 0 0 0 .001.564L7.172 10l-5.375 5.375a.4.4 0 0 0 .001.564l2.264 2.264a.4.4 0 0 0 .563 0L10 12.828l5.375 5.375a.4.4 0 0 0 .562 0l2.263-2.262a.402.402 0 0 0 .003-.566L12.828 10l5.374-5.374a.4.4 0 0 0 .001-.563l-2.264-2.265a.401.401 0 0 0-.565 0z"/></svg>