<?xml version="1.0" encoding="iso-8859-1"?>
<!-- Generator: Adobe Illustrator 16.0.0, SVG Export Plug-In . SVG Version: 6.00 Build 0)  -->
<!DOCTYPE svg PUBLIC "-//W3C//DTD SVG 1.1//EN" "http://www.w3.org/Graphics/SVG/1.1/DTD/svg11.dtd">
<svg version="1.1" xmlns="http://www.w3.org/2000/svg" xmlns:xlink="http://www.w3.org/1999/xlink" x="0px" y="0px" width="20px"
	 height="20px" viewBox="0 0 20 20" style="enable-background:new 0 0 20 20;" xml:space="preserve">
<g id="add">
	<g>
		<g id="button-2px-corner_25_">
			<linearGradient id="SVGID_1_" gradientUnits="userSpaceOnUse" x1="9.9995" y1="0" x2="9.9995" y2="20.0005">
				<stop  offset="0" style="stop-color:#FFFFFF"/>
				<stop  offset="0.2499" style="stop-color:#FBFCFD"/>
				<stop  offset="0.5087" style="stop-color:#EEF4F8"/>
				<stop  offset="0.7709" style="stop-color:#DAE7F0"/>
				<stop  offset="0.8" style="stop-color:#D7E5EF"/>
			</linearGradient>
			<path style="fill:url(#SVGID_1_);" d="M0,17c0,1.65,1.35,3,3,3h14c1.65,0,3-1.35,3-3V3c0-1.65-1.35-3-3-3H3C1.35,0,0,1.35,0,3V17
				z"/>
			<g style="opacity:0.7;">
				<path style="fill:#FFFFFF;" d="M17,2c0.542,0,1,0.458,1,1v14c0,0.542-0.458,1-1,1H3c-0.542,0-1-0.458-1-1V3c0-0.542,0.458-1,1-1
					H17 M17,0H3C1.35,0,0,1.35,0,3v14c0,1.65,1.35,3,3,3h14c1.65,0,3-1.35,3-3V3C20,1.35,18.65,0,17,0L17,0z"/>
			</g>
			<g style="opacity:0.7;">
				<path style="fill:#45494D;" d="M17,1c1.103,0,2,0.897,2,2v14c0,1.103-0.897,2-2,2H3c-1.103,0-2-0.897-2-2V3c0-1.103,0.897-2,2-2
					H17 M17,0H3C1.35,0,0,1.35,0,3v14c0,1.65,1.35,3,3,3h14c1.65,0,3-1.35,3-3V3C20,1.35,18.65,0,17,0L17,0z"/>
			</g>
		</g>
		<path id="plus-sign_11_" style="fill:#AAAAAA;" d="M16.24,8.701h-4.939V3.761c0-0.144-0.118-0.26-0.262-0.26h-2.08
			c-0.142,0-0.259,0.116-0.259,0.26v4.939h-4.94c-0.143,0-0.259,0.118-0.259,0.26v2.081c0,0.142,0.116,0.259,0.259,0.259H8.7v4.941
			c0,0.143,0.118,0.259,0.259,0.259h2.08c0.144,0,0.262-0.116,0.262-0.259v-4.941h4.939c0.144,0,0.26-0.117,0.26-0.259V8.961
			C16.5,8.818,16.384,8.701,16.24,8.701z"/>
	</g>
</g>
<g id="Layer_1">
</g>
</svg>
