<?xml version="1.0" encoding="iso-8859-1"?>
<!-- Generator: Adobe Illustrator 16.0.0, SVG Export Plug-In . SVG Version: 6.00 Build 0)  -->
<!DOCTYPE svg PUBLIC "-//W3C//DTD SVG 1.1//EN" "http://www.w3.org/Graphics/SVG/1.1/DTD/svg11.dtd">
<svg version="1.1" xmlns="http://www.w3.org/2000/svg" xmlns:xlink="http://www.w3.org/1999/xlink" x="0px" y="0px" width="20px"
	 height="20px" viewBox="0 0 20 20" style="enable-background:new 0 0 20 20;" xml:space="preserve">
<g id="breadcrumb">
	<g>
		<rect id="le_wrappier_107_" style="fill:none;" width="20" height="20"/>
		<g>
			<path style="fill:#AAAAAA;" d="M4.314,6.263C4.377,6.141,4.317,6,4.177,6h-1.94C2.099,6,1.934,6.141,1.871,6.263L0.047,9.88
				c-0.062,0.125-0.062,0.335,0,0.458l1.824,3.519C1.934,13.979,2.099,14,2.239,14h1.938c0.141,0,0.2-0.016,0.138-0.139
				l-1.825-3.554c-0.062-0.125-0.062-0.325,0-0.445L4.314,6.263z"/>
			<path style="fill:#AAAAAA;" d="M8,4.75v10.5h12V4.75H8z M11.221,14.182h-2v-2.234h2V14.182z M11.221,11.117h-2V8.883h2V11.117z
				 M11.221,8.052h-2V5.818h2V8.052z M18.779,14.182h-6.559v-2.234h6.559V14.182z M18.779,11.117h-6.559V8.883h6.559V11.117z
				 M18.779,8.052h-6.559V5.818h6.559V8.052z"/>
		</g>
	</g>
</g>
<g id="Layer_1">
</g>
</svg>
