<?xml version="1.0" encoding="iso-8859-1"?>
<!-- Generator: Adobe Illustrator 16.0.0, SVG Export Plug-In . SVG Version: 6.00 Build 0)  -->
<!DOCTYPE svg PUBLIC "-//W3C//DTD SVG 1.1//EN" "http://www.w3.org/Graphics/SVG/1.1/DTD/svg11.dtd">
<svg version="1.1" xmlns="http://www.w3.org/2000/svg" xmlns:xlink="http://www.w3.org/1999/xlink" x="0px" y="0px" width="20px"
	 height="20px" viewBox="0 0 20 20" style="enable-background:new 0 0 20 20;" xml:space="preserve">
<g id="breadcrumb">
	<g>
		<rect id="le_wrappier_107_" style="fill:none;" width="20" height="20"/>
		<g>
			<path style="fill:#AAAAAA;" d="M4.314,6.263C4.377,6.141,4.317,6,4.177,6h-1.94C2.099,6,1.934,6.141,1.871,6.263L0.047,9.88
				c-0.062,0.125-0.062,0.335,0,0.458l1.824,3.519C1.934,13.979,2.099,14,2.239,14h1.938c0.141,0,0.2-0.016,0.138-0.139
				l-1.825-3.554c-0.062-0.125-0.062-0.325,0-0.445L4.314,6.263z"/>
			<path style="fill:#AAAAAA;" d="M7.087,4.35v11.3H20V4.35H7.087z M10.553,14.5H8.4v-2.404h2.152V14.5z M10.553,11.202H8.4V8.798
				h2.152V11.202z M10.553,7.904H8.4V5.5h2.152V7.904z M18.687,14.5h-7.058v-2.404h7.058V14.5z M18.687,11.202h-7.058V8.798h7.058
				V11.202z M18.687,7.904h-7.058V5.5h7.058V7.904z"/>
		</g>
	</g>
</g>
<g id="Layer_1">
</g>
</svg>
