<?xml version="1.0" encoding="iso-8859-1"?>
<!-- Generator: Adobe Illustrator 16.0.0, SVG Export Plug-In . SVG Version: 6.00 Build 0)  -->
<!DOCTYPE svg PUBLIC "-//W3C//DTD SVG 1.1//EN" "http://www.w3.org/Graphics/SVG/1.1/DTD/svg11.dtd">
<svg version="1.1" xmlns="http://www.w3.org/2000/svg" xmlns:xlink="http://www.w3.org/1999/xlink" x="0px" y="0px" width="20px"
	 height="20px" viewBox="0 0 20 20" style="enable-background:new 0 0 20 20;" xml:space="preserve">
<g id="breadcrumb">
	<g>
		<rect id="le_wrappier_107_" style="fill:none;" width="20" height="20"/>
		<g>
			<g>
				<path style="fill:#AAAAAA;" d="M4.314,6.263C4.377,6.141,4.317,6,4.177,6h-1.94C2.099,6,1.934,6.141,1.871,6.263L0.047,9.88
					c-0.062,0.125-0.062,0.335,0,0.458l1.824,3.519C1.934,13.979,2.099,14,2.239,14h1.938c0.141,0,0.2-0.016,0.138-0.139
					l-1.825-3.554c-0.062-0.125-0.062-0.325,0-0.445L4.314,6.263z"/>
			</g>
			<path style="fill:#AAAAAA;" d="M7.43,4.5v11H20v-11H7.43z M10.571,14.453H8.477v-2.096h2.095V14.453z M10.571,11.31H8.477V9.214
				h2.095V11.31z M10.571,7.643H8.477V5.547h2.095V7.643z M18.951,14.453h-7.332v-2.096h7.332V14.453z M18.951,11.31h-7.332V9.214
				h7.332V11.31z M18.951,7.643h-7.332V5.547h7.332V7.643z"/>
		</g>
	</g>
</g>
<g id="Layer_1">
</g>
</svg>
