<?xml version="1.0" encoding="iso-8859-1"?>
<!-- Generator: Adobe Illustrator 16.0.0, SVG Export Plug-In . SVG Version: 6.00 Build 0)  -->
<!DOCTYPE svg PUBLIC "-//W3C//DTD SVG 1.1//EN" "http://www.w3.org/Graphics/SVG/1.1/DTD/svg11.dtd">
<svg version="1.1" xmlns="http://www.w3.org/2000/svg" xmlns:xlink="http://www.w3.org/1999/xlink" x="0px" y="0px" width="20px"
	 height="20px" viewBox="0 0 20 20" style="enable-background:new 0 0 20 20;" xml:space="preserve">
<g id="calendar-hover">
	<g>
		<rect id="le_wrappier_143_" style="fill:none;" width="20" height="20"/>
		<g>
			<g>
				<linearGradient id="SVGID_1_" gradientUnits="userSpaceOnUse" x1="9.9995" y1="0" x2="9.9995" y2="19.0005">
					<stop  offset="0" style="stop-color:#72B9F7"/>
					<stop  offset="0.2709" style="stop-color:#378DD7"/>
					<stop  offset="0.8288" style="stop-color:#378DD7"/>
					<stop  offset="1" style="stop-color:#336B9A"/>
				</linearGradient>
				<path style="fill:url(#SVGID_1_);" d="M0,17c0,1.1,0.9,2,2,2h16c1.1,0,2-0.9,2-2V2c0-1.1-0.9-2-2-2H2C0.9,0,0,0.9,0,2V17z"/>
			</g>
			<g>
				<path style="fill:#FFFFFF;" d="M17.5,5.346h-15H1.25v1.25v8.75v0.75c0,0.688,0.562,1.25,1.25,1.25h15
					c0.688,0,1.25-0.562,1.25-1.25v-0.75v-8.75v-1.25H17.5z"/>
			</g>
			<g>
				<path style="fill:#C2DCF2;" d="M17.08,15.209c0,0.275-0.225,0.5-0.5,0.5H3.42c-0.275,0-0.5-0.225-0.5-0.5V7.134
					c0-0.275,0.225-0.5,0.5-0.5h13.16c0.275,0,0.5,0.225,0.5,0.5V15.209z"/>
			</g>
			<g>
				<path style="fill:#FFFFFF;" d="M4.039,9.19c0,0.138,0.112,0.25,0.25,0.25h1c0.138,0,0.25-0.112,0.25-0.25v-1
					c0-0.138-0.112-0.25-0.25-0.25h-1c-0.138,0-0.25,0.112-0.25,0.25V9.19z"/>
			</g>
			<g>
				<path style="fill:#FFFFFF;" d="M6.639,9.19c0,0.138,0.112,0.25,0.25,0.25h1c0.138,0,0.25-0.112,0.25-0.25v-1
					c0-0.138-0.112-0.25-0.25-0.25h-1c-0.138,0-0.25,0.112-0.25,0.25V9.19z"/>
			</g>
			<g>
				<path style="fill:#FFFFFF;" d="M9.239,9.19c0,0.138,0.112,0.25,0.25,0.25h1c0.138,0,0.25-0.112,0.25-0.25v-1
					c0-0.138-0.112-0.25-0.25-0.25h-1c-0.138,0-0.25,0.112-0.25,0.25V9.19z"/>
			</g>
			<g>
				<path style="fill:#FFFFFF;" d="M11.84,9.19c0,0.138,0.112,0.25,0.25,0.25h1c0.138,0,0.25-0.112,0.25-0.25v-1
					c0-0.138-0.112-0.25-0.25-0.25h-1c-0.138,0-0.25,0.112-0.25,0.25V9.19z"/>
			</g>
			<g>
				<path style="fill:#FFFFFF;" d="M14.439,9.19c0,0.138,0.112,0.25,0.25,0.25h1c0.138,0,0.25-0.112,0.25-0.25v-1
					c0-0.138-0.112-0.25-0.25-0.25h-1c-0.138,0-0.25,0.112-0.25,0.25V9.19z"/>
			</g>
			<g>
				<path style="fill:#FFFFFF;" d="M4.039,11.69c0,0.138,0.112,0.25,0.25,0.25h1c0.138,0,0.25-0.112,0.25-0.25v-1
					c0-0.138-0.112-0.25-0.25-0.25h-1c-0.138,0-0.25,0.112-0.25,0.25V11.69z"/>
			</g>
			<g>
				<path style="fill:none;stroke:#378DD7;stroke-width:0.5;stroke-miterlimit:10;" d="M6.639,11.69c0,0.138,0.112,0.25,0.25,0.25h1
					c0.138,0,0.25-0.112,0.25-0.25v-1c0-0.138-0.112-0.25-0.25-0.25h-1c-0.138,0-0.25,0.112-0.25,0.25V11.69z"/>
				<path style="fill:#378DD7;" d="M6.639,11.69c0,0.138,0.112,0.25,0.25,0.25h1c0.138,0,0.25-0.112,0.25-0.25v-1
					c0-0.138-0.112-0.25-0.25-0.25h-1c-0.138,0-0.25,0.112-0.25,0.25V11.69z"/>
			</g>
			<g>
				<path style="fill:#FFFFFF;" d="M9.239,11.69c0,0.138,0.112,0.25,0.25,0.25h1c0.138,0,0.25-0.112,0.25-0.25v-1
					c0-0.138-0.112-0.25-0.25-0.25h-1c-0.138,0-0.25,0.112-0.25,0.25V11.69z"/>
			</g>
			<g>
				<path style="fill:#FFFFFF;" d="M11.84,11.69c0,0.138,0.112,0.25,0.25,0.25h1c0.138,0,0.25-0.112,0.25-0.25v-1
					c0-0.138-0.112-0.25-0.25-0.25h-1c-0.138,0-0.25,0.112-0.25,0.25V11.69z"/>
			</g>
			<g>
				<path style="fill:#FFFFFF;" d="M14.439,11.69c0,0.138,0.112,0.25,0.25,0.25h1c0.138,0,0.25-0.112,0.25-0.25v-1
					c0-0.138-0.112-0.25-0.25-0.25h-1c-0.138,0-0.25,0.112-0.25,0.25V11.69z"/>
			</g>
			<g>
				<path style="fill:#FFFFFF;" d="M4.039,14.19c0,0.138,0.112,0.25,0.25,0.25h1c0.138,0,0.25-0.112,0.25-0.25v-1
					c0-0.138-0.112-0.25-0.25-0.25h-1c-0.138,0-0.25,0.112-0.25,0.25V14.19z"/>
			</g>
			<g>
				<path style="fill:#FFFFFF;" d="M6.639,14.19c0,0.138,0.112,0.25,0.25,0.25h1c0.138,0,0.25-0.112,0.25-0.25v-1
					c0-0.138-0.112-0.25-0.25-0.25h-1c-0.138,0-0.25,0.112-0.25,0.25V14.19z"/>
			</g>
			<g>
				<path style="fill:#FFFFFF;" d="M9.239,14.19c0,0.138,0.112,0.25,0.25,0.25h1c0.138,0,0.25-0.112,0.25-0.25v-1
					c0-0.138-0.112-0.25-0.25-0.25h-1c-0.138,0-0.25,0.112-0.25,0.25V14.19z"/>
			</g>
			<g>
				<path style="fill:#FFFFFF;" d="M11.84,14.19c0,0.138,0.112,0.25,0.25,0.25h1c0.138,0,0.25-0.112,0.25-0.25v-1
					c0-0.138-0.112-0.25-0.25-0.25h-1c-0.138,0-0.25,0.112-0.25,0.25V14.19z"/>
			</g>
			<g>
				<path style="fill:#FFFFFF;" d="M14.439,14.19c0,0.138,0.112,0.25,0.25,0.25h1c0.138,0,0.25-0.112,0.25-0.25v-1
					c0-0.138-0.112-0.25-0.25-0.25h-1c-0.138,0-0.25,0.112-0.25,0.25V14.19z"/>
			</g>
		</g>
	</g>
</g>
<g id="Layer_1">
</g>
</svg>
