<?xml version="1.0" encoding="iso-8859-1"?>
<!-- Generator: Adobe Illustrator 16.0.0, SVG Export Plug-In . SVG Version: 6.00 Build 0)  -->
<!DOCTYPE svg PUBLIC "-//W3C//DTD SVG 1.1//EN" "http://www.w3.org/Graphics/SVG/1.1/DTD/svg11.dtd">
<svg version="1.1" xmlns="http://www.w3.org/2000/svg" xmlns:xlink="http://www.w3.org/1999/xlink" x="0px" y="0px" width="20px"
	 height="20px" viewBox="0 0 20 20" style="enable-background:new 0 0 20 20;" xml:space="preserve">
<g id="calendar">
	<g>
		<rect id="le_wrappier_22_" style="fill:none;" width="20" height="20"/>
		<g>
			<g>
				<linearGradient id="SVGID_1_" gradientUnits="userSpaceOnUse" x1="9.9995" y1="0" x2="9.9995" y2="20.0005">
					<stop  offset="0" style="stop-color:#72B9F7"/>
					<stop  offset="0.27" style="stop-color:#448CCA"/>
					<stop  offset="0.27" style="stop-color:#336B9A"/>
					<stop  offset="0.2731" style="stop-color:#356C9B"/>
					<stop  offset="0.2748" style="stop-color:#3D719C"/>
					<stop  offset="0.2761" style="stop-color:#4B799F"/>
					<stop  offset="0.2773" style="stop-color:#5E84A3"/>
					<stop  offset="0.2783" style="stop-color:#7792A9"/>
					<stop  offset="0.2792" style="stop-color:#95A3B0"/>
					<stop  offset="0.28" style="stop-color:#B6B6B7"/>
					<stop  offset="1" style="stop-color:#B6B6B7"/>
				</linearGradient>
				<path style="fill:url(#SVGID_1_);" d="M0,19.875C0,19.943,0.056,20,0.125,20h19.75C19.943,20,20,19.943,20,19.875V0.125
					C20,0.056,19.943,0,19.875,0H0.125C0.056,0,0,0.056,0,0.125V19.875z"/>
				<linearGradient id="SVGID_2_" gradientUnits="userSpaceOnUse" x1="9.9995" y1="0" x2="9.9995" y2="20.0005">
					<stop  offset="0" style="stop-color:#9DABB4"/>
					<stop  offset="0.2651" style="stop-color:#99A7B0"/>
					<stop  offset="0.5398" style="stop-color:#8F9BA3"/>
					<stop  offset="0.8179" style="stop-color:#7D878F"/>
					<stop  offset="1" style="stop-color:#6D767D"/>
				</linearGradient>
				<path style="fill:url(#SVGID_2_);" d="M19.875,0.016c0.061,0,0.109,0.049,0.109,0.109v19.75c0,0.06-0.05,0.109-0.109,0.109
					H0.125c-0.061,0-0.109-0.049-0.109-0.109V0.125c0-0.061,0.049-0.109,0.109-0.109H19.875 M19.875,0H0.125
					C0.056,0,0,0.056,0,0.125v19.75C0,19.943,0.056,20,0.125,20h19.75C19.943,20,20,19.943,20,19.875V0.125
					C20,0.056,19.943,0,19.875,0L19.875,0z"/>
			</g>
			<g>
				<path style="fill:#FFFFFF;" d="M19.113,6.289v12.824H0.889V6.289H19.113 M19.176,6.102H0.826c-0.069,0-0.125,0.056-0.125,0.125
					v12.949c0,0.068,0.056,0.125,0.125,0.125h18.35c0.068,0,0.125-0.057,0.125-0.125V6.227C19.301,6.158,19.244,6.102,19.176,6.102
					L19.176,6.102z"/>
				<path style="fill:#FFFFFF;" d="M0.826,19.27c-0.069,0-0.125-0.057-0.125-0.125l0.03-12.918c0-0.069,0.057-0.125,0.125-0.125
					l18.318,0.031c0.068,0,0.125,0.056,0.125,0.125L19.27,19.145c0,0.068-0.057,0.125-0.125,0.125H0.826z"/>
				<linearGradient id="SVGID_3_" gradientUnits="userSpaceOnUse" x1="10.0005" y1="6.1016" x2="10.0005" y2="19.3013">
					<stop  offset="0" style="stop-color:#9DABB4"/>
					<stop  offset="0.2651" style="stop-color:#99A7B0"/>
					<stop  offset="0.5398" style="stop-color:#8F9BA3"/>
					<stop  offset="0.8179" style="stop-color:#7D878F"/>
					<stop  offset="1" style="stop-color:#6D767D"/>
				</linearGradient>
				<path style="fill:url(#SVGID_3_);" d="M19.176,6.117c0.061,0,0.109,0.049,0.109,0.109v12.949c0,0.06-0.05,0.109-0.109,0.109
					H0.826c-0.061,0-0.109-0.049-0.109-0.109V6.227c0-0.061,0.049-0.109,0.109-0.109H19.176 M19.176,6.102H0.826
					c-0.069,0-0.125,0.056-0.125,0.125v12.949c0,0.068,0.056,0.125,0.125,0.125h18.35c0.068,0,0.125-0.057,0.125-0.125V6.227
					C19.301,6.158,19.244,6.102,19.176,6.102L19.176,6.102z"/>
			</g>
			<g>
				<path style="fill:#BBBDBF;" d="M3.5,8.496c0,0.017-0.014,0.031-0.031,0.031H1.467c-0.017,0-0.031-0.014-0.031-0.031V6.832
					c0-0.017,0.014-0.031,0.031-0.031h2.002c0.017,0,0.031,0.014,0.031,0.031V8.496z"/>
				<g style="opacity:0.25;">
					<linearGradient id="SVGID_4_" gradientUnits="userSpaceOnUse" x1="2.4678" y1="6.8008" x2="2.4678" y2="8.5273">
						<stop  offset="0" style="stop-color:#9DABB4"/>
						<stop  offset="0.2651" style="stop-color:#99A7B0"/>
						<stop  offset="0.5398" style="stop-color:#8F9BA3"/>
						<stop  offset="0.8179" style="stop-color:#7D878F"/>
						<stop  offset="1" style="stop-color:#6D767D"/>
					</linearGradient>
					<path style="fill:url(#SVGID_4_);" d="M3.469,6.816c0.008,0,0.016,0.007,0.016,0.016v1.664c0,0.008-0.007,0.016-0.016,0.016
						H1.467c-0.008,0-0.016-0.007-0.016-0.016V6.832c0-0.008,0.007-0.016,0.016-0.016H3.469 M3.469,6.801H1.467
						c-0.017,0-0.031,0.014-0.031,0.031v1.664c0,0.017,0.014,0.031,0.031,0.031h2.002c0.017,0,0.031-0.014,0.031-0.031V6.832
						C3.5,6.815,3.486,6.801,3.469,6.801L3.469,6.801z"/>
				</g>
			</g>
			<g>
				<path style="fill:#BBBDBF;" d="M6.486,8.496c0,0.017-0.014,0.031-0.031,0.031H4.451c-0.017,0-0.031-0.014-0.031-0.031V6.832
					c0-0.017,0.014-0.031,0.031-0.031h2.004c0.017,0,0.031,0.014,0.031,0.031V8.496z"/>
				<g style="opacity:0.25;">
					<linearGradient id="SVGID_5_" gradientUnits="userSpaceOnUse" x1="5.4531" y1="6.8008" x2="5.4531" y2="8.5273">
						<stop  offset="0" style="stop-color:#9DABB4"/>
						<stop  offset="0.2651" style="stop-color:#99A7B0"/>
						<stop  offset="0.5398" style="stop-color:#8F9BA3"/>
						<stop  offset="0.8179" style="stop-color:#7D878F"/>
						<stop  offset="1" style="stop-color:#6D767D"/>
					</linearGradient>
					<path style="fill:url(#SVGID_5_);" d="M6.455,6.816c0.008,0,0.016,0.007,0.016,0.016v1.664c0,0.008-0.007,0.016-0.016,0.016
						H4.451c-0.008,0-0.016-0.007-0.016-0.016V6.832c0-0.008,0.007-0.016,0.016-0.016H6.455 M6.455,6.801H4.451
						c-0.017,0-0.031,0.014-0.031,0.031v1.664c0,0.017,0.014,0.031,0.031,0.031h2.004c0.017,0,0.031-0.014,0.031-0.031V6.832
						C6.486,6.815,6.472,6.801,6.455,6.801L6.455,6.801z"/>
				</g>
			</g>
			<g>
				<path style="fill:#BBBDBF;" d="M9.475,8.496c0,0.017-0.014,0.031-0.031,0.031H7.439c-0.017,0-0.031-0.014-0.031-0.031V6.832
					c0-0.017,0.014-0.031,0.031-0.031h2.004c0.017,0,0.031,0.014,0.031,0.031V8.496z"/>
				<g style="opacity:0.25;">
					<linearGradient id="SVGID_6_" gradientUnits="userSpaceOnUse" x1="8.4414" y1="6.8008" x2="8.4414" y2="8.5273">
						<stop  offset="0" style="stop-color:#9DABB4"/>
						<stop  offset="0.2651" style="stop-color:#99A7B0"/>
						<stop  offset="0.5398" style="stop-color:#8F9BA3"/>
						<stop  offset="0.8179" style="stop-color:#7D878F"/>
						<stop  offset="1" style="stop-color:#6D767D"/>
					</linearGradient>
					<path style="fill:url(#SVGID_6_);" d="M9.443,6.816c0.008,0,0.016,0.007,0.016,0.016v1.664c0,0.008-0.007,0.016-0.016,0.016
						H7.439c-0.008,0-0.016-0.007-0.016-0.016V6.832c0-0.008,0.007-0.016,0.016-0.016H9.443 M9.443,6.801H7.439
						c-0.017,0-0.031,0.014-0.031,0.031v1.664c0,0.017,0.014,0.031,0.031,0.031h2.004c0.017,0,0.031-0.014,0.031-0.031V6.832
						C9.475,6.815,9.46,6.801,9.443,6.801L9.443,6.801z"/>
				</g>
			</g>
			<g>
				<path style="fill:#BBBDBF;" d="M12.461,8.496c0,0.017-0.014,0.031-0.031,0.031h-2.004c-0.017,0-0.031-0.014-0.031-0.031V6.832
					c0-0.017,0.014-0.031,0.031-0.031h2.004c0.018,0,0.031,0.014,0.031,0.031V8.496z"/>
				<g style="opacity:0.25;">
					<linearGradient id="SVGID_7_" gradientUnits="userSpaceOnUse" x1="11.4277" y1="6.8008" x2="11.4277" y2="8.5273">
						<stop  offset="0" style="stop-color:#9DABB4"/>
						<stop  offset="0.2651" style="stop-color:#99A7B0"/>
						<stop  offset="0.5398" style="stop-color:#8F9BA3"/>
						<stop  offset="0.8179" style="stop-color:#7D878F"/>
						<stop  offset="1" style="stop-color:#6D767D"/>
					</linearGradient>
					<path style="fill:url(#SVGID_7_);" d="M12.43,6.816c0.009,0,0.016,0.007,0.016,0.016v1.664c0,0.009-0.007,0.016-0.016,0.016
						h-2.004c-0.008,0-0.016-0.007-0.016-0.016V6.832c0-0.008,0.007-0.016,0.016-0.016H12.43 M12.43,6.801h-2.004
						c-0.017,0-0.031,0.014-0.031,0.031v1.664c0,0.017,0.014,0.031,0.031,0.031h2.004c0.018,0,0.031-0.014,0.031-0.031V6.832
						C12.461,6.815,12.447,6.801,12.43,6.801L12.43,6.801z"/>
				</g>
			</g>
			<g>
				<path style="fill:#BBBDBF;" d="M15.447,8.496c0,0.017-0.014,0.031-0.031,0.031h-2.004c-0.018,0-0.031-0.014-0.031-0.031V6.832
					c0-0.017,0.014-0.031,0.031-0.031h2.004c0.018,0,0.031,0.014,0.031,0.031V8.496z"/>
				<g style="opacity:0.25;">
					<linearGradient id="SVGID_8_" gradientUnits="userSpaceOnUse" x1="14.4141" y1="6.8008" x2="14.4141" y2="8.5273">
						<stop  offset="0" style="stop-color:#9DABB4"/>
						<stop  offset="0.2651" style="stop-color:#99A7B0"/>
						<stop  offset="0.5398" style="stop-color:#8F9BA3"/>
						<stop  offset="0.8179" style="stop-color:#7D878F"/>
						<stop  offset="1" style="stop-color:#6D767D"/>
					</linearGradient>
					<path style="fill:url(#SVGID_8_);" d="M15.416,6.816c0.009,0,0.016,0.007,0.016,0.016v1.664c0,0.009-0.007,0.016-0.016,0.016
						h-2.004c-0.009,0-0.016-0.007-0.016-0.016V6.832c0-0.009,0.007-0.016,0.016-0.016H15.416 M15.416,6.801h-2.004
						c-0.018,0-0.031,0.014-0.031,0.031v1.664c0,0.017,0.014,0.031,0.031,0.031h2.004c0.018,0,0.031-0.014,0.031-0.031V6.832
						C15.447,6.815,15.434,6.801,15.416,6.801L15.416,6.801z"/>
				</g>
			</g>
			<g>
				<path style="fill:#BBBDBF;" d="M18.436,8.496c0,0.017-0.014,0.031-0.031,0.031h-2.006c-0.018,0-0.031-0.014-0.031-0.031V6.832
					c0-0.017,0.014-0.031,0.031-0.031h2.006c0.018,0,0.031,0.014,0.031,0.031V8.496z"/>
				<g style="opacity:0.25;">
					<linearGradient id="SVGID_9_" gradientUnits="userSpaceOnUse" x1="17.4014" y1="6.8008" x2="17.4014" y2="8.5273">
						<stop  offset="0" style="stop-color:#9DABB4"/>
						<stop  offset="0.2651" style="stop-color:#99A7B0"/>
						<stop  offset="0.5398" style="stop-color:#8F9BA3"/>
						<stop  offset="0.8179" style="stop-color:#7D878F"/>
						<stop  offset="1" style="stop-color:#6D767D"/>
					</linearGradient>
					<path style="fill:url(#SVGID_9_);" d="M18.404,6.816c0.009,0,0.016,0.007,0.016,0.016v1.664c0,0.009-0.007,0.016-0.016,0.016
						h-2.006c-0.009,0-0.016-0.007-0.016-0.016V6.832c0-0.009,0.007-0.016,0.016-0.016H18.404 M18.404,6.801h-2.006
						c-0.018,0-0.031,0.014-0.031,0.031v1.664c0,0.017,0.014,0.031,0.031,0.031h2.006c0.018,0,0.031-0.014,0.031-0.031V6.832
						C18.436,6.815,18.422,6.801,18.404,6.801L18.404,6.801z"/>
				</g>
			</g>
			<g>
				<path style="fill:#BBBDBF;" d="M3.5,10.957c0,0.017-0.014,0.031-0.031,0.031H1.467c-0.017,0-0.031-0.014-0.031-0.031v-1.66
					c0-0.017,0.014-0.031,0.031-0.031h2.002C3.486,9.266,3.5,9.28,3.5,9.297V10.957z"/>
				<g style="opacity:0.25;">
					<linearGradient id="SVGID_10_" gradientUnits="userSpaceOnUse" x1="2.4678" y1="9.2656" x2="2.4678" y2="10.9883">
						<stop  offset="0" style="stop-color:#9DABB4"/>
						<stop  offset="0.2651" style="stop-color:#99A7B0"/>
						<stop  offset="0.5398" style="stop-color:#8F9BA3"/>
						<stop  offset="0.8179" style="stop-color:#7D878F"/>
						<stop  offset="1" style="stop-color:#6D767D"/>
					</linearGradient>
					<path style="fill:url(#SVGID_10_);" d="M3.469,9.281c0.008,0,0.016,0.007,0.016,0.016v1.66c0,0.008-0.007,0.016-0.016,0.016
						H1.467c-0.008,0-0.016-0.007-0.016-0.016v-1.66c0-0.008,0.007-0.016,0.016-0.016H3.469 M3.469,9.266H1.467
						c-0.017,0-0.031,0.014-0.031,0.031v1.66c0,0.017,0.014,0.031,0.031,0.031h2.002c0.017,0,0.031-0.014,0.031-0.031v-1.66
						C3.5,9.28,3.486,9.266,3.469,9.266L3.469,9.266z"/>
				</g>
			</g>
			<g>
				<path style="fill:#BBBDBF;" d="M6.486,10.957c0,0.017-0.014,0.031-0.031,0.031H4.451c-0.017,0-0.031-0.014-0.031-0.031v-1.66
					c0-0.017,0.014-0.031,0.031-0.031h2.004c0.017,0,0.031,0.014,0.031,0.031V10.957z"/>
				<g style="opacity:0.25;">
					<linearGradient id="SVGID_11_" gradientUnits="userSpaceOnUse" x1="5.4531" y1="9.2656" x2="5.4531" y2="10.9883">
						<stop  offset="0" style="stop-color:#9DABB4"/>
						<stop  offset="0.2651" style="stop-color:#99A7B0"/>
						<stop  offset="0.5398" style="stop-color:#8F9BA3"/>
						<stop  offset="0.8179" style="stop-color:#7D878F"/>
						<stop  offset="1" style="stop-color:#6D767D"/>
					</linearGradient>
					<path style="fill:url(#SVGID_11_);" d="M6.455,9.281c0.008,0,0.016,0.007,0.016,0.016v1.66c0,0.008-0.007,0.016-0.016,0.016
						H4.451c-0.008,0-0.016-0.007-0.016-0.016v-1.66c0-0.008,0.007-0.016,0.016-0.016H6.455 M6.455,9.266H4.451
						c-0.017,0-0.031,0.014-0.031,0.031v1.66c0,0.017,0.014,0.031,0.031,0.031h2.004c0.017,0,0.031-0.014,0.031-0.031v-1.66
						C6.486,9.28,6.472,9.266,6.455,9.266L6.455,9.266z"/>
				</g>
			</g>
			<g>
				<path style="fill:#BBBDBF;" d="M9.475,10.957c0,0.017-0.014,0.031-0.031,0.031H7.439c-0.017,0-0.031-0.014-0.031-0.031v-1.66
					c0-0.017,0.014-0.031,0.031-0.031h2.004c0.017,0,0.031,0.014,0.031,0.031V10.957z"/>
				<g style="opacity:0.25;">
					<linearGradient id="SVGID_12_" gradientUnits="userSpaceOnUse" x1="8.4414" y1="9.2656" x2="8.4414" y2="10.9883">
						<stop  offset="0" style="stop-color:#9DABB4"/>
						<stop  offset="0.2651" style="stop-color:#99A7B0"/>
						<stop  offset="0.5398" style="stop-color:#8F9BA3"/>
						<stop  offset="0.8179" style="stop-color:#7D878F"/>
						<stop  offset="1" style="stop-color:#6D767D"/>
					</linearGradient>
					<path style="fill:url(#SVGID_12_);" d="M9.443,9.281c0.008,0,0.016,0.007,0.016,0.016v1.66c0,0.008-0.007,0.016-0.016,0.016
						H7.439c-0.008,0-0.016-0.007-0.016-0.016v-1.66c0-0.008,0.007-0.016,0.016-0.016H9.443 M9.443,9.266H7.439
						c-0.017,0-0.031,0.014-0.031,0.031v1.66c0,0.017,0.014,0.031,0.031,0.031h2.004c0.017,0,0.031-0.014,0.031-0.031v-1.66
						C9.475,9.28,9.46,9.266,9.443,9.266L9.443,9.266z"/>
				</g>
			</g>
			<g>
				<path style="fill:#BBBDBF;" d="M12.461,10.957c0,0.017-0.014,0.031-0.031,0.031h-2.004c-0.017,0-0.031-0.014-0.031-0.031v-1.66
					c0-0.017,0.014-0.031,0.031-0.031h2.004c0.018,0,0.031,0.014,0.031,0.031V10.957z"/>
				<g style="opacity:0.25;">
					<linearGradient id="SVGID_13_" gradientUnits="userSpaceOnUse" x1="11.4277" y1="9.2656" x2="11.4277" y2="10.9883">
						<stop  offset="0" style="stop-color:#9DABB4"/>
						<stop  offset="0.2651" style="stop-color:#99A7B0"/>
						<stop  offset="0.5398" style="stop-color:#8F9BA3"/>
						<stop  offset="0.8179" style="stop-color:#7D878F"/>
						<stop  offset="1" style="stop-color:#6D767D"/>
					</linearGradient>
					<path style="fill:url(#SVGID_13_);" d="M12.43,9.281c0.009,0,0.016,0.007,0.016,0.016v1.66c0,0.009-0.007,0.016-0.016,0.016
						h-2.004c-0.008,0-0.016-0.007-0.016-0.016v-1.66c0-0.008,0.007-0.016,0.016-0.016H12.43 M12.43,9.266h-2.004
						c-0.017,0-0.031,0.014-0.031,0.031v1.66c0,0.017,0.014,0.031,0.031,0.031h2.004c0.018,0,0.031-0.014,0.031-0.031v-1.66
						C12.461,9.28,12.447,9.266,12.43,9.266L12.43,9.266z"/>
				</g>
			</g>
			<g>
				<path style="fill:#BBBDBF;" d="M15.447,10.957c0,0.017-0.014,0.031-0.031,0.031h-2.004c-0.018,0-0.031-0.014-0.031-0.031v-1.66
					c0-0.017,0.014-0.031,0.031-0.031h2.004c0.018,0,0.031,0.014,0.031,0.031V10.957z"/>
				<g style="opacity:0.25;">
					<linearGradient id="SVGID_14_" gradientUnits="userSpaceOnUse" x1="14.4141" y1="9.2656" x2="14.4141" y2="10.9883">
						<stop  offset="0" style="stop-color:#9DABB4"/>
						<stop  offset="0.2651" style="stop-color:#99A7B0"/>
						<stop  offset="0.5398" style="stop-color:#8F9BA3"/>
						<stop  offset="0.8179" style="stop-color:#7D878F"/>
						<stop  offset="1" style="stop-color:#6D767D"/>
					</linearGradient>
					<path style="fill:url(#SVGID_14_);" d="M15.416,9.281c0.009,0,0.016,0.007,0.016,0.016v1.66c0,0.009-0.007,0.016-0.016,0.016
						h-2.004c-0.009,0-0.016-0.007-0.016-0.016v-1.66c0-0.009,0.007-0.016,0.016-0.016H15.416 M15.416,9.266h-2.004
						c-0.018,0-0.031,0.014-0.031,0.031v1.66c0,0.017,0.014,0.031,0.031,0.031h2.004c0.018,0,0.031-0.014,0.031-0.031v-1.66
						C15.447,9.28,15.434,9.266,15.416,9.266L15.416,9.266z"/>
				</g>
			</g>
			<g>
				<path style="fill:#BBBDBF;" d="M18.436,10.957c0,0.017-0.014,0.031-0.031,0.031h-2.006c-0.018,0-0.031-0.014-0.031-0.031v-1.66
					c0-0.017,0.014-0.031,0.031-0.031h2.006c0.018,0,0.031,0.014,0.031,0.031V10.957z"/>
				<g style="opacity:0.25;">
					<linearGradient id="SVGID_15_" gradientUnits="userSpaceOnUse" x1="17.4014" y1="9.2656" x2="17.4014" y2="10.9883">
						<stop  offset="0" style="stop-color:#9DABB4"/>
						<stop  offset="0.2651" style="stop-color:#99A7B0"/>
						<stop  offset="0.5398" style="stop-color:#8F9BA3"/>
						<stop  offset="0.8179" style="stop-color:#7D878F"/>
						<stop  offset="1" style="stop-color:#6D767D"/>
					</linearGradient>
					<path style="fill:url(#SVGID_15_);" d="M18.404,9.281c0.009,0,0.016,0.007,0.016,0.016v1.66c0,0.009-0.007,0.016-0.016,0.016
						h-2.006c-0.009,0-0.016-0.007-0.016-0.016v-1.66c0-0.009,0.007-0.016,0.016-0.016H18.404 M18.404,9.266h-2.006
						c-0.018,0-0.031,0.014-0.031,0.031v1.66c0,0.017,0.014,0.031,0.031,0.031h2.006c0.018,0,0.031-0.014,0.031-0.031v-1.66
						C18.436,9.28,18.422,9.266,18.404,9.266L18.404,9.266z"/>
				</g>
			</g>
			<g>
				<path style="fill:#BBBDBF;" d="M3.5,13.467c0,0.018-0.014,0.031-0.031,0.031H1.467c-0.017,0-0.031-0.014-0.031-0.031v-1.662
					c0-0.018,0.014-0.031,0.031-0.031h2.002c0.017,0,0.031,0.014,0.031,0.031V13.467z"/>
				<g style="opacity:0.25;">
					<linearGradient id="SVGID_16_" gradientUnits="userSpaceOnUse" x1="2.4678" y1="11.7734" x2="2.4678" y2="13.498">
						<stop  offset="0" style="stop-color:#9DABB4"/>
						<stop  offset="0.2651" style="stop-color:#99A7B0"/>
						<stop  offset="0.5398" style="stop-color:#8F9BA3"/>
						<stop  offset="0.8179" style="stop-color:#7D878F"/>
						<stop  offset="1" style="stop-color:#6D767D"/>
					</linearGradient>
					<path style="fill:url(#SVGID_16_);" d="M3.469,11.789c0.009,0,0.016,0.007,0.016,0.016v1.662c0,0.009-0.007,0.016-0.016,0.016
						H1.467c-0.009,0-0.016-0.007-0.016-0.016v-1.662c0-0.009,0.007-0.016,0.016-0.016H3.469 M3.469,11.773H1.467
						c-0.017,0-0.031,0.014-0.031,0.031v1.662c0,0.018,0.014,0.031,0.031,0.031h2.002c0.017,0,0.031-0.014,0.031-0.031v-1.662
						C3.5,11.787,3.486,11.773,3.469,11.773L3.469,11.773z"/>
				</g>
			</g>
			<g>
				<path style="fill:#448CCA;" d="M6.85,13.77c0,0.018-0.014,0.031-0.031,0.031h-2.73c-0.017,0-0.031-0.014-0.031-0.031V11.5
					c0-0.018,0.014-0.031,0.031-0.031h2.73c0.017,0,0.031,0.014,0.031,0.031V13.77z"/>
				<g style="opacity:0.25;">
					<linearGradient id="SVGID_17_" gradientUnits="userSpaceOnUse" x1="5.4531" y1="11.4688" x2="5.4531" y2="13.8008">
						<stop  offset="0" style="stop-color:#F1F8FF"/>
						<stop  offset="0.9" style="stop-color:#CAE0EF"/>
					</linearGradient>
					<path style="fill:url(#SVGID_17_);" d="M6.818,11.484c0.009,0,0.016,0.007,0.016,0.016v2.27c0,0.009-0.007,0.016-0.016,0.016
						h-2.73c-0.009,0-0.016-0.007-0.016-0.016V11.5c0-0.009,0.007-0.016,0.016-0.016H6.818 M6.818,11.469h-2.73
						c-0.017,0-0.031,0.014-0.031,0.031v2.27c0,0.018,0.014,0.031,0.031,0.031h2.73c0.017,0,0.031-0.014,0.031-0.031V11.5
						C6.85,11.482,6.835,11.469,6.818,11.469L6.818,11.469z"/>
				</g>
			</g>
			<g>
				<path style="fill:#BBBDBF;" d="M9.475,13.467c0,0.018-0.014,0.031-0.031,0.031H7.439c-0.017,0-0.031-0.014-0.031-0.031v-1.662
					c0-0.018,0.014-0.031,0.031-0.031h2.004c0.017,0,0.031,0.014,0.031,0.031V13.467z"/>
				<g style="opacity:0.25;">
					<linearGradient id="SVGID_18_" gradientUnits="userSpaceOnUse" x1="8.4414" y1="11.7734" x2="8.4414" y2="13.498">
						<stop  offset="0" style="stop-color:#9DABB4"/>
						<stop  offset="0.2651" style="stop-color:#99A7B0"/>
						<stop  offset="0.5398" style="stop-color:#8F9BA3"/>
						<stop  offset="0.8179" style="stop-color:#7D878F"/>
						<stop  offset="1" style="stop-color:#6D767D"/>
					</linearGradient>
					<path style="fill:url(#SVGID_18_);" d="M9.443,11.789c0.009,0,0.016,0.007,0.016,0.016v1.662c0,0.009-0.007,0.016-0.016,0.016
						H7.439c-0.009,0-0.016-0.007-0.016-0.016v-1.662c0-0.009,0.007-0.016,0.016-0.016H9.443 M9.443,11.773H7.439
						c-0.017,0-0.031,0.014-0.031,0.031v1.662c0,0.018,0.014,0.031,0.031,0.031h2.004c0.017,0,0.031-0.014,0.031-0.031v-1.662
						C9.475,11.787,9.46,11.773,9.443,11.773L9.443,11.773z"/>
				</g>
			</g>
			<g>
				<path style="fill:#BBBDBF;" d="M12.461,13.467c0,0.018-0.014,0.031-0.031,0.031h-2.004c-0.017,0-0.031-0.014-0.031-0.031v-1.662
					c0-0.018,0.014-0.031,0.031-0.031h2.004c0.018,0,0.031,0.014,0.031,0.031V13.467z"/>
				<g style="opacity:0.25;">
					<linearGradient id="SVGID_19_" gradientUnits="userSpaceOnUse" x1="11.4277" y1="11.7734" x2="11.4277" y2="13.498">
						<stop  offset="0" style="stop-color:#9DABB4"/>
						<stop  offset="0.2651" style="stop-color:#99A7B0"/>
						<stop  offset="0.5398" style="stop-color:#8F9BA3"/>
						<stop  offset="0.8179" style="stop-color:#7D878F"/>
						<stop  offset="1" style="stop-color:#6D767D"/>
					</linearGradient>
					<path style="fill:url(#SVGID_19_);" d="M12.43,11.789c0.009,0,0.016,0.007,0.016,0.016v1.662c0,0.009-0.007,0.016-0.016,0.016
						h-2.004c-0.009,0-0.016-0.007-0.016-0.016v-1.662c0-0.009,0.007-0.016,0.016-0.016H12.43 M12.43,11.773h-2.004
						c-0.017,0-0.031,0.014-0.031,0.031v1.662c0,0.018,0.014,0.031,0.031,0.031h2.004c0.018,0,0.031-0.014,0.031-0.031v-1.662
						C12.461,11.787,12.447,11.773,12.43,11.773L12.43,11.773z"/>
				</g>
			</g>
			<g>
				<path style="fill:#BBBDBF;" d="M15.447,13.467c0,0.018-0.014,0.031-0.031,0.031h-2.004c-0.018,0-0.031-0.014-0.031-0.031v-1.662
					c0-0.018,0.014-0.031,0.031-0.031h2.004c0.018,0,0.031,0.014,0.031,0.031V13.467z"/>
				<g style="opacity:0.25;">
					<linearGradient id="SVGID_20_" gradientUnits="userSpaceOnUse" x1="14.4141" y1="11.7734" x2="14.4141" y2="13.498">
						<stop  offset="0" style="stop-color:#9DABB4"/>
						<stop  offset="0.2651" style="stop-color:#99A7B0"/>
						<stop  offset="0.5398" style="stop-color:#8F9BA3"/>
						<stop  offset="0.8179" style="stop-color:#7D878F"/>
						<stop  offset="1" style="stop-color:#6D767D"/>
					</linearGradient>
					<path style="fill:url(#SVGID_20_);" d="M15.416,11.789c0.009,0,0.016,0.007,0.016,0.016v1.662c0,0.009-0.007,0.016-0.016,0.016
						h-2.004c-0.009,0-0.016-0.007-0.016-0.016v-1.662c0-0.009,0.007-0.016,0.016-0.016H15.416 M15.416,11.773h-2.004
						c-0.018,0-0.031,0.014-0.031,0.031v1.662c0,0.018,0.014,0.031,0.031,0.031h2.004c0.018,0,0.031-0.014,0.031-0.031v-1.662
						C15.447,11.787,15.434,11.773,15.416,11.773L15.416,11.773z"/>
				</g>
			</g>
			<g>
				<path style="fill:#BBBDBF;" d="M18.436,13.467c0,0.018-0.014,0.031-0.031,0.031h-2.006c-0.018,0-0.031-0.014-0.031-0.031v-1.662
					c0-0.018,0.014-0.031,0.031-0.031h2.006c0.018,0,0.031,0.014,0.031,0.031V13.467z"/>
				<g style="opacity:0.25;">
					<linearGradient id="SVGID_21_" gradientUnits="userSpaceOnUse" x1="17.4014" y1="11.7734" x2="17.4014" y2="13.498">
						<stop  offset="0" style="stop-color:#9DABB4"/>
						<stop  offset="0.2651" style="stop-color:#99A7B0"/>
						<stop  offset="0.5398" style="stop-color:#8F9BA3"/>
						<stop  offset="0.8179" style="stop-color:#7D878F"/>
						<stop  offset="1" style="stop-color:#6D767D"/>
					</linearGradient>
					<path style="fill:url(#SVGID_21_);" d="M18.404,11.789c0.009,0,0.016,0.007,0.016,0.016v1.662c0,0.009-0.007,0.016-0.016,0.016
						h-2.006c-0.009,0-0.016-0.007-0.016-0.016v-1.662c0-0.009,0.007-0.016,0.016-0.016H18.404 M18.404,11.773h-2.006
						c-0.018,0-0.031,0.014-0.031,0.031v1.662c0,0.018,0.014,0.031,0.031,0.031h2.006c0.018,0,0.031-0.014,0.031-0.031v-1.662
						C18.436,11.787,18.422,11.773,18.404,11.773L18.404,11.773z"/>
				</g>
			</g>
			<g>
				<path style="fill:#BBBDBF;" d="M3.5,15.953c0,0.018-0.014,0.031-0.031,0.031H1.467c-0.017,0-0.031-0.014-0.031-0.031v-1.664
					c0-0.018,0.014-0.031,0.031-0.031h2.002c0.017,0,0.031,0.014,0.031,0.031V15.953z"/>
				<g style="opacity:0.25;">
					<linearGradient id="SVGID_22_" gradientUnits="userSpaceOnUse" x1="2.4678" y1="14.2578" x2="2.4678" y2="15.9844">
						<stop  offset="0" style="stop-color:#9DABB4"/>
						<stop  offset="0.2651" style="stop-color:#99A7B0"/>
						<stop  offset="0.5398" style="stop-color:#8F9BA3"/>
						<stop  offset="0.8179" style="stop-color:#7D878F"/>
						<stop  offset="1" style="stop-color:#6D767D"/>
					</linearGradient>
					<path style="fill:url(#SVGID_22_);" d="M3.469,14.273c0.009,0,0.016,0.007,0.016,0.016v1.664c0,0.009-0.007,0.016-0.016,0.016
						H1.467c-0.009,0-0.016-0.007-0.016-0.016v-1.664c0-0.009,0.007-0.016,0.016-0.016H3.469 M3.469,14.258H1.467
						c-0.017,0-0.031,0.014-0.031,0.031v1.664c0,0.018,0.014,0.031,0.031,0.031h2.002c0.017,0,0.031-0.014,0.031-0.031v-1.664
						C3.5,14.271,3.486,14.258,3.469,14.258L3.469,14.258z"/>
				</g>
			</g>
			<g>
				<path style="fill:#BBBDBF;" d="M6.486,15.953c0,0.018-0.014,0.031-0.031,0.031H4.451c-0.017,0-0.031-0.014-0.031-0.031v-1.664
					c0-0.018,0.014-0.031,0.031-0.031h2.004c0.017,0,0.031,0.014,0.031,0.031V15.953z"/>
				<g style="opacity:0.25;">
					<linearGradient id="SVGID_23_" gradientUnits="userSpaceOnUse" x1="5.4531" y1="14.2578" x2="5.4531" y2="15.9844">
						<stop  offset="0" style="stop-color:#9DABB4"/>
						<stop  offset="0.2651" style="stop-color:#99A7B0"/>
						<stop  offset="0.5398" style="stop-color:#8F9BA3"/>
						<stop  offset="0.8179" style="stop-color:#7D878F"/>
						<stop  offset="1" style="stop-color:#6D767D"/>
					</linearGradient>
					<path style="fill:url(#SVGID_23_);" d="M6.455,14.273c0.009,0,0.016,0.007,0.016,0.016v1.664c0,0.009-0.007,0.016-0.016,0.016
						H4.451c-0.009,0-0.016-0.007-0.016-0.016v-1.664c0-0.009,0.007-0.016,0.016-0.016H6.455 M6.455,14.258H4.451
						c-0.017,0-0.031,0.014-0.031,0.031v1.664c0,0.018,0.014,0.031,0.031,0.031h2.004c0.017,0,0.031-0.014,0.031-0.031v-1.664
						C6.486,14.271,6.472,14.258,6.455,14.258L6.455,14.258z"/>
				</g>
			</g>
			<g>
				<path style="fill:#BBBDBF;" d="M9.475,15.953c0,0.018-0.014,0.031-0.031,0.031H7.439c-0.017,0-0.031-0.014-0.031-0.031v-1.664
					c0-0.018,0.014-0.031,0.031-0.031h2.004c0.017,0,0.031,0.014,0.031,0.031V15.953z"/>
				<g style="opacity:0.25;">
					<linearGradient id="SVGID_24_" gradientUnits="userSpaceOnUse" x1="8.4414" y1="14.2578" x2="8.4414" y2="15.9844">
						<stop  offset="0" style="stop-color:#9DABB4"/>
						<stop  offset="0.2651" style="stop-color:#99A7B0"/>
						<stop  offset="0.5398" style="stop-color:#8F9BA3"/>
						<stop  offset="0.8179" style="stop-color:#7D878F"/>
						<stop  offset="1" style="stop-color:#6D767D"/>
					</linearGradient>
					<path style="fill:url(#SVGID_24_);" d="M9.443,14.273c0.009,0,0.016,0.007,0.016,0.016v1.664c0,0.009-0.007,0.016-0.016,0.016
						H7.439c-0.009,0-0.016-0.007-0.016-0.016v-1.664c0-0.009,0.007-0.016,0.016-0.016H9.443 M9.443,14.258H7.439
						c-0.017,0-0.031,0.014-0.031,0.031v1.664c0,0.018,0.014,0.031,0.031,0.031h2.004c0.017,0,0.031-0.014,0.031-0.031v-1.664
						C9.475,14.271,9.46,14.258,9.443,14.258L9.443,14.258z"/>
				</g>
			</g>
			<g>
				<path style="fill:#BBBDBF;" d="M12.461,15.953c0,0.018-0.014,0.031-0.031,0.031h-2.004c-0.017,0-0.031-0.014-0.031-0.031v-1.664
					c0-0.018,0.014-0.031,0.031-0.031h2.004c0.018,0,0.031,0.014,0.031,0.031V15.953z"/>
				<g style="opacity:0.25;">
					<linearGradient id="SVGID_25_" gradientUnits="userSpaceOnUse" x1="11.4277" y1="14.2578" x2="11.4277" y2="15.9844">
						<stop  offset="0" style="stop-color:#9DABB4"/>
						<stop  offset="0.2651" style="stop-color:#99A7B0"/>
						<stop  offset="0.5398" style="stop-color:#8F9BA3"/>
						<stop  offset="0.8179" style="stop-color:#7D878F"/>
						<stop  offset="1" style="stop-color:#6D767D"/>
					</linearGradient>
					<path style="fill:url(#SVGID_25_);" d="M12.43,14.273c0.009,0,0.016,0.007,0.016,0.016v1.664c0,0.009-0.007,0.016-0.016,0.016
						h-2.004c-0.009,0-0.016-0.007-0.016-0.016v-1.664c0-0.009,0.007-0.016,0.016-0.016H12.43 M12.43,14.258h-2.004
						c-0.017,0-0.031,0.014-0.031,0.031v1.664c0,0.018,0.014,0.031,0.031,0.031h2.004c0.018,0,0.031-0.014,0.031-0.031v-1.664
						C12.461,14.271,12.447,14.258,12.43,14.258L12.43,14.258z"/>
				</g>
			</g>
			<g>
				<path style="fill:#BBBDBF;" d="M15.447,15.953c0,0.018-0.014,0.031-0.031,0.031h-2.004c-0.018,0-0.031-0.014-0.031-0.031v-1.664
					c0-0.018,0.014-0.031,0.031-0.031h2.004c0.018,0,0.031,0.014,0.031,0.031V15.953z"/>
				<g style="opacity:0.25;">
					<linearGradient id="SVGID_26_" gradientUnits="userSpaceOnUse" x1="14.4141" y1="14.2578" x2="14.4141" y2="15.9844">
						<stop  offset="0" style="stop-color:#9DABB4"/>
						<stop  offset="0.2651" style="stop-color:#99A7B0"/>
						<stop  offset="0.5398" style="stop-color:#8F9BA3"/>
						<stop  offset="0.8179" style="stop-color:#7D878F"/>
						<stop  offset="1" style="stop-color:#6D767D"/>
					</linearGradient>
					<path style="fill:url(#SVGID_26_);" d="M15.416,14.273c0.009,0,0.016,0.007,0.016,0.016v1.664c0,0.009-0.007,0.016-0.016,0.016
						h-2.004c-0.009,0-0.016-0.007-0.016-0.016v-1.664c0-0.009,0.007-0.016,0.016-0.016H15.416 M15.416,14.258h-2.004
						c-0.018,0-0.031,0.014-0.031,0.031v1.664c0,0.018,0.014,0.031,0.031,0.031h2.004c0.018,0,0.031-0.014,0.031-0.031v-1.664
						C15.447,14.271,15.434,14.258,15.416,14.258L15.416,14.258z"/>
				</g>
			</g>
			<g>
				<path style="fill:#BBBDBF;" d="M18.436,15.953c0,0.018-0.014,0.031-0.031,0.031h-2.006c-0.018,0-0.031-0.014-0.031-0.031v-1.664
					c0-0.018,0.014-0.031,0.031-0.031h2.006c0.018,0,0.031,0.014,0.031,0.031V15.953z"/>
				<g style="opacity:0.25;">
					<linearGradient id="SVGID_27_" gradientUnits="userSpaceOnUse" x1="17.4014" y1="14.2578" x2="17.4014" y2="15.9844">
						<stop  offset="0" style="stop-color:#9DABB4"/>
						<stop  offset="0.2651" style="stop-color:#99A7B0"/>
						<stop  offset="0.5398" style="stop-color:#8F9BA3"/>
						<stop  offset="0.8179" style="stop-color:#7D878F"/>
						<stop  offset="1" style="stop-color:#6D767D"/>
					</linearGradient>
					<path style="fill:url(#SVGID_27_);" d="M18.404,14.273c0.009,0,0.016,0.007,0.016,0.016v1.664c0,0.009-0.007,0.016-0.016,0.016
						h-2.006c-0.009,0-0.016-0.007-0.016-0.016v-1.664c0-0.009,0.007-0.016,0.016-0.016H18.404 M18.404,14.258h-2.006
						c-0.018,0-0.031,0.014-0.031,0.031v1.664c0,0.018,0.014,0.031,0.031,0.031h2.006c0.018,0,0.031-0.014,0.031-0.031v-1.664
						C18.436,14.271,18.422,14.258,18.404,14.258L18.404,14.258z"/>
				</g>
			</g>
			<g>
				<path style="fill:#BBBDBF;" d="M3.5,18.438c0,0.018-0.014,0.031-0.031,0.031H1.467c-0.017,0-0.031-0.014-0.031-0.031v-1.662
					c0-0.018,0.014-0.031,0.031-0.031h2.002c0.017,0,0.031,0.014,0.031,0.031V18.438z"/>
				<g style="opacity:0.25;">
					<linearGradient id="SVGID_28_" gradientUnits="userSpaceOnUse" x1="2.4678" y1="16.7441" x2="2.4678" y2="18.4688">
						<stop  offset="0" style="stop-color:#9DABB4"/>
						<stop  offset="0.2651" style="stop-color:#99A7B0"/>
						<stop  offset="0.5398" style="stop-color:#8F9BA3"/>
						<stop  offset="0.8179" style="stop-color:#7D878F"/>
						<stop  offset="1" style="stop-color:#6D767D"/>
					</linearGradient>
					<path style="fill:url(#SVGID_28_);" d="M3.469,16.76c0.009,0,0.016,0.007,0.016,0.016v1.662c0,0.009-0.007,0.016-0.016,0.016
						H1.467c-0.009,0-0.016-0.007-0.016-0.016v-1.662c0-0.009,0.007-0.016,0.016-0.016H3.469 M3.469,16.744H1.467
						c-0.017,0-0.031,0.014-0.031,0.031v1.662c0,0.018,0.014,0.031,0.031,0.031h2.002c0.017,0,0.031-0.014,0.031-0.031v-1.662
						C3.5,16.758,3.486,16.744,3.469,16.744L3.469,16.744z"/>
				</g>
			</g>
			<g>
				<path style="fill:#BBBDBF;" d="M6.486,18.438c0,0.018-0.014,0.031-0.031,0.031H4.451c-0.017,0-0.031-0.014-0.031-0.031v-1.662
					c0-0.018,0.014-0.031,0.031-0.031h2.004c0.017,0,0.031,0.014,0.031,0.031V18.438z"/>
				<g style="opacity:0.25;">
					<linearGradient id="SVGID_29_" gradientUnits="userSpaceOnUse" x1="5.4531" y1="16.7441" x2="5.4531" y2="18.4688">
						<stop  offset="0" style="stop-color:#9DABB4"/>
						<stop  offset="0.2651" style="stop-color:#99A7B0"/>
						<stop  offset="0.5398" style="stop-color:#8F9BA3"/>
						<stop  offset="0.8179" style="stop-color:#7D878F"/>
						<stop  offset="1" style="stop-color:#6D767D"/>
					</linearGradient>
					<path style="fill:url(#SVGID_29_);" d="M6.455,16.76c0.009,0,0.016,0.007,0.016,0.016v1.662c0,0.009-0.007,0.016-0.016,0.016
						H4.451c-0.009,0-0.016-0.007-0.016-0.016v-1.662c0-0.009,0.007-0.016,0.016-0.016H6.455 M6.455,16.744H4.451
						c-0.017,0-0.031,0.014-0.031,0.031v1.662c0,0.018,0.014,0.031,0.031,0.031h2.004c0.017,0,0.031-0.014,0.031-0.031v-1.662
						C6.486,16.758,6.472,16.744,6.455,16.744L6.455,16.744z"/>
				</g>
			</g>
			<g>
				<path style="fill:#BBBDBF;" d="M9.475,18.438c0,0.018-0.014,0.031-0.031,0.031H7.439c-0.017,0-0.031-0.014-0.031-0.031v-1.662
					c0-0.018,0.014-0.031,0.031-0.031h2.004c0.017,0,0.031,0.014,0.031,0.031V18.438z"/>
				<g style="opacity:0.25;">
					<linearGradient id="SVGID_30_" gradientUnits="userSpaceOnUse" x1="8.4414" y1="16.7441" x2="8.4414" y2="18.4688">
						<stop  offset="0" style="stop-color:#9DABB4"/>
						<stop  offset="0.2651" style="stop-color:#99A7B0"/>
						<stop  offset="0.5398" style="stop-color:#8F9BA3"/>
						<stop  offset="0.8179" style="stop-color:#7D878F"/>
						<stop  offset="1" style="stop-color:#6D767D"/>
					</linearGradient>
					<path style="fill:url(#SVGID_30_);" d="M9.443,16.76c0.009,0,0.016,0.007,0.016,0.016v1.662c0,0.009-0.007,0.016-0.016,0.016
						H7.439c-0.009,0-0.016-0.007-0.016-0.016v-1.662c0-0.009,0.007-0.016,0.016-0.016H9.443 M9.443,16.744H7.439
						c-0.017,0-0.031,0.014-0.031,0.031v1.662c0,0.018,0.014,0.031,0.031,0.031h2.004c0.017,0,0.031-0.014,0.031-0.031v-1.662
						C9.475,16.758,9.46,16.744,9.443,16.744L9.443,16.744z"/>
				</g>
			</g>
			<g>
				<path style="fill:#BBBDBF;" d="M12.461,18.438c0,0.018-0.014,0.031-0.031,0.031h-2.004c-0.017,0-0.031-0.014-0.031-0.031v-1.662
					c0-0.018,0.014-0.031,0.031-0.031h2.004c0.018,0,0.031,0.014,0.031,0.031V18.438z"/>
				<g style="opacity:0.25;">
					<linearGradient id="SVGID_31_" gradientUnits="userSpaceOnUse" x1="11.4277" y1="16.7441" x2="11.4277" y2="18.4688">
						<stop  offset="0" style="stop-color:#9DABB4"/>
						<stop  offset="0.2651" style="stop-color:#99A7B0"/>
						<stop  offset="0.5398" style="stop-color:#8F9BA3"/>
						<stop  offset="0.8179" style="stop-color:#7D878F"/>
						<stop  offset="1" style="stop-color:#6D767D"/>
					</linearGradient>
					<path style="fill:url(#SVGID_31_);" d="M12.43,16.76c0.009,0,0.016,0.007,0.016,0.016v1.662c0,0.009-0.007,0.016-0.016,0.016
						h-2.004c-0.009,0-0.016-0.007-0.016-0.016v-1.662c0-0.009,0.007-0.016,0.016-0.016H12.43 M12.43,16.744h-2.004
						c-0.017,0-0.031,0.014-0.031,0.031v1.662c0,0.018,0.014,0.031,0.031,0.031h2.004c0.018,0,0.031-0.014,0.031-0.031v-1.662
						C12.461,16.758,12.447,16.744,12.43,16.744L12.43,16.744z"/>
				</g>
			</g>
			<g>
				<path style="fill:#BBBDBF;" d="M15.447,18.438c0,0.018-0.014,0.031-0.031,0.031h-2.004c-0.018,0-0.031-0.014-0.031-0.031v-1.662
					c0-0.018,0.014-0.031,0.031-0.031h2.004c0.018,0,0.031,0.014,0.031,0.031V18.438z"/>
				<g style="opacity:0.25;">
					<linearGradient id="SVGID_32_" gradientUnits="userSpaceOnUse" x1="14.4141" y1="16.7441" x2="14.4141" y2="18.4688">
						<stop  offset="0" style="stop-color:#9DABB4"/>
						<stop  offset="0.2651" style="stop-color:#99A7B0"/>
						<stop  offset="0.5398" style="stop-color:#8F9BA3"/>
						<stop  offset="0.8179" style="stop-color:#7D878F"/>
						<stop  offset="1" style="stop-color:#6D767D"/>
					</linearGradient>
					<path style="fill:url(#SVGID_32_);" d="M15.416,16.76c0.009,0,0.016,0.007,0.016,0.016v1.662c0,0.009-0.007,0.016-0.016,0.016
						h-2.004c-0.009,0-0.016-0.007-0.016-0.016v-1.662c0-0.009,0.007-0.016,0.016-0.016H15.416 M15.416,16.744h-2.004
						c-0.018,0-0.031,0.014-0.031,0.031v1.662c0,0.018,0.014,0.031,0.031,0.031h2.004c0.018,0,0.031-0.014,0.031-0.031v-1.662
						C15.447,16.758,15.434,16.744,15.416,16.744L15.416,16.744z"/>
				</g>
			</g>
			<g>
				<path style="fill:#BBBDBF;" d="M18.436,18.438c0,0.018-0.014,0.031-0.031,0.031h-2.006c-0.018,0-0.031-0.014-0.031-0.031v-1.662
					c0-0.018,0.014-0.031,0.031-0.031h2.006c0.018,0,0.031,0.014,0.031,0.031V18.438z"/>
				<g style="opacity:0.25;">
					<linearGradient id="SVGID_33_" gradientUnits="userSpaceOnUse" x1="17.4014" y1="16.7441" x2="17.4014" y2="18.4688">
						<stop  offset="0" style="stop-color:#9DABB4"/>
						<stop  offset="0.2651" style="stop-color:#99A7B0"/>
						<stop  offset="0.5398" style="stop-color:#8F9BA3"/>
						<stop  offset="0.8179" style="stop-color:#7D878F"/>
						<stop  offset="1" style="stop-color:#6D767D"/>
					</linearGradient>
					<path style="fill:url(#SVGID_33_);" d="M18.404,16.76c0.009,0,0.016,0.007,0.016,0.016v1.662c0,0.009-0.007,0.016-0.016,0.016
						h-2.006c-0.009,0-0.016-0.007-0.016-0.016v-1.662c0-0.009,0.007-0.016,0.016-0.016H18.404 M18.404,16.744h-2.006
						c-0.018,0-0.031,0.014-0.031,0.031v1.662c0,0.018,0.014,0.031,0.031,0.031h2.006c0.018,0,0.031-0.014,0.031-0.031v-1.662
						C18.436,16.758,18.422,16.744,18.404,16.744L18.404,16.744z"/>
				</g>
			</g>
		</g>
	</g>
</g>
<g id="Layer_1">
</g>
</svg>
