<?xml version="1.0" encoding="iso-8859-1"?>
<!-- Generator: Adobe Illustrator 19.1.0, SVG Export Plug-In . SVG Version: 6.00 Build 0)  -->
<svg version="1.1" xmlns="http://www.w3.org/2000/svg" xmlns:xlink="http://www.w3.org/1999/xlink" x="0px" y="0px"
	 viewBox="0 0 20 20" style="enable-background:new 0 0 20 20;" xml:space="preserve">
<g id="caret-up-hover">
	<g>
		<g id="button-2px-corner_66_">
			
				<linearGradient id="SVGID_1_" gradientUnits="userSpaceOnUse" x1="-841" y1="-831" x2="-821" y2="-831" gradientTransform="matrix(0 1 -1 0 -821 841)">
				<stop  offset="0" style="stop-color:#A0C7E7"/>
				<stop  offset="0.9" style="stop-color:#448CCA"/>
			</linearGradient>
			<path style="fill:url(#SVGID_1_);" d="M3,0C1.35,0,0,1.35,0,3v14c0,1.65,1.35,3,3,3h14c1.65,0,3-1.35,3-3V3c0-1.65-1.35-3-3-3H3z
				"/>
			<g style="opacity:0.7;">
				<linearGradient id="SVGID_2_" gradientUnits="userSpaceOnUse" x1="10" y1="20" x2="10" y2="-6.284608e-010">
					<stop  offset="0" style="stop-color:#A0C7E7"/>
					<stop  offset="0.9" style="stop-color:#448CCA"/>
				</linearGradient>
				<path style="fill:url(#SVGID_2_);" d="M17,2c0.542,0,1,0.458,1,1v14c0,0.542-0.458,1-1,1H3c-0.542,0-1-0.458-1-1V3
					c0-0.542,0.458-1,1-1H17 M17,0H3C1.35,0,0,1.35,0,3v14c0,1.65,1.35,3,3,3h14c1.65,0,3-1.35,3-3V3C20,1.35,18.65,0,17,0L17,0z"/>
			</g>
			<g style="opacity:0.7;">
				<path style="fill:#45494D;" d="M17,1c1.103,0,2,0.897,2,2v14c0,1.103-0.897,2-2,2H3c-1.103,0-2-0.897-2-2V3c0-1.103,0.897-2,2-2
					H17 M17,0H3C1.35,0,0,1.35,0,3v14c0,1.65,1.35,3,3,3h14c1.65,0,3-1.35,3-3V3C20,1.35,18.65,0,17,0L17,0z"/>
			</g>
		</g>
		<g id="chevron_19_">
			<path style="fill:#FFFFFF;enable-background:new    ;" d="M9.719,10.834c0.155-0.156,0.405-0.156,0.56,0l2.67,2.726
				c0.154,0.157,0.406,0.157,0.559,0l1.598-1.628c0.152-0.156,0.152-0.414,0-0.57l-2.672-2.725
				c-0.152-0.156-0.406-0.415-0.559-0.569l-1.596-1.628c-0.155-0.156-0.405-0.156-0.56,0L8.125,8.067
				C7.973,8.222,7.719,8.481,7.566,8.637l-2.671,2.725c-0.153,0.156-0.153,0.414,0,0.57L6.49,13.56c0.154,0.157,0.404,0.157,0.558,0
				L9.719,10.834z"/>
			<linearGradient id="SVGID_3_" gradientUnits="userSpaceOnUse" x1="10.0002" y1="13.8025" x2="10.0002" y2="6.1973">
				<stop  offset="0" style="stop-color:#FFFFFF"/>
				<stop  offset="0.9" style="stop-color:#D7E5EF"/>
			</linearGradient>
			<path style="fill:url(#SVGID_3_);" d="M9.999,6.322c0.101,0,0.203,0.039,0.28,0.117l1.596,1.628
				c0.152,0.154,0.406,0.413,0.559,0.569l2.672,2.725c0.152,0.156,0.152,0.414,0,0.57l-1.598,1.628
				c-0.076,0.079-0.177,0.118-0.279,0.118s-0.203-0.039-0.28-0.118l-2.67-2.726c-0.077-0.078-0.179-0.117-0.28-0.117
				s-0.203,0.039-0.28,0.117L7.048,13.56c-0.077,0.079-0.178,0.118-0.279,0.118S6.568,13.638,6.49,13.56l-1.595-1.628
				c-0.153-0.156-0.153-0.414,0-0.57l2.671-2.725C7.719,8.48,7.973,8.222,8.125,8.067l1.594-1.628
				C9.797,6.361,9.898,6.322,9.999,6.322 M9.999,6.197c-0.139,0-0.27,0.055-0.369,0.154L8.036,7.98
				C7.884,8.134,7.63,8.393,7.477,8.549l-2.671,2.725c-0.201,0.206-0.201,0.54,0,0.745l1.595,1.628
				c0.098,0.1,0.229,0.155,0.369,0.155c0.139,0,0.27-0.055,0.368-0.155l2.671-2.726c0.051-0.051,0.119-0.08,0.191-0.08
				c0.072,0,0.14,0.028,0.191,0.08l2.669,2.725c0.098,0.1,0.23,0.155,0.369,0.155c0.14,0,0.271-0.055,0.368-0.156l1.597-1.627
				c0.201-0.206,0.201-0.54,0-0.745l-2.672-2.725c-0.152-0.156-0.406-0.415-0.559-0.57l-1.595-1.628
				C10.27,6.252,10.139,6.197,9.999,6.197L9.999,6.197z"/>
		</g>
	</g>
</g>
<g id="Layer_1">
</g>
</svg>
