<?xml version="1.0" encoding="iso-8859-1"?>
<!-- Generator: Adobe Illustrator 16.0.0, SVG Export Plug-In . SVG Version: 6.00 Build 0)  -->
<!DOCTYPE svg PUBLIC "-//W3C//DTD SVG 1.1//EN" "http://www.w3.org/Graphics/SVG/1.1/DTD/svg11.dtd">
<svg version="1.1" xmlns="http://www.w3.org/2000/svg" xmlns:xlink="http://www.w3.org/1999/xlink" x="0px" y="0px" width="20px"
	 height="20px" viewBox="0 0 20 20" style="enable-background:new 0 0 20 20;" xml:space="preserve">
<g id="caret-down-hover">
	<g>
		<g id="button-2px-corner_101_">
			
				<linearGradient id="SVGID_1_" gradientUnits="userSpaceOnUse" x1="-841" y1="-830.9995" x2="-820.9995" y2="-830.9995" gradientTransform="matrix(0 1 -1 0 -821 841)">
				<stop  offset="0" style="stop-color:#A0C7E7"/>
				<stop  offset="0.9" style="stop-color:#448CCA"/>
			</linearGradient>
			<path style="fill:url(#SVGID_1_);" d="M3,0C1.35,0,0,1.35,0,3v14c0,1.65,1.35,3,3,3h14c1.65,0,3-1.35,3-3V3c0-1.65-1.35-3-3-3H3z
				"/>
			<g style="opacity:0.7;">
				<linearGradient id="SVGID_2_" gradientUnits="userSpaceOnUse" x1="10.0005" y1="20" x2="10.0005" y2="4.882812e-04">
					<stop  offset="0" style="stop-color:#A0C7E7"/>
					<stop  offset="0.9" style="stop-color:#448CCA"/>
				</linearGradient>
				<path style="fill:url(#SVGID_2_);" d="M17,2c0.542,0,1,0.458,1,1v14c0,0.542-0.458,1-1,1H3c-0.542,0-1-0.458-1-1V3
					c0-0.542,0.458-1,1-1H17 M17,0H3C1.35,0,0,1.35,0,3v14c0,1.65,1.35,3,3,3h14c1.65,0,3-1.35,3-3V3C20,1.35,18.65,0,17,0L17,0z"/>
			</g>
			<g style="opacity:0.7;">
				<path style="fill:#45494D;" d="M17,1c1.103,0,2,0.897,2,2v14c0,1.103-0.897,2-2,2H3c-1.103,0-2-0.897-2-2V3c0-1.103,0.897-2,2-2
					H17 M17,0H3C1.35,0,0,1.35,0,3v14c0,1.65,1.35,3,3,3h14c1.65,0,3-1.35,3-3V3C20,1.35,18.65,0,17,0L17,0z"/>
			</g>
		</g>
		<g id="chevron_25_">
			<path style="fill:#FFFFFF;enable-background:new    ;" d="M10.281,9.166c-0.155,0.156-0.405,0.156-0.56,0L7.051,6.44
				c-0.154-0.157-0.406-0.157-0.559,0L4.895,8.068c-0.152,0.156-0.152,0.414,0,0.57l2.672,2.725
				c0.152,0.156,0.406,0.415,0.559,0.569l1.596,1.628c0.155,0.156,0.405,0.156,0.56,0l1.594-1.628
				c0.152-0.154,0.406-0.413,0.559-0.569l2.672-2.725c0.152-0.156,0.152-0.414,0-0.57L13.51,6.44c-0.154-0.157-0.404-0.157-0.559,0
				L10.281,9.166z"/>
			<linearGradient id="SVGID_3_" gradientUnits="userSpaceOnUse" x1="10" y1="6.1973" x2="10" y2="13.8032">
				<stop  offset="0" style="stop-color:#FFFFFF"/>
				<stop  offset="0.9" style="stop-color:#D7E5EF"/>
			</linearGradient>
			<path style="fill:url(#SVGID_3_);" d="M13.23,6.322c0.102,0,0.202,0.04,0.279,0.118l1.596,1.628c0.152,0.156,0.152,0.414,0,0.57
				l-2.672,2.725c-0.152,0.156-0.406,0.415-0.559,0.569l-1.594,1.628c-0.078,0.078-0.179,0.117-0.28,0.117
				c-0.102,0-0.203-0.039-0.28-0.117l-1.596-1.628c-0.152-0.154-0.406-0.413-0.559-0.569L4.895,8.639
				c-0.152-0.156-0.152-0.414,0-0.57L6.492,6.44c0.076-0.079,0.177-0.118,0.278-0.118c0.102,0,0.203,0.04,0.28,0.118l2.67,2.726
				c0.077,0.078,0.179,0.117,0.28,0.117c0.101,0,0.202-0.039,0.28-0.117l2.67-2.726C13.028,6.362,13.129,6.322,13.23,6.322
				 M13.23,6.197c-0.14,0-0.271,0.056-0.368,0.156l-2.671,2.726c-0.051,0.051-0.119,0.08-0.19,0.08c-0.072,0-0.14-0.028-0.191-0.08
				L7.14,6.353c-0.099-0.1-0.229-0.156-0.37-0.156c-0.14,0-0.271,0.056-0.368,0.156L4.805,7.981c-0.2,0.206-0.2,0.54,0,0.745
				l2.672,2.725c0.152,0.156,0.407,0.415,0.559,0.569l1.595,1.628c0.099,0.1,0.23,0.154,0.37,0.154c0.139,0,0.27-0.055,0.369-0.154
				l1.594-1.628c0.152-0.154,0.407-0.413,0.56-0.57l2.671-2.724c0.201-0.206,0.201-0.54,0.001-0.745l-1.597-1.628
				C13.501,6.253,13.37,6.197,13.23,6.197L13.23,6.197z"/>
		</g>
	</g>
</g>
<g id="Layer_1">
</g>
</svg>
