<?xml version="1.0" encoding="iso-8859-1"?>
<!-- Generator: Adobe Illustrator 19.1.0, SVG Export Plug-In . SVG Version: 6.00 Build 0)  -->
<svg version="1.1" xmlns="http://www.w3.org/2000/svg" xmlns:xlink="http://www.w3.org/1999/xlink" x="0px" y="0px"
	 viewBox="0 0 20 20" style="enable-background:new 0 0 20 20;" xml:space="preserve">
<g id="caret-left-hover">
	<g>
		<g id="button-2px-corner_70_">
			
				<linearGradient id="SVGID_1_" gradientUnits="userSpaceOnUse" x1="-2250" y1="-3.146852e-010" x2="-2250" y2="20" gradientTransform="matrix(-1 0 0 1 -2240 0)">
				<stop  offset="0" style="stop-color:#A0C7E7"/>
				<stop  offset="0.9" style="stop-color:#448CCA"/>
			</linearGradient>
			<path style="fill:url(#SVGID_1_);" d="M20,17c0,1.65-1.35,3-3,3H3c-1.65,0-3-1.35-3-3V3c0-1.65,1.35-3,3-3h14c1.65,0,3,1.35,3,3
				V17z"/>
			<g style="opacity:0.7;">
				<linearGradient id="SVGID_2_" gradientUnits="userSpaceOnUse" x1="10" y1="20" x2="10" y2="-3.137757e-010">
					<stop  offset="0" style="stop-color:#A0C7E7"/>
					<stop  offset="0.9" style="stop-color:#448CCA"/>
				</linearGradient>
				<path style="fill:url(#SVGID_2_);" d="M17,2c0.542,0,1,0.458,1,1v14c0,0.542-0.458,1-1,1H3c-0.542,0-1-0.458-1-1V3
					c0-0.542,0.458-1,1-1H17 M17,0H3C1.35,0,0,1.35,0,3v14c0,1.65,1.35,3,3,3h14c1.65,0,3-1.35,3-3V3C20,1.35,18.65,0,17,0L17,0z"/>
			</g>
			<g style="opacity:0.7;">
				<path style="fill:#45494D;" d="M17,1c1.103,0,2,0.897,2,2v14c0,1.103-0.897,2-2,2H3c-1.103,0-2-0.897-2-2V3c0-1.103,0.897-2,2-2
					H17 M17,0H3C1.35,0,0,1.35,0,3v14c0,1.65,1.35,3,3,3h14c1.65,0,3-1.35,3-3V3C20,1.35,18.65,0,17,0L17,0z"/>
			</g>
		</g>
		<g id="chevron_24_">
			<path style="fill:#FFFFFF;enable-background:new    ;" d="M10.064,9.719c-0.156,0.155-0.156,0.405,0,0.56l2.726,2.67
				c0.158,0.154,0.158,0.406,0,0.559l-1.628,1.598c-0.156,0.152-0.414,0.152-0.57,0l-2.725-2.672
				c-0.156-0.152-0.415-0.406-0.569-0.559L5.67,10.279c-0.156-0.155-0.156-0.405,0-0.56l1.628-1.594
				c0.154-0.152,0.413-0.406,0.569-0.559l2.725-2.671c0.156-0.153,0.414-0.153,0.57,0L12.79,6.49c0.158,0.154,0.158,0.404,0,0.558
				L10.064,9.719z"/>
			<linearGradient id="SVGID_3_" gradientUnits="userSpaceOnUse" x1="9.2305" y1="15.3447" x2="9.2305" y2="4.6554">
				<stop  offset="0" style="stop-color:#FFFFFF"/>
				<stop  offset="0.9" style="stop-color:#D7E5EF"/>
			</linearGradient>
			<path style="fill:url(#SVGID_3_);" d="M10.877,4.78c0.104,0,0.207,0.038,0.285,0.115L12.79,6.49c0.158,0.154,0.158,0.404,0,0.558
				l-2.726,2.671c-0.156,0.155-0.156,0.405,0,0.56l2.726,2.67c0.158,0.154,0.158,0.406,0,0.559l-1.628,1.598
				c-0.078,0.076-0.182,0.114-0.285,0.114c-0.104,0-0.207-0.038-0.285-0.114l-2.725-2.672c-0.156-0.152-0.415-0.406-0.569-0.559
				L5.67,10.279c-0.156-0.155-0.156-0.405,0-0.56l1.628-1.594c0.154-0.152,0.413-0.406,0.569-0.559l2.725-2.671
				C10.67,4.819,10.773,4.78,10.877,4.78 M10.877,4.655c-0.141,0-0.274,0.053-0.373,0.15L7.779,7.477L7.21,8.036L5.582,9.63
				c-0.1,0.099-0.155,0.23-0.155,0.369c0,0.139,0.055,0.27,0.154,0.369l1.628,1.596c0.154,0.152,0.413,0.406,0.569,0.559
				l2.725,2.672c0.099,0.097,0.232,0.15,0.373,0.15c0.141,0,0.273-0.053,0.372-0.15l1.628-1.598c0.1-0.096,0.155-0.227,0.156-0.366
				c0-0.141-0.055-0.272-0.156-0.371l-2.725-2.67c-0.051-0.051-0.08-0.119-0.08-0.191c0-0.072,0.028-0.14,0.08-0.191l2.725-2.67
				c0.1-0.098,0.156-0.228,0.156-0.368c0-0.14-0.055-0.271-0.156-0.369L11.25,4.806C11.15,4.709,11.018,4.655,10.877,4.655
				L10.877,4.655z"/>
		</g>
	</g>
</g>
<g id="Layer_1">
</g>
</svg>
