<?xml version="1.0" encoding="iso-8859-1"?>
<!-- Generator: Adobe Illustrator 16.0.0, SVG Export Plug-In . SVG Version: 6.00 Build 0)  -->
<!DOCTYPE svg PUBLIC "-//W3C//DTD SVG 1.1//EN" "http://www.w3.org/Graphics/SVG/1.1/DTD/svg11.dtd">
<svg version="1.1" xmlns="http://www.w3.org/2000/svg" xmlns:xlink="http://www.w3.org/1999/xlink" x="0px" y="0px" width="20px"
	 height="20px" viewBox="0 0 20 20" style="enable-background:new 0 0 20 20;" xml:space="preserve">
<g id="caret-right">
	<g>
		<g id="button-2px-corner_1_">
			<linearGradient id="SVGID_1_" gradientUnits="userSpaceOnUse" x1="9.9995" y1="0" x2="9.9995" y2="20.0005">
				<stop  offset="0" style="stop-color:#FFFFFF"/>
				<stop  offset="0.2499" style="stop-color:#FBFCFD"/>
				<stop  offset="0.5087" style="stop-color:#EEF4F8"/>
				<stop  offset="0.7709" style="stop-color:#DAE7F0"/>
				<stop  offset="0.8" style="stop-color:#D7E5EF"/>
			</linearGradient>
			<path style="fill:url(#SVGID_1_);" d="M0,17c0,1.65,1.35,3,3,3h14c1.65,0,3-1.35,3-3V3c0-1.65-1.35-3-3-3H3C1.35,0,0,1.35,0,3V17
				z"/>
			<g>
				<path style="fill:#FFFFFF;" d="M17,0.5c1.379,0,2.5,1.122,2.5,2.5v14c0,1.379-1.121,2.5-2.5,2.5H3c-1.378,0-2.5-1.121-2.5-2.5V3
					c0-1.378,1.122-2.5,2.5-2.5H17 M17,0H3C1.35,0,0,1.35,0,3v14c0,1.65,1.35,3,3,3h14c1.65,0,3-1.35,3-3V3C20,1.35,18.65,0,17,0
					L17,0z"/>
			</g>
			<g style="opacity:0.8;">
				<path style="fill:#45494D;" d="M17,0.125c1.585,0,2.875,1.29,2.875,2.875v14c0,1.585-1.29,2.875-2.875,2.875H3
					c-1.585,0-2.875-1.29-2.875-2.875V3c0-1.585,1.29-2.875,2.875-2.875H17 M17,0H3C1.35,0,0,1.35,0,3v14c0,1.65,1.35,3,3,3h14
					c1.65,0,3-1.35,3-3V3C20,1.35,18.65,0,17,0L17,0z"/>
			</g>
		</g>
		<g id="chevron_6_">
			<path style="opacity:0.6;fill:#45494D;enable-background:new    ;" d="M9.936,9.719c0.156,0.155,0.156,0.405,0,0.56l-2.726,2.67
				c-0.158,0.154-0.158,0.406,0,0.559l1.628,1.598c0.156,0.152,0.414,0.152,0.57,0l2.725-2.672c0.156-0.152,0.415-0.406,0.569-0.559
				l1.628-1.596c0.156-0.155,0.156-0.405,0-0.56l-1.628-1.594c-0.154-0.152-0.413-0.406-0.569-0.559L9.408,4.895
				c-0.156-0.153-0.414-0.153-0.57,0L7.21,6.49c-0.158,0.155-0.158,0.404,0,0.558L9.936,9.719z"/>
			<linearGradient id="SVGID_2_" gradientUnits="userSpaceOnUse" x1="10.77" y1="15.3447" x2="10.77" y2="4.6558">
				<stop  offset="0" style="stop-color:#FFFFFF"/>
				<stop  offset="0.9" style="stop-color:#D7E5EF"/>
			</linearGradient>
			<path style="fill:url(#SVGID_2_);" d="M9.123,4.78c0.104,0,0.207,0.038,0.285,0.115l2.725,2.671
				c0.156,0.153,0.415,0.407,0.569,0.559l1.628,1.594c0.156,0.155,0.156,0.405,0,0.56l-1.628,1.596
				c-0.154,0.152-0.413,0.406-0.569,0.559l-2.725,2.672C9.33,15.182,9.227,15.22,9.123,15.22s-0.207-0.038-0.285-0.114L7.21,13.508
				c-0.158-0.152-0.158-0.404,0-0.559l2.726-2.67c0.156-0.155,0.156-0.405,0-0.56L7.21,7.048c-0.158-0.154-0.158-0.403,0-0.558
				l1.628-1.595C8.916,4.818,9.02,4.78,9.123,4.78 M9.123,4.655c-0.141,0-0.273,0.053-0.373,0.15L7.123,6.401
				C7.022,6.5,6.966,6.631,6.967,6.771c0,0.139,0.056,0.27,0.156,0.367l2.726,2.671C9.899,9.859,9.928,9.927,9.928,10
				c0,0.072-0.028,0.14-0.08,0.191l-2.725,2.67c-0.101,0.099-0.156,0.23-0.156,0.37s0.056,0.271,0.156,0.367l1.627,1.597
				c0.099,0.098,0.231,0.15,0.373,0.15s0.273-0.053,0.373-0.149l2.725-2.673c0.156-0.152,0.415-0.406,0.569-0.559l1.628-1.595
				c0.1-0.099,0.154-0.23,0.154-0.369c0-0.14-0.055-0.271-0.154-0.369L12.79,8.036l-0.553-0.542L9.496,4.806
				C9.396,4.708,9.264,4.655,9.123,4.655L9.123,4.655z"/>
		</g>
	</g>
</g>
<g id="Layer_1">
</g>
</svg>
