<?xml version="1.0" encoding="iso-8859-1"?>
<!-- Generator: Adobe Illustrator 19.1.0, SVG Export Plug-In . SVG Version: 6.00 Build 0)  -->
<svg version="1.1" xmlns="http://www.w3.org/2000/svg" xmlns:xlink="http://www.w3.org/1999/xlink" x="0px" y="0px"
	 viewBox="0 0 20 20" style="enable-background:new 0 0 20 20;" xml:space="preserve">
<g id="caret-up">
	<g>
		<g id="button-2px-corner_63_">
			<linearGradient id="SVGID_1_" gradientUnits="userSpaceOnUse" x1="10" y1="-3.137757e-010" x2="10" y2="20">
				<stop  offset="0" style="stop-color:#FFFFFF"/>
				<stop  offset="0.2499" style="stop-color:#FBFCFD"/>
				<stop  offset="0.5087" style="stop-color:#EEF4F8"/>
				<stop  offset="0.7709" style="stop-color:#DAE7F0"/>
				<stop  offset="0.8" style="stop-color:#D7E5EF"/>
			</linearGradient>
			<path style="fill:url(#SVGID_1_);" d="M0,17c0,1.65,1.35,3,3,3h14c1.65,0,3-1.35,3-3V3c0-1.65-1.35-3-3-3H3C1.35,0,0,1.35,0,3V17
				z"/>
			<g style="opacity:0.7;">
				<path style="fill:#FFFFFF;" d="M17,2c0.542,0,1,0.458,1,1v14c0,0.542-0.458,1-1,1H3c-0.542,0-1-0.458-1-1V3c0-0.542,0.458-1,1-1
					H17 M17,0H3C1.35,0,0,1.35,0,3v14c0,1.65,1.35,3,3,3h14c1.65,0,3-1.35,3-3V3C20,1.35,18.65,0,17,0L17,0z"/>
			</g>
			<g style="opacity:0.7;">
				<path style="fill:#45494D;" d="M17,1c1.103,0,2,0.897,2,2v14c0,1.103-0.897,2-2,2H3c-1.103,0-2-0.897-2-2V3c0-1.103,0.897-2,2-2
					H17 M17,0H3C1.35,0,0,1.35,0,3v14c0,1.65,1.35,3,3,3h14c1.65,0,3-1.35,3-3V3C20,1.35,18.65,0,17,0L17,0z"/>
			</g>
		</g>
		<g id="chevron_16_">
			<path style="fill:#448CCA;enable-background:new    ;" d="M9.72,10.835c0.155-0.156,0.405-0.156,0.56,0l2.67,2.726
				c0.154,0.157,0.406,0.157,0.559,0l1.598-1.628c0.152-0.156,0.152-0.414,0-0.57l-2.672-2.725
				c-0.152-0.156-0.406-0.415-0.559-0.569L10.28,6.44c-0.155-0.156-0.405-0.156-0.56,0L8.126,8.068
				C7.974,8.222,7.72,8.481,7.566,8.637l-2.671,2.725c-0.153,0.156-0.153,0.414,0,0.57l1.595,1.628c0.155,0.157,0.404,0.157,0.558,0
				L9.72,10.835z"/>
			<linearGradient id="SVGID_2_" gradientUnits="userSpaceOnUse" x1="10.0004" y1="6.1978" x2="10.0004" y2="13.803">
				<stop  offset="0" style="stop-color:#FFFFFF"/>
				<stop  offset="0.9" style="stop-color:#D7E5EF"/>
			</linearGradient>
			<path style="fill:url(#SVGID_2_);" d="M10,6.323c0.101,0,0.203,0.039,0.28,0.117l1.596,1.628
				c0.152,0.154,0.406,0.413,0.559,0.569l2.672,2.725c0.152,0.156,0.152,0.414,0,0.57l-1.598,1.628
				c-0.076,0.079-0.177,0.118-0.279,0.118s-0.203-0.039-0.28-0.118l-2.67-2.726c-0.077-0.078-0.179-0.117-0.28-0.117
				s-0.203,0.039-0.28,0.117L7.049,13.56c-0.077,0.079-0.178,0.118-0.279,0.118s-0.202-0.039-0.279-0.118l-1.595-1.628
				c-0.153-0.156-0.153-0.414,0-0.57l2.671-2.725C7.72,8.481,7.974,8.222,8.126,8.068L9.72,6.44C9.797,6.362,9.898,6.323,10,6.323
				 M10,6.198c-0.139,0-0.27,0.055-0.369,0.154L8.036,7.98L7.569,8.456L7.477,8.55l-2.671,2.725c-0.202,0.206-0.202,0.54,0,0.745
				l1.595,1.628c0.099,0.1,0.23,0.155,0.369,0.155c0.139,0,0.27-0.055,0.368-0.155l2.671-2.726c0.051-0.051,0.119-0.08,0.191-0.08
				c0.072,0,0.14,0.028,0.191,0.08l2.669,2.725c0.098,0.1,0.23,0.155,0.369,0.155c0.14,0,0.271-0.055,0.368-0.156l1.597-1.627
				c0.2-0.206,0.2-0.54,0-0.745L12.523,8.55c-0.152-0.156-0.406-0.415-0.559-0.57l-1.595-1.628C10.27,6.253,10.139,6.198,10,6.198
				L10,6.198z"/>
		</g>
	</g>
</g>
<g id="Layer_1">
</g>
</svg>
