<?xml version="1.0" encoding="iso-8859-1"?>
<!-- Generator: Adobe Illustrator 16.0.0, SVG Export Plug-In . SVG Version: 6.00 Build 0)  -->
<!DOCTYPE svg PUBLIC "-//W3C//DTD SVG 1.1//EN" "http://www.w3.org/Graphics/SVG/1.1/DTD/svg11.dtd">
<svg version="1.1" xmlns="http://www.w3.org/2000/svg" xmlns:xlink="http://www.w3.org/1999/xlink" x="0px" y="0px" width="20px"
	 height="20px" viewBox="0 0 20 20" style="enable-background:new 0 0 20 20;" xml:space="preserve">
<g id="checkbox-active">
	<g>
		<rect id="le_wrappier_102_" style="fill:none;" width="20" height="20"/>
		<g>
			<g id="checkbox-2px-corner_28_">
				<linearGradient id="SVGID_1_" gradientUnits="userSpaceOnUse" x1="8.4995" y1="0" x2="8.4995" y2="17.0005">
					<stop  offset="0" style="stop-color:#F2F6FB"/>
					<stop  offset="0.48" style="stop-color:#F2F6FB"/>
					<stop  offset="0.5" style="stop-color:#CDDFEC"/>
					<stop  offset="0.7287" style="stop-color:#C4D8E8"/>
					<stop  offset="1" style="stop-color:#C1D5E6"/>
				</linearGradient>
				<path style="fill:url(#SVGID_1_);" d="M0,14c0,1.65,1.35,3,3,3h11c1.65,0,3-1.35,3-3V3c0-1.65-1.35-3-3-3H3C1.35,0,0,1.35,0,3
					V14z"/>
				<g style="opacity:0.8;">
					<path style="fill:#FFFFFF;" d="M14,2c0.542,0,1,0.458,1,1v11c0,0.542-0.458,1-1,1H3c-0.542,0-1-0.458-1-1V3
						c0-0.542,0.458-1,1-1H14 M14,0H3C1.35,0,0,1.35,0,3v11c0,1.65,1.35,3,3,3h11c1.65,0,3-1.35,3-3V3C17,1.35,15.65,0,14,0L14,0z"
						/>
				</g>
				<g style="opacity:0.7;">
					<path style="fill:#62798C;" d="M14,1c1.103,0,2,0.897,2,2v11c0,1.103-0.897,2-2,2H3c-1.103,0-2-0.897-2-2V3
						c0-1.103,0.897-2,2-2H14 M14,0H3C1.35,0,0,1.35,0,3v11c0,1.65,1.35,3,3,3h11c1.65,0,3-1.35,3-3V3C17,1.35,15.65,0,14,0L14,0z"
						/>
				</g>
			</g>
			<g id="checked-indicator_31_" style="opacity:0.3;">
				
					<path style="opacity:0.8;fill:none;stroke:#FFFFFF;stroke-width:2;stroke-linecap:round;stroke-linejoin:round;stroke-miterlimit:10;" d="
					M8.486,9.297c0,0,0.024-0.269-0.279-0.565C7.9,8.441,5.546,6.178,5.546,6.178C4.656,5.325,4.634,5.349,3.8,6.212L3.108,6.924
					C2.263,7.801,2.406,7.951,3.139,8.663l1.775,1.703C5.4,10.833,6.202,11.6,6.69,12.068l0.888,0.852
					c0.884,0.854,0.884,0.852,1.742-0.031l0.854-0.885c0.473-0.484,1.239-1.279,1.712-1.766l5.61-5.796
					c0.854-0.883,0.854-0.883-0.032-1.736l-0.61-0.585c-0.847-0.817-0.886-0.857-1.743,0.034L9.5,7.947c0,0-0.578,0.596-0.75,0.777
					C8.574,8.905,8.486,9.297,8.486,9.297z"/>
				
					<linearGradient id="SVGID_2_" gradientUnits="userSpaceOnUse" x1="24.0566" y1="1122.6816" x2="24.586" y2="1119.6792" gradientTransform="matrix(0.6947 -0.7193 0.7205 0.6934 -812.1848 -751.2178)">
					<stop  offset="0" style="stop-color:#336B9A"/>
					<stop  offset="1" style="stop-color:#448CCA"/>
				</linearGradient>
				<path style="fill:url(#SVGID_2_);" d="M8.486,9.297c0,0,0.024-0.269-0.279-0.565C7.9,8.441,5.546,6.178,5.546,6.178
					C4.656,5.325,4.634,5.349,3.8,6.212L3.108,6.924C2.263,7.801,2.406,7.951,3.139,8.663l1.775,1.703
					C5.4,10.833,6.202,11.6,6.69,12.068l0.888,0.852c0.884,0.854,0.884,0.852,1.742-0.031l0.854-0.885
					c0.473-0.484,1.239-1.279,1.712-1.766l5.61-5.796c0.854-0.883,0.854-0.883-0.032-1.736l-0.61-0.585
					c-0.847-0.817-0.886-0.857-1.743,0.034L9.5,7.947c0,0-0.578,0.596-0.75,0.777C8.574,8.905,8.486,9.297,8.486,9.297z"/>
			</g>
		</g>
	</g>
</g>
<g id="Layer_1">
</g>
</svg>
