<?xml version="1.0" encoding="iso-8859-1"?>
<!-- Generator: Adobe Illustrator 16.0.0, SVG Export Plug-In . SVG Version: 6.00 Build 0)  -->
<!DOCTYPE svg PUBLIC "-//W3C//DTD SVG 1.1//EN" "http://www.w3.org/Graphics/SVG/1.1/DTD/svg11.dtd">
<svg version="1.1" xmlns="http://www.w3.org/2000/svg" xmlns:xlink="http://www.w3.org/1999/xlink" x="0px" y="0px" width="20px"
	 height="20px" viewBox="0 0 20 20" style="enable-background:new 0 0 20 20;" xml:space="preserve">
<g id="checkbox-hover">
	<g>
		<rect id="le_wrappier_13_" style="fill:none;" width="20" height="20"/>
		<g>
			<g id="checkbox-2px-corner_2_">
				<linearGradient id="SVGID_1_" gradientUnits="userSpaceOnUse" x1="8.4995" y1="0" x2="8.4995" y2="17.0005">
					<stop  offset="0" style="stop-color:#F2F6FB"/>
					<stop  offset="0.48" style="stop-color:#F2F6FB"/>
					<stop  offset="0.5" style="stop-color:#CDDFEC"/>
					<stop  offset="0.7287" style="stop-color:#C4D8E8"/>
					<stop  offset="1" style="stop-color:#C1D5E6"/>
				</linearGradient>
				<path style="fill:url(#SVGID_1_);" d="M0,14c0,1.65,1.35,3,3,3h11c1.65,0,3-1.35,3-3V3c0-1.65-1.35-3-3-3H3C1.35,0,0,1.35,0,3
					V14z"/>
				<g>
					<path style="fill:#FFFFFF;" d="M14,1.25c0.965,0,1.75,0.785,1.75,1.75v11c0,0.965-0.785,1.75-1.75,1.75H3
						c-0.965,0-1.75-0.785-1.75-1.75V3c0-0.965,0.785-1.75,1.75-1.75H14 M14,0H3C1.35,0,0,1.35,0,3v11c0,1.65,1.35,3,3,3h11
						c1.65,0,3-1.35,3-3V3C17,1.35,15.65,0,14,0L14,0z"/>
				</g>
				<g>
					<path style="fill:#6A8799;" d="M14,0.5c1.379,0,2.5,1.122,2.5,2.5v11c0,1.379-1.121,2.5-2.5,2.5H3c-1.378,0-2.5-1.121-2.5-2.5
						V3c0-1.378,1.122-2.5,2.5-2.5H14 M14,0H3C1.35,0,0,1.35,0,3v11c0,1.65,1.35,3,3,3h11c1.65,0,3-1.35,3-3V3C17,1.35,15.65,0,14,0
						L14,0z"/>
				</g>
			</g>
		</g>
	</g>
</g>
<g id="Layer_1">
</g>
</svg>
