<?xml version="1.0" encoding="iso-8859-1"?>
<!-- Generator: Adobe Illustrator 16.0.0, SVG Export Plug-In . SVG Version: 6.00 Build 0)  -->
<!DOCTYPE svg PUBLIC "-//W3C//DTD SVG 1.1//EN" "http://www.w3.org/Graphics/SVG/1.1/DTD/svg11.dtd">
<svg version="1.1" xmlns="http://www.w3.org/2000/svg" xmlns:xlink="http://www.w3.org/1999/xlink" x="0px" y="0px" width="20.5px"
	 height="20px" viewBox="0 0 20.5 20" style="enable-background:new 0 0 20.5 20;" xml:space="preserve">
<g id="checked-indicator">
	<g>
		<rect id="le_wrappier_15_" style="fill:none;" width="20" height="20"/>
		<g id="checked-indicator_9_">
			<path style="fill:none;stroke:#45494D;stroke-width:2;stroke-linecap:round;stroke-linejoin:round;stroke-miterlimit:10;" d="
				M8.278,10.419c0,0,0.028-0.313-0.324-0.658C7.596,9.423,4.858,6.79,4.858,6.79C3.822,5.797,3.796,5.825,2.827,6.83L2.022,7.659
				C1.039,8.678,1.205,8.853,2.058,9.681l2.064,1.979c0.566,0.546,1.498,1.438,2.066,1.981l1.033,0.991
				c1.029,0.993,1.029,0.989,2.026-0.037l0.993-1.029c0.549-0.562,1.441-1.487,1.992-2.054l6.526-6.743
				c0.994-1.027,0.994-1.028-0.037-2.02l-0.71-0.68c-0.985-0.951-1.03-0.997-2.027,0.038l-6.527,6.74c0,0-0.672,0.692-0.872,0.903
				C8.38,9.962,8.278,10.419,8.278,10.419z"/>
			<path style="fill:none;stroke:#FFFFFF;stroke-width:0.75;stroke-linecap:round;stroke-linejoin:round;stroke-miterlimit:10;" d="
				M8.278,10.419c0,0,0.028-0.313-0.324-0.658C7.596,9.423,4.858,6.79,4.858,6.79C3.822,5.797,3.796,5.825,2.827,6.83L2.022,7.659
				C1.039,8.678,1.205,8.853,2.058,9.681l2.064,1.979c0.566,0.546,1.498,1.438,2.066,1.981l1.033,0.991
				c1.029,0.993,1.029,0.989,2.026-0.037l0.993-1.029c0.549-0.562,1.441-1.487,1.992-2.054l6.526-6.743
				c0.994-1.027,0.994-1.028-0.037-2.02l-0.71-0.68c-0.985-0.951-1.03-0.997-2.027,0.038l-6.527,6.74c0,0-0.672,0.692-0.872,0.903
				C8.38,9.962,8.278,10.419,8.278,10.419z"/>
			
				<linearGradient id="SVGID_1_" gradientUnits="userSpaceOnUse" x1="30.2637" y1="1125.7168" x2="16.0298" y2="1113.7731" gradientTransform="matrix(0.6947 -0.7193 0.7205 0.6934 -812.1847 -751.218)">
				<stop  offset="0" style="stop-color:#66A2D7"/>
				<stop  offset="1" style="stop-color:#517FA5"/>
			</linearGradient>
			
				<path style="opacity:0.6;fill:none;stroke:url(#SVGID_1_);stroke-width:0.0219;stroke-linecap:round;stroke-linejoin:round;stroke-miterlimit:10;" d="
				M8.278,10.419c0,0,0.028-0.313-0.324-0.658C7.596,9.423,4.858,6.79,4.858,6.79C3.822,5.797,3.796,5.825,2.827,6.83L2.022,7.659
				C1.039,8.678,1.205,8.853,2.058,9.681l2.064,1.979c0.566,0.546,1.498,1.438,2.066,1.981l1.033,0.991
				c1.029,0.993,1.029,0.989,2.026-0.037l0.993-1.029c0.549-0.562,1.441-1.487,1.992-2.054l6.526-6.743
				c0.994-1.027,0.994-1.028-0.037-2.02l-0.71-0.68c-0.985-0.951-1.03-0.997-2.027,0.038l-6.527,6.74c0,0-0.672,0.692-0.872,0.903
				C8.38,9.962,8.278,10.419,8.278,10.419z"/>
			
				<linearGradient id="SVGID_2_" gradientUnits="userSpaceOnUse" x1="23.5869" y1="1123.9639" x2="24.2027" y2="1120.4714" gradientTransform="matrix(0.6947 -0.7193 0.7205 0.6934 -812.1847 -751.218)">
				<stop  offset="0" style="stop-color:#336B9A"/>
				<stop  offset="1" style="stop-color:#448CCA"/>
			</linearGradient>
			<path style="fill:url(#SVGID_2_);" d="M8.278,10.419c0,0,0.028-0.313-0.324-0.658C7.596,9.423,4.858,6.79,4.858,6.79
				C3.822,5.797,3.796,5.825,2.827,6.83L2.022,7.659C1.039,8.678,1.205,8.853,2.058,9.681l2.064,1.979
				c0.566,0.546,1.498,1.438,2.066,1.981l1.033,0.991c1.029,0.993,1.029,0.989,2.026-0.037l0.993-1.029
				c0.549-0.562,1.441-1.487,1.992-2.054l6.526-6.743c0.994-1.027,0.994-1.028-0.037-2.02l-0.71-0.68
				c-0.985-0.951-1.03-0.997-2.027,0.038l-6.527,6.74c0,0-0.672,0.692-0.872,0.903C8.38,9.962,8.278,10.419,8.278,10.419z"/>
		</g>
	</g>
</g>
<g id="Layer_1">
</g>
</svg>
