<?xml version="1.0" encoding="iso-8859-1"?>
<!-- Generator: Adobe Illustrator 16.0.0, SVG Export Plug-In . SVG Version: 6.00 Build 0)  -->
<!DOCTYPE svg PUBLIC "-//W3C//DTD SVG 1.1//EN" "http://www.w3.org/Graphics/SVG/1.1/DTD/svg11.dtd">
<svg version="1.1" xmlns="http://www.w3.org/2000/svg" xmlns:xlink="http://www.w3.org/1999/xlink" x="0px" y="0px" width="20px"
	 height="20px" viewBox="0 0 20 20" style="enable-background:new 0 0 20 20;" xml:space="preserve">
<g id="checkbox-active">
	<g>
		<rect id="le_wrappier_102_" style="fill:none;" width="20" height="20"/>
		<g>
			<g id="checkbox-2px-corner_28_">
				<linearGradient id="SVGID_1_" gradientUnits="userSpaceOnUse" x1="8.4995" y1="0" x2="8.4995" y2="17.0005">
					<stop  offset="0" style="stop-color:#F2F6FB"/>
					<stop  offset="0.48" style="stop-color:#F2F6FB"/>
					<stop  offset="0.5" style="stop-color:#CDDFEC"/>
					<stop  offset="0.7287" style="stop-color:#C4D8E8"/>
					<stop  offset="1" style="stop-color:#C1D5E6"/>
				</linearGradient>
				<path style="fill:url(#SVGID_1_);" d="M0,14c0,1.65,1.35,3,3,3h11c1.65,0,3-1.35,3-3V3c0-1.65-1.35-3-3-3H3C1.35,0,0,1.35,0,3
					V14z"/>
				<g>
					<path style="fill:#FFFFFF;" d="M14,1.25c0.965,0,1.75,0.785,1.75,1.75v11c0,0.965-0.785,1.75-1.75,1.75H3
						c-0.965,0-1.75-0.785-1.75-1.75V3c0-0.965,0.785-1.75,1.75-1.75H14 M14,0H3C1.35,0,0,1.35,0,3v11c0,1.65,1.35,3,3,3h11
						c1.65,0,3-1.35,3-3V3C17,1.35,15.65,0,14,0L14,0z"/>
				</g>
				<g>
					<path style="fill:#6A8799;" d="M14,0.5c1.379,0,2.5,1.122,2.5,2.5v11c0,1.379-1.121,2.5-2.5,2.5H3c-1.378,0-2.5-1.121-2.5-2.5
						V3c0-1.378,1.122-2.5,2.5-2.5H14 M14,0H3C1.35,0,0,1.35,0,3v11c0,1.65,1.35,3,3,3h11c1.65,0,3-1.35,3-3V3C17,1.35,15.65,0,14,0
						L14,0z"/>
				</g>
			</g>
			<g id="checked-indicator_31_" style="opacity:0.3;">
				<path style="fill:none;stroke:#6A8799;stroke-width:2;stroke-linecap:round;stroke-linejoin:round;stroke-miterlimit:10;" d="
					M8.281,10.494c0,0,0.027-0.299-0.31-0.628C7.63,9.543,5.014,7.028,5.014,7.028C4.025,6.08,4,6.106,3.074,7.066L2.305,7.857
					C1.367,8.832,1.525,8.998,2.34,9.789l1.972,1.892c0.541,0.521,1.431,1.372,1.973,1.893l0.987,0.946
					c0.983,0.949,0.983,0.945,1.936-0.035l0.948-0.983c0.525-0.538,1.377-1.421,1.903-1.962l6.233-6.44
					c0.95-0.981,0.95-0.981-0.036-1.929l-0.678-0.65c-0.941-0.908-0.984-0.952-1.937,0.037L9.408,8.994c0,0-0.643,0.662-0.833,0.863
					C8.378,10.059,8.281,10.494,8.281,10.494z"/>
				
					<path style="fill:none;stroke:#FFFFFF;stroke-width:0.75;stroke-linecap:round;stroke-linejoin:round;stroke-miterlimit:10;" d="
					M8.281,10.494c0,0,0.027-0.299-0.31-0.628C7.63,9.543,5.014,7.028,5.014,7.028C4.025,6.08,4,6.106,3.074,7.066L2.305,7.857
					C1.367,8.832,1.525,8.998,2.34,9.789l1.972,1.892c0.541,0.521,1.431,1.372,1.973,1.893l0.987,0.946
					c0.983,0.949,0.983,0.945,1.936-0.035l0.948-0.983c0.525-0.538,1.377-1.421,1.903-1.962l6.233-6.44
					c0.95-0.981,0.95-0.981-0.036-1.929l-0.678-0.65c-0.941-0.908-0.984-0.952-1.937,0.037L9.408,8.994c0,0-0.643,0.662-0.833,0.863
					C8.378,10.059,8.281,10.494,8.281,10.494z"/>
				
					<linearGradient id="SVGID_2_" gradientUnits="userSpaceOnUse" x1="29.7588" y1="1125.4844" x2="16.1622" y2="1114.0756" gradientTransform="matrix(0.6947 -0.7193 0.7205 0.6934 -812.1848 -751.2178)">
					<stop  offset="0" style="stop-color:#66A2D7"/>
					<stop  offset="1" style="stop-color:#517FA5"/>
				</linearGradient>
				
					<path style="opacity:0.6;fill:none;stroke:url(#SVGID_2_);stroke-width:0.0219;stroke-linecap:round;stroke-linejoin:round;stroke-miterlimit:10;" d="
					M8.281,10.494c0,0,0.027-0.299-0.31-0.628C7.63,9.543,5.014,7.028,5.014,7.028C4.025,6.08,4,6.106,3.074,7.066L2.305,7.857
					C1.367,8.832,1.525,8.998,2.34,9.789l1.972,1.892c0.541,0.521,1.431,1.372,1.973,1.893l0.987,0.946
					c0.983,0.949,0.983,0.945,1.936-0.035l0.948-0.983c0.525-0.538,1.377-1.421,1.903-1.962l6.233-6.44
					c0.95-0.981,0.95-0.981-0.036-1.929l-0.678-0.65c-0.941-0.908-0.984-0.952-1.937,0.037L9.408,8.994c0,0-0.643,0.662-0.833,0.863
					C8.378,10.059,8.281,10.494,8.281,10.494z"/>
				
					<linearGradient id="SVGID_3_" gradientUnits="userSpaceOnUse" x1="23.3818" y1="1123.8105" x2="23.9701" y2="1120.4744" gradientTransform="matrix(0.6947 -0.7193 0.7205 0.6934 -812.1848 -751.2178)">
					<stop  offset="0" style="stop-color:#336B9A"/>
					<stop  offset="1" style="stop-color:#448CCA"/>
				</linearGradient>
				<path style="fill:url(#SVGID_3_);" d="M8.281,10.494c0,0,0.027-0.299-0.31-0.628C7.63,9.543,5.014,7.028,5.014,7.028
					C4.025,6.08,4,6.106,3.074,7.066L2.305,7.857C1.367,8.832,1.525,8.998,2.34,9.789l1.972,1.892
					c0.541,0.521,1.431,1.372,1.973,1.893l0.987,0.946c0.983,0.949,0.983,0.945,1.936-0.035l0.948-0.983
					c0.525-0.538,1.377-1.421,1.903-1.962l6.233-6.44c0.95-0.981,0.95-0.981-0.036-1.929l-0.678-0.65
					c-0.941-0.908-0.984-0.952-1.937,0.037L9.408,8.994c0,0-0.643,0.662-0.833,0.863C8.378,10.059,8.281,10.494,8.281,10.494z"/>
			</g>
		</g>
	</g>
</g>
<g id="Layer_1">
</g>
</svg>
