<?xml version="1.0" encoding="iso-8859-1"?>
<!-- Generator: Adobe Illustrator 16.0.0, SVG Export Plug-In . SVG Version: 6.00 Build 0)  -->
<!DOCTYPE svg PUBLIC "-//W3C//DTD SVG 1.1//EN" "http://www.w3.org/Graphics/SVG/1.1/DTD/svg11.dtd">
<svg version="1.1" xmlns="http://www.w3.org/2000/svg" xmlns:xlink="http://www.w3.org/1999/xlink" x="0px" y="0px" width="20.5px"
	 height="20px" viewBox="0 0 20.5 20" style="enable-background:new 0 0 20.5 20;" xml:space="preserve">
<g id="checkbox-checked">
	<g>
		<rect id="le_wrappier_12_" style="fill:none;" width="20" height="20"/>
		<g>
			<g id="checkbox-2px-corner_4_">
				<linearGradient id="SVGID_1_" gradientUnits="userSpaceOnUse" x1="8.3315" y1="0" x2="8.3315" y2="16.6626">
					<stop  offset="0" style="stop-color:#F5F5F5"/>
					<stop  offset="0.49" style="stop-color:#F5F5F5"/>
					<stop  offset="0.5" style="stop-color:#E4E4E4"/>
					<stop  offset="1" style="stop-color:#E4E4E4"/>
				</linearGradient>
				<path style="fill:url(#SVGID_1_);" d="M0,13.662c0,1.65,1.35,3,3,3h10.664c1.65,0,3-1.35,3-3V3c0-1.65-1.35-3-3-3H3
					C1.35,0,0,1.35,0,3V13.662z"/>
				<g>
					<path style="fill:#FFFFFF;" d="M13.664,1.25c0.965,0,1.75,0.785,1.75,1.75v10.662c0,0.965-0.785,1.75-1.75,1.75H3
						c-0.965,0-1.75-0.785-1.75-1.75V3c0-0.965,0.785-1.75,1.75-1.75H13.664 M13.664,0H3C1.35,0,0,1.35,0,3v10.662
						c0,1.65,1.35,3,3,3h10.664c1.65,0,3-1.35,3-3V3C16.664,1.35,15.314,0,13.664,0L13.664,0z"/>
				</g>
				<g>
					<path style="fill:#45494D;" d="M13.664,0.5c1.379,0,2.5,1.122,2.5,2.5v10.662c0,1.379-1.121,2.5-2.5,2.5H3
						c-1.378,0-2.5-1.121-2.5-2.5V3c0-1.378,1.122-2.5,2.5-2.5H13.664 M13.664,0H3C1.35,0,0,1.35,0,3v10.662c0,1.65,1.35,3,3,3
						h10.664c1.65,0,3-1.35,3-3V3C16.664,1.35,15.314,0,13.664,0L13.664,0z"/>
				</g>
			</g>
			<g id="checked-indicator_7_">
				<path style="fill:none;stroke:#45494D;stroke-width:2;stroke-linecap:round;stroke-linejoin:round;stroke-miterlimit:10;" d="
					M8.278,10.419c0,0,0.028-0.313-0.324-0.658C7.596,9.423,4.858,6.79,4.858,6.79C3.822,5.797,3.796,5.825,2.827,6.83L2.022,7.659
					C1.039,8.678,1.205,8.853,2.058,9.681l2.064,1.979c0.566,0.546,1.498,1.438,2.066,1.981l1.033,0.991
					c1.029,0.993,1.029,0.989,2.026-0.037l0.993-1.029c0.549-0.562,1.441-1.487,1.992-2.054l6.526-6.743
					c0.994-1.027,0.994-1.028-0.037-2.02l-0.71-0.68c-0.985-0.951-1.03-0.997-2.027,0.038l-6.527,6.74c0,0-0.672,0.692-0.872,0.903
					C8.38,9.962,8.278,10.419,8.278,10.419z"/>
				
					<path style="fill:none;stroke:#FFFFFF;stroke-width:0.75;stroke-linecap:round;stroke-linejoin:round;stroke-miterlimit:10;" d="
					M8.278,10.419c0,0,0.028-0.313-0.324-0.658C7.596,9.423,4.858,6.79,4.858,6.79C3.822,5.797,3.796,5.825,2.827,6.83L2.022,7.659
					C1.039,8.678,1.205,8.853,2.058,9.681l2.064,1.979c0.566,0.546,1.498,1.438,2.066,1.981l1.033,0.991
					c1.029,0.993,1.029,0.989,2.026-0.037l0.993-1.029c0.549-0.562,1.441-1.487,1.992-2.054l6.526-6.743
					c0.994-1.027,0.994-1.028-0.037-2.02l-0.71-0.68c-0.985-0.951-1.03-0.997-2.027,0.038l-6.527,6.74c0,0-0.672,0.692-0.872,0.903
					C8.38,9.962,8.278,10.419,8.278,10.419z"/>
				
					<linearGradient id="SVGID_2_" gradientUnits="userSpaceOnUse" x1="30.2637" y1="1125.7168" x2="16.0298" y2="1113.7731" gradientTransform="matrix(0.6947 -0.7193 0.7205 0.6934 -812.1847 -751.218)">
					<stop  offset="0" style="stop-color:#66A2D7"/>
					<stop  offset="1" style="stop-color:#517FA5"/>
				</linearGradient>
				
					<path style="opacity:0.6;fill:none;stroke:url(#SVGID_2_);stroke-width:0.0219;stroke-linecap:round;stroke-linejoin:round;stroke-miterlimit:10;" d="
					M8.278,10.419c0,0,0.028-0.313-0.324-0.658C7.596,9.423,4.858,6.79,4.858,6.79C3.822,5.797,3.796,5.825,2.827,6.83L2.022,7.659
					C1.039,8.678,1.205,8.853,2.058,9.681l2.064,1.979c0.566,0.546,1.498,1.438,2.066,1.981l1.033,0.991
					c1.029,0.993,1.029,0.989,2.026-0.037l0.993-1.029c0.549-0.562,1.441-1.487,1.992-2.054l6.526-6.743
					c0.994-1.027,0.994-1.028-0.037-2.02l-0.71-0.68c-0.985-0.951-1.03-0.997-2.027,0.038l-6.527,6.74c0,0-0.672,0.692-0.872,0.903
					C8.38,9.962,8.278,10.419,8.278,10.419z"/>
				
					<linearGradient id="SVGID_3_" gradientUnits="userSpaceOnUse" x1="23.5869" y1="1123.9639" x2="24.2027" y2="1120.4714" gradientTransform="matrix(0.6947 -0.7193 0.7205 0.6934 -812.1847 -751.218)">
					<stop  offset="0" style="stop-color:#336B9A"/>
					<stop  offset="1" style="stop-color:#448CCA"/>
				</linearGradient>
				<path style="fill:url(#SVGID_3_);" d="M8.278,10.419c0,0,0.028-0.313-0.324-0.658C7.596,9.423,4.858,6.79,4.858,6.79
					C3.822,5.797,3.796,5.825,2.827,6.83L2.022,7.659C1.039,8.678,1.205,8.853,2.058,9.681l2.064,1.979
					c0.566,0.546,1.498,1.438,2.066,1.981l1.033,0.991c1.029,0.993,1.029,0.989,2.026-0.037l0.993-1.029
					c0.549-0.562,1.441-1.487,1.992-2.054l6.526-6.743c0.994-1.027,0.994-1.028-0.037-2.02l-0.71-0.68
					c-0.985-0.951-1.03-0.997-2.027,0.038l-6.527,6.74c0,0-0.672,0.692-0.872,0.903C8.38,9.962,8.278,10.419,8.278,10.419z"/>
			</g>
		</g>
	</g>
</g>
<g id="Layer_1">
</g>
</svg>
