<?xml version="1.0" encoding="iso-8859-1"?>
<!-- Generator: Adobe Illustrator 16.0.0, SVG Export Plug-In . SVG Version: 6.00 Build 0)  -->
<!DOCTYPE svg PUBLIC "-//W3C//DTD SVG 1.1//EN" "http://www.w3.org/Graphics/SVG/1.1/DTD/svg11.dtd">
<svg version="1.1" xmlns="http://www.w3.org/2000/svg" xmlns:xlink="http://www.w3.org/1999/xlink" x="0px" y="0px" width="20px"
	 height="20px" viewBox="0 0 20 20" style="enable-background:new 0 0 20 20;" xml:space="preserve">
<g id="checked-indicator-white">
	<g>
		<rect id="le_wrappier_117_" style="fill:none;" width="20" height="20"/>
		<g id="checked-indicator_28_">
			<path style="fill:none;stroke:#FFFFFF;stroke-width:0.75;stroke-linecap:round;stroke-linejoin:round;stroke-miterlimit:10;" d="
				M8.221,10.333c0,0,0.028-0.311-0.321-0.651c-0.355-0.335-3.07-2.944-3.07-2.944c-1.027-0.983-1.053-0.957-2.015,0.04L2.017,7.599
				C1.042,8.608,1.206,8.781,2.052,9.602L4.1,11.562c0.561,0.541,1.485,1.424,2.049,1.963l1.024,0.981
				c1.021,0.983,1.021,0.979,2.009-0.036l0.985-1.02c0.545-0.558,1.429-1.474,1.975-2.035l6.473-6.679
				c0.985-1.017,0.985-1.018-0.036-2l-0.705-0.673c-0.977-0.942-1.021-0.988-2.011,0.038L9.39,8.777c0,0-0.667,0.686-0.864,0.895
				C8.322,9.881,8.221,10.333,8.221,10.333z"/>
			
				<linearGradient id="SVGID_1_" gradientUnits="userSpaceOnUse" x1="30.1992" y1="1125.5635" x2="16.0842" y2="1113.7196" gradientTransform="matrix(0.6947 -0.7193 0.7205 0.6934 -812.1848 -751.2178)">
				<stop  offset="0" style="stop-color:#66A2D7"/>
				<stop  offset="1" style="stop-color:#517FA5"/>
			</linearGradient>
			
				<path style="opacity:0.6;fill:none;stroke:url(#SVGID_1_);stroke-width:0.0219;stroke-linecap:round;stroke-linejoin:round;stroke-miterlimit:10;" d="
				M8.221,10.333c0,0,0.028-0.311-0.321-0.651c-0.355-0.335-3.07-2.944-3.07-2.944c-1.027-0.983-1.053-0.957-2.015,0.04L2.017,7.599
				C1.042,8.608,1.206,8.781,2.052,9.602L4.1,11.562c0.561,0.541,1.485,1.424,2.049,1.963l1.024,0.981
				c1.021,0.983,1.021,0.979,2.009-0.036l0.985-1.02c0.545-0.558,1.429-1.474,1.975-2.035l6.473-6.679
				c0.985-1.017,0.985-1.018-0.036-2l-0.705-0.673c-0.977-0.942-1.021-0.988-2.011,0.038L9.39,8.777c0,0-0.667,0.686-0.864,0.895
				C8.322,9.881,8.221,10.333,8.221,10.333z"/>
			<path style="fill:#FFFFFF;" d="M8.221,10.333c0,0,0.028-0.311-0.321-0.651c-0.355-0.335-3.07-2.944-3.07-2.944
				c-1.027-0.983-1.053-0.957-2.015,0.04L2.017,7.599C1.042,8.608,1.206,8.781,2.052,9.602L4.1,11.562
				c0.561,0.541,1.485,1.424,2.049,1.963l1.024,0.981c1.021,0.983,1.021,0.979,2.009-0.036l0.985-1.02
				c0.545-0.558,1.429-1.474,1.975-2.035l6.473-6.679c0.985-1.017,0.985-1.018-0.036-2l-0.705-0.673
				c-0.977-0.942-1.021-0.988-2.011,0.038L9.39,8.777c0,0-0.667,0.686-0.864,0.895C8.322,9.881,8.221,10.333,8.221,10.333z"/>
		</g>
	</g>
</g>
<g id="Layer_1">
</g>
</svg>
