<?xml version="1.0" encoding="iso-8859-1"?>
<!-- Generator: Adobe Illustrator 16.0.0, SVG Export Plug-In . SVG Version: 6.00 Build 0)  -->
<!DOCTYPE svg PUBLIC "-//W3C//DTD SVG 1.1//EN" "http://www.w3.org/Graphics/SVG/1.1/DTD/svg11.dtd">
<svg version="1.1" xmlns="http://www.w3.org/2000/svg" xmlns:xlink="http://www.w3.org/1999/xlink" x="0px" y="0px" width="20px"
	 height="20px" viewBox="0 0 20 20" style="enable-background:new 0 0 20 20;" xml:space="preserve">
<g id="checkbox-intermediate-hover">
	<g>
		<rect id="le_wrappier_4_" style="fill:none;" width="20" height="20"/>
		<g>
			<g id="checkbox-2px-corner_14_">
				<linearGradient id="SVGID_1_" gradientUnits="userSpaceOnUse" x1="8.3315" y1="0" x2="8.3315" y2="16.6626">
					<stop  offset="0" style="stop-color:#F2F6FB"/>
					<stop  offset="0.48" style="stop-color:#F2F6FB"/>
					<stop  offset="0.5" style="stop-color:#CDDFEC"/>
					<stop  offset="0.7287" style="stop-color:#C4D8E8"/>
					<stop  offset="1" style="stop-color:#C1D5E6"/>
				</linearGradient>
				<path style="fill:url(#SVGID_1_);" d="M0,13.662c0,1.65,1.35,3,3,3h10.664c1.65,0,3-1.35,3-3V3c0-1.65-1.35-3-3-3H3
					C1.35,0,0,1.35,0,3V13.662z"/>
				<g>
					<path style="fill:#FFFFFF;" d="M13.664,1.25c0.965,0,1.75,0.785,1.75,1.75v10.662c0,0.965-0.785,1.75-1.75,1.75H3
						c-0.965,0-1.75-0.785-1.75-1.75V3c0-0.965,0.785-1.75,1.75-1.75H13.664 M13.664,0H3C1.35,0,0,1.35,0,3v10.662
						c0,1.65,1.35,3,3,3h10.664c1.65,0,3-1.35,3-3V3C16.664,1.35,15.314,0,13.664,0L13.664,0z"/>
				</g>
				<g>
					<path style="fill:#6A8799;" d="M13.664,0.5c1.379,0,2.5,1.122,2.5,2.5v10.662c0,1.379-1.121,2.5-2.5,2.5H3
						c-1.378,0-2.5-1.121-2.5-2.5V3c0-1.378,1.122-2.5,2.5-2.5H13.664 M13.664,0H3C1.35,0,0,1.35,0,3v10.662c0,1.65,1.35,3,3,3
						h10.664c1.65,0,3-1.35,3-3V3C16.664,1.35,15.314,0,13.664,0L13.664,0z"/>
				</g>
			</g>
			<g id="intermediate-indicator_2_">
				
					<rect x="3.483" y="7.394" style="fill:none;stroke:#6A8799;stroke-width:2;stroke-linecap:round;stroke-linejoin:round;stroke-miterlimit:10;" width="9.685" height="1.763"/>
				
					<rect x="3.483" y="7.394" style="fill:none;stroke:#FFFFFF;stroke-width:0.75;stroke-linecap:round;stroke-linejoin:round;stroke-miterlimit:10;" width="9.685" height="1.763"/>
				<linearGradient id="SVGID_2_" gradientUnits="userSpaceOnUse" x1="11.6094" y1="11.0312" x2="5.0419" y2="5.5205">
					<stop  offset="0" style="stop-color:#66A2D7"/>
					<stop  offset="1" style="stop-color:#517FA5"/>
				</linearGradient>
				
					<rect x="3.483" y="7.394" style="opacity:0.6;fill:none;stroke:url(#SVGID_2_);stroke-width:0.0219;stroke-linecap:round;stroke-linejoin:round;stroke-miterlimit:10;" width="9.685" height="1.763"/>
				<linearGradient id="SVGID_3_" gradientUnits="userSpaceOnUse" x1="8.0347" y1="9.9287" x2="8.2389" y2="8.7706">
					<stop  offset="0" style="stop-color:#336B9A"/>
					<stop  offset="1" style="stop-color:#448CCA"/>
				</linearGradient>
				<rect x="3.483" y="7.394" style="fill:url(#SVGID_3_);" width="9.685" height="1.763"/>
			</g>
		</g>
	</g>
</g>
<g id="Layer_1">
</g>
</svg>
