<?xml version="1.0" encoding="iso-8859-1"?>
<!-- Generator: Adobe Illustrator 16.0.0, SVG Export Plug-In . SVG Version: 6.00 Build 0)  -->
<!DOCTYPE svg PUBLIC "-//W3C//DTD SVG 1.1//EN" "http://www.w3.org/Graphics/SVG/1.1/DTD/svg11.dtd">
<svg version="1.1" xmlns="http://www.w3.org/2000/svg" xmlns:xlink="http://www.w3.org/1999/xlink" x="0px" y="0px"
	 width="19.999px" height="20px" viewBox="0 0 19.999 20" style="enable-background:new 0 0 19.999 20;" xml:space="preserve">
<g id="chevron-down">
	<g>
		<rect id="le_wrappier_131_" x="0.001" style="fill:none;" width="19.998" height="20"/>
		<g id="chevron-down_1_">
			<path style="fill:#4E8ABE;" d="M10.532,8.402c-0.291,0.301-0.773,0.301-1.066,0L4.351,3.18c-0.295-0.303-0.777-0.303-1.076,0
				L0.22,6.299c-0.293,0.303-0.293,0.793,0,1.096l5.117,5.219c0.293,0.297,0.779,0.791,1.07,1.094l3.059,3.115
				c0.293,0.297,0.775,0.297,1.066,0l3.057-3.115c0.295-0.303,0.777-0.797,1.074-1.094l5.113-5.219c0.297-0.303,0.297-0.793,0-1.096
				L16.722,3.18c-0.295-0.303-0.777-0.303-1.072,0L10.532,8.402z"/>
		</g>
	</g>
</g>
<g id="Layer_1">
</g>
</svg>
