<?xml version="1.0" encoding="iso-8859-1"?>
<!-- Generator: Adobe Illustrator 16.0.0, SVG Export Plug-In . SVG Version: 6.00 Build 0)  -->
<!DOCTYPE svg PUBLIC "-//W3C//DTD SVG 1.1//EN" "http://www.w3.org/Graphics/SVG/1.1/DTD/svg11.dtd">
<svg version="1.1" xmlns="http://www.w3.org/2000/svg" xmlns:xlink="http://www.w3.org/1999/xlink" x="0px" y="0px" width="20px"
	 height="20px" viewBox="0 0 20 20" style="enable-background:new 0 0 20 20;" xml:space="preserve">
<g id="chevron-left">
	<g>
		<rect id="le_wrappier_57_" y="0" style="fill:none;" width="20" height="20"/>
		<g id="chevron_20_">
			<path style="opacity:0.8;fill:#989898;" d="M11.6,9.462c-0.299,0.295-0.299,0.779,0,1.072l5.223,5.118
				c0.299,0.293,0.299,0.777,0,1.07l-3.119,3.057c-0.301,0.295-0.793,0.295-1.094,0l-5.219-5.115
				c-0.301-0.295-0.793-0.777-1.092-1.07l-3.115-3.059c-0.303-0.293-0.303-0.777,0-1.072l3.115-3.055
				C6.598,6.113,7.09,5.628,7.391,5.335l5.219-5.115c0.301-0.293,0.793-0.293,1.094,0l3.119,3.057c0.299,0.293,0.299,0.777,0,1.07
				L11.6,9.462z"/>
		</g>
	</g>
</g>
<g id="Layer_1">
</g>
</svg>
