<?xml version="1.0" encoding="iso-8859-1"?>
<!-- Generator: Adobe Illustrator 19.1.0, SVG Export Plug-In . SVG Version: 6.00 Build 0)  -->
<svg version="1.1" xmlns="http://www.w3.org/2000/svg" xmlns:xlink="http://www.w3.org/1999/xlink" x="0px" y="0px"
	 viewBox="0 0 20 20" style="enable-background:new 0 0 20 20;" xml:space="preserve">
<g id="clock">
	<g>
		<rect id="le_wrappier_135_" style="fill:none;" width="20" height="20"/>
		<g>
			<path style="fill:#4E8ABE;" d="M10,0C4.5,0,0,4.5,0,10s4.5,10,10,10s10-4.5,10-10S15.5,0,10,0z M10,17.5
				c-4.125,0-7.5-3.375-7.5-7.5S5.875,2.5,10,2.5s7.5,3.375,7.5,7.5S14.125,17.5,10,17.5z M11.417,10.083
				c-0.125-0.125-0.167-0.292-0.167-0.458v-4C11.25,5.292,10.958,5,10.625,5h-1.25C9.042,5,8.75,5.292,8.75,5.625v5.042
				c0,0.167,0.083,0.333,0.167,0.458L12,14.208c0.25,0.25,0.625,0.25,0.875,0l0.875-0.875c0.25-0.25,0.25-0.625,0-0.875
				L11.417,10.083z"/>
		</g>
	</g>
</g>
<g id="Layer_1">
</g>
</svg>
