<?xml version="1.0" encoding="iso-8859-1"?>
<!-- Generator: Adobe Illustrator 16.0.0, SVG Export Plug-In . SVG Version: 6.00 Build 0)  -->
<!DOCTYPE svg PUBLIC "-//W3C//DTD SVG 1.1//EN" "http://www.w3.org/Graphics/SVG/1.1/DTD/svg11.dtd">
<svg version="1.1" xmlns="http://www.w3.org/2000/svg" xmlns:xlink="http://www.w3.org/1999/xlink" x="0px" y="0px" width="20px"
	 height="20px" viewBox="0 0 20 20" style="enable-background:new 0 0 20 20;" xml:space="preserve">
<g id="close-content-block">
	<g>
		<rect id="le_wrappier_41_" x="-1190" y="61.999" style="fill:none;" width="20" height="20"/>
		<path id="x-glyph_1_" style="fill:#4E8ABE;" d="M-1170.022,67.921l-4.028,4.027c-0.027,0.027-0.027,0.074,0,0.104l4.028,4.027
			c0.027,0.029,0.027,0.074,0,0.102l-5.797,5.799c-0.028,0.027-0.073,0.027-0.103,0l-4.027-4.031c-0.026-0.027-0.074-0.027-0.104,0
			l-4.027,4.031c-0.025,0.027-0.073,0.027-0.101,0l-5.797-5.799c-0.03-0.027-0.03-0.072,0-0.102l4.028-4.027
			c0.027-0.029,0.027-0.076,0-0.104l-4.028-4.027c-0.03-0.027-0.03-0.074,0-0.102l5.797-5.797c0.027-0.031,0.075-0.031,0.101,0
			l4.027,4.027c0.029,0.027,0.077,0.027,0.104,0l4.027-4.027c0.029-0.031,0.074-0.031,0.103,0l5.797,5.797
			C-1169.995,67.847-1169.995,67.894-1170.022,67.921z"/>
	</g>
</g>
<g id="Layer_1">
</g>
</svg>
