<?xml version="1.0" encoding="iso-8859-1"?>
<!-- Generator: Adobe Illustrator 16.0.0, SVG Export Plug-In . SVG Version: 6.00 Build 0)  -->
<!DOCTYPE svg PUBLIC "-//W3C//DTD SVG 1.1//EN" "http://www.w3.org/Graphics/SVG/1.1/DTD/svg11.dtd">
<svg version="1.1" id="Layer_1" xmlns="http://www.w3.org/2000/svg" xmlns:xlink="http://www.w3.org/1999/xlink" x="0px" y="0px"
	 width="20px" height="20px" viewBox="0 0 20 20" style="enable-background:new 0 0 20 20;" xml:space="preserve">
<g id="content-replace-hover">
	<g>
		<rect id="le_wrappier_157_" style="fill:none;" width="20" height="20"/>
		<g>
			<path style="fill:#4C89BE;" d="M7.907,3.445c-1.104,0-2,0.896-2,2h1.444L5.407,7.391L3.463,5.445h1.444c0-1.654,1.346-3,3-3"/>
			<path style="fill:#4C89BE;" d="M12.018,16.445c1.104,0,2-0.896,2-2h-1.441l1.941-1.943l1.945,1.943h-1.445c0,1.654-1.346,3-3,3"
				/>
			<polyline style="fill:#4C89BE;" points="17.463,5.445 17.463,11.445 9.463,11.445 9.463,2.445 14.463,2.445 			"/>
			<polygon style="fill:#A1C7E4;" points="14.463,5.445 17.463,5.445 14.463,2.445 			"/>
			<g>
				<polygon style="fill:#A1C7E4;" points="8.463,12.445 8.463,8.445 2.463,8.445 2.463,17.445 10.463,17.445 10.463,12.445 				"/>
			</g>
		</g>
	</g>
</g>
<g id="Layer_1_1_">
</g>
</svg>
