<?xml version="1.0" encoding="iso-8859-1"?>
<!-- Generator: Adobe Illustrator 16.0.0, SVG Export Plug-In . SVG Version: 6.00 Build 0)  -->
<!DOCTYPE svg PUBLIC "-//W3C//DTD SVG 1.1//EN" "http://www.w3.org/Graphics/SVG/1.1/DTD/svg11.dtd">
<svg version="1.1" xmlns="http://www.w3.org/2000/svg" xmlns:xlink="http://www.w3.org/1999/xlink" x="0px" y="0px" width="20px"
	 height="20px" viewBox="0 0 20 20" style="enable-background:new 0 0 20 20;" xml:space="preserve">
<g id="copy-hover">
	<g>
		<rect id="le_wrappier_9_" y="0" style="fill:none;" width="20" height="20"/>
		<g>
			<g>
				<g>
					<path style="fill:#A1C8E6;" d="M8.509,18.588L8.446,5.19l7.432-0.062l0.062,3.622l3.505-0.062l0.062,9.839
						c0,0.034-0.028,0.062-0.062,0.062H8.509z"/>
					<path style="fill:#808080;" d="M15.878,5.19v3.559h3.567v9.776H8.509V5.19H15.878 M15.878,5.065H8.509
						c-0.069,0-0.125,0.056-0.125,0.125v13.335c0,0.069,0.056,0.125,0.125,0.125h10.937c0.069,0,0.125-0.056,0.125-0.125V8.749
						c0-0.069-0.056-0.125-0.125-0.125h-3.442V5.19C16.003,5.121,15.947,5.065,15.878,5.065L15.878,5.065z"/>
				</g>
				<g>
					<path style="fill:#DAE8F2;" d="M15.878,8.812L15.815,5.19c0-0.025,0.016-0.048,0.038-0.058
						c0.008-0.003,0.017-0.005,0.024-0.005c0.017,0,0.032,0.006,0.044,0.018l3.567,3.559c0.019,0.018,0.023,0.045,0.014,0.068
						s-0.032,0.039-0.058,0.039H15.878z"/>
					<path style="fill:#808080;" d="M15.878,5.19l3.567,3.559h-3.567V5.19 M15.878,5.065c-0.017,0-0.032,0.003-0.048,0.01
						c-0.047,0.019-0.077,0.065-0.077,0.115v3.559c0,0.069,0.056,0.125,0.125,0.125h3.567c0.051,0,0.096-0.03,0.115-0.077
						s0.009-0.101-0.027-0.136l-3.567-3.559C15.942,5.078,15.91,5.065,15.878,5.065L15.878,5.065z"/>
				</g>
			</g>
			<g>
				<g>
					<linearGradient id="SVGID_1_" gradientUnits="userSpaceOnUse" x1="6.0229" y1="0.0625" x2="6.0229" y2="13.5239">
						<stop  offset="0" style="stop-color:#448CCA"/>
						<stop  offset="1" style="stop-color:#448CCA"/>
					</linearGradient>
					<path style="fill:url(#SVGID_1_);" d="M0.556,13.523L0.493,0.125l7.43-0.062l0.062,3.622l3.506-0.062l0.062,9.839
						c0,0.034-0.028,0.062-0.062,0.062H0.556z"/>
					<path style="fill:#6A8799;" d="M7.923,0.125v3.56h3.568v9.776H0.556V0.125H7.923 M7.923,0H0.556
						C0.487,0,0.431,0.056,0.431,0.125v13.336c0,0.069,0.056,0.125,0.125,0.125h10.936c0.069,0,0.125-0.056,0.125-0.125V3.685
						c0-0.069-0.056-0.125-0.125-0.125H8.048V0.125C8.048,0.056,7.992,0,7.923,0L7.923,0z"/>
				</g>
				<g>
					<path style="fill:#A1C8E6;" d="M7.923,3.747L7.86,0.125c0-0.025,0.015-0.048,0.039-0.058c0.008-0.003,0.016-0.005,0.024-0.005
						c0.016,0,0.032,0.006,0.044,0.018l3.568,3.56c0.019,0.018,0.023,0.045,0.014,0.068s-0.032,0.039-0.058,0.039H7.923z"/>
					<path style="fill:#6A8799;" d="M7.923,0.125l3.568,3.56H7.923V0.125 M7.923,0C7.907,0,7.891,0.003,7.875,0.01
						C7.828,0.029,7.798,0.074,7.798,0.125v3.56c0,0.069,0.056,0.125,0.125,0.125h3.568c0.051,0,0.096-0.03,0.115-0.077
						s0.009-0.101-0.027-0.136l-3.568-3.56C7.987,0.013,7.955,0,7.923,0L7.923,0z"/>
				</g>
			</g>
			<g>
				<path id="plus-sign_11_" style="opacity:0.7;fill:#45494D;stroke:#45494D;stroke-width:1.3;stroke-miterlimit:10;" d="
					M15.382,12.481h-4.325V8.129c0-0.126-0.101-0.229-0.229-0.229H9.009c-0.127,0-0.227,0.103-0.227,0.229v4.353H4.456
					c-0.124,0-0.227,0.102-0.227,0.228v1.836c0,0.124,0.103,0.229,0.227,0.229h4.326v4.352c0,0.124,0.1,0.225,0.227,0.225h1.819
					c0.128,0,0.229-0.101,0.229-0.225v-4.352h4.325c0.127,0,0.227-0.104,0.227-0.229v-1.836
					C15.608,12.583,15.509,12.481,15.382,12.481z"/>
				<g id="plus-sign_9_">
					<path style="fill:#45494D;" d="M10.828,6.846c0.128,0,0.229,0.104,0.229,0.229v4.354h4.325c0.127,0,0.227,0.102,0.227,0.229
						v1.833c0,0.125-0.1,0.229-0.227,0.229h-4.325v4.352c0,0.124-0.101,0.228-0.229,0.228H9.009c-0.127,0-0.227-0.104-0.227-0.228
						v-4.352H4.456c-0.124,0-0.227-0.104-0.227-0.229v-1.833c0-0.127,0.103-0.229,0.227-0.229h4.326V7.074
						c0-0.125,0.1-0.229,0.227-0.229H10.828 M10.828,6.186H9.009c-0.489,0-0.887,0.399-0.887,0.889v3.694H4.456
						c-0.489,0-0.887,0.398-0.887,0.889v1.833c0,0.49,0.398,0.889,0.887,0.889h3.666v3.691c0,0.489,0.398,0.888,0.887,0.888h1.819
						c0.49,0,0.889-0.398,0.889-0.888v-3.691h3.665c0.489,0,0.887-0.398,0.887-0.889v-1.833c0-0.49-0.397-0.889-0.887-0.889h-3.665
						V7.074C11.717,6.584,11.318,6.186,10.828,6.186L10.828,6.186z"/>
					<path style="fill:#FFFFFF;" d="M9.009,18.548c-0.263,0-0.477-0.214-0.477-0.478v-4.102H4.456c-0.263,0-0.477-0.215-0.477-0.479
						v-1.833c0-0.264,0.214-0.479,0.477-0.479h4.076V7.074c0-0.264,0.214-0.479,0.477-0.479h1.819c0.264,0,0.479,0.215,0.479,0.479
						v4.104h4.075c0.263,0,0.477,0.215,0.477,0.479v1.833c0,0.264-0.214,0.479-0.477,0.479h-4.075v4.102
						c0,0.264-0.215,0.478-0.479,0.478H9.009z"/>
					<path style="fill:#FFFFFF;" d="M10.828,6.846c0.128,0,0.229,0.104,0.229,0.229v4.354h4.325c0.127,0,0.227,0.102,0.227,0.229
						v1.833c0,0.125-0.1,0.229-0.227,0.229h-4.325v4.352c0,0.124-0.101,0.228-0.229,0.228H9.009c-0.127,0-0.227-0.104-0.227-0.228
						v-4.352H4.456c-0.124,0-0.227-0.104-0.227-0.229v-1.833c0-0.127,0.103-0.229,0.227-0.229h4.326V7.074
						c0-0.125,0.1-0.229,0.227-0.229H10.828 M10.828,6.346H9.009c-0.4,0-0.727,0.327-0.727,0.729v3.854H4.456
						c-0.4,0-0.727,0.327-0.727,0.729v1.833c0,0.401,0.326,0.729,0.727,0.729h3.826v3.852c0,0.401,0.326,0.728,0.727,0.728h1.819
						c0.401,0,0.729-0.326,0.729-0.728v-3.852h3.825c0.4,0,0.727-0.327,0.727-0.729v-1.833c0-0.401-0.326-0.729-0.727-0.729h-3.825
						V7.074C11.557,6.672,11.229,6.346,10.828,6.346L10.828,6.346z"/>
				</g>
			</g>
		</g>
	</g>
</g>
<g id="Layer_1">
</g>
</svg>
