<?xml version="1.0" encoding="iso-8859-1"?>
<!-- Generator: Adobe Illustrator 16.0.0, SVG Export Plug-In . SVG Version: 6.00 Build 0)  -->
<!DOCTYPE svg PUBLIC "-//W3C//DTD SVG 1.1//EN" "http://www.w3.org/Graphics/SVG/1.1/DTD/svg11.dtd">
<svg version="1.1" xmlns="http://www.w3.org/2000/svg" xmlns:xlink="http://www.w3.org/1999/xlink" x="0px" y="0px" width="20px"
	 height="20px" viewBox="0 0 20 20" style="enable-background:new 0 0 20 20;" xml:space="preserve">
<g id="copy-hover">
	<g>
		<rect id="le_wrappier_128_" style="fill:none;" width="20" height="20"/>
		<g>
			<g>
				<g>
					<path style="fill:#A0C7E7;" d="M9.055,18.211V5.375h6.867v3.31c0,0.138,0.112,0.25,0.25,0.25h3.318v9.276H9.055z"/>
					<path style="fill:#6A8799;" d="M15.672,5.625v3.06c0,0.276,0.224,0.5,0.5,0.5h3.068v8.776H9.305V5.625H15.672 M16.172,5.125
						H8.805v13.336H19.74V8.685h-3.568V5.125L16.172,5.125z"/>
				</g>
				<g>
					<polygon style="fill:#DAE8F2;" points="16.172,5.125 19.74,8.685 16.172,8.685 					"/>
				</g>
				
					<line style="fill:none;stroke:#6A8799;stroke-width:0.5;stroke-linecap:round;stroke-linejoin:round;stroke-miterlimit:10;" x1="16.172" y1="5.375" x2="19.5" y2="8.685"/>
			</g>
			<g>
				<g>
					<path style="fill:#448CCA;" d="M0.805,13.211V0.375h6.867v3.31c0,0.138,0.112,0.25,0.25,0.25h3.318v9.276H0.805z"/>
					<path style="fill:#6A8799;" d="M7.422,0.625v3.06c0,0.276,0.224,0.5,0.5,0.5h3.068v8.776H1.055V0.625H7.422 M7.922,0.125H0.555
						v13.336H11.49V3.685H7.922V0.125L7.922,0.125z"/>
				</g>
				<g>
					<polygon style="fill:#A1C8E6;" points="7.922,0.125 11.49,3.685 7.922,3.685 					"/>
				</g>
				
					<line style="fill:none;stroke:#6A8799;stroke-width:0.5;stroke-linecap:round;stroke-linejoin:round;stroke-miterlimit:10;" x1="7.922" y1="0.375" x2="11.25" y2="3.685"/>
			</g>
			<g>
				<path id="plus-sign_17_" style="fill:#6A8799;stroke:#6A8799;stroke-width:2;stroke-miterlimit:10;" d="M15.381,11.981h-4.324
					V7.629c0-0.126-0.102-0.229-0.229-0.229h-1.82c-0.127,0-0.227,0.103-0.227,0.229v4.353H4.455c-0.123,0-0.227,0.102-0.227,0.228
					v1.836c0,0.124,0.104,0.229,0.227,0.229h4.326v4.352c0,0.124,0.1,0.225,0.227,0.225h1.82c0.127,0,0.229-0.101,0.229-0.225
					v-4.352h4.324c0.127,0,0.227-0.104,0.227-0.229v-1.836C15.607,12.083,15.508,11.981,15.381,11.981z"/>
				<g id="plus-sign_15_">
					<path style="fill:#6A8799;" d="M10.828,6.846c0.127,0,0.229,0.104,0.229,0.229v4.354h4.324c0.127,0,0.227,0.102,0.227,0.229
						v1.833c0,0.125-0.1,0.229-0.227,0.229h-4.324v4.352c0,0.124-0.102,0.228-0.229,0.228h-1.82c-0.127,0-0.227-0.104-0.227-0.228
						v-4.352H4.455c-0.123,0-0.227-0.104-0.227-0.229v-1.833c0-0.127,0.104-0.229,0.227-0.229h4.326V7.074
						c0-0.125,0.1-0.229,0.227-0.229H10.828 M10.828,5.846h-1.82c-0.676,0-1.227,0.551-1.227,1.229v3.354H4.455
						c-0.676,0-1.227,0.551-1.227,1.229v1.833c0,0.678,0.55,1.229,1.227,1.229h3.326v3.352c0,0.677,0.55,1.228,1.227,1.228h1.82
						c0.678,0,1.229-0.551,1.229-1.228v-3.352h3.324c0.677,0,1.227-0.551,1.227-1.229v-1.833c0-0.677-0.55-1.229-1.227-1.229h-3.324
						V7.074C12.057,6.397,11.506,5.846,10.828,5.846L10.828,5.846z"/>
					<path style="fill:#FFFFFF;" d="M9.008,18.548c-0.263,0-0.477-0.214-0.477-0.478v-4.102H4.455c-0.263,0-0.477-0.215-0.477-0.479
						v-1.833c0-0.264,0.214-0.479,0.477-0.479h4.076V7.074c0-0.264,0.214-0.479,0.477-0.479h1.82c0.264,0,0.479,0.215,0.479,0.479
						v4.104h4.074c0.263,0,0.477,0.215,0.477,0.479v1.833c0,0.264-0.214,0.479-0.477,0.479h-4.074v4.102
						c0,0.264-0.215,0.478-0.479,0.478H9.008z"/>
					<path style="fill:#FFFFFF;" d="M10.828,6.846c0.127,0,0.229,0.104,0.229,0.229v4.354h4.324c0.127,0,0.227,0.102,0.227,0.229
						v1.833c0,0.125-0.1,0.229-0.227,0.229h-4.324v4.352c0,0.124-0.102,0.228-0.229,0.228h-1.82c-0.127,0-0.227-0.104-0.227-0.228
						v-4.352H4.455c-0.123,0-0.227-0.104-0.227-0.229v-1.833c0-0.127,0.104-0.229,0.227-0.229h4.326V7.074
						c0-0.125,0.1-0.229,0.227-0.229H10.828 M10.828,6.346h-1.82c-0.4,0-0.727,0.327-0.727,0.729v3.854H4.455
						c-0.4,0-0.727,0.327-0.727,0.729v1.833c0,0.401,0.326,0.729,0.727,0.729h3.826v3.852c0,0.401,0.326,0.728,0.727,0.728h1.82
						c0.401,0,0.729-0.326,0.729-0.728v-3.852h3.824c0.4,0,0.727-0.327,0.727-0.729v-1.833c0-0.401-0.326-0.729-0.727-0.729h-3.824
						V7.074C11.557,6.672,11.229,6.346,10.828,6.346L10.828,6.346z"/>
				</g>
			</g>
		</g>
	</g>
</g>
<g id="Layer_1">
</g>
</svg>
