<?xml version="1.0" encoding="iso-8859-1"?>
<!-- Generator: Adobe Illustrator 16.0.0, SVG Export Plug-In . SVG Version: 6.00 Build 0)  -->
<!DOCTYPE svg PUBLIC "-//W3C//DTD SVG 1.1//EN" "http://www.w3.org/Graphics/SVG/1.1/DTD/svg11.dtd">
<svg version="1.1" xmlns="http://www.w3.org/2000/svg" xmlns:xlink="http://www.w3.org/1999/xlink" x="0px" y="0px" width="20px"
	 height="20px" viewBox="0 0 20 20" style="enable-background:new 0 0 20 20;" xml:space="preserve">
<g id="danger">
	<g>
		<rect id="le_wrappier_30_" y="0" style="fill:none;" width="20" height="20"/>
		<g>
			<g>
				<linearGradient id="SVGID_1_" gradientUnits="userSpaceOnUse" x1="9.9995" y1="4.882812e-04" x2="9.9995" y2="20.0005">
					<stop  offset="0" style="stop-color:#F5888D"/>
					<stop  offset="0.7" style="stop-color:#EE4249"/>
				</linearGradient>
				<path style="fill:url(#SVGID_1_);" d="M20,17c0,1.65-1.35,3-3,3H3c-1.65,0-3-1.35-3-3V3c0-1.65,1.35-3,3-3h14c1.65,0,3,1.35,3,3
					V17z"/>
				<g>
					<path style="fill:#FFFFFF;" d="M17,1.25c0.965,0,1.75,0.785,1.75,1.75v14c0,0.965-0.785,1.75-1.75,1.75H3
						c-0.965,0-1.75-0.785-1.75-1.75V3c0-0.965,0.785-1.75,1.75-1.75H17 M17,0H3c-1.65,0-3,1.35-3,3v14c0,1.65,1.35,3,3,3h14
						c1.65,0,3-1.35,3-3V3C20,1.351,18.65,0,17,0L17,0z"/>
				</g>
				<g>
					<path style="fill:#45494D;" d="M17,0.5c1.379,0,2.5,1.122,2.5,2.5v14c0,1.379-1.121,2.5-2.5,2.5H3c-1.378,0-2.5-1.121-2.5-2.5
						V3c0-1.378,1.122-2.5,2.5-2.5H17 M17,0H3c-1.65,0-3,1.35-3,3v14c0,1.65,1.35,3,3,3h14c1.65,0,3-1.35,3-3V3
						C20,1.351,18.65,0,17,0L17,0z"/>
				</g>
			</g>
			<g>
				<path style="fill:#FFFFFF;" d="M8.277,7.354C8.183,6.936,8.088,6.512,7.991,6.088C7.894,5.662,7.849,5.23,7.849,4.794
					c0-0.82,0.192-1.407,0.584-1.761C8.822,2.676,9.343,2.5,10,2.5c0.669,0,1.197,0.184,1.577,0.554
					C11.961,3.422,12.15,3.96,12.15,4.67c0,0.207-0.023,0.46-0.07,0.759c-0.048,0.303-0.104,0.605-0.176,0.924
					c-0.066,0.314-0.134,0.615-0.205,0.902c-0.066,0.285-0.122,0.531-0.161,0.736l-1.046,4.322H9.427L8.277,7.354z M11.967,16.26
					c-0.11,0.254-0.266,0.477-0.46,0.668c-0.2,0.189-0.428,0.334-0.688,0.428C10.561,17.453,10.287,17.5,10,17.5
					c-0.289,0-0.56-0.047-0.818-0.145c-0.262-0.094-0.489-0.238-0.688-0.428c-0.197-0.191-0.353-0.414-0.461-0.668
					c-0.11-0.252-0.166-0.529-0.166-0.828c0-0.289,0.056-0.561,0.166-0.82c0.108-0.26,0.264-0.484,0.461-0.676
					c0.198-0.191,0.426-0.346,0.688-0.463C9.44,13.357,9.711,13.299,10,13.299c0.287,0,0.561,0.059,0.819,0.174
					c0.26,0.117,0.487,0.271,0.688,0.463c0.194,0.191,0.35,0.416,0.46,0.676s0.166,0.531,0.166,0.82
					C12.133,15.73,12.077,16.008,11.967,16.26z"/>
			</g>
		</g>
	</g>
</g>
<g id="Layer_1">
</g>
</svg>
