<?xml version="1.0" encoding="iso-8859-1"?>
<!-- Generator: Adobe Illustrator 16.0.0, SVG Export Plug-In . SVG Version: 6.00 Build 0)  -->
<!DOCTYPE svg PUBLIC "-//W3C//DTD SVG 1.1//EN" "http://www.w3.org/Graphics/SVG/1.1/DTD/svg11.dtd">
<svg version="1.1" xmlns="http://www.w3.org/2000/svg" xmlns:xlink="http://www.w3.org/1999/xlink" x="0px" y="0px" width="20px"
	 height="20px" viewBox="0 0 20 20" style="enable-background:new 0 0 20 20;" xml:space="preserve">
<g id="danger">
	<g>
		<rect id="le_wrappier_20_" style="fill:none;" width="20" height="20"/>
		<g>
			<g>
				<linearGradient id="SVGID_1_" gradientUnits="userSpaceOnUse" x1="9.9995" y1="0" x2="9.9995" y2="20.0005">
					<stop  offset="0" style="stop-color:#F5888D"/>
					<stop  offset="0.7" style="stop-color:#EE4249"/>
				</linearGradient>
				<path style="fill:url(#SVGID_1_);" d="M20,17c0,1.65-1.35,3-3,3H3c-1.65,0-3-1.35-3-3V3c0-1.65,1.35-3,3-3h14c1.65,0,3,1.35,3,3
					V17z"/>
			</g>
			<g>
				<path style="fill:#FFFFFF;" d="M8.277,7.354C8.184,6.936,8.088,6.512,7.992,6.088C7.895,5.662,7.85,5.23,7.85,4.794
					c0-0.82,0.191-1.407,0.584-1.761C8.822,2.676,9.344,2.5,10,2.5c0.67,0,1.197,0.184,1.578,0.554
					C11.961,3.422,12.15,3.96,12.15,4.67c0,0.207-0.023,0.461-0.07,0.76c-0.047,0.303-0.104,0.605-0.176,0.924
					c-0.066,0.314-0.133,0.615-0.205,0.902c-0.066,0.285-0.121,0.531-0.16,0.736l-1.047,4.322H9.428L8.277,7.354z M11.967,16.26
					c-0.109,0.254-0.266,0.477-0.459,0.668c-0.201,0.189-0.428,0.334-0.688,0.428C10.561,17.453,10.287,17.5,10,17.5
					c-0.289,0-0.559-0.047-0.818-0.145c-0.262-0.094-0.488-0.238-0.688-0.428c-0.197-0.191-0.352-0.414-0.461-0.668
					c-0.109-0.252-0.166-0.529-0.166-0.828c0-0.289,0.057-0.561,0.166-0.82s0.264-0.484,0.461-0.676
					c0.199-0.191,0.426-0.346,0.688-0.463c0.26-0.115,0.529-0.174,0.818-0.174c0.287,0,0.561,0.059,0.82,0.174
					c0.26,0.117,0.486,0.271,0.688,0.463c0.193,0.191,0.35,0.416,0.459,0.676c0.111,0.26,0.166,0.531,0.166,0.82
					C12.133,15.73,12.078,16.008,11.967,16.26z"/>
			</g>
		</g>
	</g>
</g>
<g id="Layer_1">
</g>
</svg>
