<?xml version="1.0" encoding="iso-8859-1"?>
<!-- Generator: Adobe Illustrator 16.0.0, SVG Export Plug-In . SVG Version: 6.00 Build 0)  -->
<!DOCTYPE svg PUBLIC "-//W3C//DTD SVG 1.1//EN" "http://www.w3.org/Graphics/SVG/1.1/DTD/svg11.dtd">
<svg version="1.1" xmlns="http://www.w3.org/2000/svg" xmlns:xlink="http://www.w3.org/1999/xlink" x="0px" y="0px" width="20px"
	 height="20px" viewBox="0 0 20 20" style="enable-background:new 0 0 20 20;" xml:space="preserve">
<g id="default-size-hover">
	<g>
		<g id="button-2px-corner_12_">
			<linearGradient id="SVGID_1_" gradientUnits="userSpaceOnUse" x1="9.9995" y1="0" x2="9.9995" y2="20.0005">
				<stop  offset="0" style="stop-color:#A0C7E7"/>
				<stop  offset="0.9" style="stop-color:#448CCA"/>
			</linearGradient>
			<path style="fill:url(#SVGID_1_);" d="M0,17c0,1.65,1.35,3,3,3h14c1.65,0,3-1.35,3-3V3c0-1.65-1.35-3-3-3H3C1.35,0,0,1.35,0,3V17
				z"/>
			<g style="opacity:0.7;">
				<linearGradient id="SVGID_2_" gradientUnits="userSpaceOnUse" x1="10.0005" y1="20" x2="10.0005" y2="4.882812e-04">
					<stop  offset="0" style="stop-color:#A0C7E7"/>
					<stop  offset="0.9" style="stop-color:#448CCA"/>
				</linearGradient>
				<path style="fill:url(#SVGID_2_);" d="M17,2c0.542,0,1,0.458,1,1v14c0,0.542-0.458,1-1,1H3c-0.542,0-1-0.458-1-1V3
					c0-0.542,0.458-1,1-1H17 M17,0H3C1.35,0,0,1.35,0,3v14c0,1.65,1.35,3,3,3h14c1.65,0,3-1.35,3-3V3C20,1.35,18.65,0,17,0L17,0z"/>
			</g>
			<g style="opacity:0.7;">
				<path style="fill:#45494D;" d="M17,1c1.103,0,2,0.897,2,2v14c0,1.103-0.897,2-2,2H3c-1.103,0-2-0.897-2-2V3c0-1.103,0.897-2,2-2
					H17 M17,0H3C1.35,0,0,1.35,0,3v14c0,1.65,1.35,3,3,3h14c1.65,0,3-1.35,3-3V3C20,1.35,18.65,0,17,0L17,0z"/>
			</g>
		</g>
		<path style="fill:#FFFFFF;enable-background:new    ;" d="M7.287,10.375c-0.275,0-0.727,0-1,0h-2.93c-0.275,0-0.5,0.225-0.5,0.5
			v0.828c0,0.275,0.225,0.5,0.5,0.5h3.938c0.273,0,0.5,0.226,0.5,0.5v3.957c0,0.275,0.225,0.5,0.5,0.5h0.812
			c0.275,0,0.5-0.225,0.5-0.5v-2.949c0-0.274,0-0.725,0-1v-1.836c0-0.275-0.225-0.5-0.5-0.5H7.287z"/>
		<path style="fill:#FFFFFF;enable-background:new    ;" d="M12.723,9.616c0.275,0,0.725,0,1,0h2.93c0.273,0,0.5-0.225,0.5-0.5
			V8.288c0-0.275-0.227-0.5-0.5-0.5h-3.938c-0.275,0-0.5-0.226-0.5-0.5V3.331c0-0.275-0.225-0.5-0.5-0.5h-0.812
			c-0.275,0-0.5,0.225-0.5,0.5V6.28c0,0.274,0,0.725,0,1v1.836c0,0.275,0.225,0.5,0.5,0.5H12.723z"/>
		
			<linearGradient id="SVGID_3_" gradientUnits="userSpaceOnUse" x1="24.0869" y1="-4.0894" x2="35.2245" y2="-15.227" gradientTransform="matrix(0.7372 0.2628 0.2628 0.7372 -4.8066 4.8071)">
			<stop  offset="0" style="stop-color:#FFFFFF"/>
			<stop  offset="0.9104" style="stop-color:#FFFFFF;stop-opacity:0.0896"/>
			<stop  offset="1" style="stop-color:#FFFFFF;stop-opacity:0"/>
		</linearGradient>
		<polygon style="fill:url(#SVGID_3_);" points="17.867,3.547 12.584,8.831 11.17,7.417 16.453,2.133 		"/>
		
			<linearGradient id="SVGID_4_" gradientUnits="userSpaceOnUse" x1="16.9385" y1="3.0596" x2="28.074" y2="-8.076" gradientTransform="matrix(0.7643 0.2357 0.2357 0.7643 -11.0295 11.03)">
			<stop  offset="0" style="stop-color:#FFFFFF;stop-opacity:0"/>
			<stop  offset="0.0896" style="stop-color:#FFFFFF;stop-opacity:0.0896"/>
			<stop  offset="1" style="stop-color:#FFFFFF"/>
		</linearGradient>
		<polygon style="fill:url(#SVGID_4_);" points="9.232,12.183 3.346,18.068 1.932,16.654 7.818,10.769 		"/>
	</g>
</g>
<g id="Layer_1">
</g>
</svg>
