<?xml version="1.0" encoding="iso-8859-1"?>
<!-- Generator: Adobe Illustrator 16.0.0, SVG Export Plug-In . SVG Version: 6.00 Build 0)  -->
<!DOCTYPE svg PUBLIC "-//W3C//DTD SVG 1.1//EN" "http://www.w3.org/Graphics/SVG/1.1/DTD/svg11.dtd">
<svg version="1.1" xmlns="http://www.w3.org/2000/svg" xmlns:xlink="http://www.w3.org/1999/xlink" x="0px" y="0px" width="20px"
	 height="20px" viewBox="0 0 20 20" style="enable-background:new 0 0 20 20;" xml:space="preserve">
<g id="delete">
	<g>
		<rect id="le_wrappier_81_" x="-1190" y="62" style="fill:none;" width="20" height="20"/>
		<path id="delete_1_" style="fill:#4E8ABE;" d="M-1179.998,62.062c-5.489,0-9.939,4.449-9.939,9.938s4.45,9.938,9.939,9.938
			c5.488,0,9.937-4.449,9.937-9.938S-1174.51,62.062-1179.998,62.062z M-1173.988,69.543l-2.428,2.426
			c-0.016,0.018-0.016,0.047,0,0.062l2.428,2.426c0.016,0.018,0.016,0.045,0,0.062l-3.494,3.492c-0.015,0.016-0.042,0.016-0.06,0
			l-2.426-2.428c-0.018-0.018-0.045-0.018-0.062,0l-2.425,2.428c-0.018,0.016-0.045,0.016-0.062,0l-3.491-3.492
			c-0.018-0.018-0.018-0.045,0-0.062l2.426-2.426c0.016-0.016,0.016-0.045,0-0.062l-2.426-2.426c-0.018-0.016-0.018-0.043,0-0.061
			l3.491-3.49c0.017-0.02,0.044-0.02,0.062,0l2.425,2.426c0.018,0.016,0.045,0.016,0.062,0l2.426-2.426
			c0.018-0.02,0.045-0.02,0.06,0l3.494,3.49C-1173.973,69.5-1173.973,69.527-1173.988,69.543z"/>
	</g>
</g>
<g id="Layer_1">
</g>
</svg>
