<?xml version="1.0" encoding="utf-8"?>
<!-- Generator: Adobe Illustrator 16.0.0, SVG Export Plug-In . SVG Version: 6.00 Build 0)  -->
<!DOCTYPE svg PUBLIC "-//W3C//DTD SVG 1.1//EN" "http://www.w3.org/Graphics/SVG/1.1/DTD/svg11.dtd">
<svg version="1.1" id="Layer_1" xmlns="http://www.w3.org/2000/svg" xmlns:xlink="http://www.w3.org/1999/xlink" x="0px" y="0px"
	 width="20px" height="20px" viewBox="0 0 20 20" enable-background="new 0 0 20 20" xml:space="preserve">
<g id="delete">
	<g>
		<rect id="le_wrappier_81_" fill="none" width="20" height="20"/>
		<path id="delete_1_" fill="#4E8ABE" d="M10.002,0.062c-5.489,0-9.939,4.448-9.939,9.938s4.45,9.938,9.939,9.938
			c5.488,0,9.938-4.448,9.938-9.938S15.49,0.062,10.002,0.062z M16.012,7.543l-2.428,2.426c-0.016,0.018-0.016,0.047,0,0.062
			l2.428,2.426c0.016,0.018,0.016,0.045,0,0.062l-3.494,3.491c-0.015,0.017-0.041,0.017-0.06,0l-2.426-2.428
			c-0.018-0.019-0.045-0.019-0.062,0l-2.425,2.428c-0.018,0.017-0.045,0.017-0.062,0L3.992,12.52c-0.018-0.019-0.018-0.045,0-0.062
			l2.426-2.426c0.016-0.016,0.016-0.045,0-0.062L3.992,7.543c-0.018-0.016-0.018-0.043,0-0.061l3.491-3.49
			c0.017-0.02,0.044-0.02,0.062,0L9.97,6.418c0.018,0.016,0.045,0.016,0.062,0l2.426-2.426c0.018-0.02,0.045-0.02,0.06,0l3.494,3.49
			C16.027,7.5,16.027,7.527,16.012,7.543z"/>
	</g>
</g>
<g id="Layer_1_1_">
</g>
</svg>
