<?xml version="1.0" encoding="iso-8859-1"?>
<!-- Generator: Adobe Illustrator 19.1.0, SVG Export Plug-In . SVG Version: 6.00 Build 0)  -->
<svg version="1.1" xmlns="http://www.w3.org/2000/svg" xmlns:xlink="http://www.w3.org/1999/xlink" x="0px" y="0px"
	 viewBox="0 0 20 20" style="enable-background:new 0 0 20 20;" xml:space="preserve">
<g id="desktop-grey">
	<g>
		<rect id="le_wrappier_130_" style="fill:none;" width="20" height="20"/>
		<g id="XMLID_1_">
			<path style="fill:#666666;" d="M19.531,1.291H0.469C0.312,1.291,0,1.447,0,1.76v14.062c0,0.156,0.156,0.469,0.469,0.469h7.812
				v1.094l-1.719,1.094c-0.156,0.156-0.156,0.156,0,0.156h6.875c0.156,0,0.312-0.156,0-0.156l-1.719-1.094v-1.094h7.812
				c0.156,0,0.469-0.156,0.469-0.469V1.76C20,1.447,19.688,1.291,19.531,1.291z M18.281,12.072c0,0.156-0.156,0.469-0.469,0.469
				H2.188c-0.156,0-0.469-0.156-0.469-0.469v-8.75c0-0.156,0.156-0.469,0.469-0.469h15.625c0.156,0,0.469,0.156,0.469,0.469V12.072z
				"/>
		</g>
	</g>
</g>
<g id="Layer_1">
</g>
</svg>
