<?xml version="1.0" encoding="iso-8859-1"?>
<!-- Generator: Adobe Illustrator 16.0.0, SVG Export Plug-In . SVG Version: 6.00 Build 0)  -->
<!DOCTYPE svg PUBLIC "-//W3C//DTD SVG 1.1//EN" "http://www.w3.org/Graphics/SVG/1.1/DTD/svg11.dtd">
<svg version="1.1" xmlns="http://www.w3.org/2000/svg" xmlns:xlink="http://www.w3.org/1999/xlink" x="0px" y="0px" width="20px"
	 height="20px" viewBox="0 0 20 20" style="enable-background:new 0 0 20 20;" xml:space="preserve">
<g id="email-hover">
	<g>
		<rect id="le_wrappier_140_" style="fill:none;" width="20" height="20"/>
		<g>
			<g id="envelope-body_3_">
				<linearGradient id="SVGID_1_" gradientUnits="userSpaceOnUse" x1="9.9995" y1="2.8574" x2="9.9995" y2="17.145">
					<stop  offset="0" style="stop-color:#A0C7E7"/>
					<stop  offset="0.1628" style="stop-color:#9CC4E6"/>
					<stop  offset="0.3315" style="stop-color:#8FBCE2"/>
					<stop  offset="0.5029" style="stop-color:#7BAFDB"/>
					<stop  offset="0.6751" style="stop-color:#5E9DD2"/>
					<stop  offset="0.8" style="stop-color:#448CCA"/>
				</linearGradient>
				<path style="fill:url(#SVGID_1_);" d="M0,14.145c0,1.65,1.35,3,3,3h14c1.65,0,3-1.35,3-3V5.857c0-1.65-1.35-3-3-3H3
					c-1.65,0-3,1.35-3,3V14.145z"/>
				<g>
					<path style="fill:#FFFFFF;" d="M17,3.357c1.379,0,2.5,1.122,2.5,2.5v8.287c0,1.379-1.121,2.5-2.5,2.5H3
						c-1.378,0-2.5-1.121-2.5-2.5V5.857c0-1.378,1.122-2.5,2.5-2.5H17 M17,2.857H3c-1.65,0-3,1.35-3,3v8.287c0,1.65,1.35,3,3,3h14
						c1.65,0,3-1.35,3-3V5.857C20,4.208,18.65,2.857,17,2.857L17,2.857z"/>
				</g>
				<g style="opacity:0.8;">
					<path style="fill:#6A8799;" d="M17,3.357c1.379,0,2.5,1.122,2.5,2.5v8.287c0,1.379-1.121,2.5-2.5,2.5H3
						c-1.378,0-2.5-1.121-2.5-2.5V5.857c0-1.378,1.122-2.5,2.5-2.5H17 M17,2.857H3c-1.65,0-3,1.35-3,3v8.287c0,1.65,1.35,3,3,3h14
						c1.65,0,3-1.35,3-3V5.857C20,4.208,18.65,2.857,17,2.857L17,2.857z"/>
				</g>
			</g>
			<g id="up-flap-shadow_3_">
				<path style="fill:#6D767D;" d="M1,15.851c1.29-1.544,2.68-2.973,4.105-4.36c0.703-0.705,1.443-1.368,2.166-2.05
					c0.733-0.67,1.481-1.323,2.222-1.985l0.507-0.453l0.509,0.453c0.741,0.661,1.488,1.316,2.224,1.983
					c0.722,0.684,1.462,1.345,2.165,2.05c1.426,1.388,2.815,2.816,4.104,4.362c-1.711-1.058-3.322-2.232-4.896-3.448
					c-0.797-0.597-1.557-1.237-2.334-1.855c-0.765-0.634-1.519-1.28-2.277-1.922h1.016c-0.76,0.64-1.512,1.289-2.278,1.92
					c-0.777,0.619-1.538,1.258-2.334,1.855C4.32,13.616,2.71,14.791,1,15.851z"/>
			</g>
			<g id="up-flap-highlight_3_">
				<path style="fill:#A1C8E6;" d="M1,15.841c0,0,0.255-0.239,0.716-0.639c0.467-0.392,1.116-0.975,1.926-1.631
					c0.805-0.664,1.757-1.421,2.791-2.214c0.519-0.394,1.054-0.801,1.599-1.214C8.307,9.94,8.583,9.736,8.862,9.53L9.28,9.222
					l0.209-0.154L9.594,8.99l0.053-0.039l0.006-0.005C9.625,8.96,9.922,8.809,9.8,8.872l0.016-0.004l0.031-0.01
					c0.087-0.023,0.209-0.029,0.318,0.003c0.112,0.029,0.21,0.104,0.189,0.09l0.052,0.039l0.105,0.078l0.209,0.154l0.418,0.309
					c0.278,0.206,0.555,0.41,0.83,0.613c0.553,0.401,1.08,0.82,1.6,1.213c1.033,0.792,1.985,1.55,2.79,2.213
					c0.811,0.657,1.459,1.24,1.926,1.632c0.461,0.4,0.716,0.64,0.716,0.64s-0.307-0.168-0.83-0.481
					c-0.517-0.322-1.272-0.759-2.148-1.325c-0.881-0.559-1.896-1.229-2.971-1.965c-0.534-0.372-1.096-0.743-1.649-1.145
					c-0.278-0.198-0.559-0.398-0.84-0.599l-0.423-0.302L9.926,9.873L9.82,9.797L9.767,9.76c-0.038-0.03,0.039,0.041,0.13,0.064
					c0.089,0.025,0.189,0.014,0.256-0.016c-0.521,0.374-1.042,0.748-1.555,1.116c-0.562,0.389-1.115,0.773-1.65,1.144
					c-1.075,0.735-2.089,1.405-2.97,1.965C3.102,14.6,2.347,15.036,1.83,15.358C1.307,15.673,1,15.841,1,15.841z"/>
			</g>
			<g id="down-flap-shadow_3_">
				<path style="fill:#6D767D;" d="M18.613,4.004c0,0-0.207,0.295-0.598,0.777s-0.959,1.158-1.681,1.92
					c-0.712,0.775-1.582,1.63-2.53,2.528c-0.477,0.445-0.976,0.898-1.492,1.346c-0.26,0.223-0.521,0.447-0.783,0.674l-0.398,0.333
					l-0.2,0.167l-0.1,0.083l-0.013,0.011l-0.006,0.005c0.298-0.167-0.414,0.234-0.343,0.193l-0.031,0.011l-0.062,0.021
					c-0.192,0.062-0.521,0.086-0.793-0.013c-0.137-0.046-0.256-0.111-0.352-0.18l-0.062-0.047l-0.1-0.084l-0.2-0.167L8.471,11.25
					c-0.262-0.226-0.524-0.45-0.783-0.673C7.17,10.131,6.673,9.676,6.195,9.232c-0.949-0.897-1.818-1.753-2.53-2.528
					c-0.722-0.763-1.29-1.44-1.68-1.922C1.595,4.3,1.389,4.004,1.389,4.004s0.331,0.144,0.88,0.432
					c0.55,0.288,1.325,0.711,2.215,1.269c0.9,0.545,1.91,1.23,2.976,1.984c0.529,0.381,1.073,0.779,1.612,1.2
					C9.341,9.1,9.612,9.312,9.885,9.524L10.29,9.85l0.203,0.163l0.102,0.082c-0.007-0.006,0.052,0.043-0.01-0.009
					c-0.075-0.062-0.174-0.121-0.291-0.159c-0.231-0.084-0.519-0.047-0.67,0.028l0.062-0.021l0.031-0.01
					c0.076-0.042-0.631,0.357-0.329,0.186l0.006-0.005l0.013-0.01l0.102-0.082L9.711,9.85l0.405-0.326
					c0.273-0.212,0.544-0.424,0.814-0.635c0.541-0.418,1.083-0.819,1.613-1.199c1.066-0.753,2.076-1.438,2.976-1.983
					c0.89-0.558,1.664-0.982,2.214-1.27C18.283,4.148,18.613,4.004,18.613,4.004z"/>
			</g>
			<g id="down-flap_3_">
				
					<linearGradient id="SVGID_2_" gradientUnits="userSpaceOnUse" x1="-3772.0005" y1="2543.0625" x2="-3772.0005" y2="2535.7656" gradientTransform="matrix(-1 0 0 -1 -3762 2546.7852)">
					<stop  offset="0" style="stop-color:#A1C8E6"/>
					<stop  offset="0.1619" style="stop-color:#9DC5E5"/>
					<stop  offset="0.3296" style="stop-color:#90BDE1"/>
					<stop  offset="0.5001" style="stop-color:#7CB0DB"/>
					<stop  offset="0.6713" style="stop-color:#5F9DD2"/>
					<stop  offset="0.8" style="stop-color:#448CCA"/>
				</linearGradient>
				<polyline style="fill:url(#SVGID_2_);" points="19,3.723 10,11.02 1,3.723 				"/>
			</g>
			<g id="down-flap-highlight_3_">
				<path style="fill:#A1C8E6;" d="M18.953,3.684c0,0-0.252,0.261-0.708,0.7c-0.462,0.431-1.104,1.068-1.907,1.793
					c-0.798,0.731-1.742,1.567-2.769,2.447c-0.515,0.437-1.048,0.888-1.589,1.346c-0.273,0.226-0.549,0.453-0.825,0.682
					l-0.416,0.343l-0.208,0.172l-0.104,0.086l-0.052,0.043l-0.006,0.006c-0.067,0.038,0.141-0.078-0.151,0.087l-0.016,0.005
					l-0.038,0.013c-0.099,0.031-0.253,0.034-0.378-0.017c-0.059-0.021-0.122-0.062-0.149-0.083l-0.013-0.011l-0.052-0.043
					l-0.104-0.086l-0.208-0.172L8.843,10.65c-0.277-0.229-0.552-0.456-0.826-0.682c-0.55-0.447-1.073-0.91-1.589-1.346
					C5.402,7.745,4.458,6.908,3.66,6.177C2.856,5.453,2.214,4.814,1.752,4.383c-0.456-0.438-0.708-0.7-0.708-0.7
					s0.308,0.193,0.83,0.549c0.516,0.364,1.272,0.861,2.146,1.499c0.879,0.631,1.892,1.384,2.962,2.208
					c0.532,0.416,1.093,0.833,1.643,1.28C8.903,9.44,9.183,9.664,9.463,9.887l0.421,0.336l0.211,0.168l0.105,0.084l0.053,0.042
					l0.013,0.011c-0.017-0.017-0.069-0.054-0.117-0.072c-0.104-0.044-0.236-0.033-0.314,0.005c-0.001,0.001,0.018-0.006,0.026-0.008
					l0.016-0.005c-0.287,0.163-0.076,0.042-0.138,0.077l0.006-0.005l0.053-0.042l0.106-0.084l0.21-0.168l0.421-0.336
					c0.28-0.224,0.56-0.447,0.836-0.668c0.56-0.436,1.11-0.864,1.644-1.279c1.07-0.824,2.083-1.577,2.962-2.208
					c0.874-0.637,1.63-1.135,2.146-1.5C18.646,3.876,18.953,3.684,18.953,3.684z"/>
			</g>
			<g id="decoration_2_">
				<polygon style="opacity:0.7;fill:#448CCA;" points="14.422,3.369 10,6.822 5.582,3.372 2.174,3.373 10,9.484 17.832,3.369 				
					"/>
			</g>
			<g id="envelope-border_3_">
				<g>
					<path style="fill:#FFFFFF;" d="M17,3.357c1.379,0,2.5,1.122,2.5,2.5v8.287c0,1.379-1.121,2.5-2.5,2.5H3
						c-1.378,0-2.5-1.121-2.5-2.5V5.857c0-1.378,1.122-2.5,2.5-2.5H17 M17,2.857H3c-1.65,0-3,1.35-3,3v8.287c0,1.65,1.35,3,3,3h14
						c1.65,0,3-1.35,3-3V5.857C20,4.208,18.65,2.857,17,2.857L17,2.857z"/>
				</g>
				<g style="opacity:0.8;">
					<path style="fill:#6A8799;" d="M17,3.357c1.379,0,2.5,1.122,2.5,2.5v8.287c0,1.379-1.121,2.5-2.5,2.5H3
						c-1.378,0-2.5-1.121-2.5-2.5V5.857c0-1.378,1.122-2.5,2.5-2.5H17 M17,2.857H3c-1.65,0-3,1.35-3,3v8.287c0,1.65,1.35,3,3,3h14
						c1.65,0,3-1.35,3-3V5.857C20,4.208,18.65,2.857,17,2.857L17,2.857z"/>
				</g>
			</g>
		</g>
	</g>
</g>
<g id="Layer_1">
</g>
</svg>
