<?xml version="1.0" encoding="iso-8859-1"?>
<!-- Generator: Adobe Illustrator 16.0.0, SVG Export Plug-In . SVG Version: 6.00 Build 0)  -->
<!DOCTYPE svg PUBLIC "-//W3C//DTD SVG 1.1//EN" "http://www.w3.org/Graphics/SVG/1.1/DTD/svg11.dtd">
<svg version="1.1" id="Layer_1" xmlns="http://www.w3.org/2000/svg" xmlns:xlink="http://www.w3.org/1999/xlink" x="0px" y="0px"
	 width="20px" height="20px" viewBox="0 0 20 20" style="enable-background:new 0 0 20 20;" xml:space="preserve">
<g id="facebook-page">
	<g>
		<rect id="le_wrappier_38_" style="fill:none;" width="20" height="20"/>
		<g>
			<g>
				<g>
					<g>
						<path style="fill:#999999;" d="M17,16c0,0.55-0.45,1-1,1H1c-0.55,0-1-0.45-1-1V1c0-0.55,0.45-1,1-1h15c0.55,0,1,0.45,1,1V16z"
							/>
					</g>
					<g>
						<path style="fill:#FFFFFF;" d="M15.625,15.5c0,0.275-0.225,0.5-0.5,0.5H1.875c-0.275,0-0.5-0.225-0.5-0.5v-12
							c0-0.275,0.225-0.5,0.5-0.5h13.25c0.275,0,0.5,0.225,0.5,0.5V15.5z"/>
					</g>
				</g>
				<g>
					<g>
						<g>
							<path style="fill:#CCCCCC;" d="M14.5,7.75c0,0.275-0.225,0.5-0.5,0.5H3c-0.275,0-0.5-0.225-0.5-0.5v-3
								c0-0.275,0.225-0.5,0.5-0.5h11c0.275,0,0.5,0.225,0.5,0.5V7.75z"/>
						</g>
						<g>
							<g>
								<path style="fill:#CCCCCC;" d="M8.5,14c0,0.275-0.225,0.5-0.5,0.5H3c-0.275,0-0.5-0.225-0.5-0.5v-0.5
									C2.5,13.225,2.725,13,3,13h5c0.275,0,0.5,0.225,0.5,0.5V14z"/>
							</g>
							<g>
								<path style="fill:#CCCCCC;" d="M8.5,11c0,0.275-0.225,0.5-0.5,0.5H3c-0.275,0-0.5-0.225-0.5-0.5v-0.5
									C2.5,10.225,2.725,10,3,10h5c0.275,0,0.5,0.225,0.5,0.5V11z"/>
							</g>
							<g>
								<path style="fill:#999999;" d="M14.5,14c0,0.275-0.225,0.5-0.5,0.5h-3.5c-0.275,0-0.5-0.225-0.5-0.5v-3.5
									c0-0.275,0.225-0.5,0.5-0.5H14c0.275,0,0.5,0.225,0.5,0.5V14z"/>
							</g>
						</g>
					</g>
				</g>
			</g>
			<g>
				<g>
					<g id="box_3_">
						<path style="fill:#FFFFFF;" d="M20,18c0,1.1-0.9,2-2,2h-7c-1.1,0-2-0.9-2-2v-7c0-1.1,0.9-2,2-2h7c1.1,0,2,0.9,2,2V18z"/>
					</g>
					<g id="box_1_">
						<path style="fill:#3B5998;" d="M20,18c0,1.1-0.9,2-2,2h-6.5c-1.1,0-2-0.9-2-2v-6.5c0-1.1,0.9-2,2-2H18c1.1,0,2,0.9,2,2V18z"/>
					</g>
					<path id="facebook-f_1_" style="fill:#FFFFFF;" d="M17.059,12.646h0.926v-1.444h-1.256c-1.777,0-1.735,1.391-1.735,1.598v1.136
						H14.17v1.389h0.823v4.125h1.694v-4.125h1.138c0,0,0.104-0.666,0.157-1.395h-1.289V12.98
						C16.693,12.838,16.878,12.646,17.059,12.646z"/>
				</g>
			</g>
		</g>
	</g>
</g>
<g id="Layer_1_1_">
</g>
</svg>
