<?xml version="1.0" encoding="iso-8859-1"?>
<!-- Generator: Adobe Illustrator 16.0.0, SVG Export Plug-In . SVG Version: 6.00 Build 0)  -->
<!DOCTYPE svg PUBLIC "-//W3C//DTD SVG 1.1//EN" "http://www.w3.org/Graphics/SVG/1.1/DTD/svg11.dtd">
<svg version="1.1" xmlns="http://www.w3.org/2000/svg" xmlns:xlink="http://www.w3.org/1999/xlink" x="0px" y="0px" width="20px"
	 height="20px" viewBox="0 0 20 20" style="enable-background:new 0 0 20 20;" xml:space="preserve">
<g id="facebook-page">
	<g>
		<rect id="le_wrappier_38_" x="-1190" y="62" style="fill:none;" width="20" height="20"/>
		<g>
			<g>
				<g>
					<g>
						<path style="fill:#999999;" d="M-1173,78c0,0.55-0.45,1-1,1h-15c-0.55,0-1-0.45-1-1V63c0-0.55,0.45-1,1-1h15
							c0.55,0,1,0.45,1,1V78z"/>
					</g>
					<g>
						<path style="fill:#FFFFFF;" d="M-1174.375,77.5c0,0.275-0.225,0.5-0.5,0.5h-13.25c-0.275,0-0.5-0.225-0.5-0.5v-12
							c0-0.275,0.225-0.5,0.5-0.5h13.25c0.275,0,0.5,0.225,0.5,0.5V77.5z"/>
					</g>
				</g>
				<g>
					<g>
						<g>
							<path style="fill:#CCCCCC;" d="M-1175.5,69.75c0,0.275-0.225,0.5-0.5,0.5h-11c-0.275,0-0.5-0.225-0.5-0.5v-3
								c0-0.275,0.225-0.5,0.5-0.5h11c0.275,0,0.5,0.225,0.5,0.5V69.75z"/>
						</g>
						<g>
							<g>
								<path style="fill:#CCCCCC;" d="M-1181.5,76c0,0.275-0.225,0.5-0.5,0.5h-5c-0.275,0-0.5-0.225-0.5-0.5v-0.5
									c0-0.275,0.225-0.5,0.5-0.5h5c0.275,0,0.5,0.225,0.5,0.5V76z"/>
							</g>
							<g>
								<path style="fill:#CCCCCC;" d="M-1181.5,73c0,0.275-0.225,0.5-0.5,0.5h-5c-0.275,0-0.5-0.225-0.5-0.5v-0.5
									c0-0.275,0.225-0.5,0.5-0.5h5c0.275,0,0.5,0.225,0.5,0.5V73z"/>
							</g>
							<g>
								<path style="fill:#999999;" d="M-1175.5,76c0,0.275-0.225,0.5-0.5,0.5h-3.5c-0.275,0-0.5-0.225-0.5-0.5v-3.5
									c0-0.275,0.225-0.5,0.5-0.5h3.5c0.275,0,0.5,0.225,0.5,0.5V76z"/>
							</g>
						</g>
					</g>
				</g>
			</g>
			<g>
				<g>
					<g id="box_3_">
						<path style="fill:#FFFFFF;" d="M-1170,80c0,1.1-0.9,2-2,2h-7c-1.1,0-2-0.9-2-2v-7c0-1.1,0.9-2,2-2h7c1.1,0,2,0.9,2,2V80z"/>
					</g>
					<g id="box_1_">
						<path style="fill:#3B5998;" d="M-1170,80c0,1.1-0.9,2-2,2h-6.5c-1.1,0-2-0.9-2-2v-6.5c0-1.1,0.9-2,2-2h6.5c1.1,0,2,0.9,2,2V80
							z"/>
					</g>
					<path id="facebook-f_1_" style="fill:#FFFFFF;" d="M-1172.941,74.646h0.925v-1.444h-1.255c-1.778,0-1.736,1.391-1.736,1.598
						v1.135h-0.823v1.389h0.823v4.125h1.694v-4.125h1.138c0,0,0.105-0.666,0.157-1.395h-1.288v-0.948
						C-1173.306,74.838-1173.122,74.646-1172.941,74.646z"/>
				</g>
			</g>
		</g>
	</g>
</g>
<g id="Layer_1">
</g>
</svg>
