<?xml version="1.0" encoding="utf-8"?>
<!-- Generator: Adobe Illustrator 16.0.0, SVG Export Plug-In . SVG Version: 6.00 Build 0)  -->
<!DOCTYPE svg PUBLIC "-//W3C//DTD SVG 1.1//EN" "http://www.w3.org/Graphics/SVG/1.1/DTD/svg11.dtd">
<svg version="1.1" id="Layer_1" xmlns="http://www.w3.org/2000/svg" xmlns:xlink="http://www.w3.org/1999/xlink" x="0px" y="0px"
	 width="20px" height="20px" viewBox="0 0 20 20" enable-background="new 0 0 20 20" xml:space="preserve">
<g id="facebook-page">
	<g>
		<rect id="le_wrappier_38_" fill="none" width="20" height="20"/>
		<g>
			<g>
				<g>
					<g>
						<path fill="#999999" d="M17,16c0,0.55-0.45,1-1,1H1c-0.55,0-1-0.45-1-1V1c0-0.55,0.45-1,1-1h15c0.55,0,1,0.45,1,1V16z"/>
					</g>
					<g>
						<path fill="#FFFFFF" d="M15.625,15.499c0,0.274-0.225,0.5-0.5,0.5H1.875c-0.275,0-0.5-0.226-0.5-0.5v-12
							c0-0.274,0.225-0.5,0.5-0.5h13.25c0.275,0,0.5,0.226,0.5,0.5V15.499z"/>
					</g>
				</g>
				<g>
					<g>
						<g>
							<path fill="#CCCCCC" d="M14.5,7.749c0,0.274-0.225,0.5-0.5,0.5H3c-0.275,0-0.5-0.226-0.5-0.5v-3c0-0.274,0.225-0.5,0.5-0.5
								h11c0.275,0,0.5,0.226,0.5,0.5V7.749z"/>
						</g>
						<g>
							<g>
								<path fill="#CCCCCC" d="M8.5,13.999c0,0.274-0.225,0.5-0.5,0.5H3c-0.275,0-0.5-0.226-0.5-0.5v-0.5
									c0-0.274,0.225-0.5,0.5-0.5h5c0.275,0,0.5,0.226,0.5,0.5V13.999z"/>
							</g>
							<g>
								<path fill="#CCCCCC" d="M8.5,10.999c0,0.274-0.225,0.5-0.5,0.5H3c-0.275,0-0.5-0.226-0.5-0.5v-0.5
									c0-0.274,0.225-0.5,0.5-0.5h5c0.275,0,0.5,0.226,0.5,0.5V10.999z"/>
							</g>
							<g>
								<path fill="#999999" d="M14.5,13.999c0,0.274-0.225,0.5-0.5,0.5h-3.5c-0.275,0-0.5-0.226-0.5-0.5v-3.5
									c0-0.274,0.225-0.5,0.5-0.5H14c0.275,0,0.5,0.226,0.5,0.5V13.999z"/>
							</g>
						</g>
					</g>
				</g>
			</g>
			<g>
				<g>
					<g id="box_3_">
						<path fill="#FFFFFF" d="M20,18c0,1.1-0.9,2-2,2h-7c-1.1,0-2-0.9-2-2v-7.001c0-1.101,0.9-2,2-2h7c1.1,0,2,0.899,2,2V18z"/>
					</g>
					<g id="box_1_">
						<path fill="#3B5998" d="M20,18c0,1.1-0.9,2-2,2h-6.5c-1.1,0-2-0.9-2-2v-6.501c0-1.101,0.9-2,2-2H18c1.1,0,2,0.899,2,2V18z"/>
					</g>
					<path id="facebook-f_1_" fill="#FFFFFF" d="M17.061,12.646h0.925v-1.444H16.73c-1.778,0-1.735,1.39-1.735,1.598v1.136h-0.824
						v1.389h0.824v4.124h1.692v-4.124h1.14c0,0,0.104-0.666,0.156-1.395h-1.287V12.98C16.695,12.838,16.879,12.646,17.061,12.646z"
						/>
				</g>
			</g>
		</g>
	</g>
</g>
<g id="Layer_1_1_">
</g>
</svg>
