<?xml version="1.0" encoding="utf-8"?>
<!-- Generator: Adobe Illustrator 16.0.0, SVG Export Plug-In . SVG Version: 6.00 Build 0)  -->
<!DOCTYPE svg PUBLIC "-//W3C//DTD SVG 1.1//EN" "http://www.w3.org/Graphics/SVG/1.1/DTD/svg11.dtd">
<svg version="1.1" id="Layer_1" xmlns="http://www.w3.org/2000/svg" xmlns:xlink="http://www.w3.org/1999/xlink" x="0px" y="0px"
	 width="20px" height="20px" viewBox="0 0 20 20" enable-background="new 0 0 20 20" xml:space="preserve">
<g id="facebook">
	<g>
		<rect id="le_wrappier_98_" y="0.001" fill="none" width="20" height="20"/>
		<g>
			<g id="box_9_">
				<path fill="#3B5998" d="M20,17c0,1.65-1.35,3-3,3H3c-1.65,0-3-1.35-3-3V3C0,1.35,1.35,0,3,0h14c1.65,0,3,1.351,3,3V17z"/>
			</g>
			<path id="facebook-f_3_" fill="#FFFFFF" d="M14.964,6.18h1.757V3.436h-2.385c-3.378,0-3.298,2.64-3.298,3.034v2.158H9.474v2.637
				h1.564v7.836h3.22v-7.836h2.16c0,0,0.201-1.266,0.298-2.648H14.27V6.814C14.27,6.544,14.619,6.18,14.964,6.18z"/>
		</g>
	</g>
</g>
<g id="Layer_1_1_">
</g>
</svg>
