<?xml version="1.0" encoding="iso-8859-1"?>
<!-- Generator: Adobe Illustrator 16.0.0, SVG Export Plug-In . SVG Version: 6.00 Build 0)  -->
<!DOCTYPE svg PUBLIC "-//W3C//DTD SVG 1.1//EN" "http://www.w3.org/Graphics/SVG/1.1/DTD/svg11.dtd">
<svg version="1.1" xmlns="http://www.w3.org/2000/svg" xmlns:xlink="http://www.w3.org/1999/xlink" x="0px" y="0px" width="20px"
	 height="20px" viewBox="0 0 20 20" style="enable-background:new 0 0 20 20;" xml:space="preserve">
<g id="folder-close-hover">
	<g>
		<rect id="le_wrappier_6_" style="fill:none;" width="20" height="20"/>
		<g>
			<g id="back-panel_3_">
				<linearGradient id="SVGID_1_" gradientUnits="userSpaceOnUse" x1="8.7515" y1="3.2227" x2="8.7515" y2="16.7759">
					<stop  offset="0" style="stop-color:#345D80"/>
					<stop  offset="0.2756" style="stop-color:#355B7C"/>
					<stop  offset="0.5612" style="stop-color:#3A566F"/>
					<stop  offset="0.8504" style="stop-color:#404E5B"/>
					<stop  offset="1" style="stop-color:#45494D"/>
				</linearGradient>
				<path style="fill:url(#SVGID_1_);" d="M0.176,16.775c-0.062,0-0.113-0.05-0.113-0.111V3.439c0-0.124,0.062-0.217,0.116-0.217
					h5.895c0.054,0,0.115,0.093,0.115,0.217V4.41l11.14,0.062c0.062,0,0.112,0.05,0.112,0.111v12.08
					c0,0.062-0.051,0.111-0.112,0.111H0.176z"/>
				<path style="fill:#45494D;" d="M6.071,3.285c0.017,0.007,0.055,0.062,0.055,0.154V4.41v0.125h0.125h11.077
					c0.028,0,0.05,0.021,0.05,0.049v12.08c0,0.026-0.022,0.049-0.05,0.049H0.176c-0.027,0-0.051-0.022-0.051-0.049V5.385V4.584
					V3.439c0-0.093,0.041-0.149,0.054-0.154H6.071 M6.073,3.16H0.179C0.081,3.16,0,3.285,0,3.439v1.145v0.801v11.279
					c0,0.096,0.079,0.174,0.176,0.174h17.152c0.096,0,0.175-0.078,0.175-0.174V4.584c0-0.098-0.079-0.174-0.175-0.174H6.251V3.439
					C6.251,3.285,6.171,3.16,6.073,3.16L6.073,3.16z"/>
			</g>
			<g id="front-panel_2_">
				<path style="fill:#FFFFFF;" d="M16.999,4.914v11.424H0.5V4.914H16.999 M17.323,4.414H0.175C0.079,4.414,0,4.49,0,4.586v12.078
					c0,0.096,0.079,0.174,0.175,0.174h17.148c0.097,0,0.176-0.078,0.176-0.174V4.586C17.499,4.49,17.42,4.414,17.323,4.414
					L17.323,4.414z"/>
				<linearGradient id="SVGID_2_" gradientUnits="userSpaceOnUse" x1="8.7495" y1="4.6641" x2="8.7495" y2="16.5884">
					<stop  offset="0" style="stop-color:#A1C8E6"/>
					<stop  offset="0.1619" style="stop-color:#9DC5E5"/>
					<stop  offset="0.3296" style="stop-color:#90BDE1"/>
					<stop  offset="0.5001" style="stop-color:#7CB0DB"/>
					<stop  offset="0.6713" style="stop-color:#5F9DD2"/>
					<stop  offset="0.8" style="stop-color:#448CCA"/>
				</linearGradient>
				<rect x="0.25" y="4.664" style="fill:url(#SVGID_2_);" width="16.999" height="11.924"/>
				<path style="fill:#45494D;" d="M17.323,4.539c0.028,0,0.051,0.021,0.051,0.047v12.078c0,0.026-0.023,0.049-0.051,0.049H0.175
					c-0.027,0-0.05-0.022-0.05-0.049V4.586c0-0.026,0.022-0.047,0.05-0.047H17.323 M17.323,4.414H0.175C0.079,4.414,0,4.49,0,4.586
					v12.078c0,0.096,0.079,0.174,0.175,0.174h17.148c0.097,0,0.176-0.078,0.176-0.174V4.586C17.499,4.49,17.42,4.414,17.323,4.414
					L17.323,4.414z"/>
			</g>
		</g>
	</g>
</g>
<g id="Layer_1">
</g>
</svg>
