<?xml version="1.0" encoding="iso-8859-1"?>
<!-- Generator: Adobe Illustrator 16.0.0, SVG Export Plug-In . SVG Version: 6.00 Build 0)  -->
<!DOCTYPE svg PUBLIC "-//W3C//DTD SVG 1.1//EN" "http://www.w3.org/Graphics/SVG/1.1/DTD/svg11.dtd">
<svg version="1.1" xmlns="http://www.w3.org/2000/svg" xmlns:xlink="http://www.w3.org/1999/xlink" x="0px" y="0px" width="20px"
	 height="20px" viewBox="0 0 20 20" style="enable-background:new 0 0 20 20;" xml:space="preserve">
<g id="folder-close">
	<g>
		<rect id="le_wrappier" style="fill:none;" width="20" height="20"/>
		<g>
			<g id="back-panel_2_">
				<linearGradient id="SVGID_1_" gradientUnits="userSpaceOnUse" x1="8.7515" y1="3.1602" x2="8.7515" y2="16.8384">
					<stop  offset="0" style="stop-color:#9DABB4"/>
					<stop  offset="0.2651" style="stop-color:#99A7B0"/>
					<stop  offset="0.5398" style="stop-color:#8F9BA3"/>
					<stop  offset="0.8179" style="stop-color:#7D878F"/>
					<stop  offset="1" style="stop-color:#6D767D"/>
				</linearGradient>
				<path style="fill:url(#SVGID_1_);" d="M17.328,4.91H6.251V3.439c0-0.154-0.08-0.279-0.178-0.279H0.179
					C0.081,3.16,0,3.285,0,3.439v1.145v0.801v11.279c0,0.096,0.079,0.174,0.176,0.174h17.152c0.096,0,0.175-0.078,0.175-0.174V5.084
					C17.503,4.986,17.424,4.91,17.328,4.91z"/>
				<g style="opacity:0.6;">
					<path style="fill:#45494D;" d="M5.501,3.91v1v0.75h0.75h10.502v10.428H0.75V5.385V4.584V3.91H5.501 M6.073,3.16H0.179
						C0.081,3.16,0,3.285,0,3.439v1.145v0.801v11.279c0,0.096,0.079,0.174,0.176,0.174h17.152c0.096,0,0.175-0.078,0.175-0.174
						V5.084c0-0.098-0.079-0.174-0.175-0.174H6.251V3.439C6.251,3.285,6.171,3.16,6.073,3.16L6.073,3.16z"/>
				</g>
			</g>
			<g id="front-panel">
				<linearGradient id="SVGID_2_" gradientUnits="userSpaceOnUse" x1="8.7495" y1="5.9102" x2="8.7495" y2="15.8384">
					<stop  offset="0" style="stop-color:#FFFFFF"/>
					<stop  offset="0.2499" style="stop-color:#FBFCFD"/>
					<stop  offset="0.5087" style="stop-color:#EEF4F8"/>
					<stop  offset="0.7709" style="stop-color:#DAE7F0"/>
					<stop  offset="0.8" style="stop-color:#D7E5EF"/>
				</linearGradient>
				<rect x="1" y="5.91" style="fill:url(#SVGID_2_);" width="15.499" height="9.928"/>
				<g style="opacity:0.7;">
					<path style="fill:#FFFFFF;" d="M15.499,6.91v7.928H2V6.91H15.499 M17.323,4.91H0.175C0.079,4.91,0,4.978,0,5.062v11.621
						c0,0.085,0.079,0.154,0.175,0.154h17.148c0.097,0,0.176-0.069,0.176-0.154V5.062C17.499,4.978,17.42,4.91,17.323,4.91
						L17.323,4.91z"/>
				</g>
				<g style="opacity:0.7;">
					<path style="fill:#45494D;" d="M16.499,5.91v9.928H1V5.91H16.499 M17.323,4.91H0.175C0.079,4.91,0,4.978,0,5.062v11.621
						c0,0.085,0.079,0.154,0.175,0.154h17.148c0.097,0,0.176-0.069,0.176-0.154V5.062C17.499,4.978,17.42,4.91,17.323,4.91
						L17.323,4.91z"/>
				</g>
			</g>
		</g>
	</g>
</g>
<g id="Layer_1">
</g>
</svg>
