<?xml version="1.0" encoding="iso-8859-1"?>
<!-- Generator: Adobe Illustrator 16.0.0, SVG Export Plug-In . SVG Version: 6.00 Build 0)  -->
<!DOCTYPE svg PUBLIC "-//W3C//DTD SVG 1.1//EN" "http://www.w3.org/Graphics/SVG/1.1/DTD/svg11.dtd">
<svg version="1.1" xmlns="http://www.w3.org/2000/svg" xmlns:xlink="http://www.w3.org/1999/xlink" x="0px" y="0px" width="20px"
	 height="20px" viewBox="0 0 20 20" style="enable-background:new 0 0 20 20;" xml:space="preserve">
<g id="folder-open">
	<g>
		<rect id="le_wrappier_43_" style="fill:none;" width="20" height="20"/>
		<g>
			<g id="back-panel_13_">
				<linearGradient id="SVGID_1_" gradientUnits="userSpaceOnUse" x1="8.7515" y1="3.2246" x2="8.7515" y2="16.7778">
					<stop  offset="0" style="stop-color:#9DABB4"/>
					<stop  offset="0.2651" style="stop-color:#99A7B0"/>
					<stop  offset="0.5398" style="stop-color:#8F9BA3"/>
					<stop  offset="0.8179" style="stop-color:#7D878F"/>
					<stop  offset="1" style="stop-color:#6D767D"/>
				</linearGradient>
				<path style="fill:url(#SVGID_1_);" d="M0.176,16.777c-0.062,0-0.113-0.05-0.113-0.111V3.441c0-0.124,0.062-0.217,0.116-0.217
					h5.895c0.054,0,0.115,0.093,0.115,0.217v0.971l11.14,0.062c0.062,0,0.112,0.05,0.112,0.111v12.08
					c0,0.062-0.051,0.111-0.112,0.111H0.176z"/>
				<path style="fill:#45494D;" d="M6.071,3.287c0.017,0.007,0.055,0.062,0.055,0.154v0.971v0.125h0.125h11.077
					c0.028,0,0.05,0.021,0.05,0.049v12.08c0,0.026-0.022,0.049-0.05,0.049H0.176c-0.027,0-0.051-0.022-0.051-0.049V5.387V4.586
					V3.441c0-0.093,0.041-0.149,0.054-0.154H6.071 M6.073,3.162H0.179C0.081,3.162,0,3.287,0,3.441v1.145v0.801v11.279
					c0,0.096,0.079,0.174,0.176,0.174h17.152c0.096,0,0.175-0.078,0.175-0.174V4.586c0-0.098-0.079-0.174-0.175-0.174H6.251V3.441
					C6.251,3.287,6.171,3.162,6.073,3.162L6.073,3.162z"/>
			</g>
			<g id="front-panel_12_">
				<path style="fill:#FFFFFF;" d="M19.358,6.102L17.047,16.34H0.593L2.904,6.102H19.358 M19.81,5.602H2.679
					c-0.097,0-0.191,0.07-0.21,0.156L0.003,16.682c-0.018,0.088,0.043,0.158,0.14,0.158h17.132c0.097,0,0.19-0.07,0.208-0.158
					l2.466-10.924C19.969,5.672,19.906,5.602,19.81,5.602L19.81,5.602z"/>
				
					<linearGradient id="SVGID_2_" gradientUnits="userSpaceOnUse" x1="-89.6016" y1="5.813" x2="-89.6016" y2="16.5903" gradientTransform="matrix(1 0 -0.1876 1 101.682 0)">
					<stop  offset="0" style="stop-color:#FFFFFF"/>
					<stop  offset="0.2499" style="stop-color:#FBFCFD"/>
					<stop  offset="0.5087" style="stop-color:#EEF4F8"/>
					<stop  offset="0.7709" style="stop-color:#DAE7F0"/>
					<stop  offset="0.8" style="stop-color:#D7E5EF"/>
				</linearGradient>
				<polygon style="fill:url(#SVGID_2_);" points="0.28,16.59 2.712,5.813 19.671,5.851 17.247,16.59 				"/>
				<path style="fill:#45494D;" d="M19.81,5.727l0.017,0.004l-2.467,10.927c-0.005,0.026-0.045,0.058-0.085,0.058L0.125,16.709
					L2.591,5.784c0.005-0.023,0.044-0.058,0.088-0.058H19.81 M19.81,5.602H2.679c-0.097,0-0.191,0.07-0.21,0.156L0.003,16.682
					c-0.018,0.088,0.043,0.158,0.14,0.158h17.132c0.097,0,0.19-0.07,0.208-0.158l2.466-10.924
					C19.969,5.672,19.906,5.602,19.81,5.602L19.81,5.602z"/>
			</g>
		</g>
	</g>
</g>
<g id="Layer_1">
</g>
</svg>
