<?xml version="1.0" encoding="utf-8"?>
<!-- Generator: Adobe Illustrator 16.0.0, SVG Export Plug-In . SVG Version: 6.00 Build 0)  -->
<!DOCTYPE svg PUBLIC "-//W3C//DTD SVG 1.1//EN" "http://www.w3.org/Graphics/SVG/1.1/DTD/svg11.dtd">
<svg version="1.1" id="Layer_1" xmlns="http://www.w3.org/2000/svg" xmlns:xlink="http://www.w3.org/1999/xlink" x="0px" y="0px"
	 width="20px" height="20px" viewBox="0 0 20 20" enable-background="new 0 0 20 20" xml:space="preserve">
<g id="gear-white">
	<g>
		<rect id="le_wrappier_120_" fill="none" width="20" height="20"/>
		<path fill="#FFFFFF" d="M9.999,14.535c-2.505,0-4.533-2.029-4.533-4.531c0-2.507,2.028-4.539,4.533-4.539
			c2.509,0,4.54,2.032,4.54,4.539C14.539,12.506,12.508,14.535,9.999,14.535 M20,11.09V8.812L19.682,8.71l-2.438-0.798l-0.647-1.566
			l1.25-2.647l-1.613-1.609l-0.301,0.156l-2.283,1.162l-1.569-0.652L11.09,0H8.816L8.712,0.322L7.916,2.758L6.347,3.406L3.702,2.16
			l-1.61,1.605L2.246,4.07l1.157,2.285L2.755,7.923L0.001,8.907v2.276l0.319,0.104l2.441,0.8l0.648,1.567L2.156,16.3l1.61,1.607
			l0.301-0.153l2.286-1.158l1.571,0.647l0.985,2.756h2.276l0.104-0.319l0.796-2.438l1.57-0.65l2.644,1.248l1.61-1.606l-0.155-0.303
			l-1.16-2.283l0.651-1.568L20,11.09z"/>
	</g>
</g>
<g id="Layer_1_1_">
</g>
</svg>
