<?xml version="1.0" encoding="utf-8"?>
<!-- Generator: Adobe Illustrator 16.0.0, SVG Export Plug-In . SVG Version: 6.00 Build 0)  -->
<!DOCTYPE svg PUBLIC "-//W3C//DTD SVG 1.1//EN" "http://www.w3.org/Graphics/SVG/1.1/DTD/svg11.dtd">
<svg version="1.1" id="Layer_1" xmlns="http://www.w3.org/2000/svg" xmlns:xlink="http://www.w3.org/1999/xlink" x="0px" y="0px"
	 width="20px" height="20px" viewBox="0 0 20 20" enable-background="new 0 0 20 20" xml:space="preserve">
<g id="gears-white">
	<g>
		<rect id="le_wrappier_110_" x="0" fill="none" width="20" height="20"/>
		<g>
			<path fill="#FFFFFF" d="M4.736,16.311c-1.187,0-2.147-0.961-2.147-2.146c0-1.188,0.961-2.149,2.147-2.149
				c1.188,0,2.15,0.963,2.15,2.149C6.887,15.35,5.925,16.311,4.736,16.311 M9.475,14.678V13.6l-0.151-0.049l-1.155-0.378
				L7.861,12.43l0.592-1.254l-0.764-0.762l-0.143,0.074l-1.082,0.55l-0.743-0.31L5.253,9.424H4.176l-0.05,0.152L3.75,10.73
				l-0.743,0.308l-1.253-0.591L0.99,11.208l0.073,0.144l0.548,1.084l-0.307,0.742L0,13.645v1.078l0.151,0.049l1.156,0.379
				l0.307,0.742L1.02,17.146l0.763,0.762l0.143-0.072l1.083-0.549l0.744,0.307l0.467,1.305h1.078l0.05-0.15l0.377-1.155l0.744-0.307
				l1.252,0.591l0.763-0.761l-0.073-0.146l-0.55-1.082l0.309-0.742L9.475,14.678z"/>
			<path fill="#FFFFFF" d="M15.265,16.311c-1.187,0-2.147-0.961-2.147-2.146c0-1.188,0.961-2.149,2.147-2.149
				c1.188,0,2.147,0.963,2.147,2.149C17.412,15.35,16.451,16.311,15.265,16.311 M20,14.678V13.6l-0.15-0.049l-1.154-0.378
				l-0.307-0.743l0.591-1.254l-0.763-0.762l-0.143,0.074l-1.084,0.55l-0.742-0.31l-0.47-1.305h-1.075l-0.052,0.152l-0.377,1.154
				l-0.741,0.308l-1.254-0.591l-0.762,0.761l0.07,0.144l0.551,1.084l-0.309,0.742l-1.303,0.467v1.078l0.15,0.049l1.154,0.379
				l0.307,0.742l-0.59,1.254l0.761,0.762l0.144-0.072l1.082-0.549l0.744,0.307l0.469,1.305h1.076l0.051-0.15l0.377-1.155
				l0.742-0.307l1.254,0.591l0.763-0.761l-0.073-0.146l-0.55-1.082l0.308-0.742L20,14.678z"/>
			<path fill="#FFFFFF" d="M9.804,7.988c-1.188,0-2.149-0.963-2.149-2.148c0-1.188,0.961-2.148,2.149-2.148
				c1.186,0,2.147,0.961,2.147,2.148C11.951,7.025,10.99,7.988,9.804,7.988 M14.541,6.355v-1.08L14.39,5.227L13.234,4.85
				l-0.307-0.744l0.592-1.252l-0.764-0.765l-0.143,0.074l-1.082,0.551l-0.744-0.31L10.319,1.1H9.243L9.19,1.252L8.813,2.406
				L8.072,2.714L6.818,2.122L6.057,2.884l0.072,0.144l0.55,1.084L6.371,4.854L5.065,5.32V6.4l0.152,0.049l1.154,0.379L6.68,7.57
				L6.087,8.823L6.85,9.585l0.143-0.073l1.083-0.549l0.743,0.309l0.467,1.306h1.079l0.05-0.151l0.376-1.156l0.744-0.308l1.25,0.593
				l0.764-0.763l-0.072-0.144l-0.549-1.082l0.309-0.743L14.541,6.355z"/>
		</g>
	</g>
</g>
<g id="Layer_1_1_">
</g>
</svg>
