<?xml version="1.0" encoding="utf-8"?>
<!-- Generator: Adobe Illustrator 16.0.0, SVG Export Plug-In . SVG Version: 6.00 Build 0)  -->
<!DOCTYPE svg PUBLIC "-//W3C//DTD SVG 1.1//EN" "http://www.w3.org/Graphics/SVG/1.1/DTD/svg11.dtd">
<svg version="1.1" id="Layer_1" xmlns="http://www.w3.org/2000/svg" xmlns:xlink="http://www.w3.org/1999/xlink" x="0px" y="0px"
	 width="20px" height="20px" viewBox="0 0 20 20" enable-background="new 0 0 20 20" xml:space="preserve">
<g id="gear-grey">
	<g>
		<rect id="le_wrappier_114_" y="0" fill="none" width="20" height="20"/>
		<g>
			<path fill="#AAAAAA" d="M10,14.536c-2.506,0-4.535-2.029-4.535-4.531c0-2.506,2.029-4.539,4.535-4.539
				c2.508,0,4.539,2.033,4.539,4.539C14.539,12.506,12.508,14.536,10,14.536 M20,11.092V8.815l-0.32-0.104l-2.438-0.799
				l-0.648-1.566l1.25-2.647L16.23,2.09L15.93,2.247l-2.283,1.162l-1.567-0.652l-0.988-2.754H8.818l-0.105,0.32L7.916,2.76
				L6.348,3.409L3.703,2.163L2.092,3.767l0.156,0.304l1.156,2.286L2.756,7.926L0.002,8.911v2.276l0.32,0.103l2.441,0.801
				l0.646,1.566l-1.252,2.646l1.611,1.605l0.301-0.152l2.285-1.158l1.572,0.648L8.91,20h2.277l0.104-0.319l0.797-2.438l1.57-0.648
				l2.643,1.248l1.611-1.606l-0.154-0.304l-1.162-2.283l0.652-1.568L20,11.092z"/>
		</g>
	</g>
</g>
<g id="Layer_1_1_">
</g>
</svg>
