<?xml version="1.0" encoding="utf-8"?>
<!-- Generator: Adobe Illustrator 16.0.0, SVG Export Plug-In . SVG Version: 6.00 Build 0)  -->
<!DOCTYPE svg PUBLIC "-//W3C//DTD SVG 1.1//EN" "http://www.w3.org/Graphics/SVG/1.1/DTD/svg11.dtd">
<svg version="1.1" id="Layer_1" xmlns="http://www.w3.org/2000/svg" xmlns:xlink="http://www.w3.org/1999/xlink" x="0px" y="0px"
	 width="20px" height="20px" viewBox="0 0 20 20" enable-background="new 0 0 20 20" xml:space="preserve">
<g id="gear-blue">
	<g>
		<rect id="le_wrappier_123_" fill="none" width="20" height="20"/>
		<path fill="#4E8ABE" d="M10.001,14.534c-2.507,0-4.536-2.028-4.536-4.53c0-2.507,2.029-4.539,4.536-4.539s4.538,2.032,4.538,4.539
			C14.539,12.506,12.508,14.534,10.001,14.534 M20,11.09V8.812l-0.318-0.104l-2.438-0.797l-0.647-1.566l1.25-2.647l-1.613-1.609
			l-0.301,0.156l-2.283,1.162L12.08,2.755L11.09,0H8.817L8.712,0.32L7.915,2.758L6.347,3.407L3.702,2.16L2.091,3.766l0.156,0.303
			l1.156,2.287L2.755,7.923L0.001,8.907v2.276l0.32,0.103l2.441,0.801l0.647,1.567L2.156,16.3l1.611,1.606l0.302-0.153l2.284-1.157
			l1.572,0.647l0.984,2.755h2.276l0.104-0.32l0.797-2.438l1.57-0.65l2.643,1.249l1.611-1.606l-0.154-0.305l-1.161-2.283l0.651-1.567
			L20,11.09z"/>
	</g>
</g>
<g id="Layer_1_1_">
</g>
</svg>
