<?xml version="1.0" encoding="iso-8859-1"?>
<!-- Generator: Adobe Illustrator 16.0.0, SVG Export Plug-In . SVG Version: 6.00 Build 0)  -->
<!DOCTYPE svg PUBLIC "-//W3C//DTD SVG 1.1//EN" "http://www.w3.org/Graphics/SVG/1.1/DTD/svg11.dtd">
<svg version="1.1" xmlns="http://www.w3.org/2000/svg" xmlns:xlink="http://www.w3.org/1999/xlink" x="0px" y="0px" width="20px"
	 height="20px" viewBox="0 0 20 20" style="enable-background:new 0 0 20 20;" xml:space="preserve">
<g id="gridview-performance">
	<g>
		<rect id="le_wrappier_89_" x="-1190" y="62" style="fill:none;" width="20" height="20"/>
		<path style="fill:#5590C1;" d="M-1187.909,69.296c1.155,0,2.091,0.937,2.091,2.093c0,0.455-0.147,0.877-0.396,1.221l2.093,3.2
			c0.142-0.031,0.29-0.048,0.44-0.048c0.093,0,0.184,0.009,0.274,0.021l4.506-8.28c-0.312-0.363-0.5-0.837-0.5-1.354
			c0-1.155,0.936-2.091,2.091-2.091s2.091,0.936,2.091,2.091c0,0.446-0.141,0.859-0.38,1.199l3.037,4.509
			c0.151-0.033,0.307-0.053,0.468-0.053c1.155,0,2.091,0.935,2.091,2.091c0,1.155-0.936,2.091-2.091,2.091s-2.091-0.936-2.091-2.091
			c0-0.447,0.141-0.86,0.38-1.2l-3.037-4.51c-0.15,0.035-0.307,0.055-0.468,0.055c-0.094,0-0.184-0.008-0.274-0.02l-4.508,8.279
			c0.312,0.365,0.501,0.838,0.501,1.355c0,1.155-0.936,2.09-2.091,2.09s-2.091-0.935-2.091-2.09c0-0.458,0.148-0.879,0.396-1.223
			l-2.093-3.199c-0.141,0.03-0.289,0.047-0.44,0.047c-1.155,0-2.091-0.936-2.091-2.09C-1190,70.232-1189.064,69.296-1187.909,69.296
			z"/>
	</g>
</g>
<g id="Layer_1">
</g>
</svg>
