<?xml version="1.0" encoding="utf-8"?>
<!-- Generator: Adobe Illustrator 16.0.0, SVG Export Plug-In . SVG Version: 6.00 Build 0)  -->
<!DOCTYPE svg PUBLIC "-//W3C//DTD SVG 1.1//EN" "http://www.w3.org/Graphics/SVG/1.1/DTD/svg11.dtd">
<svg version="1.1" id="Layer_1" xmlns="http://www.w3.org/2000/svg" xmlns:xlink="http://www.w3.org/1999/xlink" x="0px" y="0px"
	 width="20px" height="20px" viewBox="0 0 20 20" enable-background="new 0 0 20 20" xml:space="preserve">
<g id="gridview-performance">
	<g>
		<rect id="le_wrappier_89_" x="0" fill="none" width="20" height="20"/>
		<path fill="#5590C1" d="M2.091,7.296c1.155,0,2.091,0.937,2.091,2.093c0,0.455-0.146,0.877-0.396,1.221l2.093,3.201
			c0.142-0.031,0.29-0.049,0.44-0.049c0.093,0,0.184,0.01,0.274,0.021l4.506-8.28c-0.312-0.362-0.5-0.837-0.5-1.354
			c0-1.154,0.936-2.09,2.091-2.09s2.091,0.936,2.091,2.09c0,0.447-0.141,0.859-0.38,1.199l3.036,4.51
			c0.152-0.033,0.308-0.053,0.469-0.053c1.154,0,2.091,0.935,2.091,2.09s-0.937,2.092-2.091,2.092s-2.091-0.937-2.091-2.092
			c0-0.446,0.142-0.859,0.38-1.199l-3.037-4.51c-0.15,0.035-0.307,0.055-0.468,0.055c-0.095,0-0.185-0.008-0.274-0.02l-4.508,8.278
			c0.312,0.365,0.501,0.838,0.501,1.354c0,1.155-0.936,2.09-2.091,2.09s-2.091-0.935-2.091-2.09c0-0.457,0.148-0.879,0.396-1.223
			L2.53,11.432c-0.141,0.03-0.289,0.047-0.44,0.047C0.935,11.479,0,10.543,0,9.389C0,8.232,0.937,7.296,2.091,7.296z"/>
	</g>
</g>
<g id="Layer_1_1_">
</g>
</svg>
