<?xml version="1.0" encoding="utf-8"?>
<!-- Generator: Adobe Illustrator 16.0.0, SVG Export Plug-In . SVG Version: 6.00 Build 0)  -->
<!DOCTYPE svg PUBLIC "-//W3C//DTD SVG 1.1//EN" "http://www.w3.org/Graphics/SVG/1.1/DTD/svg11.dtd">
<svg version="1.1" id="Layer_1" xmlns="http://www.w3.org/2000/svg" xmlns:xlink="http://www.w3.org/1999/xlink" x="0px" y="0px"
	 width="20px" height="20px" viewBox="0 0 20 20" enable-background="new 0 0 20 20" xml:space="preserve">
<g id="gridview-list">
	<g>
		<rect id="le_wrappier_90_" x="0" y="0" fill="none" width="20" height="20"/>
		<g>
			<g id="button-2px-corner_81_">
				<path fill="#4E8ABE" d="M0,1.524C0,1.533,0.006,1.54,0.016,1.54h19.969C19.994,1.54,20,1.533,20,1.524V0.016
					C20,0.006,19.994,0,19.984,0H0.016C0.006,0,0,0.006,0,0.016V1.524z"/>
			</g>
			<g id="button-2px-corner_79_">
				<path fill="#4E8ABE" d="M0,19.984C0,19.994,0.006,20,0.016,20h19.969C19.994,20,20,19.994,20,19.984v-1.508
					c0-0.01-0.006-0.016-0.016-0.016H0.016C0.006,18.461,0,18.467,0,18.477V19.984z"/>
			</g>
			<g id="button-2px-corner_76_">
				<path fill="#4E8ABE" d="M0,6.139c0,0.01,0.007,0.016,0.016,0.016h19.969c0.01,0,0.016-0.006,0.016-0.016V4.633
					c0-0.009-0.006-0.016-0.016-0.016H0.016C0.006,4.618,0,4.625,0,4.633V6.139z"/>
			</g>
			<g id="button-2px-corner_74_">
				<path fill="#4E8ABE" d="M0,10.754c0,0.01,0.007,0.016,0.016,0.016h19.969c0.01,0,0.016-0.006,0.016-0.016V9.247
					c0-0.01-0.006-0.016-0.016-0.016H0.016C0.006,9.231,0,9.237,0,9.247V10.754z"/>
			</g>
			<g id="button-2px-corner_72_">
				<path fill="#4E8ABE" d="M0,15.369c0,0.01,0.007,0.016,0.016,0.016h19.969c0.01,0,0.016-0.006,0.016-0.016v-1.506
					c0-0.01-0.006-0.016-0.016-0.016H0.016C0.006,13.848,0,13.854,0,13.863V15.369z"/>
			</g>
		</g>
	</g>
</g>
<g id="Layer_1_1_">
</g>
</svg>
