<?xml version="1.0" encoding="utf-8"?>
<!-- Generator: Adobe Illustrator 16.0.0, SVG Export Plug-In . SVG Version: 6.00 Build 0)  -->
<!DOCTYPE svg PUBLIC "-//W3C//DTD SVG 1.1//EN" "http://www.w3.org/Graphics/SVG/1.1/DTD/svg11.dtd">
<svg version="1.1" id="Layer_1" xmlns="http://www.w3.org/2000/svg" xmlns:xlink="http://www.w3.org/1999/xlink" x="0px" y="0px"
	 width="20px" height="20px" viewBox="0 0 20 20" enable-background="new 0 0 20 20" xml:space="preserve">
<g id="gridview-columns-configure">
	<g>
		<rect id="le_wrappier_48_" fill="none" width="20" height="20"/>
		<g>
			<g>
				<path fill="#4E8ABE" d="M7.471,15.861c-0.006-0.006-0.015-0.016-0.019-0.023l-0.195-0.58c-0.001-0.009-0.008-0.016-0.017-0.016
					H6.446c-0.009,0-0.016-0.008-0.016-0.016v-1.99c0-0.008-0.005-0.021-0.01-0.026l-0.29-0.562
					c-0.002-0.008-0.004-0.021-0.004-0.029v-1.73c0-0.009,0.002-0.021,0.004-0.029l0.29-0.562c0.005-0.007,0.01-0.019,0.01-0.026
					V1.34c0-0.009,0.007-0.016,0.016-0.016h3.736c0.009,0,0.016,0.007,0.016,0.016v5.483c0,0.009,0.005,0.021,0.011,0.026
					c0.005,0.004,0.017,0.006,0.024,0.004l0.931-0.398c0.008-0.003,0.014-0.014,0.014-0.021v-0.58c0-0.009,0.002-0.021,0.004-0.029
					l0.334-0.592c0.006-0.006,0.012-0.019,0.012-0.026V1.34c0-0.009,0.007-0.016,0.016-0.016h3.738c0.009,0,0.016,0.007,0.016,0.016
					v5.446c0,0.009,0.006,0.019,0.016,0.021l0.089,0.037c0.008,0.004,0.02,0.002,0.026-0.005l0.414-0.415
					c0.006-0.006,0.019-0.014,0.025-0.018l0.745-0.16c0.009,0.001,0.016-0.006,0.016-0.016V1.34c0-0.009,0-0.021,0-0.031V0.016
					C16.628,0.007,16.621,0,16.612,0h-1.298c-0.01,0-0.022,0-0.031,0H6.447C6.438,0,6.425,0,6.416,0h-1.3C5.107,0,5.094,0,5.085,0
					H1.347C1.338,0,1.325,0,1.316,0H0.018C0.009,0,0.002,0.007,0.002,0.016v1.293c0,0.01,0,0.022,0,0.031v13.887
					c0,0.01,0,0.022,0,0.031v1.295c0,0.01,0.007,0.016,0.016,0.016h1.298c0.009,0,0.022,0,0.031,0h3.738c0.009,0,0.022,0,0.031,0
					h1.3c0.009,0,0.022,0,0.031,0h1.719c0.009,0,0.011-0.004,0.004-0.01L7.471,15.861z M5.099,15.227
					c0,0.01-0.007,0.017-0.016,0.017H1.345c-0.009,0-0.016-0.007-0.016-0.017V1.34c0-0.009,0.007-0.016,0.016-0.016h3.738
					c0.009,0,0.016,0.007,0.016,0.016V15.227z"/>
			</g>
			<path fill="#4E8ABE" d="M17.648,13.281c0.067-0.219,0.313-0.396,0.543-0.396h0.393c0.229,0,0.416-0.184,0.414-0.414l-0.002-1.434
				c0-0.227-0.188-0.414-0.416-0.414h-0.389c-0.229,0-0.476-0.178-0.543-0.395l-0.336-0.804c-0.107-0.2-0.062-0.5,0.1-0.659
				l0.281-0.281c0.162-0.162,0.162-0.426,0-0.588l-1.017-1.015c-0.162-0.157-0.426-0.157-0.587,0l-0.279,0.281
				c-0.162,0.16-0.459,0.205-0.662,0.101l-0.806-0.33c-0.219-0.068-0.396-0.312-0.396-0.543v-0.39c0-0.229-0.189-0.414-0.416-0.414
				h-1.438c-0.228,0-0.416,0.187-0.416,0.414v0.39c0,0.229-0.177,0.475-0.396,0.543l-0.808,0.33c-0.201,0.106-0.5,0.061-0.662-0.101
				L9.534,6.886c-0.16-0.161-0.425-0.161-0.586,0L7.932,7.9c-0.163,0.16-0.163,0.426,0,0.586l0.279,0.281
				C8.372,8.925,8.416,9.225,8.31,9.425l-0.334,0.804c-0.068,0.217-0.312,0.395-0.542,0.395H7.041c-0.23,0-0.415,0.188-0.415,0.414
				v1.434c0,0.23,0.185,0.414,0.415,0.414h0.393c0.229,0,0.475,0.178,0.542,0.396l0.334,0.807c0.106,0.201,0.062,0.498-0.099,0.66
				l-0.284,0.281c-0.162,0.162-0.161,0.424,0,0.584l1.019,1.014c0.161,0.158,0.428,0.158,0.588-0.002l0.278-0.279
				c0.162-0.16,0.461-0.207,0.662-0.1l0.808,0.334c0.217,0.068,0.396,0.312,0.396,0.543v0.393c0,0.229,0.188,0.414,0.416,0.414
				h1.438c0.227,0,0.416-0.186,0.416-0.414v-0.393c0-0.23,0.178-0.475,0.396-0.543l0.806-0.334c0.2-0.107,0.5-0.061,0.663,0.1
				l0.281,0.281c0.163,0.158,0.426,0.158,0.588-0.002l1.011-1.016c0.166-0.162,0.163-0.426,0-0.586l-0.279-0.275
				c-0.161-0.164-0.207-0.459-0.103-0.662L17.648,13.281z M12.812,13.77c-1.117,0-2.023-0.901-2.023-2.016
				c0-1.111,0.906-2.014,2.023-2.014c1.113,0,2.02,0.902,2.02,2.014C14.832,12.867,13.927,13.77,12.812,13.77z"/>
		</g>
	</g>
</g>
<g id="Layer_1_1_">
</g>
</svg>
