<?xml version="1.0" encoding="iso-8859-1"?>
<!-- Generator: Adobe Illustrator 16.0.0, SVG Export Plug-In . SVG Version: 6.00 Build 0)  -->
<!DOCTYPE svg PUBLIC "-//W3C//DTD SVG 1.1//EN" "http://www.w3.org/Graphics/SVG/1.1/DTD/svg11.dtd">
<svg version="1.1" xmlns="http://www.w3.org/2000/svg" xmlns:xlink="http://www.w3.org/1999/xlink" x="0px" y="0px" width="20px"
	 height="20px" viewBox="0 0 20 20" style="enable-background:new 0 0 20 20;" xml:space="preserve">
<g id="gridview-columns">
	<g>
		<rect id="le_wrappier_84_" x="-1190" y="62" style="fill:none;" width="20" height="20"/>
		<g>
			<g id="gridview-columns_1_">
				<path style="fill:#4E8ABE;" d="M-1171.585,62c-0.009,0-0.022,0-0.031,0h-10.636c-0.009,0-0.022,0-0.031,0h-1.567
					c-0.009,0-0.022,0-0.031,0h-4.503c-0.009,0-0.022,0-0.031,0h-1.568c-0.009,0-0.016,0.007-0.016,0.016v1.568
					c0,0.009,0,0.022,0,0.031v16.756c0,0.009,0,0.022,0,0.031v1.566c0,0.009,0.007,0.016,0.016,0.016h1.568c0.009,0,0.022,0,0.031,0
					h4.503c0.009,0,0.022,0,0.031,0h1.567c0.009,0,0.022,0,0.031,0h4.503c0.009,0,0.016,0.004,0.016,0.008s0.007,0.008,0.016,0.008
					h1.567c0.009,0,0.016-0.004,0.016-0.008s0.007-0.008,0.016-0.008h4.503c0.009,0,0.022,0,0.031,0h1.569
					c0.009,0,0.016-0.007,0.016-0.016v-1.566c0-0.009,0-0.022,0-0.031V63.615c0-0.009,0-0.022,0-0.031v-1.568
					c0-0.009-0.007-0.016-0.016-0.016H-1171.585z M-1183.866,80.371c0,0.009-0.007,0.016-0.016,0.016h-4.503
					c-0.009,0-0.016-0.007-0.016-0.016V63.615c0-0.009,0.007-0.016,0.016-0.016h4.503c0.009,0,0.016,0.007,0.016,0.016V80.371z
					 M-1177.733,80.371c0,0.009-0.007,0.016-0.016,0.016h-4.503c-0.009,0-0.016-0.007-0.016-0.016V63.615
					c0-0.009,0.007-0.016,0.016-0.016h4.503c0.009,0,0.016,0.007,0.016,0.016V80.371z M-1171.601,80.371
					c0,0.009-0.007,0.016-0.016,0.016h-4.503c-0.009,0-0.016-0.007-0.016-0.016V63.615c0-0.009,0.007-0.016,0.016-0.016h4.503
					c0.009,0,0.016,0.007,0.016,0.016V80.371z"/>
			</g>
		</g>
	</g>
</g>
<g id="Layer_1">
</g>
</svg>
