<?xml version="1.0" encoding="iso-8859-1"?>
<!-- Generator: Adobe Illustrator 16.0.0, SVG Export Plug-In . SVG Version: 6.00 Build 0)  -->
<!DOCTYPE svg PUBLIC "-//W3C//DTD SVG 1.1//EN" "http://www.w3.org/Graphics/SVG/1.1/DTD/svg11.dtd">
<svg version="1.1" xmlns="http://www.w3.org/2000/svg" xmlns:xlink="http://www.w3.org/1999/xlink" x="0px" y="0px" width="20px"
	 height="20px" viewBox="0 0 20 20" style="enable-background:new 0 0 20 20;" xml:space="preserve">
<g id="gridview-columns-configure">
	<g id="Gear">
		<g>
			<rect id="le_wrappier_48_" x="-1190" y="62" style="fill:none;" width="20" height="20"/>
			<g>
				<g>
					<g>
						<path style="fill:#4E8ABE;" d="M-1182.529,77.862c-0.006-0.006-0.015-0.017-0.019-0.024l-0.195-0.58
							c-0.001-0.009-0.008-0.016-0.017-0.016h-0.794c-0.009,0-0.016-0.007-0.016-0.016v-1.989c0-0.009-0.005-0.021-0.01-0.027
							l-0.29-0.561c-0.002-0.008-0.004-0.021-0.004-0.03v-1.73c0-0.009,0.002-0.022,0.004-0.03l0.29-0.561
							c0.005-0.007,0.01-0.019,0.01-0.027V63.34c0-0.009,0.007-0.016,0.016-0.016h3.736c0.009,0,0.016,0.007,0.016,0.016v5.483
							c0,0.009,0.005,0.021,0.011,0.026c0.005,0.005,0.017,0.007,0.024,0.004l0.931-0.398c0.008-0.003,0.014-0.013,0.014-0.021
							v-0.58c0-0.009,0.002-0.022,0.004-0.03l0.334-0.592c0.006-0.006,0.011-0.018,0.011-0.026V63.34
							c0-0.009,0.007-0.016,0.016-0.016h3.738c0.009,0,0.016,0.007,0.016,0.016v5.446c0,0.009,0.006,0.019,0.015,0.021l0.089,0.037
							c0.008,0.003,0.02,0.001,0.026-0.005l0.415-0.415c0.006-0.006,0.018-0.014,0.025-0.018l0.745-0.16
							c0.009,0.001,0.016-0.006,0.016-0.015V63.34c0-0.009,0-0.022,0-0.031v-1.293c0-0.009-0.007-0.016-0.016-0.016h-1.298
							c-0.009,0-0.022,0-0.031,0h-8.836c-0.009,0-0.022,0-0.031,0h-1.3c-0.009,0-0.022,0-0.031,0h-3.738c-0.009,0-0.022,0-0.031,0
							h-1.298c-0.009,0-0.016,0.007-0.016,0.016v1.293c0,0.009,0,0.022,0,0.031v13.887c0,0.009,0,0.022,0,0.031v1.295
							c0,0.009,0.007,0.016,0.016,0.016h1.298c0.009,0,0.022,0,0.031,0h3.738c0.009,0,0.022,0,0.031,0h1.3c0.009,0,0.022,0,0.031,0
							h1.719c0.009,0,0.011-0.005,0.004-0.011L-1182.529,77.862z M-1184.901,77.227c0,0.009-0.007,0.016-0.016,0.016h-3.738
							c-0.009,0-0.016-0.007-0.016-0.016V63.34c0-0.009,0.007-0.016,0.016-0.016h3.738c0.009,0,0.016,0.007,0.016,0.016V77.227z"/>
					</g>
				</g>
				<path style="fill:#4E8ABE;" d="M-1172.352,75.281c0.068-0.219,0.314-0.396,0.543-0.396h0.393c0.229,0,0.416-0.184,0.414-0.414
					l-0.002-1.434c0-0.227-0.188-0.414-0.416-0.414h-0.389c-0.229,0-0.475-0.178-0.543-0.395l-0.335-0.803
					c-0.108-0.201-0.062-0.5,0.099-0.66l0.281-0.281c0.163-0.162,0.163-0.426,0-0.588l-1.016-1.014
					c-0.162-0.158-0.426-0.158-0.587,0l-0.279,0.281c-0.162,0.16-0.459,0.205-0.662,0.1l-0.806-0.33
					c-0.219-0.068-0.396-0.312-0.396-0.543v-0.389c0-0.229-0.189-0.414-0.416-0.414h-1.438c-0.228,0-0.416,0.186-0.416,0.414v0.389
					c0,0.23-0.177,0.475-0.396,0.543l-0.807,0.33c-0.201,0.107-0.5,0.061-0.662-0.1l-0.278-0.277c-0.16-0.162-0.425-0.162-0.586,0
					l-1.016,1.014c-0.163,0.16-0.163,0.426,0,0.586l0.279,0.281c0.161,0.158,0.205,0.457,0.099,0.658l-0.334,0.803
					c-0.068,0.217-0.313,0.395-0.542,0.395h-0.393c-0.23,0-0.415,0.188-0.415,0.414v1.434c0,0.23,0.185,0.414,0.415,0.414h0.393
					c0.229,0,0.475,0.178,0.542,0.396l0.334,0.807c0.106,0.201,0.062,0.498-0.099,0.66l-0.284,0.281
					c-0.162,0.162-0.161,0.424,0,0.584l1.019,1.014c0.161,0.158,0.428,0.158,0.588-0.002l0.278-0.279
					c0.162-0.16,0.461-0.207,0.662-0.1l0.807,0.334c0.217,0.068,0.396,0.312,0.396,0.543v0.393c0,0.229,0.188,0.414,0.416,0.414
					h1.438c0.227,0,0.416-0.186,0.416-0.414v-0.393c0-0.23,0.178-0.475,0.396-0.543l0.805-0.334c0.201-0.107,0.5-0.061,0.664,0.1
					l0.281,0.281c0.163,0.158,0.426,0.158,0.588-0.002l1.011-1.016c0.165-0.162,0.163-0.426,0-0.586l-0.28-0.275
					c-0.161-0.164-0.207-0.459-0.102-0.662L-1172.352,75.281z M-1177.188,75.77c-1.117,0-2.023-0.902-2.023-2.016
					c0-1.111,0.906-2.014,2.023-2.014c1.114,0,2.02,0.902,2.02,2.014C-1175.168,74.867-1176.073,75.77-1177.188,75.77z"/>
			</g>
		</g>
	</g>
</g>
<g id="Layer_1">
</g>
</svg>
