<?xml version="1.0" encoding="utf-8"?>
<!-- Generator: Adobe Illustrator 16.0.0, SVG Export Plug-In . SVG Version: 6.00 Build 0)  -->
<!DOCTYPE svg PUBLIC "-//W3C//DTD SVG 1.1//EN" "http://www.w3.org/Graphics/SVG/1.1/DTD/svg11.dtd">
<svg version="1.1" id="Layer_1" xmlns="http://www.w3.org/2000/svg" xmlns:xlink="http://www.w3.org/1999/xlink" x="0px" y="0px"
	 width="20px" height="20px" viewBox="0 0 20 20" enable-background="new 0 0 20 20" xml:space="preserve">
<g id="gridview-thumbnail">
	<g>
		<rect id="le_wrappier_87_" x="0" fill="none" width="20" height="20"/>
		<g>
			<g>
				<g id="button-2px-corner_62_">
					<path fill="#4E8ABE" d="M15.385,4.602c0,0.01,0.008,0.017,0.017,0.017h4.583c0.01,0,0.016-0.007,0.016-0.017V0.016
						C20,0.007,19.994,0,19.984,0h-4.583c-0.009,0-0.017,0.007-0.017,0.016V4.602z"/>
				</g>
				<g id="button-2px-corner_57_">
					<path fill="#4E8ABE" d="M7.689,4.602c0,0.01,0.007,0.017,0.016,0.017h4.585c0.008,0,0.016-0.007,0.016-0.017V0.016
						C12.307,0.007,12.299,0,12.291,0H7.706C7.696,0,7.689,0.007,7.689,0.016V4.602z"/>
				</g>
				<g id="button-2px-corner_52_">
					<path fill="#4E8ABE" d="M0,4.602c0,0.01,0.007,0.017,0.016,0.017h4.585c0.009,0,0.016-0.007,0.016-0.017V0.016
						C4.617,0.007,4.609,0,4.601,0H0.016C0.006,0,0,0.007,0,0.016V4.602z"/>
				</g>
			</g>
			<g>
				<g id="button-2px-corner_50_">
					<path fill="#4E8ABE" d="M15.385,19.984c0,0.009,0.008,0.016,0.017,0.016h4.583C19.994,20,20,19.993,20,19.984V15.4
						c0-0.01-0.006-0.017-0.016-0.017h-4.583c-0.009,0-0.017,0.007-0.017,0.017V19.984z"/>
				</g>
				<g id="button-2px-corner_48_">
					<path fill="#4E8ABE" d="M7.689,19.984C7.689,19.993,7.696,20,7.706,20h4.585c0.008,0,0.016-0.007,0.016-0.016V15.4
						c0-0.01-0.008-0.017-0.016-0.017H7.706c-0.009,0-0.016,0.007-0.016,0.017V19.984z"/>
				</g>
				<g id="button-2px-corner_46_">
					<path fill="#4E8ABE" d="M0,19.984C0,19.993,0.006,20,0.016,20h4.585c0.009,0,0.016-0.007,0.016-0.016V15.4
						c0-0.01-0.007-0.017-0.016-0.017H0.016C0.006,15.384,0,15.391,0,15.4V19.984z"/>
				</g>
				<g id="button-2px-corner_44_">
					<path fill="#4E8ABE" d="M15.385,12.379c0,0.01,0.008,0.016,0.017,0.016h4.583c0.01,0,0.016-0.006,0.016-0.016V7.795
						c0-0.009-0.006-0.016-0.016-0.016h-4.583c-0.009,0-0.017,0.007-0.017,0.016V12.379z"/>
				</g>
				<g id="button-2px-corner_42_">
					<path fill="#4E8ABE" d="M7.689,12.379c0,0.01,0.007,0.016,0.016,0.016h4.585c0.008,0,0.016-0.006,0.016-0.016V7.795
						c0-0.009-0.008-0.016-0.016-0.016H7.706c-0.009,0-0.016,0.007-0.016,0.016V12.379z"/>
				</g>
				<g id="button-2px-corner_17_">
					<path fill="#4E8ABE" d="M0,12.379c0,0.01,0.007,0.016,0.016,0.016h4.585c0.009,0,0.016-0.006,0.016-0.016V7.795
						c0-0.009-0.007-0.016-0.016-0.016H0.016C0.006,7.779,0,7.786,0,7.795V12.379z"/>
				</g>
			</g>
		</g>
	</g>
</g>
<g id="Layer_1_1_">
</g>
</svg>
