<?xml version="1.0" encoding="iso-8859-1"?>
<!-- Generator: Adobe Illustrator 16.0.0, SVG Export Plug-In . SVG Version: 6.00 Build 0)  -->
<!DOCTYPE svg PUBLIC "-//W3C//DTD SVG 1.1//EN" "http://www.w3.org/Graphics/SVG/1.1/DTD/svg11.dtd">
<svg version="1.1" xmlns="http://www.w3.org/2000/svg" xmlns:xlink="http://www.w3.org/1999/xlink" x="0px" y="0px" width="20px"
	 height="20px" viewBox="0 0 20 20" style="enable-background:new 0 0 20 20;" xml:space="preserve">
<g id="gridview-thumbnail">
	<g>
		<rect id="le_wrappier_87_" x="-1190" y="62" style="fill:none;" width="20" height="20"/>
		<g>
			<g id="button-2px-corner_62_">
				<path style="fill:#4E8ABE;" d="M-1174.614,66.602c0,0.009,0.007,0.016,0.016,0.016h4.583c0.009,0,0.016-0.007,0.016-0.016
					v-4.586c0-0.009-0.007-0.016-0.016-0.016h-4.583c-0.009,0-0.016,0.007-0.016,0.016V66.602z"/>
			</g>
			<g id="button-2px-corner_57_">
				<path style="fill:#4E8ABE;" d="M-1182.31,66.602c0,0.009,0.007,0.016,0.016,0.016h4.585c0.009,0,0.016-0.007,0.016-0.016v-4.586
					c0-0.009-0.007-0.016-0.016-0.016h-4.585c-0.009,0-0.016,0.007-0.016,0.016V66.602z"/>
			</g>
			<g id="button-2px-corner_52_">
				<path style="fill:#4E8ABE;" d="M-1190,66.602c0,0.009,0.007,0.016,0.016,0.016h4.585c0.009,0,0.016-0.007,0.016-0.016v-4.586
					c0-0.009-0.007-0.016-0.016-0.016h-4.585c-0.009,0-0.016,0.007-0.016,0.016V66.602z"/>
			</g>
			<g id="button-2px-corner_50_">
				<path style="fill:#4E8ABE;" d="M-1174.614,81.984c0,0.009,0.007,0.016,0.016,0.016h4.583c0.009,0,0.016-0.007,0.016-0.016V77.4
					c0-0.009-0.007-0.016-0.016-0.016h-4.583c-0.009,0-0.016,0.007-0.016,0.016V81.984z"/>
			</g>
			<g id="button-2px-corner_48_">
				<path style="fill:#4E8ABE;" d="M-1182.31,81.984c0,0.009,0.007,0.016,0.016,0.016h4.585c0.009,0,0.016-0.007,0.016-0.016V77.4
					c0-0.009-0.007-0.016-0.016-0.016h-4.585c-0.009,0-0.016,0.007-0.016,0.016V81.984z"/>
			</g>
			<g id="button-2px-corner_46_">
				<path style="fill:#4E8ABE;" d="M-1190,81.984c0,0.009,0.007,0.016,0.016,0.016h4.585c0.009,0,0.016-0.007,0.016-0.016V77.4
					c0-0.009-0.007-0.016-0.016-0.016h-4.585c-0.009,0-0.016,0.007-0.016,0.016V81.984z"/>
			</g>
			<g id="button-2px-corner_44_">
				<path style="fill:#4E8ABE;" d="M-1174.614,73.908c0,0.009,0.007,0.016,0.016,0.016h4.583c0.009,0,0.016-0.007,0.016-0.016
					v-4.584c0-0.009-0.007-0.016-0.016-0.016h-4.583c-0.009,0-0.016,0.007-0.016,0.016V73.908z"/>
			</g>
			<g id="button-2px-corner_42_">
				<path style="fill:#4E8ABE;" d="M-1182.31,73.908c0,0.009,0.007,0.016,0.016,0.016h4.585c0.009,0,0.016-0.007,0.016-0.016v-4.584
					c0-0.009-0.007-0.016-0.016-0.016h-4.585c-0.009,0-0.016,0.007-0.016,0.016V73.908z"/>
			</g>
			<g id="button-2px-corner_17_">
				<path style="fill:#4E8ABE;" d="M-1190,73.908c0,0.009,0.007,0.016,0.016,0.016h4.585c0.009,0,0.016-0.007,0.016-0.016v-4.584
					c0-0.009-0.007-0.016-0.016-0.016h-4.585c-0.009,0-0.016,0.007-0.016,0.016V73.908z"/>
			</g>
		</g>
	</g>
</g>
<g id="Layer_1">
</g>
</svg>
