<?xml version="1.0" encoding="iso-8859-1"?>
<!-- Generator: Adobe Illustrator 16.0.0, SVG Export Plug-In . SVG Version: 6.00 Build 0)  -->
<!DOCTYPE svg PUBLIC "-//W3C//DTD SVG 1.1//EN" "http://www.w3.org/Graphics/SVG/1.1/DTD/svg11.dtd">
<svg version="1.1" id="Layer_1" xmlns="http://www.w3.org/2000/svg" xmlns:xlink="http://www.w3.org/1999/xlink" x="0px" y="0px"
	 width="20px" height="19.367px" viewBox="0 0 20 19.367" style="enable-background:new 0 0 20 19.367;" xml:space="preserve">
<g id="gridview-performance">
	<g>
		<path style="fill:#5590C1;" d="M2.111,6.758c1.152,0,2.086,0.935,2.086,2.086c0,0.455-0.146,0.877-0.396,1.22l2.088,3.19
			c0.142-0.029,0.289-0.047,0.439-0.047c0.093,0,0.184,0.008,0.273,0.021l4.494-8.259c-0.311-0.362-0.498-0.836-0.498-1.352
			c0-1.152,0.934-2.086,2.086-2.086s2.086,0.934,2.086,2.086c0,0.445-0.141,0.857-0.379,1.196l3.029,4.498
			c0.15-0.034,0.307-0.054,0.467-0.054c1.152,0,2.086,0.933,2.086,2.085s-0.934,2.086-2.086,2.086s-2.086-0.934-2.086-2.086
			c0-0.445,0.141-0.857,0.379-1.197L13.15,5.648c-0.149,0.035-0.307,0.055-0.467,0.055c-0.094,0-0.184-0.008-0.272-0.02
			l-4.496,8.257c0.311,0.365,0.5,0.836,0.5,1.352c0,1.152-0.934,2.086-2.086,2.086c-1.152,0-2.086-0.934-2.086-2.086
			c0-0.455,0.146-0.875,0.395-1.219L2.55,10.882c-0.141,0.029-0.288,0.049-0.439,0.049c-1.152,0-2.086-0.933-2.086-2.087
			C0.025,7.691,0.959,6.758,2.111,6.758z"/>
		<rect id="le_wrappier_89_" style="fill:none;" width="20" height="19.367"/>
	</g>
</g>
<g id="Layer_1_1_">
</g>
</svg>
