<?xml version="1.0" encoding="iso-8859-1"?>
<!-- Generator: Adobe Illustrator 16.0.0, SVG Export Plug-In . SVG Version: 6.00 Build 0)  -->
<!DOCTYPE svg PUBLIC "-//W3C//DTD SVG 1.1//EN" "http://www.w3.org/Graphics/SVG/1.1/DTD/svg11.dtd">
<svg version="1.1" xmlns="http://www.w3.org/2000/svg" xmlns:xlink="http://www.w3.org/1999/xlink" x="0px" y="0px" width="20px"
	 height="20px" viewBox="0 0 20 20" style="enable-background:new 0 0 20 20;" xml:space="preserve">
<g id="gridview-list">
	<rect id="le_wrappier_51_" style="fill:none;" width="20" height="20"/>
	<g>
		<g id="button-2px-corner_71_">
			<path style="fill:#4E8ABE;" d="M0,1.523c0,0.009,0.007,0.016,0.016,0.016h19.969C19.993,1.539,20,1.532,20,1.523V0.016
				C20,0.007,19.993,0,19.984,0H0.016C0.007,0,0,0.007,0,0.016V1.523z"/>
		</g>
		<g id="button-2px-corner_69_">
			<path style="fill:#4E8ABE;" d="M0,19.984C0,19.993,0.007,20,0.016,20h19.969C19.993,20,20,19.993,20,19.984v-1.508
				c0-0.009-0.007-0.016-0.016-0.016H0.016C0.007,18.461,0,18.468,0,18.477V19.984z"/>
		</g>
		<g id="button-2px-corner_67_">
			<path style="fill:#4E8ABE;" d="M0,6.139c0,0.009,0.007,0.016,0.016,0.016h19.969C19.993,6.154,20,6.147,20,6.139V4.633
				c0-0.009-0.007-0.016-0.016-0.016H0.016C0.007,4.617,0,4.624,0,4.633V6.139z"/>
		</g>
		<g id="button-2px-corner_64_">
			<path style="fill:#4E8ABE;" d="M0,10.754c0,0.009,0.007,0.016,0.016,0.016h19.969c0.009,0,0.016-0.007,0.016-0.016V9.246
				c0-0.009-0.007-0.016-0.016-0.016H0.016C0.007,9.23,0,9.237,0,9.246V10.754z"/>
		</g>
		<g id="button-2px-corner_62_">
			<path style="fill:#4E8ABE;" d="M0,15.369c0,0.009,0.007,0.016,0.016,0.016h19.969c0.009,0,0.016-0.007,0.016-0.016v-1.506
				c0-0.009-0.007-0.016-0.016-0.016H0.016C0.007,13.848,0,13.854,0,13.863V15.369z"/>
		</g>
	</g>
</g>
<g id="Layer_1">
</g>
</svg>
