<?xml version="1.0" encoding="utf-8"?>
<!-- Generator: Adobe Illustrator 16.0.0, SVG Export Plug-In . SVG Version: 6.00 Build 0)  -->
<!DOCTYPE svg PUBLIC "-//W3C//DTD SVG 1.1//EN" "http://www.w3.org/Graphics/SVG/1.1/DTD/svg11.dtd">
<svg version="1.1" id="Layer_1" xmlns="http://www.w3.org/2000/svg" xmlns:xlink="http://www.w3.org/1999/xlink" x="0px" y="0px"
	 width="20px" height="20px" viewBox="0 0 20 20" enable-background="new 0 0 20 20" xml:space="preserve">
<g id="gridview-columns">
	<g>
		<rect id="le_wrappier_84_" x="0" fill="none" width="20" height="20"/>
		<g>
			<g id="gridview-columns_1_">
				<path fill="#4E8ABE" d="M18.414,0c-0.008,0-0.021,0-0.031,0H7.748C7.739,0,7.726,0,7.716,0H6.149C6.141,0,6.127,0,6.119,0H1.616
					C1.606,0,1.593,0,1.584,0H0.017C0.007,0,0,0.007,0,0.016v1.568c0,0.009,0,0.021,0,0.031v16.756c0,0.009,0,0.021,0,0.031v1.565
					c0,0.009,0.007,0.017,0.016,0.017h1.568c0.009,0,0.022,0,0.031,0h4.503c0.009,0,0.022,0,0.031,0h1.567c0.009,0,0.022,0,0.031,0
					h4.502c0.01,0,0.017,0.004,0.017,0.008S12.273,20,12.283,20h1.566c0.01,0,0.016-0.004,0.016-0.008s0.008-0.008,0.016-0.008
					h4.504c0.009,0,0.021,0,0.031,0h1.568c0.01,0,0.016-0.008,0.016-0.017v-1.565c0-0.01,0-0.022,0-0.031V1.615
					c0-0.01,0-0.022,0-0.031V0.016C20,0.007,19.994,0,19.984,0H18.414z M6.133,18.371c0,0.009-0.007,0.016-0.016,0.016H1.615
					c-0.009,0-0.016-0.007-0.016-0.016V1.615c0-0.01,0.007-0.016,0.016-0.016h4.503c0.009,0,0.016,0.006,0.016,0.016V18.371z
					 M12.267,18.371c0,0.009-0.007,0.016-0.017,0.016H7.748c-0.009,0-0.016-0.007-0.016-0.016V1.615c0-0.01,0.007-0.016,0.016-0.016
					h4.502c0.01,0,0.017,0.006,0.017,0.016V18.371z M18.398,18.371c0,0.009-0.007,0.016-0.016,0.016h-4.504
					c-0.008,0-0.016-0.007-0.016-0.016V1.615c0-0.01,0.008-0.016,0.016-0.016h4.504c0.009,0,0.016,0.006,0.016,0.016V18.371z"/>
			</g>
		</g>
	</g>
</g>
<g id="Layer_1_1_">
</g>
</svg>
