<?xml version="1.0" encoding="iso-8859-1"?>
<!-- Generator: Adobe Illustrator 16.0.0, SVG Export Plug-In . SVG Version: 6.00 Build 0)  -->
<!DOCTYPE svg PUBLIC "-//W3C//DTD SVG 1.1//EN" "http://www.w3.org/Graphics/SVG/1.1/DTD/svg11.dtd">
<svg version="1.1" xmlns="http://www.w3.org/2000/svg" xmlns:xlink="http://www.w3.org/1999/xlink" x="0px" y="0px" width="20px"
	 height="20px" viewBox="0 0 20 20" style="enable-background:new 0 0 20 20;" xml:space="preserve">
<g id="gridview-columns">
	<g>
		<rect id="le_wrappier_20_" style="fill:none;" width="20" height="20"/>
		<g>
			<g id="gridview-columns_1_">
				<path style="fill:#4E8ABE;" d="M18.415,0c-0.009,0-0.022,0-0.031,0H7.748C7.739,0,7.726,0,7.717,0H6.149
					C6.141,0,6.127,0,6.118,0H1.615C1.606,0,1.593,0,1.584,0H0.016C0.007,0,0,0.007,0,0.016v1.568c0,0.009,0,0.022,0,0.031v16.756
					c0,0.009,0,0.022,0,0.031v1.566c0,0.009,0.007,0.016,0.016,0.016h1.568c0.009,0,0.022,0,0.031,0h4.503c0.009,0,0.022,0,0.031,0
					h1.567c0.009,0,0.022,0,0.031,0h4.503c0.009,0,0.016,0.004,0.016,0.008S12.273,20,12.282,20h1.567
					c0.009,0,0.016-0.004,0.016-0.008s0.007-0.008,0.016-0.008h4.503c0.009,0,0.022,0,0.031,0h1.569
					c0.009,0,0.016-0.007,0.016-0.016v-1.566c0-0.009,0-0.022,0-0.031V1.615c0-0.009,0-0.022,0-0.031V0.016
					C20,0.007,19.993,0,19.984,0H18.415z M6.134,18.371c0,0.009-0.007,0.016-0.016,0.016H1.615c-0.009,0-0.016-0.007-0.016-0.016
					V1.615C1.6,1.606,1.606,1.6,1.615,1.6h4.503c0.009,0,0.016,0.007,0.016,0.016V18.371z M12.267,18.371
					c0,0.009-0.007,0.016-0.016,0.016H7.748c-0.009,0-0.016-0.007-0.016-0.016V1.615c0-0.009,0.007-0.016,0.016-0.016h4.503
					c0.009,0,0.016,0.007,0.016,0.016V18.371z M18.399,18.371c0,0.009-0.007,0.016-0.016,0.016h-4.503
					c-0.009,0-0.016-0.007-0.016-0.016V1.615c0-0.009,0.007-0.016,0.016-0.016h4.503c0.009,0,0.016,0.007,0.016,0.016V18.371z"/>
			</g>
		</g>
	</g>
</g>
<g id="Layer_1">
</g>
</svg>
