<?xml version="1.0" encoding="iso-8859-1"?>
<!-- Generator: Adobe Illustrator 16.0.0, SVG Export Plug-In . SVG Version: 6.00 Build 0)  -->
<!DOCTYPE svg PUBLIC "-//W3C//DTD SVG 1.1//EN" "http://www.w3.org/Graphics/SVG/1.1/DTD/svg11.dtd">
<svg version="1.1" xmlns="http://www.w3.org/2000/svg" xmlns:xlink="http://www.w3.org/1999/xlink" x="0px" y="0px" width="20px"
	 height="20px" viewBox="0 0 20 20" style="enable-background:new 0 0 20 20;" xml:space="preserve">
<g id="gridview-performance">
	<g>
		<path style="fill:#5590C1;" d="M-1187.889,68.758c1.152,0,2.086,0.934,2.086,2.086c0,0.455-0.146,0.876-0.395,1.219l2.088,3.191
			c0.142-0.03,0.289-0.047,0.439-0.047c0.093,0,0.184,0.008,0.273,0.02l4.494-8.258c-0.311-0.363-0.498-0.836-0.498-1.352
			c0-1.152,0.934-2.086,2.086-2.086s2.086,0.934,2.086,2.086c0,0.445-0.141,0.857-0.379,1.196l3.029,4.498
			c0.15-0.034,0.307-0.054,0.467-0.054c1.152,0,2.086,0.933,2.086,2.086c0,1.152-0.934,2.086-2.086,2.086s-2.086-0.934-2.086-2.086
			c0-0.446,0.141-0.858,0.379-1.197l-3.029-4.498c-0.15,0.035-0.307,0.055-0.467,0.055c-0.094,0-0.184-0.008-0.273-0.02
			l-4.496,8.258c0.311,0.364,0.5,0.836,0.5,1.352c0,1.152-0.934,2.086-2.086,2.086s-2.086-0.934-2.086-2.086
			c0-0.456,0.147-0.876,0.395-1.219l-2.088-3.191c-0.141,0.029-0.288,0.047-0.439,0.047c-1.152,0-2.086-0.933-2.086-2.086
			C-1189.975,69.691-1189.041,68.758-1187.889,68.758z"/>
		<rect id="le_wrappier_89_" x="-1190" y="62" style="fill:none;" width="20" height="20"/>
	</g>
</g>
<g id="Layer_1">
</g>
</svg>
