<?xml version="1.0" encoding="iso-8859-1"?>
<!-- Generator: Adobe Illustrator 16.0.0, SVG Export Plug-In . SVG Version: 6.00 Build 0)  -->
<!DOCTYPE svg PUBLIC "-//W3C//DTD SVG 1.1//EN" "http://www.w3.org/Graphics/SVG/1.1/DTD/svg11.dtd">
<svg version="1.1" xmlns="http://www.w3.org/2000/svg" xmlns:xlink="http://www.w3.org/1999/xlink" x="0px" y="0px"
	 width="20.078px" height="20px" viewBox="0 0 20.078 20" style="enable-background:new 0 0 20.078 20;" xml:space="preserve">
<g id="gridview-list">
	<rect id="le_wrappier_90_" style="fill:none;" width="20" height="20"/>
	<g>
		<g id="button-2px-corner_81_">
			<path style="fill:#4E8ABE;" d="M0.078,1.523c0,0.009,0.007,0.016,0.016,0.016h19.969c0.009,0,0.016-0.007,0.016-0.016V0.016
				C20.078,0.007,20.071,0,20.062,0H0.094C0.085,0,0.078,0.007,0.078,0.016V1.523z"/>
		</g>
		<g id="button-2px-corner_79_">
			<path style="fill:#4E8ABE;" d="M0.078,19.984C0.078,19.993,0.085,20,0.094,20h19.969c0.009,0,0.016-0.007,0.016-0.016v-1.508
				c0-0.009-0.007-0.016-0.016-0.016H0.094c-0.009,0-0.016,0.007-0.016,0.016V19.984z"/>
		</g>
		<g id="button-2px-corner_76_">
			<path style="fill:#4E8ABE;" d="M0.078,6.139c0,0.009,0.007,0.016,0.016,0.016h19.969c0.009,0,0.016-0.007,0.016-0.016V4.633
				c0-0.009-0.007-0.016-0.016-0.016H0.094c-0.009,0-0.016,0.007-0.016,0.016V6.139z"/>
		</g>
		<g id="button-2px-corner_74_">
			<path style="fill:#4E8ABE;" d="M0.078,10.754c0,0.009,0.007,0.016,0.016,0.016h19.969c0.009,0,0.016-0.007,0.016-0.016V9.246
				c0-0.009-0.007-0.016-0.016-0.016H0.094c-0.009,0-0.016,0.007-0.016,0.016V10.754z"/>
		</g>
		<g id="button-2px-corner_72_">
			<path style="fill:#4E8ABE;" d="M0.078,15.369c0,0.009,0.007,0.016,0.016,0.016h19.969c0.009,0,0.016-0.007,0.016-0.016v-1.506
				c0-0.009-0.007-0.016-0.016-0.016H0.094c-0.009,0-0.016,0.007-0.016,0.016V15.369z"/>
		</g>
	</g>
</g>
<g id="Layer_1">
</g>
</svg>
