<?xml version="1.0" encoding="iso-8859-1"?>
<!-- Generator: Adobe Illustrator 16.0.0, SVG Export Plug-In . SVG Version: 6.00 Build 0)  -->
<!DOCTYPE svg PUBLIC "-//W3C//DTD SVG 1.1//EN" "http://www.w3.org/Graphics/SVG/1.1/DTD/svg11.dtd">
<svg version="1.1" xmlns="http://www.w3.org/2000/svg" xmlns:xlink="http://www.w3.org/1999/xlink" x="0px" y="0px" width="20px"
	 height="20px" viewBox="0 0 20 20" style="enable-background:new 0 0 20 20;" xml:space="preserve">
<g id="info">
	<g>
		<rect id="le_wrappier_119_" style="fill:none;" width="20" height="20"/>
		<g>
			<g>
				<linearGradient id="SVGID_1_" gradientUnits="userSpaceOnUse" x1="9.9995" y1="-9.765625e-04" x2="9.9995" y2="20.0005">
					<stop  offset="0" style="stop-color:#A0C7E7"/>
					<stop  offset="0.5666" style="stop-color:#5698D0"/>
					<stop  offset="0.7" style="stop-color:#448CCA"/>
				</linearGradient>
				<circle style="fill:url(#SVGID_1_);" cx="10" cy="10" r="10"/>
			</g>
			<g>
				<path style="fill:#FFFFFF;" d="M8.387,10.284C8.379,9.925,8.371,9.615,8.361,9.358C8.352,9.101,8.34,8.866,8.324,8.655
					S8.291,8.195,8.27,7.906c0.289,0.052,0.574,0.088,0.857,0.108C9.41,8.034,9.701,8.045,10,8.045c0.596,0,1.178-0.046,1.744-0.139
					c-0.062,0.845-0.102,1.619-0.115,2.325c-0.016,0.704-0.023,1.305-0.023,1.799v0.834c0,0.236,0.002,0.494,0.008,0.772
					c0.006,0.277,0.01,0.555,0.016,0.833c0.004,0.278,0.014,0.549,0.031,0.812c0.016,0.263,0.027,0.502,0.037,0.718
					c-0.297-0.041-0.6-0.074-0.902-0.101c-0.305-0.025-0.605-0.039-0.904-0.039c-0.268,0-0.539,0.017-0.818,0.047
					c-0.277,0.031-0.551,0.062-0.818,0.093c0.031-0.371,0.057-0.69,0.078-0.958c0.02-0.268,0.033-0.548,0.037-0.842
					c0.006-0.293,0.01-0.632,0.018-1.018c0.004-0.388,0.006-0.879,0.006-1.476C8.393,11.119,8.391,10.646,8.387,10.284z M8.51,5.003
					c0.088-0.195,0.205-0.367,0.355-0.517c0.148-0.148,0.32-0.267,0.516-0.354C9.578,4.044,9.789,4,10.014,4
					c0.217,0,0.424,0.044,0.619,0.132S11,4.335,11.15,4.479c0.148,0.145,0.268,0.316,0.355,0.518c0.086,0.2,0.131,0.409,0.131,0.625
					c0,0.217-0.045,0.425-0.131,0.625c-0.088,0.201-0.207,0.373-0.355,0.518C11,6.908,10.828,7.024,10.633,7.112
					c-0.195,0.087-0.402,0.131-0.619,0.131c-0.225,0-0.436-0.044-0.633-0.131C9.186,7.024,9.014,6.906,8.865,6.755
					C8.715,6.606,8.598,6.434,8.51,6.238c-0.088-0.194-0.131-0.4-0.131-0.617C8.379,5.405,8.422,5.199,8.51,5.003z"/>
			</g>
		</g>
	</g>
</g>
<g id="Layer_1">
</g>
</svg>
