<?xml version="1.0" encoding="iso-8859-1"?>
<!-- Generator: Adobe Illustrator 18.1.1, SVG Export Plug-In . SVG Version: 6.00 Build 0)  -->
<svg version="1.1" xmlns="http://www.w3.org/2000/svg" xmlns:xlink="http://www.w3.org/1999/xlink" x="0px" y="0px"
	 viewBox="0 0 20 20" style="enable-background:new 0 0 20 20;" xml:space="preserve">
<g id="line">
	<g>
		<rect id="le_wrappier_126_" style="fill:none;" width="20" height="20"/>
		<g>
			<path style="fill:#00C300;" d="M15.425,1.515L4.599,1.499c-1.7-0.002-3.081,1.374-3.083,3.075L1.5,15.401
				c-0.002,1.701,1.374,3.082,3.075,3.084l10.827,0.015c1.701,0.002,3.081-1.374,3.083-3.075L18.5,4.598
				C18.502,2.898,17.126,1.517,15.425,1.515z"/>
			<g>
				<g>
					<path style="fill:#FFFFFF;" d="M16.192,9.252c0-2.77-2.777-5.023-6.19-5.023c-3.413,0-6.19,2.253-6.19,5.023
						c0,2.483,2.202,4.563,5.177,4.956c0.201,0.043,0.476,0.133,0.545,0.305c0.062,0.156,0.041,0.401,0.02,0.56
						c0,0-0.072,0.437-0.088,0.53c-0.027,0.156-0.124,0.612,0.536,0.334c0.661-0.278,3.564-2.099,4.863-3.594h0
						C15.763,11.359,16.192,10.361,16.192,9.252z M7.58,10.9H6.35c-0.179,0-0.325-0.146-0.325-0.325v-2.46
						c0-0.179,0.146-0.325,0.325-0.325c0.179,0,0.324,0.146,0.324,0.325v2.135H7.58c0.179,0,0.325,0.146,0.325,0.325
						C7.904,10.755,7.759,10.9,7.58,10.9z M8.852,10.576c0,0.179-0.146,0.325-0.324,0.325c-0.179,0-0.324-0.146-0.324-0.325v-2.46
						c0-0.179,0.146-0.325,0.324-0.325c0.179,0,0.324,0.146,0.324,0.325V10.576z M11.812,10.576c0,0.14-0.089,0.264-0.222,0.308
						c-0.033,0.011-0.068,0.017-0.103,0.017c-0.101,0-0.198-0.049-0.259-0.13l-1.26-1.716v1.522c0,0.179-0.145,0.325-0.325,0.325
						c-0.179,0-0.325-0.146-0.325-0.325v-2.46c0-0.14,0.089-0.264,0.222-0.308c0.033-0.011,0.068-0.017,0.103-0.017
						c0.101,0,0.198,0.048,0.259,0.13l1.261,1.717V8.116c0-0.179,0.146-0.325,0.325-0.325c0.179,0,0.324,0.146,0.324,0.325V10.576z
						 M13.802,9.021c0.179,0,0.325,0.146,0.325,0.325c0,0.179-0.146,0.324-0.325,0.324h-0.905v0.581h0.905
						c0.179,0,0.325,0.146,0.325,0.325c0,0.179-0.146,0.325-0.325,0.325h-1.23c-0.179,0-0.325-0.146-0.325-0.325V9.347
						c0,0,0,0,0-0.001v-1.23c0-0.179,0.146-0.325,0.325-0.325h1.23c0.179,0,0.325,0.146,0.325,0.325
						c0,0.179-0.146,0.325-0.325,0.325h-0.905v0.581H13.802z"/>
				</g>
			</g>
		</g>
	</g>
</g>
<g id="Layer_1">
</g>
</svg>
