<?xml version="1.0" encoding="utf-8"?>
<!-- Generator: Adobe Illustrator 16.0.0, SVG Export Plug-In . SVG Version: 6.00 Build 0)  -->
<!DOCTYPE svg PUBLIC "-//W3C//DTD SVG 1.1//EN" "http://www.w3.org/Graphics/SVG/1.1/DTD/svg11.dtd">
<svg version="1.1" id="Layer_1" xmlns="http://www.w3.org/2000/svg" xmlns:xlink="http://www.w3.org/1999/xlink" x="0px" y="0px"
	 width="13px" height="13.002px" viewBox="0 0 13 13.002" enable-background="new 0 0 13 13.002" xml:space="preserve">
<g id="margin-bottom">
	<g>
		<g>
			<rect x="0.5" y="75.5" fill="#B9B9BA" width="12" height="3"/>
			<path fill="#8D8E8D" d="M1,78v-2h11v2H1 M0,79h13v-4H0V79L0,79z"/>
		</g>
		<g>
			<rect x="3.5" y="69.498" fill="#F1F1F1" width="6" height="6"/>
			<path fill="#323232" d="M4,75v-5.002h5v5H4 M3,76h7v-7.002H3V76L3,76z"/>
		</g>
		<g>
			<rect x="12" y="68.998" fill="#797979" width="1" height="1"/>
			<rect x="10" y="68.998" fill="#797979" width="1" height="1"/>
			<rect x="9" y="67.998" fill="#797979" width="1" height="1"/>
			<rect x="9" y="65.998" fill="#797979" width="1" height="1"/>
			<rect x="3" y="67.998" fill="#797979" width="1" height="1"/>
			<rect x="3" y="65.998" fill="#797979" width="1" height="1"/>
			<rect x="2" y="68.998" fill="#797979" width="1" height="1"/>
			<rect y="68.998" fill="#797979" width="1" height="1"/>
		</g>
	</g>
</g>
<g id="Layer_1_1_">
</g>
</svg>
