<?xml version="1.0" encoding="utf-8"?>
<!-- Generator: Adobe Illustrator 16.0.0, SVG Export Plug-In . SVG Version: 6.00 Build 0)  -->
<!DOCTYPE svg PUBLIC "-//W3C//DTD SVG 1.1//EN" "http://www.w3.org/Graphics/SVG/1.1/DTD/svg11.dtd">
<svg version="1.1" id="Layer_1" xmlns="http://www.w3.org/2000/svg" xmlns:xlink="http://www.w3.org/1999/xlink" x="0px" y="0px"
	 width="13px" height="13px" viewBox="0 0 13 13" enable-background="new 0 0 13 13" xml:space="preserve">
<g id="margin-left">
	<g>
		<g>
			<rect x="0.5" y="0.5" fill="#B9B9BA" width="3" height="12"/>
			<path fill="#8D8E8D" d="M1,1h2v11H1V1 M0,0v13h4V0H0L0,0z"/>
		</g>
		<g>
			<rect x="3.5" y="3.5" fill="#F1F1F1" width="6" height="6"/>
			<path fill="#323232" d="M4,4h5v5H4V4 M3,3v7h7V3H3L3,3z"/>
		</g>
		<g>
			<rect x="9" y="11.999" fill="#797979" width="1" height="1"/>
			<rect x="9" y="9.999" fill="#797979" width="1" height="1"/>
			<rect x="10" y="8.999" fill="#797979" width="1" height="1"/>
			<rect x="12" y="8.999" fill="#797979" width="1" height="1"/>
			<rect x="10" y="3" fill="#797979" width="1" height="1"/>
			<rect x="12" y="3" fill="#797979" width="1" height="1"/>
			<rect x="9" y="2" fill="#797979" width="1" height="1"/>
			<rect x="9" fill="#797979" width="1" height="1"/>
		</g>
	</g>
</g>
<g id="Layer_1_1_">
</g>
</svg>
