<?xml version="1.0" encoding="iso-8859-1"?>
<!-- Generator: Adobe Illustrator 16.0.0, SVG Export Plug-In . SVG Version: 6.00 Build 0)  -->
<!DOCTYPE svg PUBLIC "-//W3C//DTD SVG 1.1//EN" "http://www.w3.org/Graphics/SVG/1.1/DTD/svg11.dtd">
<svg version="1.1" id="Layer_1" xmlns="http://www.w3.org/2000/svg" xmlns:xlink="http://www.w3.org/1999/xlink" x="0px" y="0px"
	 width="20px" height="20px" viewBox="0 0 20 20" style="enable-background:new 0 0 20 20;" xml:space="preserve">
<g id="margin-none">
	<g>
		<rect id="le_wrappier_151_" style="fill:none;" width="20" height="20"/>
		<g>
			<g>
				<rect x="7.025" y="7" style="fill:#F1F1F1;" width="6" height="6"/>
				<path style="fill:#323232;" d="M12.525,7.5v5h-5v-5H12.525 M13.525,6.5h-7v7h7V6.5L13.525,6.5z"/>
			</g>
			<g>
				<rect x="3.525" y="12.5" style="fill:#797979;" width="1" height="1"/>
				<rect x="5.525" y="12.5" style="fill:#797979;" width="1" height="1"/>
				<rect x="6.525" y="13.5" style="fill:#797979;" width="1" height="1"/>
				<rect x="6.525" y="15.5" style="fill:#797979;" width="1" height="1"/>
				<rect x="12.525" y="13.5" style="fill:#797979;" width="1" height="1"/>
				<rect x="12.525" y="15.5" style="fill:#797979;" width="1" height="1"/>
				<rect x="13.525" y="12.5" style="fill:#797979;" width="1" height="1"/>
				<rect x="15.525" y="12.5" style="fill:#797979;" width="1" height="1"/>
			</g>
			<g>
				<rect x="15.525" y="6.5" style="fill:#797979;" width="1" height="1"/>
				<rect x="13.525" y="6.5" style="fill:#797979;" width="1" height="1"/>
				<rect x="12.525" y="5.5" style="fill:#797979;" width="1" height="1"/>
				<rect x="12.525" y="3.5" style="fill:#797979;" width="1" height="1"/>
				<rect x="6.525" y="5.5" style="fill:#797979;" width="1" height="1"/>
				<rect x="6.525" y="3.5" style="fill:#797979;" width="1" height="1"/>
				<rect x="5.525" y="6.5" style="fill:#797979;" width="1" height="1"/>
				<rect x="3.525" y="6.5" style="fill:#797979;" width="1" height="1"/>
			</g>
		</g>
	</g>
</g>
<g id="Layer_1_1_">
</g>
</svg>
