<?xml version="1.0" encoding="iso-8859-1"?>
<!-- Generator: Adobe Illustrator 16.0.0, SVG Export Plug-In . SVG Version: 6.00 Build 0)  -->
<!DOCTYPE svg PUBLIC "-//W3C//DTD SVG 1.1//EN" "http://www.w3.org/Graphics/SVG/1.1/DTD/svg11.dtd">
<svg version="1.1" xmlns="http://www.w3.org/2000/svg" xmlns:xlink="http://www.w3.org/1999/xlink" x="0px" y="0px" width="20px"
	 height="20px" viewBox="0 0 20 20" style="enable-background:new 0 0 20 20;" xml:space="preserve">
<g id="message-type-in">
	<g>
		<rect id="le_wrappier_73_" style="fill:none;" width="20" height="20"/>
		<g>
			<path style="fill:#FFFFFF;" d="M18.102,1C18.597,1,19,1.426,19,1.95v12.182c0,0.522-0.403,0.947-0.898,0.947h-6.77
				c-0.23,0-0.454,0.08-0.633,0.226l-3.163,2.586v-1.812c0-0.553-0.448-1-1-1H4.705c-0.494,0-0.896-0.425-0.896-0.947V1.95
				C3.809,1.426,4.211,1,4.705,1H18.102 M18.102,0H4.705C3.659,0,2.809,0.875,2.809,1.95v12.182c0,1.077,0.851,1.947,1.896,1.947
				h1.831V20l4.796-3.921h6.77c1.049,0,1.898-0.87,1.898-1.947V1.95C20,0.875,19.15,0,18.102,0L18.102,0z"/>
			<linearGradient id="SVGID_1_" gradientUnits="userSpaceOnUse" x1="11.4043" y1="1" x2="11.4043" y2="17.8911">
				<stop  offset="0" style="stop-color:#F1F8FF"/>
				<stop  offset="1" style="stop-color:#DDEBF7"/>
			</linearGradient>
			<path style="fill:url(#SVGID_1_);" d="M7.536,15.079H4.705c-0.494,0-0.896-0.425-0.896-0.947V1.95C3.809,1.426,4.211,1,4.705,1
				h13.396C18.597,1,19,1.426,19,1.95v12.182c0,0.522-0.403,0.947-0.898,0.947h-7.126l-3.439,2.812V15.079z"/>
			<path style="fill:#AAAAAA;" d="M18.102,0.5c0.771,0,1.398,0.65,1.398,1.45v12.182c0,0.798-0.627,1.447-1.398,1.447h-6.77h-0.179
				l-0.138,0.113l-3.979,3.253v-2.866v-0.5h-0.5H4.705c-0.77,0-1.396-0.649-1.396-1.447V1.95c0-0.8,0.626-1.45,1.396-1.45H18.102
				 M18.102,0H4.705C3.659,0,2.809,0.875,2.809,1.95v12.182c0,1.077,0.851,1.947,1.896,1.947h1.831V20l4.796-3.921h6.77
				c1.049,0,1.898-0.87,1.898-1.947V1.95C20,0.875,19.15,0,18.102,0L18.102,0z"/>
		</g>
		<g>
			
				<polygon style="fill:none;stroke:#FFFFFF;stroke-width:2;stroke-linecap:round;stroke-linejoin:round;stroke-miterlimit:10;" points="
				12.857,8.528 7.459,3.987 7.459,6.857 1,6.857 1,10.199 7.459,10.199 7.459,13.068 			"/>
			<polygon style="fill:#378DD7;" points="12.857,8.528 7.459,3.987 7.459,6.857 1,6.857 1,10.199 7.459,10.199 7.459,13.068 			"/>
		</g>
	</g>
</g>
<g id="Layer_1">
</g>
</svg>
