<?xml version="1.0" encoding="iso-8859-1"?>
<!-- Generator: Adobe Illustrator 16.0.0, SVG Export Plug-In . SVG Version: 6.00 Build 0)  -->
<!DOCTYPE svg PUBLIC "-//W3C//DTD SVG 1.1//EN" "http://www.w3.org/Graphics/SVG/1.1/DTD/svg11.dtd">
<svg version="1.1" xmlns="http://www.w3.org/2000/svg" xmlns:xlink="http://www.w3.org/1999/xlink" x="0px" y="0px" width="20px"
	 height="20px" viewBox="0 0 20 20" style="enable-background:new 0 0 20 20;" xml:space="preserve">
<g id="mobile-push">
	<g>
		<rect id="le_wrappier_29_" x="-1190" y="62" style="fill:none;" width="20" height="20"/>
		<g>
			<path style="fill:none;" d="M-1174.845,63.813h-10.313c-0.232,0-0.423,0.19-0.423,0.426v13.616c0,0.234,0.19,0.424,0.423,0.424
				h10.313c0.235,0,0.427-0.189,0.427-0.424V64.241C-1174.418,64.004-1174.61,63.813-1174.845,63.813z"/>
			<path style="fill:#AAAAAA;" d="M-1174.845,62h-10.313c-1.439,0-1.882,0.442-1.882,1.881v15.513c0,0.894-0.07,2.606,7.618,2.606
				h0.292c6.237,0,6.17-1.575,6.17-2.606V63.881C-1172.959,62.442-1173.405,62-1174.845,62z M-1180,81.5c-0.552,0-1-0.448-1-1
				c0-0.553,0.448-1,1-1s1,0.447,1,1C-1179,81.052-1179.448,81.5-1180,81.5z M-1174.418,77.855c0,0.234-0.191,0.424-0.427,0.424
				h-10.313c-0.233,0-0.423-0.189-0.423-0.424V64.239c0-0.235,0.191-0.426,0.423-0.426h10.313c0.235,0,0.427,0.19,0.427,0.428
				V77.855z"/>
			<path style="fill:#448CCA;" d="M-1175.695,65.1h-8.612c-0.195,0-0.353,0.158-0.353,0.355v11.369c0,0.195,0.159,0.353,0.353,0.353
				h8.612c0.196,0,0.356-0.157,0.356-0.353V65.457C-1175.339,65.259-1175.499,65.1-1175.695,65.1z M-1179.181,75.183
				c-0.221,0.222-0.49,0.331-0.805,0.331s-0.584-0.109-0.805-0.331c-0.222-0.222-0.332-0.489-0.332-0.804
				c0-0.316,0.11-0.584,0.332-0.806c0.221-0.221,0.49-0.332,0.805-0.332s0.584,0.111,0.805,0.332
				c0.221,0.222,0.332,0.489,0.332,0.806C-1178.849,74.693-1178.959,74.961-1179.181,75.183z M-1178.957,68.622
				c-0.072,0.3-0.203,0.792-0.391,1.475c-0.114,0.412-0.191,0.755-0.233,1.028c-0.042,0.273-0.108,0.527-0.2,1.355h-0.388
				c-0.127-1.042-0.212-1.39-0.256-1.635c-0.044-0.246-0.131-0.589-0.263-1.031c-0.167-0.565-0.274-0.941-0.321-1.13
				c-0.075-0.294-0.112-0.524-0.112-0.69c0-0.499,0.113-0.853,0.338-1.061c0.226-0.209,0.492-0.312,0.799-0.312
				c0.297,0,0.562,0.104,0.792,0.309c0.229,0.206,0.345,0.546,0.345,1.019C-1178.849,68.098-1178.885,68.322-1178.957,68.622z"/>
		</g>
	</g>
</g>
<g id="Layer_1">
</g>
</svg>
