<?xml version="1.0" encoding="utf-8"?>
<!-- Generator: Adobe Illustrator 16.0.0, SVG Export Plug-In . SVG Version: 6.00 Build 0)  -->
<!DOCTYPE svg PUBLIC "-//W3C//DTD SVG 1.1//EN" "http://www.w3.org/Graphics/SVG/1.1/DTD/svg11.dtd">
<svg version="1.1" id="Layer_1" xmlns="http://www.w3.org/2000/svg" xmlns:xlink="http://www.w3.org/1999/xlink" x="0px" y="0px"
	 width="20px" height="20px" viewBox="0 0 20 20" enable-background="new 0 0 20 20" xml:space="preserve">
<g id="mobile-sms">
	<g>
		<rect id="le_wrappier_101_" y="0.001" fill="none" width="20" height="20"/>
		<path fill="none" d="M15.156,1.814H4.843c-0.232,0-0.423,0.189-0.423,0.426v13.616c0,0.233,0.189,0.423,0.423,0.423h10.313
			c0.234,0,0.426-0.189,0.426-0.423V2.242C15.582,2.005,15.391,1.814,15.156,1.814z"/>
		<path fill="#AAAAAA" d="M15.156,0H4.843C3.405,0,2.961,0.443,2.961,1.88v15.515c0,0.894-0.07,2.604,7.617,2.604h0.293
			c6.236,0,6.17-1.574,6.17-2.604V1.88C17.041,0.443,16.596,0,15.156,0z M10,19.5c-0.552,0-1-0.447-1-1c0-0.552,0.448-1,1-1
			c0.553,0,1,0.448,1,1C11,19.052,10.553,19.5,10,19.5z M15.582,15.856c0,0.233-0.191,0.423-0.426,0.423H4.843
			c-0.233,0-0.423-0.188-0.423-0.423V2.24c0-0.234,0.19-0.426,0.423-0.426h10.313c0.234,0,0.426,0.189,0.426,0.428V15.856z"/>
		<path fill="#48AB4A" d="M13.314,2.654H6.035c-0.431,0-0.782,0.352-0.782,0.781v0.761c0,0.015,0.002,0.029,0.002,0.046v0.311
			c0,0.188-0.108,0.35-0.269,0.425C5.193,4.973,5.387,4.916,5.552,4.81c0.132,0.105,0.299,0.167,0.482,0.167h7.278
			c0.434,0,0.781-0.351,0.781-0.78V3.436C14.096,3.005,13.747,2.654,13.314,2.654"/>
		<path fill="#48AB4A" d="M11.217,9.561H6.035c-0.431,0-0.782,0.308-0.782,0.737c0,0.017,0.002,0.031,0.002,0.045v0.312
			c0,0.188-0.108,0.35-0.269,0.424c0.207-0.004,0.401-0.062,0.566-0.166c0.132,0.104,0.299,0.168,0.482,0.168h5.182
			c0.433,0,0.781-0.351,0.781-0.783C11.998,9.867,11.648,9.561,11.217,9.561"/>
		<path fill="#378DD7" d="M8.77,6.435h5.251c0.438,0,0.793,0.307,0.793,0.736c0,0.017-0.002,0.033-0.002,0.047v0.311
			c0,0.188,0.111,0.35,0.273,0.426c-0.211-0.004-0.407-0.062-0.576-0.168c-0.133,0.104-0.303,0.168-0.488,0.168H8.77
			c-0.437,0-0.792-0.35-0.792-0.783C7.978,6.742,8.333,6.435,8.77,6.435"/>
		<path fill="#378DD7" d="M14.814,14.766v-0.358v-0.914c0-0.432-0.351-0.781-0.78-0.781H6.039c-0.432,0-0.78,0.351-0.78,0.781v0.914
			c0,0.432,0.349,0.783,0.78,0.783h7.995c0.182,0,0.35-0.062,0.48-0.169c0.166,0.103,0.361,0.163,0.57,0.168
			C14.926,15.114,14.814,14.953,14.814,14.766"/>
	</g>
</g>
<g id="Layer_1_1_">
</g>
</svg>
