<?xml version="1.0" encoding="iso-8859-1"?>
<!-- Generator: Adobe Illustrator 19.1.0, SVG Export Plug-In . SVG Version: 6.00 Build 0)  -->
<svg version="1.1" xmlns="http://www.w3.org/2000/svg" xmlns:xlink="http://www.w3.org/1999/xlink" x="0px" y="0px"
	 viewBox="0 0 20 20" style="enable-background:new 0 0 20 20;" xml:space="preserve">
<g id="mobile-white">
	<g>
		<rect id="le_wrappier_138_" style="fill:none;" width="20" height="20"/>
		<path style="fill:#FFFFFF;" d="M14.799,0H4.735c-0.64,0-1.159,0.519-1.159,1.159v17.683c0,0.64,0.519,1.159,1.159,1.159h10.064
			c0.64,0,1.159-0.519,1.159-1.159V1.159C15.957,0.519,15.439,0,14.799,0z M9.767,18.807c-0.722,0-1.308-0.586-1.308-1.308
			s0.586-1.308,1.308-1.308s1.308,0.586,1.308,1.308S10.489,18.807,9.767,18.807z M14.498,14.807c0,0.204-0.165,0.369-0.369,0.369
			H5.405c-0.204,0-0.369-0.165-0.369-0.369V2.26c0-0.204,0.165-0.369,0.369-0.369h8.724c0.204,0,0.369,0.165,0.369,0.369V14.807z"/>
	</g>
</g>
<g id="Layer_1">
</g>
</svg>
