<?xml version="1.0" encoding="iso-8859-1"?>
<!-- Generator: Adobe Illustrator 16.0.0, SVG Export Plug-In . SVG Version: 6.00 Build 0)  -->
<!DOCTYPE svg PUBLIC "-//W3C//DTD SVG 1.1//EN" "http://www.w3.org/Graphics/SVG/1.1/DTD/svg11.dtd">
<svg version="1.1" id="Layer_1" xmlns="http://www.w3.org/2000/svg" xmlns:xlink="http://www.w3.org/1999/xlink" x="0px" y="0px"
	 width="20px" height="20px" viewBox="0 0 20 20" style="enable-background:new 0 0 20 20;" xml:space="preserve">
<g id="mobile-sms">
	<g>
		<rect id="le_wrappier_60_" style="fill:none;" width="20" height="20"/>
		<path style="fill:none;" d="M15.155,1.812H4.842c-0.232,0-0.423,0.19-0.423,0.427v13.616c0,0.233,0.19,0.424,0.423,0.424h10.313
			c0.235,0,0.427-0.189,0.427-0.424V2.241C15.582,2.004,15.391,1.812,15.155,1.812z"/>
		<path style="fill:#AAAAAA;" d="M15.155,0H4.842C3.403,0,2.96,0.441,2.96,1.881v15.514C2.96,18.288,2.89,20,10.578,20h0.292
			c6.237,0,6.17-1.575,6.17-2.605V1.881C17.041,0.441,16.595,0,15.155,0z M10,19.5c-0.552,0-1-0.448-1-1c0-0.553,0.448-1,1-1
			s1,0.447,1,1C11,19.052,10.552,19.5,10,19.5z M15.582,15.855c0,0.233-0.191,0.424-0.427,0.424H4.842
			c-0.233,0-0.423-0.189-0.423-0.424V2.239c0-0.235,0.191-0.427,0.423-0.427h10.313c0.235,0,0.427,0.19,0.427,0.429V15.855z"/>
		<path style="fill:#48AB4A;" d="M13.314,2.654H6.035c-0.431,0-0.783,0.35-0.783,0.779v0.762c0,0.016,0.002,0.029,0.002,0.045v0.311
			c0,0.189-0.108,0.35-0.269,0.426c0.208-0.004,0.402-0.062,0.567-0.168c0.131,0.105,0.299,0.168,0.482,0.168h7.278
			c0.433,0,0.781-0.35,0.781-0.781v-0.76C14.095,3.004,13.747,2.654,13.314,2.654"/>
		<path style="fill:#48AB4A;" d="M11.216,9.561H6.035c-0.431,0-0.783,0.308-0.783,0.736c0,0.018,0.002,0.032,0.002,0.047v0.311
			c0,0.188-0.108,0.351-0.269,0.425c0.208-0.004,0.402-0.062,0.567-0.166c0.131,0.104,0.299,0.168,0.482,0.168h5.181
			c0.432,0,0.782-0.351,0.782-0.783C11.998,9.867,11.646,9.561,11.216,9.561"/>
		<path style="fill:#378DD7;" d="M8.77,6.434h5.251c0.437,0,0.793,0.308,0.793,0.736c0,0.018-0.002,0.033-0.002,0.047v0.311
			c0,0.189,0.11,0.351,0.272,0.427c-0.21-0.005-0.407-0.063-0.575-0.168c-0.133,0.104-0.304,0.168-0.488,0.168H8.77
			c-0.437,0-0.792-0.351-0.792-0.783C7.977,6.74,8.333,6.434,8.77,6.434"/>
		<path style="fill:#378DD7;" d="M14.814,14.766v-0.358v-0.914c0-0.433-0.351-0.781-0.781-0.781H6.038
			c-0.433,0-0.781,0.351-0.781,0.781v0.914c0,0.432,0.348,0.782,0.781,0.782h7.995c0.182,0,0.35-0.062,0.482-0.168
			c0.166,0.103,0.359,0.162,0.568,0.168C14.926,15.113,14.814,14.951,14.814,14.766"/>
	</g>
</g>
<g id="Layer_1_1_">
</g>
</svg>
