<?xml version="1.0" encoding="iso-8859-1"?>
<!-- Generator: Adobe Illustrator 19.1.0, SVG Export Plug-In . SVG Version: 6.00 Build 0)  -->
<svg version="1.1" xmlns="http://www.w3.org/2000/svg" xmlns:xlink="http://www.w3.org/1999/xlink" x="0px" y="0px"
	 viewBox="0 0 20 20" style="enable-background:new 0 0 20 20;" xml:space="preserve">
<g id="mobile-push">
	<g>
		<g>
			<rect id="le_wrappier_133_" style="fill:none;" width="20" height="20"/>
			<path style="fill:#AAAAAA;" d="M14.799,0H4.735c-0.64,0-1.159,0.519-1.159,1.159v17.683c0,0.64,0.519,1.159,1.159,1.159h10.064
				c0.64,0,1.159-0.519,1.159-1.159V1.159C15.957,0.519,15.439,0,14.799,0z M9.767,18.807c-0.722,0-1.308-0.586-1.308-1.308
				c0-0.722,0.586-1.308,1.308-1.308c0.722,0,1.308,0.585,1.308,1.308C11.075,18.221,10.489,18.807,9.767,18.807z M14.498,14.807
				c0,0.204-0.165,0.369-0.369,0.369H5.405c-0.204,0-0.369-0.165-0.369-0.369V2.26c0-0.204,0.165-0.369,0.369-0.369h8.724
				c0.204,0,0.369,0.165,0.369,0.369V14.807z"/>
		</g>
		<path style="fill:#448CCA;" d="M13.024,3.254H6.456c-0.148,0-0.269,0.139-0.269,0.311v9.941c0,0.171,0.121,0.308,0.269,0.308
			h6.567c0.15,0,0.272-0.137,0.272-0.308V3.566C13.295,3.394,13.173,3.254,13.024,3.254z"/>
		<path style="fill:#FFFFFF;" d="M10.457,12.07c-0.193,0.193-0.429,0.289-0.704,0.289c-0.276,0-0.511-0.096-0.704-0.289
			c-0.195-0.194-0.29-0.428-0.29-0.704c0-0.277,0.096-0.51,0.29-0.703c0.193-0.193,0.428-0.29,0.704-0.29
			c0.275,0,0.511,0.097,0.704,0.29c0.193,0.194,0.29,0.427,0.29,0.703C10.748,11.642,10.65,11.877,10.457,12.07z"/>
		<path style="fill:#FFFFFF;" d="M10.652,6.21c-0.063,0.243-0.177,0.643-0.342,1.198c-0.099,0.335-0.167,0.612-0.203,0.835
			c-0.037,0.223-0.096,0.429-0.176,1.102H9.592C9.481,8.498,9.407,8.216,9.368,8.017c-0.037-0.2-0.114-0.478-0.229-0.839
			C8.993,6.72,8.899,6.413,8.857,6.261C8.792,6.022,8.76,5.835,8.76,5.7c0-0.405,0.098-0.692,0.295-0.862
			c0.197-0.169,0.43-0.253,0.698-0.253c0.26,0,0.491,0.083,0.692,0.251c0.201,0.167,0.302,0.443,0.302,0.827
			C10.748,5.783,10.715,5.966,10.652,6.21z"/>
	</g>
</g>
<g id="Layer_1">
</g>
</svg>
