<?xml version="1.0" encoding="iso-8859-1"?>
<!-- Generator: Adobe Illustrator 16.0.0, SVG Export Plug-In . SVG Version: 6.00 Build 0)  -->
<!DOCTYPE svg PUBLIC "-//W3C//DTD SVG 1.1//EN" "http://www.w3.org/Graphics/SVG/1.1/DTD/svg11.dtd">
<svg version="1.1" id="Layer_1" xmlns="http://www.w3.org/2000/svg" xmlns:xlink="http://www.w3.org/1999/xlink" x="0px" y="0px"
	 width="20px" height="20px" viewBox="0 0 20 20" style="enable-background:new 0 0 20 20;" xml:space="preserve">
<g id="mobile-push">
	<g>
		<rect id="le_wrappier_29_" style="fill:none;" width="20" height="20"/>
		<g>
			<path style="fill:none;" d="M15.155,1.812H4.842c-0.232,0-0.423,0.19-0.423,0.427v13.616c0,0.233,0.19,0.424,0.423,0.424h10.313
				c0.235,0,0.427-0.189,0.427-0.424V2.241C15.582,2.004,15.391,1.812,15.155,1.812z"/>
			<path style="fill:#AAAAAA;" d="M15.155,0H4.842C3.403,0,2.96,0.441,2.96,1.881v15.514C2.96,18.288,2.89,20,10.578,20h0.292
				c6.237,0,6.17-1.575,6.17-2.605V1.881C17.041,0.441,16.595,0,15.155,0z M10,19.5c-0.552,0-1-0.448-1-1c0-0.553,0.448-1,1-1
				s1,0.447,1,1C11,19.052,10.552,19.5,10,19.5z M15.582,15.855c0,0.233-0.191,0.424-0.427,0.424H4.842
				c-0.233,0-0.423-0.189-0.423-0.424V2.239c0-0.235,0.191-0.427,0.423-0.427h10.313c0.235,0,0.427,0.19,0.427,0.429V15.855z"/>
			<path style="fill:#448CCA;" d="M14.305,3.1H5.693C5.498,3.1,5.34,3.258,5.34,3.455v11.369c0,0.195,0.159,0.353,0.353,0.353h8.612
				c0.196,0,0.356-0.157,0.356-0.353V3.457C14.661,3.259,14.501,3.1,14.305,3.1z M10.818,13.184c-0.221,0.222-0.489,0.33-0.805,0.33
				c-0.315,0-0.584-0.108-0.805-0.33c-0.222-0.223-0.332-0.49-0.332-0.805c0-0.316,0.11-0.584,0.332-0.806
				c0.221-0.222,0.49-0.332,0.805-0.332c0.315,0,0.584,0.11,0.805,0.332c0.222,0.222,0.332,0.489,0.332,0.806
				C11.15,12.693,11.041,12.961,10.818,13.184z M11.043,6.622c-0.072,0.3-0.203,0.792-0.391,1.476
				c-0.114,0.411-0.191,0.754-0.233,1.027s-0.108,0.527-0.2,1.355H9.831C9.704,9.438,9.619,9.09,9.575,8.845
				s-0.131-0.589-0.263-1.03C9.145,7.249,9.038,6.873,8.991,6.684C8.916,6.391,8.879,6.16,8.879,5.994
				c0-0.499,0.113-0.854,0.338-1.061c0.226-0.209,0.492-0.312,0.799-0.312c0.297,0,0.562,0.104,0.792,0.309
				c0.229,0.206,0.344,0.547,0.344,1.02C11.15,6.098,11.115,6.322,11.043,6.622z"/>
		</g>
	</g>
</g>
<g id="Layer_1_1_">
</g>
</svg>
