<?xml version="1.0" encoding="iso-8859-1"?>
<!-- Generator: Adobe Illustrator 16.0.0, SVG Export Plug-In . SVG Version: 6.00 Build 0)  -->
<!DOCTYPE svg PUBLIC "-//W3C//DTD SVG 1.1//EN" "http://www.w3.org/Graphics/SVG/1.1/DTD/svg11.dtd">
<svg version="1.1" xmlns="http://www.w3.org/2000/svg" xmlns:xlink="http://www.w3.org/1999/xlink" x="0px" y="0px" width="20px"
	 height="20.001px" viewBox="0 0 20 20.001" style="enable-background:new 0 0 20 20.001;" xml:space="preserve">
<g id="mobile-sms-deprecated">
	<g>
		<rect id="le_wrappier_30_" y="0.001" style="fill:none;" width="20" height="20"/>
		<linearGradient id="SVGID_1_" gradientUnits="userSpaceOnUse" x1="10.0005" y1="0" x2="10.0005" y2="20.0005">
			<stop  offset="0" style="stop-color:#9DABB4"/>
			<stop  offset="0.192" style="stop-color:#99A7B0"/>
			<stop  offset="0.391" style="stop-color:#8F9BA3"/>
			<stop  offset="0.5932" style="stop-color:#7D878F"/>
			<stop  offset="0.7966" style="stop-color:#646C72"/>
			<stop  offset="1" style="stop-color:#45494D"/>
		</linearGradient>
		<path style="fill:url(#SVGID_1_);" d="M14.973,0H5.028c-1.649,0-3,1.351-3,3v14c0,1.65,1.351,3,3,3h9.944c1.65,0,3-1.35,3-3V3
			C17.973,1.351,16.623,0,14.973,0z M6.973,18h-2v-2h2V18z M6.973,15h-2v-2h2V15z M6.973,12h-2v-2h2V12z M10.973,18h-2v-2h2V18z
			 M10.973,15h-2v-2h2V15z M10.973,12h-2v-2h2V12z M14.973,18h-2v-2h2V18z M14.973,15h-2v-2h2V15z M14.973,12h-2v-2h2V12z M14.973,7
			c0,0.55-0.45,1-1,1h-8c-0.55,0-1-0.45-1-1V3c0-0.55,0.45-1,1-1h8c0.55,0,1,0.45,1,1V7z"/>
	</g>
</g>
<g id="Layer_1">
</g>
</svg>
