<?xml version="1.0" encoding="utf-8"?>
<!-- Generator: Adobe Illustrator 16.0.0, SVG Export Plug-In . SVG Version: 6.00 Build 0)  -->
<!DOCTYPE svg PUBLIC "-//W3C//DTD SVG 1.1//EN" "http://www.w3.org/Graphics/SVG/1.1/DTD/svg11.dtd">
<svg version="1.1" id="Layer_1" xmlns="http://www.w3.org/2000/svg" xmlns:xlink="http://www.w3.org/1999/xlink" x="0px" y="0px"
	 width="20px" height="20px" viewBox="0 0 20 20" enable-background="new 0 0 20 20" xml:space="preserve">
<g id="mobile-push">
	<g>
		<rect id="le_wrappier_29_" y="0.001" fill="none" width="20" height="20"/>
		<g>
			<path fill="none" d="M15.156,1.814H4.843c-0.232,0-0.423,0.189-0.423,0.426v13.616c0,0.233,0.189,0.423,0.423,0.423h10.313
				c0.234,0,0.426-0.189,0.426-0.423V2.242C15.582,2.005,15.391,1.814,15.156,1.814z"/>
			<path fill="#AAAAAA" d="M15.156,0H4.843C3.405,0,2.961,0.443,2.961,1.88v15.515c0,0.894-0.07,2.604,7.617,2.604h0.293
				c6.236,0,6.17-1.574,6.17-2.604V1.88C17.041,0.443,16.596,0,15.156,0z M10,19.5c-0.552,0-1-0.447-1-1c0-0.552,0.448-1,1-1
				c0.553,0,1,0.448,1,1C11,19.052,10.553,19.5,10,19.5z M15.582,15.856c0,0.233-0.191,0.423-0.426,0.423H4.843
				c-0.233,0-0.423-0.188-0.423-0.423V2.24c0-0.234,0.19-0.426,0.423-0.426h10.313c0.234,0,0.426,0.189,0.426,0.428V15.856z"/>
			<path fill="#448CCA" d="M14.307,3.1H5.694C5.5,3.1,5.341,3.259,5.341,3.455v11.371c0,0.194,0.159,0.352,0.353,0.352h8.613
				c0.195,0,0.355-0.156,0.355-0.352V3.457C14.662,3.259,14.502,3.1,14.307,3.1z M10.82,13.184c-0.221,0.221-0.49,0.331-0.806,0.331
				c-0.314,0-0.584-0.11-0.805-0.331c-0.223-0.222-0.332-0.489-0.332-0.806c0-0.315,0.109-0.582,0.332-0.805
				c0.221-0.221,0.489-0.332,0.805-0.332c0.314,0,0.584,0.111,0.806,0.332c0.221,0.223,0.332,0.488,0.332,0.805
				C11.152,12.693,11.041,12.962,10.82,13.184z M11.043,6.623c-0.072,0.299-0.202,0.791-0.391,1.476
				c-0.113,0.411-0.191,0.754-0.232,1.026c-0.043,0.274-0.109,0.528-0.201,1.356H9.831c-0.128-1.042-0.212-1.39-0.257-1.635
				C9.531,8.6,9.443,8.257,9.312,7.814C9.145,7.25,9.038,6.873,8.99,6.685C8.916,6.391,8.879,6.162,8.879,5.996
				c0-0.5,0.112-0.854,0.338-1.062c0.226-0.208,0.492-0.312,0.799-0.312c0.297,0,0.562,0.104,0.791,0.31
				c0.229,0.206,0.346,0.546,0.346,1.019C11.152,6.098,11.115,6.322,11.043,6.623z"/>
		</g>
	</g>
</g>
<g id="Layer_1_1_">
</g>
</svg>
