<?xml version="1.0" encoding="iso-8859-1"?>
<!-- Generator: Adobe Illustrator 19.1.0, SVG Export Plug-In . SVG Version: 6.00 Build 0)  -->
<svg version="1.1" xmlns="http://www.w3.org/2000/svg" xmlns:xlink="http://www.w3.org/1999/xlink" x="0px" y="0px"
	 viewBox="0 0 20 20" style="enable-background:new 0 0 20 20;" xml:space="preserve">
<g id="mobile-sms">
	<g>
		<g>
			<rect id="le_wrappier_29_" style="fill:none;" width="20" height="20"/>
			<path style="fill:#AAAAAA;" d="M14.799,0H4.735c-0.64,0-1.159,0.519-1.159,1.159v17.683c0,0.64,0.519,1.159,1.159,1.159h10.064
				c0.64,0,1.159-0.519,1.159-1.159V1.159C15.957,0.519,15.439,0,14.799,0z M9.767,18.807c-0.722,0-1.308-0.586-1.308-1.308
				s0.586-1.308,1.308-1.308s1.308,0.586,1.308,1.308S10.489,18.807,9.767,18.807z M14.498,14.807c0,0.204-0.165,0.369-0.369,0.369
				H5.405c-0.204,0-0.369-0.165-0.369-0.369V2.26c0-0.204,0.165-0.369,0.369-0.369h8.724c0.204,0,0.369,0.165,0.369,0.369V14.807z"
				/>
		</g>
	</g>
	<path style="fill:#48AB4A;" d="M12.583,3.254H6.365c-0.368,0-0.668,0.299-0.668,0.667v0.65c0,0.012,0.002,0.025,0.002,0.038v0.265
		c0,0.161-0.093,0.299-0.229,0.363c0.177-0.003,0.343-0.053,0.484-0.143c0.113,0.09,0.255,0.143,0.412,0.143h6.218
		c0.37,0,0.667-0.299,0.667-0.666v-0.65C13.25,3.553,12.952,3.254,12.583,3.254"/>
	<path style="fill:#48AB4A;" d="M10.791,9.153H6.365c-0.368,0-0.668,0.262-0.668,0.63c0,0.014,0.002,0.028,0.002,0.039v0.266
		c0,0.16-0.093,0.298-0.229,0.362c0.177-0.003,0.343-0.053,0.484-0.143c0.113,0.089,0.255,0.144,0.412,0.144h4.426
		c0.369,0,0.667-0.299,0.667-0.668C11.458,9.415,11.159,9.153,10.791,9.153"/>
	<path style="fill:#378DD7;" d="M8.7,6.483h4.486c0.373,0,0.677,0.262,0.677,0.629c0,0.014-0.002,0.028-0.002,0.04v0.265
		c0,0.161,0.095,0.299,0.234,0.363c-0.18-0.003-0.348-0.053-0.492-0.143c-0.113,0.089-0.259,0.144-0.417,0.144H8.7
		c-0.373,0-0.677-0.299-0.677-0.669C8.024,6.745,8.327,6.483,8.7,6.483"/>
	<path style="fill:#378DD7;" d="M13.864,13.599v-0.306v-0.782c0-0.368-0.299-0.667-0.667-0.667H6.368
		c-0.369,0-0.667,0.299-0.667,0.667v0.782c0,0.369,0.298,0.669,0.667,0.669h6.829c0.155,0,0.299-0.054,0.411-0.144
		c0.142,0.088,0.309,0.139,0.487,0.143C13.959,13.897,13.864,13.759,13.864,13.599"/>
</g>
<g id="Layer_1">
</g>
</svg>
