<?xml version="1.0" encoding="iso-8859-1"?>
<!-- Generator: Adobe Illustrator 18.1.1, SVG Export Plug-In . SVG Version: 6.00 Build 0)  -->
<svg version="1.1" xmlns="http://www.w3.org/2000/svg" xmlns:xlink="http://www.w3.org/1999/xlink" x="0px" y="0px"
	 viewBox="0 0 21 20" style="enable-background:new 0 0 21 20;" xml:space="preserve">
<g id="mobile-drag">
	<rect id="le_wrappier_167_" x="0.5" style="fill:none;" width="20" height="20"/>
	<g>
		<path style="fill:#D9D9D9;" d="M12.957,18.343c0,0.55-0.45,1-1,1H1.5c-0.55,0-1-0.45-1-1V7.886c0-0.55,0.45-1,1-1h10.457
			c0.55,0,1,0.45,1,1V18.343z"/>
		<path style="fill:none;stroke:#FFFFFF;" d="M12.957,18.343c0,0.55-0.45,1-1,1H1.5c-0.55,0-1-0.45-1-1V7.886c0-0.55,0.45-1,1-1
			h10.457c0.55,0,1,0.45,1,1V18.343z"/>
	</g>
	<g>
		<path style="fill:#BFBFBF;" d="M16.751,15.196c0,0.55-0.45,1-1,1H5.295c-0.55,0-1-0.45-1-1V4.739c0-0.55,0.45-1,1-1h10.457
			c0.55,0,1,0.45,1,1V15.196z"/>
		<path style="fill:none;stroke:#FFFFFF;" d="M16.751,15.196c0,0.55-0.45,1-1,1H5.295c-0.55,0-1-0.45-1-1V4.739c0-0.55,0.45-1,1-1
			h10.457c0.55,0,1,0.45,1,1V15.196z"/>
	</g>
	<g>
		<path style="fill:#999999;" d="M20.5,12.115c0,0.55-0.45,1-1,1H9.043c-0.55,0-1-0.45-1-1V1.657c0-0.55,0.45-1,1-1H19.5
			c0.55,0,1,0.45,1,1V12.115z"/>
		<path style="fill:none;stroke:#FFFFFF;" d="M20.5,12.115c0,0.55-0.45,1-1,1H9.043c-0.55,0-1-0.45-1-1V1.657c0-0.55,0.45-1,1-1
			H19.5c0.55,0,1,0.45,1,1V12.115z"/>
	</g>
	<polygon style="fill:#FFFFFF;" points="20.236,9.173 13.989,3.736 15.114,11.942 16.674,10.201 18.381,13.265 19.572,12.6 
		17.863,9.532 	"/>
</g>
<g id="Layer_1">
</g>
</svg>
