<?xml version="1.0" encoding="iso-8859-1"?>
<!-- Generator: Adobe Illustrator 16.0.0, SVG Export Plug-In . SVG Version: 6.00 Build 0)  -->
<!DOCTYPE svg PUBLIC "-//W3C//DTD SVG 1.1//EN" "http://www.w3.org/Graphics/SVG/1.1/DTD/svg11.dtd">
<svg version="1.1" xmlns="http://www.w3.org/2000/svg" xmlns:xlink="http://www.w3.org/1999/xlink" x="0px" y="0px" width="20px"
	 height="20px" viewBox="0 0 20 20" style="enable-background:new 0 0 20 20;" xml:space="preserve">
<g id="mobile-sms">
	<g>
		<rect id="le_wrappier_60_" x="-1190" y="62" style="fill:none;" width="20" height="20"/>
		<path style="fill:none;" d="M-1174.845,63.813h-10.313c-0.232,0-0.423,0.19-0.423,0.426v13.616c0,0.234,0.19,0.424,0.423,0.424
			h10.313c0.235,0,0.427-0.189,0.427-0.424V64.241C-1174.418,64.004-1174.61,63.813-1174.845,63.813z"/>
		<path style="fill:#AAAAAA;" d="M-1174.845,62h-10.313c-1.439,0-1.882,0.442-1.882,1.881v15.513c0,0.894-0.07,2.606,7.618,2.606
			h0.292c6.237,0,6.17-1.575,6.17-2.606V63.881C-1172.959,62.442-1173.405,62-1174.845,62z M-1180,81.5c-0.552,0-1-0.448-1-1
			c0-0.553,0.448-1,1-1s1,0.447,1,1C-1179,81.052-1179.448,81.5-1180,81.5z M-1174.418,77.855c0,0.234-0.191,0.424-0.427,0.424
			h-10.313c-0.233,0-0.423-0.189-0.423-0.424V64.239c0-0.235,0.191-0.426,0.423-0.426h10.313c0.235,0,0.427,0.19,0.427,0.428V77.855
			z"/>
		<path style="fill:#48AB4A;" d="M-1176.686,64.654h-7.279c-0.431,0-0.783,0.35-0.783,0.78v0.761c0,0.016,0.002,0.029,0.002,0.045
			v0.311c0,0.189-0.108,0.35-0.269,0.426c0.208-0.004,0.402-0.063,0.567-0.168c0.131,0.105,0.299,0.168,0.482,0.168h7.279
			c0.432,0,0.781-0.35,0.781-0.781v-0.761C-1175.905,65.004-1176.253,64.654-1176.686,64.654"/>
		<path style="fill:#48AB4A;" d="M-1178.784,71.561h-5.181c-0.431,0-0.783,0.307-0.783,0.736c0,0.017,0.002,0.032,0.002,0.047v0.311
			c0,0.188-0.108,0.35-0.269,0.424c0.208-0.004,0.402-0.062,0.567-0.166c0.131,0.104,0.299,0.168,0.482,0.168h5.181
			c0.431,0,0.782-0.351,0.782-0.783C-1178.002,71.867-1178.353,71.561-1178.784,71.561"/>
		<path style="fill:#378DD7;" d="M-1181.23,68.434h5.252c0.436,0,0.793,0.307,0.793,0.736c0,0.018-0.002,0.033-0.002,0.047v0.311
			c0,0.189,0.11,0.35,0.272,0.426c-0.21-0.005-0.407-0.063-0.575-0.168c-0.133,0.105-0.304,0.168-0.488,0.168h-5.252
			c-0.437,0-0.792-0.35-0.792-0.783C-1182.023,68.74-1181.667,68.434-1181.23,68.434"/>
		<path style="fill:#378DD7;" d="M-1175.186,76.765v-0.358v-0.914c0-0.432-0.35-0.781-0.781-0.781h-7.995
			c-0.433,0-0.781,0.35-0.781,0.781v0.914c0,0.432,0.348,0.783,0.781,0.783h7.995c0.182,0,0.35-0.063,0.482-0.168
			c0.166,0.102,0.36,0.162,0.569,0.168C-1175.074,77.113-1175.186,76.951-1175.186,76.765"/>
	</g>
</g>
<g id="Layer_1">
</g>
</svg>
