<?xml version="1.0" encoding="iso-8859-1"?>
<!-- Generator: Adobe Illustrator 18.1.1, SVG Export Plug-In . SVG Version: 6.00 Build 0)  -->
<svg version="1.1" xmlns="http://www.w3.org/2000/svg" xmlns:xlink="http://www.w3.org/1999/xlink" x="0px" y="0px"
	 viewBox="0 0 20 20" style="enable-background:new 0 0 20 20;" xml:space="preserve">
<g id="multimail">
	<rect id="le_wrappier_166_" style="fill:none;" width="20" height="20"/>
	<polygon style="fill:#ACACAC;" points="15.67,5.573 18.558,2.685 9.51,2.685 12.423,5.573 	"/>
	<polygon style="fill:#ACACAC;" points="17.144,5.552 20,8.45 20,2.696 	"/>
	<polygon style="fill:#ACACAC;" points="8.092,2.678 8.092,5.573 10.991,5.573 	"/>
	<polygon style="fill:#ACACAC;" points="17.178,9.231 19.572,9.231 17.178,6.833 	"/>
	<polygon style="fill:#ACACAC;" points="11.571,9.672 14.459,6.784 14.466,6.777 14.466,6.777 5.411,6.784 8.323,9.672 	"/>
	<polygon style="fill:#ACACAC;" points="15.871,12.519 15.871,6.825 13.044,9.652 	"/>
	<polygon style="fill:#ACACAC;" points="3.992,6.777 3.992,9.672 6.89,9.672 	"/>
	<polygon style="fill:#ACACAC;" points="13.044,13.33 15.473,13.33 13.044,10.898 	"/>
	<polygon style="fill:#ACACAC;" points="15.871,6.777 15.871,6.782 15.876,6.777 15.877,6.777 15.871,6.777 	"/>
	<polygon style="fill:#ACACAC;" points="0,10.777 0,16.523 2.856,13.626 	"/>
	<path style="fill:#ACACAC;" d="M6.427,16.229L6.32,16.336c-0.014,0.016-0.028,0.03-0.044,0.044
		c-0.09,0.079-0.204,0.131-0.333,0.131s-0.244-0.052-0.333-0.131c-0.016-0.014-0.03-0.028-0.044-0.044l-0.107-0.107l-1.981-1.984
		l-3.073,3.078h11.077l-3.073-3.078L6.427,16.229z"/>
	<polygon style="fill:#ACACAC;" points="10.474,10.777 1.418,10.777 5.962,15.281 	"/>
	<polygon style="fill:#ACACAC;" points="11.908,16.541 11.908,10.792 9.052,13.644 	"/>
</g>
<g id="Layer_1">
</g>
</svg>
