<?xml version="1.0" encoding="iso-8859-1"?>
<!-- Generator: Adobe Illustrator 16.0.0, SVG Export Plug-In . SVG Version: 6.00 Build 0)  -->
<!DOCTYPE svg PUBLIC "-//W3C//DTD SVG 1.1//EN" "http://www.w3.org/Graphics/SVG/1.1/DTD/svg11.dtd">
<svg version="1.1" id="Layer_1" xmlns="http://www.w3.org/2000/svg" xmlns:xlink="http://www.w3.org/1999/xlink" x="0px" y="0px"
	 width="20px" height="20px" viewBox="0 0 20 20" style="enable-background:new 0 0 20 20;" xml:space="preserve">
<g id="new-window">
	<g>
		<path style="fill:#4E89BD;" d="M19.458,0H11.5c-0.333,0-0.667,0.208-0.667,0.541v1.25c0,0.334,0.292,0.709,0.667,0.709h3.292
			c0.375,0,0.584,0.416,0.292,0.666L8,10.25c-0.25,0.25-0.25,0.625,0,0.875L8.875,12c0.25,0.25,0.625,0.25,0.876,0l7.083-7.084
			c0.25-0.25,0.666-0.082,0.666,0.292V8.5c0,0.333,0.333,0.709,0.667,0.709h1.208C19.708,9.209,20,8.833,20,8.5V0.584
			C20,0.208,19.792,0,19.458,0z M14.292,9.792l-1.417,1.458c-0.25,0.25-0.375,0.541-0.375,0.875v4.75
			c0,0.334-0.292,0.625-0.625,0.625h-8.75c-0.333,0-0.625-0.291-0.625-0.625v-8.75C2.5,7.791,2.792,7.5,3.125,7.5h4.792
			c0.333,0,0.666-0.125,0.875-0.375l1.416-1.416C10.458,5.458,10.292,5,9.916,5H1.667C0.75,5,0,5.75,0,6.667v11.666
			C0,19.25,0.75,20,1.667,20h11.666C14.25,20,15,19.25,15,18.333v-8.249C15,9.708,14.542,9.542,14.292,9.792z"/>
	</g>
</g>
<g id="Layer_1_1_">
</g>
</svg>
