<?xml version="1.0" encoding="iso-8859-1"?>
<!-- Generator: Adobe Illustrator 19.1.0, SVG Export Plug-In . SVG Version: 6.00 Build 0)  -->
<svg version="1.1" xmlns="http://www.w3.org/2000/svg" xmlns:xlink="http://www.w3.org/1999/xlink" x="0px" y="0px"
	 viewBox="0 0 20 20" style="enable-background:new 0 0 20 20;" xml:space="preserve">
<g id="notification">
	<g>
		<rect id="le_wrappier_139_" style="fill:none;" width="20" height="20"/>
		<path style="fill:#4E8ABE;" d="M11.933,15.9h-3.4c-0.2,0-0.4,0.2-0.4,0.4c0.2,1,1.1,1.8,2.1,1.8s2-0.7,2.2-1.8
			C12.433,16.1,12.233,15.9,11.933,15.9z M16.733,11.9h-0.2c-0.6,0-1.1-0.5-1.1-1.1V7.3c0-3.1-2.7-5.6-5.8-5.2
			c-2.7,0.3-4.6,2.7-4.6,5.4v3.2c0,0.7-0.6,1.2-1.2,1.2h-0.1c-0.4,0-0.9,0.4-0.9,0.9v0.7c0,0.4,0.4,0.9,0.9,0.9h13
			c0.4,0,0.9-0.4,0.9-0.9v-0.7C17.633,12.3,17.133,11.9,16.733,11.9z"/>
	</g>
</g>
<g id="Layer_1">
</g>
</svg>
