<?xml version="1.0" encoding="utf-8"?>
<!-- Generator: Adobe Illustrator 16.0.0, SVG Export Plug-In . SVG Version: 6.00 Build 0)  -->
<!DOCTYPE svg PUBLIC "-//W3C//DTD SVG 1.1//EN" "http://www.w3.org/Graphics/SVG/1.1/DTD/svg11.dtd">
<svg version="1.1" id="paper-plane" xmlns="http://www.w3.org/2000/svg" xmlns:xlink="http://www.w3.org/1999/xlink" x="0px"
	 y="0px" width="20px" height="20px" viewBox="0 0 20 20" enable-background="new 0 0 20 20" xml:space="preserve">
<g id="Layer_1_1_">
</g>
<g>
	<path fill="#5A8BC1" d="M19.833,0.638c-0.166-0.167-0.333-0.167-0.5-0.083l-19,7.5C0.167,8.138,0,8.305,0,8.471
		s0.083,0.417,0.333,0.5l6.584,2.75v7.084c0,0.25,0.166,0.416,0.333,0.5c0.083,0,0.083,0,0.167,0c0.166,0,0.333-0.084,0.416-0.167
		l3.667-4.667l3.083,1.917c0.084,0.083,0.167,0.083,0.25,0.083c0.084,0,0.084,0,0.167,0c0.167-0.083,0.25-0.166,0.333-0.333
		L20,1.221C20,0.971,20,0.805,19.833,0.638z M16.833,2.638l-9.5,8.083l-5.416-2.25L16.833,2.638z M7.917,17.221v-5l2.666,1.584
		L7.917,17.221z M14.5,15.055l-6.25-3.834L18.5,2.555L14.5,15.055z"/>
	<rect id="le_wrappier_101_" fill="none" width="20" height="20"/>
</g>
</svg>
