<?xml version="1.0" encoding="iso-8859-1"?>
<!-- Generator: Adobe Illustrator 16.0.0, SVG Export Plug-In . SVG Version: 6.00 Build 0)  -->
<!DOCTYPE svg PUBLIC "-//W3C//DTD SVG 1.1//EN" "http://www.w3.org/Graphics/SVG/1.1/DTD/svg11.dtd">
<svg version="1.1" xmlns="http://www.w3.org/2000/svg" xmlns:xlink="http://www.w3.org/1999/xlink" x="0px" y="0px" width="20px"
	 height="20px" viewBox="0 0 20 20" style="enable-background:new 0 0 20 20;" xml:space="preserve">
<g id="people">
	<g>
		<rect id="le_wrappier_15_" x="-1190" y="62" style="fill:none;" width="20" height="20"/>
		<g>
			<path style="fill:#AAAAAA;" d="M-1171.137,75.856c-1.743-0.481-2.054-1.138-2.054-2.042c0-0.609,0.566-1.224,0.662-1.67
				c0.095-0.445,0.306-1.753-0.662-2.471c-0.322-0.237-0.65-0.354-0.978-0.346c-0.329-0.008-0.656,0.108-0.978,0.346
				c-0.968,0.718-0.758,2.025-0.663,2.471c0.097,0.446,0.662,1.061,0.662,1.67c0,0.904-0.31,1.561-2.054,2.042
				c-0.185,0.052-0.356,0.106-0.51,0.181c0.441,0.221,0.984,0.424,1.661,0.611c0.689,0.19,1.285,0.396,1.616,1.018
				c0.089,0,0.179,0,0.266,0c1.691,0,3.596-0.002,3.792-0.002c0.355,0,0.378-0.146,0.378-0.38
				C-1170,76.214-1170.508,76.03-1171.137,75.856z"/>
			<path style="fill-rule:evenodd;clip-rule:evenodd;fill:#AAAAAA;" d="M-1177.045,77.746c-3.136-0.866-3.695-2.047-3.695-3.674
				c0-1.098,1.018-2.201,1.19-3.004c0.172-0.803,0.551-3.153-1.19-4.443c-0.58-0.428-1.169-0.637-1.76-0.625
				c-0.591-0.012-1.18,0.197-1.759,0.625c-1.742,1.29-1.363,3.641-1.191,4.443c0.173,0.803,1.19,1.906,1.19,3.004
				c0,1.627-0.559,2.808-3.695,3.674c-1.131,0.312-2.045,0.641-2.045,2.566c0,0.422,0.041,0.686,0.68,0.686
				c0.352,0,3.779,0.002,6.82,0.002c3.042,0,6.469-0.002,6.819-0.002c0.64,0,0.681-0.264,0.681-0.686
				C-1175,78.387-1175.915,78.059-1177.045,77.746z"/>
		</g>
	</g>
</g>
<g id="Layer_1">
</g>
</svg>
