<?xml version="1.0" encoding="utf-8"?>
<!-- Generator: Adobe Illustrator 16.0.0, SVG Export Plug-In . SVG Version: 6.00 Build 0)  -->
<!DOCTYPE svg PUBLIC "-//W3C//DTD SVG 1.1//EN" "http://www.w3.org/Graphics/SVG/1.1/DTD/svg11.dtd">
<svg version="1.1" id="Layer_1" xmlns="http://www.w3.org/2000/svg" xmlns:xlink="http://www.w3.org/1999/xlink" x="0px" y="0px"
	 width="20px" height="20px" viewBox="0 0 20 20" enable-background="new 0 0 20 20" xml:space="preserve">
<g id="people">
	<g>
		<rect id="le_wrappier_109_" fill="none" width="20" height="20"/>
		<g>
			<path fill="#AAAAAA" d="M18.863,13.855c-1.743-0.48-2.055-1.137-2.055-2.041c0-0.609,0.565-1.225,0.661-1.67
				c0.097-0.445,0.308-1.754-0.661-2.472c-0.322-0.237-0.65-0.353-0.979-0.346c-0.329-0.007-0.656,0.108-0.979,0.346
				c-0.969,0.718-0.759,2.025-0.662,2.472c0.097,0.445,0.662,1.061,0.662,1.67c0,0.904-0.311,1.561-2.055,2.041
				c-0.186,0.053-0.357,0.106-0.511,0.182c0.44,0.221,0.983,0.425,1.661,0.611c0.688,0.189,1.285,0.396,1.615,1.018
				c0.09,0,0.18,0,0.267,0c1.69,0,3.597-0.001,3.792-0.001c0.354,0,0.377-0.146,0.377-0.381C20,14.214,19.492,14.029,18.863,13.855z
				"/>
			<path fill="#AAAAAA" d="M12.955,15.746C9.819,14.88,9.26,13.699,9.26,12.072c0-1.098,1.018-2.201,1.191-3.004
				c0.172-0.803,0.551-3.153-1.191-4.443C8.681,4.197,8.091,3.989,7.5,4.001C6.91,3.989,6.32,4.197,5.742,4.625
				C4,5.915,4.379,8.268,4.551,9.068c0.172,0.803,1.189,1.906,1.189,3.004c0,1.627-0.559,2.808-3.694,3.674
				C0.914,16.059,0,16.389,0,18.312c0,0.422,0.041,0.686,0.68,0.686C1.032,18.998,4.459,19,7.5,19c3.043,0,6.469-0.002,6.82-0.002
				c0.639,0,0.68-0.264,0.68-0.686C15,16.389,14.086,16.059,12.955,15.746z"/>
		</g>
	</g>
</g>
<g id="Layer_1_1_">
</g>
</svg>
