<?xml version="1.0" encoding="iso-8859-1"?>
<!-- Generator: Adobe Illustrator 16.0.0, SVG Export Plug-In . SVG Version: 6.00 Build 0)  -->
<!DOCTYPE svg PUBLIC "-//W3C//DTD SVG 1.1//EN" "http://www.w3.org/Graphics/SVG/1.1/DTD/svg11.dtd">
<svg version="1.1" id="Layer_1" xmlns="http://www.w3.org/2000/svg" xmlns:xlink="http://www.w3.org/1999/xlink" x="0px" y="0px"
	 width="20px" height="20px" viewBox="0 0 20 20" style="enable-background:new 0 0 20 20;" xml:space="preserve">
<g id="people">
	<g>
		<rect id="le_wrappier_15_" x="0" style="fill:none;" width="20" height="20"/>
		<g>
			<path style="fill:#AAAAAA;" d="M18.863,13.855c-1.744-0.48-2.055-1.138-2.055-2.041c0-0.609,0.566-1.225,0.662-1.67
				c0.095-0.445,0.307-1.754-0.662-2.472c-0.322-0.237-0.65-0.354-0.979-0.346c-0.328-0.009-0.656,0.108-0.978,0.346
				c-0.968,0.718-0.759,2.025-0.663,2.472c0.098,0.445,0.662,1.061,0.662,1.67c0,0.903-0.311,1.561-2.055,2.041
				c-0.184,0.053-0.355,0.106-0.51,0.182c0.441,0.221,0.984,0.424,1.662,0.611c0.688,0.189,1.285,0.396,1.615,1.018
				c0.09,0,0.18,0,0.266,0c1.691,0,3.596-0.002,3.793-0.002c0.354,0,0.377-0.146,0.377-0.38C20,14.214,19.492,14.03,18.863,13.855z"
				/>
			<path style="fill:#AAAAAA;" d="M12.955,15.746c-3.137-0.866-3.696-2.047-3.696-3.674c0-1.098,1.018-2.201,1.19-3.004
				c0.171-0.803,0.55-3.153-1.19-4.443C8.68,4.197,8.09,3.988,7.5,4c-0.591-0.012-1.18,0.197-1.759,0.625
				c-1.742,1.29-1.363,3.641-1.191,4.443c0.173,0.803,1.19,1.906,1.19,3.004c0,1.627-0.559,2.808-3.695,3.674
				C0.914,16.059,0,16.387,0,18.312c0,0.422,0.041,0.686,0.68,0.686C1.032,18.998,4.458,19,7.5,19c3.042,0,6.469-0.002,6.819-0.002
				c0.641,0,0.682-0.264,0.682-0.686C15,16.387,14.084,16.059,12.955,15.746z"/>
		</g>
	</g>
</g>
<g id="Layer_1_1_">
</g>
</svg>
