<?xml version="1.0" encoding="iso-8859-1"?>
<!-- Generator: Adobe Illustrator 16.0.0, SVG Export Plug-In . SVG Version: 6.00 Build 0)  -->
<!DOCTYPE svg PUBLIC "-//W3C//DTD SVG 1.1//EN" "http://www.w3.org/Graphics/SVG/1.1/DTD/svg11.dtd">
<svg version="1.1" id="Layer_1" xmlns="http://www.w3.org/2000/svg" xmlns:xlink="http://www.w3.org/1999/xlink" x="0px" y="0px"
	 width="20px" height="20px" viewBox="0 0 20 20" style="enable-background:new 0 0 20 20;" xml:space="preserve">
<g id="person">
	<g>
		<rect id="le_wrappier_9_" x="0" y="0" style="fill:none;" width="20" height="20"/>
		<path style="fill:#AAAAAA;" d="M17.272,15.66c-4.181-1.154-4.927-2.729-4.927-4.898c0-1.464,1.357-2.935,1.587-4.005
			c0.229-1.068,0.733-4.203-1.587-5.922C11.572,0.262,10.787-0.015,10,0C9.211-0.015,8.426,0.262,7.655,0.834
			C5.333,2.553,5.836,5.688,6.066,6.756c0.231,1.07,1.587,2.541,1.587,4.005c0,2.17-0.745,3.744-4.926,4.898
			C1.219,16.078,0,16.514,0,19.082c0,0.561,0.054,0.914,0.908,0.914c0.466,0,5.036,0.002,9.092,0.004
			c4.057-0.002,8.625-0.004,9.092-0.004c0.854,0,0.908-0.354,0.908-0.914C20,16.516,18.781,16.078,17.272,15.66z"/>
	</g>
</g>
<g id="Layer_1_1_">
</g>
</svg>
