<?xml version="1.0" encoding="iso-8859-1"?>
<!-- Generator: Adobe Illustrator 16.0.0, SVG Export Plug-In . SVG Version: 6.00 Build 0)  -->
<!DOCTYPE svg PUBLIC "-//W3C//DTD SVG 1.1//EN" "http://www.w3.org/Graphics/SVG/1.1/DTD/svg11.dtd">
<svg version="1.1" xmlns="http://www.w3.org/2000/svg" xmlns:xlink="http://www.w3.org/1999/xlink" x="0px" y="0px" width="20px"
	 height="20px" viewBox="0 0 20 20" style="enable-background:new 0 0 20 20;" xml:space="preserve">
<g id="person">
	<g>
		<rect id="le_wrappier_9_" x="-1190" y="62" style="fill:none;" width="20" height="20"/>
		<path style="fill-rule:evenodd;clip-rule:evenodd;fill:#AAAAAA;" d="M-1172.728,77.659c-4.181-1.153-4.926-2.728-4.926-4.897
			c0-1.465,1.356-2.936,1.586-4.006c0.23-1.069,0.734-4.203-1.587-5.922c-0.773-0.572-1.558-0.85-2.346-0.834
			c-0.788-0.016-1.573,0.262-2.345,0.834c-2.322,1.719-1.818,4.853-1.588,5.922c0.231,1.07,1.587,2.541,1.587,4.006
			c0,2.17-0.745,3.744-4.926,4.897c-1.508,0.418-2.728,0.855-2.728,3.423c0,0.561,0.054,0.914,0.908,0.914
			c0.466,0,5.036,0.002,9.092,0.004c4.057-0.002,8.626-0.004,9.092-0.004c0.854,0,0.908-0.354,0.908-0.914
			C-1170,78.515-1171.219,78.077-1172.728,77.659z"/>
	</g>
</g>
<g id="Layer_1">
</g>
</svg>
