<?xml version="1.0" encoding="utf-8"?>
<!-- Generator: Adobe Illustrator 16.0.0, SVG Export Plug-In . SVG Version: 6.00 Build 0)  -->
<!DOCTYPE svg PUBLIC "-//W3C//DTD SVG 1.1//EN" "http://www.w3.org/Graphics/SVG/1.1/DTD/svg11.dtd">
<svg version="1.1" id="Layer_1" xmlns="http://www.w3.org/2000/svg" xmlns:xlink="http://www.w3.org/1999/xlink" x="0px" y="0px"
	 width="20px" height="20px" viewBox="0 0 20 20" enable-background="new 0 0 20 20" xml:space="preserve">
<g id="person">
	<g>
		<rect id="le_wrappier_9_" x="0.001" fill="none" width="20" height="20"/>
		<path fill="#AAAAAA" d="M17.273,15.659c-4.182-1.153-4.926-2.728-4.926-4.897c0-1.464,1.355-2.936,1.586-4.005
			s0.734-4.204-1.588-5.923c-0.771-0.57-1.557-0.85-2.346-0.833C9.213-0.016,8.428,0.264,7.655,0.834
			C5.334,2.553,5.838,5.688,6.066,6.757c0.231,1.069,1.588,2.541,1.588,4.005c0,2.17-0.744,3.744-4.926,4.897
			c-1.509,0.418-2.729,0.854-2.729,3.423c0,0.562,0.055,0.914,0.908,0.914c0.467,0,5.037,0.002,9.092,0.004
			c4.058-0.002,8.627-0.004,9.093-0.004c0.854,0,0.907-0.354,0.907-0.914C20.001,16.516,18.782,16.077,17.273,15.659z"/>
	</g>
</g>
<g id="Layer_1_1_">
</g>
</svg>
