<?xml version="1.0" encoding="iso-8859-1"?>
<!-- Generator: Adobe Illustrator 16.0.0, SVG Export Plug-In . SVG Version: 6.00 Build 0)  -->
<!DOCTYPE svg PUBLIC "-//W3C//DTD SVG 1.1//EN" "http://www.w3.org/Graphics/SVG/1.1/DTD/svg11.dtd">
<svg version="1.1" xmlns="http://www.w3.org/2000/svg" xmlns:xlink="http://www.w3.org/1999/xlink" x="0px" y="0px" width="20px"
	 height="20px" viewBox="0 0 20 20" style="enable-background:new 0 0 20 20;" xml:space="preserve">
<g id="plus-sign-disabled">
	<g>
		<rect id="le_wrappier_46_" y="0" style="fill:none;" width="20" height="20"/>
		<path id="plus-sign_15_" style="opacity:0.4;fill:#4E8ABE;" d="M19.599,8H12V0.4C12,0.18,11.82,0,11.598,0H8.398
			C8.18,0,7.999,0.18,7.999,0.4V8H0.398C0.18,8,0,8.18,0,8.4v3.201C0,11.82,0.18,12,0.398,12h7.601v7.602
			C7.999,19.82,8.18,20,8.398,20h3.199C11.82,20,12,19.82,12,19.602V12h7.599C19.82,12,20,11.82,20,11.602V8.4
			C20,8.18,19.82,8,19.599,8z"/>
	</g>
</g>
<g id="Layer_1">
</g>
</svg>
