<?xml version="1.0" encoding="utf-8"?>
<!-- Generator: Adobe Illustrator 16.0.0, SVG Export Plug-In . SVG Version: 6.00 Build 0)  -->
<!DOCTYPE svg PUBLIC "-//W3C//DTD SVG 1.1//EN" "http://www.w3.org/Graphics/SVG/1.1/DTD/svg11.dtd">
<svg version="1.1" id="Layer_1" xmlns="http://www.w3.org/2000/svg" xmlns:xlink="http://www.w3.org/1999/xlink" x="0px" y="0px"
	 width="20px" height="20px" viewBox="0 0 20 20" enable-background="new 0 0 20 20" xml:space="preserve">
<g id="plus-sign-disabled">
	<g>
		<rect id="le_wrappier_146_" fill="none" width="20" height="20"/>
		<path id="plus-sign_24_" opacity="0.4" fill="#4E8ABE" enable-background="new    " d="M19.6,8H12V0.4C12,0.18,11.82,0,11.598,0
			H8.399C8.18,0,8.001,0.18,8.001,0.4V8H0.399C0.18,8,0.001,8.18,0.001,8.4v3.201c0,0.219,0.18,0.397,0.398,0.397h7.602v7.603
			c0,0.219,0.18,0.397,0.398,0.397h3.199c0.224,0,0.402-0.181,0.402-0.397V12h7.6c0.221,0,0.4-0.18,0.4-0.398V8.4
			C20,8.18,19.82,8,19.6,8z"/>
	</g>
</g>
<g id="Layer_1_1_">
</g>
</svg>
