<?xml version="1.0" encoding="iso-8859-1"?>
<!-- Generator: Adobe Illustrator 16.0.0, SVG Export Plug-In . SVG Version: 6.00 Build 0)  -->
<!DOCTYPE svg PUBLIC "-//W3C//DTD SVG 1.1//EN" "http://www.w3.org/Graphics/SVG/1.1/DTD/svg11.dtd">
<svg version="1.1" xmlns="http://www.w3.org/2000/svg" xmlns:xlink="http://www.w3.org/1999/xlink" x="0px" y="0px" width="20px"
	 height="20px" viewBox="0 0 20 20" style="enable-background:new 0 0 20 20;" xml:space="preserve">
<g id="radio-button-disabled">
	<g>
		<rect id="le_wrappier_24_" style="fill:none;" width="20" height="20"/>
		<g id="radio-button-disabled_7_">
			<radialGradient id="SVGID_1_" cx="10.125" cy="0.2495" r="19.5" gradientUnits="userSpaceOnUse">
				<stop  offset="0" style="stop-color:#FFFFFF"/>
				<stop  offset="1" style="stop-color:#E6E6E6"/>
			</radialGradient>
			<circle style="opacity:0.6;fill:url(#SVGID_1_);" cx="10" cy="10" r="10"/>
			<path style="fill:#FFFFFF;" d="M10,1.25c4.825,0,8.75,3.925,8.75,8.75s-3.925,8.75-8.75,8.75c-4.825,0-8.75-3.926-8.75-8.75
				S5.175,1.25,10,1.25 M10,0C4.479,0,0,4.477,0,10c0,5.524,4.479,10,10,10c5.523,0,10-4.477,10-10C20,4.477,15.523,0,10,0L10,0z"/>
			<g style="opacity:0.4;">
				<path style="fill:#45494D;" d="M10,0.5c5.238,0,9.5,4.261,9.5,9.5c0,5.239-4.262,9.5-9.5,9.5S0.5,15.238,0.5,10
					C0.5,4.761,4.762,0.5,10,0.5 M10,0C4.479,0,0,4.477,0,10c0,5.524,4.479,10,10,10c5.523,0,10-4.477,10-10C20,4.477,15.523,0,10,0
					L10,0z"/>
			</g>
		</g>
	</g>
</g>
<g id="Layer_1">
</g>
</svg>
