<?xml version="1.0" encoding="iso-8859-1"?>
<!-- Generator: Adobe Illustrator 16.0.0, SVG Export Plug-In . SVG Version: 6.00 Build 0)  -->
<!DOCTYPE svg PUBLIC "-//W3C//DTD SVG 1.1//EN" "http://www.w3.org/Graphics/SVG/1.1/DTD/svg11.dtd">
<svg version="1.1" xmlns="http://www.w3.org/2000/svg" xmlns:xlink="http://www.w3.org/1999/xlink" x="0px" y="0px" width="20px"
	 height="20px" viewBox="0 0 20 20" style="enable-background:new 0 0 20 20;" xml:space="preserve">
<g id="radio-button-checked-hover-active">
	<g>
		<rect id="le_wrappier_54_" y="0" style="fill:none;" width="20" height="20"/>
		<g>
			<g id="radio_x3D_button-hover_1_">
				<radialGradient id="SVGID_1_" cx="9.9175" cy="19.833" r="19.6693" gradientUnits="userSpaceOnUse">
					<stop  offset="0" style="stop-color:#F2F6FB"/>
					<stop  offset="1" style="stop-color:#C1D5E6"/>
				</radialGradient>
				<circle style="fill:url(#SVGID_1_);" cx="10" cy="10" r="10"/>
				<g style="opacity:0.8;">
					<path style="fill:#FFFFFF;" d="M10,2c4.411,0,8,3.589,8,8c0,4.411-3.589,8-8,8c-4.412,0-8-3.589-8-8C2,5.589,5.589,2,10,2
						 M10,0C4.477,0,0,4.477,0,10c0,5.523,4.477,10,10,10c5.523,0,10-4.477,10-10C20,4.477,15.523,0,10,0L10,0z"/>
				</g>
				<g style="opacity:0.7;">
					<path style="fill:#3A668C;" d="M10,1c4.962,0,9,4.038,9,9s-4.037,9-9,9c-4.963,0-9-4.037-9-9S5.038,1,10,1 M10,0
						C4.477,0,0,4.477,0,10c0,5.523,4.477,10,10,10c5.523,0,10-4.477,10-10C20,4.477,15.523,0,10,0L10,0z"/>
				</g>
			</g>
			<g id="checked-indicator_4_">
				<linearGradient id="SVGID_2_" gradientUnits="userSpaceOnUse" x1="13.4258" y1="12.8848" x2="6.5314" y2="7.0997">
					<stop  offset="0" style="stop-color:#66A2D7"/>
					<stop  offset="1" style="stop-color:#517FA5"/>
				</linearGradient>
				
					<circle style="opacity:0.6;fill:none;stroke:url(#SVGID_2_);stroke-width:0.0219;stroke-linecap:round;stroke-linejoin:round;stroke-miterlimit:10;" cx="9.978" cy="9.991" r="4.489"/>
				
					<radialGradient id="SVGID_3_" cx="49.8818" cy="15.0713" r="8.0199" gradientTransform="matrix(0.9619 0 0 0.9618 -37.9194 -2.48)" gradientUnits="userSpaceOnUse">
					<stop  offset="0.1212" style="stop-color:#8DB9DD"/>
					<stop  offset="0.5126" style="stop-color:#5C9BD0"/>
					<stop  offset="0.6719" style="stop-color:#448CCA"/>
					<stop  offset="1" style="stop-color:#336B9A"/>
				</radialGradient>
				<circle style="fill:url(#SVGID_3_);" cx="9.978" cy="9.991" r="4.489"/>
			</g>
		</g>
	</g>
</g>
<g id="Layer_1">
</g>
</svg>
