<?xml version="1.0" encoding="iso-8859-1"?>
<!-- Generator: Adobe Illustrator 16.0.0, SVG Export Plug-In . SVG Version: 6.00 Build 0)  -->
<!DOCTYPE svg PUBLIC "-//W3C//DTD SVG 1.1//EN" "http://www.w3.org/Graphics/SVG/1.1/DTD/svg11.dtd">
<svg version="1.1" xmlns="http://www.w3.org/2000/svg" xmlns:xlink="http://www.w3.org/1999/xlink" x="0px" y="0px" width="20px"
	 height="20px" viewBox="0 0 20 20" style="enable-background:new 0 0 20 20;" xml:space="preserve">
<g id="radio-button-disabled">
	<g>
		<rect id="le_wrappier_24_" y="0" style="fill:none;" width="20" height="20"/>
		<g id="radio-button-disabled_7_">
			<radialGradient id="SVGID_1_" cx="10.125" cy="0.25" r="19.4995" gradientUnits="userSpaceOnUse">
				<stop  offset="0" style="stop-color:#FFFFFF"/>
				<stop  offset="1" style="stop-color:#E6E6E6"/>
			</radialGradient>
			<circle style="fill:url(#SVGID_1_);" cx="10" cy="10" r="10"/>
			<g>
				<path style="fill:#FFFFFF;" d="M10,2c4.411,0,8,3.588,8,8s-3.589,8-8,8s-8-3.589-8-8S5.589,2,10,2 M10,0C4.479,0,0,4.477,0,10
					c0,5.523,4.479,10,10,10c5.523,0,10-4.477,10-10C20,4.477,15.523,0,10,0L10,0z"/>
			</g>
			<g style="opacity:0.8;">
				<path style="fill:#45494D;" d="M10,1c4.963,0,9,4.037,9,9c0,4.963-4.037,9-9,9s-9-4.037-9-9C1,5.038,5.037,1,10,1 M10,0
					C4.479,0,0,4.477,0,10c0,5.523,4.479,10,10,10c5.523,0,10-4.477,10-10C20,4.477,15.523,0,10,0L10,0z"/>
			</g>
		</g>
	</g>
</g>
<g id="Layer_1">
</g>
</svg>
