<?xml version="1.0" encoding="iso-8859-1"?>
<!-- Generator: Adobe Illustrator 16.0.0, SVG Export Plug-In . SVG Version: 6.00 Build 0)  -->
<!DOCTYPE svg PUBLIC "-//W3C//DTD SVG 1.1//EN" "http://www.w3.org/Graphics/SVG/1.1/DTD/svg11.dtd">
<svg version="1.1" xmlns="http://www.w3.org/2000/svg" xmlns:xlink="http://www.w3.org/1999/xlink" x="0px" y="0px" width="20px"
	 height="20px" viewBox="0 0 20 20" style="enable-background:new 0 0 20 20;" xml:space="preserve">
<g id="radio-button-checked-hover">
	<g>
		<rect id="le_wrappier_31_" style="fill:none;" width="20" height="20"/>
		<g>
			<g id="radio_x3D_button-hover_7_">
				<radialGradient id="SVGID_1_" cx="10.334" cy="0.667" r="19.167" gradientUnits="userSpaceOnUse">
					<stop  offset="0" style="stop-color:#F2F6FB"/>
					<stop  offset="1" style="stop-color:#C1D5E6"/>
				</radialGradient>
				<circle style="fill:url(#SVGID_1_);" cx="10" cy="10" r="10"/>
				<path style="fill:#FFFFFF;" d="M10,1.25c4.825,0,8.75,3.925,8.75,8.75c0,4.825-3.925,8.75-8.75,8.75
					c-4.825,0-8.75-3.925-8.75-8.75C1.25,5.175,5.175,1.25,10,1.25 M10,0C4.477,0,0,4.477,0,10s4.477,10,10,10
					c5.523,0,10-4.477,10-10S15.523,0,10,0L10,0z"/>
				<path style="fill:#6A8799;" d="M10,0.5c5.238,0,9.5,4.262,9.5,9.5s-4.262,9.5-9.5,9.5c-5.239,0-9.5-4.262-9.5-9.5
					S4.762,0.5,10,0.5 M10,0C4.477,0,0,4.477,0,10s4.477,10,10,10c5.523,0,10-4.477,10-10S15.523,0,10,0L10,0z"/>
			</g>
			<g id="checked-indicator_24_">
				
					<circle style="fill:none;stroke:#6A8799;stroke-width:2;stroke-linecap:round;stroke-linejoin:round;stroke-miterlimit:10;" cx="9.999" cy="10" r="4.667"/>
				
					<circle style="fill:none;stroke:#FFFFFF;stroke-width:0.75;stroke-linecap:round;stroke-linejoin:round;stroke-miterlimit:10;" cx="9.999" cy="10" r="4.667"/>
				<linearGradient id="SVGID_2_" gradientUnits="userSpaceOnUse" x1="13.583" y1="13.0078" x2="6.417" y2="6.9949">
					<stop  offset="0" style="stop-color:#66A2D7"/>
					<stop  offset="1" style="stop-color:#517FA5"/>
				</linearGradient>
				
					<circle style="opacity:0.6;fill:none;stroke:url(#SVGID_2_);stroke-width:0.0219;stroke-linecap:round;stroke-linejoin:round;stroke-miterlimit:10;" cx="9.999" cy="10" r="4.667"/>
				<radialGradient id="SVGID_3_" cx="10.062" cy="5.375" r="9.4377" gradientUnits="userSpaceOnUse">
					<stop  offset="0" style="stop-color:#448CCA"/>
					<stop  offset="1" style="stop-color:#336B9A"/>
				</radialGradient>
				<circle style="fill:url(#SVGID_3_);" cx="9.999" cy="10" r="4.667"/>
			</g>
		</g>
	</g>
</g>
<g id="Layer_1">
</g>
</svg>
