<?xml version="1.0" encoding="iso-8859-1"?>
<!-- Generator: Adobe Illustrator 16.0.0, SVG Export Plug-In . SVG Version: 6.00 Build 0)  -->
<!DOCTYPE svg PUBLIC "-//W3C//DTD SVG 1.1//EN" "http://www.w3.org/Graphics/SVG/1.1/DTD/svg11.dtd">
<svg version="1.1" xmlns="http://www.w3.org/2000/svg" xmlns:xlink="http://www.w3.org/1999/xlink" x="0px" y="0px" width="20px"
	 height="20px" viewBox="0 0 20 20" style="enable-background:new 0 0 20 20;" xml:space="preserve">
<g id="radio-button-checked-disabled">
	<g>
		<rect id="le_wrappier_52_" style="fill:none;" width="20" height="20"/>
		<g>
			<g id="radio-button-disabled_2_">
				<linearGradient id="SVGID_1_" gradientUnits="userSpaceOnUse" x1="9.9995" y1="0" x2="9.9995" y2="20.0005">
					<stop  offset="0" style="stop-color:#F2F6FB"/>
					<stop  offset="0.48" style="stop-color:#F2F6FB"/>
					<stop  offset="0.5" style="stop-color:#CDDFEC"/>
					<stop  offset="0.7287" style="stop-color:#C4D8E8"/>
					<stop  offset="1" style="stop-color:#C1D5E6"/>
				</linearGradient>
				<circle style="fill:url(#SVGID_1_);" cx="10" cy="10" r="10"/>
				<g>
					<path style="fill:#FFFFFF;" d="M10,1.25c4.825,0,8.75,3.925,8.75,8.75c0,4.825-3.925,8.75-8.75,8.75
						c-4.825,0-8.75-3.925-8.75-8.75C1.25,5.175,5.175,1.25,10,1.25 M10,0C4.477,0,0,4.477,0,10s4.477,10,10,10s10-4.477,10-10
						S15.523,0,10,0L10,0z"/>
				</g>
				<g style="opacity:0.4;">
					<path style="fill:#6A8799;" d="M10,0.5c5.238,0,9.5,4.262,9.5,9.5s-4.262,9.5-9.5,9.5S0.5,15.238,0.5,10S4.762,0.5,10,0.5
						 M10,0C4.477,0,0,4.477,0,10s4.477,10,10,10s10-4.477,10-10S15.523,0,10,0L10,0z"/>
				</g>
			</g>
			<g id="checked-indicator-disabled_2_" style="opacity:0.4;">
				
					<circle style="fill:none;stroke:#6A8799;stroke-width:2;stroke-linecap:round;stroke-linejoin:round;stroke-miterlimit:10;" cx="9.999" cy="10" r="4.666"/>
				
					<circle style="fill:none;stroke:#FFFFFF;stroke-width:0.75;stroke-linecap:round;stroke-linejoin:round;stroke-miterlimit:10;" cx="9.999" cy="10" r="4.666"/>
				<linearGradient id="SVGID_2_" gradientUnits="userSpaceOnUse" x1="13.583" y1="13.0078" x2="6.4163" y2="6.9942">
					<stop  offset="0" style="stop-color:#66A2D7"/>
					<stop  offset="1" style="stop-color:#517FA5"/>
				</linearGradient>
				
					<circle style="opacity:0.6;fill:none;stroke:url(#SVGID_2_);stroke-width:0.0219;stroke-linecap:round;stroke-linejoin:round;stroke-miterlimit:10;" cx="9.999" cy="10" r="4.666"/>
				<linearGradient id="SVGID_3_" gradientUnits="userSpaceOnUse" x1="9.2031" y1="14.5186" x2="9.7609" y2="11.3551">
					<stop  offset="0" style="stop-color:#336B9A"/>
					<stop  offset="1" style="stop-color:#448CCA"/>
				</linearGradient>
				<circle style="fill:url(#SVGID_3_);" cx="9.999" cy="10" r="4.666"/>
			</g>
		</g>
	</g>
</g>
<g id="Layer_1">
</g>
</svg>
