<?xml version="1.0" encoding="iso-8859-1"?>
<!-- Generator: Adobe Illustrator 16.0.0, SVG Export Plug-In . SVG Version: 6.00 Build 0)  -->
<!DOCTYPE svg PUBLIC "-//W3C//DTD SVG 1.1//EN" "http://www.w3.org/Graphics/SVG/1.1/DTD/svg11.dtd">
<svg version="1.1" xmlns="http://www.w3.org/2000/svg" xmlns:xlink="http://www.w3.org/1999/xlink" x="0px" y="0px" width="20px"
	 height="20px" viewBox="0 0 20 20" style="enable-background:new 0 0 20 20;" xml:space="preserve">
<g id="radio-button-checked-disabled">
	<g>
		<rect id="le_wrappier_32_" style="fill:none;" width="20" height="20"/>
		<g>
			<g id="radio-button_1_">
				<radialGradient id="SVGID_1_" cx="10" cy="0.248" r="19.5978" gradientUnits="userSpaceOnUse">
					<stop  offset="0" style="stop-color:#FFFFFF"/>
					<stop  offset="1" style="stop-color:#E6E6E6"/>
				</radialGradient>
				<path style="fill:url(#SVGID_1_);" d="M0,10c0,5.524,4.476,10,10,10c5.52,0,10-4.476,10-10S15.52,0,10,0C4.476,0,0,4.476,0,10z"
					/>
				<g style="opacity:0.6;">
					<path style="fill:#FFFFFF;" d="M10,2c4.411,0,8,3.589,8,8s-3.589,8-8,8s-8-3.589-8-8S5.589,2,10,2 M10,0C4.476,0,0,4.476,0,10
						s4.476,10,10,10c5.52,0,10-4.476,10-10S15.52,0,10,0L10,0z"/>
				</g>
				<g style="opacity:0.7;">
					<path style="fill:#45494D;" d="M10,1c4.963,0,9,4.038,9,9c0,4.963-4.037,9-9,9s-9-4.037-9-9C1,5.038,5.037,1,10,1 M10,0
						C4.476,0,0,4.476,0,10s4.476,10,10,10c5.52,0,10-4.476,10-10S15.52,0,10,0L10,0z"/>
				</g>
			</g>
			<g id="checked-indicator_5_">
				<linearGradient id="SVGID_2_" gradientUnits="userSpaceOnUse" x1="13.4473" y1="12.8916" x2="6.5529" y2="7.1065">
					<stop  offset="0" style="stop-color:#66A2D7"/>
					<stop  offset="1" style="stop-color:#517FA5"/>
				</linearGradient>
				
					<circle style="opacity:0.6;fill:none;stroke:url(#SVGID_2_);stroke-width:0.0219;stroke-linecap:round;stroke-linejoin:round;stroke-miterlimit:10;" cx="10" cy="9.998" r="4.489"/>
				
					<radialGradient id="SVGID_3_" cx="49.6162" cy="10.4312" r="6.7836" gradientTransform="matrix(0.9619 0 0 0.9618 -38.1251 -2.5983)" gradientUnits="userSpaceOnUse">
					<stop  offset="0.0031" style="stop-color:#DAE8F2"/>
					<stop  offset="0.1212" style="stop-color:#8DB9DD"/>
					<stop  offset="0.5126" style="stop-color:#5C9BD0"/>
					<stop  offset="0.6719" style="stop-color:#448CCA"/>
					<stop  offset="1" style="stop-color:#336B9A"/>
				</radialGradient>
				<circle style="fill:url(#SVGID_3_);" cx="10" cy="9.998" r="4.489"/>
			</g>
		</g>
	</g>
</g>
<g id="Layer_1">
</g>
</svg>
