<?xml version="1.0" encoding="iso-8859-1"?>
<!-- Generator: Adobe Illustrator 16.0.0, SVG Export Plug-In . SVG Version: 6.00 Build 0)  -->
<!DOCTYPE svg PUBLIC "-//W3C//DTD SVG 1.1//EN" "http://www.w3.org/Graphics/SVG/1.1/DTD/svg11.dtd">
<svg version="1.1" xmlns="http://www.w3.org/2000/svg" xmlns:xlink="http://www.w3.org/1999/xlink" x="0px" y="0px" width="20px"
	 height="20px" viewBox="0 0 20 20" style="enable-background:new 0 0 20 20;" xml:space="preserve">
<g id="refresh">
	<g>
		<rect id="le_wrappier_61_" x="-1190" y="62" style="fill:none;" width="20" height="20"/>
		<g>
			<path style="fill:#AAAAAA;" d="M-1171.877,68.472c-1.407-3.235-4.556-5.313-8.104-5.313c-3.628,0-6.944,2.273-8.25,5.657
				l2.75,1.062c0.87-2.256,3.081-3.771,5.5-3.771c2.334,0,4.4,1.355,5.356,3.463l-2.006,0.801l5.131,2.961l1.5-5.607
				L-1171.877,68.472z"/>
			<path style="fill:#AAAAAA;" d="M-1179.981,77.895c-2.313,0-4.423-1.396-5.366-3.49l1.978-0.765l-5.077-2.896l-1.554,5.458
				l1.894-0.731c1.38,3.223,4.603,5.371,8.125,5.371c3.642,0,6.867-2.186,8.215-5.566l-2.737-1.093
				C-1175.402,76.438-1177.552,77.895-1179.981,77.895z"/>
		</g>
	</g>
</g>
<g id="Layer_1">
</g>
</svg>
