<?xml version="1.0" encoding="utf-8"?>
<!-- Generator: Adobe Illustrator 16.0.0, SVG Export Plug-In . SVG Version: 6.00 Build 0)  -->
<!DOCTYPE svg PUBLIC "-//W3C//DTD SVG 1.1//EN" "http://www.w3.org/Graphics/SVG/1.1/DTD/svg11.dtd">
<svg version="1.1" id="Layer_1" xmlns="http://www.w3.org/2000/svg" xmlns:xlink="http://www.w3.org/1999/xlink" x="0px" y="0px"
	 width="20px" height="20px" viewBox="0 0 20 20" enable-background="new 0 0 20 20" xml:space="preserve">
<g id="refresh">
	<g>
		<rect id="le_wrappier_61_" fill="none" width="20" height="20"/>
		<g>
			<path fill="#AAAAAA" d="M18.123,6.473c-1.407-3.236-4.557-5.313-8.104-5.313c-3.628,0-6.944,2.274-8.25,5.657l2.75,1.062
				c0.87-2.257,3.081-3.772,5.5-3.772c2.334,0,4.4,1.355,5.355,3.463l-2.006,0.803l5.131,2.96l1.5-5.606L18.123,6.473z"/>
			<path fill="#AAAAAA" d="M10.02,15.895c-2.312,0-4.423-1.396-5.365-3.49l1.977-0.764L1.556,8.744l-1.555,5.458l1.895-0.731
				c1.38,3.225,4.603,5.371,8.125,5.371c3.643,0,6.867-2.186,8.215-5.566L15.5,12.184C14.598,14.438,12.448,15.895,10.02,15.895z"/>
		</g>
	</g>
</g>
<g id="Layer_1_1_">
</g>
</svg>
