<?xml version="1.0" encoding="iso-8859-1"?>
<!-- Generator: Adobe Illustrator 18.1.1, SVG Export Plug-In . SVG Version: 6.00 Build 0)  -->
<svg version="1.1" id="Layer_1" xmlns="http://www.w3.org/2000/svg" xmlns:xlink="http://www.w3.org/1999/xlink" x="0px" y="0px"
	 viewBox="0 0 20 20" style="enable-background:new 0 0 20 20;" xml:space="preserve">
<g id="refresh-disabled">
</g>
<g id="Layer_1_1_">
</g>
<g>
	<rect id="le_wrappier_127_" style="fill:none;" width="20" height="20"/>
	<g>
		<path style="fill:#ABABAB;fill-opacity:0.4;" d="M18.123,6.472c-1.407-3.235-4.556-5.314-8.103-5.314
			c-3.628,0-6.944,2.274-8.25,5.657l2.75,1.062c0.87-2.257,3.081-3.773,5.5-3.773c2.334,0,4.4,1.355,5.356,3.463L13.369,8.37
			l5.131,2.96L20,5.723L18.123,6.472z"/>
		<path style="fill:#ABABAB;fill-opacity:0.4;" d="M10.019,15.894c-2.312,0-4.423-1.396-5.365-3.49l1.977-0.765L1.555,8.744
			L0,14.202l1.895-0.731c1.38,3.224,4.603,5.371,8.125,5.371c3.643,0,6.867-2.186,8.215-5.566l-2.736-1.093
			C14.598,14.438,12.448,15.894,10.019,15.894z"/>
	</g>
</g>
</svg>
