<?xml version="1.0" encoding="iso-8859-1"?>
<!-- Generator: Adobe Illustrator 16.0.0, SVG Export Plug-In . SVG Version: 6.00 Build 0)  -->
<!DOCTYPE svg PUBLIC "-//W3C//DTD SVG 1.1//EN" "http://www.w3.org/Graphics/SVG/1.1/DTD/svg11.dtd">
<svg version="1.1" xmlns="http://www.w3.org/2000/svg" xmlns:xlink="http://www.w3.org/1999/xlink" x="0px" y="0px" width="20px"
	 height="20px" viewBox="0 0 20 20" style="enable-background:new 0 0 20 20;" xml:space="preserve">
<g id="remove-hover">
	<rect id="le_wrappier_112_" style="fill:none;" width="20" height="20"/>
	<g>
		<path style="fill:#FDD7D8;" d="M20,17c0,1.65-1.35,3-3,3H3c-1.65,0-3-1.35-3-3V3c0-1.65,1.35-3,3-3h14c1.65,0,3,1.35,3,3V17z"/>
	</g>
	<g id="plus-sign_4_">
		<linearGradient id="SVGID_1_" gradientUnits="userSpaceOnUse" x1="10.0005" y1="4.1816" x2="10.0005" y2="15.8198">
			<stop  offset="0" style="stop-color:#F5888D"/>
			<stop  offset="0.0288" style="stop-color:#F58489"/>
			<stop  offset="0.2765" style="stop-color:#F2676D"/>
			<stop  offset="0.5231" style="stop-color:#F05359"/>
			<stop  offset="0.7658" style="stop-color:#EE464D"/>
			<stop  offset="1" style="stop-color:#EE4249"/>
		</linearGradient>
		<path style="fill:url(#SVGID_1_);" d="M4.255,14.597c-0.097-0.098-0.097-0.256,0-0.354l4.066-4.066
			c0.097-0.097,0.097-0.256,0-0.354L4.255,5.758c-0.097-0.097-0.097-0.256,0-0.354l1.15-1.15c0.097-0.097,0.256-0.097,0.354,0
			l4.065,4.066c0.097,0.097,0.256,0.097,0.354,0l4.065-4.067c0.098-0.097,0.256-0.097,0.354,0l1.149,1.15
			c0.098,0.097,0.098,0.256,0,0.354l-4.065,4.065c-0.098,0.097-0.098,0.256,0,0.354l4.065,4.066c0.098,0.098,0.098,0.256,0,0.354
			l-1.149,1.149c-0.098,0.098-0.256,0.098-0.354,0l-4.065-4.066c-0.097-0.098-0.256-0.098-0.354,0l-4.066,4.066
			c-0.097,0.098-0.256,0.098-0.354,0L4.255,14.597z"/>
	</g>
</g>
<g id="Layer_1">
</g>
</svg>
