<?xml version="1.0" encoding="iso-8859-1"?>
<!-- Generator: Adobe Illustrator 16.0.0, SVG Export Plug-In . SVG Version: 6.00 Build 0)  -->
<!DOCTYPE svg PUBLIC "-//W3C//DTD SVG 1.1//EN" "http://www.w3.org/Graphics/SVG/1.1/DTD/svg11.dtd">
<svg version="1.1" xmlns="http://www.w3.org/2000/svg" xmlns:xlink="http://www.w3.org/1999/xlink" x="0px" y="0px" width="20px"
	 height="20px" viewBox="0 0 20 20" style="enable-background:new 0 0 20 20;" xml:space="preserve">
<g id="remove">
	<rect id="le_wrappier_23_" style="fill:none;" width="20" height="20"/>
	<g>
		<path style="fill:#DDDDDD;" d="M20,17c0,1.65-1.35,3-3,3H3c-1.65,0-3-1.35-3-3V3c0-1.65,1.35-3,3-3h14c1.65,0,3,1.35,3,3V17z"/>
	</g>
	<g id="plus-sign_2_">
		<path style="fill:#808080;" d="M10.177,11.68c-0.097-0.098-0.256-0.098-0.354,0l-4.066,4.067c-0.097,0.098-0.256,0.097-0.354,0
			l-1.149-1.151c-0.097-0.097-0.097-0.256,0-0.354l4.066-4.065c0.097-0.097,0.097-0.256,0-0.354L4.255,5.758
			c-0.097-0.097-0.097-0.256,0-0.354l1.15-1.15c0.097-0.097,0.256-0.097,0.354,0l4.065,4.066c0.097,0.097,0.256,0.097,0.354,0
			l4.065-4.066c0.098-0.097,0.256-0.097,0.354,0l1.149,1.15c0.098,0.097,0.098,0.256,0,0.354L11.68,9.823
			c-0.098,0.097-0.098,0.256,0,0.354l4.066,4.066c0.098,0.098,0.098,0.256,0,0.354l-1.149,1.15c-0.098,0.098-0.256,0.098-0.354,0
			L10.177,11.68z"/>
	</g>
</g>
<g id="Layer_1">
</g>
</svg>
