<?xml version="1.0" encoding="iso-8859-1"?>
<!-- Generator: Adobe Illustrator 16.0.0, SVG Export Plug-In . SVG Version: 6.00 Build 0)  -->
<!DOCTYPE svg PUBLIC "-//W3C//DTD SVG 1.1//EN" "http://www.w3.org/Graphics/SVG/1.1/DTD/svg11.dtd">
<svg version="1.1" xmlns="http://www.w3.org/2000/svg" xmlns:xlink="http://www.w3.org/1999/xlink" x="0px" y="0px" width="20px"
	 height="20px" viewBox="0 0 20 20" style="enable-background:new 0 0 20 20;" xml:space="preserve">
<g id="return-to-top-hover">
	<g>
		<g>
			<linearGradient id="SVGID_1_" gradientUnits="userSpaceOnUse" x1="9.9995" y1="0" x2="9.9995" y2="20.0005">
				<stop  offset="0" style="stop-color:#F1F8FF"/>
				<stop  offset="0.9" style="stop-color:#A1C8E6"/>
			</linearGradient>
			<circle style="fill:url(#SVGID_1_);" cx="10" cy="10" r="10"/>
			<g>
				<path style="fill:#FFFFFF;" d="M10,1c4.963,0,9,4.038,9,9c0,4.963-4.037,9-9,9s-9-4.037-9-9C1,5.038,5.037,1,10,1 M10,0
					C4.477,0,0,4.476,0,10c0,5.523,4.477,10,10,10c5.522,0,10-4.477,10-10C20,4.476,15.522,0,10,0L10,0z"/>
			</g>
			<g style="opacity:0.8;">
				<path style="fill:#6A8799;" d="M10,0.5c5.238,0,9.5,4.262,9.5,9.5s-4.262,9.5-9.5,9.5S0.5,15.238,0.5,10S4.762,0.5,10,0.5 M10,0
					C4.477,0,0,4.476,0,10c0,5.523,4.477,10,10,10c5.522,0,10-4.477,10-10C20,4.476,15.522,0,10,0L10,0z"/>
			</g>
		</g>
		<g>
			<linearGradient id="SVGID_2_" gradientUnits="userSpaceOnUse" x1="9.9395" y1="2.3052" x2="9.9395" y2="16.4282">
				<stop  offset="0" style="stop-color:#4E8ABE"/>
				<stop  offset="1" style="stop-color:#3A668C"/>
			</linearGradient>
			<path style="fill:url(#SVGID_2_);" d="M9.569,4.85H8.748L9.19,2.305l-4.595,4.19l4.595,4.206L8.748,8.156h0.821
				c1.133,0,2.098,0.402,2.894,1.208c0.796,0.805,1.194,1.778,1.194,2.919c0,1.143-0.398,2.118-1.194,2.93
				c-0.796,0.81-1.761,1.215-2.894,1.215c1.583,0,2.93-0.566,4.044-1.698c1.113-1.13,1.671-2.497,1.671-4.099
				c0-1.601-0.558-2.965-1.671-4.091C12.499,5.414,11.151,4.85,9.569,4.85z"/>
			<g style="opacity:0.5;">
				<path style="fill:#45494D;" d="M9.005,2.644l-0.38,2.185L8.6,4.975h0.148h0.821c1.54,0,2.871,0.556,3.956,1.653
					s1.635,2.444,1.635,4.003c0,1.561-0.55,2.91-1.635,4.011c-0.438,0.445-0.917,0.802-1.433,1.068
					c0.159-0.123,0.312-0.26,0.46-0.409c0.816-0.833,1.23-1.848,1.23-3.018s-0.414-2.181-1.23-3.007
					c-0.816-0.827-1.819-1.246-2.983-1.246H8.748H8.6l0.025,0.146l0.379,2.185L4.78,6.496L9.005,2.644 M9.19,2.305l-4.595,4.19
					l4.595,4.206L8.748,8.156h0.821c1.133,0,2.098,0.402,2.894,1.208c0.796,0.805,1.194,1.778,1.194,2.919
					c0,1.143-0.398,2.118-1.194,2.93c-0.796,0.81-1.761,1.215-2.894,1.215c1.583,0,2.93-0.566,4.044-1.698
					c1.113-1.13,1.671-2.497,1.671-4.099c0-1.601-0.558-2.965-1.671-4.091c-1.114-1.126-2.462-1.69-4.044-1.69H8.748L9.19,2.305
					L9.19,2.305z"/>
			</g>
		</g>
	</g>
</g>
<g id="Layer_1">
</g>
</svg>
