<?xml version="1.0" encoding="iso-8859-1"?>
<!-- Generator: Adobe Illustrator 16.0.0, SVG Export Plug-In . SVG Version: 6.00 Build 0)  -->
<!DOCTYPE svg PUBLIC "-//W3C//DTD SVG 1.1//EN" "http://www.w3.org/Graphics/SVG/1.1/DTD/svg11.dtd">
<svg version="1.1" xmlns="http://www.w3.org/2000/svg" xmlns:xlink="http://www.w3.org/1999/xlink" x="0px" y="0px" width="20px"
	 height="20px" viewBox="0 0 20 20" style="enable-background:new 0 0 20 20;" xml:space="preserve">
<g id="return-to-top-hover">
	<g>
		<g>
			<linearGradient id="SVGID_1_" gradientUnits="userSpaceOnUse" x1="9.9995" y1="0" x2="9.9995" y2="20.0005">
				<stop  offset="0" style="stop-color:#F1F8FF"/>
				<stop  offset="0.9" style="stop-color:#A1C8E6"/>
			</linearGradient>
			<circle style="fill:url(#SVGID_1_);" cx="10" cy="10" r="10"/>
			<g>
				<path style="fill:#FFFFFF;" d="M10,1c4.963,0,9,4.038,9,9c0,4.963-4.037,9-9,9s-9-4.037-9-9C1,5.038,5.037,1,10,1 M10,0
					C4.477,0,0,4.477,0,10c0,5.524,4.477,10,10,10s10-4.476,10-10C20,4.477,15.523,0,10,0L10,0z"/>
			</g>
			<g style="opacity:0.8;">
				<path style="fill:#6A8799;" d="M10,0.5c5.238,0,9.5,4.262,9.5,9.5s-4.262,9.5-9.5,9.5S0.5,15.238,0.5,10S4.762,0.5,10,0.5 M10,0
					C4.477,0,0,4.477,0,10c0,5.524,4.477,10,10,10s10-4.476,10-10C20,4.477,15.523,0,10,0L10,0z"/>
			</g>
		</g>
		<g>
			<linearGradient id="SVGID_2_" gradientUnits="userSpaceOnUse" x1="9.9399" y1="2.3057" x2="9.9399" y2="16.4282">
				<stop  offset="0" style="stop-color:#4E8ABE"/>
				<stop  offset="1" style="stop-color:#3A668C"/>
			</linearGradient>
			<path style="fill:url(#SVGID_2_);" d="M9.568,4.85h-0.82l0.443-2.544l-4.596,4.19l4.596,4.205L8.748,8.156h0.82
				c1.135,0,2.1,0.402,2.895,1.208c0.797,0.805,1.195,1.779,1.195,2.92c0,1.142-0.398,2.117-1.195,2.929
				c-0.795,0.81-1.76,1.215-2.895,1.215c1.584,0,2.932-0.565,4.045-1.698c1.113-1.13,1.672-2.497,1.672-4.099
				c0-1.601-0.559-2.965-1.672-4.091S11.152,4.85,9.568,4.85z"/>
			<g style="opacity:0.5;">
				<path style="fill:#45494D;" d="M9.005,2.645l-0.38,2.184L8.6,4.975h0.148h0.82c1.54,0,2.871,0.556,3.956,1.653
					c1.085,1.098,1.636,2.444,1.636,4.003c0,1.56-0.551,2.909-1.636,4.011c-0.438,0.446-0.917,0.803-1.435,1.07
					c0.16-0.124,0.314-0.261,0.462-0.411c0.817-0.832,1.231-1.847,1.231-3.017c0-1.171-0.414-2.183-1.231-3.008
					c-0.815-0.826-1.819-1.245-2.983-1.245h-0.82H8.6l0.025,0.146l0.38,2.184L4.781,6.496L9.005,2.645 M9.191,2.306l-4.596,4.19
					l4.596,4.205L8.748,8.156h0.82c1.135,0,2.1,0.402,2.895,1.208c0.797,0.805,1.195,1.779,1.195,2.92
					c0,1.142-0.398,2.117-1.195,2.929c-0.795,0.81-1.76,1.215-2.895,1.215c1.584,0,2.932-0.565,4.045-1.698
					c1.113-1.13,1.672-2.497,1.672-4.099c0-1.601-0.559-2.965-1.672-4.091s-2.461-1.69-4.045-1.69h-0.82L9.191,2.306L9.191,2.306z"
					/>
			</g>
		</g>
	</g>
</g>
<g id="Layer_1">
</g>
</svg>
