<?xml version="1.0" encoding="iso-8859-1"?>
<!-- Generator: Adobe Illustrator 16.0.0, SVG Export Plug-In . SVG Version: 6.00 Build 0)  -->
<!DOCTYPE svg PUBLIC "-//W3C//DTD SVG 1.1//EN" "http://www.w3.org/Graphics/SVG/1.1/DTD/svg11.dtd">
<svg version="1.1" xmlns="http://www.w3.org/2000/svg" xmlns:xlink="http://www.w3.org/1999/xlink" x="0px" y="0px" width="20px"
	 height="20px" viewBox="0 0 20 20" style="enable-background:new 0 0 20 20;" xml:space="preserve">
<g id="search-active">
	<g>
		<g id="button-2px-corner_93_">
			<linearGradient id="SVGID_1_" gradientUnits="userSpaceOnUse" x1="10.0005" y1="20" x2="10.0005" y2="4.882812e-04">
				<stop  offset="0" style="stop-color:#F1F8FF"/>
				<stop  offset="0.9" style="stop-color:#A1C8E6"/>
			</linearGradient>
			<path style="fill:url(#SVGID_1_);" d="M0,17c0,1.65,1.35,3,3,3h14c1.65,0,3-1.35,3-3V3c0-1.65-1.35-3-3-3H3C1.35,0,0,1.35,0,3V17
				z"/>
			<g>
				<path style="fill:#FFFFFF;" d="M17,1c1.103,0,2,0.897,2,2v14c0,1.103-0.897,2-2,2H3c-1.103,0-2-0.897-2-2V3c0-1.103,0.897-2,2-2
					H17 M17,0H3C1.35,0,0,1.35,0,3v14c0,1.65,1.35,3,3,3h14c1.65,0,3-1.35,3-3V3C20,1.35,18.65,0,17,0L17,0z"/>
			</g>
			<g style="opacity:0.8;">
				<path style="fill:#6A8799;" d="M17,0.5c1.379,0,2.5,1.122,2.5,2.5v14c0,1.379-1.121,2.5-2.5,2.5H3c-1.378,0-2.5-1.121-2.5-2.5V3
					c0-1.378,1.122-2.5,2.5-2.5H17 M17,0H3C1.35,0,0,1.35,0,3v14c0,1.65,1.35,3,3,3h14c1.65,0,3-1.35,3-3V3C20,1.35,18.65,0,17,0
					L17,0z"/>
			</g>
		</g>
		<g>
			<g id="spyglass-form_18_">
				<linearGradient id="SVGID_2_" gradientUnits="userSpaceOnUse" x1="2.5151" y1="10" x2="17.4854" y2="10">
					<stop  offset="0" style="stop-color:#FFFFFF"/>
					<stop  offset="0.9" style="stop-color:#D7E5EF"/>
				</linearGradient>
				<path style="fill:url(#SVGID_2_);" d="M11.333,3.073c1.446,0,2.894,0.552,3.997,1.655c2.208,2.206,2.207,5.785,0,7.992
					c-1.1,1.1-2.538,1.646-3.979,1.646c-1.029,0-2.06-0.279-2.967-0.835l-3.261,3.257l-0.012-0.014
					c-0.124,0.103-0.284,0.152-0.463,0.152c-0.346,0-0.76-0.185-1.105-0.528c-0.523-0.523-0.677-1.206-0.379-1.565l-0.012-0.014
					l3.296-3.295C5.209,9.363,5.49,6.572,7.335,4.729C8.439,3.625,9.886,3.073,11.333,3.073 M11.332,13.111
					c1.124,0,2.249-0.427,3.105-1.281c1.713-1.717,1.713-4.498,0-6.209c-0.856-0.855-1.981-1.283-3.105-1.283
					S9.084,4.766,8.229,5.621c-1.713,1.711-1.713,4.492,0,6.209C9.084,12.685,10.208,13.111,11.332,13.111 M11.333,2.573
					c-1.644,0-3.189,0.64-4.352,1.802c-1.859,1.857-2.307,4.709-1.148,7.058l-3.034,3.033c-0.055,0.055-0.094,0.119-0.118,0.188
					c-0.343,0.577-0.143,1.446,0.509,2.098c0.431,0.429,0.963,0.675,1.459,0.675c0.245,0,0.469-0.062,0.657-0.178
					c0.064-0.023,0.123-0.059,0.171-0.107l2.991-2.987c0.886,0.467,1.875,0.712,2.883,0.712c1.638,0,3.177-0.637,4.332-1.792
					c1.162-1.162,1.802-2.707,1.802-4.35c0.001-1.644-0.64-3.188-1.802-4.349C14.521,3.213,12.977,2.573,11.333,2.573L11.333,2.573z
					 M11.332,12.611c-1.041,0-2.017-0.402-2.75-1.135c-1.516-1.52-1.517-3.987,0-5.501c0.733-0.733,1.709-1.137,2.75-1.137
					c1.041,0,2.019,0.404,2.752,1.137c1.516,1.515,1.516,3.982,0,5.502C13.351,12.208,12.373,12.611,11.332,12.611L11.332,12.611z"
					/>
				<path style="fill:#4E8ABE;" d="M15.33,4.729c-2.207-2.207-5.787-2.207-7.995,0C5.49,6.572,5.209,9.363,6.448,11.524
					l-3.296,3.295l0.012,0.014c-0.298,0.359-0.145,1.042,0.379,1.565c0.525,0.522,1.208,0.676,1.569,0.376l0.012,0.014l3.261-3.257
					c2.178,1.334,5.061,1.074,6.946-0.811C17.537,10.514,17.538,6.935,15.33,4.729z M8.229,11.83c-1.713-1.717-1.713-4.498,0-6.209
					c1.71-1.711,4.496-1.711,6.209,0s1.713,4.492,0,6.209C12.725,13.539,9.939,13.539,8.229,11.83z"/>
			</g>
		</g>
	</g>
</g>
<g id="Layer_1">
</g>
</svg>
