<?xml version="1.0" encoding="iso-8859-1"?>
<!-- Generator: Adobe Illustrator 16.0.0, SVG Export Plug-In . SVG Version: 6.00 Build 0)  -->
<!DOCTYPE svg PUBLIC "-//W3C//DTD SVG 1.1//EN" "http://www.w3.org/Graphics/SVG/1.1/DTD/svg11.dtd">
<svg version="1.1" xmlns="http://www.w3.org/2000/svg" xmlns:xlink="http://www.w3.org/1999/xlink" x="0px" y="0px" width="20px"
	 height="20px" viewBox="0 0 20 20" style="enable-background:new 0 0 20 20;" xml:space="preserve">
<g id="sort-by-alphabet">
	<g>
		<rect id="le_wrappier_45_" x="-1190" y="62" style="fill:none;" width="20" height="20"/>
		<g id="down-arrow_5_">
			<path style="fill:#4E8ABE;" d="M-1184.043,75.938c-0.009,0-0.016-0.007-0.016-0.016v-13.82c0-0.009-0.007-0.016-0.016-0.016
				h-3.146c-0.009,0-0.016,0.007-0.016,0.016v13.82c0,0.009-0.007,0.016-0.016,0.016h-2.583c-0.009,0-0.012,0.006-0.007,0.013
				l4.186,5.953c0.005,0.007,0.013,0.007,0.018,0l4.183-5.953c0.005-0.007,0.002-0.013-0.007-0.013H-1184.043z"/>
		</g>
		<path id="a-glyph_1_" style="fill:#4E8ABE;" d="M-1173.709,62l3.583,7.379h-2.16l-0.666-1.455h-3.615l-0.604,1.455h-2.127
			l3.26-7.379H-1173.709z M-1173.541,66.635l-1.306-2.873l-1.188,2.873H-1173.541z"/>
		<path id="z-glyph_1_" style="fill:#4E8ABE;" d="M-1170.797,74.623l-4.398,6.025h4.398V82h-7.832l4.434-6.027h-4.128v-1.35
			H-1170.797z"/>
	</g>
</g>
<g id="Layer_1">
</g>
</svg>
