<?xml version="1.0" encoding="iso-8859-1"?>
<!-- Generator: Adobe Illustrator 16.0.0, SVG Export Plug-In . SVG Version: 6.00 Build 0)  -->
<!DOCTYPE svg PUBLIC "-//W3C//DTD SVG 1.1//EN" "http://www.w3.org/Graphics/SVG/1.1/DTD/svg11.dtd">
<svg version="1.1" xmlns="http://www.w3.org/2000/svg" xmlns:xlink="http://www.w3.org/1999/xlink" x="0px" y="0px" width="20px"
	 height="20px" viewBox="0 0 20 20" style="enable-background:new 0 0 20 20;" xml:space="preserve">
<g id="sort-by-alphabet">
	<g>
		<rect id="le_wrappier_71_" style="fill:none;" width="20" height="20"/>
		<g id="down-arrow_11_">
			<path style="fill:#4E8ABE;" d="M5.957,13.938c-0.009,0-0.016-0.007-0.016-0.016V0.102c0-0.009-0.007-0.016-0.016-0.016H2.78
				c-0.009,0-0.016,0.007-0.016,0.016v13.82c0,0.009-0.007,0.016-0.016,0.016H0.166c-0.009,0-0.012,0.006-0.007,0.013l4.186,5.953
				c0.005,0.007,0.013,0.007,0.018,0l4.183-5.953c0.005-0.007,0.002-0.013-0.007-0.013H5.957z"/>
		</g>
		<path id="a-glyph_2_" style="fill:#4E8ABE;" d="M16.291,0l3.583,7.379h-2.16l-0.666-1.455h-3.615l-0.604,1.455h-2.127L13.962,0
			H16.291z M16.459,4.635l-1.306-2.873l-1.188,2.873H16.459z"/>
		<path id="z-glyph_2_" style="fill:#4E8ABE;" d="M19.203,12.623l-4.398,6.025h4.398V20h-7.832l4.434-6.027h-4.128v-1.35H19.203z"/>
	</g>
</g>
<g id="Layer_1">
</g>
</svg>
