<?xml version="1.0" encoding="iso-8859-1"?>
<!-- Generator: Adobe Illustrator 16.0.0, SVG Export Plug-In . SVG Version: 6.00 Build 0)  -->
<!DOCTYPE svg PUBLIC "-//W3C//DTD SVG 1.1//EN" "http://www.w3.org/Graphics/SVG/1.1/DTD/svg11.dtd">
<svg version="1.1" id="Layer_1" xmlns="http://www.w3.org/2000/svg" xmlns:xlink="http://www.w3.org/1999/xlink" x="0px" y="0px"
	 width="20px" height="20px" viewBox="140.019 0 20 20" style="enable-background:new 140.019 0 20 20;" xml:space="preserve">
<g>
	<rect id="le_wrappier_65_" x="140.019" y="0.001" style="fill:none;" width="20" height="20"/>
	<g>
		<path style="fill:#AAAAAA;" d="M159.853,12.366c0.092,0.159,0.166,0.338,0.166,0.396c0,0.057-0.158,0.42-0.352,0.676
			c0,0-0.031,0.041-0.244,0.277c-0.244,0.271-0.309,0.553-0.16,0.895c0.113,0.261,0.113,0.261,0.113,0.261
			c0.102,0.299,0.199,0.637,0.213,0.752c0.016,0.114-0.176,0.478-0.262,0.59c-0.084,0.111-0.484,0.524-0.654,0.728
			c-0.17,0.199-0.211,0.979-0.205,1.08c0,0,0,0-0.014,0.088c-0.021,0.119-0.031,0.258-0.097,0.352
			c-0.512,0.729-1.528,1.188-1.528,1.188c-0.293,0.135-0.679,0.262-0.855,0.28c-0.176,0.021-0.906,0.076-1.229,0.076h-1.056
			c-0.321,0-0.619-0.006-0.662-0.014c-0.041-0.007-0.416-0.031-0.737-0.048c0,0-1.416-0.067-2.411-0.184
			c-0.857-0.098-1.98-0.324-1.98-0.324c-0.316-0.063-0.824-0.16-1.129-0.217c-0.307-0.053-1.107-0.461-1.107-0.783v-7.026
			c0-0.322,0.252-0.658,0.559-0.744s1.023-0.666,1.092-0.748c0.069-0.082,0.374-0.535,0.54-0.811l0.963-1.84
			c0.129-0.296,0.361-0.769,0.52-1.05l0.555-0.722c0.234-0.221,0.613-0.588,0.84-0.817l0.511-0.688
			c0.145-0.289,0.319-0.782,0.391-1.097l0.326-1.795c0.029-0.32,0.063-0.682,0.078-0.802C152.052,0.173,152.395,0,152.48,0
			s0.332,0.013,0.356,0.026c0,0,0,0,0.023,0.006c0.885,0.208,1.43,1.113,1.43,1.113c0.166,0.275,0.326,0.765,0.357,1.086
			l-0.176,1.984c-0.09,0.31-0.279,0.799-0.424,1.088c0,0-0.34,0.688-0.592,1.312c-0.133,0.324-0.148,0.457-0.148,0.457
			c-0.039,0.319-0.061,0.652-0.047,0.738s0.564,0.16,0.885,0.162l3.041,0.034c0.322,0.004,0.85,0.03,1.17,0.06
			c0,0,0.486,0.045,0.879,0.507c0.338,0.396,0.527,0.784,0.527,0.784c0.141,0.29,0.256,0.591,0.256,0.67
			c0,0.079-0.133,0.478-0.295,0.709c0,0,0,0-0.168,0.195c-0.238,0.279-0.232,0.301-0.232,0.301
			C159.425,11.538,159.761,12.206,159.853,12.366z"/>
		<path style="fill:#AAAAAA;" d="M144.863,14.961c0,1.309,0,2.617,0,3.924c0,0.609-0.379,1.002-0.99,1.01
			c-0.783,0.008-2.07,0.008-2.854,0c-0.627-0.006-0.998-0.393-0.998-1.02c-0.002-2.609-0.002-5.22,0-7.83
			c0-0.625,0.377-1,1.008-1.003c0.775-0.003,2.057-0.003,2.834,0c0.621,0.003,1,0.39,1,1.015
			C144.863,12.357,144.863,13.659,144.863,14.961z"/>
	</g>
</g>
</svg>
