<?xml version="1.0" encoding="utf-8"?>
<!-- Generator: Adobe Illustrator 16.0.0, SVG Export Plug-In . SVG Version: 6.00 Build 0)  -->
<!DOCTYPE svg PUBLIC "-//W3C//DTD SVG 1.1//EN" "http://www.w3.org/Graphics/SVG/1.1/DTD/svg11.dtd">
<svg version="1.1" id="Layer_1" xmlns="http://www.w3.org/2000/svg" xmlns:xlink="http://www.w3.org/1999/xlink" x="0px" y="0px"
	 width="20px" height="20px" viewBox="0 0 20 20" enable-background="new 0 0 20 20" xml:space="preserve">
<g id="thumbs-up-white">
	<g>
		<rect id="le_wrappier_56_" x="0" fill="none" width="20" height="20"/>
		<g>
			<path fill="#FFFFFF" d="M19.834,12.365C19.926,12.525,20,12.703,20,12.761s-0.158,0.419-0.353,0.677c0,0-0.03,0.041-0.244,0.276
				c-0.243,0.271-0.31,0.554-0.159,0.894c0.112,0.262,0.112,0.262,0.112,0.262c0.103,0.298,0.198,0.636,0.213,0.751
				c0.017,0.114-0.176,0.478-0.262,0.59c-0.084,0.112-0.483,0.526-0.654,0.728c-0.17,0.198-0.211,0.979-0.204,1.08
				c0,0,0,0-0.015,0.088c-0.021,0.119-0.031,0.258-0.097,0.352c-0.512,0.729-1.528,1.188-1.528,1.188
				c-0.293,0.135-0.679,0.26-0.854,0.281c-0.177,0.021-0.906,0.075-1.229,0.075H13.67c-0.322,0-0.619-0.006-0.662-0.013
				c-0.041-0.008-0.416-0.031-0.737-0.047c0,0-1.416-0.069-2.41-0.184c-0.857-0.098-1.98-0.324-1.98-0.324
				c-0.316-0.064-0.824-0.162-1.129-0.217c-0.307-0.054-1.107-0.462-1.107-0.783v-7.029c0-0.321,0.252-0.656,0.559-0.742
				c0.307-0.087,1.023-0.666,1.092-0.748C7.364,9.832,7.67,9.38,7.836,9.104l0.963-1.84c0.129-0.297,0.361-0.77,0.52-1.051
				l0.555-0.722c0.234-0.222,0.613-0.589,0.84-0.817l0.51-0.688c0.145-0.289,0.32-0.782,0.391-1.098l0.326-1.795
				c0.029-0.32,0.064-0.682,0.078-0.802s0.357-0.293,0.443-0.293s0.332,0.013,0.356,0.026c0,0,0,0,0.022,0.006
				c0.886,0.208,1.431,1.113,1.431,1.113c0.166,0.274,0.326,0.765,0.356,1.086l-0.176,1.983c-0.09,0.31-0.279,0.8-0.424,1.088
				c0,0-0.34,0.687-0.592,1.312c-0.133,0.324-0.148,0.457-0.148,0.457c-0.039,0.318-0.061,0.652-0.047,0.738
				s0.564,0.159,0.885,0.162l3.041,0.033c0.322,0.004,0.851,0.03,1.17,0.061c0,0,0.486,0.045,0.88,0.506
				c0.338,0.396,0.526,0.785,0.526,0.785C19.886,9.645,20,9.945,20,10.025c0,0.078-0.133,0.477-0.295,0.709c0,0,0,0-0.168,0.195
				c-0.238,0.28-0.231,0.301-0.231,0.301C19.406,11.537,19.742,12.205,19.834,12.365z"/>
			<path fill="#FFFFFF" d="M4.843,14.96c0,1.308,0,2.617,0,3.925c0,0.608-0.379,1.001-0.99,1.008c-0.783,0.01-2.07,0.008-2.854,0
				c-0.627-0.006-0.998-0.392-0.998-1.019C0,16.266,0,13.654,0.001,11.045c0-0.625,0.377-1.001,1.008-1.004
				c0.775-0.003,2.057-0.003,2.834,0c0.621,0.003,1,0.391,1,1.016C4.843,12.357,4.843,13.658,4.843,14.96z"/>
		</g>
	</g>
</g>
<g id="Layer_1_1_">
</g>
</svg>
