<?xml version="1.0" encoding="iso-8859-1"?>
<!-- Generator: Adobe Illustrator 16.0.0, SVG Export Plug-In . SVG Version: 6.00 Build 0)  -->
<!DOCTYPE svg PUBLIC "-//W3C//DTD SVG 1.1//EN" "http://www.w3.org/Graphics/SVG/1.1/DTD/svg11.dtd">
<svg version="1.1" id="Layer_1" xmlns="http://www.w3.org/2000/svg" xmlns:xlink="http://www.w3.org/1999/xlink" x="0px" y="0px"
	 width="20px" height="20px" viewBox="0 0 20 20" style="enable-background:new 0 0 20 20;" xml:space="preserve">
<g id="thumbs-up-orange">
	<g>
		<rect id="le_wrappier_74_" style="fill:none;" width="20" height="20"/>
		<g>
			<path style="fill:#FF873C;" d="M19.833,12.365C19.925,12.525,20,12.703,20,12.761s-0.159,0.419-0.354,0.677
				c0,0-0.03,0.041-0.242,0.276c-0.244,0.271-0.309,0.554-0.161,0.894c0.112,0.262,0.112,0.262,0.112,0.262
				c0.104,0.299,0.199,0.636,0.215,0.751c0.016,0.114-0.176,0.478-0.262,0.59s-0.484,0.526-0.656,0.728
				c-0.17,0.198-0.211,0.979-0.204,1.08c0,0,0,0-0.015,0.088c-0.02,0.119-0.031,0.258-0.096,0.352
				c-0.511,0.727-1.529,1.188-1.529,1.188c-0.293,0.135-0.679,0.261-0.855,0.28c-0.178,0.021-0.907,0.076-1.229,0.076h-1.056
				c-0.322,0-0.62-0.006-0.662-0.015c-0.042-0.006-0.416-0.029-0.737-0.047c0,0-1.418-0.068-2.412-0.182
				c-0.857-0.099-1.98-0.326-1.98-0.326c-0.316-0.062-0.824-0.16-1.129-0.216c-0.306-0.054-1.107-0.461-1.107-0.782v-7.028
				c0-0.322,0.251-0.656,0.558-0.743c0.308-0.087,1.024-0.665,1.092-0.748c0.069-0.082,0.375-0.533,0.54-0.811l0.964-1.84
				c0.128-0.297,0.361-0.77,0.519-1.051l0.554-0.722c0.235-0.22,0.613-0.587,0.84-0.817l0.511-0.688
				c0.144-0.289,0.32-0.781,0.392-1.096l0.326-1.798C11.966,0.773,12,0.411,12.014,0.292c0.014-0.121,0.357-0.293,0.444-0.293
				c0.085,0,0.333,0.012,0.356,0.026c0,0,0,0,0.023,0.005c0.885,0.209,1.429,1.112,1.429,1.112c0.167,0.276,0.327,0.767,0.357,1.086
				l-0.177,1.985c-0.088,0.31-0.278,0.8-0.422,1.089c0,0-0.34,0.687-0.593,1.312c-0.132,0.323-0.147,0.456-0.147,0.456
				c-0.039,0.318-0.062,0.652-0.047,0.738c0.014,0.086,0.563,0.16,0.886,0.162l3.041,0.033c0.321,0.004,0.848,0.031,1.169,0.061
				c0,0,0.486,0.045,0.879,0.506c0.337,0.396,0.525,0.785,0.525,0.785c0.142,0.289,0.258,0.592,0.258,0.67s-0.133,0.478-0.295,0.711
				c0,0,0,0-0.168,0.193c-0.238,0.28-0.232,0.301-0.232,0.301C19.407,11.537,19.742,12.205,19.833,12.365z"/>
			<path style="fill:#FF873C;" d="M4.843,14.959c0,1.311,0,2.618,0,3.926c0,0.607-0.378,1.001-0.989,1.008
				C3.07,19.9,1.783,19.9,1,19.893c-0.627-0.007-0.999-0.393-0.999-1.019C0,16.266,0,13.654,0.001,11.046
				c0-0.625,0.378-1.002,1.009-1.005c0.776-0.002,2.057-0.003,2.833,0.001c0.622,0.002,1,0.39,1,1.015
				C4.843,12.357,4.843,13.658,4.843,14.959z"/>
		</g>
	</g>
</g>
<g id="Layer_1_1_">
</g>
</svg>
