<?xml version="1.0" encoding="utf-8"?>
<!-- Generator: Adobe Illustrator 16.0.0, SVG Export Plug-In . SVG Version: 6.00 Build 0)  -->
<!DOCTYPE svg PUBLIC "-//W3C//DTD SVG 1.1//EN" "http://www.w3.org/Graphics/SVG/1.1/DTD/svg11.dtd">
<svg version="1.1" id="Layer_1" xmlns="http://www.w3.org/2000/svg" xmlns:xlink="http://www.w3.org/1999/xlink" x="0px" y="0px"
	 width="20px" height="20px" viewBox="0 0 20 20" enable-background="new 0 0 20 20" xml:space="preserve">
<g id="thumbs-up-orange">
	<g>
		<rect id="le_wrappier_74_" x="0" y="0" fill="none" width="20" height="20"/>
		<g>
			<path fill="#FF873C" d="M19.834,12.365C19.926,12.525,20,12.703,20,12.76c0,0.059-0.158,0.42-0.353,0.678
				c0,0-0.03,0.041-0.244,0.275c-0.243,0.271-0.31,0.555-0.159,0.895c0.112,0.262,0.112,0.262,0.112,0.262
				c0.103,0.299,0.198,0.635,0.213,0.75c0.017,0.115-0.176,0.479-0.262,0.59c-0.084,0.113-0.483,0.527-0.654,0.729
				c-0.17,0.197-0.211,0.979-0.204,1.08c0,0,0,0-0.015,0.088c-0.021,0.119-0.031,0.258-0.097,0.352
				c-0.512,0.727-1.528,1.188-1.528,1.188c-0.293,0.135-0.679,0.26-0.854,0.279C15.778,19.945,15.049,20,14.726,20H13.67
				c-0.322,0-0.619-0.006-0.662-0.014c-0.041-0.006-0.416-0.029-0.737-0.047c0,0-1.416-0.068-2.41-0.182
				c-0.857-0.1-1.98-0.326-1.98-0.326c-0.316-0.062-0.824-0.16-1.129-0.217c-0.307-0.053-1.107-0.461-1.107-0.781v-7.029
				c0-0.322,0.252-0.656,0.559-0.742c0.307-0.088,1.023-0.666,1.092-0.749C7.363,9.832,7.67,9.38,7.836,9.103l0.963-1.84
				c0.129-0.297,0.361-0.77,0.52-1.051l0.555-0.722c0.234-0.22,0.613-0.587,0.84-0.816l0.51-0.688
				c0.145-0.287,0.32-0.78,0.391-1.096l0.326-1.795c0.029-0.32,0.064-0.683,0.078-0.803S12.377,0,12.463,0s0.332,0.014,0.356,0.025
				c0,0,0,0,0.022,0.007c0.886,0.208,1.431,1.112,1.431,1.112c0.166,0.275,0.326,0.766,0.356,1.086l-0.176,1.984
				c-0.09,0.311-0.279,0.801-0.424,1.09c0,0-0.34,0.686-0.592,1.311c-0.133,0.322-0.148,0.457-0.148,0.457
				C13.25,7.39,13.229,7.724,13.242,7.81s0.564,0.16,0.885,0.162l3.041,0.033c0.322,0.004,0.851,0.03,1.17,0.061
				c0,0,0.486,0.045,0.88,0.507c0.338,0.396,0.526,0.782,0.526,0.782C19.886,9.646,20,9.948,20,10.025
				c0,0.08-0.133,0.479-0.295,0.711c0,0,0,0-0.168,0.195c-0.238,0.279-0.231,0.301-0.231,0.301
				C19.406,11.537,19.742,12.205,19.834,12.365z"/>
			<path fill="#FF873C" d="M4.843,14.959c0,1.311,0,2.617,0,3.926c0,0.607-0.379,1-0.99,1.008C3.071,19.9,1.784,19.9,1,19.893
				c-0.627-0.008-0.998-0.393-0.998-1.02C0,16.266,0,13.654,0.001,11.045c0-0.625,0.377-1.001,1.008-1.004
				c0.775-0.002,2.057-0.003,2.834,0.001c0.621,0.002,1,0.39,1,1.015C4.843,12.357,4.843,13.658,4.843,14.959z"/>
		</g>
	</g>
</g>
<g id="Layer_1_1_">
</g>
</svg>
