<?xml version="1.0" encoding="iso-8859-1"?>
<!-- Generator: Adobe Illustrator 16.0.0, SVG Export Plug-In . SVG Version: 6.00 Build 0)  -->
<!DOCTYPE svg PUBLIC "-//W3C//DTD SVG 1.1//EN" "http://www.w3.org/Graphics/SVG/1.1/DTD/svg11.dtd">
<svg version="1.1" xmlns="http://www.w3.org/2000/svg" xmlns:xlink="http://www.w3.org/1999/xlink" x="0px" y="0px" width="20px"
	 height="20px" viewBox="0 0 20 20" style="enable-background:new 0 0 20 20;" xml:space="preserve">
<g id="thumbs-up-grey">
	<g>
		<rect id="le_wrappier_65_" style="fill:none;" width="20" height="20"/>
		<g>
			<path style="fill:#AAAAAA;" d="M19.833,12.365C19.925,12.525,20,12.703,20,12.76c0,0.058-0.159,0.42-0.353,0.677
				c0,0-0.03,0.04-0.243,0.276c-0.244,0.271-0.309,0.554-0.16,0.895c0.113,0.261,0.113,0.261,0.113,0.261
				c0.102,0.298,0.198,0.636,0.213,0.751c0.016,0.115-0.176,0.477-0.262,0.59c-0.084,0.111-0.484,0.526-0.654,0.727
				c-0.17,0.199-0.211,0.979-0.205,1.08c0,0,0,0-0.014,0.088c-0.02,0.12-0.031,0.258-0.096,0.352
				c-0.512,0.727-1.529,1.188-1.529,1.188c-0.293,0.134-0.679,0.26-0.855,0.28C15.778,19.945,15.048,20,14.727,20h-1.055
				c-0.322,0-0.62-0.006-0.662-0.014c-0.042-0.006-0.416-0.03-0.738-0.047c0,0-1.417-0.068-2.41-0.182
				c-0.857-0.098-1.98-0.326-1.98-0.326c-0.316-0.063-0.824-0.16-1.129-0.215s-1.107-0.462-1.107-0.784v-7.028
				c0-0.322,0.251-0.657,0.558-0.744c0.308-0.087,1.024-0.666,1.092-0.748c0.069-0.082,0.375-0.534,0.54-0.811l0.964-1.84
				c0.128-0.296,0.361-0.769,0.519-1.05l0.554-0.722c0.235-0.22,0.613-0.587,0.84-0.817l0.511-0.688
				c0.145-0.289,0.32-0.782,0.391-1.096l0.326-1.795c0.029-0.32,0.064-0.682,0.078-0.802S12.375,0,12.461,0s0.332,0.012,0.356,0.026
				c0,0,0,0,0.024,0.005c0.885,0.208,1.43,1.113,1.43,1.113c0.166,0.276,0.326,0.765,0.356,1.086l-0.176,1.984
				c-0.089,0.31-0.278,0.799-0.423,1.088c0,0-0.34,0.686-0.593,1.311c-0.132,0.324-0.147,0.457-0.147,0.457
				c-0.039,0.319-0.061,0.652-0.047,0.738c0.014,0.086,0.563,0.16,0.885,0.162l3.041,0.034c0.322,0.004,0.849,0.031,1.17,0.06
				c0,0,0.486,0.044,0.879,0.506c0.337,0.396,0.526,0.784,0.526,0.784C19.885,9.646,20,9.947,20,10.026
				c0,0.079-0.133,0.477-0.295,0.71c0,0,0,0-0.168,0.195c-0.238,0.28-0.232,0.3-0.232,0.3
				C19.406,11.537,19.742,12.205,19.833,12.365z"/>
			<path style="fill:#AAAAAA;" d="M4.843,14.959c0,1.309,0,2.617,0,3.926c0,0.607-0.378,1.001-0.989,1.008
				C3.07,19.9,1.783,19.9,1,19.893c-0.627-0.006-0.999-0.393-0.999-1.02C0,16.264,0,13.654,0.001,11.045
				c0-0.625,0.378-1.001,1.009-1.004c0.776-0.002,2.057-0.003,2.833,0c0.622,0.002,1,0.389,1,1.014
				C4.843,12.357,4.843,13.658,4.843,14.959z"/>
		</g>
	</g>
</g>
<g id="Layer_1">
</g>
</svg>
