<?xml version="1.0" encoding="utf-8"?>
<!-- Generator: Adobe Illustrator 16.0.0, SVG Export Plug-In . SVG Version: 6.00 Build 0)  -->
<!DOCTYPE svg PUBLIC "-//W3C//DTD SVG 1.1//EN" "http://www.w3.org/Graphics/SVG/1.1/DTD/svg11.dtd">
<svg version="1.1" id="Layer_1" xmlns="http://www.w3.org/2000/svg" xmlns:xlink="http://www.w3.org/1999/xlink" x="0px" y="0px"
	 width="20px" height="20px" viewBox="0 0 20 20" enable-background="new 0 0 20 20" xml:space="preserve">
<g id="thumbs-down-green">
	<g>
		<rect id="le_wrappier_82_" x="0" y="0" fill="none" width="20" height="20"/>
		<g>
			<path fill="#48AB4A" d="M0.168,7.636C0.077,7.477,0,7.298,0,7.241c0-0.059,0.16-0.42,0.354-0.678c0,0,0.029-0.039,0.242-0.275
				c0.244-0.271,0.309-0.555,0.16-0.895C0.644,5.131,0.644,5.131,0.644,5.131C0.542,4.833,0.446,4.497,0.43,4.381
				c-0.016-0.115,0.176-0.479,0.262-0.59C0.776,3.68,1.176,3.264,1.346,3.065c0.17-0.2,0.211-0.979,0.205-1.08c0,0,0,0,0.014-0.088
				c0.02-0.121,0.031-0.258,0.096-0.353C2.173,0.817,3.19,0.356,3.19,0.356c0.293-0.135,0.68-0.26,0.855-0.28
				C4.223,0.055,4.954,0,5.274,0H6.33c0.322,0,0.621,0.006,0.662,0.015C7.035,0.02,7.408,0.043,7.729,0.061
				c0,0,1.416,0.068,2.41,0.182c0.856,0.099,1.979,0.326,1.979,0.326c0.316,0.062,0.824,0.16,1.129,0.216
				c0.308,0.054,1.107,0.461,1.107,0.782v7.029c0,0.322-0.25,0.656-0.559,0.743c-0.307,0.087-1.023,0.665-1.092,0.748
				c-0.068,0.082-0.375,0.534-0.539,0.811l-0.965,1.84c-0.129,0.297-0.361,0.77-0.521,1.051l-0.553,0.721
				c-0.236,0.221-0.613,0.588-0.84,0.816l-0.512,0.688c-0.145,0.289-0.32,0.781-0.391,1.096l-0.326,1.797
				c-0.029,0.32-0.064,0.682-0.078,0.803C7.967,19.828,7.624,20,7.538,20s-0.332-0.012-0.355-0.025c0,0,0,0-0.025-0.006
				c-0.885-0.209-1.43-1.113-1.43-1.113c-0.166-0.275-0.326-0.764-0.355-1.086l0.176-1.982c0.088-0.312,0.277-0.801,0.422-1.09
				c0,0,0.34-0.686,0.594-1.311C6.696,13.062,6.71,12.93,6.71,12.93c0.039-0.32,0.062-0.652,0.047-0.738s-0.562-0.16-0.885-0.162
				l-3.041-0.033c-0.322-0.004-0.848-0.031-1.17-0.061c0,0-0.486-0.045-0.879-0.506c-0.336-0.396-0.525-0.785-0.525-0.785
				C0.115,10.356,0,10.053,0,9.975s0.133-0.478,0.295-0.711c0,0,0,0,0.168-0.193C0.701,8.791,0.695,8.77,0.695,8.77
				C0.594,8.464,0.258,7.796,0.168,7.636z"/>
			<path fill="#48AB4A" d="M15.158,5.042c0-1.309,0-2.617,0-3.925c0-0.608,0.377-1.002,0.988-1.009C16.93,0.1,18.217,0.1,19,0.108
				c0.627,0.007,1,0.393,1,1.02c0,2.609,0,5.219,0,7.828c0,0.625-0.379,1.002-1.01,1.005c-0.775,0.002-2.057,0.003-2.834-0.001
				c-0.621-0.002-0.998-0.389-0.998-1.014C15.158,7.645,15.158,6.342,15.158,5.042z"/>
		</g>
	</g>
</g>
<g id="Layer_1_1_">
</g>
</svg>
