<?xml version="1.0" encoding="iso-8859-1"?>
<!-- Generator: Adobe Illustrator 16.0.0, SVG Export Plug-In . SVG Version: 6.00 Build 0)  -->
<!DOCTYPE svg PUBLIC "-//W3C//DTD SVG 1.1//EN" "http://www.w3.org/Graphics/SVG/1.1/DTD/svg11.dtd">
<svg version="1.1" xmlns="http://www.w3.org/2000/svg" xmlns:xlink="http://www.w3.org/1999/xlink" x="0px" y="0px" width="20px"
	 height="20px" viewBox="0 0 20 20" style="enable-background:new 0 0 20 20;" xml:space="preserve">
<g id="thumbs-up-orange">
	<g>
		<rect id="le_wrappier_74_" x="-1190" y="62" style="fill:none;" width="20" height="20"/>
		<g>
			<path style="fill:#FF873C;" d="M-1170.167,74.365c0.092,0.16,0.167,0.338,0.167,0.396c0,0.057-0.159,0.419-0.353,0.676
				c0,0-0.031,0.041-0.243,0.277c-0.244,0.271-0.308,0.553-0.161,0.893c0.113,0.262,0.113,0.262,0.113,0.262
				c0.103,0.299,0.199,0.636,0.214,0.751c0.016,0.115-0.176,0.478-0.262,0.59c-0.085,0.112-0.484,0.526-0.655,0.727
				c-0.17,0.199-0.211,0.979-0.205,1.08c0,0,0,0-0.014,0.088c-0.02,0.12-0.031,0.258-0.096,0.352
				c-0.511,0.727-1.53,1.188-1.53,1.188c-0.293,0.134-0.678,0.26-0.855,0.28s-0.907,0.076-1.229,0.076h-1.055
				c-0.322,0-0.62-0.006-0.662-0.014c-0.042-0.007-0.416-0.03-0.738-0.047c0,0-1.417-0.069-2.411-0.182
				c-0.857-0.099-1.98-0.326-1.98-0.326c-0.316-0.063-0.824-0.16-1.129-0.216c-0.306-0.054-1.107-0.461-1.107-0.783v-7.028
				c0-0.322,0.251-0.656,0.558-0.743c0.308-0.087,1.024-0.665,1.092-0.748c0.069-0.082,0.375-0.533,0.54-0.811l0.964-1.84
				c0.128-0.296,0.361-0.769,0.519-1.05l0.554-0.722c0.235-0.22,0.613-0.587,0.84-0.817l0.511-0.688
				c0.144-0.289,0.32-0.781,0.391-1.096l0.326-1.797c0.029-0.32,0.063-0.682,0.077-0.801c0.014-0.121,0.357-0.293,0.444-0.293
				c0.085,0,0.333,0.012,0.356,0.026c0,0,0,0,0.024,0.005c0.885,0.209,1.429,1.113,1.429,1.113c0.167,0.276,0.327,0.766,0.357,1.086
				l-0.176,1.985c-0.089,0.31-0.279,0.8-0.422,1.089c0,0-0.34,0.686-0.593,1.311c-0.132,0.323-0.148,0.457-0.148,0.457
				c-0.039,0.318-0.061,0.652-0.046,0.738c0.013,0.086,0.563,0.16,0.885,0.162l3.041,0.033c0.322,0.004,0.848,0.031,1.169,0.061
				c0,0,0.487,0.045,0.879,0.506c0.337,0.396,0.526,0.784,0.526,0.784c0.141,0.29,0.257,0.592,0.257,0.67
				c0,0.079-0.133,0.478-0.295,0.711c0,0,0,0-0.167,0.194c-0.239,0.28-0.233,0.301-0.233,0.301
				C-1170.593,73.537-1170.258,74.205-1170.167,74.365z"/>
			<path style="fill:#FF873C;" d="M-1185.157,76.959c0,1.31,0,2.618,0,3.926c0,0.607-0.378,1.001-0.989,1.007
				c-0.784,0.009-2.071,0.009-2.854,0.001c-0.627-0.007-0.999-0.393-0.999-1.019c-0.001-2.609-0.001-5.22,0-7.828
				c0-0.625,0.378-1.002,1.009-1.005c0.776-0.002,2.057-0.003,2.833,0.001c0.622,0.002,1,0.389,1,1.014
				C-1185.157,74.357-1185.157,75.658-1185.157,76.959z"/>
		</g>
	</g>
</g>
<g id="Layer_1">
</g>
</svg>
