<?xml version="1.0" encoding="utf-8"?>
<!-- Generator: Adobe Illustrator 16.0.0, SVG Export Plug-In . SVG Version: 6.00 Build 0)  -->
<!DOCTYPE svg PUBLIC "-//W3C//DTD SVG 1.1//EN" "http://www.w3.org/Graphics/SVG/1.1/DTD/svg11.dtd">
<svg version="1.1" id="Layer_1" xmlns="http://www.w3.org/2000/svg" xmlns:xlink="http://www.w3.org/1999/xlink" x="0px" y="0px"
	 width="20px" height="20px" viewBox="0 0 20 20" enable-background="new 0 0 20 20" xml:space="preserve">
<g id="thumbs-up-red">
	<g>
		<rect id="le_wrappier_50_" x="0" y="0" fill="none" width="20" height="20"/>
		<g>
			<path fill="#EE4249" d="M19.834,12.363C19.926,12.523,20,12.701,20,12.76c0,0.057-0.158,0.418-0.353,0.676
				c0,0-0.03,0.041-0.244,0.277c-0.243,0.27-0.31,0.553-0.159,0.893c0.112,0.262,0.112,0.262,0.112,0.262
				c0.103,0.299,0.198,0.637,0.213,0.752c0.017,0.113-0.176,0.477-0.262,0.59c-0.084,0.111-0.483,0.525-0.654,0.727
				c-0.17,0.199-0.211,0.979-0.204,1.08c0,0,0,0-0.015,0.088c-0.021,0.119-0.031,0.258-0.097,0.352
				c-0.512,0.727-1.528,1.188-1.528,1.188c-0.293,0.135-0.679,0.26-0.854,0.281C15.778,19.943,15.049,20,14.726,20H13.67
				c-0.322,0-0.619-0.006-0.662-0.016c-0.041-0.006-0.416-0.029-0.737-0.047c0,0-1.416-0.068-2.41-0.182
				c-0.857-0.098-1.98-0.326-1.98-0.326c-0.316-0.062-0.824-0.16-1.129-0.215c-0.307-0.055-1.107-0.461-1.107-0.783v-7.029
				c0-0.32,0.252-0.654,0.559-0.742c0.307-0.086,1.023-0.665,1.092-0.748C7.363,9.831,7.67,9.379,7.836,9.102l0.963-1.84
				c0.129-0.297,0.361-0.77,0.52-1.05l0.555-0.722c0.234-0.221,0.613-0.588,0.84-0.817l0.51-0.688
				c0.145-0.287,0.32-0.78,0.391-1.096l0.326-1.796c0.029-0.319,0.064-0.682,0.078-0.802S12.377,0,12.463,0s0.332,0.012,0.356,0.026
				c0,0,0,0,0.022,0.004c0.886,0.21,1.431,1.113,1.431,1.113c0.166,0.276,0.326,0.766,0.356,1.086l-0.176,1.984
				c-0.09,0.311-0.279,0.799-0.424,1.088c0,0-0.34,0.686-0.592,1.311c-0.133,0.324-0.148,0.457-0.148,0.457
				c-0.039,0.32-0.061,0.652-0.047,0.738s0.564,0.16,0.885,0.162l3.041,0.034c0.322,0.004,0.851,0.03,1.17,0.06
				c0,0,0.486,0.045,0.88,0.508c0.338,0.396,0.526,0.783,0.526,0.783C19.886,9.643,20,9.946,20,10.024s-0.133,0.478-0.295,0.71
				c0,0,0,0-0.168,0.193c-0.238,0.281-0.231,0.301-0.231,0.301C19.406,11.535,19.742,12.203,19.834,12.363z"/>
			<path fill="#EE4249" d="M4.843,14.957c0,1.311,0,2.619,0,3.926c0,0.607-0.379,1.002-0.99,1.008c-0.783,0.008-2.07,0.008-2.854,0
				c-0.627-0.006-0.998-0.393-0.998-1.018C0,16.264,0,13.652,0.001,11.045c0-0.625,0.377-1.002,1.008-1.005
				c0.775-0.002,2.057-0.003,2.834,0.001c0.621,0.002,1,0.39,1,1.014C4.843,12.355,4.843,13.656,4.843,14.957z"/>
		</g>
	</g>
</g>
<g id="Layer_1_1_">
</g>
</svg>
