<?xml version="1.0" encoding="iso-8859-1"?>
<!-- Generator: Adobe Illustrator 16.0.0, SVG Export Plug-In . SVG Version: 6.00 Build 0)  -->
<!DOCTYPE svg PUBLIC "-//W3C//DTD SVG 1.1//EN" "http://www.w3.org/Graphics/SVG/1.1/DTD/svg11.dtd">
<svg version="1.1" id="Layer_1" xmlns="http://www.w3.org/2000/svg" xmlns:xlink="http://www.w3.org/1999/xlink" x="0px" y="0px"
	 width="20px" height="20px" viewBox="0 0 20 20" style="enable-background:new 0 0 20 20;" xml:space="preserve">
<g id="thumbs-down-orange">
	<g>
		<rect id="le_wrappier_86_" style="fill:none;" width="20" height="20"/>
		<g>
			<path style="fill:#FF873C;" d="M0.167,7.635C0.075,7.475,0,7.297,0,7.239S0.159,6.82,0.353,6.562c0,0,0.031-0.041,0.243-0.276
				C0.84,6.016,0.904,5.732,0.757,5.393C0.644,5.131,0.644,5.131,0.644,5.131C0.541,4.832,0.445,4.495,0.43,4.38
				C0.414,4.266,0.606,3.902,0.692,3.79c0.085-0.112,0.484-0.526,0.655-0.728c0.17-0.198,0.211-0.979,0.205-1.08
				c0,0,0,0,0.014-0.088c0.02-0.119,0.031-0.258,0.096-0.352c0.511-0.727,1.53-1.188,1.53-1.188c0.293-0.135,0.678-0.261,0.855-0.28
				c0.177-0.021,0.907-0.076,1.229-0.076h1.055c0.322,0,0.62,0.006,0.662,0.015C7.035,0.02,7.409,0.043,7.731,0.061
				c0,0,1.417,0.068,2.411,0.182c0.857,0.099,1.98,0.326,1.98,0.326c0.315,0.062,0.824,0.16,1.129,0.216
				c0.306,0.054,1.107,0.461,1.107,0.782v7.028c0,0.322-0.251,0.656-0.558,0.743c-0.309,0.087-1.024,0.665-1.093,0.748
				c-0.069,0.082-0.375,0.533-0.54,0.811l-0.964,1.84c-0.128,0.297-0.36,0.77-0.519,1.051l-0.555,0.722
				c-0.235,0.22-0.613,0.587-0.84,0.817L8.78,16.014c-0.144,0.289-0.32,0.782-0.391,1.098l-0.326,1.796
				C8.034,19.227,8,19.589,7.986,19.709c-0.014,0.12-0.357,0.292-0.444,0.292c-0.085,0-0.333-0.012-0.356-0.026c0,0,0,0-0.024-0.005
				c-0.885-0.209-1.429-1.112-1.429-1.112c-0.167-0.276-0.327-0.766-0.357-1.086l0.176-1.985c0.089-0.31,0.279-0.8,0.422-1.088
				c0,0,0.34-0.687,0.593-1.312c0.132-0.324,0.147-0.457,0.147-0.457c0.039-0.318,0.062-0.652,0.046-0.738
				c-0.013-0.086-0.563-0.16-0.885-0.161l-3.041-0.034c-0.322-0.004-0.848-0.031-1.169-0.061c0,0-0.487-0.045-0.879-0.506
				c-0.337-0.396-0.526-0.785-0.526-0.785c-0.141-0.289-0.257-0.592-0.257-0.67s0.133-0.478,0.295-0.711c0,0,0,0,0.167-0.193
				C0.705,8.79,0.699,8.77,0.699,8.77C0.593,8.463,0.258,7.795,0.167,7.635z"/>
			<path style="fill:#FF873C;" d="M15.157,5.041c0-1.311,0-2.618,0-3.926c0-0.607,0.378-1.001,0.989-1.008
				C16.93,0.1,18.217,0.1,19,0.107c0.627,0.007,0.999,0.393,0.999,1.019c0.001,2.608,0.001,5.22,0,7.828
				c0,0.625-0.378,1.002-1.009,1.005c-0.776,0.002-2.057,0.003-2.833-0.001c-0.622-0.002-1-0.39-1-1.015
				C15.157,7.643,15.157,6.342,15.157,5.041z"/>
		</g>
	</g>
</g>
<g id="Layer_1_1_">
</g>
</svg>
