<?xml version="1.0" encoding="iso-8859-1"?>
<!-- Generator: Adobe Illustrator 16.0.0, SVG Export Plug-In . SVG Version: 6.00 Build 0)  -->
<!DOCTYPE svg PUBLIC "-//W3C//DTD SVG 1.1//EN" "http://www.w3.org/Graphics/SVG/1.1/DTD/svg11.dtd">
<svg version="1.1" xmlns="http://www.w3.org/2000/svg" xmlns:xlink="http://www.w3.org/1999/xlink" x="0px" y="0px" width="20px"
	 height="20.001px" viewBox="0 0 20 20.001" style="enable-background:new 0 0 20 20.001;" xml:space="preserve">
<g id="thumbs-down-grey">
	<g>
		<rect id="le_wrappier_78_" y="0.001" style="fill:none;" width="20" height="20"/>
		<g>
			<path style="fill:#AAAAAA;" d="M0.168,7.637C0.076,7.477,0,7.299,0,7.241s0.16-0.419,0.354-0.677c0,0,0.029-0.04,0.242-0.276
				c0.244-0.271,0.309-0.554,0.16-0.894C0.643,5.133,0.643,5.133,0.643,5.133C0.541,4.835,0.445,4.498,0.43,4.383
				s0.176-0.478,0.262-0.59c0.084-0.112,0.484-0.527,0.654-0.727c0.17-0.2,0.211-0.979,0.205-1.08c0,0,0,0,0.014-0.088
				c0.02-0.121,0.031-0.258,0.096-0.352c0.512-0.728,1.529-1.189,1.529-1.189c0.293-0.134,0.68-0.26,0.855-0.28
				c0.178-0.021,0.908-0.076,1.229-0.076h1.055c0.322,0,0.621,0.006,0.662,0.014c0.043,0.007,0.416,0.03,0.738,0.047
				c0,0,1.416,0.069,2.41,0.182c0.857,0.099,1.98,0.326,1.98,0.326c0.316,0.063,0.646,0.16,0.951,0.216
				C13.377,0.839,14,1.246,14,1.568v7.029c0,0.322-0.072,0.656-0.381,0.743c-0.307,0.087-0.934,0.665-1.002,0.748
				c-0.07,0.082-0.33,0.533-0.496,0.811l-0.941,1.84c-0.129,0.296-0.352,0.769-0.508,1.05l-0.549,0.722
				c-0.236,0.22-0.611,0.587-0.838,0.816l-0.51,0.688c-0.145,0.288-0.318,0.781-0.389,1.096l-0.326,1.796
				c-0.029,0.32-0.064,0.682-0.078,0.802s-0.357,0.292-0.443,0.292s-0.332-0.012-0.355-0.026c0,0,0,0-0.025-0.005
				c-0.885-0.209-1.43-1.113-1.43-1.113c-0.166-0.276-0.326-0.765-0.355-1.086l0.176-1.984c0.088-0.311,0.277-0.8,0.422-1.089
				c0,0,0.34-0.686,0.594-1.311c0.131-0.323,0.146-0.457,0.146-0.457c0.039-0.319,0.061-0.651,0.047-0.738
				c-0.014-0.086-0.562-0.16-0.885-0.161l-3.041-0.034c-0.322-0.004-0.848-0.031-1.17-0.061c0,0-0.486-0.044-0.879-0.506
				c-0.336-0.396-0.525-0.784-0.525-0.784C0.115,10.355,0,10.054,0,9.976c0-0.079,0.133-0.478,0.295-0.711c0,0,0,0,0.168-0.194
				C0.701,8.79,0.695,8.77,0.695,8.77C0.594,8.465,0.258,7.797,0.168,7.637z"/>
			<path style="fill:#AAAAAA;" d="M15,5.042c0-1.309,0-2.617,0-3.925c0-0.608,0.457-1.002,1.068-1.008
				c0.783-0.009,2.109-0.009,2.893-0.001c0.627,0.007,1.02,0.393,1.02,1.02c0,2.609,0.01,5.219,0.01,7.828
				c0,0.625-0.373,1.002-1.004,1.005c-0.777,0.002-2.133,0.003-2.91-0.001C15.455,9.958,15,9.571,15,8.946
				C15,7.645,15,6.343,15,5.042z"/>
		</g>
	</g>
</g>
<g id="Layer_1">
</g>
</svg>
