<?xml version="1.0" encoding="iso-8859-1"?>
<!-- Generator: Adobe Illustrator 16.0.0, SVG Export Plug-In . SVG Version: 6.00 Build 0)  -->
<!DOCTYPE svg PUBLIC "-//W3C//DTD SVG 1.1//EN" "http://www.w3.org/Graphics/SVG/1.1/DTD/svg11.dtd">
<svg version="1.1" xmlns="http://www.w3.org/2000/svg" xmlns:xlink="http://www.w3.org/1999/xlink" x="0px" y="0px" width="20px"
	 height="20px" viewBox="0 0 20 20" style="enable-background:new 0 0 20 20;" xml:space="preserve">
<g id="thumbs-down-grey">
	<g>
		<rect id="le_wrappier_78_" style="fill:none;" width="20" height="20"/>
		<g>
			<path style="fill:#AAAAAA;" d="M0.167,7.635C0.075,7.475,0,7.297,0,7.24c0-0.057,0.159-0.419,0.353-0.676
				c0,0,0.031-0.041,0.243-0.277C0.84,6.015,0.904,5.733,0.756,5.393C0.643,5.132,0.643,5.132,0.643,5.132
				c-0.103-0.298-0.199-0.635-0.214-0.75c-0.016-0.115,0.176-0.478,0.262-0.59c0.085-0.112,0.484-0.527,0.655-0.727
				c0.17-0.2,0.211-0.979,0.205-1.08c0,0,0,0,0.014-0.088c0.02-0.121,0.031-0.258,0.096-0.352c0.511-0.728,1.53-1.189,1.53-1.189
				c0.293-0.134,0.678-0.26,0.855-0.281C4.222,0.055,4.952,0,5.273,0h1.055C6.65,0,6.948,0.006,6.99,0.013
				C7.032,0.02,7.406,0.044,7.728,0.06c0,0,1.417,0.069,2.411,0.182c0.857,0.098,1.98,0.326,1.98,0.326
				c0.316,0.064,0.646,0.161,0.951,0.216C13.377,0.837,14,1.245,14,1.567v7.029c0,0.322-0.073,0.657-0.381,0.743
				c-0.307,0.087-0.935,0.666-1.003,0.748c-0.069,0.082-0.33,0.534-0.495,0.811l-0.942,1.84c-0.129,0.295-0.351,0.768-0.508,1.049
				l-0.549,0.723c-0.235,0.22-0.61,0.587-0.837,0.816l-0.51,0.688c-0.145,0.289-0.319,0.782-0.39,1.097L8.06,18.906
				c-0.029,0.32-0.063,0.682-0.077,0.801C7.969,19.828,7.625,20,7.539,20c-0.085,0-0.333-0.012-0.356-0.026c0,0,0,0-0.024-0.005
				c-0.886-0.209-1.429-1.113-1.429-1.113c-0.167-0.276-0.327-0.766-0.357-1.086l0.176-1.984c0.089-0.311,0.279-0.8,0.422-1.089
				c0,0,0.34-0.686,0.593-1.311c0.132-0.323,0.148-0.457,0.148-0.457c0.039-0.319,0.061-0.651,0.046-0.738
				c-0.013-0.086-0.563-0.16-0.885-0.161l-3.041-0.035c-0.322-0.004-0.848-0.03-1.169-0.06c0,0-0.487-0.044-0.879-0.507
				c-0.337-0.396-0.526-0.784-0.526-0.784C0.116,10.354,0,10.053,0,9.974c0-0.079,0.133-0.477,0.295-0.71c0,0,0,0,0.167-0.195
				c0.239-0.28,0.233-0.3,0.233-0.3C0.593,8.463,0.258,7.795,0.167,7.635z"/>
			<path style="fill:#AAAAAA;" d="M15,5.041c0-1.308,0-2.617,0-3.925c0-0.608,0.456-1.001,1.067-1.008
				c0.784-0.009,2.11-0.008,2.894,0c0.627,0.006,1.019,0.392,1.019,1.019c0.001,2.609,0.011,5.219,0.01,7.829
				c0,0.625-0.373,1.001-1.004,1.004c-0.776,0.002-2.133,0.003-2.909,0C15.454,9.957,15,9.57,15,8.945C15,7.643,15,6.342,15,5.041z"
				/>
		</g>
	</g>
</g>
<g id="Layer_1">
</g>
</svg>
