<?xml version="1.0" encoding="utf-8"?>
<!-- Generator: Adobe Illustrator 16.0.0, SVG Export Plug-In . SVG Version: 6.00 Build 0)  -->
<!DOCTYPE svg PUBLIC "-//W3C//DTD SVG 1.1//EN" "http://www.w3.org/Graphics/SVG/1.1/DTD/svg11.dtd">
<svg version="1.1" id="Layer_1" xmlns="http://www.w3.org/2000/svg" xmlns:xlink="http://www.w3.org/1999/xlink" x="0px" y="0px"
	 width="20px" height="20px" viewBox="0 0 20 20" enable-background="new 0 0 20 20" xml:space="preserve">
<g id="thumbs-down-red">
	<g>
		<rect id="le_wrappier_15_" x="0" y="0" fill="none" width="20" height="20"/>
		<g>
			<path fill="#EE4249" d="M0.168,7.636C0.077,7.476,0,7.298,0,7.241s0.16-0.419,0.354-0.677c0,0,0.029-0.041,0.242-0.276
				c0.244-0.271,0.309-0.554,0.16-0.894C0.644,5.132,0.644,5.132,0.644,5.132C0.542,4.833,0.446,4.497,0.43,4.381
				c-0.016-0.114,0.176-0.478,0.262-0.59c0.084-0.112,0.484-0.526,0.654-0.728c0.17-0.198,0.211-0.979,0.205-1.08
				c0,0,0,0,0.014-0.088c0.02-0.119,0.031-0.258,0.096-0.352C2.173,0.818,3.19,0.357,3.19,0.357c0.293-0.135,0.68-0.26,0.855-0.28
				C4.223,0.056,4.954,0,5.274,0H6.33c0.322,0,0.621,0.006,0.662,0.015c0.043,0.006,0.416,0.029,0.738,0.047
				c0,0,1.416,0.068,2.41,0.182c0.856,0.099,1.979,0.326,1.979,0.326c0.316,0.062,0.824,0.16,1.129,0.216
				c0.308,0.054,1.107,0.461,1.107,0.782v7.029c0,0.321-0.25,0.655-0.559,0.742c-0.307,0.087-1.023,0.665-1.092,0.748
				c-0.068,0.082-0.375,0.534-0.539,0.811l-0.965,1.84c-0.129,0.297-0.361,0.77-0.521,1.049l-0.553,0.723
				c-0.236,0.221-0.613,0.588-0.84,0.816l-0.512,0.689c-0.145,0.287-0.32,0.779-0.391,1.096l-0.326,1.795
				c-0.029,0.32-0.064,0.682-0.078,0.803C7.967,19.828,7.624,20,7.538,20s-0.332-0.012-0.355-0.025c0,0,0,0-0.025-0.004
				c-0.885-0.211-1.43-1.113-1.43-1.113c-0.166-0.277-0.326-0.766-0.355-1.086l0.176-1.984c0.088-0.311,0.277-0.799,0.422-1.088
				c0,0,0.34-0.686,0.594-1.311c0.131-0.324,0.146-0.457,0.146-0.457c0.039-0.32,0.062-0.652,0.047-0.738s-0.562-0.16-0.885-0.162
				l-3.041-0.035c-0.322-0.004-0.848-0.029-1.17-0.059c0,0-0.486-0.045-0.879-0.508c-0.336-0.396-0.525-0.783-0.525-0.783
				C0.115,10.357,0,10.054,0,9.976s0.133-0.478,0.295-0.711c0,0,0,0,0.168-0.193c0.238-0.28,0.232-0.301,0.232-0.301
				C0.594,8.464,0.258,7.796,0.168,7.636z"/>
			<path fill="#EE4249" d="M15.158,5.042c0-1.311,0-2.618,0-3.926c0-0.607,0.377-1.001,0.988-1.008c0.783-0.008,2.07-0.008,2.854,0
				c0.627,0.007,1,0.393,1,1.019c0,2.608,0,5.22,0,7.828c0,0.625-0.379,1.002-1.01,1.005c-0.775,0.002-2.057,0.003-2.834-0.001
				c-0.621-0.002-0.998-0.39-0.998-1.015C15.158,7.644,15.158,6.343,15.158,5.042z"/>
		</g>
	</g>
</g>
<g id="Layer_1_1_">
</g>
</svg>
