<?xml version="1.0" encoding="iso-8859-1"?>
<!-- Generator: Adobe Illustrator 16.0.0, SVG Export Plug-In . SVG Version: 6.00 Build 0)  -->
<!DOCTYPE svg PUBLIC "-//W3C//DTD SVG 1.1//EN" "http://www.w3.org/Graphics/SVG/1.1/DTD/svg11.dtd">
<svg version="1.1" xmlns="http://www.w3.org/2000/svg" xmlns:xlink="http://www.w3.org/1999/xlink" x="0px" y="0px" width="20px"
	 height="20px" viewBox="0 0 20 20" style="enable-background:new 0 0 20 20;" xml:space="preserve">
<g id="thumbs-up-grey">
	<g>
		<rect id="le_wrappier_65_" style="fill:none;" width="20" height="20"/>
		<g>
			<path style="fill:#AAAAAA;" d="M19.834,12.365C19.926,12.525,20,12.703,20,12.761c0,0.057-0.158,0.419-0.352,0.676
				c0,0-0.031,0.041-0.244,0.277c-0.244,0.271-0.309,0.553-0.16,0.894c0.113,0.261,0.113,0.261,0.113,0.261
				c0.102,0.298,0.199,0.636,0.213,0.751c0.016,0.115-0.176,0.478-0.262,0.59c-0.084,0.112-0.484,0.526-0.654,0.727
				c-0.17,0.199-0.211,0.979-0.205,1.08c0,0,0,0-0.014,0.088c-0.02,0.12-0.031,0.258-0.096,0.352
				c-0.512,0.728-1.529,1.188-1.529,1.188c-0.293,0.134-0.678,0.26-0.855,0.281C15.779,19.945,15.049,20,14.727,20h-1.055
				c-0.322,0-0.619-0.006-0.662-0.013c-0.041-0.007-0.416-0.031-0.738-0.047c0,0-1.416-0.069-2.41-0.183
				c-0.857-0.098-1.98-0.325-1.98-0.325c-0.316-0.064-0.824-0.161-1.129-0.216c-0.307-0.054-1.107-0.462-1.107-0.784v-7.028
				c0-0.322,0.252-0.657,0.559-0.743c0.307-0.087,1.023-0.666,1.092-0.748S7.67,9.379,7.836,9.103l0.963-1.84
				c0.129-0.296,0.361-0.769,0.52-1.05l0.555-0.722c0.234-0.221,0.613-0.588,0.84-0.817l0.51-0.688
				c0.145-0.289,0.32-0.782,0.391-1.097l0.326-1.795c0.029-0.32,0.064-0.682,0.078-0.802S12.375,0,12.461,0s0.332,0.013,0.357,0.026
				c0,0,0,0,0.023,0.006c0.885,0.208,1.43,1.113,1.43,1.113c0.166,0.275,0.326,0.765,0.357,1.086l-0.176,1.984
				c-0.09,0.31-0.279,0.799-0.424,1.088c0,0-0.34,0.686-0.592,1.311c-0.133,0.324-0.148,0.457-0.148,0.457
				c-0.039,0.319-0.061,0.652-0.047,0.738s0.564,0.16,0.885,0.162l3.041,0.034c0.322,0.004,0.85,0.03,1.17,0.06
				c0,0,0.486,0.045,0.879,0.507c0.338,0.396,0.527,0.784,0.527,0.784C19.885,9.646,20,9.947,20,10.026s-0.133,0.477-0.295,0.71
				c0,0,0,0-0.168,0.195c-0.238,0.28-0.232,0.3-0.232,0.3C19.406,11.537,19.742,12.205,19.834,12.365z"/>
			<path style="fill:#AAAAAA;" d="M4.844,14.96c0,1.308,0,2.617,0,3.925c0,0.608-0.379,1.001-0.99,1.008
				c-0.783,0.009-2.07,0.008-2.854,0c-0.627-0.006-0.998-0.392-0.998-1.019C0,16.265,0,13.654,0.002,11.045
				c0-0.625,0.377-1.001,1.008-1.004c0.775-0.003,2.057-0.003,2.834,0c0.621,0.003,1,0.39,1,1.015
				C4.844,12.357,4.844,13.658,4.844,14.96z"/>
		</g>
	</g>
</g>
<g id="Layer_1">
</g>
</svg>
