<?xml version="1.0" encoding="utf-8"?>
<!-- Generator: Adobe Illustrator 16.0.0, SVG Export Plug-In . SVG Version: 6.00 Build 0)  -->
<!DOCTYPE svg PUBLIC "-//W3C//DTD SVG 1.1//EN" "http://www.w3.org/Graphics/SVG/1.1/DTD/svg11.dtd">
<svg version="1.1" id="Layer_1" xmlns="http://www.w3.org/2000/svg" xmlns:xlink="http://www.w3.org/1999/xlink" x="0px" y="0px"
	 width="20px" height="20px" viewBox="0 0 20 20" enable-background="new 0 0 20 20" xml:space="preserve">
<g id="thumbs-down-orange">
	<g>
		<rect id="le_wrappier_86_" x="0" fill="none" width="20" height="20"/>
		<g>
			<path fill="#FF873C" d="M0.168,7.635C0.077,7.475,0,7.297,0,7.239s0.16-0.419,0.354-0.677c0,0,0.029-0.041,0.242-0.276
				c0.244-0.271,0.309-0.554,0.16-0.894C0.644,5.131,0.644,5.131,0.644,5.131C0.542,4.832,0.446,4.495,0.43,4.38
				C0.415,4.266,0.606,3.902,0.692,3.79c0.084-0.112,0.484-0.526,0.654-0.728c0.17-0.198,0.211-0.979,0.205-1.08
				c0,0,0,0,0.014-0.088c0.02-0.119,0.031-0.258,0.096-0.352C2.173,0.816,3.19,0.355,3.19,0.355c0.293-0.135,0.68-0.26,0.855-0.28
				c0.178-0.021,0.908-0.076,1.229-0.076H6.33c0.322,0,0.621,0.006,0.662,0.015C7.035,0.02,7.408,0.043,7.729,0.061
				c0,0,1.416,0.068,2.41,0.182c0.856,0.099,1.979,0.326,1.979,0.326c0.316,0.062,0.824,0.16,1.129,0.216
				c0.308,0.054,1.107,0.461,1.107,0.782v7.029c0,0.321-0.25,0.655-0.559,0.742c-0.307,0.087-1.023,0.665-1.092,0.748
				c-0.068,0.082-0.375,0.533-0.539,0.811l-0.965,1.84c-0.129,0.297-0.361,0.77-0.521,1.051l-0.553,0.722
				c-0.236,0.22-0.613,0.587-0.84,0.817l-0.512,0.688c-0.145,0.289-0.32,0.782-0.391,1.098l-0.326,1.796
				c-0.029,0.319-0.064,0.682-0.078,0.802c-0.014,0.12-0.357,0.292-0.443,0.292s-0.332-0.012-0.355-0.026c0,0,0,0-0.025-0.004
				c-0.885-0.21-1.43-1.113-1.43-1.113c-0.166-0.276-0.326-0.766-0.355-1.086l0.176-1.985c0.088-0.31,0.277-0.8,0.422-1.088
				c0,0,0.34-0.687,0.594-1.312C6.696,13.062,6.71,12.93,6.71,12.93c0.039-0.318,0.062-0.652,0.047-0.738s-0.562-0.16-0.885-0.162
				l-3.041-0.033c-0.322-0.004-0.848-0.031-1.17-0.061c0,0-0.486-0.045-0.879-0.506c-0.336-0.396-0.525-0.785-0.525-0.785
				C0.115,10.355,0,10.053,0,9.975s0.133-0.478,0.295-0.711c0,0,0,0,0.168-0.193C0.701,8.79,0.695,8.77,0.695,8.77
				C0.594,8.463,0.258,7.795,0.168,7.635z"/>
			<path fill="#FF873C" d="M15.158,5.041c0-1.311,0-2.618,0-3.926c0-0.607,0.377-1.001,0.988-1.008C16.93,0.1,18.217,0.1,19,0.107
				c0.627,0.007,1,0.393,1,1.019c0,2.608,0,5.22,0,7.828c0,0.625-0.379,1.002-1.01,1.005c-0.775,0.002-2.057,0.003-2.834-0.001
				c-0.621-0.002-0.998-0.39-0.998-1.015C15.158,7.643,15.158,6.342,15.158,5.041z"/>
		</g>
	</g>
</g>
<g id="Layer_1_1_">
</g>
</svg>
