<?xml version="1.0" encoding="iso-8859-1"?>
<!-- Generator: Adobe Illustrator 16.0.0, SVG Export Plug-In . SVG Version: 6.00 Build 0)  -->
<!DOCTYPE svg PUBLIC "-//W3C//DTD SVG 1.1//EN" "http://www.w3.org/Graphics/SVG/1.1/DTD/svg11.dtd">
<svg version="1.1" id="Layer_1" xmlns="http://www.w3.org/2000/svg" xmlns:xlink="http://www.w3.org/1999/xlink" x="0px" y="0px"
	 width="20px" height="20px" viewBox="0 0 20 20" style="enable-background:new 0 0 20 20;" xml:space="preserve">
<g id="thumbs-up-red">
	<g>
		<rect id="le_wrappier_75_" y="0" style="fill:none;" width="20" height="20"/>
		<g>
			<path style="fill:#EE4249;" d="M19.833,12.363C19.925,12.523,20,12.701,20,12.76c0,0.057-0.159,0.418-0.354,0.676
				c0,0-0.03,0.041-0.242,0.277c-0.244,0.27-0.309,0.553-0.161,0.893c0.112,0.262,0.112,0.262,0.112,0.262
				c0.104,0.299,0.199,0.637,0.215,0.752c0.016,0.113-0.176,0.477-0.262,0.59c-0.086,0.111-0.484,0.525-0.656,0.727
				c-0.17,0.199-0.211,0.979-0.204,1.08c0,0,0,0-0.015,0.088c-0.02,0.119-0.031,0.258-0.096,0.352
				c-0.511,0.727-1.529,1.188-1.529,1.188c-0.293,0.135-0.679,0.26-0.855,0.281C15.775,19.943,15.046,20,14.725,20h-1.056
				c-0.322,0-0.62-0.006-0.662-0.016c-0.042-0.006-0.416-0.029-0.737-0.047c0,0-1.418-0.068-2.412-0.182
				c-0.857-0.098-1.98-0.326-1.98-0.326c-0.316-0.062-0.824-0.16-1.129-0.215c-0.306-0.055-1.107-0.461-1.107-0.783v-7.029
				c0-0.32,0.251-0.654,0.558-0.742c0.308-0.086,1.024-0.665,1.092-0.748c0.069-0.082,0.375-0.533,0.54-0.811l0.964-1.841
				c0.128-0.296,0.361-0.769,0.519-1.049l0.554-0.722c0.235-0.221,0.613-0.588,0.84-0.817l0.511-0.688
				c0.144-0.287,0.32-0.78,0.392-1.096l0.326-1.796C11.966,0.774,12,0.412,12.014,0.292S12.371,0,12.458,0
				c0.085,0,0.333,0.012,0.356,0.026c0,0,0,0,0.023,0.005c0.885,0.209,1.429,1.112,1.429,1.112c0.167,0.276,0.327,0.766,0.357,1.086
				l-0.177,1.984c-0.088,0.311-0.278,0.799-0.422,1.088c0,0-0.34,0.686-0.593,1.311c-0.132,0.324-0.147,0.457-0.147,0.457
				c-0.039,0.32-0.062,0.652-0.047,0.738c0.014,0.086,0.563,0.16,0.886,0.162l3.041,0.034c0.321,0.004,0.848,0.03,1.169,0.06
				c0,0,0.486,0.045,0.879,0.508c0.337,0.396,0.525,0.783,0.525,0.783c0.142,0.289,0.258,0.592,0.258,0.67s-0.133,0.478-0.295,0.71
				c0,0,0,0-0.168,0.193c-0.238,0.281-0.232,0.301-0.232,0.301C19.407,11.535,19.742,12.203,19.833,12.363z"/>
			<path style="fill:#EE4249;" d="M4.843,14.957c0,1.311,0,2.619,0,3.926c0,0.607-0.378,1.002-0.989,1.008
				c-0.784,0.008-2.071,0.008-2.854,0c-0.627-0.006-0.999-0.393-0.999-1.018C0,16.264,0,13.652,0.001,11.045
				c0-0.625,0.378-1.002,1.009-1.005c0.776-0.002,2.057-0.003,2.833,0.001c0.622,0.002,1,0.39,1,1.014
				C4.843,12.355,4.843,13.656,4.843,14.957z"/>
		</g>
	</g>
</g>
<g id="Layer_1_1_">
</g>
</svg>
