<?xml version="1.0" encoding="iso-8859-1"?>
<!-- Generator: Adobe Illustrator 16.0.0, SVG Export Plug-In . SVG Version: 6.00 Build 0)  -->
<!DOCTYPE svg PUBLIC "-//W3C//DTD SVG 1.1//EN" "http://www.w3.org/Graphics/SVG/1.1/DTD/svg11.dtd">
<svg version="1.1" xmlns="http://www.w3.org/2000/svg" xmlns:xlink="http://www.w3.org/1999/xlink" x="0px" y="0px" width="20px"
	 height="20.001px" viewBox="0 0 20 20.001" style="enable-background:new 0 0 20 20.001;" xml:space="preserve">
<g id="trash">
	<g>
		<rect id="le_wrappier_76_" y="0" style="fill:none;" width="20" height="20"/>
		<g>
			<linearGradient id="main-container_2_" gradientUnits="userSpaceOnUse" x1="2.1904" y1="11.7363" x2="17.9346" y2="11.7363">
				<stop  offset="0" style="stop-color:#989898"/>
				<stop  offset="0.4798" style="stop-color:#B6B6B7"/>
				<stop  offset="1" style="stop-color:#989898"/>
			</linearGradient>
			<path id="main-container_1_" style="fill:url(#main-container_2_);" d="M17.935,4.118c0.01-0.355-0.281-0.645-0.645-0.645
				c-4.818,0-9.639,0-14.455,0c-0.367,0-0.654,0.289-0.645,0.645C2.333,9.04,2.472,13.965,2.614,18.89
				c0.01,0.352,0.297,0.679,0.641,0.72c4.521,0.521,9.092,0.521,13.617,0c0.341-0.041,0.629-0.368,0.639-0.72
				C17.651,13.965,17.794,9.04,17.935,4.118z"/>
			<path id="vertical-bar-right_1_" style="fill:#D2D2D2;" d="M15.165,7.051c-0.514-0.371-1.201-0.383-1.717-0.027
				c0.012,3.395,0.045,6.759,0.107,10.127c0.352,0.263,0.812,0.302,1.184,0.102C14.864,13.766,15.015,10.325,15.165,7.051z"/>
			<path id="vertical-bar-center_1_" style="fill:#D2D2D2;" d="M10.958,6.776c-0.574-0.404-1.342-0.404-1.916,0
				c0.09,3.527,0.195,7.128,0.303,10.77c0.393,0.289,0.918,0.289,1.307,0C10.759,13.904,10.864,10.303,10.958,6.776z"/>
			<path id="vertical-bar-left_1_" style="fill:#D2D2D2;" d="M6.552,6.899C6.034,6.545,5.347,6.557,4.833,6.926
				C4.981,10.2,5.136,13.64,5.259,17.131c0.373,0.196,0.832,0.157,1.182-0.104C6.507,13.659,6.54,10.293,6.552,6.899z"/>
			<linearGradient id="lid_2_" gradientUnits="userSpaceOnUse" x1="1.0205" y1="2.2549" x2="18.9795" y2="2.2549">
				<stop  offset="0" style="stop-color:#7F7F7F"/>
				<stop  offset="0.4798" style="stop-color:#908F8E"/>
				<stop  offset="1" style="stop-color:#7F7F7F"/>
			</linearGradient>
			<path id="lid_1_" style="fill:url(#lid_2_);" d="M15.341,1.438c-0.211-0.004-0.379-0.188-0.379-0.412c0-0.186,0-0.369,0-0.552
				c0-0.225-0.172-0.413-0.381-0.419c-3.012-0.072-6.025-0.074-9.037-0.001C5.337,0.057,5.163,0.247,5.163,0.469
				c0,0.184,0,0.371,0,0.555c0,0.225-0.17,0.41-0.379,0.412c-1.129,0.01-2.258,0.025-3.383,0.045
				C1.19,1.485,1.022,1.661,1.021,1.868c0,0.004,0,0.006,0,0.008c0,0.209,0,0.551,0,0.76c0,0.215,0,0.43,0,0.645
				c0,0.209,0,0.525,0,0.699c0,0.176,0.172,0.326,0.38,0.338c5.729,0.258,11.466,0.258,17.197,0c0.21-0.012,0.382-0.162,0.382-0.338
				c0-0.174,0-0.49,0-0.699c0-0.215,0-0.43,0-0.645c0-0.209,0-0.551,0-0.76c0-0.002,0-0.004,0-0.008
				c0-0.207-0.172-0.383-0.382-0.387C17.513,1.463,16.427,1.448,15.341,1.438z"/>
		</g>
	</g>
</g>
<g id="Layer_1">
</g>
</svg>
