<?xml version="1.0" encoding="iso-8859-1"?>
<!-- Generator: Adobe Illustrator 16.0.0, SVG Export Plug-In . SVG Version: 6.00 Build 0)  -->
<!DOCTYPE svg PUBLIC "-//W3C//DTD SVG 1.1//EN" "http://www.w3.org/Graphics/SVG/1.1/DTD/svg11.dtd">
<svg version="1.1" xmlns="http://www.w3.org/2000/svg" xmlns:xlink="http://www.w3.org/1999/xlink" x="0px" y="0px" width="20px"
	 height="20px" viewBox="0 0 20 20" style="enable-background:new 0 0 20 20;" xml:space="preserve">
<g id="trash">
	<g>
		<rect id="le_wrappier_49_" y="0" style="fill:none;" width="20" height="20"/>
		<g>
			<linearGradient id="main-container_2_" gradientUnits="userSpaceOnUse" x1="2.1904" y1="11.7363" x2="17.9346" y2="11.7363">
				<stop  offset="0" style="stop-color:#989898"/>
				<stop  offset="0.4798" style="stop-color:#B6B6B7"/>
				<stop  offset="1" style="stop-color:#989898"/>
			</linearGradient>
			<path id="main-container_1_" style="fill:url(#main-container_2_);" d="M17.935,4.117c0.01-0.356-0.281-0.645-0.645-0.645
				c-4.819,0-9.639,0-14.455,0c-0.367,0-0.654,0.289-0.645,0.645c0.143,4.921,0.282,9.848,0.424,14.771
				c0.01,0.352,0.296,0.68,0.64,0.721c4.521,0.521,9.091,0.521,13.617,0c0.341-0.041,0.628-0.369,0.638-0.721
				C17.651,13.965,17.793,9.039,17.935,4.117z"/>
			<path id="vertical-bar-right_1_" style="fill:#D2D2D2;" d="M15.164,7.05c-0.514-0.371-1.2-0.382-1.717-0.027
				c0.012,3.395,0.046,6.76,0.108,10.127c0.352,0.264,0.812,0.303,1.183,0.102C14.863,13.766,15.015,10.324,15.164,7.05z"/>
			<path id="vertical-bar-center_1_" style="fill:#D2D2D2;" d="M10.958,6.775c-0.575-0.404-1.342-0.404-1.916,0
				c0.09,3.527,0.195,7.129,0.302,10.77c0.393,0.289,0.918,0.289,1.307,0C10.759,13.904,10.864,10.302,10.958,6.775z"/>
			<path id="vertical-bar-left_1_" style="fill:#D2D2D2;" d="M6.552,6.898C6.034,6.544,5.347,6.556,4.833,6.925
				c0.148,3.273,0.302,6.713,0.425,10.206c0.374,0.195,0.832,0.156,1.182-0.104C6.507,13.658,6.54,10.292,6.552,6.898z"/>
			<linearGradient id="lid_2_" gradientUnits="userSpaceOnUse" x1="1.0205" y1="2.2544" x2="18.9795" y2="2.2544">
				<stop  offset="0" style="stop-color:#7F7F7F"/>
				<stop  offset="0.4798" style="stop-color:#908F8E"/>
				<stop  offset="1" style="stop-color:#7F7F7F"/>
			</linearGradient>
			<path id="lid_1_" style="fill:url(#lid_2_);" d="M15.34,1.438c-0.211-0.004-0.379-0.188-0.379-0.412c0-0.186,0-0.369,0-0.552
				c0-0.225-0.171-0.413-0.381-0.418C11.569-0.018,8.556-0.02,5.544,0.053c-0.207,0.003-0.38,0.193-0.38,0.416
				c0,0.184,0,0.371,0,0.555c0,0.225-0.17,0.41-0.379,0.412C3.655,1.445,2.527,1.461,1.401,1.48c-0.21,0.004-0.378,0.18-0.381,0.387
				c0,0.004,0,0.006,0,0.008c0,0.208,0,0.55,0,0.76c0,0.215,0,0.43,0,0.645c0,0.208,0,0.525,0,0.699c0,0.176,0.172,0.327,0.38,0.338
				c5.729,0.257,11.466,0.257,17.197,0c0.209-0.012,0.382-0.163,0.382-0.338c0-0.173,0-0.49,0-0.699c0-0.215,0-0.43,0-0.645
				c0-0.209,0-0.551,0-0.76c0-0.002,0-0.004,0-0.008c0-0.207-0.173-0.383-0.382-0.387C17.512,1.463,16.426,1.447,15.34,1.438z"/>
		</g>
	</g>
</g>
<g id="Layer_1">
</g>
</svg>
