<?xml version="1.0" encoding="iso-8859-1"?>
<!-- Generator: Adobe Illustrator 16.0.0, SVG Export Plug-In . SVG Version: 6.00 Build 0)  -->
<!DOCTYPE svg PUBLIC "-//W3C//DTD SVG 1.1//EN" "http://www.w3.org/Graphics/SVG/1.1/DTD/svg11.dtd">
<svg version="1.1" xmlns="http://www.w3.org/2000/svg" xmlns:xlink="http://www.w3.org/1999/xlink" x="0px" y="0px" width="20px"
	 height="20px" viewBox="0 0 20 20" style="enable-background:new 0 0 20 20;" xml:space="preserve">
<g id="twitter">
	<g>
		<rect id="le_wrappier_43_" x="-1190" y="62" style="fill:none;" width="20" height="20"/>
		<path style="fill:#5EA8DC;" d="M-1176.542,63.857c0.223,0,0.445,0,0.668,0c0.025,0.005,0.051,0.013,0.077,0.015
			c1.001,0.094,1.856,0.5,2.566,1.21c0.051,0.051,0.096,0.067,0.169,0.052c0.848-0.181,1.649-0.485,2.402-0.916
			c0.028-0.016,0.054-0.041,0.105-0.039c-0.324,0.959-0.915,1.694-1.754,2.237c0.577-0.064,1.134-0.194,1.677-0.385
			c0.212-0.075,0.421-0.159,0.631-0.239c0,0.006,0,0.012,0,0.018c-0.012,0.013-0.026,0.023-0.036,0.037
			c-0.537,0.787-1.188,1.463-1.956,2.026c-0.05,0.036-0.051,0.078-0.051,0.128c0.001,0.284,0.01,0.569,0,0.853
			c-0.038,1.058-0.223,2.09-0.544,3.096c-0.641,2.008-1.704,3.755-3.251,5.191c-1.973,1.831-4.325,2.781-6.998,2.971
			c-0.106,0.008-0.214-0.004-0.318,0.031c-0.346,0-0.692,0-1.038,0c-0.013-0.016-0.031-0.014-0.048-0.015
			c-0.199-0.003-0.396-0.021-0.594-0.037c-0.359-0.031-0.717-0.077-1.07-0.147c-0.603-0.12-1.197-0.272-1.775-0.486
			c-0.783-0.29-1.531-0.648-2.239-1.091c-0.028-0.018-0.064-0.027-0.082-0.071c1.081,0.122,2.14,0.037,3.182-0.253
			c0.96-0.269,2.65-1.136,2.832-1.447c-0.551-0.039-0.866-0.092-1.255-0.236c-1.223-0.455-2.061-1.298-2.514-2.522
			c-0.038-0.102-0.034-0.105,0.073-0.085c0.167,0.032,0.335,0.051,0.504,0.058c0.363,0.015,0.724-0.022,1.079-0.104
			c0.039-0.009,0.085-0.005,0.119-0.043c-2.232-0.507-3.316-2.517-3.235-4.072c0.281,0.146,0.567,0.271,0.87,0.354
			c0.304,0.083,0.612,0.14,0.933,0.146c-0.009-0.038-0.034-0.045-0.052-0.058c-0.348-0.252-0.654-0.545-0.913-0.889
			c-0.543-0.725-0.802-1.544-0.824-2.442c-0.005-0.214,0.017-0.43,0.051-0.644c0.079-0.49,0.236-0.953,0.476-1.388
			c0.033-0.06,0.052-0.052,0.089-0.006c0.287,0.349,0.593,0.68,0.919,0.992c0.822,0.788,1.736,1.446,2.748,1.97
			c0.708,0.366,1.447,0.652,2.213,0.869c0.346,0.098,0.697,0.178,1.052,0.237c0.244,0.041,0.487,0.078,0.733,0.109
			c0.226,0.027,0.452,0.036,0.677,0.063c0.059,0.007,0.071-0.021,0.06-0.073c-0.074-0.336-0.105-0.674-0.088-1.018
			c0.008-0.163,0.016-0.326,0.042-0.486c0.067-0.412,0.193-0.809,0.378-1.184c0.248-0.501,0.587-0.931,1.01-1.298
			c0.26-0.226,0.543-0.412,0.849-0.567c0.333-0.168,0.687-0.278,1.053-0.352C-1176.809,63.9-1176.671,63.905-1176.542,63.857z"/>
	</g>
</g>
<g id="Layer_1">
</g>
</svg>
