<?xml version="1.0" encoding="iso-8859-1"?>
<!-- Generator: Adobe Illustrator 16.0.0, SVG Export Plug-In . SVG Version: 6.00 Build 0)  -->
<!DOCTYPE svg PUBLIC "-//W3C//DTD SVG 1.1//EN" "http://www.w3.org/Graphics/SVG/1.1/DTD/svg11.dtd">
<svg version="1.1" id="Layer_1" xmlns="http://www.w3.org/2000/svg" xmlns:xlink="http://www.w3.org/1999/xlink" x="0px" y="0px"
	 width="20px" height="20px" viewBox="0 0 20 20" style="enable-background:new 0 0 20 20;" xml:space="preserve">
<g id="twitter">
	<g>
		<rect id="le_wrappier_43_" x="0" style="fill:none;" width="20" height="20"/>
		<path style="fill:#5EA8DC;" d="M13.459,1.857c0.223,0,0.444,0,0.668,0c0.024,0.004,0.051,0.013,0.076,0.015
			c1.002,0.094,1.856,0.5,2.566,1.21c0.051,0.051,0.096,0.066,0.169,0.052c0.849-0.181,1.649-0.485,2.401-0.916
			c0.029-0.016,0.055-0.041,0.105-0.038c-0.324,0.959-0.915,1.693-1.754,2.236c0.577-0.064,1.135-0.193,1.678-0.385
			C19.58,3.956,19.789,3.872,20,3.792c0,0.006,0,0.013,0,0.019c-0.013,0.013-0.027,0.022-0.037,0.037
			c-0.537,0.786-1.188,1.463-1.955,2.025c-0.051,0.036-0.051,0.078-0.051,0.128c0,0.284,0.01,0.569,0,0.853
			c-0.039,1.059-0.224,2.09-0.545,3.097c-0.641,2.008-1.703,3.755-3.25,5.19c-1.974,1.832-4.326,2.781-6.999,2.971
			c-0.106,0.009-0.214-0.004-0.318,0.031c-0.346,0-0.692,0-1.038,0c-0.013-0.016-0.031-0.014-0.048-0.015
			c-0.199-0.003-0.396-0.021-0.594-0.037c-0.359-0.03-0.717-0.077-1.07-0.147c-0.603-0.119-1.197-0.271-1.775-0.485
			c-0.783-0.29-1.531-0.647-2.239-1.091C0.053,16.35,0.018,16.34,0,16.296c1.081,0.122,2.14,0.037,3.182-0.253
			c0.96-0.27,2.65-1.136,2.832-1.447c-0.551-0.039-0.866-0.092-1.255-0.236c-1.223-0.455-2.061-1.297-2.514-2.521
			c-0.038-0.102-0.034-0.105,0.073-0.085c0.167,0.032,0.335,0.052,0.504,0.058c0.363,0.016,0.724-0.021,1.079-0.104
			c0.039-0.009,0.085-0.005,0.119-0.043c-2.232-0.507-3.316-2.518-3.235-4.072c0.281,0.146,0.567,0.271,0.87,0.354
			c0.304,0.084,0.612,0.141,0.933,0.146C2.579,8.055,2.553,8.047,2.536,8.034c-0.348-0.252-0.654-0.545-0.913-0.89
			C1.08,6.42,0.82,5.602,0.798,4.703C0.793,4.489,0.815,4.273,0.85,4.059c0.079-0.49,0.236-0.953,0.476-1.388
			c0.033-0.06,0.052-0.052,0.089-0.006c0.287,0.349,0.593,0.68,0.919,0.992c0.822,0.788,1.736,1.446,2.748,1.97
			C5.79,5.993,6.528,6.279,7.294,6.496C7.64,6.594,7.992,6.674,8.346,6.732C8.59,6.773,8.833,6.811,9.08,6.842
			c0.226,0.027,0.452,0.036,0.677,0.063c0.059,0.007,0.071-0.021,0.06-0.073C9.743,6.496,9.711,6.158,9.729,5.814
			C9.737,5.65,9.745,5.488,9.771,5.328c0.067-0.412,0.193-0.809,0.378-1.184c0.248-0.502,0.588-0.932,1.01-1.299
			c0.26-0.226,0.543-0.412,0.85-0.566c0.332-0.168,0.688-0.278,1.053-0.353C13.191,1.9,13.33,1.905,13.459,1.857z"/>
	</g>
</g>
<g id="Layer_1_1_">
</g>
</svg>
