<?xml version="1.0" encoding="utf-8"?>
<!-- Generator: Adobe Illustrator 16.0.0, SVG Export Plug-In . SVG Version: 6.00 Build 0)  -->
<!DOCTYPE svg PUBLIC "-//W3C//DTD SVG 1.1//EN" "http://www.w3.org/Graphics/SVG/1.1/DTD/svg11.dtd">
<svg version="1.1" id="Layer_1" xmlns="http://www.w3.org/2000/svg" xmlns:xlink="http://www.w3.org/1999/xlink" x="0px" y="0px"
	 width="20px" height="20px" viewBox="0 0 20 20" enable-background="new 0 0 20 20" xml:space="preserve">
<g id="twitter">
	<g>
		<rect id="le_wrappier_95_" fill="none" width="20" height="20"/>
		<path fill="#5EA8DC" d="M13.459,1.857c0.223,0,0.445,0,0.668,0c0.025,0.004,0.051,0.013,0.077,0.015
			c1.001,0.094,1.856,0.5,2.565,1.21c0.053,0.051,0.098,0.066,0.17,0.052c0.848-0.181,1.647-0.485,2.401-0.916
			c0.027-0.016,0.056-0.041,0.104-0.038c-0.323,0.959-0.916,1.693-1.754,2.236c0.576-0.064,1.134-0.193,1.677-0.385
			c0.213-0.075,0.422-0.159,0.631-0.239c0,0.006,0,0.013,0,0.019c-0.013,0.013-0.025,0.022-0.035,0.037
			c-0.537,0.786-1.188,1.463-1.955,2.025c-0.051,0.036-0.052,0.078-0.052,0.128c0.001,0.284,0.01,0.569,0,0.853
			c-0.038,1.059-0.223,2.09-0.544,3.097c-0.642,2.008-1.704,3.755-3.252,5.19c-1.974,1.832-4.324,2.781-6.998,2.971
			c-0.105,0.009-0.215-0.004-0.318,0.031c-0.346,0-0.691,0-1.037,0c-0.014-0.016-0.031-0.014-0.049-0.015
			c-0.198-0.003-0.396-0.021-0.594-0.037c-0.359-0.03-0.717-0.077-1.069-0.147c-0.603-0.119-1.197-0.271-1.775-0.485
			c-0.782-0.29-1.531-0.647-2.239-1.091C0.055,16.35,0.018,16.34,0,16.296c1.081,0.122,2.141,0.037,3.183-0.253
			c0.96-0.27,2.65-1.136,2.831-1.447c-0.551-0.039-0.865-0.092-1.254-0.236c-1.223-0.455-2.061-1.297-2.514-2.521
			c-0.038-0.102-0.035-0.105,0.072-0.085c0.166,0.032,0.336,0.052,0.504,0.058c0.363,0.016,0.724-0.021,1.078-0.104
			c0.039-0.009,0.086-0.005,0.119-0.043c-2.232-0.507-3.316-2.518-3.234-4.072c0.281,0.146,0.567,0.271,0.869,0.354
			c0.305,0.084,0.613,0.141,0.934,0.146c-0.01-0.037-0.035-0.045-0.053-0.058c-0.348-0.252-0.654-0.545-0.912-0.89
			C1.08,6.42,0.82,5.602,0.799,4.703C0.793,4.489,0.817,4.273,0.85,4.059c0.078-0.49,0.236-0.953,0.476-1.388
			c0.032-0.06,0.052-0.052,0.089-0.006c0.287,0.349,0.594,0.681,0.92,0.992c0.821,0.788,1.736,1.446,2.747,1.97
			C5.79,5.993,6.528,6.279,7.295,6.496c0.346,0.098,0.696,0.178,1.052,0.236c0.244,0.041,0.487,0.078,0.732,0.109
			c0.227,0.027,0.452,0.036,0.678,0.062c0.059,0.008,0.07-0.021,0.062-0.072C9.744,6.496,9.713,6.158,9.729,5.814
			C9.738,5.65,9.746,5.488,9.771,5.328c0.066-0.412,0.192-0.809,0.378-1.184c0.248-0.502,0.587-0.932,1.011-1.299
			c0.26-0.226,0.543-0.412,0.85-0.566c0.332-0.168,0.687-0.278,1.053-0.353C13.191,1.9,13.33,1.904,13.459,1.857z"/>
	</g>
</g>
<g id="Layer_1_1_">
</g>
</svg>
