<?xml version="1.0" encoding="iso-8859-1"?>
<!-- Generator: Adobe Illustrator 16.0.0, SVG Export Plug-In . SVG Version: 6.00 Build 0)  -->
<!DOCTYPE svg PUBLIC "-//W3C//DTD SVG 1.1//EN" "http://www.w3.org/Graphics/SVG/1.1/DTD/svg11.dtd">
<svg version="1.1" xmlns="http://www.w3.org/2000/svg" xmlns:xlink="http://www.w3.org/1999/xlink" x="0px" y="0px" width="20px"
	 height="20px" viewBox="0 0 20 20" style="enable-background:new 0 0 20 20;" xml:space="preserve">
<g id="warning">
	<g>
		<rect id="le_wrappier_25_" style="fill:none;" width="20" height="20"/>
		<g>
			<g>
				<linearGradient id="SVGID_1_" gradientUnits="userSpaceOnUse" x1="9.9995" y1="1.498" x2="9.9995" y2="18.5024">
					<stop  offset="0" style="stop-color:#FFB588"/>
					<stop  offset="0.7788" style="stop-color:#FF883E"/>
					<stop  offset="0.8" style="stop-color:#FF873C"/>
				</linearGradient>
				<path style="fill:url(#SVGID_1_);" d="M1.824,18.502c-1.65,0-2.302-1.155-1.45-2.568L8.45,2.558
					c0.853-1.413,2.248-1.413,3.101,0l8.074,13.376c0.854,1.413,0.201,2.568-1.449,2.568H1.824z"/>
				<path style="fill:#FFFFFF;" d="M10,2.498c0.217,0,0.477,0.216,0.695,0.576L18.77,16.45c0.233,0.387,0.268,0.684,0.199,0.806
					c-0.069,0.123-0.341,0.246-0.793,0.246H1.824c-0.452,0-0.723-0.123-0.792-0.246c-0.069-0.122-0.034-0.419,0.199-0.806
					L9.306,3.074C9.523,2.713,9.783,2.498,10,2.498 M10,1.498c-0.562,0-1.124,0.354-1.55,1.06L0.375,15.934
					c-0.853,1.413-0.2,2.568,1.45,2.568h16.352c1.65,0,2.303-1.155,1.449-2.568L11.551,2.558C11.124,1.852,10.562,1.498,10,1.498
					L10,1.498z"/>
				<path style="fill:#45494D;" d="M10,1.998c0.406,0,0.804,0.291,1.123,0.818l8.074,13.376c0.311,0.515,0.386,0.991,0.207,1.31
					c-0.18,0.317-0.627,0.5-1.229,0.5H1.824c-0.601,0-1.048-0.183-1.228-0.5c-0.179-0.318-0.104-0.795,0.207-1.31L8.878,2.816
					C9.196,2.289,9.595,1.998,10,1.998 M10,1.498c-0.562,0-1.124,0.354-1.55,1.06L0.375,15.934c-0.853,1.413-0.2,2.568,1.45,2.568
					h16.352c1.65,0,2.303-1.155,1.449-2.568L11.551,2.558C11.124,1.852,10.562,1.498,10,1.498L10,1.498z"/>
			</g>
			<g>
				<path style="fill:#FFFFFF;" d="M8.752,9.082c-0.07-0.306-0.141-0.613-0.209-0.92c-0.07-0.309-0.104-0.621-0.104-0.938
					c0-0.595,0.141-1.021,0.424-1.277C9.145,5.688,9.523,5.561,10,5.561c0.484,0,0.867,0.133,1.143,0.401
					c0.279,0.268,0.416,0.658,0.416,1.173c0,0.15-0.016,0.333-0.051,0.551c-0.035,0.219-0.076,0.44-0.127,0.669
					c-0.049,0.229-0.098,0.446-0.148,0.654c-0.049,0.208-0.09,0.386-0.117,0.534l-0.76,3.136H9.584L8.752,9.082z M11.426,15.539
					c-0.08,0.184-0.191,0.345-0.334,0.483c-0.145,0.138-0.311,0.242-0.498,0.312S10.207,16.438,10,16.438
					c-0.209,0-0.406-0.035-0.594-0.104c-0.189-0.069-0.355-0.174-0.498-0.312c-0.145-0.139-0.256-0.3-0.336-0.483
					c-0.078-0.183-0.119-0.384-0.119-0.602c0-0.208,0.041-0.406,0.119-0.595c0.08-0.188,0.191-0.352,0.336-0.49
					c0.143-0.139,0.309-0.25,0.498-0.335c0.188-0.083,0.385-0.125,0.594-0.125c0.207,0,0.406,0.042,0.594,0.125
					c0.188,0.085,0.354,0.196,0.498,0.335c0.143,0.139,0.254,0.303,0.334,0.49c0.08,0.188,0.119,0.387,0.119,0.595
					C11.545,15.155,11.506,15.356,11.426,15.539z"/>
			</g>
		</g>
	</g>
</g>
<g id="Layer_1">
</g>
</svg>
