<?xml version="1.0" encoding="utf-8"?>
<!-- Generator: Adobe Illustrator 16.0.0, SVG Export Plug-In . SVG Version: 6.00 Build 0)  -->
<!DOCTYPE svg PUBLIC "-//W3C//DTD SVG 1.1//EN" "http://www.w3.org/Graphics/SVG/1.1/DTD/svg11.dtd">
<svg version="1.1" id="Layer_1" xmlns="http://www.w3.org/2000/svg" xmlns:xlink="http://www.w3.org/1999/xlink" x="0px" y="0px"
	 width="20px" height="20px" viewBox="0 0 20 20" enable-background="new 0 0 20 20" xml:space="preserve">
<g id="x-grey">
	<g>
		<rect id="le_wrappier_100_" fill="none" width="20" height="20"/>
		<path id="plus-sign_8_" fill="#AAAAAA" d="M15.374,1.798L10,7.172L4.626,1.798C4.47,1.643,4.216,1.643,4.059,1.799L1.797,4.062
			C1.642,4.216,1.642,4.471,1.798,4.626L7.172,10l-5.375,5.375c-0.155,0.154-0.155,0.409,0.001,0.564l2.264,2.264
			c0.154,0.154,0.409,0.154,0.563,0L10,12.828l5.375,5.375c0.155,0.154,0.409,0.154,0.562,0l2.263-2.262
			c0.157-0.157,0.157-0.412,0.003-0.566L12.828,10l5.374-5.374c0.155-0.155,0.155-0.41,0.001-0.563l-2.264-2.265
			C15.784,1.643,15.53,1.643,15.374,1.798z"/>
	</g>
</g>
<g id="Layer_1_1_">
</g>
</svg>
