<svg xmlns="http://www.w3.org/2000/svg" width="256" height="256" viewBox="0 0 256 256"><g><linearGradient id="a" gradientUnits="userSpaceOnUse" x1="127.999" x2="127.999" y2="256"><stop offset="0" stop-color="#72B9F7"/><stop offset="1" stop-color="#336B9A"/></linearGradient><path d="M0 254c0 1.1.9 2 2 2h252c1.1 0 2-.9 2-2V2c0-1.1-.9-2-2-2H2C.9 0 0 .9 0 2v252z" fill="url(#a)"/><linearGradient id="b" gradientUnits="userSpaceOnUse" x1="127.999" x2="127.999" y2="256"><stop offset="0" stop-color="#9DABB4"/><stop offset=".265" stop-color="#99A7B0"/><stop offset=".54" stop-color="#8F9BA3"/><stop offset=".818" stop-color="#7D878F"/><stop offset="1" stop-color="#6D767D"/></linearGradient><path d="M254 .25c.965 0 1.75.785 1.75 1.75v252c0 .965-.785 1.75-1.75 1.75H2c-.965 0-1.75-.785-1.75-1.75V2C.25 1.035 1.035.25 2 .25h252m0-.25H2C.9 0 0 .9 0 2v252c0 1.1.9 2 2 2h252c1.1 0 2-.9 2-2V2c0-1.1-.9-2-2-2z" fill="url(#b)"/><path d="M10.457 246.54c-.55 0-1-.45-1-1V79.585c0-.55.45-1 1-1H245.54c.55 0 1 .45 1 1V245.54c0 .55-.45 1-1 1H10.456z" fill="#fff"/><path d="M44.79 108.625c0 .275-.226.5-.5.5H18.84c-.275 0-.5-.225-.5-.5V87.54c0-.274.225-.5.5-.5h25.45c.274 0 .5.226.5.5v21.085z" fill="#BBBDBF"/><g opacity=".25"><linearGradient id="c" gradientUnits="userSpaceOnUse" x1="31.564" y1="87.041" x2="31.564" y2="109.125"><stop offset="0" stop-color="#9DABB4"/><stop offset=".265" stop-color="#99A7B0"/><stop offset=".54" stop-color="#8F9BA3"/><stop offset=".818" stop-color="#7D878F"/><stop offset="1" stop-color="#6D767D"/></linearGradient><path d="M44.29 87.29c.137 0 .25.113.25.25v21.085c0 .138-.113.25-.25.25H18.84c-.138 0-.25-.112-.25-.25V87.54c0-.137.112-.25.25-.25h25.45m0-.25H18.84c-.275 0-.5.226-.5.5v21.085c0 .275.225.5.5.5h25.45c.274 0 .5-.225.5-.5V87.54c0-.274-.226-.5-.5-.5z" fill="url(#c)"/></g><path d="M83.023 108.625c0 .275-.225.5-.5.5h-25.45c-.274 0-.5-.225-.5-.5V87.54c0-.274.226-.5.5-.5h25.45c.275 0 .5.226.5.5v21.085z" fill="#BBBDBF"/><g opacity=".25"><linearGradient id="d" gradientUnits="userSpaceOnUse" x1="69.799" y1="87.041" x2="69.799" y2="109.125"><stop offset="0" stop-color="#9DABB4"/><stop offset=".265" stop-color="#99A7B0"/><stop offset=".54" stop-color="#8F9BA3"/><stop offset=".818" stop-color="#7D878F"/><stop offset="1" stop-color="#6D767D"/></linearGradient><path d="M82.523 87.29c.138 0 .25.113.25.25v21.085c0 .138-.112.25-.25.25h-25.45c-.137 0-.25-.112-.25-.25V87.54c0-.137.113-.25.25-.25h25.45m0-.25h-25.45c-.274 0-.5.226-.5.5v21.085c0 .275.226.5.5.5h25.45c.275 0 .5-.225.5-.5V87.54c0-.274-.225-.5-.5-.5z" fill="url(#d)"/></g><path d="M121.256 108.625c0 .275-.225.5-.5.5h-25.45c-.274 0-.5-.225-.5-.5V87.54c0-.274.226-.5.5-.5h25.45c.275 0 .5.226.5.5v21.085z" fill="#BBBDBF"/><g opacity=".25"><linearGradient id="e" gradientUnits="userSpaceOnUse" x1="108.031" y1="87.041" x2="108.031" y2="109.125"><stop offset="0" stop-color="#9DABB4"/><stop offset=".265" stop-color="#99A7B0"/><stop offset=".54" stop-color="#8F9BA3"/><stop offset=".818" stop-color="#7D878F"/><stop offset="1" stop-color="#6D767D"/></linearGradient><path d="M120.756 87.29c.138 0 .25.113.25.25v21.085c0 .138-.112.25-.25.25h-25.45c-.137 0-.25-.112-.25-.25V87.54c0-.137.113-.25.25-.25h25.45m0-.25h-25.45c-.274 0-.5.226-.5.5v21.085c0 .275.226.5.5.5h25.45c.275 0 .5-.225.5-.5V87.54c0-.274-.225-.5-.5-.5z" fill="url(#e)"/></g><path d="M159.475 108.625c0 .275-.225.5-.5.5h-25.45c-.276 0-.5-.225-.5-.5V87.54c0-.274.224-.5.5-.5h25.45c.275 0 .5.226.5.5v21.085z" fill="#BBBDBF"/><g opacity=".25"><linearGradient id="f" gradientUnits="userSpaceOnUse" x1="146.249" y1="87.041" x2="146.249" y2="109.125"><stop offset="0" stop-color="#9DABB4"/><stop offset=".265" stop-color="#99A7B0"/><stop offset=".54" stop-color="#8F9BA3"/><stop offset=".818" stop-color="#7D878F"/><stop offset="1" stop-color="#6D767D"/></linearGradient><path d="M158.975 87.29c.138 0 .25.113.25.25v21.085c0 .138-.112.25-.25.25h-25.45c-.14 0-.25-.112-.25-.25V87.54c0-.137.11-.25.25-.25h25.45m0-.25h-25.45c-.276 0-.5.226-.5.5v21.085c0 .275.224.5.5.5h25.45c.275 0 .5-.225.5-.5V87.54c0-.274-.225-.5-.5-.5z" fill="url(#f)"/></g><path d="M197.707 108.625c0 .275-.225.5-.5.5H171.75c-.275 0-.5-.225-.5-.5V87.54c0-.274.225-.5.5-.5h25.457c.275 0 .5.226.5.5v21.085z" fill="#BBBDBF"/><g opacity=".25"><linearGradient id="g" gradientUnits="userSpaceOnUse" x1="184.478" y1="87.041" x2="184.478" y2="109.125"><stop offset="0" stop-color="#9DABB4"/><stop offset=".265" stop-color="#99A7B0"/><stop offset=".54" stop-color="#8F9BA3"/><stop offset=".818" stop-color="#7D878F"/><stop offset="1" stop-color="#6D767D"/></linearGradient><path d="M197.207 87.29c.138 0 .25.113.25.25v21.085c0 .138-.112.25-.25.25H171.75c-.138 0-.25-.112-.25-.25V87.54c0-.137.112-.25.25-.25h25.457m0-.25H171.75c-.275 0-.5.226-.5.5v21.085c0 .275.225.5.5.5h25.457c.275 0 .5-.225.5-.5V87.54c0-.274-.225-.5-.5-.5z" fill="url(#g)"/></g><path d="M235.94 108.625c0 .275-.226.5-.5.5H209.98c-.275 0-.5-.225-.5-.5V87.54c0-.274.225-.5.5-.5h25.457c.274 0 .5.226.5.5v21.085z" fill="#BBBDBF"/><g opacity=".25"><linearGradient id="h" gradientUnits="userSpaceOnUse" x1="222.711" y1="87.041" x2="222.711" y2="109.125"><stop offset="0" stop-color="#9DABB4"/><stop offset=".265" stop-color="#99A7B0"/><stop offset=".54" stop-color="#8F9BA3"/><stop offset=".818" stop-color="#7D878F"/><stop offset="1" stop-color="#6D767D"/></linearGradient><path d="M235.44 87.29c.137 0 .25.113.25.25v21.085c0 .138-.113.25-.25.25H209.98c-.138 0-.25-.112-.25-.25V87.54c0-.137.112-.25.25-.25h25.457m0-.25H209.98c-.275 0-.5.226-.5.5v21.085c0 .275.225.5.5.5h25.457c.274 0 .5-.225.5-.5V87.54c0-.274-.225-.5-.5-.5z" fill="url(#h)"/></g><path d="M44.79 140.158c0 .275-.226.5-.5.5H18.84c-.275 0-.5-.225-.5-.5v-21.083c0-.275.225-.5.5-.5h25.45c.274 0 .5.225.5.5v21.083z" fill="#BBBDBF"/><g opacity=".25"><linearGradient id="i" gradientUnits="userSpaceOnUse" x1="31.564" y1="118.575" x2="31.564" y2="140.659"><stop offset="0" stop-color="#9DABB4"/><stop offset=".265" stop-color="#99A7B0"/><stop offset=".54" stop-color="#8F9BA3"/><stop offset=".818" stop-color="#7D878F"/><stop offset="1" stop-color="#6D767D"/></linearGradient><path d="M44.29 118.825c.137 0 .25.112.25.25v21.083c0 .138-.113.25-.25.25H18.84c-.138 0-.25-.112-.25-.25v-21.083c0-.138.112-.25.25-.25h25.45m0-.25H18.84c-.275 0-.5.225-.5.5v21.083c0 .275.225.5.5.5h25.45c.274 0 .5-.225.5-.5v-21.083c0-.275-.226-.5-.5-.5z" fill="url(#i)"/></g><path d="M83.023 140.158c0 .275-.225.5-.5.5h-25.45c-.274 0-.5-.225-.5-.5v-21.083c0-.275.226-.5.5-.5h25.45c.275 0 .5.225.5.5v21.083z" fill="#BBBDBF"/><g opacity=".25"><linearGradient id="j" gradientUnits="userSpaceOnUse" x1="69.799" y1="118.575" x2="69.799" y2="140.659"><stop offset="0" stop-color="#9DABB4"/><stop offset=".265" stop-color="#99A7B0"/><stop offset=".54" stop-color="#8F9BA3"/><stop offset=".818" stop-color="#7D878F"/><stop offset="1" stop-color="#6D767D"/></linearGradient><path d="M82.523 118.825c.138 0 .25.112.25.25v21.083c0 .138-.112.25-.25.25h-25.45c-.137 0-.25-.112-.25-.25v-21.083c0-.138.113-.25.25-.25h25.45m0-.25h-25.45c-.274 0-.5.225-.5.5v21.083c0 .275.226.5.5.5h25.45c.275 0 .5-.225.5-.5v-21.083c0-.275-.225-.5-.5-.5z" fill="url(#j)"/></g><path d="M121.256 140.158c0 .275-.225.5-.5.5h-25.45c-.274 0-.5-.225-.5-.5v-21.083c0-.275.226-.5.5-.5h25.45c.275 0 .5.225.5.5v21.083z" fill="#BBBDBF"/><g opacity=".25"><linearGradient id="k" gradientUnits="userSpaceOnUse" x1="108.031" y1="118.575" x2="108.031" y2="140.659"><stop offset="0" stop-color="#9DABB4"/><stop offset=".265" stop-color="#99A7B0"/><stop offset=".54" stop-color="#8F9BA3"/><stop offset=".818" stop-color="#7D878F"/><stop offset="1" stop-color="#6D767D"/></linearGradient><path d="M120.756 118.825c.138 0 .25.112.25.25v21.083c0 .138-.112.25-.25.25h-25.45c-.137 0-.25-.112-.25-.25v-21.083c0-.138.113-.25.25-.25h25.45m0-.25h-25.45c-.274 0-.5.225-.5.5v21.083c0 .275.226.5.5.5h25.45c.275 0 .5-.225.5-.5v-21.083c0-.275-.225-.5-.5-.5z" fill="url(#k)"/></g><path d="M159.475 140.158c0 .275-.225.5-.5.5h-25.45c-.276 0-.5-.225-.5-.5v-21.083c0-.275.224-.5.5-.5h25.45c.275 0 .5.225.5.5v21.083z" fill="#BBBDBF"/><g opacity=".25"><linearGradient id="l" gradientUnits="userSpaceOnUse" x1="146.249" y1="118.575" x2="146.249" y2="140.659"><stop offset="0" stop-color="#9DABB4"/><stop offset=".265" stop-color="#99A7B0"/><stop offset=".54" stop-color="#8F9BA3"/><stop offset=".818" stop-color="#7D878F"/><stop offset="1" stop-color="#6D767D"/></linearGradient><path d="M158.975 118.825c.138 0 .25.112.25.25v21.083c0 .138-.112.25-.25.25h-25.45c-.14 0-.25-.112-.25-.25v-21.083c0-.138.11-.25.25-.25h25.45m0-.25h-25.45c-.276 0-.5.225-.5.5v21.083c0 .275.224.5.5.5h25.45c.275 0 .5-.225.5-.5v-21.083c0-.275-.225-.5-.5-.5z" fill="url(#l)"/></g><path d="M197.707 140.158c0 .275-.225.5-.5.5H171.75c-.275 0-.5-.225-.5-.5v-21.083c0-.275.225-.5.5-.5h25.457c.275 0 .5.225.5.5v21.083z" fill="#BBBDBF"/><g opacity=".25"><linearGradient id="m" gradientUnits="userSpaceOnUse" x1="184.478" y1="118.575" x2="184.478" y2="140.659"><stop offset="0" stop-color="#9DABB4"/><stop offset=".265" stop-color="#99A7B0"/><stop offset=".54" stop-color="#8F9BA3"/><stop offset=".818" stop-color="#7D878F"/><stop offset="1" stop-color="#6D767D"/></linearGradient><path d="M197.207 118.825c.138 0 .25.112.25.25v21.083c0 .138-.112.25-.25.25H171.75c-.138 0-.25-.112-.25-.25v-21.083c0-.138.112-.25.25-.25h25.457m0-.25H171.75c-.275 0-.5.225-.5.5v21.083c0 .275.225.5.5.5h25.457c.275 0 .5-.225.5-.5v-21.083c0-.275-.225-.5-.5-.5z" fill="url(#m)"/></g><path d="M235.94 140.158c0 .275-.226.5-.5.5H209.98c-.275 0-.5-.225-.5-.5v-21.083c0-.275.225-.5.5-.5h25.457c.274 0 .5.225.5.5v21.083z" fill="#BBBDBF"/><g opacity=".25"><linearGradient id="n" gradientUnits="userSpaceOnUse" x1="222.711" y1="118.575" x2="222.711" y2="140.659"><stop offset="0" stop-color="#9DABB4"/><stop offset=".265" stop-color="#99A7B0"/><stop offset=".54" stop-color="#8F9BA3"/><stop offset=".818" stop-color="#7D878F"/><stop offset="1" stop-color="#6D767D"/></linearGradient><path d="M235.44 118.825c.137 0 .25.112.25.25v21.083c0 .138-.113.25-.25.25H209.98c-.138 0-.25-.112-.25-.25v-21.083c0-.138.112-.25.25-.25h25.457m0-.25H209.98c-.275 0-.5.225-.5.5v21.083c0 .275.225.5.5.5h25.457c.274 0 .5-.225.5-.5v-21.083c0-.275-.225-.5-.5-.5z" fill="url(#n)"/></g><path d="M44.79 172.266c0 .275-.226.5-.5.5H18.84c-.275 0-.5-.225-.5-.5v-21.082c0-.275.225-.5.5-.5h25.45c.274 0 .5.225.5.5v21.082z" fill="#BBBDBF"/><g opacity=".25"><linearGradient id="o" gradientUnits="userSpaceOnUse" x1="31.564" y1="150.684" x2="31.564" y2="172.766"><stop offset="0" stop-color="#9DABB4"/><stop offset=".265" stop-color="#99A7B0"/><stop offset=".54" stop-color="#8F9BA3"/><stop offset=".818" stop-color="#7D878F"/><stop offset="1" stop-color="#6D767D"/></linearGradient><path d="M44.29 150.934c.137 0 .25.112.25.25v21.082c0 .138-.113.25-.25.25H18.84c-.138 0-.25-.112-.25-.25v-21.082c0-.138.112-.25.25-.25h25.45m0-.25H18.84c-.275 0-.5.225-.5.5v21.082c0 .275.225.5.5.5h25.45c.274 0 .5-.225.5-.5v-21.082c0-.276-.226-.5-.5-.5z" fill="url(#o)"/></g><path d="M87.656 176.134c0 .274-.225.5-.5.5H52.414c-.275 0-.5-.226-.5-.5V147.29c0-.274.225-.5.5-.5h34.742c.275 0 .5.226.5.5v28.844z" fill="#448CCA"/><g opacity=".25"><linearGradient id="p" gradientUnits="userSpaceOnUse" x1="69.785" y1="146.791" x2="69.785" y2="176.634"><stop offset="0" stop-color="#F1F8FF"/><stop offset=".9" stop-color="#CAE0EF"/></linearGradient><path d="M87.156 147.04c.138 0 .25.113.25.25v28.844c0 .136-.114.25-.25.25H52.414c-.136 0-.25-.114-.25-.25V147.29c0-.137.112-.25.25-.25h34.742m0-.25H52.414c-.275 0-.5.226-.5.5v28.844c0 .274.225.5.5.5h34.742c.275 0 .5-.226.5-.5V147.29c0-.274-.225-.5-.5-.5z" fill="url(#p)"/></g><path d="M121.256 172.266c0 .275-.225.5-.5.5h-25.45c-.274 0-.5-.225-.5-.5v-21.082c0-.275.226-.5.5-.5h25.45c.275 0 .5.225.5.5v21.082z" fill="#BBBDBF"/><g opacity=".25"><linearGradient id="q" gradientUnits="userSpaceOnUse" x1="108.031" y1="150.684" x2="108.031" y2="172.766"><stop offset="0" stop-color="#9DABB4"/><stop offset=".265" stop-color="#99A7B0"/><stop offset=".54" stop-color="#8F9BA3"/><stop offset=".818" stop-color="#7D878F"/><stop offset="1" stop-color="#6D767D"/></linearGradient><path d="M120.756 150.934c.138 0 .25.112.25.25v21.082c0 .138-.112.25-.25.25h-25.45c-.137 0-.25-.112-.25-.25v-21.082c0-.138.113-.25.25-.25h25.45m0-.25h-25.45c-.274 0-.5.225-.5.5v21.082c0 .275.226.5.5.5h25.45c.275 0 .5-.225.5-.5v-21.082c0-.276-.225-.5-.5-.5z" fill="url(#q)"/></g><path d="M159.475 172.266c0 .275-.225.5-.5.5h-25.45c-.276 0-.5-.225-.5-.5v-21.082c0-.275.224-.5.5-.5h25.45c.275 0 .5.225.5.5v21.082z" fill="#BBBDBF"/><g opacity=".25"><linearGradient id="r" gradientUnits="userSpaceOnUse" x1="146.249" y1="150.684" x2="146.249" y2="172.766"><stop offset="0" stop-color="#9DABB4"/><stop offset=".265" stop-color="#99A7B0"/><stop offset=".54" stop-color="#8F9BA3"/><stop offset=".818" stop-color="#7D878F"/><stop offset="1" stop-color="#6D767D"/></linearGradient><path d="M158.975 150.934c.138 0 .25.112.25.25v21.082c0 .138-.112.25-.25.25h-25.45c-.14 0-.25-.112-.25-.25v-21.082c0-.138.11-.25.25-.25h25.45m0-.25h-25.45c-.276 0-.5.225-.5.5v21.082c0 .275.224.5.5.5h25.45c.275 0 .5-.225.5-.5v-21.082c0-.276-.225-.5-.5-.5z" fill="url(#r)"/></g><path d="M197.707 172.266c0 .275-.225.5-.5.5H171.75c-.275 0-.5-.225-.5-.5v-21.082c0-.275.225-.5.5-.5h25.457c.275 0 .5.225.5.5v21.082z" fill="#BBBDBF"/><g opacity=".25"><linearGradient id="s" gradientUnits="userSpaceOnUse" x1="184.478" y1="150.684" x2="184.478" y2="172.766"><stop offset="0" stop-color="#9DABB4"/><stop offset=".265" stop-color="#99A7B0"/><stop offset=".54" stop-color="#8F9BA3"/><stop offset=".818" stop-color="#7D878F"/><stop offset="1" stop-color="#6D767D"/></linearGradient><path d="M197.207 150.934c.138 0 .25.112.25.25v21.082c0 .138-.112.25-.25.25H171.75c-.138 0-.25-.112-.25-.25v-21.082c0-.138.112-.25.25-.25h25.457m0-.25H171.75c-.275 0-.5.225-.5.5v21.082c0 .275.225.5.5.5h25.457c.275 0 .5-.225.5-.5v-21.082c0-.276-.225-.5-.5-.5z" fill="url(#s)"/></g><path d="M235.94 172.266c0 .275-.226.5-.5.5H209.98c-.275 0-.5-.225-.5-.5v-21.082c0-.275.225-.5.5-.5h25.457c.274 0 .5.225.5.5v21.082z" fill="#BBBDBF"/><g opacity=".25"><linearGradient id="t" gradientUnits="userSpaceOnUse" x1="222.711" y1="150.684" x2="222.711" y2="172.766"><stop offset="0" stop-color="#9DABB4"/><stop offset=".265" stop-color="#99A7B0"/><stop offset=".54" stop-color="#8F9BA3"/><stop offset=".818" stop-color="#7D878F"/><stop offset="1" stop-color="#6D767D"/></linearGradient><path d="M235.44 150.934c.137 0 .25.112.25.25v21.082c0 .138-.113.25-.25.25H209.98c-.138 0-.25-.112-.25-.25v-21.082c0-.138.112-.25.25-.25h25.457m0-.25H209.98c-.275 0-.5.225-.5.5v21.082c0 .275.225.5.5.5h25.457c.274 0 .5-.225.5-.5v-21.082c0-.276-.225-.5-.5-.5z" fill="url(#t)"/></g><path d="M44.79 204.075c0 .274-.226.5-.5.5H18.84c-.275 0-.5-.226-.5-.5V182.99c0-.273.225-.5.5-.5h25.45c.274 0 .5.227.5.5v21.085z" fill="#BBBDBF"/><g opacity=".25"><linearGradient id="u" gradientUnits="userSpaceOnUse" x1="31.564" y1="182.491" x2="31.564" y2="204.575"><stop offset="0" stop-color="#9DABB4"/><stop offset=".265" stop-color="#99A7B0"/><stop offset=".54" stop-color="#8F9BA3"/><stop offset=".818" stop-color="#7D878F"/><stop offset="1" stop-color="#6D767D"/></linearGradient><path d="M44.29 182.74c.135 0 .25.115.25.25v21.085c0 .136-.115.25-.25.25H18.84c-.136 0-.25-.114-.25-.25V182.99c0-.135.114-.25.25-.25h25.45m0-.25H18.84c-.275 0-.5.227-.5.5v21.085c0 .274.225.5.5.5h25.45c.274 0 .5-.226.5-.5V182.99c0-.273-.226-.5-.5-.5z" fill="url(#u)"/></g><path d="M83.023 204.075c0 .274-.225.5-.5.5h-25.45c-.274 0-.5-.226-.5-.5V182.99c0-.273.226-.5.5-.5h25.45c.275 0 .5.227.5.5v21.085z" fill="#BBBDBF"/><g opacity=".25"><linearGradient id="v" gradientUnits="userSpaceOnUse" x1="69.799" y1="182.491" x2="69.799" y2="204.575"><stop offset="0" stop-color="#9DABB4"/><stop offset=".265" stop-color="#99A7B0"/><stop offset=".54" stop-color="#8F9BA3"/><stop offset=".818" stop-color="#7D878F"/><stop offset="1" stop-color="#6D767D"/></linearGradient><path d="M82.523 182.74c.136 0 .25.115.25.25v21.085c0 .136-.114.25-.25.25h-25.45c-.135 0-.25-.114-.25-.25V182.99c0-.135.115-.25.25-.25h25.45m0-.25h-25.45c-.274 0-.5.227-.5.5v21.085c0 .274.226.5.5.5h25.45c.275 0 .5-.226.5-.5V182.99c0-.273-.225-.5-.5-.5z" fill="url(#v)"/></g><path d="M121.256 204.075c0 .274-.225.5-.5.5h-25.45c-.274 0-.5-.226-.5-.5V182.99c0-.273.226-.5.5-.5h25.45c.275 0 .5.227.5.5v21.085z" fill="#BBBDBF"/><g opacity=".25"><linearGradient id="w" gradientUnits="userSpaceOnUse" x1="108.031" y1="182.491" x2="108.031" y2="204.575"><stop offset="0" stop-color="#9DABB4"/><stop offset=".265" stop-color="#99A7B0"/><stop offset=".54" stop-color="#8F9BA3"/><stop offset=".818" stop-color="#7D878F"/><stop offset="1" stop-color="#6D767D"/></linearGradient><path d="M120.756 182.74c.136 0 .25.115.25.25v21.085c0 .136-.114.25-.25.25h-25.45c-.135 0-.25-.114-.25-.25V182.99c0-.135.115-.25.25-.25h25.45m0-.25h-25.45c-.274 0-.5.227-.5.5v21.085c0 .274.226.5.5.5h25.45c.275 0 .5-.226.5-.5V182.99c0-.273-.225-.5-.5-.5z" fill="url(#w)"/></g><path d="M159.475 204.075c0 .274-.225.5-.5.5h-25.45c-.276 0-.5-.226-.5-.5V182.99c0-.273.224-.5.5-.5h25.45c.275 0 .5.227.5.5v21.085z" fill="#BBBDBF"/><g opacity=".25"><linearGradient id="x" gradientUnits="userSpaceOnUse" x1="146.249" y1="182.491" x2="146.249" y2="204.575"><stop offset="0" stop-color="#9DABB4"/><stop offset=".265" stop-color="#99A7B0"/><stop offset=".54" stop-color="#8F9BA3"/><stop offset=".818" stop-color="#7D878F"/><stop offset="1" stop-color="#6D767D"/></linearGradient><path d="M158.975 182.74c.138 0 .25.113.25.25v21.085c0 .138-.112.25-.25.25h-25.45c-.14 0-.25-.112-.25-.25V182.99c0-.137.11-.25.25-.25h25.45m0-.25h-25.45c-.276 0-.5.227-.5.5v21.085c0 .274.224.5.5.5h25.45c.275 0 .5-.226.5-.5V182.99c0-.273-.225-.5-.5-.5z" fill="url(#x)"/></g><path d="M197.707 204.075c0 .274-.225.5-.5.5H171.75c-.275 0-.5-.226-.5-.5V182.99c0-.273.225-.5.5-.5h25.457c.275 0 .5.227.5.5v21.085z" fill="#BBBDBF"/><g opacity=".25"><linearGradient id="y" gradientUnits="userSpaceOnUse" x1="184.478" y1="182.491" x2="184.478" y2="204.575"><stop offset="0" stop-color="#9DABB4"/><stop offset=".265" stop-color="#99A7B0"/><stop offset=".54" stop-color="#8F9BA3"/><stop offset=".818" stop-color="#7D878F"/><stop offset="1" stop-color="#6D767D"/></linearGradient><path d="M197.207 182.74c.138 0 .25.113.25.25v21.085c0 .138-.112.25-.25.25H171.75c-.138 0-.25-.112-.25-.25V182.99c0-.137.112-.25.25-.25h25.457m0-.25H171.75c-.275 0-.5.227-.5.5v21.085c0 .274.225.5.5.5h25.457c.275 0 .5-.226.5-.5V182.99c0-.273-.225-.5-.5-.5z" fill="url(#y)"/></g><path d="M235.94 204.075c0 .274-.226.5-.5.5H209.98c-.275 0-.5-.226-.5-.5V182.99c0-.273.225-.5.5-.5h25.457c.274 0 .5.227.5.5v21.085z" fill="#BBBDBF"/><g opacity=".25"><linearGradient id="z" gradientUnits="userSpaceOnUse" x1="222.711" y1="182.491" x2="222.711" y2="204.575"><stop offset="0" stop-color="#9DABB4"/><stop offset=".265" stop-color="#99A7B0"/><stop offset=".54" stop-color="#8F9BA3"/><stop offset=".818" stop-color="#7D878F"/><stop offset="1" stop-color="#6D767D"/></linearGradient><path d="M235.44 182.74c.137 0 .25.113.25.25v21.085c0 .138-.113.25-.25.25H209.98c-.138 0-.25-.112-.25-.25V182.99c0-.137.112-.25.25-.25h25.457m0-.25H209.98c-.275 0-.5.227-.5.5v21.085c0 .274.225.5.5.5h25.457c.274 0 .5-.226.5-.5V182.99c0-.273-.225-.5-.5-.5z" fill="url(#z)"/></g><path d="M44.79 235.908c0 .275-.226.5-.5.5H18.84c-.275 0-.5-.225-.5-.5v-21.092c0-.275.225-.5.5-.5h25.45c.274 0 .5.225.5.5v21.092z" fill="#BBBDBF"/><g opacity=".25"><linearGradient id="A" gradientUnits="userSpaceOnUse" x1="31.564" y1="214.316" x2="31.564" y2="236.408"><stop offset="0" stop-color="#9DABB4"/><stop offset=".265" stop-color="#99A7B0"/><stop offset=".54" stop-color="#8F9BA3"/><stop offset=".818" stop-color="#7D878F"/><stop offset="1" stop-color="#6D767D"/></linearGradient><path d="M44.29 214.566c.137 0 .25.112.25.25v21.092c0 .138-.113.25-.25.25H18.84c-.138 0-.25-.112-.25-.25v-21.092c0-.138.112-.25.25-.25h25.45m0-.25H18.84c-.275 0-.5.225-.5.5v21.092c0 .275.225.5.5.5h25.45c.274 0 .5-.225.5-.5v-21.092c0-.275-.226-.5-.5-.5z" fill="url(#A)"/></g><path d="M83.023 235.908c0 .275-.225.5-.5.5h-25.45c-.274 0-.5-.225-.5-.5v-21.092c0-.275.226-.5.5-.5h25.45c.275 0 .5.225.5.5v21.092z" fill="#BBBDBF"/><g opacity=".25"><linearGradient id="B" gradientUnits="userSpaceOnUse" x1="69.799" y1="214.316" x2="69.799" y2="236.408"><stop offset="0" stop-color="#9DABB4"/><stop offset=".265" stop-color="#99A7B0"/><stop offset=".54" stop-color="#8F9BA3"/><stop offset=".818" stop-color="#7D878F"/><stop offset="1" stop-color="#6D767D"/></linearGradient><path d="M82.523 214.566c.138 0 .25.112.25.25v21.092c0 .138-.112.25-.25.25h-25.45c-.137 0-.25-.112-.25-.25v-21.092c0-.138.113-.25.25-.25h25.45m0-.25h-25.45c-.274 0-.5.225-.5.5v21.092c0 .275.226.5.5.5h25.45c.275 0 .5-.225.5-.5v-21.092c0-.275-.225-.5-.5-.5z" fill="url(#B)"/></g><path d="M121.256 235.908c0 .275-.225.5-.5.5h-25.45c-.274 0-.5-.225-.5-.5v-21.092c0-.275.226-.5.5-.5h25.45c.275 0 .5.225.5.5v21.092z" fill="#BBBDBF"/><g opacity=".25"><linearGradient id="C" gradientUnits="userSpaceOnUse" x1="108.031" y1="214.316" x2="108.031" y2="236.408"><stop offset="0" stop-color="#9DABB4"/><stop offset=".265" stop-color="#99A7B0"/><stop offset=".54" stop-color="#8F9BA3"/><stop offset=".818" stop-color="#7D878F"/><stop offset="1" stop-color="#6D767D"/></linearGradient><path d="M120.756 214.566c.138 0 .25.112.25.25v21.092c0 .138-.112.25-.25.25h-25.45c-.137 0-.25-.112-.25-.25v-21.092c0-.138.113-.25.25-.25h25.45m0-.25h-25.45c-.274 0-.5.225-.5.5v21.092c0 .275.226.5.5.5h25.45c.275 0 .5-.225.5-.5v-21.092c0-.275-.225-.5-.5-.5z" fill="url(#C)"/></g><path d="M159.475 235.908c0 .275-.225.5-.5.5h-25.45c-.276 0-.5-.225-.5-.5v-21.092c0-.275.224-.5.5-.5h25.45c.275 0 .5.225.5.5v21.092z" fill="#BBBDBF"/><g opacity=".25"><linearGradient id="D" gradientUnits="userSpaceOnUse" x1="146.249" y1="214.316" x2="146.249" y2="236.408"><stop offset="0" stop-color="#9DABB4"/><stop offset=".265" stop-color="#99A7B0"/><stop offset=".54" stop-color="#8F9BA3"/><stop offset=".818" stop-color="#7D878F"/><stop offset="1" stop-color="#6D767D"/></linearGradient><path d="M158.975 214.566c.138 0 .25.112.25.25v21.092c0 .138-.112.25-.25.25h-25.45c-.14 0-.25-.112-.25-.25v-21.092c0-.138.11-.25.25-.25h25.45m0-.25h-25.45c-.276 0-.5.225-.5.5v21.092c0 .275.224.5.5.5h25.45c.275 0 .5-.225.5-.5v-21.092c0-.275-.225-.5-.5-.5z" fill="url(#D)"/></g><path d="M197.707 235.908c0 .275-.225.5-.5.5H171.75c-.275 0-.5-.225-.5-.5v-21.092c0-.275.225-.5.5-.5h25.457c.275 0 .5.225.5.5v21.092z" fill="#BBBDBF"/><g opacity=".25"><linearGradient id="E" gradientUnits="userSpaceOnUse" x1="184.478" y1="214.316" x2="184.478" y2="236.408"><stop offset="0" stop-color="#9DABB4"/><stop offset=".265" stop-color="#99A7B0"/><stop offset=".54" stop-color="#8F9BA3"/><stop offset=".818" stop-color="#7D878F"/><stop offset="1" stop-color="#6D767D"/></linearGradient><path d="M197.207 214.566c.138 0 .25.112.25.25v21.092c0 .138-.112.25-.25.25H171.75c-.138 0-.25-.112-.25-.25v-21.092c0-.138.112-.25.25-.25h25.457m0-.25H171.75c-.275 0-.5.225-.5.5v21.092c0 .275.225.5.5.5h25.457c.275 0 .5-.225.5-.5v-21.092c0-.275-.225-.5-.5-.5z" fill="url(#E)"/></g><path d="M235.94 235.908c0 .275-.226.5-.5.5H209.98c-.275 0-.5-.225-.5-.5v-21.092c0-.275.225-.5.5-.5h25.457c.274 0 .5.225.5.5v21.092z" fill="#BBBDBF"/><g opacity=".25"><linearGradient id="F" gradientUnits="userSpaceOnUse" x1="222.711" y1="214.316" x2="222.711" y2="236.408"><stop offset="0" stop-color="#9DABB4"/><stop offset=".265" stop-color="#99A7B0"/><stop offset=".54" stop-color="#8F9BA3"/><stop offset=".818" stop-color="#7D878F"/><stop offset="1" stop-color="#6D767D"/></linearGradient><path d="M235.44 214.566c.137 0 .25.112.25.25v21.092c0 .138-.113.25-.25.25H209.98c-.138 0-.25-.112-.25-.25v-21.092c0-.138.112-.25.25-.25h25.457m0-.25H209.98c-.275 0-.5.225-.5.5v21.092c0 .275.225.5.5.5h25.457c.274 0 .5-.225.5-.5v-21.092c0-.275-.225-.5-.5-.5z" fill="url(#F)"/></g></g></svg>