<svg xmlns="http://www.w3.org/2000/svg" viewBox="-295 387 20 20" enable-background="new -295 387 20 20"><style type="text/css">.st0{fill:url(#SVGID_1_);} .st1{opacity:0.7;} .st2{fill:#FFFFFF;} .st3{fill:#45494D;} .st4{fill:#448CCA;} .st5{fill:url(#SVGID_2_);}</style><g id="caret-up"><g id="button-2px-corner_29_"><linearGradient id="SVGID_1_" gradientUnits="userSpaceOnUse" x1="-285" y1="409" x2="-285" y2="389" gradientTransform="matrix(1 0 0 -1 0 796)"><stop offset="0" stop-color="#fff"/><stop offset=".25" stop-color="#FBFCFD"/><stop offset=".509" stop-color="#EEF4F8"/><stop offset=".771" stop-color="#DAE7F0"/><stop offset=".8" stop-color="#D7E5EF"/></linearGradient><path class="st0" d="M-295 404c0 1.6 1.4 3 3 3h14c1.6 0 3-1.4 3-3v-14c0-1.6-1.4-3-3-3h-14c-1.6 0-3 1.4-3 3v14z"/><path class="st2" d="M-278 389c.5 0 1 .5 1 1v14c0 .5-.5 1-1 1h-14c-.5 0-1-.5-1-1v-14c0-.5.5-1 1-1h14m0-2h-14c-1.6 0-3 1.4-3 3v14c0 1.6 1.4 3 3 3h14c1.6 0 3-1.4 3-3v-14c0-1.6-1.4-3-3-3z"/><path class="st3" d="M-278 388c1.1 0 2 .9 2 2v14c0 1.1-.9 2-2 2h-14c-1.1 0-2-.9-2-2v-14c0-1.1.9-2 2-2h14m0-1h-14c-1.6 0-3 1.4-3 3v14c0 1.6 1.4 3 3 3h14c1.6 0 3-1.4 3-3v-14c0-1.6-1.4-3-3-3z"/></g><g id="chevron_4_"><path class="st4" d="M-285.3 397.8c.2-.2.4-.2.6 0l2.7 2.7c.2.2.4.2.6 0l1.6-1.6c.2-.2.2-.4 0-.6l-2.7-2.7-.6-.6-1.6-1.6c-.2-.2-.4-.2-.6 0l-1.6 1.6-.6.6-2.7 2.7c-.2.2-.2.4 0 .6l1.6 1.6c.2.2.4.2.6 0l2.7-2.7z"/><linearGradient id="SVGID_2_" gradientUnits="userSpaceOnUse" x1="-285" y1="393.197" x2="-285" y2="400.802" gradientTransform="matrix(-1 0 0 -1 -569.999 793.999)"><stop offset="0" stop-color="#fff"/><stop offset=".9" stop-color="#D7E5EF"/></linearGradient><path class="st5" d="M-288.2 400.7c-.1 0-.2 0-.3-.1l-1.6-1.6c-.2-.2-.2-.4 0-.6l2.7-2.7.6-.6 1.6-1.6c.1-.1.2-.1.3-.1.1 0 .2 0 .3.1l1.6 1.6.6.6 2.7 2.7c.2.2.2.4 0 .6l-1.6 1.6c-.1.1-.2.1-.3.1-.1 0-.2 0-.3-.1l-2.7-2.7c-.1-.1-.2-.1-.3-.1-.1 0-.2 0-.3.1l-2.7 2.7-.3.1m0 .1c.1 0 .3-.1.4-.2l2.7-2.7c.1-.1.1-.1.2-.1s.1 0 .2.1l2.7 2.7c.1.1.2.2.4.2.1 0 .3-.1.4-.2l1.6-1.6c.2-.2.2-.5 0-.7l-2.7-2.7-.6-.6-1.6-1.6c-.1-.1-.2-.2-.4-.2-.1 0-.3.1-.4.2l-1.6 1.6-.6.6-2.7 2.7c-.2.2-.2.5 0 .7l1.6 1.6c.1.1.2.2.4.2z"/></g></g></svg>