<svg xmlns="http://www.w3.org/2000/svg" width="256" height="256" viewBox="0 0 256 256"><g><g><path d="M253 3v250H3V3h250m1-3H2C.9 0 0 .9 0 2v252c0 1.1.9 2 2 2h252c1.1 0 2-.9 2-2V2c0-1.1-.9-2-2-2z" fill="#fff"/><linearGradient id="a" gradientUnits="userSpaceOnUse" x1="127.999" y1="25.263" x2="127.999" y2="239.088"><stop offset="0" stop-color="#fff"/><stop offset=".9" stop-color="#D7E5EF"/></linearGradient><path d="M3 254c-.55 0-1-.45-1-1V3c0-.55.45-1 1-1h250c.55 0 1 .45 1 1v250c0 .55-.45 1-1 1H3z" fill="url(#a)"/><path d="M254 1c.552 0 1 .45 1 1v252c0 .55-.448 1-1 1H2c-.55 0-1-.45-1-1V2c0-.55.45-1 1-1h252m0-1H2C.9 0 0 .9 0 2v252c0 1.1.9 2 2 2h252c1.1 0 2-.9 2-2V2c0-1.1-.9-2-2-2z" fill="#B6B6B7"/></g><g><path d="M131.577 117.328c-1.962 2-5.192 2-7.155 0L90.23 82.422c-1.96-2.018-5.193-2.018-7.153 0L62.655 103.25c-1.963 2.02-1.963 5.308 0 7.328l34.19 34.865c1.962 2 5.19 5.288 7.154 7.308l20.42 20.83c1.964 2 5.194 2 7.156 0L152 152.75c1.96-2.02 5.192-5.308 7.155-7.308l34.19-34.865c1.962-2.02 1.962-5.308 0-7.328L172.92 82.42c-1.96-2.017-5.19-2.017-7.15 0l-34.193 34.908z" fill="#4E8ABE"/><linearGradient id="b" gradientUnits="userSpaceOnUse" x1="60.186" y1="127.994" x2="195.814" y2="127.994"><stop offset="0" stop-color="#D7E5EF"/><stop offset=".9" stop-color="#fff"/></linearGradient><path d="M169.346 80.91c1.297 0 2.596.503 3.576 1.512l20.423 20.828c1.963 2.02 1.963 5.308 0 7.328l-34.19 34.865c-1.962 2-5.194 5.288-7.154 7.308l-20.422 20.83c-.98 1-2.28 1.5-3.577 1.5-1.297 0-2.596-.5-3.577-1.5L104 152.75c-1.963-2.02-5.192-5.308-7.155-7.308l-34.19-34.865c-1.962-2.02-1.962-5.308 0-7.328L83.08 82.42c.98-1.008 2.278-1.512 3.576-1.512s2.597.504 3.577 1.513l34.192 34.906c.98 1 2.28 1.5 3.578 1.5s2.596-.5 3.577-1.5L165.77 82.42c.98-1.006 2.278-1.51 3.576-1.51m0-1c-1.63 0-3.155.644-4.293 1.815l-34.19 34.902c-.758.773-1.775 1.2-2.862 1.2-1.086 0-2.103-.426-2.863-1.2L90.945 81.722c-1.136-1.168-2.66-1.813-4.292-1.813s-3.156.645-4.293 1.816L61.94 102.55c-2.34 2.408-2.34 6.32-.002 8.725l34.193 34.868.598.607c1.972 2.01 4.78 4.87 6.555 6.697l20.425 20.83c1.14 1.162 2.663 1.8 4.292 1.8s3.152-.638 4.29-1.8l20.424-20.827c1.663-1.714 4.235-4.334 6.176-6.31l.98-.998 34.188-34.865c2.34-2.408 2.34-6.32.003-8.725l-20.425-20.83c-1.135-1.168-2.66-1.813-4.29-1.813z" fill="url(#b)"/></g></g></svg>