<svg xmlns="http://www.w3.org/2000/svg" width="227" height="227" viewBox="0 0 227 227"><g><g><linearGradient id="a" gradientUnits="userSpaceOnUse" x1="113.499" y1="10.914" x2="113.499" y2="220.737"><stop offset="0" stop-color="#F2F6FB"/><stop offset=".43" stop-color="#F2F6FB"/><stop offset=".45" stop-color="#CDDFEC"/><stop offset=".729" stop-color="#C4D8E8"/><stop offset="1" stop-color="#C1D5E6"/></linearGradient><path fill="url(#a)" d="M0 0h227v227H0z"/><linearGradient id="b" gradientUnits="userSpaceOnUse" x1="113.499" x2="113.499" y2="227"><stop offset=".4" stop-color="#F2F6FB"/><stop offset=".54" stop-color="#D7E5EF"/></linearGradient><path d="M225 2v223H2V2h223m2-2H0v227h227V0z" fill="url(#b)"/><path d="M225 1c.552 0 1 .45 1 1v223c0 .55-.448 1-1 1H2c-.55 0-1-.45-1-1V2c0-.55.45-1 1-1h223m0-1H2C.9 0 0 .9 0 2v223c0 1.1.9 2 2 2h223c1.1 0 2-.9 2-2V2c0-1.1-.9-2-2-2z" fill="#9DABB4"/></g></g></svg>