<svg xmlns="http://www.w3.org/2000/svg" width="256.35" height="227" viewBox="0 0 256.35 227"><g><g><linearGradient id="a" gradientUnits="userSpaceOnUse" x1="113.499" y1="10.913" x2="113.499" y2="220.736"><stop offset="0" stop-color="#F5F5F5"/><stop offset=".43" stop-color="#F5F5F5"/><stop offset=".46" stop-color="#E4E4E4"/><stop offset="1" stop-color="#E4E4E4"/></linearGradient><path fill="url(#a)" d="M0 0h227v227H0z"/><linearGradient id="b" gradientUnits="userSpaceOnUse" x1="113.499" x2="113.499" y2="227"><stop offset=".3" stop-color="#fff"/><stop offset=".7" stop-color="#EFEFEF"/></linearGradient><path d="M225 2v223H2V2h223m2-2H0v227h227V0z" fill="url(#b)"/><path d="M225 1c.552 0 1 .45 1 1v223c0 .55-.448 1-1 1H2c-.55 0-1-.45-1-1V2c0-.55.45-1 1-1h223m0-1H2C.9 0 0 .9 0 2v223c0 1.1.9 2 2 2h223c1.1 0 2-.9 2-2V2c0-1.1-.9-2-2-2z" fill="#aaa"/></g><g><path d="M119.088 130.553s.357-3.84-3.98-8.02c-4.33-4.183-37.782-36.352-37.782-36.352-12.594-12.15-12.9-11.826-24.746.463l-9.828 10.172c-11.98 12.424-9.966 14.607.443 24.675l25.19 24.235c6.925 6.688 18.258 17.593 25.188 24.267l12.61 12.082c12.58 12.15 12.58 12.135 24.728-.443l12.12-12.56c6.687-6.912 17.61-18.227 24.3-25.138l79.63-82.48c12.133-12.56 12.117-12.576-.443-24.71l-8.688-8.312c-12.03-11.62-12.545-12.167-24.73.46l-79.628 82.463s-8.19 8.466-10.666 11.023c-2.474 2.562-3.718 8.177-3.718 8.177z" opacity=".2" fill="none" stroke="#F2F6FB" stroke-width=".7" stroke-linecap="round" stroke-linejoin="round" stroke-miterlimit="10"/><linearGradient id="c" gradientUnits="userSpaceOnUse" x1="244.303" y1="1307.189" x2="70.559" y2="1161.401" gradientTransform="matrix(.695 -.719 .721 .693 -850.371 -634.76)"><stop offset="0" stop-color="#66A2D7"/><stop offset="1" stop-color="#517FA5"/></linearGradient><path d="M119.088 130.553s.357-3.84-3.98-8.02c-4.33-4.183-37.782-36.352-37.782-36.352-12.594-12.15-12.9-11.826-24.746.463l-9.828 10.172c-11.98 12.424-9.966 14.607.443 24.675l25.19 24.235c6.925 6.688 18.258 17.593 25.188 24.267l12.61 12.082c12.58 12.15 12.58 12.135 24.728-.443l12.12-12.56c6.687-6.912 17.61-18.227 24.3-25.138l79.63-82.48c12.133-12.56 12.117-12.576-.443-24.71l-8.688-8.312c-12.03-11.62-12.545-12.167-24.73.46l-79.628 82.463s-8.19 8.466-10.666 11.023c-2.474 2.562-3.718 8.177-3.718 8.177z" opacity=".6" fill="none" stroke="url(#c)" stroke-width=".35" stroke-linecap="round" stroke-linejoin="round" stroke-miterlimit="10"/><linearGradient id="d" gradientUnits="userSpaceOnUse" x1="162.817" y1="1285.928" x2="170.344" y2="1243.242" gradientTransform="matrix(.695 -.719 .721 .693 -850.371 -634.76)"><stop offset="0" stop-color="#336B9A"/><stop offset="1" stop-color="#448CCA"/></linearGradient><path d="M119.088 130.553s.357-3.84-3.98-8.02c-4.33-4.183-37.782-36.352-37.782-36.352-12.594-12.15-12.9-11.826-24.746.463l-9.828 10.172c-11.98 12.424-9.966 14.607.443 24.675l25.19 24.235c6.925 6.688 18.258 17.593 25.188 24.267l12.61 12.082c12.58 12.15 12.58 12.135 24.728-.443l12.12-12.56c6.687-6.912 17.61-18.227 24.3-25.138l79.63-82.48c12.133-12.56 12.117-12.576-.443-24.71l-8.688-8.312c-12.03-11.62-12.545-12.167-24.73.46l-79.628 82.463s-8.19 8.466-10.666 11.023c-2.474 2.562-3.718 8.177-3.718 8.177z" fill="url(#d)"/></g></g></svg>