<svg xmlns="http://www.w3.org/2000/svg" width="255.649" height="227" viewBox="0 0 255.649 227"><g><g><linearGradient id="a" gradientUnits="userSpaceOnUse" x1="113.499" y1="10.913" x2="113.499" y2="220.736"><stop offset="0" stop-color="#F2F6FB"/><stop offset=".02" stop-color="#F2F6FB"/><stop offset=".36" stop-color="#CDDFEC"/><stop offset=".729" stop-color="#C4D8E8"/><stop offset="1" stop-color="#C1D5E6"/></linearGradient><path d="M0 225c0 1.1.9 2 2 2h223c1.1 0 2-.9 2-2V2c0-1.1-.9-2-2-2H2C.9 0 0 .9 0 2v223z" opacity=".4" fill="url(#a)"/><g opacity=".4"><linearGradient id="b" gradientUnits="userSpaceOnUse" x1="113.499" x2="113.499" y2="227"><stop offset="0" stop-color="#F2F6FB"/><stop offset=".4" stop-color="#F2F6FB"/><stop offset=".54" stop-color="#D7E5EF"/></linearGradient><path d="M225 1.5c.27 0 .5.23.5.5v223c0 .27-.23.5-.5.5H2c-.27 0-.5-.23-.5-.5V2c0-.27.23-.5.5-.5h223m0-1.5H2C.9 0 0 .9 0 2v223c0 1.1.9 2 2 2h223c1.1 0 2-.9 2-2V2c0-1.1-.9-2-2-2z" fill="url(#b)"/></g><path d="M225 1c.552 0 1 .45 1 1v223c0 .55-.448 1-1 1H2c-.55 0-1-.45-1-1V2c0-.55.45-1 1-1h223m0-1H2C.9 0 0 .9 0 2v223c0 1.1.9 2 2 2h223c1.1 0 2-.9 2-2V2c0-1.1-.9-2-2-2z" fill="#87ACCD" opacity=".6"/></g><linearGradient id="c" gradientUnits="userSpaceOnUse" x1="38.227" y1="42.425" x2="39.227" y2="42.425" gradientTransform="matrix(-25.526 -35.012 -35.075 25.484 2653.156 397.038)"><stop offset="0" stop-color="#ADC4D7"/><stop offset="1" stop-color="#B4D1EA"/></linearGradient><path d="M225.514 19.918h-.007c-1.455 0-2.964.698-4.886 2.222-1.92 1.52-4.23 3.845-7.267 6.994l-79.63 82.463-1.318 1.362-3.086 3.19-6.263 6.47c-1.025 1.058-1.866 2.73-2.465 4.273-.603 1.54-.974 2.952-1.106 3.497-.038.154-.057.238-.057.238-.037.162-.18.273-.342.273-.02 0-.036 0-.055-.003-.183-.027-.312-.193-.295-.377l.002-.04.003-.15c-.003-.805-.232-4.028-3.878-7.546-3.79-3.66-29.875-28.747-36.337-34.96-.923-.89-1.444-1.39-1.446-1.392-3.097-2.988-5.446-5.217-7.386-6.683-1.94-1.468-3.446-2.157-4.867-2.157h-.01c-1.467 0-2.948.728-4.837 2.278-1.883 1.547-4.145 3.892-7.152 7.013l-9.827 10.172c-2.825 2.93-4.863 5.283-6.184 7.283-1.323 2.002-1.92 3.633-1.92 5.143 0 1.682.737 3.277 2.19 5.14 1.45 1.86 3.603 3.96 6.347 6.615l25.188 24.234c6.927 6.69 18.26 17.593 25.19 24.267v-.002l12.61 12.083c3.115 3.01 5.456 5.27 7.38 6.76 1.92 1.492 3.402 2.196 4.81 2.196h.006c1.435 0 2.9-.725 4.794-2.29 1.89-1.556 4.18-3.927 7.244-7.1l12.118-12.56c6.69-6.913 17.61-18.227 24.302-25.14l79.63-82.478c3.004-3.11 5.26-5.45 6.747-7.37 1.492-1.924 2.194-3.408 2.192-4.816.002-1.434-.724-2.9-2.284-4.793-1.557-1.89-3.923-4.177-7.092-7.238h.003l-8.688-8.31v-.002c-3.013-2.91-5.3-5.122-7.206-6.588-1.906-1.465-3.408-2.172-4.866-2.172" fill="url(#c)"/></g></svg>