<svg xmlns="http://www.w3.org/2000/svg" width="222.148" height="172.259" viewBox="0 0 222.148 172.259"><g><g><path d="M84.885 111.334s.357-3.84-3.98-8.02c-4.33-4.182-37.782-36.35-37.782-36.35-12.593-12.152-12.9-11.828-24.746.46L8.55 77.598c-11.98 12.424-9.967 14.606.442 24.675l25.19 24.236c6.925 6.688 18.258 17.592 25.188 24.266l12.61 12.082c12.58 12.15 12.58 12.136 24.728-.443l12.118-12.56c6.688-6.913 17.61-18.228 24.3-25.138l79.63-82.48c12.133-12.56 12.117-12.576-.443-24.71l-8.688-8.312c-12.03-11.62-12.545-12.167-24.73.46L99.27 92.136s-8.19 8.467-10.666 11.024c-2.475 2.56-3.72 8.174-3.72 8.174z" opacity=".2" fill="none" stroke="#F2F6FB" stroke-width=".7" stroke-linecap="round" stroke-linejoin="round" stroke-miterlimit="10"/><linearGradient id="a" gradientUnits="userSpaceOnUse" x1="209.766" y1="1273.221" x2="36.023" y2="1127.434" gradientTransform="matrix(.695 -.719 .721 .693 -836.107 -655.267)"><stop offset="0" stop-color="#66A2D7"/><stop offset="1" stop-color="#517FA5"/></linearGradient><path d="M84.885 111.334s.357-3.84-3.98-8.02c-4.33-4.182-37.782-36.35-37.782-36.35-12.593-12.152-12.9-11.828-24.746.46L8.55 77.598c-11.98 12.424-9.967 14.606.442 24.675l25.19 24.236c6.925 6.688 18.258 17.592 25.188 24.266l12.61 12.082c12.58 12.15 12.58 12.136 24.728-.443l12.118-12.56c6.688-6.913 17.61-18.228 24.3-25.138l79.63-82.48c12.133-12.56 12.117-12.576-.443-24.71l-8.688-8.312c-12.03-11.62-12.545-12.167-24.73.46L99.27 92.136s-8.19 8.467-10.666 11.024c-2.475 2.56-3.72 8.174-3.72 8.174z" opacity=".6" fill="none" stroke="url(#a)" stroke-width=".35" stroke-linecap="round" stroke-linejoin="round" stroke-miterlimit="10"/><linearGradient id="b" gradientUnits="userSpaceOnUse" x1="128.282" y1="1251.961" x2="135.809" y2="1209.275" gradientTransform="matrix(.695 -.719 .721 .693 -836.107 -655.267)"><stop offset="0" stop-color="#336B9A"/><stop offset="1" stop-color="#448CCA"/></linearGradient><path d="M84.885 111.334s.357-3.84-3.98-8.02c-4.33-4.182-37.782-36.35-37.782-36.35-12.593-12.152-12.9-11.828-24.746.46L8.55 77.598c-11.98 12.424-9.967 14.606.442 24.675l25.19 24.236c6.925 6.688 18.258 17.592 25.188 24.266l12.61 12.082c12.58 12.15 12.58 12.136 24.728-.443l12.118-12.56c6.688-6.913 17.61-18.228 24.3-25.138l79.63-82.48c12.133-12.56 12.117-12.576-.443-24.71l-8.688-8.312c-12.03-11.62-12.545-12.167-24.73.46L99.27 92.136s-8.19 8.467-10.666 11.024c-2.475 2.56-3.72 8.174-3.72 8.174z" fill="url(#b)"/></g></g></svg>