<svg xmlns="http://www.w3.org/2000/svg" width="256" height="175.068" viewBox="0 0 256 175.068"><g><g><linearGradient id="a" gradientUnits="userSpaceOnUse" x1="112.023" y1=".125" x2="112.023" y2="174.944"><stop offset="0" stop-color="#9DABB4"/><stop offset=".265" stop-color="#99A7B0"/><stop offset=".54" stop-color="#8F9BA3"/><stop offset=".818" stop-color="#7D878F"/><stop offset="1" stop-color="#6D767D"/></linearGradient><path d="M2.232 174.943c-1.162 0-2.107-.94-2.107-2.095V3.58c0-1.905.966-3.455 2.153-3.455h75.458c1.188 0 2.153 1.55 2.153 3.455v12.547h141.915c1.166 0 2.115.934 2.115 2.083v154.64c0 1.154-.95 2.094-2.115 2.094H2.232z" fill="url(#a)"/><path d="M77.736.25c1.1 0 2.028 1.525 2.028 3.33v12.672h142.04c1.1 0 1.99.878 1.99 1.958v154.64c0 1.085-.892 1.97-1.99 1.97H2.233c-1.093 0-1.982-.885-1.982-1.97V3.58c0-1.805.93-3.33 2.028-3.33h75.458m0-.25H2.278C1.028 0 0 1.595 0 3.58v169.268c0 1.22 1.005 2.22 2.232 2.22h219.573c1.23 0 2.24-1 2.24-2.22V18.208c0-1.22-1.01-2.207-2.24-2.207H80.015V3.58c0-1.985-1.03-3.58-2.28-3.58z" fill="#45494D"/></g><g><path d="M252.653 34.154l-31.127 137.848H3.923L35.04 34.154h217.613m1.51-3H34.878c-1.23 0-2.44.89-2.69 2L.625 172.986c-.226 1.105.567 2.015 1.794 2.015h219.29c1.23 0 2.445-.91 2.67-2.015l31.575-139.835c.25-1.107-.56-1.998-1.793-1.998z" fill="#fff"/><linearGradient id="b" gradientUnits="userSpaceOnUse" x1="31.312" y1="32.154" x2="31.312" y2="174.002" gradientTransform="matrix(1 0 -.188 1 116.314 0)"><stop offset="0" stop-color="#fff"/><stop offset=".25" stop-color="#FBFCFD"/><stop offset=".509" stop-color="#EEF4F8"/><stop offset=".771" stop-color="#DAE7F0"/><stop offset=".8" stop-color="#D7E5EF"/></linearGradient><path d="M2.42 174.002c-.31 0-.566-.1-.708-.272-.144-.177-.138-.393-.107-.542l31.56-139.815c.146-.65.947-1.22 1.714-1.22H254.16c.323 0 .59.102.73.277.103.13.133.3.087.503l-31.577 139.833c-.133.657-.938 1.235-1.692 1.235H2.42z" fill="url(#b)"/><path d="M254.162 31.404c.552 0 1.03.203 1.314.558.247.308.33.71.234 1.136l-31.577 139.84c-.2.983-1.31 1.814-2.423 1.814H2.42c-.543 0-1-.195-1.29-.548-.256-.315-.35-.73-.26-1.16L32.433 33.206c.224-.994 1.32-1.803 2.445-1.803H254.16m0-.25H34.88c-1.23 0-2.44.89-2.69 2L.625 172.986c-.226 1.105.567 2.015 1.794 2.015h219.29c1.23 0 2.445-.91 2.67-2.015l31.575-139.835c.25-1.107-.56-1.998-1.793-1.998z" fill="#45494D"/></g></g></svg>