<svg xmlns="http://www.w3.org/2000/svg" width="256" height="256" viewBox="0 0 256 256"><g><path d="M235.77 0H.25C.112 0 0 .112 0 .25v255.305c0 .138.112.25.25.25h156.51c.138 0 .25.044.25.098s.112.098.25.098h19.98c.138 0 .25-.043.25-.097s.112-.098.25-.098h78.007c.138 0 .25-.112.25-.25V.25c0-.138-.112-.25-.25-.25H235.77zM78.507 235.092c0 .138-.112.25-.25.25H20.73c-.14 0-.25-.112-.25-.25V20.715c0-.138.11-.25.25-.25h57.526c.138 0 .25.112.25.25v214.377zm78.505 0c0 .138-.112.25-.25.25H99.237c-.138 0-.25-.112-.25-.25V20.715c0-.138.112-.25.25-.25h57.524c.14 0 .25.112.25.25v214.377zm78.508 0c0 .138-.112.25-.25.25h-57.527c-.138 0-.25-.112-.25-.25V20.715c0-.138.112-.25.25-.25h57.527c.138 0 .25.112.25.25v214.377z" fill="#4E8ABE"/></g></svg>