<svg xmlns="http://www.w3.org/2000/svg" width="256" height="256" viewBox="0 0 256 256"><g><path d="M196.923 58.828c0 .138.112.25.25.25h58.577c.138 0 .25-.112.25-.25V.25c0-.138-.112-.25-.25-.25h-58.577c-.138 0-.25.112-.25.25v58.578z" fill="#4E8ABE"/><path d="M98.46 58.828c0 .138.112.25.25.25h58.58c.138 0 .25-.112.25-.25V.25c0-.138-.112-.25-.25-.25H98.71c-.138 0-.25.112-.25.25v58.578z" fill="#4E8ABE"/><path d="M0 58.828c0 .138.112.25.25.25h58.577c.138 0 .25-.112.25-.25V.25c0-.138-.112-.25-.25-.25H.25C.112 0 0 .112 0 .25v58.578z" fill="#4E8ABE"/><path d="M196.923 255.75c0 .138.112.25.25.25h58.577c.138 0 .25-.112.25-.25v-58.578c0-.138-.112-.25-.25-.25h-58.577c-.138 0-.25.112-.25.25v58.578z" fill="#4E8ABE"/><path d="M98.46 255.75c0 .138.112.25.25.25h58.58c.138 0 .25-.112.25-.25v-58.578c0-.138-.112-.25-.25-.25H98.71c-.138 0-.25.112-.25.25v58.578z" fill="#4E8ABE"/><path d="M0 255.75c0 .138.112.25.25.25h58.577c.138 0 .25-.112.25-.25v-58.578c0-.138-.112-.25-.25-.25H.25c-.138 0-.25.112-.25.25v58.578z" fill="#4E8ABE"/><path d="M196.923 152.365c0 .138.112.25.25.25h58.577c.138 0 .25-.112.25-.25V93.79c0-.14-.112-.25-.25-.25h-58.577c-.138 0-.25.11-.25.25v58.575z" fill="#4E8ABE"/><path d="M98.46 152.365c0 .138.112.25.25.25h58.58c.138 0 .25-.112.25-.25V93.79c0-.14-.112-.25-.25-.25H98.71c-.138 0-.25.11-.25.25v58.575z" fill="#4E8ABE"/><path d="M0 152.365c0 .138.112.25.25.25h58.577c.138 0 .25-.112.25-.25V93.79c0-.14-.112-.25-.25-.25H.25c-.138 0-.25.11-.25.25v58.575z" fill="#4E8ABE"/></g></svg>