<svg xmlns="http://www.w3.org/2000/svg" width="256" height="256" viewBox="0 0 256 256"><g><path d="M0 19.442c0 .138.112.25.25.25h255.5c.138 0 .25-.112.25-.25V.25c0-.138-.112-.25-.25-.25H.25C.112 0 0 .112 0 .25v19.192z" fill="#4E8ABE"/><path d="M0 255.75c0 .138.112.25.25.25h255.5c.138 0 .25-.112.25-.25v-19.192c0-.138-.112-.25-.25-.25H.25c-.138 0-.25.112-.25.25v19.192z" fill="#4E8ABE"/><path d="M0 78.52c0 .137.112.25.25.25h255.5c.138 0 .25-.113.25-.25V59.327c0-.138-.112-.25-.25-.25H.25c-.138 0-.25.112-.25.25v19.19z" fill="#4E8ABE"/><path d="M0 137.596c0 .138.112.25.25.25h255.5c.138 0 .25-.112.25-.25v-19.192c0-.138-.112-.25-.25-.25H.25c-.138 0-.25.112-.25.25v19.192z" fill="#4E8ABE"/><path d="M0 196.672c0 .138.112.25.25.25h255.5c.138 0 .25-.112.25-.25v-19.19c0-.138-.112-.25-.25-.25H.25c-.138 0-.25.112-.25.25v19.19z" fill="#4E8ABE"/></g></svg>