<svg xmlns="http://www.w3.org/2000/svg" width="256" height="256" viewBox="0 0 256 256"><g><linearGradient id="a" gradientUnits="userSpaceOnUse" x1="2.134" y1="256.001" x2="48.112" y2="210.022"><stop offset="0" stop-color="#58595B"/><stop offset=".163" stop-color="#5A5B5C"/><stop offset=".222" stop-color="#616161"/><stop offset=".264" stop-color="#6C6D69"/><stop offset=".297" stop-color="#7D7D74"/><stop offset=".327" stop-color="#939383"/><stop offset=".352" stop-color="#AFAD96"/><stop offset=".375" stop-color="#CFCCAC"/><stop offset=".396" stop-color="#F3EFC5"/><stop offset=".4" stop-color="#FBF7CA"/><stop offset=".995" stop-color="#FBF7CA"/></linearGradient><path fill-rule="evenodd" clip-rule="evenodd" fill="url(#a)" d="M85.333 256H0v-81.066l4.272-3.85 81.074 81.074z"/><linearGradient id="b" gradientUnits="userSpaceOnUse" x1="70.003" y1="110.068" x2="151.942" y2="192.006"><stop offset="0" stop-color="#A1C8E6"/><stop offset=".033" stop-color="#96C1E3"/><stop offset=".135" stop-color="#78AEDA"/><stop offset=".242" stop-color="#619FD3"/><stop offset=".358" stop-color="#5194CE"/><stop offset=".487" stop-color="#478ECB"/><stop offset=".655" stop-color="#448CCA"/><stop offset=".92" stop-color="#428BC9"/><stop offset="1" stop-color="#3D88C8"/></linearGradient><path fill-rule="evenodd" clip-rule="evenodd" fill="url(#b)" d="M84.425 255.037l129.79-131.305-81.95-81.95L2.476 170.666z"/><path d="M132.26 44.1l79.643 79.64L84.435 252.69 4.783 170.688 132.26 44.098m.006-2.316L2.476 170.666l81.95 84.37 129.79-131.304-81.95-81.95z" fill="#448CCA"/><linearGradient id="c" gradientUnits="userSpaceOnUse" x1="165.638" y1="16.305" x2="245.243" y2="95.91"><stop offset="0" stop-color="#A1C8E6"/><stop offset=".033" stop-color="#96C1E3"/><stop offset=".135" stop-color="#78AEDA"/><stop offset=".242" stop-color="#619FD3"/><stop offset=".358" stop-color="#5194CE"/><stop offset=".487" stop-color="#478ECB"/><stop offset=".655" stop-color="#448CCA"/><stop offset=".92" stop-color="#428BC9"/><stop offset="1" stop-color="#3D88C8"/></linearGradient><path fill-rule="evenodd" clip-rule="evenodd" fill="url(#c)" d="M150.493 24.718L174.05 1.16l80.79 80.794-23.557 23.552z"/><path d="M174.05 2.32l79.63 79.633-22.396 22.393-79.63-79.628L174.05 2.32m0-2.32l-24.717 24.718 81.95 81.95L256 81.953 174.05 0z" fill="#448CCA"/></g></svg>