<svg xmlns="http://www.w3.org/2000/svg" width="256" height="256" viewBox="0 0 256 256"><g><g><radialGradient id="a" cx="128" cy="254.934" r="253.887" gradientUnits="userSpaceOnUse"><stop offset="0" stop-color="#C1D5E6"/><stop offset=".357" stop-color="#C4D8E8"/><stop offset=".485" stop-color="#CDDFEC"/><stop offset=".898" stop-color="#F9FBFD"/><stop offset="1" stop-color="#fff"/></radialGradient><path d="M0 128c0 70.7 57.31 128 128 128 70.693 0 128-57.3 128-128S198.693 0 128 0C57.31 0 0 57.3 0 128z" opacity=".6" fill="url(#a)"/><path d="M128 1c33.924 0 65.816 13.21 89.803 37.194C241.79 62.18 255 94.074 255 128s-13.21 65.82-37.197 89.806C193.816 241.79 161.923 255 128 255c-33.923 0-65.816-13.21-89.802-37.194C14.21 193.82 1 161.926 1 128s13.21-65.82 37.198-89.806C62.184 14.21 94.078 1 128 1m0-1C57.31 0 0 57.3 0 128s57.31 128 128 128c70.693 0 128-57.3 128-128S198.693 0 128 0z" fill="#517FA5" opacity=".25"/></g><g opacity=".45"><linearGradient id="b" gradientUnits="userSpaceOnUse" x1="127.999" y1="68.268" x2="127.999" y2="187.733"><stop offset="0" stop-color="#fff"/><stop offset=".066" stop-color="#E0ECF6"/><stop offset=".169" stop-color="#B7D3EB"/><stop offset=".278" stop-color="#93BDE0"/><stop offset=".392" stop-color="#76ABD8"/><stop offset=".513" stop-color="#609DD2"/><stop offset=".644" stop-color="#5094CD"/><stop offset=".794" stop-color="#478ECB"/><stop offset="1" stop-color="#448CCA"/></linearGradient><path d="M68.268 128c0 33 26.74 59.732 59.732 59.732S187.732 161 187.732 128 160.992 68.268 128 68.268 68.268 95 68.268 128z" fill="url(#b)"/><g opacity=".9"><linearGradient id="c" gradientUnits="userSpaceOnUse" x1="127.999" y1="68.268" x2="127.999" y2="187.733"><stop offset="0" stop-color="#A1C8E6"/><stop offset=".788" stop-color="#336B9A"/></linearGradient><path d="M128 69.2c32.422 0 58.8 26.378 58.8 58.8s-26.378 58.8-58.8 58.8S69.2 160.42 69.2 128 95.58 69.2 128 69.2m0-.932C95.008 68.268 68.268 95 68.268 128s26.74 59.732 59.732 59.732S187.732 161 187.732 128 160.992 68.268 128 68.268z" fill="url(#c)"/></g></g></g></svg>