<svg xmlns="http://www.w3.org/2000/svg" width="256" height="256" viewBox="0 0 256 256"><g><g><radialGradient id="a" cx="128" cy="254.934" r="253.887" gradientUnits="userSpaceOnUse"><stop offset="0" stop-color="#C1D5E6"/><stop offset=".357" stop-color="#C4D8E8"/><stop offset=".485" stop-color="#CDDFEC"/><stop offset=".898" stop-color="#F9FBFD"/><stop offset="1" stop-color="#fff"/></radialGradient><path d="M0 128c0 70.7 57.31 128 128 128 70.693 0 128-57.3 128-128S198.693 0 128 0C57.31 0 0 57.3 0 128z" fill="url(#a)"/><g opacity=".9"><linearGradient id="b" gradientUnits="userSpaceOnUse" x1="127.999" x2="127.999" y2="256"><stop offset="0" stop-color="#fff"/><stop offset=".4" stop-color="#F2F6FB"/><stop offset=".82" stop-color="#D7E5EF"/><stop offset="1" stop-color="#fff"/></linearGradient><path d="M128 2c33.657 0 65.3 13.105 89.096 36.902C240.894 62.7 254 94.342 254 128s-13.106 65.3-36.904 89.098C193.3 240.895 161.656 254 128 254c-33.656 0-65.297-13.105-89.095-36.902C15.105 193.3 2 161.658 2 128c0-33.66 13.106-65.3 36.905-89.098C62.703 15.105 94.345 2 128 2m0-2C57.31 0 0 57.3 0 128s57.31 128 128 128c70.693 0 128-57.3 128-128S198.693 0 128 0z" fill="url(#b)"/></g><path d="M128 1c33.924 0 65.816 13.21 89.803 37.194C241.79 62.18 255 94.074 255 128s-13.21 65.82-37.197 89.806C193.816 241.79 161.923 255 128 255c-33.923 0-65.816-13.21-89.802-37.194C14.21 193.82 1 161.926 1 128s13.21-65.82 37.198-89.806C62.184 14.21 94.078 1 128 1m0-1C57.31 0 0 57.3 0 128s57.31 128 128 128c70.693 0 128-57.3 128-128S198.693 0 128 0z" fill="#9DABB4" opacity=".73"/></g></g></svg>