<svg xmlns="http://www.w3.org/2000/svg" width="256" height="256" viewBox="0 0 256 256"><g><g><radialGradient id="a" cx="128" cy="254.934" r="253.887" gradientUnits="userSpaceOnUse"><stop offset="0" stop-color="#E4E4E4"/><stop offset=".2" stop-color="#E4E4E4"/><stop offset=".3" stop-color="#E4E4E4"/><stop offset=".88" stop-color="#F9FBFD"/><stop offset="1" stop-color="#fff"/></radialGradient><path d="M0 128c0 70.7 57.307 128 128 128 70.69 0 128-57.3 128-128S198.69 0 128 0C57.307 0 0 57.3 0 128z" fill="url(#a)"/><g opacity=".9"><linearGradient id="b" gradientUnits="userSpaceOnUse" x1="127.999" x2="127.999" y2="256"><stop offset="0" stop-color="#fff"/><stop offset=".375" stop-color="#EFEFEF"/><stop offset=".698" stop-color="#EFEFEF"/><stop offset="1" stop-color="#fff"/></linearGradient><path d="M128 2c33.656 0 65.298 13.105 89.095 36.902C240.895 62.7 254 94.342 254 128s-13.106 65.3-36.905 89.098C193.298 240.895 161.655 254 128 254c-33.657 0-65.298-13.105-89.096-36.902C15.106 193.3 2 161.658 2 128c0-33.66 13.106-65.3 36.904-89.098C62.702 15.105 94.344 2 128 2m0-2C57.307 0 0 57.3 0 128s57.307 128 128 128c70.69 0 128-57.3 128-128S198.69 0 128 0z" fill="url(#b)"/></g><path d="M128 1c33.924 0 65.815 13.21 89.802 37.194C241.79 62.18 255 94.074 255 128s-13.21 65.82-37.198 89.806C193.815 241.79 161.924 255 128 255c-33.924 0-65.817-13.21-89.803-37.194C14.21 193.82 1 161.926 1 128s13.21-65.82 37.197-89.806C62.183 14.21 94.077 1 128 1m0-1C57.307 0 0 57.3 0 128s57.307 128 128 128c70.69 0 128-57.3 128-128S198.69 0 128 0z" fill="#aaa" opacity=".9"/></g><g><linearGradient id="c" gradientUnits="userSpaceOnUse" x1="127.999" y1="68.265" x2="127.999" y2="187.735"><stop offset="0" stop-color="#fff"/><stop offset=".066" stop-color="#E0ECF6"/><stop offset=".169" stop-color="#B7D3EB"/><stop offset=".278" stop-color="#93BDE0"/><stop offset=".392" stop-color="#76ABD8"/><stop offset=".513" stop-color="#609DD2"/><stop offset=".644" stop-color="#5094CD"/><stop offset=".794" stop-color="#478ECB"/><stop offset="1" stop-color="#448CCA"/></linearGradient><path d="M68.268 128c0 33 26.738 59.734 59.732 59.734 32.992 0 59.732-26.734 59.732-59.734S160.992 68.265 128 68.265C95.006 68.265 68.268 95 68.268 128z" fill="url(#c)"/><g opacity=".9"><linearGradient id="d" gradientUnits="userSpaceOnUse" x1="127.999" y1="68.265" x2="127.999" y2="187.735"><stop offset="0" stop-color="#A1C8E6"/><stop offset=".788" stop-color="#336B9A"/></linearGradient><path d="M128 69.198c32.422 0 58.8 26.378 58.8 58.802 0 32.423-26.378 58.8-58.8 58.8S69.2 160.424 69.2 128 95.58 69.198 128 69.198m0-.933C95.006 68.265 68.268 95 68.268 128S95.006 187.734 128 187.734c32.992 0 59.732-26.734 59.732-59.734S160.992 68.265 128 68.265z" fill="url(#d)"/></g></g></g></svg>