<svg xmlns="http://www.w3.org/2000/svg" width="256" height="256" viewBox="0 0 256 256"><g><g><radialGradient id="a" cx="128" cy="254.934" r="253.887" gradientUnits="userSpaceOnUse"><stop offset="0" stop-color="#E4E4E4"/><stop offset=".2" stop-color="#E4E4E4"/><stop offset=".3" stop-color="#E4E4E4"/><stop offset=".88" stop-color="#F9FBFD"/><stop offset="1" stop-color="#fff"/></radialGradient><path d="M0 128c0 70.7 57.31 128 128 128 70.693 0 128-57.3 128-128S198.693 0 128 0C57.31 0 0 57.3 0 128z" opacity=".4" fill="url(#a)"/><path d="M128 1c33.924 0 65.816 13.21 89.803 37.194C241.79 62.18 255 94.074 255 128s-13.21 65.82-37.197 89.806C193.816 241.79 161.923 255 128 255c-33.923 0-65.816-13.21-89.802-37.194C14.21 193.82 1 161.926 1 128s13.21-65.82 37.198-89.806C62.184 14.21 94.078 1 128 1m0-1C57.31 0 0 57.3 0 128s57.31 128 128 128c70.693 0 128-57.3 128-128S198.693 0 128 0z" fill="#E0E0E0"/></g></g></svg>