<svg xmlns="http://www.w3.org/2000/svg" width="255.895" height="256" viewBox="0 0 255.895 256"><g><path d="M74.23 179.455c-.138 0-.25-.112-.25-.25V2.41c0-.14-.112-.25-.25-.25H33.576c-.138 0-.25.11-.25.25v176.795c0 .138-.112.25-.25.25H.146c-.14 0-.187.092-.107.205l53.5 76.135c.078.113.207.113.286 0l53.476-76.135c.08-.113.03-.205-.106-.205H74.23z" fill="#4E8ABE"/><path d="M210.04 0l45.855 94.432H228.24l-8.518-18.613h-46.278l-7.722 18.612h-27.225L180.23 0h29.81zm2.158 59.318l-16.736-36.76-15.203 36.76h31.938z" fill="#4E8ABE"/><path d="M245.89 161.568l-56.297 77.113h56.296V256H145.65l56.746-77.158H149.53V161.57h96.36z" fill="#4E8ABE"/></g></svg>