<svg xmlns="http://www.w3.org/2000/svg" width="229.869" height="256" viewBox="0 0 229.869 256"><g><linearGradient id="a" gradientUnits="userSpaceOnUse" x1="14.972" y1="150.231" x2="216.504" y2="150.231"><stop offset="0" stop-color="#989898"/><stop offset=".48" stop-color="#B6B6B7"/><stop offset="1" stop-color="#989898"/></linearGradient><path d="M216.5 52.69c.125-4.52-3.57-8.225-8.24-8.23H23.216c-4.672.005-8.37 3.708-8.24 8.23l5.412 189.097c.135 4.52 3.812 8.682 8.188 9.19 57.915 6.696 116.41 6.696 174.325 0 4.38-.51 8.055-4.67 8.19-9.19L216.5 52.69z" fill="url(#a)"/><path d="M181.087 90.247c-6.598-4.732-15.4-4.876-22.015-.347.146 43.442.57 86.52 1.402 129.63 4.487 3.348 10.376 3.857 15.137 1.327 1.588-44.672 3.545-88.714 5.477-130.61z" fill="#D2D2D2"/><path d="M127.196 86.73c-7.354-5.17-17.173-5.17-24.523 0 1.18 45.148 2.536 91.236 3.908 137.88 4.99 3.666 11.72 3.666 16.708 0 1.373-46.643 2.732-92.73 3.908-137.88z" fill="#D2D2D2"/><path d="M70.797 88.315c-6.617-4.528-15.417-4.385-22.015.348 1.938 41.896 3.886 85.937 5.475 130.608 4.765 2.532 10.65 2.022 15.138-1.325.835-43.11 1.253-86.187 1.402-129.63z" fill="#D2D2D2"/><linearGradient id="b" gradientUnits="userSpaceOnUse" y1="28.861" x2="229.869" y2="28.861"><stop offset="0" stop-color="#7F7F7F"/><stop offset=".48" stop-color="#908F8E"/><stop offset="1" stop-color="#7F7F7F"/></linearGradient><path d="M183.307 18.39c-2.672-.024-4.867-2.39-4.864-5.258 0-2.365.007-4.73 0-7.095.007-2.864-2.19-5.266-4.864-5.333-38.557-.926-77.13-.94-115.683-.037-2.674.065-4.86 2.468-4.862 5.337-.002 2.368.004 4.737-.002 7.104-.01 2.874-2.188 5.242-4.862 5.267-14.438.146-28.883.342-43.306.595C2.184 19.02.01 21.25 0 23.92v27.014c0 2.246 2.188 4.183 4.862 4.302 73.338 3.312 146.8 3.312 220.145 0 2.667-.12 4.865-2.058 4.862-4.3V23.918c-.004-2.67-2.194-4.9-4.865-4.95-13.893-.244-27.796-.435-41.698-.58z" fill="url(#b)"/></g></svg>