<?xml version="1.0" encoding="iso-8859-1"?>
<!-- Generator: Adobe Illustrator 16.0.0, SVG Export Plug-In . SVG Version: 6.00 Build 0)  -->
<!DOCTYPE svg PUBLIC "-//W3C//DTD SVG 1.1//EN" "http://www.w3.org/Graphics/SVG/1.1/DTD/svg11.dtd">
<svg version="1.1" xmlns="http://www.w3.org/2000/svg" xmlns:xlink="http://www.w3.org/1999/xlink" x="0px" y="0px" width="20px"
	 height="20px" viewBox="0 0 20 20" style="enable-background:new 0 0 20 20;" xml:space="preserve">
<g id="content-cloud-upload">
	<g>
		<rect id="le_wrappier_156_" style="fill:none;" width="20" height="20"/>
		<g>
			<g>
				
					<linearGradient id="SVGID_1_" gradientUnits="userSpaceOnUse" x1="-843.019" y1="576.9053" x2="-843.019" y2="577.123" gradientTransform="matrix(57.6 0 0 -57.6 48567.8125 33246.3125)">
					<stop  offset="0" style="stop-color:#C2C2C2"/>
					<stop  offset="1" style="stop-color:#C7C7C7"/>
				</linearGradient>
				<path style="fill:url(#SVGID_1_);" d="M7.335,7.227c0,0-1.187-1.119-2.796-0.207C3.097,7.903,3.352,9.493,3.352,9.493
					s-3.198,0.618-3.198,3.816c0.069,3.197,3.474,3.227,3.474,3.227h5.111v-3.227H7.1l2.863-3.248l2.856,3.238H11.19v3.227h4.953
					c0,0,3.169,0,3.61-3.041c0.216-3.325-3.062-3.982-3.062-3.982s0.373-4.925-4.227-5.483C8.532,3.636,7.335,7.227,7.335,7.227z"/>
			</g>
		</g>
	</g>
</g>
<g id="Layer_1">
</g>
</svg>
