<?xml version="1.0" encoding="iso-8859-1"?>
<!-- Generator: Adobe Illustrator 16.0.0, SVG Export Plug-In . SVG Version: 6.00 Build 0)  -->
<!DOCTYPE svg PUBLIC "-//W3C//DTD SVG 1.1//EN" "http://www.w3.org/Graphics/SVG/1.1/DTD/svg11.dtd">
<svg version="1.1" id="Layer_1" xmlns="http://www.w3.org/2000/svg" xmlns:xlink="http://www.w3.org/1999/xlink" x="0px" y="0px"
	 width="20px" height="20px" viewBox="0 0 20 20" style="enable-background:new 0 0 20 20;" xml:space="preserve">
<g id="content-replace">
	<g>
		<g>
			<path style="fill:#8D8E8D;" d="M7.259,1.334C5.787,1.334,4.592,2.529,4.592,4h1.926L3.925,6.594L1.332,4h1.926
				c0-2.205,1.794-4,4-4"/>
			<path style="fill:#8D8E8D;" d="M12.74,18.666c1.472,0,2.667-1.195,2.667-2.666h-1.923l2.59-2.592L18.668,16h-1.927
				c0,2.205-1.794,4-4,4"/>
			<polyline style="fill:#8D8E8D;" points="20,4 20,12 9.333,12 9.333,0 16,0 			"/>
			<polygon style="fill:#B9B9BA;" points="16,4 20,4 16,0 			"/>
			<g>
				<polygon style="fill:#B9B9BA;" points="8,13.333 8,8 0,8 0,20 10.667,20 10.667,13.333 				"/>
			</g>
		</g>
		<rect id="le_wrappier_1_" style="fill:none;" width="20" height="20"/>
	</g>
</g>
<g id="Layer_1_1_">
</g>
</svg>
