<?xml version="1.0" encoding="iso-8859-1"?>
<!-- Generator: Adobe Illustrator 16.0.0, SVG Export Plug-In . SVG Version: 6.00 Build 0)  -->
<!DOCTYPE svg PUBLIC "-//W3C//DTD SVG 1.1//EN" "http://www.w3.org/Graphics/SVG/1.1/DTD/svg11.dtd">
<svg version="1.1" xmlns="http://www.w3.org/2000/svg" xmlns:xlink="http://www.w3.org/1999/xlink" x="0px" y="0px"
	 width="20.001px" height="20px" viewBox="0 0 20.001 20" style="enable-background:new 0 0 20.001 20;" xml:space="preserve">
<g id="inverse-chevron-up">
	<g>
		<rect id="le_wrappier_47_" style="fill:none;" width="20" height="20"/>
		<g id="chevron-up_1_">
			<path style="fill:#CCCCCC;" d="M10.535,11.6c-0.293-0.301-0.775-0.301-1.07,0l-5.117,5.223c-0.293,0.305-0.777,0.305-1.07,0
				l-3.055-3.117c-0.295-0.303-0.295-0.793,0-1.096L5.34,7.389c0.293-0.297,0.777-0.793,1.068-1.094l3.057-3.117
				c0.295-0.297,0.777-0.297,1.07,0l3.059,3.117c0.293,0.301,0.777,0.797,1.07,1.094l5.117,5.221c0.293,0.303,0.293,0.793,0,1.096
				l-3.057,3.117c-0.295,0.305-0.775,0.305-1.07,0L10.535,11.6z"/>
		</g>
	</g>
</g>
<g id="Layer_1">
</g>
</svg>
