<?xml version="1.0" encoding="iso-8859-1"?>
<!-- Generator: Adobe Illustrator 16.0.0, SVG Export Plug-In . SVG Version: 6.00 Build 0)  -->
<!DOCTYPE svg PUBLIC "-//W3C//DTD SVG 1.1//EN" "http://www.w3.org/Graphics/SVG/1.1/DTD/svg11.dtd">
<svg version="1.1" id="Layer_1" xmlns="http://www.w3.org/2000/svg" xmlns:xlink="http://www.w3.org/1999/xlink" x="0px" y="0px"
	 width="20px" height="20.078px" viewBox="0 0 20 20.078" style="enable-background:new 0 0 20 20.078;" xml:space="preserve">
<g id="inverse-trashcan">
	<g>
		<rect id="le_wrappier_6_" style="fill:none;" width="20" height="20"/>
		<g>
			<path style="fill:#FFFFFF;" d="M4.017,20.076H15.98l1.151-13.082H2.867L4.017,20.076z M12.375,9.685
				c0-0.407,0.328-0.737,0.736-0.737c0.402,0,0.733,0.33,0.733,0.737v7.749c0,0.404-0.331,0.732-0.733,0.732
				c-0.409,0-0.736-0.328-0.736-0.732V9.685z M9.264,9.685c0-0.407,0.328-0.737,0.731-0.737c0.41,0,0.739,0.33,0.739,0.737v7.749
				c0,0.404-0.329,0.732-0.739,0.732c-0.403,0-0.731-0.328-0.731-0.732V9.685z M6.153,9.685c0-0.407,0.331-0.737,0.735-0.737
				c0.407,0,0.736,0.33,0.736,0.737v7.749c0,0.404-0.329,0.732-0.736,0.732c-0.404,0-0.735-0.328-0.735-0.732V9.685z"/>
			<path style="fill:#FFFFFF;" d="M17.711,2.559h-3.734V2.133c0-1.135-0.922-2.057-2.055-2.057H8.075
				c-1.131,0-2.053,0.922-2.053,2.057v0.426H2.283c-0.534,0-0.965,0.43-0.965,0.969v2.332h17.365V3.527
				C18.682,2.988,18.247,2.559,17.711,2.559 M12.573,2.559H7.421V2.133c0-0.363,0.298-0.652,0.654-0.652h3.847
				c0.361,0,0.651,0.289,0.651,0.652V2.559L12.573,2.559z"/>
		</g>
	</g>
</g>
<g id="Layer_1_1_">
</g>
</svg>
