<?xml version="1.0" encoding="iso-8859-1"?>
<!-- Generator: Adobe Illustrator 16.0.0, SVG Export Plug-In . SVG Version: 6.00 Build 0)  -->
<!DOCTYPE svg PUBLIC "-//W3C//DTD SVG 1.1//EN" "http://www.w3.org/Graphics/SVG/1.1/DTD/svg11.dtd">
<svg version="1.1" id="Layer_1" xmlns="http://www.w3.org/2000/svg" xmlns:xlink="http://www.w3.org/1999/xlink" x="0px" y="0px"
	 width="20px" height="20px" viewBox="0 0 20 20" style="enable-background:new 0 0 20 20;" xml:space="preserve">
<g id="margin-left">
	<g>
		<rect id="le_wrappier_148_" style="fill:none;" width="20" height="20"/>
		<g>
			<g>
				<rect x="0.769" y="0.77" style="fill:#B9B9BA;" width="4.616" height="18.461"/>
				<path style="fill:#8D8E8D;" d="M1.539,1.539h3.077v16.922H1.539V1.539 M0,0v20h6.154V0H0L0,0z"/>
			</g>
			<g>
				<rect x="5.385" y="5.385" style="fill:#F1F1F1;" width="9.23" height="9.23"/>
				<path style="fill:#323232;" d="M6.154,6.154h7.691v7.69H6.154V6.154 M4.615,4.615v10.77h10.77V4.615H4.615L4.615,4.615z"/>
			</g>
			<g>
				<rect x="13.846" y="18.46" style="fill:#797979;" width="1.539" height="1.538"/>
				<rect x="13.846" y="15.383" style="fill:#797979;" width="1.539" height="1.539"/>
				<rect x="15.385" y="13.845" style="fill:#797979;" width="1.538" height="1.538"/>
				<rect x="18.461" y="13.845" style="fill:#797979;" width="1.539" height="1.538"/>
				<rect x="15.385" y="4.615" style="fill:#797979;" width="1.538" height="1.539"/>
				<rect x="18.461" y="4.615" style="fill:#797979;" width="1.539" height="1.539"/>
				<rect x="13.846" y="3.077" style="fill:#797979;" width="1.539" height="1.538"/>
				<rect x="13.846" style="fill:#797979;" width="1.539" height="1.539"/>
			</g>
		</g>
	</g>
</g>
<g id="Layer_1_1_">
</g>
</svg>
