<?xml version="1.0" encoding="iso-8859-1"?>
<!-- Generator: Adobe Illustrator 16.0.0, SVG Export Plug-In . SVG Version: 6.00 Build 0)  -->
<!DOCTYPE svg PUBLIC "-//W3C//DTD SVG 1.1//EN" "http://www.w3.org/Graphics/SVG/1.1/DTD/svg11.dtd">
<svg version="1.1" id="Layer_1" xmlns="http://www.w3.org/2000/svg" xmlns:xlink="http://www.w3.org/1999/xlink" x="0px" y="0px"
	 width="20px" height="20px" viewBox="0 0 20 20" style="enable-background:new 0 0 20 20;" xml:space="preserve">
<g id="margin-none">
	<g>
		<rect id="le_wrappier_151_" style="fill:none;" width="20" height="20"/>
		<g>
			<g>
				<rect x="5.385" y="5.385" style="fill:#F1F1F1;" width="9.23" height="9.23"/>
				<path style="fill:#323232;" d="M13.846,6.154v7.69H6.154v-7.69H13.846 M15.385,4.615H4.615v10.77h10.77V4.615L15.385,4.615z"/>
			</g>
			<g>
				<rect y="13.846" style="fill:#797979;" width="1.539" height="1.539"/>
				<rect x="3.077" y="13.846" style="fill:#797979;" width="1.538" height="1.539"/>
				<rect x="4.615" y="15.385" style="fill:#797979;" width="1.539" height="1.538"/>
				<rect x="4.615" y="18.461" style="fill:#797979;" width="1.539" height="1.539"/>
				<rect x="13.846" y="15.385" style="fill:#797979;" width="1.539" height="1.538"/>
				<rect x="13.846" y="18.461" style="fill:#797979;" width="1.539" height="1.539"/>
				<rect x="15.385" y="13.846" style="fill:#797979;" width="1.538" height="1.539"/>
				<rect x="18.461" y="13.846" style="fill:#797979;" width="1.539" height="1.539"/>
			</g>
			<g>
				<rect x="18.461" y="4.615" style="fill:#797979;" width="1.539" height="1.539"/>
				<rect x="15.385" y="4.615" style="fill:#797979;" width="1.538" height="1.539"/>
				<rect x="13.846" y="3.077" style="fill:#797979;" width="1.539" height="1.538"/>
				<rect x="13.846" style="fill:#797979;" width="1.539" height="1.539"/>
				<rect x="4.615" y="3.077" style="fill:#797979;" width="1.539" height="1.538"/>
				<rect x="4.615" style="fill:#797979;" width="1.539" height="1.539"/>
				<rect x="3.077" y="4.615" style="fill:#797979;" width="1.538" height="1.539"/>
				<rect y="4.615" style="fill:#797979;" width="1.539" height="1.539"/>
			</g>
		</g>
	</g>
</g>
<g id="Layer_1_1_">
</g>
</svg>
