<?xml version="1.0" encoding="iso-8859-1"?>
<!-- Generator: Adobe Illustrator 16.0.0, SVG Export Plug-In . SVG Version: 6.00 Build 0)  -->
<!DOCTYPE svg PUBLIC "-//W3C//DTD SVG 1.1//EN" "http://www.w3.org/Graphics/SVG/1.1/DTD/svg11.dtd">
<svg version="1.1" id="Layer_1" xmlns="http://www.w3.org/2000/svg" xmlns:xlink="http://www.w3.org/1999/xlink" x="0px" y="0px"
	 width="20px" height="20px" viewBox="0 0 20 20" style="enable-background:new 0 0 20 20;" xml:space="preserve">
<g id="margin-bottom">
	<g>
		<rect id="le_wrappier_147_" style="fill:none;" width="20" height="20"/>
		<g>
			<g>
				<rect x="0.769" y="14.615" style="fill:#B9B9BA;" width="18.459" height="4.615"/>
				<path style="fill:#8D8E8D;" d="M1.539,18.461v-3.076h16.92v3.076H1.539 M0,20h19.998v-6.152H0V20L0,20z"/>
			</g>
			<g>
				<rect x="5.384" y="5.385" style="fill:#F1F1F1;" width="9.229" height="9.229"/>
				<path style="fill:#323232;" d="M6.153,13.848V6.152h7.692v7.692H6.153 M4.615,15.385h10.768V4.615H4.615V15.385L4.615,15.385z"
					/>
			</g>
			<g>
				<rect x="18.459" y="4.615" style="fill:#797979;" width="1.539" height="1.537"/>
				<rect x="15.383" y="4.615" style="fill:#797979;" width="1.538" height="1.537"/>
				<rect x="13.845" y="3.076" style="fill:#797979;" width="1.538" height="1.539"/>
				<rect x="13.845" style="fill:#797979;" width="1.538" height="1.539"/>
				<rect x="4.615" y="3.076" style="fill:#797979;" width="1.538" height="1.539"/>
				<rect x="4.615" style="fill:#797979;" width="1.538" height="1.539"/>
				<rect x="3.077" y="4.615" style="fill:#797979;" width="1.538" height="1.537"/>
				<rect y="4.615" style="fill:#797979;" width="1.539" height="1.537"/>
			</g>
		</g>
	</g>
</g>
<g id="Layer_1_1_">
</g>
</svg>
