<?xml version="1.0" encoding="iso-8859-1"?>
<!-- Generator: Adobe Illustrator 16.0.0, SVG Export Plug-In . SVG Version: 6.00 Build 0)  -->
<!DOCTYPE svg PUBLIC "-//W3C//DTD SVG 1.1//EN" "http://www.w3.org/Graphics/SVG/1.1/DTD/svg11.dtd">
<svg version="1.1" id="Layer_1" xmlns="http://www.w3.org/2000/svg" xmlns:xlink="http://www.w3.org/1999/xlink" x="0px" y="0px"
	 width="19.971px" height="20px" viewBox="0 0 19.971 20" style="enable-background:new 0 0 19.971 20;" xml:space="preserve">
<g id="Layer_1_1_">
</g>
<g>
	<rect id="le_wrappier_12_" x="0" y="0.029" style="fill:none;" width="19.971" height="19.971"/>
	<g>
		<g>
			<path style="fill:#4C89BE;" d="M15.514,8.778V5.5c0-3.004-2.436-5.442-5.439-5.442c-0.037,0-0.064,0-0.102,0
				c-0.029,0-0.068,0-0.1,0c-3.004,0-5.439,2.438-5.439,5.442v3.278H2.509v11.251H17.49V8.778H15.514z M7.155,5.5
				c0-1.499,1.22-2.718,2.719-2.718c0.043,0,0.133-0.003,0.133-0.003s0.046,0.003,0.068,0.003c1.499,0,2.719,1.219,2.719,2.718
				v3.278H7.155V5.5z"/>
		</g>
	</g>
</g>
</svg>
