<?xml version="1.0" encoding="iso-8859-1"?>
<!-- Generator: Adobe Illustrator 16.0.0, SVG Export Plug-In . SVG Version: 6.00 Build 0)  -->
<!DOCTYPE svg PUBLIC "-//W3C//DTD SVG 1.1//EN" "http://www.w3.org/Graphics/SVG/1.1/DTD/svg11.dtd">
<svg version="1.1" xmlns="http://www.w3.org/2000/svg" xmlns:xlink="http://www.w3.org/1999/xlink" x="0px" y="0px"
	 width="19.971px" height="20px" viewBox="0 0 19.971 20" style="enable-background:new 0 0 19.971 20;" xml:space="preserve">
<g id="padlock-blue">
	<g>
		<rect id="le_wrappier_7_" style="fill:none;" width="19.971" height="19.971"/>
		<g>
			<g>
				<linearGradient id="SVGID_1_" gradientUnits="userSpaceOnUse" x1="9.9858" y1="20" x2="9.9858" y2="0.0298">
					<stop  offset="0" style="stop-color:#5A95C8"/>
					<stop  offset="1" style="stop-color:#A0CEF8"/>
				</linearGradient>
				<path style="fill:url(#SVGID_1_);" d="M15.498,8.749V5.471c0-3.004-2.435-5.442-5.438-5.442c-0.037,0-0.064,0-0.102,0
					c-0.029,0-0.068,0-0.099,0c-3.004,0-5.439,2.438-5.439,5.442v3.278H2.494V20h14.982V8.749H15.498z M7.14,5.471
					c0-1.499,1.219-2.718,2.718-2.718c0.043,0,0.132-0.003,0.132-0.003s0.046,0.003,0.069,0.003c1.499,0,2.718,1.219,2.718,2.718
					v3.278H7.14V5.471z"/>
			</g>
		</g>
	</g>
</g>
<g id="Layer_1">
</g>
</svg>
