<?xml version="1.0" encoding="iso-8859-1"?>
<!-- Generator: Adobe Illustrator 16.0.0, SVG Export Plug-In . SVG Version: 6.00 Build 0)  -->
<!DOCTYPE svg PUBLIC "-//W3C//DTD SVG 1.1//EN" "http://www.w3.org/Graphics/SVG/1.1/DTD/svg11.dtd">
<svg version="1.1" id="Layer_1" xmlns="http://www.w3.org/2000/svg" xmlns:xlink="http://www.w3.org/1999/xlink" x="0px" y="0px"
	 width="20px" height="20px" viewBox="0 0 20 20" style="enable-background:new 0 0 20 20;" xml:space="preserve">
<g id="Layer_1_1_">
</g>
<g>
	<g>
		<path style="fill:#C4D6DF;" d="M4.179,14.293v-0.005c0-0.282,0.125-1.161,1.433-1.963c0.24-0.327,0.439-0.77,0.639-1.281
			c0.141-0.356,0.117-0.657,0.117-1.089c0-0.316,0.059-0.828-0.018-1.11c-0.267-0.948-0.94-1.209-1.729-1.209
			S3.159,7.897,2.893,8.85c-0.08,0.277-0.019,0.789-0.019,1.105c0,0.432-0.024,0.735,0.117,1.089
			c0.242,0.618,0.471,1.132,0.777,1.463c-1.196,0.218-2.005,0.844-2.551,1.089c-1.129,0.5-1.134,1.054-1.134,1.054v0.938
			l4.095-0.002v-1.286V14.293z"/>
		<path style="fill:#4C89BE;" d="M15.182,14.405h-1.129h-1.03v-1.031v-1.707v-0.213c-0.171-0.045-0.344-0.085-0.527-0.119
			c0.421-0.447,0.74-1.153,1.067-1.989c0.189-0.485,0.157-0.897,0.157-1.48c0-0.437,0.083-1.132-0.026-1.513
			c-0.362-1.294-1.281-1.651-2.356-1.651c-1.073,0-1.992,0.357-2.354,1.654c-0.108,0.38-0.023,1.073-0.023,1.51
			c0,0.585-0.035,1.001,0.157,1.485c0.333,0.837,0.645,1.542,1.062,1.989c-1.632,0.301-2.735,1.153-3.48,1.483
			c-1.542,0.687-1.547,1.438-1.547,1.438v1.281l10.03-0.003v-0.005V14.405z"/>
		<polygon style="fill:#4C89BE;" points="20.084,11.667 17.922,11.667 17.922,9.506 16.215,9.506 16.215,11.667 14.053,11.667 
			14.053,13.374 16.215,13.374 16.215,15.534 17.922,15.534 17.922,13.374 20.084,13.374 		"/>
	</g>
	<rect id="le_wrappier_1_" x="0.084" style="fill:none;" width="20" height="20"/>
</g>
</svg>
