<?xml version="1.0" encoding="iso-8859-1"?>
<!-- Generator: Adobe Illustrator 16.0.0, SVG Export Plug-In . SVG Version: 6.00 Build 0)  -->
<!DOCTYPE svg PUBLIC "-//W3C//DTD SVG 1.1//EN" "http://www.w3.org/Graphics/SVG/1.1/DTD/svg11.dtd">
<svg version="1.1" id="Layer_1" xmlns="http://www.w3.org/2000/svg" xmlns:xlink="http://www.w3.org/1999/xlink" x="0px" y="0px"
	 width="20px" height="20px" viewBox="0 0 20 20" style="enable-background:new 0 0 20 20;" xml:space="preserve">
<g id="Layer_1_1_">
</g>
<g>
	<rect id="le_wrappier_10_" x="0.059" y="0.029" style="fill:none;" width="19.971" height="19.971"/>
	<g>
		<path style="fill:#C4D6DF;" d="M4.163,6.629c-0.71,0-1.336,0.25-1.587,1.127c-0.083,0.25,0,0.709,0,1.002
			c0,0.376-0.042,0.668,0.125,1.002c0.209,0.584,0.418,1.044,0.71,1.336c-1.085,0.208-1.837,0.793-2.338,1.002
			c-1.044,0.46-1.044,0.96-1.044,0.96v0.877h3.758v-1.169l0,0l0,0c0-0.251,0.125-1.085,1.294-1.796
			c0.209-0.291,0.417-0.709,0.584-1.168C5.792,9.468,5.792,9.218,5.792,8.8c0-0.292,0.042-0.752,0-1.002
			C5.499,6.879,4.915,6.629,4.163,6.629"/>
		<path style="fill:#C4D6DF;" d="M15.854,6.42c0.752,0,1.336,0.25,1.587,1.169c0.083,0.25,0,0.751,0,1.043
			c0,0.418,0.042,0.71-0.125,1.044c-0.209,0.584-0.418,1.086-0.71,1.378c1.127,0.209,1.879,0.793,2.38,1.044
			c1.044,0.46,1.044,1.002,1.044,1.002v0.877h-3.8v-1.211l0,0l0,0c0-0.251-0.125-1.085-1.336-1.837
			c-0.209-0.293-0.417-0.71-0.585-1.211c-0.125-0.334-0.125-0.626-0.125-1.044c0-0.292-0.041-0.793,0-1.044
			C14.518,6.67,15.145,6.42,15.854,6.42"/>
		<path style="fill:#4C89BE;" d="M14.226,11.431c-0.71-0.292-1.712-1.086-3.215-1.378c0.376-0.417,0.668-1.085,1.002-1.837
			C12.18,7.756,12.18,7.38,12.18,6.837c0-0.417,0.084-1.043-0.042-1.419c-0.334-1.211-1.169-1.545-2.171-1.545
			S8.129,4.207,7.795,5.418C7.712,5.752,7.754,6.42,7.754,6.796c0,0.543-0.042,0.918,0.125,1.378
			c0.293,0.793,0.584,1.419,0.961,1.837c-1.504,0.292-2.506,1.086-3.215,1.378c-1.42,0.627-1.42,1.336-1.42,1.336v1.17h11.44v-1.17
			C15.645,12.767,15.645,12.057,14.226,11.431z"/>
	</g>
	<rect id="le_wrappier_9_" x="0.059" y="0.029" style="fill:none;" width="19.971" height="19.971"/>
	<rect id="le_wrappier_11_" x="0.029" style="fill:none;" width="20" height="20"/>
</g>
</svg>
