<?xml version="1.0" encoding="iso-8859-1"?>
<!-- Generator: Adobe Illustrator 16.0.0, SVG Export Plug-In . SVG Version: 6.00 Build 0)  -->
<!DOCTYPE svg PUBLIC "-//W3C//DTD SVG 1.1//EN" "http://www.w3.org/Graphics/SVG/1.1/DTD/svg11.dtd">
<svg version="1.1" id="Layer_1" xmlns="http://www.w3.org/2000/svg" xmlns:xlink="http://www.w3.org/1999/xlink" x="0px" y="0px"
	 width="20px" height="20.004px" viewBox="0 0 20 20.004" style="enable-background:new 0 0 20 20.004;" xml:space="preserve">
<g id="restricted-red-background">
	<g>
		<path style="fill:#EE4249;" d="M20,10.001c0,5.524-4.479,10.003-10.001,10.003C4.476,20.004,0,15.525,0,10.001
			C0,4.479,4.476,0,9.999,0C15.521,0,20,4.479,20,10.001"/>
		<path style="fill:#FFFFFF;" d="M9.999,2.077c-4.376,0-7.925,3.548-7.925,7.924c0,4.374,3.548,7.923,7.925,7.923
			s7.925-3.549,7.925-7.923C17.924,5.625,14.375,2.077,9.999,2.077 M15.941,10.001c0,1.278-0.409,2.464-1.101,3.438L6.562,5.154
			c0.971-0.69,2.156-1.098,3.436-1.098C13.275,4.059,15.941,6.725,15.941,10.001 M4.058,10.001c0-1.289,0.412-2.483,1.114-3.458
			l8.287,8.289c-0.975,0.693-2.168,1.111-3.459,1.111C6.725,15.943,4.058,13.275,4.058,10.001"/>
	</g>
</g>
<g id="Layer_1_1_">
</g>
</svg>
